<?xml version="1.0" encoding="utf-8" standalone="no"?>
<!DOCTYPE svg PUBLIC "-//W3C//DTD SVG 1.1//EN"
  "http://www.w3.org/Graphics/SVG/1.1/DTD/svg11.dtd">
<svg xmlns:xlink="http://www.w3.org/1999/xlink" width="886.202667pt" height="417.88525pt" viewBox="0 0 886.202667 417.88525" xmlns="http://www.w3.org/2000/svg" version="1.1">
 <metadata>
  <rdf:RDF xmlns:dc="http://purl.org/dc/elements/1.1/" xmlns:cc="http://creativecommons.org/ns#" xmlns:rdf="http://www.w3.org/1999/02/22-rdf-syntax-ns#">
   <cc:Work>
    <dc:type rdf:resource="http://purl.org/dc/dcmitype/StillImage"/>
    <dc:date>2025-11-16T16:02:13.283782</dc:date>
    <dc:format>image/svg+xml</dc:format>
    <dc:creator>
     <cc:Agent>
      <dc:title>Matplotlib v3.10.7, https://matplotlib.org/</dc:title>
     </cc:Agent>
    </dc:creator>
   </cc:Work>
  </rdf:RDF>
 </metadata>
 <defs>
  <style type="text/css">*{stroke-linejoin: round; stroke-linecap: butt}</style>
 </defs>
 <g id="figure_1">
  <g id="patch_1">
   <path d="M 0 417.88525 
L 886.202667 417.88525 
L 886.202667 0 
L 0 0 
z
" style="fill: #ffffff"/>
  </g>
  <g id="axes_1">
   <g id="matplotlib.axis_1"/>
   <g id="matplotlib.axis_2"/>
   <g id="patch_2">
    <path d="M 204.705641 71.317237 
C 182.842518 71.317237 161.286715 76.492328 141.806529 86.417978 
C 122.326343 96.343629 105.469424 110.740798 92.618602 128.428437 
C 79.76778 146.116075 71.284333 166.596928 67.864187 188.19088 
C 64.444041 209.784833 66.183347 231.88481 72.939424 252.677877 
C 79.695501 273.470943 91.278414 292.372539 106.737977 307.832102 
C 122.19754 323.291665 141.099136 334.874578 161.892202 341.630655 
C 182.685269 348.386732 204.785246 350.126038 226.379199 346.705892 
C 247.973151 343.285745 268.454004 334.802299 286.141642 321.951477 
L 204.705641 209.864437 
z
" style="fill: #1565c0"/>
   </g>
   <g id="patch_3">
    <path d="M 286.141616 321.951494 
C 300.86076 311.257418 313.330285 297.767966 322.836547 282.255157 
C 332.342809 266.742348 338.700935 249.507899 341.54709 231.538044 
C 344.393246 213.568186 343.672053 195.212422 339.424778 177.521263 
C 335.177511 159.830103 327.486758 143.147577 316.792682 128.428438 
L 204.705641 209.864437 
z
" style="fill: #ef6c00"/>
   </g>
   <g id="patch_4">
    <path d="M 316.792682 128.428438 
C 303.941858 110.740795 287.084926 96.343617 267.604736 86.417969 
C 248.124546 76.492322 226.568784 71.317237 204.705661 71.317237 
L 204.705641 209.864437 
z
" style="fill: #757575"/>
   </g>
   <g id="text_1">
    <!-- Execution -->
    <g style="fill: #262626" transform="translate(7.2 253.879596) scale(0.11 -0.11)">
     <defs>
      <path id="LiberationSans-Bold-45" d="M 428 0 
L 428 4403 
L 3891 4403 
L 3891 3691 
L 1350 3691 
L 1350 2584 
L 3700 2584 
L 3700 1872 
L 1350 1872 
L 1350 713 
L 4019 713 
L 4019 0 
L 428 0 
z
" transform="scale(0.015625)"/>
      <path id="LiberationSans-Bold-78" d="M 2559 0 
L 1772 1225 
L 978 0 
L 44 0 
L 1281 1747 
L 103 3381 
L 1050 3381 
L 1772 2275 
L 2491 3381 
L 3444 3381 
L 2266 1756 
L 3513 0 
L 2559 0 
z
" transform="scale(0.015625)"/>
      <path id="LiberationSans-Bold-65" d="M 1831 -63 
Q 1069 -63 659 389 
Q 250 841 250 1706 
Q 250 2544 665 2994 
Q 1081 3444 1844 3444 
Q 2572 3444 2956 2961 
Q 3341 2478 3341 1547 
L 3341 1522 
L 1172 1522 
Q 1172 1028 1355 776 
Q 1538 525 1875 525 
Q 2341 525 2463 928 
L 3291 856 
Q 2931 -63 1831 -63 
z
M 1831 2891 
Q 1522 2891 1355 2675 
Q 1188 2459 1178 2072 
L 2491 2072 
Q 2466 2481 2294 2686 
Q 2122 2891 1831 2891 
z
" transform="scale(0.015625)"/>
      <path id="LiberationSans-Bold-63" d="M 1856 -63 
Q 1088 -63 669 395 
Q 250 853 250 1672 
Q 250 2509 672 2976 
Q 1094 3444 1869 3444 
Q 2466 3444 2856 3144 
Q 3247 2844 3347 2316 
L 2463 2272 
Q 2425 2531 2275 2686 
Q 2125 2841 1850 2841 
Q 1172 2841 1172 1706 
Q 1172 538 1863 538 
Q 2113 538 2281 695 
Q 2450 853 2491 1166 
L 3372 1125 
Q 3325 778 3123 506 
Q 2922 234 2594 85 
Q 2266 -63 1856 -63 
z
" transform="scale(0.015625)"/>
      <path id="LiberationSans-Bold-75" d="M 1275 3381 
L 1275 1484 
Q 1275 594 1875 594 
Q 2194 594 2389 867 
Q 2584 1141 2584 1569 
L 2584 3381 
L 3463 3381 
L 3463 756 
Q 3463 325 3488 0 
L 2650 0 
Q 2613 450 2613 672 
L 2597 672 
Q 2422 288 2151 112 
Q 1881 -63 1509 -63 
Q 972 -63 684 267 
Q 397 597 397 1234 
L 397 3381 
L 1275 3381 
z
" transform="scale(0.015625)"/>
      <path id="LiberationSans-Bold-74" d="M 1313 -56 
Q 925 -56 715 155 
Q 506 366 506 794 
L 506 2788 
L 78 2788 
L 78 3381 
L 550 3381 
L 825 4175 
L 1375 4175 
L 1375 3381 
L 2016 3381 
L 2016 2788 
L 1375 2788 
L 1375 1031 
Q 1375 784 1469 667 
Q 1563 550 1759 550 
Q 1863 550 2053 594 
L 2053 50 
Q 1728 -56 1313 -56 
z
" transform="scale(0.015625)"/>
      <path id="LiberationSans-Bold-69" d="M 447 3991 
L 447 4638 
L 1325 4638 
L 1325 3991 
L 447 3991 
z
M 447 0 
L 447 3381 
L 1325 3381 
L 1325 0 
L 447 0 
z
" transform="scale(0.015625)"/>
      <path id="LiberationSans-Bold-6f" d="M 3659 1694 
Q 3659 872 3203 404 
Q 2747 -63 1941 -63 
Q 1150 -63 700 406 
Q 250 875 250 1694 
Q 250 2509 700 2976 
Q 1150 3444 1959 3444 
Q 2788 3444 3223 2992 
Q 3659 2541 3659 1694 
z
M 2741 1694 
Q 2741 2297 2544 2569 
Q 2347 2841 1972 2841 
Q 1172 2841 1172 1694 
Q 1172 1128 1367 833 
Q 1563 538 1931 538 
Q 2741 538 2741 1694 
z
" transform="scale(0.015625)"/>
      <path id="LiberationSans-Bold-6e" d="M 2638 0 
L 2638 1897 
Q 2638 2788 2034 2788 
Q 1716 2788 1520 2514 
Q 1325 2241 1325 1813 
L 1325 0 
L 447 0 
L 447 2625 
Q 447 2897 439 3070 
Q 431 3244 422 3381 
L 1259 3381 
Q 1269 3322 1284 3064 
Q 1300 2806 1300 2709 
L 1313 2709 
Q 1491 3097 1759 3272 
Q 2028 3447 2400 3447 
Q 2938 3447 3225 3115 
Q 3513 2784 3513 2147 
L 3513 0 
L 2638 0 
z
" transform="scale(0.015625)"/>
     </defs>
     <use xlink:href="#LiberationSans-Bold-45"/>
     <use xlink:href="#LiberationSans-Bold-78" transform="translate(66.699219 0)"/>
     <use xlink:href="#LiberationSans-Bold-65" transform="translate(122.314453 0)"/>
     <use xlink:href="#LiberationSans-Bold-63" transform="translate(177.929688 0)"/>
     <use xlink:href="#LiberationSans-Bold-75" transform="translate(233.544922 0)"/>
     <use xlink:href="#LiberationSans-Bold-74" transform="translate(294.628906 0)"/>
     <use xlink:href="#LiberationSans-Bold-69" transform="translate(327.929688 0)"/>
     <use xlink:href="#LiberationSans-Bold-6f" transform="translate(355.712891 0)"/>
     <use xlink:href="#LiberationSans-Bold-6e" transform="translate(416.796875 0)"/>
    </g>
    <!-- Cost -->
    <g style="fill: #262626" transform="translate(35.320469 265.727971) scale(0.11 -0.11)">
     <defs>
      <path id="LiberationSans-Bold-43" d="M 2484 663 
Q 3319 663 3644 1500 
L 4447 1197 
Q 4188 559 3686 248 
Q 3184 -63 2484 -63 
Q 1422 -63 842 539 
Q 263 1141 263 2222 
Q 263 3306 822 3887 
Q 1381 4469 2444 4469 
Q 3219 4469 3706 4158 
Q 4194 3847 4391 3244 
L 3578 3022 
Q 3475 3353 3173 3548 
Q 2872 3744 2463 3744 
Q 1838 3744 1514 3356 
Q 1191 2969 1191 2222 
Q 1191 1463 1523 1063 
Q 1856 663 2484 663 
z
" transform="scale(0.015625)"/>
      <path id="LiberationSans-Bold-73" d="M 3297 988 
Q 3297 497 2895 217 
Q 2494 -63 1784 -63 
Q 1088 -63 717 157 
Q 347 378 225 844 
L 997 959 
Q 1063 719 1223 619 
Q 1384 519 1784 519 
Q 2153 519 2322 612 
Q 2491 706 2491 906 
Q 2491 1069 2355 1164 
Q 2219 1259 1894 1325 
Q 1150 1472 890 1598 
Q 631 1725 495 1926 
Q 359 2128 359 2422 
Q 359 2906 732 3176 
Q 1106 3447 1791 3447 
Q 2394 3447 2761 3212 
Q 3128 2978 3219 2534 
L 2441 2453 
Q 2403 2659 2256 2761 
Q 2109 2863 1791 2863 
Q 1478 2863 1322 2783 
Q 1166 2703 1166 2516 
Q 1166 2369 1286 2283 
Q 1406 2197 1691 2141 
Q 2088 2059 2395 1973 
Q 2703 1888 2889 1769 
Q 3075 1650 3186 1464 
Q 3297 1278 3297 988 
z
" transform="scale(0.015625)"/>
     </defs>
     <use xlink:href="#LiberationSans-Bold-43"/>
     <use xlink:href="#LiberationSans-Bold-6f" transform="translate(72.216797 0)"/>
     <use xlink:href="#LiberationSans-Bold-73" transform="translate(133.300781 0)"/>
     <use xlink:href="#LiberationSans-Bold-74" transform="translate(188.916016 0)"/>
    </g>
   </g>
   <g id="text_2">
    <!-- 60% -->
    <g style="fill: #ffffff" transform="translate(113.637479 238.655643) scale(0.12 -0.12)">
     <defs>
      <path id="LiberationSans-Bold-36" d="M 3328 1441 
Q 3328 738 2934 337 
Q 2541 -63 1847 -63 
Q 1069 -63 651 482 
Q 234 1028 234 2100 
Q 234 3278 657 3873 
Q 1081 4469 1869 4469 
Q 2428 4469 2751 4222 
Q 3075 3975 3209 3456 
L 2381 3341 
Q 2263 3775 1850 3775 
Q 1497 3775 1295 3422 
Q 1094 3069 1094 2350 
Q 1234 2584 1484 2709 
Q 1734 2834 2050 2834 
Q 2641 2834 2984 2459 
Q 3328 2084 3328 1441 
z
M 2447 1416 
Q 2447 1791 2273 1989 
Q 2100 2188 1797 2188 
Q 1506 2188 1331 2002 
Q 1156 1816 1156 1509 
Q 1156 1125 1339 873 
Q 1522 622 1819 622 
Q 2116 622 2281 833 
Q 2447 1044 2447 1416 
z
" transform="scale(0.015625)"/>
      <path id="LiberationSans-Bold-30" d="M 3297 2203 
Q 3297 1088 2914 512 
Q 2531 -63 1766 -63 
Q 253 -63 253 2203 
Q 253 2994 418 3494 
Q 584 3994 915 4231 
Q 1247 4469 1791 4469 
Q 2572 4469 2934 3903 
Q 3297 3338 3297 2203 
z
M 2416 2203 
Q 2416 2813 2356 3150 
Q 2297 3488 2165 3634 
Q 2034 3781 1784 3781 
Q 1519 3781 1383 3632 
Q 1247 3484 1189 3148 
Q 1131 2813 1131 2203 
Q 1131 1600 1192 1261 
Q 1253 922 1386 775 
Q 1519 628 1772 628 
Q 2022 628 2158 783 
Q 2294 938 2355 1278 
Q 2416 1619 2416 2203 
z
" transform="scale(0.015625)"/>
      <path id="LiberationSans-Bold-25" d="M 5522 1350 
Q 5522 669 5240 309 
Q 4959 -50 4416 -50 
Q 3866 -50 3587 306 
Q 3309 663 3309 1350 
Q 3309 2050 3578 2401 
Q 3847 2753 4428 2753 
Q 4991 2753 5256 2398 
Q 5522 2044 5522 1350 
z
M 1725 0 
L 1081 0 
L 3956 4403 
L 4609 4403 
L 1725 0 
z
M 1275 4453 
Q 1834 4453 2104 4100 
Q 2375 3747 2375 3053 
Q 2375 2372 2092 2011 
Q 1809 1650 1259 1650 
Q 716 1650 437 2008 
Q 159 2366 159 3053 
Q 159 3763 428 4108 
Q 697 4453 1275 4453 
z
M 4850 1350 
Q 4850 1847 4754 2059 
Q 4659 2272 4428 2272 
Q 4178 2272 4083 2056 
Q 3988 1841 3988 1350 
Q 3988 850 4088 645 
Q 4188 441 4422 441 
Q 4650 441 4750 653 
Q 4850 866 4850 1350 
z
M 1697 3053 
Q 1697 3544 1601 3756 
Q 1506 3969 1275 3969 
Q 1025 3969 928 3758 
Q 831 3547 831 3053 
Q 831 2559 932 2348 
Q 1034 2138 1269 2138 
Q 1500 2138 1598 2350 
Q 1697 2563 1697 3053 
z
" transform="scale(0.015625)"/>
     </defs>
     <use xlink:href="#LiberationSans-Bold-36"/>
     <use xlink:href="#LiberationSans-Bold-30" transform="translate(55.615234 0)"/>
     <use xlink:href="#LiberationSans-Bold-25" transform="translate(111.230469 0)"/>
    </g>
   </g>
   <g id="text_3">
    <!-- Governance -->
    <g style="fill: #262626" transform="translate(355.231244 230.625677) scale(0.11 -0.11)">
     <defs>
      <path id="LiberationSans-Bold-47" d="M 2519 659 
Q 2878 659 3215 764 
Q 3553 869 3738 1031 
L 3738 1641 
L 2663 1641 
L 2663 2322 
L 4581 2322 
L 4581 703 
Q 4231 344 3670 140 
Q 3109 -63 2494 -63 
Q 1419 -63 841 532 
Q 263 1128 263 2222 
Q 263 3309 844 3889 
Q 1425 4469 2516 4469 
Q 4066 4469 4488 3322 
L 3638 3066 
Q 3500 3400 3206 3572 
Q 2913 3744 2516 3744 
Q 1866 3744 1528 3350 
Q 1191 2956 1191 2222 
Q 1191 1475 1539 1067 
Q 1888 659 2519 659 
z
" transform="scale(0.015625)"/>
      <path id="LiberationSans-Bold-76" d="M 2284 0 
L 1234 0 
L 25 3381 
L 953 3381 
L 1544 1491 
Q 1591 1334 1766 709 
Q 1797 838 1894 1159 
Q 1991 1481 2613 3381 
L 3531 3381 
L 2284 0 
z
" transform="scale(0.015625)"/>
      <path id="LiberationSans-Bold-72" d="M 447 0 
L 447 2588 
Q 447 2866 439 3052 
Q 431 3238 422 3381 
L 1259 3381 
Q 1269 3325 1284 3039 
Q 1300 2753 1300 2659 
L 1313 2659 
Q 1441 3016 1541 3161 
Q 1641 3306 1778 3376 
Q 1916 3447 2122 3447 
Q 2291 3447 2394 3400 
L 2394 2666 
Q 2181 2713 2019 2713 
Q 1691 2713 1508 2447 
Q 1325 2181 1325 1659 
L 1325 0 
L 447 0 
z
" transform="scale(0.015625)"/>
      <path id="LiberationSans-Bold-61" d="M 1228 -63 
Q 738 -63 463 204 
Q 188 472 188 956 
Q 188 1481 530 1756 
Q 872 2031 1522 2038 
L 2250 2050 
L 2250 2222 
Q 2250 2553 2134 2714 
Q 2019 2875 1756 2875 
Q 1513 2875 1398 2764 
Q 1284 2653 1256 2397 
L 341 2441 
Q 425 2934 792 3189 
Q 1159 3444 1794 3444 
Q 2434 3444 2781 3128 
Q 3128 2813 3128 2231 
L 3128 1000 
Q 3128 716 3192 608 
Q 3256 500 3406 500 
Q 3506 500 3600 519 
L 3600 44 
Q 3522 25 3459 9 
Q 3397 -6 3334 -15 
Q 3272 -25 3201 -31 
Q 3131 -38 3038 -38 
Q 2706 -38 2548 125 
Q 2391 288 2359 603 
L 2341 603 
Q 1972 -63 1228 -63 
z
M 2250 1566 
L 1800 1559 
Q 1494 1547 1366 1492 
Q 1238 1438 1170 1325 
Q 1103 1213 1103 1025 
Q 1103 784 1214 667 
Q 1325 550 1509 550 
Q 1716 550 1886 662 
Q 2056 775 2153 973 
Q 2250 1172 2250 1394 
L 2250 1566 
z
" transform="scale(0.015625)"/>
     </defs>
     <use xlink:href="#LiberationSans-Bold-47"/>
     <use xlink:href="#LiberationSans-Bold-6f" transform="translate(77.783203 0)"/>
     <use xlink:href="#LiberationSans-Bold-76" transform="translate(138.867188 0)"/>
     <use xlink:href="#LiberationSans-Bold-65" transform="translate(194.482422 0)"/>
     <use xlink:href="#LiberationSans-Bold-72" transform="translate(250.097656 0)"/>
     <use xlink:href="#LiberationSans-Bold-6e" transform="translate(289.013672 0)"/>
     <use xlink:href="#LiberationSans-Bold-61" transform="translate(350.097656 0)"/>
     <use xlink:href="#LiberationSans-Bold-6e" transform="translate(405.712891 0)"/>
     <use xlink:href="#LiberationSans-Bold-63" transform="translate(466.796875 0)"/>
     <use xlink:href="#LiberationSans-Bold-65" transform="translate(522.412109 0)"/>
    </g>
    <!-- Cost -->
    <g style="fill: #262626" transform="translate(355.231244 242.474052) scale(0.11 -0.11)">
     <use xlink:href="#LiberationSans-Bold-43"/>
     <use xlink:href="#LiberationSans-Bold-6f" transform="translate(72.216797 0)"/>
     <use xlink:href="#LiberationSans-Bold-73" transform="translate(133.300781 0)"/>
     <use xlink:href="#LiberationSans-Bold-74" transform="translate(188.916016 0)"/>
    </g>
   </g>
   <g id="text_4">
    <!-- 25% -->
    <g style="fill: #ffffff" transform="translate(274.802078 225.971688) scale(0.12 -0.12)">
     <defs>
      <path id="LiberationSans-Bold-32" d="M 222 0 
L 222 609 
Q 394 988 711 1347 
Q 1028 1706 1509 2097 
Q 1972 2472 2158 2715 
Q 2344 2959 2344 3194 
Q 2344 3769 1766 3769 
Q 1484 3769 1336 3617 
Q 1188 3466 1144 3163 
L 259 3213 
Q 334 3825 717 4147 
Q 1100 4469 1759 4469 
Q 2472 4469 2853 4144 
Q 3234 3819 3234 3231 
Q 3234 2922 3112 2672 
Q 2991 2422 2800 2211 
Q 2609 2000 2376 1815 
Q 2144 1631 1925 1456 
Q 1706 1281 1526 1103 
Q 1347 925 1259 722 
L 3303 722 
L 3303 0 
L 222 0 
z
" transform="scale(0.015625)"/>
      <path id="LiberationSans-Bold-35" d="M 3381 1466 
Q 3381 766 2945 351 
Q 2509 -63 1750 -63 
Q 1088 -63 689 235 
Q 291 534 197 1100 
L 1075 1172 
Q 1144 891 1319 762 
Q 1494 634 1759 634 
Q 2088 634 2283 843 
Q 2478 1053 2478 1447 
Q 2478 1794 2293 2001 
Q 2109 2209 1778 2209 
Q 1413 2209 1181 1925 
L 325 1925 
L 478 4403 
L 3125 4403 
L 3125 3750 
L 1275 3750 
L 1203 2638 
Q 1522 2919 2000 2919 
Q 2628 2919 3004 2528 
Q 3381 2138 3381 1466 
z
" transform="scale(0.015625)"/>
     </defs>
     <use xlink:href="#LiberationSans-Bold-32"/>
     <use xlink:href="#LiberationSans-Bold-35" transform="translate(55.615234 0)"/>
     <use xlink:href="#LiberationSans-Bold-25" transform="translate(111.230469 0)"/>
    </g>
   </g>
   <g id="text_5">
    <!-- Other -->
    <g style="fill: #262626" transform="translate(273.89471 76.917887) scale(0.11 -0.11)">
     <defs>
      <path id="LiberationSans-Bold-4f" d="M 4709 2222 
Q 4709 1534 4437 1012 
Q 4166 491 3659 214 
Q 3153 -63 2478 -63 
Q 1441 -63 852 548 
Q 263 1159 263 2222 
Q 263 3281 850 3875 
Q 1438 4469 2484 4469 
Q 3531 4469 4120 3869 
Q 4709 3269 4709 2222 
z
M 3769 2222 
Q 3769 2934 3431 3339 
Q 3094 3744 2484 3744 
Q 1866 3744 1528 3342 
Q 1191 2941 1191 2222 
Q 1191 1497 1536 1080 
Q 1881 663 2478 663 
Q 3097 663 3433 1069 
Q 3769 1475 3769 2222 
z
" transform="scale(0.015625)"/>
      <path id="LiberationSans-Bold-68" d="M 1313 2706 
Q 1491 3094 1759 3269 
Q 2028 3444 2400 3444 
Q 2938 3444 3225 3112 
Q 3513 2781 3513 2144 
L 3513 0 
L 2638 0 
L 2638 1894 
Q 2638 2784 2034 2784 
Q 1716 2784 1520 2511 
Q 1325 2238 1325 1809 
L 1325 0 
L 447 0 
L 447 4638 
L 1325 4638 
L 1325 3372 
Q 1325 3031 1300 2706 
L 1313 2706 
z
" transform="scale(0.015625)"/>
     </defs>
     <use xlink:href="#LiberationSans-Bold-4f"/>
     <use xlink:href="#LiberationSans-Bold-74" transform="translate(77.783203 0)"/>
     <use xlink:href="#LiberationSans-Bold-68" transform="translate(111.083984 0)"/>
     <use xlink:href="#LiberationSans-Bold-65" transform="translate(172.167969 0)"/>
     <use xlink:href="#LiberationSans-Bold-72" transform="translate(227.783203 0)"/>
    </g>
   </g>
   <g id="text_6">
    <!-- 15% -->
    <g style="fill: #ffffff" transform="translate(230.436696 138.8997) scale(0.12 -0.12)">
     <defs>
      <path id="LiberationSans-Bold-31" d="M 403 0 
L 403 653 
L 1494 653 
L 1494 3656 
L 438 2997 
L 438 3688 
L 1541 4403 
L 2372 4403 
L 2372 653 
L 3381 653 
L 3381 0 
L 403 0 
z
" transform="scale(0.015625)"/>
     </defs>
     <use xlink:href="#LiberationSans-Bold-31"/>
     <use xlink:href="#LiberationSans-Bold-35" transform="translate(55.615234 0)"/>
     <use xlink:href="#LiberationSans-Bold-25" transform="translate(111.230469 0)"/>
    </g>
   </g>
   <g id="text_7">
    <!-- Before AI Agents: -->
    <g style="fill: #262626" transform="translate(150.301657 16.620937) scale(0.13 -0.13)">
     <defs>
      <path id="LiberationSans-Bold-42" d="M 4331 1256 
Q 4331 656 3881 328 
Q 3431 0 2631 0 
L 428 0 
L 428 4403 
L 2444 4403 
Q 3250 4403 3664 4123 
Q 4078 3844 4078 3297 
Q 4078 2922 3870 2664 
Q 3663 2406 3238 2316 
Q 3772 2253 4051 1979 
Q 4331 1706 4331 1256 
z
M 3150 3172 
Q 3150 3469 2961 3594 
Q 2772 3719 2400 3719 
L 1350 3719 
L 1350 2628 
L 2406 2628 
Q 2797 2628 2973 2764 
Q 3150 2900 3150 3172 
z
M 3406 1328 
Q 3406 1947 2519 1947 
L 1350 1947 
L 1350 684 
L 2553 684 
Q 2997 684 3201 845 
Q 3406 1006 3406 1328 
z
" transform="scale(0.015625)"/>
      <path id="LiberationSans-Bold-66" d="M 1478 2788 
L 1478 0 
L 603 0 
L 603 2788 
L 109 2788 
L 109 3381 
L 603 3381 
L 603 3734 
Q 603 4194 847 4416 
Q 1091 4638 1588 4638 
Q 1834 4638 2144 4588 
L 2144 4022 
Q 2016 4050 1888 4050 
Q 1663 4050 1570 3961 
Q 1478 3872 1478 3647 
L 1478 3381 
L 2144 3381 
L 2144 2788 
L 1478 2788 
z
" transform="scale(0.015625)"/>
      <path id="LiberationSans-Bold-20" transform="scale(0.015625)"/>
      <path id="LiberationSans-Bold-41" d="M 3541 0 
L 3150 1125 
L 1472 1125 
L 1081 0 
L 159 0 
L 1766 4403 
L 2853 4403 
L 4453 0 
L 3541 0 
z
M 2309 3725 
L 2291 3656 
Q 2259 3544 2215 3400 
Q 2172 3256 1678 1819 
L 2944 1819 
L 2509 3084 
L 2375 3509 
L 2309 3725 
z
" transform="scale(0.015625)"/>
      <path id="LiberationSans-Bold-49" d="M 428 0 
L 428 4403 
L 1350 4403 
L 1350 0 
L 428 0 
z
" transform="scale(0.015625)"/>
      <path id="LiberationSans-Bold-67" d="M 1863 -1356 
Q 1244 -1356 867 -1120 
Q 491 -884 403 -447 
L 1281 -344 
Q 1328 -547 1483 -662 
Q 1638 -778 1888 -778 
Q 2253 -778 2422 -553 
Q 2591 -328 2591 116 
L 2591 294 
L 2597 628 
L 2591 628 
Q 2300 6 1503 6 
Q 913 6 588 450 
Q 263 894 263 1719 
Q 263 2547 597 2997 
Q 931 3447 1569 3447 
Q 2306 3447 2591 2838 
L 2606 2838 
Q 2606 2947 2620 3134 
Q 2634 3322 2650 3381 
L 3481 3381 
Q 3463 3044 3463 2600 
L 3463 103 
Q 3463 -619 3053 -987 
Q 2644 -1356 1863 -1356 
z
M 2597 1738 
Q 2597 2259 2411 2551 
Q 2225 2844 1881 2844 
Q 1178 2844 1178 1719 
Q 1178 616 1875 616 
Q 2225 616 2411 908 
Q 2597 1200 2597 1738 
z
" transform="scale(0.015625)"/>
      <path id="LiberationSans-Bold-3a" d="M 616 2350 
L 616 3231 
L 1516 3231 
L 1516 2350 
L 616 2350 
z
M 616 0 
L 616 878 
L 1516 878 
L 1516 0 
L 616 0 
z
" transform="scale(0.015625)"/>
     </defs>
     <use xlink:href="#LiberationSans-Bold-42"/>
     <use xlink:href="#LiberationSans-Bold-65" transform="translate(72.216797 0)"/>
     <use xlink:href="#LiberationSans-Bold-66" transform="translate(127.832031 0)"/>
     <use xlink:href="#LiberationSans-Bold-6f" transform="translate(161.132812 0)"/>
     <use xlink:href="#LiberationSans-Bold-72" transform="translate(222.216797 0)"/>
     <use xlink:href="#LiberationSans-Bold-65" transform="translate(261.132812 0)"/>
     <use xlink:href="#LiberationSans-Bold-20" transform="translate(316.748047 0)"/>
     <use xlink:href="#LiberationSans-Bold-41" transform="translate(340.78125 0)"/>
     <use xlink:href="#LiberationSans-Bold-49" transform="translate(412.998047 0)"/>
     <use xlink:href="#LiberationSans-Bold-20" transform="translate(440.78125 0)"/>
     <use xlink:href="#LiberationSans-Bold-41" transform="translate(464.814453 0)"/>
     <use xlink:href="#LiberationSans-Bold-67" transform="translate(537.03125 0)"/>
     <use xlink:href="#LiberationSans-Bold-65" transform="translate(598.115234 0)"/>
     <use xlink:href="#LiberationSans-Bold-6e" transform="translate(653.730469 0)"/>
     <use xlink:href="#LiberationSans-Bold-74" transform="translate(714.814453 0)"/>
     <use xlink:href="#LiberationSans-Bold-73" transform="translate(748.115234 0)"/>
     <use xlink:href="#LiberationSans-Bold-3a" transform="translate(803.730469 0)"/>
    </g>
    <!-- Cost Structure -->
    <g style="fill: #262626" transform="translate(159.563141 30.680437) scale(0.13 -0.13)">
     <defs>
      <path id="LiberationSans-Bold-53" d="M 4019 1269 
Q 4019 622 3539 279 
Q 3059 -63 2131 -63 
Q 1284 -63 803 237 
Q 322 538 184 1147 
L 1075 1294 
Q 1166 944 1428 786 
Q 1691 628 2156 628 
Q 3122 628 3122 1216 
Q 3122 1403 3011 1525 
Q 2900 1647 2698 1728 
Q 2497 1809 1925 1925 
Q 1431 2041 1237 2111 
Q 1044 2181 887 2276 
Q 731 2372 622 2506 
Q 513 2641 452 2822 
Q 391 3003 391 3238 
Q 391 3834 839 4151 
Q 1288 4469 2144 4469 
Q 2963 4469 3373 4212 
Q 3784 3956 3903 3366 
L 3009 3244 
Q 2941 3528 2730 3672 
Q 2519 3816 2125 3816 
Q 1288 3816 1288 3291 
Q 1288 3119 1377 3009 
Q 1466 2900 1641 2823 
Q 1816 2747 2350 2631 
Q 2984 2497 3257 2383 
Q 3531 2269 3690 2117 
Q 3850 1966 3934 1755 
Q 4019 1544 4019 1269 
z
" transform="scale(0.015625)"/>
     </defs>
     <use xlink:href="#LiberationSans-Bold-43"/>
     <use xlink:href="#LiberationSans-Bold-6f" transform="translate(72.216797 0)"/>
     <use xlink:href="#LiberationSans-Bold-73" transform="translate(133.300781 0)"/>
     <use xlink:href="#LiberationSans-Bold-74" transform="translate(188.916016 0)"/>
     <use xlink:href="#LiberationSans-Bold-20" transform="translate(222.216797 0)"/>
     <use xlink:href="#LiberationSans-Bold-53" transform="translate(250 0)"/>
     <use xlink:href="#LiberationSans-Bold-74" transform="translate(316.699219 0)"/>
     <use xlink:href="#LiberationSans-Bold-72" transform="translate(350 0)"/>
     <use xlink:href="#LiberationSans-Bold-75" transform="translate(388.916016 0)"/>
     <use xlink:href="#LiberationSans-Bold-63" transform="translate(450 0)"/>
     <use xlink:href="#LiberationSans-Bold-74" transform="translate(505.615234 0)"/>
     <use xlink:href="#LiberationSans-Bold-75" transform="translate(538.916016 0)"/>
     <use xlink:href="#LiberationSans-Bold-72" transform="translate(600 0)"/>
     <use xlink:href="#LiberationSans-Bold-65" transform="translate(638.916016 0)"/>
    </g>
   </g>
  </g>
  <g id="axes_2">
   <g id="matplotlib.axis_3"/>
   <g id="matplotlib.axis_4"/>
   <g id="patch_5">
    <path d="M 705.818667 71.317237 
C 683.955543 71.317237 662.39974 76.492328 642.919554 86.417978 
C 623.439368 96.343629 606.582449 110.740798 593.731627 128.428437 
L 705.818667 209.864437 
z
" style="fill: #1565c0"/>
   </g>
   <g id="patch_6">
    <path d="M 593.731626 128.428438 
C 578.714375 149.097916 569.703101 173.524033 567.698557 198.994157 
C 565.694013 224.464281 570.773254 249.999336 582.372207 272.763557 
C 593.971159 295.527778 611.643937 314.646071 633.427931 327.995327 
C 655.211929 341.344583 680.269788 348.411637 705.818668 348.411637 
C 731.36755 348.411637 756.425404 341.344583 778.209402 327.995327 
C 799.993396 314.646071 817.666174 295.527769 829.265126 272.763553 
C 840.864079 249.999336 845.943304 224.464311 843.938776 198.994187 
C 841.93424 173.524062 832.922958 149.097916 817.905707 128.428438 
L 705.818667 209.864437 
z
" style="fill: #ef6c00"/>
   </g>
   <g id="patch_7">
    <path d="M 817.905707 128.428438 
C 805.054883 110.740795 788.197951 96.343617 768.717761 86.417969 
C 749.237571 76.492322 727.68181 71.317237 705.818686 71.317237 
L 705.818667 209.864437 
z
" style="fill: #757575"/>
   </g>
   <g id="text_8">
    <!-- Execution -->
    <g style="fill: #262626" transform="translate(584.066847 70.993668) scale(0.11 -0.11)">
     <use xlink:href="#LiberationSans-Bold-45"/>
     <use xlink:href="#LiberationSans-Bold-78" transform="translate(66.699219 0)"/>
     <use xlink:href="#LiberationSans-Bold-65" transform="translate(122.314453 0)"/>
     <use xlink:href="#LiberationSans-Bold-63" transform="translate(177.929688 0)"/>
     <use xlink:href="#LiberationSans-Bold-75" transform="translate(233.544922 0)"/>
     <use xlink:href="#LiberationSans-Bold-74" transform="translate(294.628906 0)"/>
     <use xlink:href="#LiberationSans-Bold-69" transform="translate(327.929688 0)"/>
     <use xlink:href="#LiberationSans-Bold-6f" transform="translate(355.712891 0)"/>
     <use xlink:href="#LiberationSans-Bold-6e" transform="translate(416.796875 0)"/>
    </g>
    <!-- Cost -->
    <g style="fill: #262626" transform="translate(612.187316 82.842043) scale(0.11 -0.11)">
     <use xlink:href="#LiberationSans-Bold-43"/>
     <use xlink:href="#LiberationSans-Bold-6f" transform="translate(72.216797 0)"/>
     <use xlink:href="#LiberationSans-Bold-73" transform="translate(133.300781 0)"/>
     <use xlink:href="#LiberationSans-Bold-74" transform="translate(188.916016 0)"/>
    </g>
   </g>
   <g id="text_9">
    <!-- 15% -->
    <g style="fill: #ffffff" transform="translate(656.070771 138.899682) scale(0.12 -0.12)">
     <use xlink:href="#LiberationSans-Bold-31"/>
     <use xlink:href="#LiberationSans-Bold-35" transform="translate(55.615234 0)"/>
     <use xlink:href="#LiberationSans-Bold-25" transform="translate(111.230469 0)"/>
    </g>
   </g>
   <g id="text_10">
    <!-- Governance -->
    <g style="fill: #262626" transform="translate(705.818668 359.186701) scale(0.11 -0.11)">
     <use xlink:href="#LiberationSans-Bold-47"/>
     <use xlink:href="#LiberationSans-Bold-6f" transform="translate(77.783203 0)"/>
     <use xlink:href="#LiberationSans-Bold-76" transform="translate(138.867188 0)"/>
     <use xlink:href="#LiberationSans-Bold-65" transform="translate(194.482422 0)"/>
     <use xlink:href="#LiberationSans-Bold-72" transform="translate(250.097656 0)"/>
     <use xlink:href="#LiberationSans-Bold-6e" transform="translate(289.013672 0)"/>
     <use xlink:href="#LiberationSans-Bold-61" transform="translate(350.097656 0)"/>
     <use xlink:href="#LiberationSans-Bold-6e" transform="translate(405.712891 0)"/>
     <use xlink:href="#LiberationSans-Bold-63" transform="translate(466.796875 0)"/>
     <use xlink:href="#LiberationSans-Bold-65" transform="translate(522.412109 0)"/>
    </g>
    <!-- Cost -->
    <g style="fill: #262626" transform="translate(705.818668 371.035076) scale(0.11 -0.11)">
     <use xlink:href="#LiberationSans-Bold-43"/>
     <use xlink:href="#LiberationSans-Bold-6f" transform="translate(72.216797 0)"/>
     <use xlink:href="#LiberationSans-Bold-73" transform="translate(133.300781 0)"/>
     <use xlink:href="#LiberationSans-Bold-74" transform="translate(188.916016 0)"/>
    </g>
   </g>
   <g id="text_11">
    <!-- 70% -->
    <g style="fill: #ffffff" transform="translate(693.81023 296.095882) scale(0.12 -0.12)">
     <defs>
      <path id="LiberationSans-Bold-37" d="M 3278 3706 
Q 2981 3238 2717 2797 
Q 2453 2356 2256 1911 
Q 2059 1466 1945 995 
Q 1831 525 1831 0 
L 916 0 
Q 916 550 1059 1064 
Q 1203 1578 1475 2111 
Q 1747 2644 2463 3681 
L 275 3681 
L 275 4403 
L 3278 4403 
L 3278 3706 
z
" transform="scale(0.015625)"/>
     </defs>
     <use xlink:href="#LiberationSans-Bold-37"/>
     <use xlink:href="#LiberationSans-Bold-30" transform="translate(55.615234 0)"/>
     <use xlink:href="#LiberationSans-Bold-25" transform="translate(111.230469 0)"/>
    </g>
   </g>
   <g id="text_12">
    <!-- Other -->
    <g style="fill: #262626" transform="translate(775.007735 76.917887) scale(0.11 -0.11)">
     <use xlink:href="#LiberationSans-Bold-4f"/>
     <use xlink:href="#LiberationSans-Bold-74" transform="translate(77.783203 0)"/>
     <use xlink:href="#LiberationSans-Bold-68" transform="translate(111.083984 0)"/>
     <use xlink:href="#LiberationSans-Bold-65" transform="translate(172.167969 0)"/>
     <use xlink:href="#LiberationSans-Bold-72" transform="translate(227.783203 0)"/>
    </g>
   </g>
   <g id="text_13">
    <!-- 15% -->
    <g style="fill: #ffffff" transform="translate(731.549721 138.8997) scale(0.12 -0.12)">
     <use xlink:href="#LiberationSans-Bold-31"/>
     <use xlink:href="#LiberationSans-Bold-35" transform="translate(55.615234 0)"/>
     <use xlink:href="#LiberationSans-Bold-25" transform="translate(111.230469 0)"/>
    </g>
   </g>
   <g id="text_14">
    <!-- After AI Agents: -->
    <g style="fill: #262626" transform="translate(656.835073 16.620937) scale(0.13 -0.13)">
     <use xlink:href="#LiberationSans-Bold-41"/>
     <use xlink:href="#LiberationSans-Bold-66" transform="translate(72.216797 0)"/>
     <use xlink:href="#LiberationSans-Bold-74" transform="translate(105.517578 0)"/>
     <use xlink:href="#LiberationSans-Bold-65" transform="translate(138.818359 0)"/>
     <use xlink:href="#LiberationSans-Bold-72" transform="translate(194.433594 0)"/>
     <use xlink:href="#LiberationSans-Bold-20" transform="translate(233.349609 0)"/>
     <use xlink:href="#LiberationSans-Bold-41" transform="translate(257.382812 0)"/>
     <use xlink:href="#LiberationSans-Bold-49" transform="translate(329.599609 0)"/>
     <use xlink:href="#LiberationSans-Bold-20" transform="translate(357.382812 0)"/>
     <use xlink:href="#LiberationSans-Bold-41" transform="translate(381.416016 0)"/>
     <use xlink:href="#LiberationSans-Bold-67" transform="translate(453.632812 0)"/>
     <use xlink:href="#LiberationSans-Bold-65" transform="translate(514.716797 0)"/>
     <use xlink:href="#LiberationSans-Bold-6e" transform="translate(570.332031 0)"/>
     <use xlink:href="#LiberationSans-Bold-74" transform="translate(631.416016 0)"/>
     <use xlink:href="#LiberationSans-Bold-73" transform="translate(664.716797 0)"/>
     <use xlink:href="#LiberationSans-Bold-3a" transform="translate(720.332031 0)"/>
    </g>
    <!-- Cost Structure (Baumol Effect) -->
    <g style="fill: #262626" transform="translate(610.84351 30.680437) scale(0.13 -0.13)">
     <defs>
      <path id="LiberationSans-Bold-28" d="M 1247 -1328 
Q 756 -622 537 81 
Q 319 784 319 1659 
Q 319 2531 537 3232 
Q 756 3934 1247 4638 
L 2125 4638 
Q 1631 3925 1407 3219 
Q 1184 2513 1184 1656 
Q 1184 803 1406 101 
Q 1628 -600 2125 -1328 
L 1247 -1328 
z
" transform="scale(0.015625)"/>
      <path id="LiberationSans-Bold-6d" d="M 2438 0 
L 2438 1897 
Q 2438 2788 1925 2788 
Q 1659 2788 1492 2516 
Q 1325 2244 1325 1813 
L 1325 0 
L 447 0 
L 447 2625 
Q 447 2897 439 3070 
Q 431 3244 422 3381 
L 1259 3381 
Q 1269 3322 1284 3064 
Q 1300 2806 1300 2709 
L 1313 2709 
Q 1475 3097 1717 3272 
Q 1959 3447 2297 3447 
Q 3072 3447 3238 2709 
L 3256 2709 
Q 3428 3103 3668 3275 
Q 3909 3447 4281 3447 
Q 4775 3447 5034 3111 
Q 5294 2775 5294 2147 
L 5294 0 
L 4422 0 
L 4422 1897 
Q 4422 2788 3909 2788 
Q 3653 2788 3489 2539 
Q 3325 2291 3309 1853 
L 3309 0 
L 2438 0 
z
" transform="scale(0.015625)"/>
      <path id="LiberationSans-Bold-6c" d="M 447 0 
L 447 4638 
L 1325 4638 
L 1325 0 
L 447 0 
z
" transform="scale(0.015625)"/>
      <path id="LiberationSans-Bold-29" d="M 6 -1328 
Q 506 -597 726 101 
Q 947 800 947 1656 
Q 947 2516 722 3223 
Q 497 3931 6 4638 
L 884 4638 
Q 1378 3928 1595 3225 
Q 1813 2522 1813 1659 
Q 1813 791 1595 87 
Q 1378 -616 884 -1328 
L 6 -1328 
z
" transform="scale(0.015625)"/>
     </defs>
     <use xlink:href="#LiberationSans-Bold-43"/>
     <use xlink:href="#LiberationSans-Bold-6f" transform="translate(72.216797 0)"/>
     <use xlink:href="#LiberationSans-Bold-73" transform="translate(133.300781 0)"/>
     <use xlink:href="#LiberationSans-Bold-74" transform="translate(188.916016 0)"/>
     <use xlink:href="#LiberationSans-Bold-20" transform="translate(222.216797 0)"/>
     <use xlink:href="#LiberationSans-Bold-53" transform="translate(250 0)"/>
     <use xlink:href="#LiberationSans-Bold-74" transform="translate(316.699219 0)"/>
     <use xlink:href="#LiberationSans-Bold-72" transform="translate(350 0)"/>
     <use xlink:href="#LiberationSans-Bold-75" transform="translate(388.916016 0)"/>
     <use xlink:href="#LiberationSans-Bold-63" transform="translate(450 0)"/>
     <use xlink:href="#LiberationSans-Bold-74" transform="translate(505.615234 0)"/>
     <use xlink:href="#LiberationSans-Bold-75" transform="translate(538.916016 0)"/>
     <use xlink:href="#LiberationSans-Bold-72" transform="translate(600 0)"/>
     <use xlink:href="#LiberationSans-Bold-65" transform="translate(638.916016 0)"/>
     <use xlink:href="#LiberationSans-Bold-20" transform="translate(694.53125 0)"/>
     <use xlink:href="#LiberationSans-Bold-28" transform="translate(722.314453 0)"/>
     <use xlink:href="#LiberationSans-Bold-42" transform="translate(755.615234 0)"/>
     <use xlink:href="#LiberationSans-Bold-61" transform="translate(827.832031 0)"/>
     <use xlink:href="#LiberationSans-Bold-75" transform="translate(883.447266 0)"/>
     <use xlink:href="#LiberationSans-Bold-6d" transform="translate(944.53125 0)"/>
     <use xlink:href="#LiberationSans-Bold-6f" transform="translate(1033.447266 0)"/>
     <use xlink:href="#LiberationSans-Bold-6c" transform="translate(1094.53125 0)"/>
     <use xlink:href="#LiberationSans-Bold-20" transform="translate(1122.314453 0)"/>
     <use xlink:href="#LiberationSans-Bold-45" transform="translate(1150.097656 0)"/>
     <use xlink:href="#LiberationSans-Bold-66" transform="translate(1216.796875 0)"/>
     <use xlink:href="#LiberationSans-Bold-66" transform="translate(1250.097656 0)"/>
     <use xlink:href="#LiberationSans-Bold-65" transform="translate(1283.398438 0)"/>
     <use xlink:href="#LiberationSans-Bold-63" transform="translate(1339.013672 0)"/>
     <use xlink:href="#LiberationSans-Bold-74" transform="translate(1394.628906 0)"/>
     <use xlink:href="#LiberationSans-Bold-29" transform="translate(1427.929688 0)"/>
    </g>
   </g>
  </g>
  <g id="text_15">
   <!-- Execution productivity increased 10-100x, but governance productivity unchanged. -->
   <g style="fill: #262626" transform="translate(247.206669 396.554375) scale(0.11 -0.11)">
    <defs>
     <path id="LiberationSans-Italic-45" d="M 197 0 
L 1050 4403 
L 4328 4403 
L 4234 3916 
L 1553 3916 
L 1278 2503 
L 3772 2503 
L 3678 2022 
L 1184 2022 
L 888 488 
L 3697 488 
L 3603 0 
L 197 0 
z
" transform="scale(0.015625)"/>
     <path id="LiberationSans-Italic-78" d="M 2206 0 
L 1553 1388 
L 366 0 
L -256 0 
L 1281 1738 
L 456 3381 
L 1047 3381 
L 1650 2066 
L 2744 3381 
L 3388 3381 
L 1922 1744 
L 2800 0 
L 2206 0 
z
" transform="scale(0.015625)"/>
     <path id="LiberationSans-Italic-65" d="M 800 1572 
Q 781 1463 772 1219 
Q 772 803 980 581 
Q 1188 359 1606 359 
Q 1909 359 2156 509 
Q 2403 659 2541 919 
L 2972 722 
Q 2744 313 2392 125 
Q 2041 -63 1541 -63 
Q 913 -63 564 285 
Q 216 634 216 1266 
Q 216 1894 437 2392 
Q 659 2891 1062 3167 
Q 1466 3444 1969 3444 
Q 2609 3444 2965 3122 
Q 3322 2800 3322 2213 
Q 3322 1884 3247 1572 
L 800 1572 
z
M 2750 2003 
L 2763 2228 
Q 2763 2616 2561 2822 
Q 2359 3028 1981 3028 
Q 1563 3028 1277 2761 
Q 991 2494 875 2003 
L 2750 2003 
z
" transform="scale(0.015625)"/>
     <path id="LiberationSans-Italic-63" d="M 1466 381 
Q 2106 381 2369 1100 
L 2856 947 
Q 2478 -63 1453 -63 
Q 853 -63 531 278 
Q 209 619 209 1234 
Q 209 1859 436 2396 
Q 663 2934 1036 3189 
Q 1409 3444 1953 3444 
Q 2481 3444 2789 3178 
Q 3097 2913 3128 2450 
L 2575 2372 
Q 2556 2675 2387 2839 
Q 2219 3003 1934 3003 
Q 1541 3003 1297 2792 
Q 1053 2581 918 2122 
Q 784 1663 784 1216 
Q 784 381 1466 381 
z
" transform="scale(0.015625)"/>
     <path id="LiberationSans-Italic-75" d="M 1297 3381 
L 903 1366 
Q 847 1091 847 897 
Q 847 375 1406 375 
Q 1800 375 2100 675 
Q 2400 975 2500 1488 
L 2869 3381 
L 3431 3381 
L 2913 722 
Q 2850 425 2791 0 
L 2259 0 
Q 2259 34 2292 242 
Q 2325 450 2347 578 
L 2338 578 
Q 2078 219 1817 80 
Q 1556 -59 1197 -59 
Q 734 -59 501 169 
Q 269 397 269 828 
Q 269 1028 334 1341 
L 731 3381 
L 1297 3381 
z
" transform="scale(0.015625)"/>
     <path id="LiberationSans-Italic-74" d="M 859 -63 
Q 594 -63 442 96 
Q 291 256 291 519 
Q 291 691 338 925 
L 731 2972 
L 341 2972 
L 422 3381 
L 819 3381 
L 1147 4138 
L 1522 4138 
L 1375 3381 
L 2000 3381 
L 1919 2972 
L 1294 2972 
L 903 956 
Q 866 769 866 659 
Q 866 384 1147 384 
Q 1278 384 1459 428 
L 1400 13 
Q 1091 -63 859 -63 
z
" transform="scale(0.015625)"/>
     <path id="LiberationSans-Italic-69" d="M 897 4100 
L 1003 4638 
L 1566 4638 
L 1459 4100 
L 897 4100 
z
M 103 0 
L 759 3381 
L 1322 3381 
L 663 0 
L 103 0 
z
" transform="scale(0.015625)"/>
     <path id="LiberationSans-Italic-6f" d="M 3356 2134 
Q 3356 1728 3231 1289 
Q 3106 850 2873 545 
Q 2641 241 2303 89 
Q 1966 -63 1534 -63 
Q 922 -63 565 306 
Q 209 675 209 1309 
Q 222 1947 440 2440 
Q 659 2934 1046 3187 
Q 1434 3441 2006 3441 
Q 2663 3441 3009 3098 
Q 3356 2756 3356 2134 
z
M 2775 2134 
Q 2775 3028 2000 3028 
Q 1578 3028 1323 2811 
Q 1069 2594 928 2153 
Q 788 1713 788 1300 
Q 788 838 988 595 
Q 1188 353 1569 353 
Q 1891 353 2086 461 
Q 2281 569 2428 798 
Q 2575 1028 2667 1384 
Q 2759 1741 2775 2134 
z
" transform="scale(0.015625)"/>
     <path id="LiberationSans-Italic-6e" d="M 2241 0 
L 2634 2016 
Q 2691 2291 2691 2484 
Q 2691 3006 2131 3006 
Q 1738 3006 1438 2706 
Q 1138 2406 1038 1894 
L 669 0 
L 106 0 
L 625 2659 
Q 688 2956 747 3381 
L 1278 3381 
Q 1278 3347 1245 3139 
Q 1213 2931 1191 2803 
L 1200 2803 
Q 1459 3163 1720 3302 
Q 1981 3441 2341 3441 
Q 2803 3441 3036 3212 
Q 3269 2984 3269 2553 
Q 3269 2353 3203 2041 
L 2806 0 
L 2241 0 
z
" transform="scale(0.015625)"/>
     <path id="LiberationSans-Italic-20" transform="scale(0.015625)"/>
     <path id="LiberationSans-Italic-70" d="M 1731 -63 
Q 1347 -63 1105 100 
Q 863 263 763 556 
L 747 556 
Q 747 522 720 353 
Q 694 184 400 -1328 
L -159 -1328 
L 619 2691 
Q 691 3038 728 3381 
L 1250 3381 
Q 1250 3297 1229 3123 
Q 1209 2950 1197 2878 
L 1209 2878 
Q 1438 3175 1691 3309 
Q 1944 3444 2316 3444 
Q 2806 3444 3079 3148 
Q 3353 2853 3353 2338 
Q 3353 1703 3161 1108 
Q 2969 513 2620 225 
Q 2272 -63 1731 -63 
z
M 2153 3009 
Q 1844 3009 1623 2882 
Q 1403 2756 1250 2501 
Q 1097 2247 1009 1864 
Q 922 1481 922 1178 
Q 922 788 1120 570 
Q 1319 353 1672 353 
Q 2059 353 2284 589 
Q 2509 825 2637 1339 
Q 2766 1853 2766 2238 
Q 2766 2622 2619 2815 
Q 2472 3009 2153 3009 
z
" transform="scale(0.015625)"/>
     <path id="LiberationSans-Italic-72" d="M 2244 2931 
Q 2106 2972 1963 2972 
Q 1634 2972 1370 2628 
Q 1106 2284 1013 1763 
L 669 0 
L 106 0 
L 613 2594 
L 691 3025 
L 747 3381 
L 1278 3381 
L 1169 2691 
L 1181 2691 
Q 1388 3106 1588 3275 
Q 1788 3444 2050 3444 
Q 2194 3444 2347 3400 
L 2244 2931 
z
" transform="scale(0.015625)"/>
     <path id="LiberationSans-Italic-64" d="M 1253 -66 
Q 763 -66 489 229 
Q 216 525 216 1041 
Q 216 1675 408 2270 
Q 600 2866 948 3153 
Q 1297 3441 1838 3441 
Q 2222 3441 2464 3278 
Q 2706 3116 2806 2822 
L 2822 2822 
L 2909 3328 
L 3166 4638 
L 3728 4638 
L 2963 697 
Q 2872 256 2844 0 
L 2306 0 
Q 2306 159 2372 500 
L 2356 500 
Q 2128 203 1875 68 
Q 1622 -66 1253 -66 
z
M 1416 369 
Q 1725 369 1945 495 
Q 2166 622 2319 876 
Q 2472 1131 2559 1514 
Q 2647 1897 2647 2200 
Q 2647 2591 2448 2808 
Q 2250 3025 1897 3025 
Q 1516 3025 1294 2798 
Q 1072 2572 937 2058 
Q 803 1544 803 1141 
Q 803 756 950 562 
Q 1097 369 1416 369 
z
" transform="scale(0.015625)"/>
     <path id="LiberationSans-Italic-76" d="M 1584 0 
L 919 0 
L 350 3381 
L 934 3381 
L 1250 1181 
Q 1278 969 1309 606 
L 1322 441 
L 1403 606 
Q 1544 900 1694 1175 
L 2894 3381 
L 3506 3381 
L 1584 0 
z
" transform="scale(0.015625)"/>
     <path id="LiberationSans-Italic-79" d="M 50 -1328 
Q -175 -1328 -363 -1284 
L -266 -866 
Q -125 -891 -25 -891 
Q 272 -891 498 -691 
Q 725 -491 944 -109 
L 1028 38 
L 350 3381 
L 922 3381 
L 1272 1513 
Q 1319 1263 1359 980 
Q 1400 697 1403 613 
Q 1434 681 1484 781 
Q 1534 881 2900 3381 
L 3522 3381 
L 1566 0 
Q 1219 -603 1008 -845 
Q 797 -1088 567 -1208 
Q 338 -1328 50 -1328 
z
" transform="scale(0.015625)"/>
     <path id="LiberationSans-Italic-61" d="M 2897 -31 
Q 2606 -31 2473 89 
Q 2341 209 2341 447 
L 2356 647 
L 2338 647 
Q 2078 253 1800 95 
Q 1522 -63 1128 -63 
Q 691 -63 417 200 
Q 144 463 144 869 
Q 144 1447 558 1744 
Q 972 2041 1878 2053 
L 2603 2063 
Q 2663 2369 2663 2459 
Q 2663 2744 2497 2880 
Q 2331 3016 2038 3016 
Q 1666 3016 1475 2883 
Q 1284 2750 1200 2478 
L 644 2569 
Q 784 3028 1132 3236 
Q 1481 3444 2069 3444 
Q 2603 3444 2914 3194 
Q 3225 2944 3225 2522 
Q 3225 2322 3166 2031 
L 2934 850 
Q 2900 700 2900 575 
Q 2900 347 3153 347 
Q 3238 347 3341 369 
L 3297 19 
Q 3091 -31 2897 -31 
z
M 2528 1675 
L 1906 1663 
Q 1534 1653 1321 1595 
Q 1109 1538 992 1448 
Q 875 1359 808 1223 
Q 741 1088 741 894 
Q 741 659 892 512 
Q 1044 366 1284 366 
Q 1588 366 1831 495 
Q 2075 625 2234 834 
Q 2394 1044 2444 1284 
L 2528 1675 
z
" transform="scale(0.015625)"/>
     <path id="LiberationSans-Italic-73" d="M 2834 991 
Q 2834 484 2446 210 
Q 2059 -63 1328 -63 
Q 784 -63 464 120 
Q 144 303 16 697 
L 475 872 
Q 578 597 795 472 
Q 1013 347 1378 347 
Q 1825 347 2056 498 
Q 2288 650 2288 941 
Q 2288 1134 2128 1264 
Q 1969 1394 1453 1553 
Q 1053 1684 853 1809 
Q 653 1934 547 2101 
Q 441 2269 441 2491 
Q 441 2944 803 3189 
Q 1166 3434 1825 3434 
Q 2931 3434 3069 2638 
L 2559 2559 
Q 2491 2806 2300 2915 
Q 2109 3025 1788 3025 
Q 1400 3025 1192 2901 
Q 984 2778 984 2553 
Q 984 2422 1050 2331 
Q 1116 2241 1239 2170 
Q 1363 2100 1809 1959 
Q 2206 1834 2407 1706 
Q 2609 1578 2721 1403 
Q 2834 1228 2834 991 
z
" transform="scale(0.015625)"/>
     <path id="LiberationSans-Italic-31" d="M 166 0 
L 259 478 
L 1381 478 
L 2031 3822 
L 903 3125 
L 1013 3688 
L 2191 4403 
L 2709 4403 
L 1947 478 
L 3019 478 
L 2925 0 
L 166 0 
z
" transform="scale(0.015625)"/>
     <path id="LiberationSans-Italic-30" d="M 2288 4469 
Q 2859 4469 3182 4084 
Q 3506 3700 3506 3013 
Q 3506 2213 3262 1464 
Q 3019 716 2572 326 
Q 2125 -63 1488 -63 
Q 922 -63 600 340 
Q 278 744 278 1453 
Q 278 2016 417 2597 
Q 556 3178 804 3603 
Q 1053 4028 1420 4248 
Q 1788 4469 2288 4469 
z
M 1534 397 
Q 2006 397 2304 728 
Q 2603 1059 2781 1757 
Q 2959 2456 2959 3041 
Q 2959 3525 2773 3769 
Q 2588 4013 2250 4013 
Q 1778 4013 1479 3681 
Q 1181 3350 1003 2651 
Q 825 1953 825 1369 
Q 825 884 1011 640 
Q 1197 397 1534 397 
z
" transform="scale(0.015625)"/>
     <path id="LiberationSans-Italic-2d" d="M 328 1450 
L 425 1950 
L 1988 1950 
L 1891 1450 
L 328 1450 
z
" transform="scale(0.015625)"/>
     <path id="LiberationSans-Italic-2c" d="M 500 -819 
L 116 -819 
Q 491 -391 569 0 
L 294 0 
L 425 684 
L 1034 684 
L 934 159 
Q 878 -138 775 -372 
Q 672 -606 500 -819 
z
" transform="scale(0.015625)"/>
     <path id="LiberationSans-Italic-62" d="M 2325 3444 
Q 2816 3444 3089 3148 
Q 3363 2853 3363 2338 
Q 3363 1703 3170 1108 
Q 2978 513 2629 225 
Q 2281 -63 1741 -63 
Q 1356 -63 1115 100 
Q 875 263 775 556 
L 766 556 
Q 744 441 691 225 
Q 638 9 631 0 
L 91 0 
Q 106 47 151 256 
Q 197 466 244 697 
L 1009 4638 
L 1572 4638 
L 1313 3316 
Q 1288 3172 1206 2878 
L 1219 2878 
Q 1447 3175 1700 3309 
Q 1953 3444 2325 3444 
z
M 2163 3009 
Q 1853 3009 1633 2882 
Q 1413 2756 1259 2501 
Q 1106 2247 1018 1864 
Q 931 1481 931 1178 
Q 931 788 1129 570 
Q 1328 353 1681 353 
Q 2069 353 2294 589 
Q 2519 825 2647 1339 
Q 2775 1853 2775 2238 
Q 2775 2622 2628 2815 
Q 2481 3009 2163 3009 
z
" transform="scale(0.015625)"/>
     <path id="LiberationSans-Italic-67" d="M 1241 -1328 
Q 181 -1328 13 -541 
L 522 -409 
Q 631 -900 1253 -900 
Q 1697 -900 1940 -670 
Q 2184 -441 2284 84 
L 2391 628 
L 2384 628 
Q 2191 350 2042 228 
Q 1894 106 1708 40 
Q 1522 -25 1281 -25 
Q 803 -25 511 289 
Q 219 603 219 1122 
Q 219 1538 336 2019 
Q 453 2500 656 2819 
Q 859 3138 1150 3289 
Q 1441 3441 1838 3441 
Q 2216 3441 2477 3262 
Q 2738 3084 2813 2803 
L 2819 2803 
Q 2841 2919 2897 3136 
Q 2953 3353 2969 3381 
L 3503 3381 
L 3444 3125 
L 3350 2681 
L 2847 97 
Q 2697 -659 2309 -993 
Q 1922 -1328 1241 -1328 
z
M 809 1166 
Q 809 788 973 589 
Q 1138 391 1456 391 
Q 1794 391 2069 636 
Q 2344 881 2495 1309 
Q 2647 1738 2647 2200 
Q 2647 2591 2447 2808 
Q 2247 3025 1897 3025 
Q 1616 3025 1428 2909 
Q 1241 2794 1112 2547 
Q 984 2300 896 1889 
Q 809 1478 809 1166 
z
" transform="scale(0.015625)"/>
     <path id="LiberationSans-Italic-68" d="M 1197 2803 
Q 1456 3163 1717 3302 
Q 1978 3441 2338 3441 
Q 2800 3441 3033 3212 
Q 3266 2984 3266 2553 
Q 3266 2353 3200 2041 
L 2803 0 
L 2238 0 
L 2631 2016 
Q 2688 2291 2688 2484 
Q 2688 3006 2128 3006 
Q 1734 3006 1434 2706 
Q 1134 2406 1034 1894 
L 666 0 
L 106 0 
L 1006 4638 
L 1569 4638 
L 1334 3431 
Q 1278 3119 1188 2803 
L 1197 2803 
z
" transform="scale(0.015625)"/>
     <path id="LiberationSans-Italic-2e" d="M 250 0 
L 384 684 
L 994 684 
L 859 0 
L 250 0 
z
" transform="scale(0.015625)"/>
    </defs>
    <use xlink:href="#LiberationSans-Italic-45"/>
    <use xlink:href="#LiberationSans-Italic-78" transform="translate(66.699219 0)"/>
    <use xlink:href="#LiberationSans-Italic-65" transform="translate(116.699219 0)"/>
    <use xlink:href="#LiberationSans-Italic-63" transform="translate(172.314453 0)"/>
    <use xlink:href="#LiberationSans-Italic-75" transform="translate(222.314453 0)"/>
    <use xlink:href="#LiberationSans-Italic-74" transform="translate(277.929688 0)"/>
    <use xlink:href="#LiberationSans-Italic-69" transform="translate(305.712891 0)"/>
    <use xlink:href="#LiberationSans-Italic-6f" transform="translate(327.929688 0)"/>
    <use xlink:href="#LiberationSans-Italic-6e" transform="translate(383.544922 0)"/>
    <use xlink:href="#LiberationSans-Italic-20" transform="translate(439.160156 0)"/>
    <use xlink:href="#LiberationSans-Italic-70" transform="translate(466.943359 0)"/>
    <use xlink:href="#LiberationSans-Italic-72" transform="translate(522.558594 0)"/>
    <use xlink:href="#LiberationSans-Italic-6f" transform="translate(555.859375 0)"/>
    <use xlink:href="#LiberationSans-Italic-64" transform="translate(611.474609 0)"/>
    <use xlink:href="#LiberationSans-Italic-75" transform="translate(667.089844 0)"/>
    <use xlink:href="#LiberationSans-Italic-63" transform="translate(722.705078 0)"/>
    <use xlink:href="#LiberationSans-Italic-74" transform="translate(772.705078 0)"/>
    <use xlink:href="#LiberationSans-Italic-69" transform="translate(800.488281 0)"/>
    <use xlink:href="#LiberationSans-Italic-76" transform="translate(822.705078 0)"/>
    <use xlink:href="#LiberationSans-Italic-69" transform="translate(872.705078 0)"/>
    <use xlink:href="#LiberationSans-Italic-74" transform="translate(894.921875 0)"/>
    <use xlink:href="#LiberationSans-Italic-79" transform="translate(922.705078 0)"/>
    <use xlink:href="#LiberationSans-Italic-20" transform="translate(972.705078 0)"/>
    <use xlink:href="#LiberationSans-Italic-69" transform="translate(1000.488281 0)"/>
    <use xlink:href="#LiberationSans-Italic-6e" transform="translate(1022.705078 0)"/>
    <use xlink:href="#LiberationSans-Italic-63" transform="translate(1078.320312 0)"/>
    <use xlink:href="#LiberationSans-Italic-72" transform="translate(1128.320312 0)"/>
    <use xlink:href="#LiberationSans-Italic-65" transform="translate(1161.621094 0)"/>
    <use xlink:href="#LiberationSans-Italic-61" transform="translate(1217.236328 0)"/>
    <use xlink:href="#LiberationSans-Italic-73" transform="translate(1272.851562 0)"/>
    <use xlink:href="#LiberationSans-Italic-65" transform="translate(1322.851562 0)"/>
    <use xlink:href="#LiberationSans-Italic-64" transform="translate(1378.466797 0)"/>
    <use xlink:href="#LiberationSans-Italic-20" transform="translate(1434.082031 0)"/>
    <use xlink:href="#LiberationSans-Italic-31" transform="translate(1461.865234 0)"/>
    <use xlink:href="#LiberationSans-Italic-30" transform="translate(1517.480469 0)"/>
    <use xlink:href="#LiberationSans-Italic-2d" transform="translate(1573.095703 0)"/>
    <use xlink:href="#LiberationSans-Italic-31" transform="translate(1606.396484 0)"/>
    <use xlink:href="#LiberationSans-Italic-30" transform="translate(1662.011719 0)"/>
    <use xlink:href="#LiberationSans-Italic-30" transform="translate(1717.626953 0)"/>
    <use xlink:href="#LiberationSans-Italic-78" transform="translate(1773.242188 0)"/>
    <use xlink:href="#LiberationSans-Italic-2c" transform="translate(1823.242188 0)"/>
    <use xlink:href="#LiberationSans-Italic-20" transform="translate(1851.025391 0)"/>
    <use xlink:href="#LiberationSans-Italic-62" transform="translate(1878.808594 0)"/>
    <use xlink:href="#LiberationSans-Italic-75" transform="translate(1934.423828 0)"/>
    <use xlink:href="#LiberationSans-Italic-74" transform="translate(1990.039062 0)"/>
    <use xlink:href="#LiberationSans-Italic-20" transform="translate(2017.822266 0)"/>
    <use xlink:href="#LiberationSans-Italic-67" transform="translate(2045.605469 0)"/>
    <use xlink:href="#LiberationSans-Italic-6f" transform="translate(2101.220703 0)"/>
    <use xlink:href="#LiberationSans-Italic-76" transform="translate(2156.835938 0)"/>
    <use xlink:href="#LiberationSans-Italic-65" transform="translate(2206.835938 0)"/>
    <use xlink:href="#LiberationSans-Italic-72" transform="translate(2262.451172 0)"/>
    <use xlink:href="#LiberationSans-Italic-6e" transform="translate(2295.751953 0)"/>
    <use xlink:href="#LiberationSans-Italic-61" transform="translate(2351.367188 0)"/>
    <use xlink:href="#LiberationSans-Italic-6e" transform="translate(2406.982422 0)"/>
    <use xlink:href="#LiberationSans-Italic-63" transform="translate(2462.597656 0)"/>
    <use xlink:href="#LiberationSans-Italic-65" transform="translate(2512.597656 0)"/>
    <use xlink:href="#LiberationSans-Italic-20" transform="translate(2568.212891 0)"/>
    <use xlink:href="#LiberationSans-Italic-70" transform="translate(2595.996094 0)"/>
    <use xlink:href="#LiberationSans-Italic-72" transform="translate(2651.611328 0)"/>
    <use xlink:href="#LiberationSans-Italic-6f" transform="translate(2684.912109 0)"/>
    <use xlink:href="#LiberationSans-Italic-64" transform="translate(2740.527344 0)"/>
    <use xlink:href="#LiberationSans-Italic-75" transform="translate(2796.142578 0)"/>
    <use xlink:href="#LiberationSans-Italic-63" transform="translate(2851.757812 0)"/>
    <use xlink:href="#LiberationSans-Italic-74" transform="translate(2901.757812 0)"/>
    <use xlink:href="#LiberationSans-Italic-69" transform="translate(2929.541016 0)"/>
    <use xlink:href="#LiberationSans-Italic-76" transform="translate(2951.757812 0)"/>
    <use xlink:href="#LiberationSans-Italic-69" transform="translate(3001.757812 0)"/>
    <use xlink:href="#LiberationSans-Italic-74" transform="translate(3023.974609 0)"/>
    <use xlink:href="#LiberationSans-Italic-79" transform="translate(3051.757812 0)"/>
    <use xlink:href="#LiberationSans-Italic-20" transform="translate(3101.757812 0)"/>
    <use xlink:href="#LiberationSans-Italic-75" transform="translate(3129.541016 0)"/>
    <use xlink:href="#LiberationSans-Italic-6e" transform="translate(3185.15625 0)"/>
    <use xlink:href="#LiberationSans-Italic-63" transform="translate(3240.771484 0)"/>
    <use xlink:href="#LiberationSans-Italic-68" transform="translate(3290.771484 0)"/>
    <use xlink:href="#LiberationSans-Italic-61" transform="translate(3346.386719 0)"/>
    <use xlink:href="#LiberationSans-Italic-6e" transform="translate(3402.001953 0)"/>
    <use xlink:href="#LiberationSans-Italic-67" transform="translate(3457.617188 0)"/>
    <use xlink:href="#LiberationSans-Italic-65" transform="translate(3513.232422 0)"/>
    <use xlink:href="#LiberationSans-Italic-64" transform="translate(3568.847656 0)"/>
    <use xlink:href="#LiberationSans-Italic-2e" transform="translate(3624.462891 0)"/>
   </g>
   <!-- Result: Governance costs now dominate (Baumol Cost Disease) -->
   <g style="fill: #262626" transform="translate(291.254794 408.40275) scale(0.11 -0.11)">
    <defs>
     <path id="LiberationSans-Italic-52" d="M 3284 0 
L 2525 1828 
L 1147 1828 
L 794 0 
L 197 0 
L 1050 4403 
L 2963 4403 
Q 3631 4403 4028 4084 
Q 4425 3766 4425 3247 
Q 4425 2659 4087 2315 
Q 3750 1972 3091 1881 
L 3928 0 
L 3284 0 
z
M 2678 2300 
Q 3244 2300 3531 2536 
Q 3819 2772 3819 3200 
Q 3819 3550 3586 3737 
Q 3353 3925 2891 3925 
L 1556 3925 
L 1241 2300 
L 2678 2300 
z
" transform="scale(0.015625)"/>
     <path id="LiberationSans-Italic-6c" d="M 103 0 
L 1003 4638 
L 1566 4638 
L 663 0 
L 103 0 
z
" transform="scale(0.015625)"/>
     <path id="LiberationSans-Italic-3a" d="M 784 2734 
L 913 3381 
L 1522 3381 
L 1394 2734 
L 784 2734 
z
M 253 0 
L 381 647 
L 991 647 
L 863 0 
L 253 0 
z
" transform="scale(0.015625)"/>
     <path id="LiberationSans-Italic-47" d="M 2319 -63 
Q 1366 -63 841 425 
Q 316 913 316 1791 
Q 316 2569 644 3183 
Q 972 3797 1573 4133 
Q 2175 4469 2950 4469 
Q 3644 4469 4087 4206 
Q 4531 3944 4703 3431 
L 4100 3263 
Q 3984 3622 3681 3801 
Q 3378 3981 2913 3981 
Q 2313 3981 1861 3712 
Q 1409 3444 1168 2948 
Q 928 2453 928 1803 
Q 928 1144 1297 783 
Q 1666 422 2338 422 
Q 2769 422 3162 545 
Q 3556 669 3847 909 
L 4006 1703 
L 2691 1703 
L 2791 2203 
L 4656 2203 
L 4344 656 
Q 3906 281 3411 109 
Q 2916 -63 2319 -63 
z
" transform="scale(0.015625)"/>
     <path id="LiberationSans-Italic-77" d="M 3338 0 
L 2684 0 
L 2569 2181 
L 2550 2919 
Q 2456 2684 2381 2507 
Q 2306 2331 1256 0 
L 606 0 
L 319 3381 
L 875 3381 
L 1000 1084 
L 1022 466 
L 1275 1059 
L 2341 3381 
L 2944 3381 
L 3081 1059 
Q 3100 722 3100 466 
Q 3203 713 4416 3381 
L 4966 3381 
L 3338 0 
z
" transform="scale(0.015625)"/>
     <path id="LiberationSans-Italic-6d" d="M 2063 0 
L 2450 1981 
Q 2528 2372 2528 2525 
Q 2528 2759 2409 2882 
Q 2291 3006 2022 3006 
Q 1659 3006 1389 2697 
Q 1119 2388 1034 1888 
L 666 0 
L 106 0 
L 625 2659 
Q 688 2956 747 3381 
L 1278 3381 
Q 1278 3347 1245 3139 
Q 1213 2931 1191 2803 
L 1200 2803 
Q 1428 3159 1658 3300 
Q 1888 3441 2206 3441 
Q 2584 3441 2806 3255 
Q 3028 3069 3072 2716 
Q 3331 3122 3582 3281 
Q 3834 3441 4159 3441 
Q 4581 3441 4807 3212 
Q 5034 2984 5034 2553 
Q 5034 2353 4969 2041 
L 4572 0 
L 4016 0 
L 4403 1981 
Q 4481 2372 4481 2525 
Q 4481 2759 4362 2882 
Q 4244 3006 3975 3006 
Q 3613 3006 3344 2701 
Q 3075 2397 2988 1897 
L 2619 0 
L 2063 0 
z
" transform="scale(0.015625)"/>
     <path id="LiberationSans-Italic-28" d="M 2672 4638 
Q 866 3047 866 819 
Q 866 -397 1513 -1325 
L 969 -1325 
Q 300 -400 300 869 
Q 300 2031 769 2990 
Q 1238 3950 2128 4638 
L 2672 4638 
z
" transform="scale(0.015625)"/>
     <path id="LiberationSans-Italic-42" d="M 1050 4403 
L 2644 4403 
Q 3297 4403 3673 4133 
Q 4050 3863 4050 3397 
Q 4050 2506 2991 2322 
Q 3422 2250 3659 1995 
Q 3897 1741 3897 1372 
Q 3897 706 3409 353 
Q 2922 0 2056 0 
L 197 0 
L 1050 4403 
z
M 1284 2531 
L 2319 2531 
Q 3428 2531 3428 3338 
Q 3428 3925 2591 3925 
L 1556 3925 
L 1284 2531 
z
M 884 478 
L 2034 478 
Q 2691 478 2995 708 
Q 3300 938 3300 1381 
Q 3300 1716 3051 1891 
Q 2803 2066 2338 2066 
L 1194 2066 
L 884 478 
z
" transform="scale(0.015625)"/>
     <path id="LiberationSans-Italic-43" d="M 4244 1053 
Q 3850 466 3350 201 
Q 2850 -63 2188 -63 
Q 1622 -63 1205 164 
Q 788 391 570 809 
Q 353 1228 353 1778 
Q 353 2547 681 3169 
Q 1009 3791 1592 4130 
Q 2175 4469 2894 4469 
Q 3572 4469 4039 4186 
Q 4506 3903 4656 3391 
L 4094 3219 
Q 3981 3569 3657 3775 
Q 3334 3981 2863 3981 
Q 2288 3981 1850 3704 
Q 1413 3428 1178 2926 
Q 944 2425 944 1769 
Q 944 1144 1284 783 
Q 1625 422 2228 422 
Q 2691 422 3091 651 
Q 3491 881 3797 1331 
L 4244 1053 
z
" transform="scale(0.015625)"/>
     <path id="LiberationSans-Italic-44" d="M 2325 4403 
Q 3300 4403 3858 3889 
Q 4416 3375 4416 2472 
Q 4416 1734 4094 1181 
Q 3772 628 3167 314 
Q 2563 0 1797 0 
L 197 0 
L 1050 4403 
L 2325 4403 
z
M 884 478 
L 1772 478 
Q 2381 478 2847 720 
Q 3313 963 3561 1417 
Q 3809 1872 3809 2478 
Q 3809 3163 3415 3544 
Q 3022 3925 2313 3925 
L 1556 3925 
L 884 478 
z
" transform="scale(0.015625)"/>
     <path id="LiberationSans-Italic-29" d="M -622 -1325 
Q 1184 266 1184 2494 
Q 1184 3709 538 4638 
L 1081 4638 
Q 1750 3713 1750 2444 
Q 1750 1281 1281 321 
Q 813 -638 -78 -1325 
L -622 -1325 
z
" transform="scale(0.015625)"/>
    </defs>
    <use xlink:href="#LiberationSans-Italic-52"/>
    <use xlink:href="#LiberationSans-Italic-65" transform="translate(72.216797 0)"/>
    <use xlink:href="#LiberationSans-Italic-73" transform="translate(127.832031 0)"/>
    <use xlink:href="#LiberationSans-Italic-75" transform="translate(177.832031 0)"/>
    <use xlink:href="#LiberationSans-Italic-6c" transform="translate(233.447266 0)"/>
    <use xlink:href="#LiberationSans-Italic-74" transform="translate(255.664062 0)"/>
    <use xlink:href="#LiberationSans-Italic-3a" transform="translate(283.447266 0)"/>
    <use xlink:href="#LiberationSans-Italic-20" transform="translate(311.230469 0)"/>
    <use xlink:href="#LiberationSans-Italic-47" transform="translate(339.013672 0)"/>
    <use xlink:href="#LiberationSans-Italic-6f" transform="translate(416.796875 0)"/>
    <use xlink:href="#LiberationSans-Italic-76" transform="translate(472.412109 0)"/>
    <use xlink:href="#LiberationSans-Italic-65" transform="translate(522.412109 0)"/>
    <use xlink:href="#LiberationSans-Italic-72" transform="translate(578.027344 0)"/>
    <use xlink:href="#LiberationSans-Italic-6e" transform="translate(611.328125 0)"/>
    <use xlink:href="#LiberationSans-Italic-61" transform="translate(666.943359 0)"/>
    <use xlink:href="#LiberationSans-Italic-6e" transform="translate(722.558594 0)"/>
    <use xlink:href="#LiberationSans-Italic-63" transform="translate(778.173828 0)"/>
    <use xlink:href="#LiberationSans-Italic-65" transform="translate(828.173828 0)"/>
    <use xlink:href="#LiberationSans-Italic-20" transform="translate(883.789062 0)"/>
    <use xlink:href="#LiberationSans-Italic-63" transform="translate(911.572266 0)"/>
    <use xlink:href="#LiberationSans-Italic-6f" transform="translate(961.572266 0)"/>
    <use xlink:href="#LiberationSans-Italic-73" transform="translate(1017.1875 0)"/>
    <use xlink:href="#LiberationSans-Italic-74" transform="translate(1067.1875 0)"/>
    <use xlink:href="#LiberationSans-Italic-73" transform="translate(1094.970703 0)"/>
    <use xlink:href="#LiberationSans-Italic-20" transform="translate(1144.970703 0)"/>
    <use xlink:href="#LiberationSans-Italic-6e" transform="translate(1172.753906 0)"/>
    <use xlink:href="#LiberationSans-Italic-6f" transform="translate(1228.369141 0)"/>
    <use xlink:href="#LiberationSans-Italic-77" transform="translate(1283.984375 0)"/>
    <use xlink:href="#LiberationSans-Italic-20" transform="translate(1356.201172 0)"/>
    <use xlink:href="#LiberationSans-Italic-64" transform="translate(1383.984375 0)"/>
    <use xlink:href="#LiberationSans-Italic-6f" transform="translate(1439.599609 0)"/>
    <use xlink:href="#LiberationSans-Italic-6d" transform="translate(1495.214844 0)"/>
    <use xlink:href="#LiberationSans-Italic-69" transform="translate(1578.515625 0)"/>
    <use xlink:href="#LiberationSans-Italic-6e" transform="translate(1600.732422 0)"/>
    <use xlink:href="#LiberationSans-Italic-61" transform="translate(1656.347656 0)"/>
    <use xlink:href="#LiberationSans-Italic-74" transform="translate(1711.962891 0)"/>
    <use xlink:href="#LiberationSans-Italic-65" transform="translate(1739.746094 0)"/>
    <use xlink:href="#LiberationSans-Italic-20" transform="translate(1795.361328 0)"/>
    <use xlink:href="#LiberationSans-Italic-28" transform="translate(1823.144531 0)"/>
    <use xlink:href="#LiberationSans-Italic-42" transform="translate(1856.445312 0)"/>
    <use xlink:href="#LiberationSans-Italic-61" transform="translate(1923.144531 0)"/>
    <use xlink:href="#LiberationSans-Italic-75" transform="translate(1978.759766 0)"/>
    <use xlink:href="#LiberationSans-Italic-6d" transform="translate(2034.375 0)"/>
    <use xlink:href="#LiberationSans-Italic-6f" transform="translate(2117.675781 0)"/>
    <use xlink:href="#LiberationSans-Italic-6c" transform="translate(2173.291016 0)"/>
    <use xlink:href="#LiberationSans-Italic-20" transform="translate(2195.507812 0)"/>
    <use xlink:href="#LiberationSans-Italic-43" transform="translate(2223.291016 0)"/>
    <use xlink:href="#LiberationSans-Italic-6f" transform="translate(2295.507812 0)"/>
    <use xlink:href="#LiberationSans-Italic-73" transform="translate(2351.123047 0)"/>
    <use xlink:href="#LiberationSans-Italic-74" transform="translate(2401.123047 0)"/>
    <use xlink:href="#LiberationSans-Italic-20" transform="translate(2428.90625 0)"/>
    <use xlink:href="#LiberationSans-Italic-44" transform="translate(2456.689453 0)"/>
    <use xlink:href="#LiberationSans-Italic-69" transform="translate(2528.90625 0)"/>
    <use xlink:href="#LiberationSans-Italic-73" transform="translate(2551.123047 0)"/>
    <use xlink:href="#LiberationSans-Italic-65" transform="translate(2601.123047 0)"/>
    <use xlink:href="#LiberationSans-Italic-61" transform="translate(2656.738281 0)"/>
    <use xlink:href="#LiberationSans-Italic-73" transform="translate(2712.353516 0)"/>
    <use xlink:href="#LiberationSans-Italic-65" transform="translate(2762.353516 0)"/>
    <use xlink:href="#LiberationSans-Italic-29" transform="translate(2817.96875 0)"/>
   </g>
  </g>
 </g>
</svg>
