<?xml version="1.0" encoding="utf-8" standalone="no"?>
<!DOCTYPE svg PUBLIC "-//W3C//DTD SVG 1.1//EN"
  "http://www.w3.org/Graphics/SVG/1.1/DTD/svg11.dtd">
<svg xmlns:xlink="http://www.w3.org/1999/xlink" width="1000.916875pt" height="424.224375pt" viewBox="0 0 1000.916875 424.224375" xmlns="http://www.w3.org/2000/svg" version="1.1">
 <metadata>
  <rdf:RDF xmlns:dc="http://purl.org/dc/elements/1.1/" xmlns:cc="http://creativecommons.org/ns#" xmlns:rdf="http://www.w3.org/1999/02/22-rdf-syntax-ns#">
   <cc:Work>
    <dc:type rdf:resource="http://purl.org/dc/dcmitype/StillImage"/>
    <dc:date>2025-11-16T16:02:11.798545</dc:date>
    <dc:format>image/svg+xml</dc:format>
    <dc:creator>
     <cc:Agent>
      <dc:title>Matplotlib v3.10.7, https://matplotlib.org/</dc:title>
     </cc:Agent>
    </dc:creator>
   </cc:Work>
  </rdf:RDF>
 </metadata>
 <defs>
  <style type="text/css">*{stroke-linejoin: round; stroke-linecap: butt}</style>
 </defs>
 <g id="figure_1">
  <g id="patch_1">
   <path d="M 0 424.224375 
L 1000.916875 424.224375 
L 1000.916875 0 
L 0 0 
z
" style="fill: #ffffff"/>
  </g>
  <g id="axes_1">
   <g id="patch_2">
    <path d="M 36.075938 389.948437 
L 489.555938 389.948437 
L 489.555938 36.680437 
L 36.075938 36.680437 
z
" style="fill: #eaeaf2"/>
   </g>
   <g id="matplotlib.axis_1">
    <g id="xtick_1">
     <g id="line2d_1">
      <path d="M 36.075938 389.948437 
L 36.075938 36.680437 
" clip-path="url(#p2993c6db04)" style="fill: none; stroke: #ffffff; stroke-opacity: 0.3; stroke-width: 0.8; stroke-linecap: round"/>
     </g>
     <g id="line2d_2"/>
     <g id="text_1">
      <!-- 0 -->
      <g style="fill: #262626" transform="translate(33.295469 400.695312) scale(0.1 -0.1)">
       <defs>
        <path id="LiberationSans-30" d="M 3309 2203 
Q 3309 1100 2920 518 
Q 2531 -63 1772 -63 
Q 1013 -63 631 515 
Q 250 1094 250 2203 
Q 250 3338 620 3903 
Q 991 4469 1791 4469 
Q 2569 4469 2939 3897 
Q 3309 3325 3309 2203 
z
M 2738 2203 
Q 2738 3156 2517 3584 
Q 2297 4013 1791 4013 
Q 1272 4013 1045 3591 
Q 819 3169 819 2203 
Q 819 1266 1048 831 
Q 1278 397 1778 397 
Q 2275 397 2506 840 
Q 2738 1284 2738 2203 
z
" transform="scale(0.015625)"/>
       </defs>
       <use xlink:href="#LiberationSans-30"/>
      </g>
     </g>
    </g>
    <g id="xtick_2">
     <g id="line2d_3">
      <path d="M 111.655938 389.948437 
L 111.655938 36.680437 
" clip-path="url(#p2993c6db04)" style="fill: none; stroke: #ffffff; stroke-opacity: 0.3; stroke-width: 0.8; stroke-linecap: round"/>
     </g>
     <g id="line2d_4"/>
     <g id="text_2">
      <!-- 2 -->
      <g style="fill: #262626" transform="translate(108.875469 400.695312) scale(0.1 -0.1)">
       <defs>
        <path id="LiberationSans-32" d="M 322 0 
L 322 397 
Q 481 763 711 1042 
Q 941 1322 1194 1548 
Q 1447 1775 1695 1969 
Q 1944 2163 2144 2356 
Q 2344 2550 2467 2762 
Q 2591 2975 2591 3244 
Q 2591 3606 2378 3806 
Q 2166 4006 1788 4006 
Q 1428 4006 1195 3811 
Q 963 3616 922 3263 
L 347 3316 
Q 409 3844 795 4156 
Q 1181 4469 1788 4469 
Q 2453 4469 2811 4155 
Q 3169 3841 3169 3263 
Q 3169 3006 3051 2753 
Q 2934 2500 2703 2247 
Q 2472 1994 1819 1463 
Q 1459 1169 1246 933 
Q 1034 697 941 478 
L 3238 478 
L 3238 0 
L 322 0 
z
" transform="scale(0.015625)"/>
       </defs>
       <use xlink:href="#LiberationSans-32"/>
      </g>
     </g>
    </g>
    <g id="xtick_3">
     <g id="line2d_5">
      <path d="M 187.235938 389.948437 
L 187.235938 36.680437 
" clip-path="url(#p2993c6db04)" style="fill: none; stroke: #ffffff; stroke-opacity: 0.3; stroke-width: 0.8; stroke-linecap: round"/>
     </g>
     <g id="line2d_6"/>
     <g id="text_3">
      <!-- 4 -->
      <g style="fill: #262626" transform="translate(184.455469 400.695312) scale(0.1 -0.1)">
       <defs>
        <path id="LiberationSans-34" d="M 2753 997 
L 2753 0 
L 2222 0 
L 2222 997 
L 147 997 
L 147 1434 
L 2163 4403 
L 2753 4403 
L 2753 1441 
L 3372 1441 
L 3372 997 
L 2753 997 
z
M 2222 3769 
Q 2216 3750 2134 3603 
Q 2053 3456 2013 3397 
L 884 1734 
L 716 1503 
L 666 1441 
L 2222 1441 
L 2222 3769 
z
" transform="scale(0.015625)"/>
       </defs>
       <use xlink:href="#LiberationSans-34"/>
      </g>
     </g>
    </g>
    <g id="xtick_4">
     <g id="line2d_7">
      <path d="M 262.815938 389.948437 
L 262.815938 36.680437 
" clip-path="url(#p2993c6db04)" style="fill: none; stroke: #ffffff; stroke-opacity: 0.3; stroke-width: 0.8; stroke-linecap: round"/>
     </g>
     <g id="line2d_8"/>
     <g id="text_4">
      <!-- 6 -->
      <g style="fill: #262626" transform="translate(260.035469 400.695312) scale(0.1 -0.1)">
       <defs>
        <path id="LiberationSans-36" d="M 3278 1441 
Q 3278 744 2900 340 
Q 2522 -63 1856 -63 
Q 1113 -63 719 490 
Q 325 1044 325 2100 
Q 325 3244 734 3856 
Q 1144 4469 1900 4469 
Q 2897 4469 3156 3572 
L 2619 3475 
Q 2453 4013 1894 4013 
Q 1413 4013 1148 3564 
Q 884 3116 884 2266 
Q 1038 2550 1316 2698 
Q 1594 2847 1953 2847 
Q 2563 2847 2920 2465 
Q 3278 2084 3278 1441 
z
M 2706 1416 
Q 2706 1894 2472 2153 
Q 2238 2413 1819 2413 
Q 1425 2413 1183 2183 
Q 941 1953 941 1550 
Q 941 1041 1192 716 
Q 1444 391 1838 391 
Q 2244 391 2475 664 
Q 2706 938 2706 1416 
z
" transform="scale(0.015625)"/>
       </defs>
       <use xlink:href="#LiberationSans-36"/>
      </g>
     </g>
    </g>
    <g id="xtick_5">
     <g id="line2d_9">
      <path d="M 338.395938 389.948437 
L 338.395938 36.680437 
" clip-path="url(#p2993c6db04)" style="fill: none; stroke: #ffffff; stroke-opacity: 0.3; stroke-width: 0.8; stroke-linecap: round"/>
     </g>
     <g id="line2d_10"/>
     <g id="text_5">
      <!-- 8 -->
      <g style="fill: #262626" transform="translate(335.615469 400.695312) scale(0.1 -0.1)">
       <defs>
        <path id="LiberationSans-38" d="M 3281 1228 
Q 3281 619 2893 278 
Q 2506 -63 1781 -63 
Q 1075 -63 676 271 
Q 278 606 278 1222 
Q 278 1653 525 1947 
Q 772 2241 1156 2303 
L 1156 2316 
Q 797 2400 589 2681 
Q 381 2963 381 3341 
Q 381 3844 757 4156 
Q 1134 4469 1769 4469 
Q 2419 4469 2795 4162 
Q 3172 3856 3172 3334 
Q 3172 2956 2962 2675 
Q 2753 2394 2391 2322 
L 2391 2309 
Q 2813 2241 3047 1952 
Q 3281 1663 3281 1228 
z
M 2588 3303 
Q 2588 4050 1769 4050 
Q 1372 4050 1164 3862 
Q 956 3675 956 3303 
Q 956 2925 1170 2726 
Q 1384 2528 1775 2528 
Q 2172 2528 2380 2711 
Q 2588 2894 2588 3303 
z
M 2697 1281 
Q 2697 1691 2453 1898 
Q 2209 2106 1769 2106 
Q 1341 2106 1100 1882 
Q 859 1659 859 1269 
Q 859 359 1788 359 
Q 2247 359 2472 579 
Q 2697 800 2697 1281 
z
" transform="scale(0.015625)"/>
       </defs>
       <use xlink:href="#LiberationSans-38"/>
      </g>
     </g>
    </g>
    <g id="xtick_6">
     <g id="line2d_11">
      <path d="M 413.975937 389.948437 
L 413.975937 36.680437 
" clip-path="url(#p2993c6db04)" style="fill: none; stroke: #ffffff; stroke-opacity: 0.3; stroke-width: 0.8; stroke-linecap: round"/>
     </g>
     <g id="line2d_12"/>
     <g id="text_6">
      <!-- 10 -->
      <g style="fill: #262626" transform="translate(408.415 400.695312) scale(0.1 -0.1)">
       <defs>
        <path id="LiberationSans-31" d="M 488 0 
L 488 478 
L 1609 478 
L 1609 3866 
L 616 3156 
L 616 3688 
L 1656 4403 
L 2175 4403 
L 2175 478 
L 3247 478 
L 3247 0 
L 488 0 
z
" transform="scale(0.015625)"/>
       </defs>
       <use xlink:href="#LiberationSans-31"/>
       <use xlink:href="#LiberationSans-30" transform="translate(55.615234 0)"/>
      </g>
     </g>
    </g>
    <g id="xtick_7">
     <g id="line2d_13">
      <path d="M 489.555938 389.948437 
L 489.555938 36.680437 
" clip-path="url(#p2993c6db04)" style="fill: none; stroke: #ffffff; stroke-opacity: 0.3; stroke-width: 0.8; stroke-linecap: round"/>
     </g>
     <g id="line2d_14"/>
     <g id="text_7">
      <!-- 12 -->
      <g style="fill: #262626" transform="translate(483.995 400.695312) scale(0.1 -0.1)">
       <use xlink:href="#LiberationSans-31"/>
       <use xlink:href="#LiberationSans-32" transform="translate(55.615234 0)"/>
      </g>
     </g>
    </g>
    <g id="text_8">
     <!-- Software Value Delivered -->
     <g style="fill: #262626" transform="translate(201.164375 414.741875) scale(0.11 -0.11)">
      <defs>
       <path id="LiberationSans-53" d="M 3975 1216 
Q 3975 606 3498 271 
Q 3022 -63 2156 -63 
Q 547 -63 291 1056 
L 869 1172 
Q 969 775 1294 589 
Q 1619 403 2178 403 
Q 2756 403 3070 601 
Q 3384 800 3384 1184 
Q 3384 1400 3286 1534 
Q 3188 1669 3009 1756 
Q 2831 1844 2584 1903 
Q 2338 1963 2038 2031 
Q 1516 2147 1245 2262 
Q 975 2378 819 2520 
Q 663 2663 580 2853 
Q 497 3044 497 3291 
Q 497 3856 930 4162 
Q 1363 4469 2169 4469 
Q 2919 4469 3316 4239 
Q 3713 4009 3872 3456 
L 3284 3353 
Q 3188 3703 2916 3861 
Q 2644 4019 2163 4019 
Q 1634 4019 1356 3844 
Q 1078 3669 1078 3322 
Q 1078 3119 1186 2986 
Q 1294 2853 1497 2761 
Q 1700 2669 2306 2534 
Q 2509 2488 2711 2439 
Q 2913 2391 3097 2323 
Q 3281 2256 3442 2165 
Q 3603 2075 3722 1944 
Q 3841 1813 3908 1634 
Q 3975 1456 3975 1216 
z
" transform="scale(0.015625)"/>
       <path id="LiberationSans-6f" d="M 3291 1694 
Q 3291 806 2900 371 
Q 2509 -63 1766 -63 
Q 1025 -63 647 389 
Q 269 841 269 1694 
Q 269 3444 1784 3444 
Q 2559 3444 2925 3017 
Q 3291 2591 3291 1694 
z
M 2700 1694 
Q 2700 2394 2492 2711 
Q 2284 3028 1794 3028 
Q 1300 3028 1079 2704 
Q 859 2381 859 1694 
Q 859 1025 1076 689 
Q 1294 353 1759 353 
Q 2266 353 2483 678 
Q 2700 1003 2700 1694 
z
" transform="scale(0.015625)"/>
       <path id="LiberationSans-66" d="M 1128 2972 
L 1128 0 
L 566 0 
L 566 2972 
L 91 2972 
L 91 3381 
L 566 3381 
L 566 3763 
Q 566 4225 769 4428 
Q 972 4631 1391 4631 
Q 1625 4631 1788 4594 
L 1788 4166 
Q 1647 4191 1538 4191 
Q 1322 4191 1225 4081 
Q 1128 3972 1128 3684 
L 1128 3381 
L 1788 3381 
L 1788 2972 
L 1128 2972 
z
" transform="scale(0.015625)"/>
       <path id="LiberationSans-74" d="M 1731 25 
Q 1453 -50 1163 -50 
Q 488 -50 488 716 
L 488 2972 
L 97 2972 
L 97 3381 
L 509 3381 
L 675 4138 
L 1050 4138 
L 1050 3381 
L 1675 3381 
L 1675 2972 
L 1050 2972 
L 1050 838 
Q 1050 594 1129 495 
Q 1209 397 1406 397 
Q 1519 397 1731 441 
L 1731 25 
z
" transform="scale(0.015625)"/>
       <path id="LiberationSans-77" d="M 3669 0 
L 3016 0 
L 2425 2391 
L 2313 2919 
Q 2284 2778 2225 2514 
Q 2166 2250 1588 0 
L 938 0 
L -9 3381 
L 547 3381 
L 1119 1084 
Q 1141 1009 1253 466 
L 1306 697 
L 2013 3381 
L 2616 3381 
L 3206 1059 
L 3350 466 
L 3447 900 
L 4088 3381 
L 4638 3381 
L 3669 0 
z
" transform="scale(0.015625)"/>
       <path id="LiberationSans-61" d="M 1294 -63 
Q 784 -63 528 206 
Q 272 475 272 944 
Q 272 1469 617 1750 
Q 963 2031 1731 2050 
L 2491 2063 
L 2491 2247 
Q 2491 2659 2316 2837 
Q 2141 3016 1766 3016 
Q 1388 3016 1216 2887 
Q 1044 2759 1009 2478 
L 422 2531 
Q 566 3444 1778 3444 
Q 2416 3444 2737 3151 
Q 3059 2859 3059 2306 
L 3059 850 
Q 3059 600 3125 473 
Q 3191 347 3375 347 
Q 3456 347 3559 369 
L 3559 19 
Q 3347 -31 3125 -31 
Q 2813 -31 2670 133 
Q 2528 297 2509 647 
L 2491 647 
Q 2275 259 1989 98 
Q 1703 -63 1294 -63 
z
M 1422 359 
Q 1731 359 1972 500 
Q 2213 641 2352 886 
Q 2491 1131 2491 1391 
L 2491 1669 
L 1875 1656 
Q 1478 1650 1273 1575 
Q 1069 1500 959 1344 
Q 850 1188 850 934 
Q 850 659 998 509 
Q 1147 359 1422 359 
z
" transform="scale(0.015625)"/>
       <path id="LiberationSans-72" d="M 444 0 
L 444 2594 
Q 444 2950 425 3381 
L 956 3381 
Q 981 2806 981 2691 
L 994 2691 
Q 1128 3125 1303 3284 
Q 1478 3444 1797 3444 
Q 1909 3444 2025 3413 
L 2025 2897 
Q 1913 2928 1725 2928 
Q 1375 2928 1190 2626 
Q 1006 2325 1006 1763 
L 1006 0 
L 444 0 
z
" transform="scale(0.015625)"/>
       <path id="LiberationSans-65" d="M 863 1572 
Q 863 991 1103 675 
Q 1344 359 1806 359 
Q 2172 359 2392 506 
Q 2613 653 2691 878 
L 3184 738 
Q 2881 -63 1806 -63 
Q 1056 -63 664 384 
Q 272 831 272 1713 
Q 272 2550 664 2997 
Q 1056 3444 1784 3444 
Q 3275 3444 3275 1647 
L 3275 1572 
L 863 1572 
z
M 2694 2003 
Q 2647 2538 2422 2783 
Q 2197 3028 1775 3028 
Q 1366 3028 1127 2754 
Q 888 2481 869 2003 
L 2694 2003 
z
" transform="scale(0.015625)"/>
       <path id="LiberationSans-20" transform="scale(0.015625)"/>
       <path id="LiberationSans-56" d="M 2444 0 
L 1825 0 
L 28 4403 
L 656 4403 
L 1875 1303 
L 2138 525 
L 2400 1303 
L 3613 4403 
L 4241 4403 
L 2444 0 
z
" transform="scale(0.015625)"/>
       <path id="LiberationSans-6c" d="M 431 0 
L 431 4638 
L 994 4638 
L 994 0 
L 431 0 
z
" transform="scale(0.015625)"/>
       <path id="LiberationSans-75" d="M 981 3381 
L 981 1238 
Q 981 903 1047 718 
Q 1113 534 1256 453 
Q 1400 372 1678 372 
Q 2084 372 2318 650 
Q 2553 928 2553 1422 
L 2553 3381 
L 3116 3381 
L 3116 722 
Q 3116 131 3134 0 
L 2603 0 
Q 2600 16 2597 84 
Q 2594 153 2589 242 
Q 2584 331 2578 578 
L 2569 578 
Q 2375 228 2120 82 
Q 1866 -63 1488 -63 
Q 931 -63 673 214 
Q 416 491 416 1128 
L 416 3381 
L 981 3381 
z
" transform="scale(0.015625)"/>
       <path id="LiberationSans-44" d="M 4316 2247 
Q 4316 1566 4050 1055 
Q 3784 544 3296 272 
Q 2809 0 2172 0 
L 525 0 
L 525 4403 
L 1981 4403 
Q 3100 4403 3708 3842 
Q 4316 3281 4316 2247 
z
M 3716 2247 
Q 3716 3066 3267 3495 
Q 2819 3925 1969 3925 
L 1122 3925 
L 1122 478 
L 2103 478 
Q 2588 478 2955 690 
Q 3322 903 3519 1303 
Q 3716 1703 3716 2247 
z
" transform="scale(0.015625)"/>
       <path id="LiberationSans-69" d="M 428 4100 
L 428 4638 
L 991 4638 
L 991 4100 
L 428 4100 
z
M 428 0 
L 428 3381 
L 991 3381 
L 991 0 
L 428 0 
z
" transform="scale(0.015625)"/>
       <path id="LiberationSans-76" d="M 1916 0 
L 1250 0 
L 22 3381 
L 622 3381 
L 1366 1181 
Q 1406 1056 1581 441 
L 1691 806 
L 1813 1175 
L 2581 3381 
L 3178 3381 
L 1916 0 
z
" transform="scale(0.015625)"/>
       <path id="LiberationSans-64" d="M 2566 544 
Q 2409 219 2151 78 
Q 1894 -63 1513 -63 
Q 872 -63 570 368 
Q 269 800 269 1675 
Q 269 3444 1513 3444 
Q 1897 3444 2153 3303 
Q 2409 3163 2566 2856 
L 2572 2856 
L 2566 3234 
L 2566 4638 
L 3128 4638 
L 3128 697 
Q 3128 169 3147 0 
L 2609 0 
Q 2600 50 2589 231 
Q 2578 413 2578 544 
L 2566 544 
z
M 859 1694 
Q 859 984 1046 678 
Q 1234 372 1656 372 
Q 2134 372 2350 703 
Q 2566 1034 2566 1731 
Q 2566 2403 2350 2715 
Q 2134 3028 1663 3028 
Q 1238 3028 1048 2714 
Q 859 2400 859 1694 
z
" transform="scale(0.015625)"/>
      </defs>
      <use xlink:href="#LiberationSans-53"/>
      <use xlink:href="#LiberationSans-6f" transform="translate(66.699219 0)"/>
      <use xlink:href="#LiberationSans-66" transform="translate(122.314453 0)"/>
      <use xlink:href="#LiberationSans-74" transform="translate(150.097656 0)"/>
      <use xlink:href="#LiberationSans-77" transform="translate(177.880859 0)"/>
      <use xlink:href="#LiberationSans-61" transform="translate(250.097656 0)"/>
      <use xlink:href="#LiberationSans-72" transform="translate(305.712891 0)"/>
      <use xlink:href="#LiberationSans-65" transform="translate(339.013672 0)"/>
      <use xlink:href="#LiberationSans-20" transform="translate(394.628906 0)"/>
      <use xlink:href="#LiberationSans-56" transform="translate(422.412109 0)"/>
      <use xlink:href="#LiberationSans-61" transform="translate(481.736328 0)"/>
      <use xlink:href="#LiberationSans-6c" transform="translate(537.351562 0)"/>
      <use xlink:href="#LiberationSans-75" transform="translate(559.568359 0)"/>
      <use xlink:href="#LiberationSans-65" transform="translate(615.183594 0)"/>
      <use xlink:href="#LiberationSans-20" transform="translate(670.798828 0)"/>
      <use xlink:href="#LiberationSans-44" transform="translate(698.582031 0)"/>
      <use xlink:href="#LiberationSans-65" transform="translate(770.798828 0)"/>
      <use xlink:href="#LiberationSans-6c" transform="translate(826.414062 0)"/>
      <use xlink:href="#LiberationSans-69" transform="translate(848.630859 0)"/>
      <use xlink:href="#LiberationSans-76" transform="translate(870.847656 0)"/>
      <use xlink:href="#LiberationSans-65" transform="translate(920.847656 0)"/>
      <use xlink:href="#LiberationSans-72" transform="translate(976.462891 0)"/>
      <use xlink:href="#LiberationSans-65" transform="translate(1009.763672 0)"/>
      <use xlink:href="#LiberationSans-64" transform="translate(1065.378906 0)"/>
     </g>
    </g>
   </g>
   <g id="matplotlib.axis_2">
    <g id="ytick_1">
     <g id="line2d_15">
      <path d="M 36.075938 389.948437 
L 489.555938 389.948437 
" clip-path="url(#p2993c6db04)" style="fill: none; stroke: #ffffff; stroke-opacity: 0.3; stroke-width: 0.8; stroke-linecap: round"/>
     </g>
     <g id="line2d_16"/>
     <g id="text_9">
      <!-- 0 -->
      <g style="fill: #262626" transform="translate(27.015 393.571875) scale(0.1 -0.1)">
       <use xlink:href="#LiberationSans-30"/>
      </g>
     </g>
    </g>
    <g id="ytick_2">
     <g id="line2d_17">
      <path d="M 36.075938 331.070437 
L 489.555938 331.070437 
" clip-path="url(#p2993c6db04)" style="fill: none; stroke: #ffffff; stroke-opacity: 0.3; stroke-width: 0.8; stroke-linecap: round"/>
     </g>
     <g id="line2d_18"/>
     <g id="text_10">
      <!-- 2 -->
      <g style="fill: #262626" transform="translate(27.015 334.693875) scale(0.1 -0.1)">
       <use xlink:href="#LiberationSans-32"/>
      </g>
     </g>
    </g>
    <g id="ytick_3">
     <g id="line2d_19">
      <path d="M 36.075938 272.192437 
L 489.555938 272.192437 
" clip-path="url(#p2993c6db04)" style="fill: none; stroke: #ffffff; stroke-opacity: 0.3; stroke-width: 0.8; stroke-linecap: round"/>
     </g>
     <g id="line2d_20"/>
     <g id="text_11">
      <!-- 4 -->
      <g style="fill: #262626" transform="translate(27.015 275.815875) scale(0.1 -0.1)">
       <use xlink:href="#LiberationSans-34"/>
      </g>
     </g>
    </g>
    <g id="ytick_4">
     <g id="line2d_21">
      <path d="M 36.075938 213.314437 
L 489.555938 213.314437 
" clip-path="url(#p2993c6db04)" style="fill: none; stroke: #ffffff; stroke-opacity: 0.3; stroke-width: 0.8; stroke-linecap: round"/>
     </g>
     <g id="line2d_22"/>
     <g id="text_12">
      <!-- 6 -->
      <g style="fill: #262626" transform="translate(27.015 216.937875) scale(0.1 -0.1)">
       <use xlink:href="#LiberationSans-36"/>
      </g>
     </g>
    </g>
    <g id="ytick_5">
     <g id="line2d_23">
      <path d="M 36.075938 154.436437 
L 489.555938 154.436437 
" clip-path="url(#p2993c6db04)" style="fill: none; stroke: #ffffff; stroke-opacity: 0.3; stroke-width: 0.8; stroke-linecap: round"/>
     </g>
     <g id="line2d_24"/>
     <g id="text_13">
      <!-- 8 -->
      <g style="fill: #262626" transform="translate(27.015 158.059875) scale(0.1 -0.1)">
       <use xlink:href="#LiberationSans-38"/>
      </g>
     </g>
    </g>
    <g id="ytick_6">
     <g id="line2d_25">
      <path d="M 36.075938 95.558437 
L 489.555938 95.558437 
" clip-path="url(#p2993c6db04)" style="fill: none; stroke: #ffffff; stroke-opacity: 0.3; stroke-width: 0.8; stroke-linecap: round"/>
     </g>
     <g id="line2d_26"/>
     <g id="text_14">
      <!-- 10 -->
      <g style="fill: #262626" transform="translate(21.454063 99.181875) scale(0.1 -0.1)">
       <use xlink:href="#LiberationSans-31"/>
       <use xlink:href="#LiberationSans-30" transform="translate(55.615234 0)"/>
      </g>
     </g>
    </g>
    <g id="ytick_7">
     <g id="line2d_27">
      <path d="M 36.075938 36.680437 
L 489.555938 36.680437 
" clip-path="url(#p2993c6db04)" style="fill: none; stroke: #ffffff; stroke-opacity: 0.3; stroke-width: 0.8; stroke-linecap: round"/>
     </g>
     <g id="line2d_28"/>
     <g id="text_15">
      <!-- 12 -->
      <g style="fill: #262626" transform="translate(21.454063 40.303875) scale(0.1 -0.1)">
       <use xlink:href="#LiberationSans-31"/>
       <use xlink:href="#LiberationSans-32" transform="translate(55.615234 0)"/>
      </g>
     </g>
    </g>
    <g id="text_16">
     <!-- Code Volume Produced -->
     <g style="fill: #262626" transform="translate(15.171563 271.405609) rotate(-90) scale(0.11 -0.11)">
      <defs>
       <path id="LiberationSans-43" d="M 2475 3981 
Q 1744 3981 1337 3511 
Q 931 3041 931 2222 
Q 931 1413 1354 920 
Q 1778 428 2500 428 
Q 3425 428 3891 1344 
L 4378 1100 
Q 4106 531 3614 234 
Q 3122 -63 2472 -63 
Q 1806 -63 1320 214 
Q 834 491 579 1005 
Q 325 1519 325 2222 
Q 325 3275 894 3872 
Q 1463 4469 2469 4469 
Q 3172 4469 3644 4194 
Q 4116 3919 4338 3378 
L 3772 3191 
Q 3619 3575 3280 3778 
Q 2941 3981 2475 3981 
z
" transform="scale(0.015625)"/>
       <path id="LiberationSans-6d" d="M 2400 0 
L 2400 2144 
Q 2400 2634 2265 2821 
Q 2131 3009 1781 3009 
Q 1422 3009 1212 2734 
Q 1003 2459 1003 1959 
L 1003 0 
L 444 0 
L 444 2659 
Q 444 3250 425 3381 
L 956 3381 
Q 959 3366 962 3297 
Q 966 3228 970 3139 
Q 975 3050 981 2803 
L 991 2803 
Q 1172 3163 1406 3303 
Q 1641 3444 1978 3444 
Q 2363 3444 2586 3291 
Q 2809 3138 2897 2803 
L 2906 2803 
Q 3081 3144 3329 3294 
Q 3578 3444 3931 3444 
Q 4444 3444 4676 3166 
Q 4909 2888 4909 2253 
L 4909 0 
L 4353 0 
L 4353 2144 
Q 4353 2634 4218 2821 
Q 4084 3009 3734 3009 
Q 3366 3009 3161 2736 
Q 2956 2463 2956 1959 
L 2956 0 
L 2400 0 
z
" transform="scale(0.015625)"/>
       <path id="LiberationSans-50" d="M 3931 3078 
Q 3931 2453 3523 2084 
Q 3116 1716 2416 1716 
L 1122 1716 
L 1122 0 
L 525 0 
L 525 4403 
L 2378 4403 
Q 3119 4403 3525 4056 
Q 3931 3709 3931 3078 
z
M 3331 3072 
Q 3331 3925 2306 3925 
L 1122 3925 
L 1122 2188 
L 2331 2188 
Q 3331 2188 3331 3072 
z
" transform="scale(0.015625)"/>
       <path id="LiberationSans-63" d="M 859 1706 
Q 859 1031 1071 706 
Q 1284 381 1713 381 
Q 2013 381 2214 543 
Q 2416 706 2463 1044 
L 3031 1006 
Q 2966 519 2616 228 
Q 2266 -63 1728 -63 
Q 1019 -63 645 385 
Q 272 834 272 1694 
Q 272 2547 647 2995 
Q 1022 3444 1722 3444 
Q 2241 3444 2583 3175 
Q 2925 2906 3013 2434 
L 2434 2391 
Q 2391 2672 2212 2837 
Q 2034 3003 1706 3003 
Q 1259 3003 1059 2706 
Q 859 2409 859 1706 
z
" transform="scale(0.015625)"/>
      </defs>
      <use xlink:href="#LiberationSans-43"/>
      <use xlink:href="#LiberationSans-6f" transform="translate(72.216797 0)"/>
      <use xlink:href="#LiberationSans-64" transform="translate(127.832031 0)"/>
      <use xlink:href="#LiberationSans-65" transform="translate(183.447266 0)"/>
      <use xlink:href="#LiberationSans-20" transform="translate(239.0625 0)"/>
      <use xlink:href="#LiberationSans-56" transform="translate(266.845703 0)"/>
      <use xlink:href="#LiberationSans-6f" transform="translate(328.044922 0)"/>
      <use xlink:href="#LiberationSans-6c" transform="translate(383.660156 0)"/>
      <use xlink:href="#LiberationSans-75" transform="translate(405.876953 0)"/>
      <use xlink:href="#LiberationSans-6d" transform="translate(461.492188 0)"/>
      <use xlink:href="#LiberationSans-65" transform="translate(544.792969 0)"/>
      <use xlink:href="#LiberationSans-20" transform="translate(600.408203 0)"/>
      <use xlink:href="#LiberationSans-50" transform="translate(628.191406 0)"/>
      <use xlink:href="#LiberationSans-72" transform="translate(694.890625 0)"/>
      <use xlink:href="#LiberationSans-6f" transform="translate(728.191406 0)"/>
      <use xlink:href="#LiberationSans-64" transform="translate(783.806641 0)"/>
      <use xlink:href="#LiberationSans-75" transform="translate(839.421875 0)"/>
      <use xlink:href="#LiberationSans-63" transform="translate(895.037109 0)"/>
      <use xlink:href="#LiberationSans-65" transform="translate(945.037109 0)"/>
      <use xlink:href="#LiberationSans-64" transform="translate(1000.652344 0)"/>
     </g>
    </g>
   </g>
   <g id="FillBetweenPolyCollection_1">
    <defs>
     <path id="mc529931e63" d="M 36.075938 -328.665937 
L 36.075938 -34.275937 
L 262.815938 -34.275937 
L 262.815938 -34.275937 
L 262.815938 -34.275937 
L 36.075938 -328.665937 
z
" style="stroke: #1565c0; stroke-opacity: 0.15"/>
    </defs>
    <g clip-path="url(#p2993c6db04)">
     <use xlink:href="#mc529931e63" x="0" y="424.224375" style="fill: #1565c0; fill-opacity: 0.15; stroke: #1565c0; stroke-opacity: 0.15"/>
    </g>
   </g>
   <g id="patch_3">
    <path d="M 36.075938 389.948437 
L 262.815938 389.948437 
L 262.815938 389.948437 
L 149.445938 183.875437 
z
" clip-path="url(#p2993c6db04)" style="fill: #1565c0; opacity: 0.25"/>
   </g>
   <g id="line2d_29">
    <path d="M 36.075938 95.558437 
L 262.815938 389.948437 
" clip-path="url(#p2993c6db04)" style="fill: none; stroke: #1565c0; stroke-width: 2.5; stroke-linecap: round"/>
   </g>
   <g id="line2d_30">
    <path d="M 36.075938 66.119437 
L 451.765938 389.948437 
" clip-path="url(#p2993c6db04)" style="fill: none; stroke-dasharray: 7.4,3.2; stroke-dashoffset: 0; stroke: #ef6c00; stroke-opacity: 0.6; stroke-width: 2"/>
   </g>
   <g id="patch_4">
    <path d="M 36.075938 389.948437 
L 36.075938 36.680437 
" style="fill: none"/>
   </g>
   <g id="patch_5">
    <path d="M 489.555938 389.948437 
L 489.555938 36.680437 
" style="fill: none"/>
   </g>
   <g id="patch_6">
    <path d="M 36.075938 389.948437 
L 489.555938 389.948437 
" style="fill: none"/>
   </g>
   <g id="patch_7">
    <path d="M 36.075938 36.680437 
L 489.555938 36.680437 
" style="fill: none"/>
   </g>
   <g id="patch_8">
    <path d="M 225.262709 130.22825 
Q 188.169918 156.474737 152.446122 181.752537 
" style="fill: none; stroke: #ff0000; stroke-width: 1.5; stroke-linecap: round"/>
    <path d="M 156.86659 181.074706 
L 152.446122 181.752537 
L 154.556138 177.809463 
" style="fill: none; stroke: #ff0000; stroke-width: 1.5; stroke-linecap: round"/>
   </g>
   <g id="text_17">
    <!-- Limited by -->
    <g style="fill: #262626" transform="translate(221.134219 114.226187) scale(0.1 -0.1)">
     <defs>
      <path id="LiberationSans-4c" d="M 525 0 
L 525 4403 
L 1122 4403 
L 1122 488 
L 3347 488 
L 3347 0 
L 525 0 
z
" transform="scale(0.015625)"/>
      <path id="LiberationSans-62" d="M 3291 1706 
Q 3291 -63 2047 -63 
Q 1663 -63 1408 76 
Q 1153 216 994 525 
L 988 525 
Q 988 428 975 229 
Q 963 31 956 0 
L 413 0 
Q 431 169 431 697 
L 431 4638 
L 994 4638 
L 994 3316 
Q 994 3113 981 2838 
L 994 2838 
Q 1150 3163 1408 3303 
Q 1666 3444 2047 3444 
Q 2688 3444 2989 3012 
Q 3291 2581 3291 1706 
z
M 2700 1688 
Q 2700 2397 2512 2703 
Q 2325 3009 1903 3009 
Q 1428 3009 1211 2684 
Q 994 2359 994 1653 
Q 994 988 1206 670 
Q 1419 353 1897 353 
Q 2322 353 2511 667 
Q 2700 981 2700 1688 
z
" transform="scale(0.015625)"/>
      <path id="LiberationSans-79" d="M 597 -1328 
Q 366 -1328 209 -1294 
L 209 -872 
Q 328 -891 472 -891 
Q 997 -891 1303 -119 
L 1356 16 
L 16 3381 
L 616 3381 
L 1328 1513 
Q 1344 1469 1366 1408 
Q 1388 1347 1506 1000 
Q 1625 653 1634 613 
L 1853 1228 
L 2594 3381 
L 3188 3381 
L 1888 0 
Q 1678 -541 1497 -805 
Q 1316 -1069 1095 -1198 
Q 875 -1328 597 -1328 
z
" transform="scale(0.015625)"/>
     </defs>
     <use xlink:href="#LiberationSans-4c"/>
     <use xlink:href="#LiberationSans-69" transform="translate(55.615234 0)"/>
     <use xlink:href="#LiberationSans-6d" transform="translate(77.832031 0)"/>
     <use xlink:href="#LiberationSans-69" transform="translate(161.132812 0)"/>
     <use xlink:href="#LiberationSans-74" transform="translate(183.349609 0)"/>
     <use xlink:href="#LiberationSans-65" transform="translate(211.132812 0)"/>
     <use xlink:href="#LiberationSans-64" transform="translate(266.748047 0)"/>
     <use xlink:href="#LiberationSans-20" transform="translate(322.363281 0)"/>
     <use xlink:href="#LiberationSans-62" transform="translate(350.146484 0)"/>
     <use xlink:href="#LiberationSans-79" transform="translate(405.761719 0)"/>
    </g>
    <!-- human execution -->
    <g style="fill: #262626" transform="translate(205.842813 124.997437) scale(0.1 -0.1)">
     <defs>
      <path id="LiberationSans-68" d="M 991 2803 
Q 1172 3134 1426 3289 
Q 1681 3444 2072 3444 
Q 2622 3444 2883 3170 
Q 3144 2897 3144 2253 
L 3144 0 
L 2578 0 
L 2578 2144 
Q 2578 2500 2512 2673 
Q 2447 2847 2297 2928 
Q 2147 3009 1881 3009 
Q 1484 3009 1245 2734 
Q 1006 2459 1006 1994 
L 1006 0 
L 444 0 
L 444 4638 
L 1006 4638 
L 1006 3431 
Q 1006 3241 995 3037 
Q 984 2834 981 2803 
L 991 2803 
z
" transform="scale(0.015625)"/>
      <path id="LiberationSans-6e" d="M 2578 0 
L 2578 2144 
Q 2578 2478 2512 2662 
Q 2447 2847 2303 2928 
Q 2159 3009 1881 3009 
Q 1475 3009 1240 2731 
Q 1006 2453 1006 1959 
L 1006 0 
L 444 0 
L 444 2659 
Q 444 3250 425 3381 
L 956 3381 
Q 959 3366 962 3297 
Q 966 3228 970 3139 
Q 975 3050 981 2803 
L 991 2803 
Q 1184 3153 1439 3298 
Q 1694 3444 2072 3444 
Q 2628 3444 2886 3167 
Q 3144 2891 3144 2253 
L 3144 0 
L 2578 0 
z
" transform="scale(0.015625)"/>
      <path id="LiberationSans-78" d="M 2503 0 
L 1594 1388 
L 678 0 
L 72 0 
L 1275 1738 
L 128 3381 
L 750 3381 
L 1594 2066 
L 2431 3381 
L 3059 3381 
L 1913 1744 
L 3131 0 
L 2503 0 
z
" transform="scale(0.015625)"/>
     </defs>
     <use xlink:href="#LiberationSans-68"/>
     <use xlink:href="#LiberationSans-75" transform="translate(55.615234 0)"/>
     <use xlink:href="#LiberationSans-6d" transform="translate(111.230469 0)"/>
     <use xlink:href="#LiberationSans-61" transform="translate(194.53125 0)"/>
     <use xlink:href="#LiberationSans-6e" transform="translate(250.146484 0)"/>
     <use xlink:href="#LiberationSans-20" transform="translate(305.761719 0)"/>
     <use xlink:href="#LiberationSans-65" transform="translate(333.544922 0)"/>
     <use xlink:href="#LiberationSans-78" transform="translate(389.160156 0)"/>
     <use xlink:href="#LiberationSans-65" transform="translate(439.160156 0)"/>
     <use xlink:href="#LiberationSans-63" transform="translate(494.775391 0)"/>
     <use xlink:href="#LiberationSans-75" transform="translate(544.775391 0)"/>
     <use xlink:href="#LiberationSans-74" transform="translate(600.390625 0)"/>
     <use xlink:href="#LiberationSans-69" transform="translate(628.173828 0)"/>
     <use xlink:href="#LiberationSans-6f" transform="translate(650.390625 0)"/>
     <use xlink:href="#LiberationSans-6e" transform="translate(706.005859 0)"/>
    </g>
   </g>
   <g id="text_18">
    <!-- Before AI Agents: -->
    <g style="fill: #262626" transform="translate(208.411953 16.620937) scale(0.13 -0.13)">
     <defs>
      <path id="LiberationSans-Bold-42" d="M 4331 1256 
Q 4331 656 3881 328 
Q 3431 0 2631 0 
L 428 0 
L 428 4403 
L 2444 4403 
Q 3250 4403 3664 4123 
Q 4078 3844 4078 3297 
Q 4078 2922 3870 2664 
Q 3663 2406 3238 2316 
Q 3772 2253 4051 1979 
Q 4331 1706 4331 1256 
z
M 3150 3172 
Q 3150 3469 2961 3594 
Q 2772 3719 2400 3719 
L 1350 3719 
L 1350 2628 
L 2406 2628 
Q 2797 2628 2973 2764 
Q 3150 2900 3150 3172 
z
M 3406 1328 
Q 3406 1947 2519 1947 
L 1350 1947 
L 1350 684 
L 2553 684 
Q 2997 684 3201 845 
Q 3406 1006 3406 1328 
z
" transform="scale(0.015625)"/>
      <path id="LiberationSans-Bold-65" d="M 1831 -63 
Q 1069 -63 659 389 
Q 250 841 250 1706 
Q 250 2544 665 2994 
Q 1081 3444 1844 3444 
Q 2572 3444 2956 2961 
Q 3341 2478 3341 1547 
L 3341 1522 
L 1172 1522 
Q 1172 1028 1355 776 
Q 1538 525 1875 525 
Q 2341 525 2463 928 
L 3291 856 
Q 2931 -63 1831 -63 
z
M 1831 2891 
Q 1522 2891 1355 2675 
Q 1188 2459 1178 2072 
L 2491 2072 
Q 2466 2481 2294 2686 
Q 2122 2891 1831 2891 
z
" transform="scale(0.015625)"/>
      <path id="LiberationSans-Bold-66" d="M 1478 2788 
L 1478 0 
L 603 0 
L 603 2788 
L 109 2788 
L 109 3381 
L 603 3381 
L 603 3734 
Q 603 4194 847 4416 
Q 1091 4638 1588 4638 
Q 1834 4638 2144 4588 
L 2144 4022 
Q 2016 4050 1888 4050 
Q 1663 4050 1570 3961 
Q 1478 3872 1478 3647 
L 1478 3381 
L 2144 3381 
L 2144 2788 
L 1478 2788 
z
" transform="scale(0.015625)"/>
      <path id="LiberationSans-Bold-6f" d="M 3659 1694 
Q 3659 872 3203 404 
Q 2747 -63 1941 -63 
Q 1150 -63 700 406 
Q 250 875 250 1694 
Q 250 2509 700 2976 
Q 1150 3444 1959 3444 
Q 2788 3444 3223 2992 
Q 3659 2541 3659 1694 
z
M 2741 1694 
Q 2741 2297 2544 2569 
Q 2347 2841 1972 2841 
Q 1172 2841 1172 1694 
Q 1172 1128 1367 833 
Q 1563 538 1931 538 
Q 2741 538 2741 1694 
z
" transform="scale(0.015625)"/>
      <path id="LiberationSans-Bold-72" d="M 447 0 
L 447 2588 
Q 447 2866 439 3052 
Q 431 3238 422 3381 
L 1259 3381 
Q 1269 3325 1284 3039 
Q 1300 2753 1300 2659 
L 1313 2659 
Q 1441 3016 1541 3161 
Q 1641 3306 1778 3376 
Q 1916 3447 2122 3447 
Q 2291 3447 2394 3400 
L 2394 2666 
Q 2181 2713 2019 2713 
Q 1691 2713 1508 2447 
Q 1325 2181 1325 1659 
L 1325 0 
L 447 0 
z
" transform="scale(0.015625)"/>
      <path id="LiberationSans-Bold-20" transform="scale(0.015625)"/>
      <path id="LiberationSans-Bold-41" d="M 3541 0 
L 3150 1125 
L 1472 1125 
L 1081 0 
L 159 0 
L 1766 4403 
L 2853 4403 
L 4453 0 
L 3541 0 
z
M 2309 3725 
L 2291 3656 
Q 2259 3544 2215 3400 
Q 2172 3256 1678 1819 
L 2944 1819 
L 2509 3084 
L 2375 3509 
L 2309 3725 
z
" transform="scale(0.015625)"/>
      <path id="LiberationSans-Bold-49" d="M 428 0 
L 428 4403 
L 1350 4403 
L 1350 0 
L 428 0 
z
" transform="scale(0.015625)"/>
      <path id="LiberationSans-Bold-67" d="M 1863 -1356 
Q 1244 -1356 867 -1120 
Q 491 -884 403 -447 
L 1281 -344 
Q 1328 -547 1483 -662 
Q 1638 -778 1888 -778 
Q 2253 -778 2422 -553 
Q 2591 -328 2591 116 
L 2591 294 
L 2597 628 
L 2591 628 
Q 2300 6 1503 6 
Q 913 6 588 450 
Q 263 894 263 1719 
Q 263 2547 597 2997 
Q 931 3447 1569 3447 
Q 2306 3447 2591 2838 
L 2606 2838 
Q 2606 2947 2620 3134 
Q 2634 3322 2650 3381 
L 3481 3381 
Q 3463 3044 3463 2600 
L 3463 103 
Q 3463 -619 3053 -987 
Q 2644 -1356 1863 -1356 
z
M 2597 1738 
Q 2597 2259 2411 2551 
Q 2225 2844 1881 2844 
Q 1178 2844 1178 1719 
Q 1178 616 1875 616 
Q 2225 616 2411 908 
Q 2597 1200 2597 1738 
z
" transform="scale(0.015625)"/>
      <path id="LiberationSans-Bold-6e" d="M 2638 0 
L 2638 1897 
Q 2638 2788 2034 2788 
Q 1716 2788 1520 2514 
Q 1325 2241 1325 1813 
L 1325 0 
L 447 0 
L 447 2625 
Q 447 2897 439 3070 
Q 431 3244 422 3381 
L 1259 3381 
Q 1269 3322 1284 3064 
Q 1300 2806 1300 2709 
L 1313 2709 
Q 1491 3097 1759 3272 
Q 2028 3447 2400 3447 
Q 2938 3447 3225 3115 
Q 3513 2784 3513 2147 
L 3513 0 
L 2638 0 
z
" transform="scale(0.015625)"/>
      <path id="LiberationSans-Bold-74" d="M 1313 -56 
Q 925 -56 715 155 
Q 506 366 506 794 
L 506 2788 
L 78 2788 
L 78 3381 
L 550 3381 
L 825 4175 
L 1375 4175 
L 1375 3381 
L 2016 3381 
L 2016 2788 
L 1375 2788 
L 1375 1031 
Q 1375 784 1469 667 
Q 1563 550 1759 550 
Q 1863 550 2053 594 
L 2053 50 
Q 1728 -56 1313 -56 
z
" transform="scale(0.015625)"/>
      <path id="LiberationSans-Bold-73" d="M 3297 988 
Q 3297 497 2895 217 
Q 2494 -63 1784 -63 
Q 1088 -63 717 157 
Q 347 378 225 844 
L 997 959 
Q 1063 719 1223 619 
Q 1384 519 1784 519 
Q 2153 519 2322 612 
Q 2491 706 2491 906 
Q 2491 1069 2355 1164 
Q 2219 1259 1894 1325 
Q 1150 1472 890 1598 
Q 631 1725 495 1926 
Q 359 2128 359 2422 
Q 359 2906 732 3176 
Q 1106 3447 1791 3447 
Q 2394 3447 2761 3212 
Q 3128 2978 3219 2534 
L 2441 2453 
Q 2403 2659 2256 2761 
Q 2109 2863 1791 2863 
Q 1478 2863 1322 2783 
Q 1166 2703 1166 2516 
Q 1166 2369 1286 2283 
Q 1406 2197 1691 2141 
Q 2088 2059 2395 1973 
Q 2703 1888 2889 1769 
Q 3075 1650 3186 1464 
Q 3297 1278 3297 988 
z
" transform="scale(0.015625)"/>
      <path id="LiberationSans-Bold-3a" d="M 616 2350 
L 616 3231 
L 1516 3231 
L 1516 2350 
L 616 2350 
z
M 616 0 
L 616 878 
L 1516 878 
L 1516 0 
L 616 0 
z
" transform="scale(0.015625)"/>
     </defs>
     <use xlink:href="#LiberationSans-Bold-42"/>
     <use xlink:href="#LiberationSans-Bold-65" transform="translate(72.216797 0)"/>
     <use xlink:href="#LiberationSans-Bold-66" transform="translate(127.832031 0)"/>
     <use xlink:href="#LiberationSans-Bold-6f" transform="translate(161.132812 0)"/>
     <use xlink:href="#LiberationSans-Bold-72" transform="translate(222.216797 0)"/>
     <use xlink:href="#LiberationSans-Bold-65" transform="translate(261.132812 0)"/>
     <use xlink:href="#LiberationSans-Bold-20" transform="translate(316.748047 0)"/>
     <use xlink:href="#LiberationSans-Bold-41" transform="translate(340.78125 0)"/>
     <use xlink:href="#LiberationSans-Bold-49" transform="translate(412.998047 0)"/>
     <use xlink:href="#LiberationSans-Bold-20" transform="translate(440.78125 0)"/>
     <use xlink:href="#LiberationSans-Bold-41" transform="translate(464.814453 0)"/>
     <use xlink:href="#LiberationSans-Bold-67" transform="translate(537.03125 0)"/>
     <use xlink:href="#LiberationSans-Bold-65" transform="translate(598.115234 0)"/>
     <use xlink:href="#LiberationSans-Bold-6e" transform="translate(653.730469 0)"/>
     <use xlink:href="#LiberationSans-Bold-74" transform="translate(714.814453 0)"/>
     <use xlink:href="#LiberationSans-Bold-73" transform="translate(748.115234 0)"/>
     <use xlink:href="#LiberationSans-Bold-3a" transform="translate(803.730469 0)"/>
    </g>
    <!-- Execution Constraint is Tight -->
    <g style="fill: #262626" transform="translate(172.653828 30.680437) scale(0.13 -0.13)">
     <defs>
      <path id="LiberationSans-Bold-45" d="M 428 0 
L 428 4403 
L 3891 4403 
L 3891 3691 
L 1350 3691 
L 1350 2584 
L 3700 2584 
L 3700 1872 
L 1350 1872 
L 1350 713 
L 4019 713 
L 4019 0 
L 428 0 
z
" transform="scale(0.015625)"/>
      <path id="LiberationSans-Bold-78" d="M 2559 0 
L 1772 1225 
L 978 0 
L 44 0 
L 1281 1747 
L 103 3381 
L 1050 3381 
L 1772 2275 
L 2491 3381 
L 3444 3381 
L 2266 1756 
L 3513 0 
L 2559 0 
z
" transform="scale(0.015625)"/>
      <path id="LiberationSans-Bold-63" d="M 1856 -63 
Q 1088 -63 669 395 
Q 250 853 250 1672 
Q 250 2509 672 2976 
Q 1094 3444 1869 3444 
Q 2466 3444 2856 3144 
Q 3247 2844 3347 2316 
L 2463 2272 
Q 2425 2531 2275 2686 
Q 2125 2841 1850 2841 
Q 1172 2841 1172 1706 
Q 1172 538 1863 538 
Q 2113 538 2281 695 
Q 2450 853 2491 1166 
L 3372 1125 
Q 3325 778 3123 506 
Q 2922 234 2594 85 
Q 2266 -63 1856 -63 
z
" transform="scale(0.015625)"/>
      <path id="LiberationSans-Bold-75" d="M 1275 3381 
L 1275 1484 
Q 1275 594 1875 594 
Q 2194 594 2389 867 
Q 2584 1141 2584 1569 
L 2584 3381 
L 3463 3381 
L 3463 756 
Q 3463 325 3488 0 
L 2650 0 
Q 2613 450 2613 672 
L 2597 672 
Q 2422 288 2151 112 
Q 1881 -63 1509 -63 
Q 972 -63 684 267 
Q 397 597 397 1234 
L 397 3381 
L 1275 3381 
z
" transform="scale(0.015625)"/>
      <path id="LiberationSans-Bold-69" d="M 447 3991 
L 447 4638 
L 1325 4638 
L 1325 3991 
L 447 3991 
z
M 447 0 
L 447 3381 
L 1325 3381 
L 1325 0 
L 447 0 
z
" transform="scale(0.015625)"/>
      <path id="LiberationSans-Bold-43" d="M 2484 663 
Q 3319 663 3644 1500 
L 4447 1197 
Q 4188 559 3686 248 
Q 3184 -63 2484 -63 
Q 1422 -63 842 539 
Q 263 1141 263 2222 
Q 263 3306 822 3887 
Q 1381 4469 2444 4469 
Q 3219 4469 3706 4158 
Q 4194 3847 4391 3244 
L 3578 3022 
Q 3475 3353 3173 3548 
Q 2872 3744 2463 3744 
Q 1838 3744 1514 3356 
Q 1191 2969 1191 2222 
Q 1191 1463 1523 1063 
Q 1856 663 2484 663 
z
" transform="scale(0.015625)"/>
      <path id="LiberationSans-Bold-61" d="M 1228 -63 
Q 738 -63 463 204 
Q 188 472 188 956 
Q 188 1481 530 1756 
Q 872 2031 1522 2038 
L 2250 2050 
L 2250 2222 
Q 2250 2553 2134 2714 
Q 2019 2875 1756 2875 
Q 1513 2875 1398 2764 
Q 1284 2653 1256 2397 
L 341 2441 
Q 425 2934 792 3189 
Q 1159 3444 1794 3444 
Q 2434 3444 2781 3128 
Q 3128 2813 3128 2231 
L 3128 1000 
Q 3128 716 3192 608 
Q 3256 500 3406 500 
Q 3506 500 3600 519 
L 3600 44 
Q 3522 25 3459 9 
Q 3397 -6 3334 -15 
Q 3272 -25 3201 -31 
Q 3131 -38 3038 -38 
Q 2706 -38 2548 125 
Q 2391 288 2359 603 
L 2341 603 
Q 1972 -63 1228 -63 
z
M 2250 1566 
L 1800 1559 
Q 1494 1547 1366 1492 
Q 1238 1438 1170 1325 
Q 1103 1213 1103 1025 
Q 1103 784 1214 667 
Q 1325 550 1509 550 
Q 1716 550 1886 662 
Q 2056 775 2153 973 
Q 2250 1172 2250 1394 
L 2250 1566 
z
" transform="scale(0.015625)"/>
      <path id="LiberationSans-Bold-54" d="M 2416 3691 
L 2416 0 
L 1494 0 
L 1494 3691 
L 72 3691 
L 72 4403 
L 3841 4403 
L 3841 3691 
L 2416 3691 
z
" transform="scale(0.015625)"/>
      <path id="LiberationSans-Bold-68" d="M 1313 2706 
Q 1491 3094 1759 3269 
Q 2028 3444 2400 3444 
Q 2938 3444 3225 3112 
Q 3513 2781 3513 2144 
L 3513 0 
L 2638 0 
L 2638 1894 
Q 2638 2784 2034 2784 
Q 1716 2784 1520 2511 
Q 1325 2238 1325 1809 
L 1325 0 
L 447 0 
L 447 4638 
L 1325 4638 
L 1325 3372 
Q 1325 3031 1300 2706 
L 1313 2706 
z
" transform="scale(0.015625)"/>
     </defs>
     <use xlink:href="#LiberationSans-Bold-45"/>
     <use xlink:href="#LiberationSans-Bold-78" transform="translate(66.699219 0)"/>
     <use xlink:href="#LiberationSans-Bold-65" transform="translate(122.314453 0)"/>
     <use xlink:href="#LiberationSans-Bold-63" transform="translate(177.929688 0)"/>
     <use xlink:href="#LiberationSans-Bold-75" transform="translate(233.544922 0)"/>
     <use xlink:href="#LiberationSans-Bold-74" transform="translate(294.628906 0)"/>
     <use xlink:href="#LiberationSans-Bold-69" transform="translate(327.929688 0)"/>
     <use xlink:href="#LiberationSans-Bold-6f" transform="translate(355.712891 0)"/>
     <use xlink:href="#LiberationSans-Bold-6e" transform="translate(416.796875 0)"/>
     <use xlink:href="#LiberationSans-Bold-20" transform="translate(477.880859 0)"/>
     <use xlink:href="#LiberationSans-Bold-43" transform="translate(505.664062 0)"/>
     <use xlink:href="#LiberationSans-Bold-6f" transform="translate(577.880859 0)"/>
     <use xlink:href="#LiberationSans-Bold-6e" transform="translate(638.964844 0)"/>
     <use xlink:href="#LiberationSans-Bold-73" transform="translate(700.048828 0)"/>
     <use xlink:href="#LiberationSans-Bold-74" transform="translate(755.664062 0)"/>
     <use xlink:href="#LiberationSans-Bold-72" transform="translate(788.964844 0)"/>
     <use xlink:href="#LiberationSans-Bold-61" transform="translate(827.880859 0)"/>
     <use xlink:href="#LiberationSans-Bold-69" transform="translate(883.496094 0)"/>
     <use xlink:href="#LiberationSans-Bold-6e" transform="translate(911.279297 0)"/>
     <use xlink:href="#LiberationSans-Bold-74" transform="translate(972.363281 0)"/>
     <use xlink:href="#LiberationSans-Bold-20" transform="translate(1005.664062 0)"/>
     <use xlink:href="#LiberationSans-Bold-69" transform="translate(1033.447266 0)"/>
     <use xlink:href="#LiberationSans-Bold-73" transform="translate(1061.230469 0)"/>
     <use xlink:href="#LiberationSans-Bold-20" transform="translate(1116.845703 0)"/>
     <use xlink:href="#LiberationSans-Bold-54" transform="translate(1144.628906 0)"/>
     <use xlink:href="#LiberationSans-Bold-69" transform="translate(1203.962891 0)"/>
     <use xlink:href="#LiberationSans-Bold-67" transform="translate(1231.746094 0)"/>
     <use xlink:href="#LiberationSans-Bold-68" transform="translate(1292.830078 0)"/>
     <use xlink:href="#LiberationSans-Bold-74" transform="translate(1353.914062 0)"/>
    </g>
   </g>
   <g id="line2d_31">
    <defs>
     <path id="macef2559f2" d="M 0 6 
C 1.591219 6 3.117479 5.367802 4.242641 4.242641 
C 5.367802 3.117479 6 1.591219 6 0 
C 6 -1.591219 5.367802 -3.117479 4.242641 -4.242641 
C 3.117479 -5.367802 1.591219 -6 0 -6 
C -1.591219 -6 -3.117479 -5.367802 -4.242641 -4.242641 
C -5.367802 -3.117479 -6 -1.591219 -6 0 
C -6 1.591219 -5.367802 3.117479 -4.242641 4.242641 
C -3.117479 5.367802 -1.591219 6 0 6 
z
" style="stroke: #8b0000; stroke-width: 2"/>
    </defs>
    <g clip-path="url(#p2993c6db04)">
     <use xlink:href="#macef2559f2" x="149.445938" y="183.875437" style="fill: #ff0000; stroke: #8b0000; stroke-width: 2"/>
    </g>
   </g>
   <g id="legend_1">
    <g id="line2d_32">
     <path d="M 334.715156 48.152625 
L 343.715156 48.152625 
L 352.715156 48.152625 
" style="fill: none; stroke: #1565c0; stroke-width: 2.5; stroke-linecap: round"/>
    </g>
    <g id="text_19">
     <!-- Execution Constraint (tight) -->
     <g style="fill: #262626" transform="translate(359.915156 51.302625) scale(0.09 -0.09)">
      <defs>
       <path id="LiberationSans-45" d="M 525 0 
L 525 4403 
L 3866 4403 
L 3866 3916 
L 1122 3916 
L 1122 2503 
L 3678 2503 
L 3678 2022 
L 1122 2022 
L 1122 488 
L 3994 488 
L 3994 0 
L 525 0 
z
" transform="scale(0.015625)"/>
       <path id="LiberationSans-73" d="M 2969 934 
Q 2969 456 2608 196 
Q 2247 -63 1597 -63 
Q 966 -63 623 145 
Q 281 353 178 794 
L 675 891 
Q 747 619 972 492 
Q 1197 366 1597 366 
Q 2025 366 2223 497 
Q 2422 628 2422 891 
Q 2422 1091 2284 1216 
Q 2147 1341 1841 1422 
L 1438 1528 
Q 953 1653 748 1773 
Q 544 1894 428 2066 
Q 313 2238 313 2488 
Q 313 2950 642 3192 
Q 972 3434 1603 3434 
Q 2163 3434 2492 3237 
Q 2822 3041 2909 2606 
L 2403 2544 
Q 2356 2769 2151 2889 
Q 1947 3009 1603 3009 
Q 1222 3009 1040 2893 
Q 859 2778 859 2544 
Q 859 2400 934 2306 
Q 1009 2213 1156 2147 
Q 1303 2081 1775 1966 
Q 2222 1853 2419 1758 
Q 2616 1663 2730 1547 
Q 2844 1431 2906 1279 
Q 2969 1128 2969 934 
z
" transform="scale(0.015625)"/>
       <path id="LiberationSans-28" d="M 397 1663 
Q 397 2566 680 3284 
Q 963 4003 1550 4638 
L 2094 4638 
Q 1509 3988 1236 3256 
Q 963 2525 963 1656 
Q 963 791 1233 62 
Q 1503 -666 2094 -1325 
L 1550 -1325 
Q 959 -688 678 32 
Q 397 753 397 1650 
L 397 1663 
z
" transform="scale(0.015625)"/>
       <path id="LiberationSans-67" d="M 1713 -1328 
Q 1159 -1328 831 -1111 
Q 503 -894 409 -494 
L 975 -413 
Q 1031 -647 1223 -773 
Q 1416 -900 1728 -900 
Q 2569 -900 2569 84 
L 2569 628 
L 2563 628 
Q 2403 303 2125 139 
Q 1847 -25 1475 -25 
Q 853 -25 561 387 
Q 269 800 269 1684 
Q 269 2581 583 3007 
Q 897 3434 1538 3434 
Q 1897 3434 2161 3270 
Q 2425 3106 2569 2803 
L 2575 2803 
Q 2575 2897 2587 3128 
Q 2600 3359 2613 3381 
L 3147 3381 
Q 3128 3213 3128 2681 
L 3128 97 
Q 3128 -1328 1713 -1328 
z
M 2569 1691 
Q 2569 2103 2456 2401 
Q 2344 2700 2139 2858 
Q 1934 3016 1675 3016 
Q 1244 3016 1047 2703 
Q 850 2391 850 1691 
Q 850 997 1034 694 
Q 1219 391 1666 391 
Q 1931 391 2137 547 
Q 2344 703 2456 995 
Q 2569 1288 2569 1691 
z
" transform="scale(0.015625)"/>
       <path id="LiberationSans-29" d="M 1734 1650 
Q 1734 747 1451 28 
Q 1169 -691 581 -1325 
L 38 -1325 
Q 625 -669 897 57 
Q 1169 784 1169 1656 
Q 1169 2528 895 3256 
Q 622 3984 38 4638 
L 581 4638 
Q 1172 4000 1453 3279 
Q 1734 2559 1734 1663 
L 1734 1650 
z
" transform="scale(0.015625)"/>
      </defs>
      <use xlink:href="#LiberationSans-45"/>
      <use xlink:href="#LiberationSans-78" transform="translate(66.699219 0)"/>
      <use xlink:href="#LiberationSans-65" transform="translate(116.699219 0)"/>
      <use xlink:href="#LiberationSans-63" transform="translate(172.314453 0)"/>
      <use xlink:href="#LiberationSans-75" transform="translate(222.314453 0)"/>
      <use xlink:href="#LiberationSans-74" transform="translate(277.929688 0)"/>
      <use xlink:href="#LiberationSans-69" transform="translate(305.712891 0)"/>
      <use xlink:href="#LiberationSans-6f" transform="translate(327.929688 0)"/>
      <use xlink:href="#LiberationSans-6e" transform="translate(383.544922 0)"/>
      <use xlink:href="#LiberationSans-20" transform="translate(439.160156 0)"/>
      <use xlink:href="#LiberationSans-43" transform="translate(466.943359 0)"/>
      <use xlink:href="#LiberationSans-6f" transform="translate(539.160156 0)"/>
      <use xlink:href="#LiberationSans-6e" transform="translate(594.775391 0)"/>
      <use xlink:href="#LiberationSans-73" transform="translate(650.390625 0)"/>
      <use xlink:href="#LiberationSans-74" transform="translate(700.390625 0)"/>
      <use xlink:href="#LiberationSans-72" transform="translate(728.173828 0)"/>
      <use xlink:href="#LiberationSans-61" transform="translate(761.474609 0)"/>
      <use xlink:href="#LiberationSans-69" transform="translate(817.089844 0)"/>
      <use xlink:href="#LiberationSans-6e" transform="translate(839.306641 0)"/>
      <use xlink:href="#LiberationSans-74" transform="translate(894.921875 0)"/>
      <use xlink:href="#LiberationSans-20" transform="translate(922.705078 0)"/>
      <use xlink:href="#LiberationSans-28" transform="translate(950.488281 0)"/>
      <use xlink:href="#LiberationSans-74" transform="translate(983.789062 0)"/>
      <use xlink:href="#LiberationSans-69" transform="translate(1011.572266 0)"/>
      <use xlink:href="#LiberationSans-67" transform="translate(1033.789062 0)"/>
      <use xlink:href="#LiberationSans-68" transform="translate(1089.404297 0)"/>
      <use xlink:href="#LiberationSans-74" transform="translate(1145.019531 0)"/>
      <use xlink:href="#LiberationSans-29" transform="translate(1172.802734 0)"/>
     </g>
    </g>
    <g id="line2d_33">
     <path d="M 334.715156 61.042312 
L 343.715156 61.042312 
L 352.715156 61.042312 
" style="fill: none; stroke-dasharray: 7.4,3.2; stroke-dashoffset: 0; stroke: #ef6c00; stroke-opacity: 0.6; stroke-width: 2"/>
    </g>
    <g id="text_20">
     <!-- Governance Constraint (slack) -->
     <g style="fill: #262626" transform="translate(359.915156 64.192312) scale(0.09 -0.09)">
      <defs>
       <path id="LiberationSans-47" d="M 322 2222 
Q 322 3294 897 3881 
Q 1472 4469 2513 4469 
Q 3244 4469 3700 4222 
Q 4156 3975 4403 3431 
L 3834 3263 
Q 3647 3638 3317 3809 
Q 2988 3981 2497 3981 
Q 1734 3981 1331 3520 
Q 928 3059 928 2222 
Q 928 1388 1356 905 
Q 1784 422 2541 422 
Q 2972 422 3345 553 
Q 3719 684 3950 909 
L 3950 1703 
L 2634 1703 
L 2634 2203 
L 4500 2203 
L 4500 684 
Q 4150 328 3642 132 
Q 3134 -63 2541 -63 
Q 1850 -63 1350 212 
Q 850 488 586 1005 
Q 322 1522 322 2222 
z
" transform="scale(0.015625)"/>
       <path id="LiberationSans-6b" d="M 2550 0 
L 1406 1544 
L 994 1203 
L 994 0 
L 431 0 
L 431 4638 
L 994 4638 
L 994 1741 
L 2478 3381 
L 3138 3381 
L 1766 1928 
L 3209 0 
L 2550 0 
z
" transform="scale(0.015625)"/>
      </defs>
      <use xlink:href="#LiberationSans-47"/>
      <use xlink:href="#LiberationSans-6f" transform="translate(77.783203 0)"/>
      <use xlink:href="#LiberationSans-76" transform="translate(133.398438 0)"/>
      <use xlink:href="#LiberationSans-65" transform="translate(183.398438 0)"/>
      <use xlink:href="#LiberationSans-72" transform="translate(239.013672 0)"/>
      <use xlink:href="#LiberationSans-6e" transform="translate(272.314453 0)"/>
      <use xlink:href="#LiberationSans-61" transform="translate(327.929688 0)"/>
      <use xlink:href="#LiberationSans-6e" transform="translate(383.544922 0)"/>
      <use xlink:href="#LiberationSans-63" transform="translate(439.160156 0)"/>
      <use xlink:href="#LiberationSans-65" transform="translate(489.160156 0)"/>
      <use xlink:href="#LiberationSans-20" transform="translate(544.775391 0)"/>
      <use xlink:href="#LiberationSans-43" transform="translate(572.558594 0)"/>
      <use xlink:href="#LiberationSans-6f" transform="translate(644.775391 0)"/>
      <use xlink:href="#LiberationSans-6e" transform="translate(700.390625 0)"/>
      <use xlink:href="#LiberationSans-73" transform="translate(756.005859 0)"/>
      <use xlink:href="#LiberationSans-74" transform="translate(806.005859 0)"/>
      <use xlink:href="#LiberationSans-72" transform="translate(833.789062 0)"/>
      <use xlink:href="#LiberationSans-61" transform="translate(867.089844 0)"/>
      <use xlink:href="#LiberationSans-69" transform="translate(922.705078 0)"/>
      <use xlink:href="#LiberationSans-6e" transform="translate(944.921875 0)"/>
      <use xlink:href="#LiberationSans-74" transform="translate(1000.537109 0)"/>
      <use xlink:href="#LiberationSans-20" transform="translate(1028.320312 0)"/>
      <use xlink:href="#LiberationSans-28" transform="translate(1056.103516 0)"/>
      <use xlink:href="#LiberationSans-73" transform="translate(1089.404297 0)"/>
      <use xlink:href="#LiberationSans-6c" transform="translate(1139.404297 0)"/>
      <use xlink:href="#LiberationSans-61" transform="translate(1161.621094 0)"/>
      <use xlink:href="#LiberationSans-63" transform="translate(1217.236328 0)"/>
      <use xlink:href="#LiberationSans-6b" transform="translate(1267.236328 0)"/>
      <use xlink:href="#LiberationSans-29" transform="translate(1317.236328 0)"/>
     </g>
    </g>
    <g id="line2d_34">
     <g>
      <use xlink:href="#macef2559f2" x="343.715156" y="73.932" style="fill: #ff0000; stroke: #8b0000; stroke-width: 2"/>
     </g>
    </g>
    <g id="text_21">
     <!-- Optimal (on execution edge) -->
     <g style="fill: #262626" transform="translate(359.915156 77.082) scale(0.09 -0.09)">
      <defs>
       <path id="LiberationSans-4f" d="M 4672 2222 
Q 4672 1531 4408 1012 
Q 4144 494 3650 215 
Q 3156 -63 2484 -63 
Q 1806 -63 1314 212 
Q 822 488 562 1008 
Q 303 1528 303 2222 
Q 303 3278 881 3873 
Q 1459 4469 2491 4469 
Q 3163 4469 3656 4201 
Q 4150 3934 4411 3425 
Q 4672 2916 4672 2222 
z
M 4063 2222 
Q 4063 3044 3652 3512 
Q 3241 3981 2491 3981 
Q 1734 3981 1321 3518 
Q 909 3056 909 2222 
Q 909 1394 1326 908 
Q 1744 422 2484 422 
Q 3247 422 3655 892 
Q 4063 1363 4063 2222 
z
" transform="scale(0.015625)"/>
       <path id="LiberationSans-70" d="M 3291 1706 
Q 3291 -63 2047 -63 
Q 1266 -63 997 525 
L 981 525 
Q 994 500 994 -6 
L 994 -1328 
L 431 -1328 
L 431 2691 
Q 431 3213 413 3381 
L 956 3381 
Q 959 3369 965 3292 
Q 972 3216 980 3056 
Q 988 2897 988 2838 
L 1000 2838 
Q 1150 3150 1397 3295 
Q 1644 3441 2047 3441 
Q 2672 3441 2981 3022 
Q 3291 2603 3291 1706 
z
M 2700 1694 
Q 2700 2400 2509 2703 
Q 2319 3006 1903 3006 
Q 1569 3006 1380 2865 
Q 1191 2725 1092 2426 
Q 994 2128 994 1650 
Q 994 984 1206 668 
Q 1419 353 1897 353 
Q 2316 353 2508 661 
Q 2700 969 2700 1694 
z
" transform="scale(0.015625)"/>
      </defs>
      <use xlink:href="#LiberationSans-4f"/>
      <use xlink:href="#LiberationSans-70" transform="translate(77.783203 0)"/>
      <use xlink:href="#LiberationSans-74" transform="translate(133.398438 0)"/>
      <use xlink:href="#LiberationSans-69" transform="translate(161.181641 0)"/>
      <use xlink:href="#LiberationSans-6d" transform="translate(183.398438 0)"/>
      <use xlink:href="#LiberationSans-61" transform="translate(266.699219 0)"/>
      <use xlink:href="#LiberationSans-6c" transform="translate(322.314453 0)"/>
      <use xlink:href="#LiberationSans-20" transform="translate(344.53125 0)"/>
      <use xlink:href="#LiberationSans-28" transform="translate(372.314453 0)"/>
      <use xlink:href="#LiberationSans-6f" transform="translate(405.615234 0)"/>
      <use xlink:href="#LiberationSans-6e" transform="translate(461.230469 0)"/>
      <use xlink:href="#LiberationSans-20" transform="translate(516.845703 0)"/>
      <use xlink:href="#LiberationSans-65" transform="translate(544.628906 0)"/>
      <use xlink:href="#LiberationSans-78" transform="translate(600.244141 0)"/>
      <use xlink:href="#LiberationSans-65" transform="translate(650.244141 0)"/>
      <use xlink:href="#LiberationSans-63" transform="translate(705.859375 0)"/>
      <use xlink:href="#LiberationSans-75" transform="translate(755.859375 0)"/>
      <use xlink:href="#LiberationSans-74" transform="translate(811.474609 0)"/>
      <use xlink:href="#LiberationSans-69" transform="translate(839.257812 0)"/>
      <use xlink:href="#LiberationSans-6f" transform="translate(861.474609 0)"/>
      <use xlink:href="#LiberationSans-6e" transform="translate(917.089844 0)"/>
      <use xlink:href="#LiberationSans-20" transform="translate(972.705078 0)"/>
      <use xlink:href="#LiberationSans-65" transform="translate(1000.488281 0)"/>
      <use xlink:href="#LiberationSans-64" transform="translate(1056.103516 0)"/>
      <use xlink:href="#LiberationSans-67" transform="translate(1111.71875 0)"/>
      <use xlink:href="#LiberationSans-65" transform="translate(1167.333984 0)"/>
      <use xlink:href="#LiberationSans-29" transform="translate(1222.949219 0)"/>
     </g>
    </g>
   </g>
  </g>
  <g id="axes_2">
   <g id="patch_9">
    <path d="M 534.675938 389.948437 
L 988.155938 389.948437 
L 988.155938 36.680437 
L 534.675938 36.680437 
z
" style="fill: #eaeaf2"/>
   </g>
   <g id="matplotlib.axis_3">
    <g id="xtick_8">
     <g id="line2d_35">
      <path d="M 534.675938 389.948437 
L 534.675938 36.680437 
" clip-path="url(#pf53cdb83f6)" style="fill: none; stroke: #ffffff; stroke-opacity: 0.3; stroke-width: 0.8; stroke-linecap: round"/>
     </g>
     <g id="line2d_36"/>
     <g id="text_22">
      <!-- 0 -->
      <g style="fill: #262626" transform="translate(531.895469 400.695312) scale(0.1 -0.1)">
       <use xlink:href="#LiberationSans-30"/>
      </g>
     </g>
    </g>
    <g id="xtick_9">
     <g id="line2d_37">
      <path d="M 610.255938 389.948437 
L 610.255938 36.680437 
" clip-path="url(#pf53cdb83f6)" style="fill: none; stroke: #ffffff; stroke-opacity: 0.3; stroke-width: 0.8; stroke-linecap: round"/>
     </g>
     <g id="line2d_38"/>
     <g id="text_23">
      <!-- 2 -->
      <g style="fill: #262626" transform="translate(607.475469 400.695312) scale(0.1 -0.1)">
       <use xlink:href="#LiberationSans-32"/>
      </g>
     </g>
    </g>
    <g id="xtick_10">
     <g id="line2d_39">
      <path d="M 685.835938 389.948437 
L 685.835938 36.680437 
" clip-path="url(#pf53cdb83f6)" style="fill: none; stroke: #ffffff; stroke-opacity: 0.3; stroke-width: 0.8; stroke-linecap: round"/>
     </g>
     <g id="line2d_40"/>
     <g id="text_24">
      <!-- 4 -->
      <g style="fill: #262626" transform="translate(683.055469 400.695312) scale(0.1 -0.1)">
       <use xlink:href="#LiberationSans-34"/>
      </g>
     </g>
    </g>
    <g id="xtick_11">
     <g id="line2d_41">
      <path d="M 761.415938 389.948437 
L 761.415938 36.680437 
" clip-path="url(#pf53cdb83f6)" style="fill: none; stroke: #ffffff; stroke-opacity: 0.3; stroke-width: 0.8; stroke-linecap: round"/>
     </g>
     <g id="line2d_42"/>
     <g id="text_25">
      <!-- 6 -->
      <g style="fill: #262626" transform="translate(758.635469 400.695312) scale(0.1 -0.1)">
       <use xlink:href="#LiberationSans-36"/>
      </g>
     </g>
    </g>
    <g id="xtick_12">
     <g id="line2d_43">
      <path d="M 836.995938 389.948437 
L 836.995938 36.680437 
" clip-path="url(#pf53cdb83f6)" style="fill: none; stroke: #ffffff; stroke-opacity: 0.3; stroke-width: 0.8; stroke-linecap: round"/>
     </g>
     <g id="line2d_44"/>
     <g id="text_26">
      <!-- 8 -->
      <g style="fill: #262626" transform="translate(834.215469 400.695312) scale(0.1 -0.1)">
       <use xlink:href="#LiberationSans-38"/>
      </g>
     </g>
    </g>
    <g id="xtick_13">
     <g id="line2d_45">
      <path d="M 912.575938 389.948437 
L 912.575938 36.680437 
" clip-path="url(#pf53cdb83f6)" style="fill: none; stroke: #ffffff; stroke-opacity: 0.3; stroke-width: 0.8; stroke-linecap: round"/>
     </g>
     <g id="line2d_46"/>
     <g id="text_27">
      <!-- 10 -->
      <g style="fill: #262626" transform="translate(907.015 400.695312) scale(0.1 -0.1)">
       <use xlink:href="#LiberationSans-31"/>
       <use xlink:href="#LiberationSans-30" transform="translate(55.615234 0)"/>
      </g>
     </g>
    </g>
    <g id="xtick_14">
     <g id="line2d_47">
      <path d="M 988.155938 389.948437 
L 988.155938 36.680437 
" clip-path="url(#pf53cdb83f6)" style="fill: none; stroke: #ffffff; stroke-opacity: 0.3; stroke-width: 0.8; stroke-linecap: round"/>
     </g>
     <g id="line2d_48"/>
     <g id="text_28">
      <!-- 12 -->
      <g style="fill: #262626" transform="translate(982.595 400.695312) scale(0.1 -0.1)">
       <use xlink:href="#LiberationSans-31"/>
       <use xlink:href="#LiberationSans-32" transform="translate(55.615234 0)"/>
      </g>
     </g>
    </g>
    <g id="text_29">
     <!-- Software Value Delivered -->
     <g style="fill: #262626" transform="translate(699.764375 414.741875) scale(0.11 -0.11)">
      <use xlink:href="#LiberationSans-53"/>
      <use xlink:href="#LiberationSans-6f" transform="translate(66.699219 0)"/>
      <use xlink:href="#LiberationSans-66" transform="translate(122.314453 0)"/>
      <use xlink:href="#LiberationSans-74" transform="translate(150.097656 0)"/>
      <use xlink:href="#LiberationSans-77" transform="translate(177.880859 0)"/>
      <use xlink:href="#LiberationSans-61" transform="translate(250.097656 0)"/>
      <use xlink:href="#LiberationSans-72" transform="translate(305.712891 0)"/>
      <use xlink:href="#LiberationSans-65" transform="translate(339.013672 0)"/>
      <use xlink:href="#LiberationSans-20" transform="translate(394.628906 0)"/>
      <use xlink:href="#LiberationSans-56" transform="translate(422.412109 0)"/>
      <use xlink:href="#LiberationSans-61" transform="translate(481.736328 0)"/>
      <use xlink:href="#LiberationSans-6c" transform="translate(537.351562 0)"/>
      <use xlink:href="#LiberationSans-75" transform="translate(559.568359 0)"/>
      <use xlink:href="#LiberationSans-65" transform="translate(615.183594 0)"/>
      <use xlink:href="#LiberationSans-20" transform="translate(670.798828 0)"/>
      <use xlink:href="#LiberationSans-44" transform="translate(698.582031 0)"/>
      <use xlink:href="#LiberationSans-65" transform="translate(770.798828 0)"/>
      <use xlink:href="#LiberationSans-6c" transform="translate(826.414062 0)"/>
      <use xlink:href="#LiberationSans-69" transform="translate(848.630859 0)"/>
      <use xlink:href="#LiberationSans-76" transform="translate(870.847656 0)"/>
      <use xlink:href="#LiberationSans-65" transform="translate(920.847656 0)"/>
      <use xlink:href="#LiberationSans-72" transform="translate(976.462891 0)"/>
      <use xlink:href="#LiberationSans-65" transform="translate(1009.763672 0)"/>
      <use xlink:href="#LiberationSans-64" transform="translate(1065.378906 0)"/>
     </g>
    </g>
   </g>
   <g id="matplotlib.axis_4">
    <g id="ytick_8">
     <g id="line2d_49">
      <path d="M 534.675938 389.948437 
L 988.155938 389.948437 
" clip-path="url(#pf53cdb83f6)" style="fill: none; stroke: #ffffff; stroke-opacity: 0.3; stroke-width: 0.8; stroke-linecap: round"/>
     </g>
     <g id="line2d_50"/>
     <g id="text_30">
      <!-- 0 -->
      <g style="fill: #262626" transform="translate(525.615 393.571875) scale(0.1 -0.1)">
       <use xlink:href="#LiberationSans-30"/>
      </g>
     </g>
    </g>
    <g id="ytick_9">
     <g id="line2d_51">
      <path d="M 534.675938 331.070437 
L 988.155938 331.070437 
" clip-path="url(#pf53cdb83f6)" style="fill: none; stroke: #ffffff; stroke-opacity: 0.3; stroke-width: 0.8; stroke-linecap: round"/>
     </g>
     <g id="line2d_52"/>
     <g id="text_31">
      <!-- 2 -->
      <g style="fill: #262626" transform="translate(525.615 334.693875) scale(0.1 -0.1)">
       <use xlink:href="#LiberationSans-32"/>
      </g>
     </g>
    </g>
    <g id="ytick_10">
     <g id="line2d_53">
      <path d="M 534.675938 272.192437 
L 988.155938 272.192437 
" clip-path="url(#pf53cdb83f6)" style="fill: none; stroke: #ffffff; stroke-opacity: 0.3; stroke-width: 0.8; stroke-linecap: round"/>
     </g>
     <g id="line2d_54"/>
     <g id="text_32">
      <!-- 4 -->
      <g style="fill: #262626" transform="translate(525.615 275.815875) scale(0.1 -0.1)">
       <use xlink:href="#LiberationSans-34"/>
      </g>
     </g>
    </g>
    <g id="ytick_11">
     <g id="line2d_55">
      <path d="M 534.675938 213.314437 
L 988.155938 213.314437 
" clip-path="url(#pf53cdb83f6)" style="fill: none; stroke: #ffffff; stroke-opacity: 0.3; stroke-width: 0.8; stroke-linecap: round"/>
     </g>
     <g id="line2d_56"/>
     <g id="text_33">
      <!-- 6 -->
      <g style="fill: #262626" transform="translate(525.615 216.937875) scale(0.1 -0.1)">
       <use xlink:href="#LiberationSans-36"/>
      </g>
     </g>
    </g>
    <g id="ytick_12">
     <g id="line2d_57">
      <path d="M 534.675938 154.436437 
L 988.155938 154.436437 
" clip-path="url(#pf53cdb83f6)" style="fill: none; stroke: #ffffff; stroke-opacity: 0.3; stroke-width: 0.8; stroke-linecap: round"/>
     </g>
     <g id="line2d_58"/>
     <g id="text_34">
      <!-- 8 -->
      <g style="fill: #262626" transform="translate(525.615 158.059875) scale(0.1 -0.1)">
       <use xlink:href="#LiberationSans-38"/>
      </g>
     </g>
    </g>
    <g id="ytick_13">
     <g id="line2d_59">
      <path d="M 534.675938 95.558437 
L 988.155938 95.558437 
" clip-path="url(#pf53cdb83f6)" style="fill: none; stroke: #ffffff; stroke-opacity: 0.3; stroke-width: 0.8; stroke-linecap: round"/>
     </g>
     <g id="line2d_60"/>
     <g id="text_35">
      <!-- 10 -->
      <g style="fill: #262626" transform="translate(520.054063 99.181875) scale(0.1 -0.1)">
       <use xlink:href="#LiberationSans-31"/>
       <use xlink:href="#LiberationSans-30" transform="translate(55.615234 0)"/>
      </g>
     </g>
    </g>
    <g id="ytick_14">
     <g id="line2d_61">
      <path d="M 534.675938 36.680437 
L 988.155938 36.680437 
" clip-path="url(#pf53cdb83f6)" style="fill: none; stroke: #ffffff; stroke-opacity: 0.3; stroke-width: 0.8; stroke-linecap: round"/>
     </g>
     <g id="line2d_62"/>
     <g id="text_36">
      <!-- 12 -->
      <g style="fill: #262626" transform="translate(520.054063 40.303875) scale(0.1 -0.1)">
       <use xlink:href="#LiberationSans-31"/>
       <use xlink:href="#LiberationSans-32" transform="translate(55.615234 0)"/>
      </g>
     </g>
    </g>
    <g id="text_37">
     <!-- Code Volume Produced -->
     <g style="fill: #262626" transform="translate(513.771563 271.405609) rotate(-90) scale(0.11 -0.11)">
      <use xlink:href="#LiberationSans-43"/>
      <use xlink:href="#LiberationSans-6f" transform="translate(72.216797 0)"/>
      <use xlink:href="#LiberationSans-64" transform="translate(127.832031 0)"/>
      <use xlink:href="#LiberationSans-65" transform="translate(183.447266 0)"/>
      <use xlink:href="#LiberationSans-20" transform="translate(239.0625 0)"/>
      <use xlink:href="#LiberationSans-56" transform="translate(266.845703 0)"/>
      <use xlink:href="#LiberationSans-6f" transform="translate(328.044922 0)"/>
      <use xlink:href="#LiberationSans-6c" transform="translate(383.660156 0)"/>
      <use xlink:href="#LiberationSans-75" transform="translate(405.876953 0)"/>
      <use xlink:href="#LiberationSans-6d" transform="translate(461.492188 0)"/>
      <use xlink:href="#LiberationSans-65" transform="translate(544.792969 0)"/>
      <use xlink:href="#LiberationSans-20" transform="translate(600.408203 0)"/>
      <use xlink:href="#LiberationSans-50" transform="translate(628.191406 0)"/>
      <use xlink:href="#LiberationSans-72" transform="translate(694.890625 0)"/>
      <use xlink:href="#LiberationSans-6f" transform="translate(728.191406 0)"/>
      <use xlink:href="#LiberationSans-64" transform="translate(783.806641 0)"/>
      <use xlink:href="#LiberationSans-75" transform="translate(839.421875 0)"/>
      <use xlink:href="#LiberationSans-63" transform="translate(895.037109 0)"/>
      <use xlink:href="#LiberationSans-65" transform="translate(945.037109 0)"/>
      <use xlink:href="#LiberationSans-64" transform="translate(1000.652344 0)"/>
     </g>
    </g>
   </g>
   <g id="FillBetweenPolyCollection_2">
    <defs>
     <path id="m14044b989f" d="M 534.675938 -328.665937 
L 534.675938 -34.275937 
L 818.100938 -34.275937 
L 818.100938 -34.275937 
L 818.100938 -34.275937 
L 534.675938 -328.665937 
z
" style="stroke: #ef6c00; stroke-opacity: 0.15"/>
    </defs>
    <g clip-path="url(#pf53cdb83f6)">
     <use xlink:href="#m14044b989f" x="0" y="424.224375" style="fill: #ef6c00; fill-opacity: 0.15; stroke: #ef6c00; stroke-opacity: 0.15"/>
    </g>
   </g>
   <g id="patch_10">
    <path d="M 534.675938 389.948437 
L 818.100938 389.948437 
L 685.835938 198.594937 
L 534.675938 95.558437 
z
" clip-path="url(#pf53cdb83f6)" style="fill: #ef6c00; opacity: 0.25"/>
   </g>
   <g id="line2d_63">
    <path d="M 534.675938 66.119437 
L 950.365938 389.948437 
" clip-path="url(#pf53cdb83f6)" style="fill: none; stroke-dasharray: 7.4,3.2; stroke-dashoffset: 0; stroke: #1565c0; stroke-opacity: 0.6; stroke-width: 2"/>
   </g>
   <g id="line2d_64">
    <path d="M 534.675938 95.558437 
L 818.100938 389.948437 
" clip-path="url(#pf53cdb83f6)" style="fill: none; stroke: #ef6c00; stroke-width: 2.5; stroke-linecap: round"/>
   </g>
   <g id="patch_11">
    <path d="M 534.675938 389.948437 
L 534.675938 36.680437 
" style="fill: none"/>
   </g>
   <g id="patch_12">
    <path d="M 988.155938 389.948437 
L 988.155938 36.680437 
" style="fill: none"/>
   </g>
   <g id="patch_13">
    <path d="M 534.675938 389.948437 
L 988.155938 389.948437 
" style="fill: none"/>
   </g>
   <g id="patch_14">
    <path d="M 534.675938 36.680437 
L 988.155938 36.680437 
" style="fill: none"/>
   </g>
   <g id="patch_15">
    <path d="M 780.839253 130.240599 
Q 734.147941 163.834729 688.817941 196.449403 
" style="fill: none; stroke: #ff0000; stroke-width: 1.5; stroke-linecap: round"/>
    <path d="M 693.232925 195.736724 
L 688.817941 196.449403 
L 690.896788 192.489808 
" style="fill: none; stroke: #ff0000; stroke-width: 1.5; stroke-linecap: round"/>
   </g>
   <g id="text_38">
    <!-- Limited by -->
    <g style="fill: #262626" transform="translate(776.419219 114.226187) scale(0.1 -0.1)">
     <use xlink:href="#LiberationSans-4c"/>
     <use xlink:href="#LiberationSans-69" transform="translate(55.615234 0)"/>
     <use xlink:href="#LiberationSans-6d" transform="translate(77.832031 0)"/>
     <use xlink:href="#LiberationSans-69" transform="translate(161.132812 0)"/>
     <use xlink:href="#LiberationSans-74" transform="translate(183.349609 0)"/>
     <use xlink:href="#LiberationSans-65" transform="translate(211.132812 0)"/>
     <use xlink:href="#LiberationSans-64" transform="translate(266.748047 0)"/>
     <use xlink:href="#LiberationSans-20" transform="translate(322.363281 0)"/>
     <use xlink:href="#LiberationSans-62" transform="translate(350.146484 0)"/>
     <use xlink:href="#LiberationSans-79" transform="translate(405.761719 0)"/>
    </g>
    <!-- governance capacity -->
    <g style="fill: #262626" transform="translate(753.347344 124.997437) scale(0.1 -0.1)">
     <use xlink:href="#LiberationSans-67"/>
     <use xlink:href="#LiberationSans-6f" transform="translate(55.615234 0)"/>
     <use xlink:href="#LiberationSans-76" transform="translate(111.230469 0)"/>
     <use xlink:href="#LiberationSans-65" transform="translate(161.230469 0)"/>
     <use xlink:href="#LiberationSans-72" transform="translate(216.845703 0)"/>
     <use xlink:href="#LiberationSans-6e" transform="translate(250.146484 0)"/>
     <use xlink:href="#LiberationSans-61" transform="translate(305.761719 0)"/>
     <use xlink:href="#LiberationSans-6e" transform="translate(361.376953 0)"/>
     <use xlink:href="#LiberationSans-63" transform="translate(416.992188 0)"/>
     <use xlink:href="#LiberationSans-65" transform="translate(466.992188 0)"/>
     <use xlink:href="#LiberationSans-20" transform="translate(522.607422 0)"/>
     <use xlink:href="#LiberationSans-63" transform="translate(550.390625 0)"/>
     <use xlink:href="#LiberationSans-61" transform="translate(600.390625 0)"/>
     <use xlink:href="#LiberationSans-70" transform="translate(656.005859 0)"/>
     <use xlink:href="#LiberationSans-61" transform="translate(711.621094 0)"/>
     <use xlink:href="#LiberationSans-63" transform="translate(767.236328 0)"/>
     <use xlink:href="#LiberationSans-69" transform="translate(817.236328 0)"/>
     <use xlink:href="#LiberationSans-74" transform="translate(839.453125 0)"/>
     <use xlink:href="#LiberationSans-79" transform="translate(867.236328 0)"/>
    </g>
   </g>
   <g id="text_39">
    <!-- After AI Agents: -->
    <g style="fill: #262626" transform="translate(712.432344 16.620937) scale(0.13 -0.13)">
     <use xlink:href="#LiberationSans-Bold-41"/>
     <use xlink:href="#LiberationSans-Bold-66" transform="translate(72.216797 0)"/>
     <use xlink:href="#LiberationSans-Bold-74" transform="translate(105.517578 0)"/>
     <use xlink:href="#LiberationSans-Bold-65" transform="translate(138.818359 0)"/>
     <use xlink:href="#LiberationSans-Bold-72" transform="translate(194.433594 0)"/>
     <use xlink:href="#LiberationSans-Bold-20" transform="translate(233.349609 0)"/>
     <use xlink:href="#LiberationSans-Bold-41" transform="translate(257.382812 0)"/>
     <use xlink:href="#LiberationSans-Bold-49" transform="translate(329.599609 0)"/>
     <use xlink:href="#LiberationSans-Bold-20" transform="translate(357.382812 0)"/>
     <use xlink:href="#LiberationSans-Bold-41" transform="translate(381.416016 0)"/>
     <use xlink:href="#LiberationSans-Bold-67" transform="translate(453.632812 0)"/>
     <use xlink:href="#LiberationSans-Bold-65" transform="translate(514.716797 0)"/>
     <use xlink:href="#LiberationSans-Bold-6e" transform="translate(570.332031 0)"/>
     <use xlink:href="#LiberationSans-Bold-74" transform="translate(631.416016 0)"/>
     <use xlink:href="#LiberationSans-Bold-73" transform="translate(664.716797 0)"/>
     <use xlink:href="#LiberationSans-Bold-3a" transform="translate(720.332031 0)"/>
    </g>
    <!-- Governance Constraint is Tight -->
    <g style="fill: #262626" transform="translate(664.744688 30.680437) scale(0.13 -0.13)">
     <defs>
      <path id="LiberationSans-Bold-47" d="M 2519 659 
Q 2878 659 3215 764 
Q 3553 869 3738 1031 
L 3738 1641 
L 2663 1641 
L 2663 2322 
L 4581 2322 
L 4581 703 
Q 4231 344 3670 140 
Q 3109 -63 2494 -63 
Q 1419 -63 841 532 
Q 263 1128 263 2222 
Q 263 3309 844 3889 
Q 1425 4469 2516 4469 
Q 4066 4469 4488 3322 
L 3638 3066 
Q 3500 3400 3206 3572 
Q 2913 3744 2516 3744 
Q 1866 3744 1528 3350 
Q 1191 2956 1191 2222 
Q 1191 1475 1539 1067 
Q 1888 659 2519 659 
z
" transform="scale(0.015625)"/>
      <path id="LiberationSans-Bold-76" d="M 2284 0 
L 1234 0 
L 25 3381 
L 953 3381 
L 1544 1491 
Q 1591 1334 1766 709 
Q 1797 838 1894 1159 
Q 1991 1481 2613 3381 
L 3531 3381 
L 2284 0 
z
" transform="scale(0.015625)"/>
     </defs>
     <use xlink:href="#LiberationSans-Bold-47"/>
     <use xlink:href="#LiberationSans-Bold-6f" transform="translate(77.783203 0)"/>
     <use xlink:href="#LiberationSans-Bold-76" transform="translate(138.867188 0)"/>
     <use xlink:href="#LiberationSans-Bold-65" transform="translate(194.482422 0)"/>
     <use xlink:href="#LiberationSans-Bold-72" transform="translate(250.097656 0)"/>
     <use xlink:href="#LiberationSans-Bold-6e" transform="translate(289.013672 0)"/>
     <use xlink:href="#LiberationSans-Bold-61" transform="translate(350.097656 0)"/>
     <use xlink:href="#LiberationSans-Bold-6e" transform="translate(405.712891 0)"/>
     <use xlink:href="#LiberationSans-Bold-63" transform="translate(466.796875 0)"/>
     <use xlink:href="#LiberationSans-Bold-65" transform="translate(522.412109 0)"/>
     <use xlink:href="#LiberationSans-Bold-20" transform="translate(578.027344 0)"/>
     <use xlink:href="#LiberationSans-Bold-43" transform="translate(605.810547 0)"/>
     <use xlink:href="#LiberationSans-Bold-6f" transform="translate(678.027344 0)"/>
     <use xlink:href="#LiberationSans-Bold-6e" transform="translate(739.111328 0)"/>
     <use xlink:href="#LiberationSans-Bold-73" transform="translate(800.195312 0)"/>
     <use xlink:href="#LiberationSans-Bold-74" transform="translate(855.810547 0)"/>
     <use xlink:href="#LiberationSans-Bold-72" transform="translate(889.111328 0)"/>
     <use xlink:href="#LiberationSans-Bold-61" transform="translate(928.027344 0)"/>
     <use xlink:href="#LiberationSans-Bold-69" transform="translate(983.642578 0)"/>
     <use xlink:href="#LiberationSans-Bold-6e" transform="translate(1011.425781 0)"/>
     <use xlink:href="#LiberationSans-Bold-74" transform="translate(1072.509766 0)"/>
     <use xlink:href="#LiberationSans-Bold-20" transform="translate(1105.810547 0)"/>
     <use xlink:href="#LiberationSans-Bold-69" transform="translate(1133.59375 0)"/>
     <use xlink:href="#LiberationSans-Bold-73" transform="translate(1161.376953 0)"/>
     <use xlink:href="#LiberationSans-Bold-20" transform="translate(1216.992188 0)"/>
     <use xlink:href="#LiberationSans-Bold-54" transform="translate(1244.775391 0)"/>
     <use xlink:href="#LiberationSans-Bold-69" transform="translate(1304.109375 0)"/>
     <use xlink:href="#LiberationSans-Bold-67" transform="translate(1331.892578 0)"/>
     <use xlink:href="#LiberationSans-Bold-68" transform="translate(1392.976562 0)"/>
     <use xlink:href="#LiberationSans-Bold-74" transform="translate(1454.060547 0)"/>
    </g>
   </g>
   <g id="line2d_65">
    <g clip-path="url(#pf53cdb83f6)">
     <use xlink:href="#macef2559f2" x="685.835938" y="198.594937" style="fill: #ff0000; stroke: #8b0000; stroke-width: 2"/>
    </g>
   </g>
   <g id="legend_2">
    <g id="line2d_66">
     <path d="M 833.295469 48.152625 
L 842.295469 48.152625 
L 851.295469 48.152625 
" style="fill: none; stroke-dasharray: 7.4,3.2; stroke-dashoffset: 0; stroke: #1565c0; stroke-opacity: 0.6; stroke-width: 2"/>
    </g>
    <g id="text_40">
     <!-- Execution Constraint (slack) -->
     <g style="fill: #262626" transform="translate(858.495469 51.302625) scale(0.09 -0.09)">
      <use xlink:href="#LiberationSans-45"/>
      <use xlink:href="#LiberationSans-78" transform="translate(66.699219 0)"/>
      <use xlink:href="#LiberationSans-65" transform="translate(116.699219 0)"/>
      <use xlink:href="#LiberationSans-63" transform="translate(172.314453 0)"/>
      <use xlink:href="#LiberationSans-75" transform="translate(222.314453 0)"/>
      <use xlink:href="#LiberationSans-74" transform="translate(277.929688 0)"/>
      <use xlink:href="#LiberationSans-69" transform="translate(305.712891 0)"/>
      <use xlink:href="#LiberationSans-6f" transform="translate(327.929688 0)"/>
      <use xlink:href="#LiberationSans-6e" transform="translate(383.544922 0)"/>
      <use xlink:href="#LiberationSans-20" transform="translate(439.160156 0)"/>
      <use xlink:href="#LiberationSans-43" transform="translate(466.943359 0)"/>
      <use xlink:href="#LiberationSans-6f" transform="translate(539.160156 0)"/>
      <use xlink:href="#LiberationSans-6e" transform="translate(594.775391 0)"/>
      <use xlink:href="#LiberationSans-73" transform="translate(650.390625 0)"/>
      <use xlink:href="#LiberationSans-74" transform="translate(700.390625 0)"/>
      <use xlink:href="#LiberationSans-72" transform="translate(728.173828 0)"/>
      <use xlink:href="#LiberationSans-61" transform="translate(761.474609 0)"/>
      <use xlink:href="#LiberationSans-69" transform="translate(817.089844 0)"/>
      <use xlink:href="#LiberationSans-6e" transform="translate(839.306641 0)"/>
      <use xlink:href="#LiberationSans-74" transform="translate(894.921875 0)"/>
      <use xlink:href="#LiberationSans-20" transform="translate(922.705078 0)"/>
      <use xlink:href="#LiberationSans-28" transform="translate(950.488281 0)"/>
      <use xlink:href="#LiberationSans-73" transform="translate(983.789062 0)"/>
      <use xlink:href="#LiberationSans-6c" transform="translate(1033.789062 0)"/>
      <use xlink:href="#LiberationSans-61" transform="translate(1056.005859 0)"/>
      <use xlink:href="#LiberationSans-63" transform="translate(1111.621094 0)"/>
      <use xlink:href="#LiberationSans-6b" transform="translate(1161.621094 0)"/>
      <use xlink:href="#LiberationSans-29" transform="translate(1211.621094 0)"/>
     </g>
    </g>
    <g id="line2d_67">
     <path d="M 833.295469 61.042312 
L 842.295469 61.042312 
L 851.295469 61.042312 
" style="fill: none; stroke: #ef6c00; stroke-width: 2.5; stroke-linecap: round"/>
    </g>
    <g id="text_41">
     <!-- Governance Constraint (tight) -->
     <g style="fill: #262626" transform="translate(858.495469 64.192312) scale(0.09 -0.09)">
      <use xlink:href="#LiberationSans-47"/>
      <use xlink:href="#LiberationSans-6f" transform="translate(77.783203 0)"/>
      <use xlink:href="#LiberationSans-76" transform="translate(133.398438 0)"/>
      <use xlink:href="#LiberationSans-65" transform="translate(183.398438 0)"/>
      <use xlink:href="#LiberationSans-72" transform="translate(239.013672 0)"/>
      <use xlink:href="#LiberationSans-6e" transform="translate(272.314453 0)"/>
      <use xlink:href="#LiberationSans-61" transform="translate(327.929688 0)"/>
      <use xlink:href="#LiberationSans-6e" transform="translate(383.544922 0)"/>
      <use xlink:href="#LiberationSans-63" transform="translate(439.160156 0)"/>
      <use xlink:href="#LiberationSans-65" transform="translate(489.160156 0)"/>
      <use xlink:href="#LiberationSans-20" transform="translate(544.775391 0)"/>
      <use xlink:href="#LiberationSans-43" transform="translate(572.558594 0)"/>
      <use xlink:href="#LiberationSans-6f" transform="translate(644.775391 0)"/>
      <use xlink:href="#LiberationSans-6e" transform="translate(700.390625 0)"/>
      <use xlink:href="#LiberationSans-73" transform="translate(756.005859 0)"/>
      <use xlink:href="#LiberationSans-74" transform="translate(806.005859 0)"/>
      <use xlink:href="#LiberationSans-72" transform="translate(833.789062 0)"/>
      <use xlink:href="#LiberationSans-61" transform="translate(867.089844 0)"/>
      <use xlink:href="#LiberationSans-69" transform="translate(922.705078 0)"/>
      <use xlink:href="#LiberationSans-6e" transform="translate(944.921875 0)"/>
      <use xlink:href="#LiberationSans-74" transform="translate(1000.537109 0)"/>
      <use xlink:href="#LiberationSans-20" transform="translate(1028.320312 0)"/>
      <use xlink:href="#LiberationSans-28" transform="translate(1056.103516 0)"/>
      <use xlink:href="#LiberationSans-74" transform="translate(1089.404297 0)"/>
      <use xlink:href="#LiberationSans-69" transform="translate(1117.1875 0)"/>
      <use xlink:href="#LiberationSans-67" transform="translate(1139.404297 0)"/>
      <use xlink:href="#LiberationSans-68" transform="translate(1195.019531 0)"/>
      <use xlink:href="#LiberationSans-74" transform="translate(1250.634766 0)"/>
      <use xlink:href="#LiberationSans-29" transform="translate(1278.417969 0)"/>
     </g>
    </g>
    <g id="line2d_68">
     <g>
      <use xlink:href="#macef2559f2" x="842.295469" y="73.932" style="fill: #ff0000; stroke: #8b0000; stroke-width: 2"/>
     </g>
    </g>
    <g id="text_42">
     <!-- Optimal (on governance edge) -->
     <g style="fill: #262626" transform="translate(858.495469 77.082) scale(0.09 -0.09)">
      <use xlink:href="#LiberationSans-4f"/>
      <use xlink:href="#LiberationSans-70" transform="translate(77.783203 0)"/>
      <use xlink:href="#LiberationSans-74" transform="translate(133.398438 0)"/>
      <use xlink:href="#LiberationSans-69" transform="translate(161.181641 0)"/>
      <use xlink:href="#LiberationSans-6d" transform="translate(183.398438 0)"/>
      <use xlink:href="#LiberationSans-61" transform="translate(266.699219 0)"/>
      <use xlink:href="#LiberationSans-6c" transform="translate(322.314453 0)"/>
      <use xlink:href="#LiberationSans-20" transform="translate(344.53125 0)"/>
      <use xlink:href="#LiberationSans-28" transform="translate(372.314453 0)"/>
      <use xlink:href="#LiberationSans-6f" transform="translate(405.615234 0)"/>
      <use xlink:href="#LiberationSans-6e" transform="translate(461.230469 0)"/>
      <use xlink:href="#LiberationSans-20" transform="translate(516.845703 0)"/>
      <use xlink:href="#LiberationSans-67" transform="translate(544.628906 0)"/>
      <use xlink:href="#LiberationSans-6f" transform="translate(600.244141 0)"/>
      <use xlink:href="#LiberationSans-76" transform="translate(655.859375 0)"/>
      <use xlink:href="#LiberationSans-65" transform="translate(705.859375 0)"/>
      <use xlink:href="#LiberationSans-72" transform="translate(761.474609 0)"/>
      <use xlink:href="#LiberationSans-6e" transform="translate(794.775391 0)"/>
      <use xlink:href="#LiberationSans-61" transform="translate(850.390625 0)"/>
      <use xlink:href="#LiberationSans-6e" transform="translate(906.005859 0)"/>
      <use xlink:href="#LiberationSans-63" transform="translate(961.621094 0)"/>
      <use xlink:href="#LiberationSans-65" transform="translate(1011.621094 0)"/>
      <use xlink:href="#LiberationSans-20" transform="translate(1067.236328 0)"/>
      <use xlink:href="#LiberationSans-65" transform="translate(1095.019531 0)"/>
      <use xlink:href="#LiberationSans-64" transform="translate(1150.634766 0)"/>
      <use xlink:href="#LiberationSans-67" transform="translate(1206.25 0)"/>
      <use xlink:href="#LiberationSans-65" transform="translate(1261.865234 0)"/>
      <use xlink:href="#LiberationSans-29" transform="translate(1317.480469 0)"/>
     </g>
    </g>
   </g>
  </g>
 </g>
 <defs>
  <clipPath id="p2993c6db04">
   <rect x="36.075938" y="36.680437" width="453.48" height="353.268"/>
  </clipPath>
  <clipPath id="pf53cdb83f6">
   <rect x="534.675938" y="36.680437" width="453.48" height="353.268"/>
  </clipPath>
 </defs>
</svg>
