<?xml version="1.0" encoding="utf-8" standalone="no"?>
<!DOCTYPE svg PUBLIC "-//W3C//DTD SVG 1.1//EN"
  "http://www.w3.org/Graphics/SVG/1.1/DTD/svg11.dtd">
<svg xmlns:xlink="http://www.w3.org/1999/xlink" width="717.399724pt" height="423.145007pt" viewBox="0 0 717.399724 423.145007" xmlns="http://www.w3.org/2000/svg" version="1.1">
 <metadata>
  <rdf:RDF xmlns:dc="http://purl.org/dc/elements/1.1/" xmlns:cc="http://creativecommons.org/ns#" xmlns:rdf="http://www.w3.org/1999/02/22-rdf-syntax-ns#">
   <cc:Work>
    <dc:type rdf:resource="http://purl.org/dc/dcmitype/StillImage"/>
    <dc:date>2025-11-16T16:02:12.608608</dc:date>
    <dc:format>image/svg+xml</dc:format>
    <dc:creator>
     <cc:Agent>
      <dc:title>Matplotlib v3.10.7, https://matplotlib.org/</dc:title>
     </cc:Agent>
    </dc:creator>
   </cc:Work>
  </rdf:RDF>
 </metadata>
 <defs>
  <style type="text/css">*{stroke-linejoin: round; stroke-linecap: butt}</style>
 </defs>
 <g id="figure_1">
  <g id="patch_1">
   <path d="M 0 423.145007 
L 717.399724 423.145007 
L 717.399724 0 
L 0 0 
z
" style="fill: #ffffff"/>
  </g>
  <g id="axes_1">
   <g id="patch_2">
    <path d="M 80.441419 390.342569 
L 710.199724 390.342569 
L 710.199724 61.730569 
L 80.441419 61.730569 
z
" style="fill: #eaeaf2"/>
   </g>
   <g id="matplotlib.axis_1">
    <g id="xtick_1">
     <g id="line2d_1">
      <path d="M 163.222916 390.342569 
L 163.222916 61.730569 
" clip-path="url(#p3b4b9deb2d)" style="fill: none; stroke: #ffffff; stroke-width: 0.8; stroke-linecap: round"/>
     </g>
     <g id="line2d_2"/>
     <g id="text_1">
      <!-- Execution -->
      <g style="fill: #262626" transform="translate(139.070182 401.814132) scale(0.11 -0.11)">
       <defs>
        <path id="LiberationSans-45" d="M 525 0 
L 525 4403 
L 3866 4403 
L 3866 3916 
L 1122 3916 
L 1122 2503 
L 3678 2503 
L 3678 2022 
L 1122 2022 
L 1122 488 
L 3994 488 
L 3994 0 
L 525 0 
z
" transform="scale(0.015625)"/>
        <path id="LiberationSans-78" d="M 2503 0 
L 1594 1388 
L 678 0 
L 72 0 
L 1275 1738 
L 128 3381 
L 750 3381 
L 1594 2066 
L 2431 3381 
L 3059 3381 
L 1913 1744 
L 3131 0 
L 2503 0 
z
" transform="scale(0.015625)"/>
        <path id="LiberationSans-65" d="M 863 1572 
Q 863 991 1103 675 
Q 1344 359 1806 359 
Q 2172 359 2392 506 
Q 2613 653 2691 878 
L 3184 738 
Q 2881 -63 1806 -63 
Q 1056 -63 664 384 
Q 272 831 272 1713 
Q 272 2550 664 2997 
Q 1056 3444 1784 3444 
Q 3275 3444 3275 1647 
L 3275 1572 
L 863 1572 
z
M 2694 2003 
Q 2647 2538 2422 2783 
Q 2197 3028 1775 3028 
Q 1366 3028 1127 2754 
Q 888 2481 869 2003 
L 2694 2003 
z
" transform="scale(0.015625)"/>
        <path id="LiberationSans-63" d="M 859 1706 
Q 859 1031 1071 706 
Q 1284 381 1713 381 
Q 2013 381 2214 543 
Q 2416 706 2463 1044 
L 3031 1006 
Q 2966 519 2616 228 
Q 2266 -63 1728 -63 
Q 1019 -63 645 385 
Q 272 834 272 1694 
Q 272 2547 647 2995 
Q 1022 3444 1722 3444 
Q 2241 3444 2583 3175 
Q 2925 2906 3013 2434 
L 2434 2391 
Q 2391 2672 2212 2837 
Q 2034 3003 1706 3003 
Q 1259 3003 1059 2706 
Q 859 2409 859 1706 
z
" transform="scale(0.015625)"/>
        <path id="LiberationSans-75" d="M 981 3381 
L 981 1238 
Q 981 903 1047 718 
Q 1113 534 1256 453 
Q 1400 372 1678 372 
Q 2084 372 2318 650 
Q 2553 928 2553 1422 
L 2553 3381 
L 3116 3381 
L 3116 722 
Q 3116 131 3134 0 
L 2603 0 
Q 2600 16 2597 84 
Q 2594 153 2589 242 
Q 2584 331 2578 578 
L 2569 578 
Q 2375 228 2120 82 
Q 1866 -63 1488 -63 
Q 931 -63 673 214 
Q 416 491 416 1128 
L 416 3381 
L 981 3381 
z
" transform="scale(0.015625)"/>
        <path id="LiberationSans-74" d="M 1731 25 
Q 1453 -50 1163 -50 
Q 488 -50 488 716 
L 488 2972 
L 97 2972 
L 97 3381 
L 509 3381 
L 675 4138 
L 1050 4138 
L 1050 3381 
L 1675 3381 
L 1675 2972 
L 1050 2972 
L 1050 838 
Q 1050 594 1129 495 
Q 1209 397 1406 397 
Q 1519 397 1731 441 
L 1731 25 
z
" transform="scale(0.015625)"/>
        <path id="LiberationSans-69" d="M 428 4100 
L 428 4638 
L 991 4638 
L 991 4100 
L 428 4100 
z
M 428 0 
L 428 3381 
L 991 3381 
L 991 0 
L 428 0 
z
" transform="scale(0.015625)"/>
        <path id="LiberationSans-6f" d="M 3291 1694 
Q 3291 806 2900 371 
Q 2509 -63 1766 -63 
Q 1025 -63 647 389 
Q 269 841 269 1694 
Q 269 3444 1784 3444 
Q 2559 3444 2925 3017 
Q 3291 2591 3291 1694 
z
M 2700 1694 
Q 2700 2394 2492 2711 
Q 2284 3028 1794 3028 
Q 1300 3028 1079 2704 
Q 859 2381 859 1694 
Q 859 1025 1076 689 
Q 1294 353 1759 353 
Q 2266 353 2483 678 
Q 2700 1003 2700 1694 
z
" transform="scale(0.015625)"/>
        <path id="LiberationSans-6e" d="M 2578 0 
L 2578 2144 
Q 2578 2478 2512 2662 
Q 2447 2847 2303 2928 
Q 2159 3009 1881 3009 
Q 1475 3009 1240 2731 
Q 1006 2453 1006 1959 
L 1006 0 
L 444 0 
L 444 2659 
Q 444 3250 425 3381 
L 956 3381 
Q 959 3366 962 3297 
Q 966 3228 970 3139 
Q 975 3050 981 2803 
L 991 2803 
Q 1184 3153 1439 3298 
Q 1694 3444 2072 3444 
Q 2628 3444 2886 3167 
Q 3144 2891 3144 2253 
L 3144 0 
L 2578 0 
z
" transform="scale(0.015625)"/>
       </defs>
       <use xlink:href="#LiberationSans-45"/>
       <use xlink:href="#LiberationSans-78" transform="translate(66.699219 0)"/>
       <use xlink:href="#LiberationSans-65" transform="translate(116.699219 0)"/>
       <use xlink:href="#LiberationSans-63" transform="translate(172.314453 0)"/>
       <use xlink:href="#LiberationSans-75" transform="translate(222.314453 0)"/>
       <use xlink:href="#LiberationSans-74" transform="translate(277.929688 0)"/>
       <use xlink:href="#LiberationSans-69" transform="translate(305.712891 0)"/>
       <use xlink:href="#LiberationSans-6f" transform="translate(327.929688 0)"/>
       <use xlink:href="#LiberationSans-6e" transform="translate(383.544922 0)"/>
      </g>
      <!-- Capacity -->
      <g style="fill: #262626" transform="translate(141.825338 413.662507) scale(0.11 -0.11)">
       <defs>
        <path id="LiberationSans-43" d="M 2475 3981 
Q 1744 3981 1337 3511 
Q 931 3041 931 2222 
Q 931 1413 1354 920 
Q 1778 428 2500 428 
Q 3425 428 3891 1344 
L 4378 1100 
Q 4106 531 3614 234 
Q 3122 -63 2472 -63 
Q 1806 -63 1320 214 
Q 834 491 579 1005 
Q 325 1519 325 2222 
Q 325 3275 894 3872 
Q 1463 4469 2469 4469 
Q 3172 4469 3644 4194 
Q 4116 3919 4338 3378 
L 3772 3191 
Q 3619 3575 3280 3778 
Q 2941 3981 2475 3981 
z
" transform="scale(0.015625)"/>
        <path id="LiberationSans-61" d="M 1294 -63 
Q 784 -63 528 206 
Q 272 475 272 944 
Q 272 1469 617 1750 
Q 963 2031 1731 2050 
L 2491 2063 
L 2491 2247 
Q 2491 2659 2316 2837 
Q 2141 3016 1766 3016 
Q 1388 3016 1216 2887 
Q 1044 2759 1009 2478 
L 422 2531 
Q 566 3444 1778 3444 
Q 2416 3444 2737 3151 
Q 3059 2859 3059 2306 
L 3059 850 
Q 3059 600 3125 473 
Q 3191 347 3375 347 
Q 3456 347 3559 369 
L 3559 19 
Q 3347 -31 3125 -31 
Q 2813 -31 2670 133 
Q 2528 297 2509 647 
L 2491 647 
Q 2275 259 1989 98 
Q 1703 -63 1294 -63 
z
M 1422 359 
Q 1731 359 1972 500 
Q 2213 641 2352 886 
Q 2491 1131 2491 1391 
L 2491 1669 
L 1875 1656 
Q 1478 1650 1273 1575 
Q 1069 1500 959 1344 
Q 850 1188 850 934 
Q 850 659 998 509 
Q 1147 359 1422 359 
z
" transform="scale(0.015625)"/>
        <path id="LiberationSans-70" d="M 3291 1706 
Q 3291 -63 2047 -63 
Q 1266 -63 997 525 
L 981 525 
Q 994 500 994 -6 
L 994 -1328 
L 431 -1328 
L 431 2691 
Q 431 3213 413 3381 
L 956 3381 
Q 959 3369 965 3292 
Q 972 3216 980 3056 
Q 988 2897 988 2838 
L 1000 2838 
Q 1150 3150 1397 3295 
Q 1644 3441 2047 3441 
Q 2672 3441 2981 3022 
Q 3291 2603 3291 1706 
z
M 2700 1694 
Q 2700 2400 2509 2703 
Q 2319 3006 1903 3006 
Q 1569 3006 1380 2865 
Q 1191 2725 1092 2426 
Q 994 2128 994 1650 
Q 994 984 1206 668 
Q 1419 353 1897 353 
Q 2316 353 2508 661 
Q 2700 969 2700 1694 
z
" transform="scale(0.015625)"/>
        <path id="LiberationSans-79" d="M 597 -1328 
Q 366 -1328 209 -1294 
L 209 -872 
Q 328 -891 472 -891 
Q 997 -891 1303 -119 
L 1356 16 
L 16 3381 
L 616 3381 
L 1328 1513 
Q 1344 1469 1366 1408 
Q 1388 1347 1506 1000 
Q 1625 653 1634 613 
L 1853 1228 
L 2594 3381 
L 3188 3381 
L 1888 0 
Q 1678 -541 1497 -805 
Q 1316 -1069 1095 -1198 
Q 875 -1328 597 -1328 
z
" transform="scale(0.015625)"/>
       </defs>
       <use xlink:href="#LiberationSans-43"/>
       <use xlink:href="#LiberationSans-61" transform="translate(72.216797 0)"/>
       <use xlink:href="#LiberationSans-70" transform="translate(127.832031 0)"/>
       <use xlink:href="#LiberationSans-61" transform="translate(183.447266 0)"/>
       <use xlink:href="#LiberationSans-63" transform="translate(239.0625 0)"/>
       <use xlink:href="#LiberationSans-69" transform="translate(289.0625 0)"/>
       <use xlink:href="#LiberationSans-74" transform="translate(311.279297 0)"/>
       <use xlink:href="#LiberationSans-79" transform="translate(339.0625 0)"/>
      </g>
     </g>
    </g>
    <g id="xtick_2">
     <g id="line2d_3">
      <path d="M 317.954686 390.342569 
L 317.954686 61.730569 
" clip-path="url(#p3b4b9deb2d)" style="fill: none; stroke: #ffffff; stroke-width: 0.8; stroke-linecap: round"/>
     </g>
     <g id="line2d_4"/>
     <g id="text_2">
      <!-- Governance -->
      <g style="fill: #262626" transform="translate(287.994296 401.814132) scale(0.11 -0.11)">
       <defs>
        <path id="LiberationSans-47" d="M 322 2222 
Q 322 3294 897 3881 
Q 1472 4469 2513 4469 
Q 3244 4469 3700 4222 
Q 4156 3975 4403 3431 
L 3834 3263 
Q 3647 3638 3317 3809 
Q 2988 3981 2497 3981 
Q 1734 3981 1331 3520 
Q 928 3059 928 2222 
Q 928 1388 1356 905 
Q 1784 422 2541 422 
Q 2972 422 3345 553 
Q 3719 684 3950 909 
L 3950 1703 
L 2634 1703 
L 2634 2203 
L 4500 2203 
L 4500 684 
Q 4150 328 3642 132 
Q 3134 -63 2541 -63 
Q 1850 -63 1350 212 
Q 850 488 586 1005 
Q 322 1522 322 2222 
z
" transform="scale(0.015625)"/>
        <path id="LiberationSans-76" d="M 1916 0 
L 1250 0 
L 22 3381 
L 622 3381 
L 1366 1181 
Q 1406 1056 1581 441 
L 1691 806 
L 1813 1175 
L 2581 3381 
L 3178 3381 
L 1916 0 
z
" transform="scale(0.015625)"/>
        <path id="LiberationSans-72" d="M 444 0 
L 444 2594 
Q 444 2950 425 3381 
L 956 3381 
Q 981 2806 981 2691 
L 994 2691 
Q 1128 3125 1303 3284 
Q 1478 3444 1797 3444 
Q 1909 3444 2025 3413 
L 2025 2897 
Q 1913 2928 1725 2928 
Q 1375 2928 1190 2626 
Q 1006 2325 1006 1763 
L 1006 0 
L 444 0 
z
" transform="scale(0.015625)"/>
       </defs>
       <use xlink:href="#LiberationSans-47"/>
       <use xlink:href="#LiberationSans-6f" transform="translate(77.783203 0)"/>
       <use xlink:href="#LiberationSans-76" transform="translate(133.398438 0)"/>
       <use xlink:href="#LiberationSans-65" transform="translate(183.398438 0)"/>
       <use xlink:href="#LiberationSans-72" transform="translate(239.013672 0)"/>
       <use xlink:href="#LiberationSans-6e" transform="translate(272.314453 0)"/>
       <use xlink:href="#LiberationSans-61" transform="translate(327.929688 0)"/>
       <use xlink:href="#LiberationSans-6e" transform="translate(383.544922 0)"/>
       <use xlink:href="#LiberationSans-63" transform="translate(439.160156 0)"/>
       <use xlink:href="#LiberationSans-65" transform="translate(489.160156 0)"/>
      </g>
      <!-- Capacity -->
      <g style="fill: #262626" transform="translate(296.557108 413.662507) scale(0.11 -0.11)">
       <use xlink:href="#LiberationSans-43"/>
       <use xlink:href="#LiberationSans-61" transform="translate(72.216797 0)"/>
       <use xlink:href="#LiberationSans-70" transform="translate(127.832031 0)"/>
       <use xlink:href="#LiberationSans-61" transform="translate(183.447266 0)"/>
       <use xlink:href="#LiberationSans-63" transform="translate(239.0625 0)"/>
       <use xlink:href="#LiberationSans-69" transform="translate(289.0625 0)"/>
       <use xlink:href="#LiberationSans-74" transform="translate(311.279297 0)"/>
       <use xlink:href="#LiberationSans-79" transform="translate(339.0625 0)"/>
      </g>
     </g>
    </g>
    <g id="xtick_3">
     <g id="line2d_5">
      <path d="M 472.686457 390.342569 
L 472.686457 61.730569 
" clip-path="url(#p3b4b9deb2d)" style="fill: none; stroke: #ffffff; stroke-width: 0.8; stroke-linecap: round"/>
     </g>
     <g id="line2d_6"/>
     <g id="text_3">
      <!-- Quality -->
      <g style="fill: #262626" transform="translate(455.569425 401.814132) scale(0.11 -0.11)">
       <defs>
        <path id="LiberationSans-51" d="M 4672 2222 
Q 4672 1291 4203 691 
Q 3734 91 2900 -19 
Q 3028 -413 3236 -588 
Q 3444 -763 3763 -763 
Q 3934 -763 4122 -722 
L 4122 -1141 
Q 3831 -1209 3566 -1209 
Q 3094 -1209 2789 -942 
Q 2484 -675 2291 -50 
Q 1672 -19 1223 264 
Q 775 547 539 1051 
Q 303 1556 303 2222 
Q 303 3278 881 3873 
Q 1459 4469 2491 4469 
Q 3163 4469 3656 4201 
Q 4150 3934 4411 3425 
Q 4672 2916 4672 2222 
z
M 4063 2222 
Q 4063 3044 3652 3512 
Q 3241 3981 2491 3981 
Q 1734 3981 1321 3518 
Q 909 3056 909 2222 
Q 909 1394 1326 908 
Q 1744 422 2484 422 
Q 3247 422 3655 892 
Q 4063 1363 4063 2222 
z
" transform="scale(0.015625)"/>
        <path id="LiberationSans-6c" d="M 431 0 
L 431 4638 
L 994 4638 
L 994 0 
L 431 0 
z
" transform="scale(0.015625)"/>
       </defs>
       <use xlink:href="#LiberationSans-51"/>
       <use xlink:href="#LiberationSans-75" transform="translate(77.783203 0)"/>
       <use xlink:href="#LiberationSans-61" transform="translate(133.398438 0)"/>
       <use xlink:href="#LiberationSans-6c" transform="translate(189.013672 0)"/>
       <use xlink:href="#LiberationSans-69" transform="translate(211.230469 0)"/>
       <use xlink:href="#LiberationSans-74" transform="translate(233.447266 0)"/>
       <use xlink:href="#LiberationSans-79" transform="translate(261.230469 0)"/>
      </g>
      <!-- Threshold -->
      <g style="fill: #262626" transform="translate(448.231222 413.662507) scale(0.11 -0.11)">
       <defs>
        <path id="LiberationSans-54" d="M 2250 3916 
L 2250 0 
L 1656 0 
L 1656 3916 
L 144 3916 
L 144 4403 
L 3763 4403 
L 3763 3916 
L 2250 3916 
z
" transform="scale(0.015625)"/>
        <path id="LiberationSans-68" d="M 991 2803 
Q 1172 3134 1426 3289 
Q 1681 3444 2072 3444 
Q 2622 3444 2883 3170 
Q 3144 2897 3144 2253 
L 3144 0 
L 2578 0 
L 2578 2144 
Q 2578 2500 2512 2673 
Q 2447 2847 2297 2928 
Q 2147 3009 1881 3009 
Q 1484 3009 1245 2734 
Q 1006 2459 1006 1994 
L 1006 0 
L 444 0 
L 444 4638 
L 1006 4638 
L 1006 3431 
Q 1006 3241 995 3037 
Q 984 2834 981 2803 
L 991 2803 
z
" transform="scale(0.015625)"/>
        <path id="LiberationSans-73" d="M 2969 934 
Q 2969 456 2608 196 
Q 2247 -63 1597 -63 
Q 966 -63 623 145 
Q 281 353 178 794 
L 675 891 
Q 747 619 972 492 
Q 1197 366 1597 366 
Q 2025 366 2223 497 
Q 2422 628 2422 891 
Q 2422 1091 2284 1216 
Q 2147 1341 1841 1422 
L 1438 1528 
Q 953 1653 748 1773 
Q 544 1894 428 2066 
Q 313 2238 313 2488 
Q 313 2950 642 3192 
Q 972 3434 1603 3434 
Q 2163 3434 2492 3237 
Q 2822 3041 2909 2606 
L 2403 2544 
Q 2356 2769 2151 2889 
Q 1947 3009 1603 3009 
Q 1222 3009 1040 2893 
Q 859 2778 859 2544 
Q 859 2400 934 2306 
Q 1009 2213 1156 2147 
Q 1303 2081 1775 1966 
Q 2222 1853 2419 1758 
Q 2616 1663 2730 1547 
Q 2844 1431 2906 1279 
Q 2969 1128 2969 934 
z
" transform="scale(0.015625)"/>
        <path id="LiberationSans-64" d="M 2566 544 
Q 2409 219 2151 78 
Q 1894 -63 1513 -63 
Q 872 -63 570 368 
Q 269 800 269 1675 
Q 269 3444 1513 3444 
Q 1897 3444 2153 3303 
Q 2409 3163 2566 2856 
L 2572 2856 
L 2566 3234 
L 2566 4638 
L 3128 4638 
L 3128 697 
Q 3128 169 3147 0 
L 2609 0 
Q 2600 50 2589 231 
Q 2578 413 2578 544 
L 2566 544 
z
M 859 1694 
Q 859 984 1046 678 
Q 1234 372 1656 372 
Q 2134 372 2350 703 
Q 2566 1034 2566 1731 
Q 2566 2403 2350 2715 
Q 2134 3028 1663 3028 
Q 1238 3028 1048 2714 
Q 859 2400 859 1694 
z
" transform="scale(0.015625)"/>
       </defs>
       <use xlink:href="#LiberationSans-54"/>
       <use xlink:href="#LiberationSans-68" transform="translate(61.083984 0)"/>
       <use xlink:href="#LiberationSans-72" transform="translate(116.699219 0)"/>
       <use xlink:href="#LiberationSans-65" transform="translate(150 0)"/>
       <use xlink:href="#LiberationSans-73" transform="translate(205.615234 0)"/>
       <use xlink:href="#LiberationSans-68" transform="translate(255.615234 0)"/>
       <use xlink:href="#LiberationSans-6f" transform="translate(311.230469 0)"/>
       <use xlink:href="#LiberationSans-6c" transform="translate(366.845703 0)"/>
       <use xlink:href="#LiberationSans-64" transform="translate(389.0625 0)"/>
      </g>
     </g>
    </g>
    <g id="xtick_4">
     <g id="line2d_7">
      <path d="M 627.418227 390.342569 
L 627.418227 61.730569 
" clip-path="url(#p3b4b9deb2d)" style="fill: none; stroke: #ffffff; stroke-width: 0.8; stroke-linecap: round"/>
     </g>
     <g id="line2d_8"/>
     <g id="text_4">
      <!-- Scope -->
      <g style="fill: #262626" transform="translate(611.824008 401.814132) scale(0.11 -0.11)">
       <defs>
        <path id="LiberationSans-53" d="M 3975 1216 
Q 3975 606 3498 271 
Q 3022 -63 2156 -63 
Q 547 -63 291 1056 
L 869 1172 
Q 969 775 1294 589 
Q 1619 403 2178 403 
Q 2756 403 3070 601 
Q 3384 800 3384 1184 
Q 3384 1400 3286 1534 
Q 3188 1669 3009 1756 
Q 2831 1844 2584 1903 
Q 2338 1963 2038 2031 
Q 1516 2147 1245 2262 
Q 975 2378 819 2520 
Q 663 2663 580 2853 
Q 497 3044 497 3291 
Q 497 3856 930 4162 
Q 1363 4469 2169 4469 
Q 2919 4469 3316 4239 
Q 3713 4009 3872 3456 
L 3284 3353 
Q 3188 3703 2916 3861 
Q 2644 4019 2163 4019 
Q 1634 4019 1356 3844 
Q 1078 3669 1078 3322 
Q 1078 3119 1186 2986 
Q 1294 2853 1497 2761 
Q 1700 2669 2306 2534 
Q 2509 2488 2711 2439 
Q 2913 2391 3097 2323 
Q 3281 2256 3442 2165 
Q 3603 2075 3722 1944 
Q 3841 1813 3908 1634 
Q 3975 1456 3975 1216 
z
" transform="scale(0.015625)"/>
       </defs>
       <use xlink:href="#LiberationSans-53"/>
       <use xlink:href="#LiberationSans-63" transform="translate(66.699219 0)"/>
       <use xlink:href="#LiberationSans-6f" transform="translate(116.699219 0)"/>
       <use xlink:href="#LiberationSans-70" transform="translate(172.314453 0)"/>
       <use xlink:href="#LiberationSans-65" transform="translate(227.929688 0)"/>
      </g>
      <!-- Limits -->
      <g style="fill: #262626" transform="translate(613.056352 413.662507) scale(0.11 -0.11)">
       <defs>
        <path id="LiberationSans-4c" d="M 525 0 
L 525 4403 
L 1122 4403 
L 1122 488 
L 3347 488 
L 3347 0 
L 525 0 
z
" transform="scale(0.015625)"/>
        <path id="LiberationSans-6d" d="M 2400 0 
L 2400 2144 
Q 2400 2634 2265 2821 
Q 2131 3009 1781 3009 
Q 1422 3009 1212 2734 
Q 1003 2459 1003 1959 
L 1003 0 
L 444 0 
L 444 2659 
Q 444 3250 425 3381 
L 956 3381 
Q 959 3366 962 3297 
Q 966 3228 970 3139 
Q 975 3050 981 2803 
L 991 2803 
Q 1172 3163 1406 3303 
Q 1641 3444 1978 3444 
Q 2363 3444 2586 3291 
Q 2809 3138 2897 2803 
L 2906 2803 
Q 3081 3144 3329 3294 
Q 3578 3444 3931 3444 
Q 4444 3444 4676 3166 
Q 4909 2888 4909 2253 
L 4909 0 
L 4353 0 
L 4353 2144 
Q 4353 2634 4218 2821 
Q 4084 3009 3734 3009 
Q 3366 3009 3161 2736 
Q 2956 2463 2956 1959 
L 2956 0 
L 2400 0 
z
" transform="scale(0.015625)"/>
       </defs>
       <use xlink:href="#LiberationSans-4c"/>
       <use xlink:href="#LiberationSans-69" transform="translate(55.615234 0)"/>
       <use xlink:href="#LiberationSans-6d" transform="translate(77.832031 0)"/>
       <use xlink:href="#LiberationSans-69" transform="translate(161.132812 0)"/>
       <use xlink:href="#LiberationSans-74" transform="translate(183.349609 0)"/>
       <use xlink:href="#LiberationSans-73" transform="translate(211.132812 0)"/>
      </g>
     </g>
    </g>
   </g>
   <g id="matplotlib.axis_2">
    <g id="ytick_1">
     <g id="line2d_9">
      <path d="M 80.441419 390.342569 
L 710.199724 390.342569 
" clip-path="url(#p3b4b9deb2d)" style="fill: none; stroke: #ffffff; stroke-opacity: 0.3; stroke-width: 0.8; stroke-linecap: round"/>
     </g>
     <g id="line2d_10"/>
     <g id="text_5">
      <!-- 0 -->
      <g style="fill: #262626" transform="translate(71.380482 393.966007) scale(0.1 -0.1)">
       <defs>
        <path id="LiberationSans-30" d="M 3309 2203 
Q 3309 1100 2920 518 
Q 2531 -63 1772 -63 
Q 1013 -63 631 515 
Q 250 1094 250 2203 
Q 250 3338 620 3903 
Q 991 4469 1791 4469 
Q 2569 4469 2939 3897 
Q 3309 3325 3309 2203 
z
M 2738 2203 
Q 2738 3156 2517 3584 
Q 2297 4013 1791 4013 
Q 1272 4013 1045 3591 
Q 819 3169 819 2203 
Q 819 1266 1048 831 
Q 1278 397 1778 397 
Q 2275 397 2506 840 
Q 2738 1284 2738 2203 
z
" transform="scale(0.015625)"/>
       </defs>
       <use xlink:href="#LiberationSans-30"/>
      </g>
     </g>
    </g>
    <g id="ytick_2">
     <g id="line2d_11">
      <path d="M 80.441419 338.181935 
L 710.199724 338.181935 
" clip-path="url(#p3b4b9deb2d)" style="fill: none; stroke: #ffffff; stroke-opacity: 0.3; stroke-width: 0.8; stroke-linecap: round"/>
     </g>
     <g id="line2d_12"/>
     <g id="text_6">
      <!-- 10 -->
      <g style="fill: #262626" transform="translate(65.819544 341.805372) scale(0.1 -0.1)">
       <defs>
        <path id="LiberationSans-31" d="M 488 0 
L 488 478 
L 1609 478 
L 1609 3866 
L 616 3156 
L 616 3688 
L 1656 4403 
L 2175 4403 
L 2175 478 
L 3247 478 
L 3247 0 
L 488 0 
z
" transform="scale(0.015625)"/>
       </defs>
       <use xlink:href="#LiberationSans-31"/>
       <use xlink:href="#LiberationSans-30" transform="translate(55.615234 0)"/>
      </g>
     </g>
    </g>
    <g id="ytick_3">
     <g id="line2d_13">
      <path d="M 80.441419 286.0213 
L 710.199724 286.0213 
" clip-path="url(#p3b4b9deb2d)" style="fill: none; stroke: #ffffff; stroke-opacity: 0.3; stroke-width: 0.8; stroke-linecap: round"/>
     </g>
     <g id="line2d_14"/>
     <g id="text_7">
      <!-- 20 -->
      <g style="fill: #262626" transform="translate(65.819544 289.644737) scale(0.1 -0.1)">
       <defs>
        <path id="LiberationSans-32" d="M 322 0 
L 322 397 
Q 481 763 711 1042 
Q 941 1322 1194 1548 
Q 1447 1775 1695 1969 
Q 1944 2163 2144 2356 
Q 2344 2550 2467 2762 
Q 2591 2975 2591 3244 
Q 2591 3606 2378 3806 
Q 2166 4006 1788 4006 
Q 1428 4006 1195 3811 
Q 963 3616 922 3263 
L 347 3316 
Q 409 3844 795 4156 
Q 1181 4469 1788 4469 
Q 2453 4469 2811 4155 
Q 3169 3841 3169 3263 
Q 3169 3006 3051 2753 
Q 2934 2500 2703 2247 
Q 2472 1994 1819 1463 
Q 1459 1169 1246 933 
Q 1034 697 941 478 
L 3238 478 
L 3238 0 
L 322 0 
z
" transform="scale(0.015625)"/>
       </defs>
       <use xlink:href="#LiberationSans-32"/>
       <use xlink:href="#LiberationSans-30" transform="translate(55.615234 0)"/>
      </g>
     </g>
    </g>
    <g id="ytick_4">
     <g id="line2d_15">
      <path d="M 80.441419 233.860665 
L 710.199724 233.860665 
" clip-path="url(#p3b4b9deb2d)" style="fill: none; stroke: #ffffff; stroke-opacity: 0.3; stroke-width: 0.8; stroke-linecap: round"/>
     </g>
     <g id="line2d_16"/>
     <g id="text_8">
      <!-- 30 -->
      <g style="fill: #262626" transform="translate(65.819544 237.484102) scale(0.1 -0.1)">
       <defs>
        <path id="LiberationSans-33" d="M 3278 1216 
Q 3278 606 2890 271 
Q 2503 -63 1784 -63 
Q 1116 -63 717 239 
Q 319 541 244 1131 
L 825 1184 
Q 938 403 1784 403 
Q 2209 403 2451 612 
Q 2694 822 2694 1234 
Q 2694 1594 2417 1795 
Q 2141 1997 1619 1997 
L 1300 1997 
L 1300 2484 
L 1606 2484 
Q 2069 2484 2323 2686 
Q 2578 2888 2578 3244 
Q 2578 3597 2370 3801 
Q 2163 4006 1753 4006 
Q 1381 4006 1151 3815 
Q 922 3625 884 3278 
L 319 3322 
Q 381 3863 767 4166 
Q 1153 4469 1759 4469 
Q 2422 4469 2789 4161 
Q 3156 3853 3156 3303 
Q 3156 2881 2920 2617 
Q 2684 2353 2234 2259 
L 2234 2247 
Q 2728 2194 3003 1916 
Q 3278 1638 3278 1216 
z
" transform="scale(0.015625)"/>
       </defs>
       <use xlink:href="#LiberationSans-33"/>
       <use xlink:href="#LiberationSans-30" transform="translate(55.615234 0)"/>
      </g>
     </g>
    </g>
    <g id="ytick_5">
     <g id="line2d_17">
      <path d="M 80.441419 181.70003 
L 710.199724 181.70003 
" clip-path="url(#p3b4b9deb2d)" style="fill: none; stroke: #ffffff; stroke-opacity: 0.3; stroke-width: 0.8; stroke-linecap: round"/>
     </g>
     <g id="line2d_18"/>
     <g id="text_9">
      <!-- 40 -->
      <g style="fill: #262626" transform="translate(65.819544 185.323467) scale(0.1 -0.1)">
       <defs>
        <path id="LiberationSans-34" d="M 2753 997 
L 2753 0 
L 2222 0 
L 2222 997 
L 147 997 
L 147 1434 
L 2163 4403 
L 2753 4403 
L 2753 1441 
L 3372 1441 
L 3372 997 
L 2753 997 
z
M 2222 3769 
Q 2216 3750 2134 3603 
Q 2053 3456 2013 3397 
L 884 1734 
L 716 1503 
L 666 1441 
L 2222 1441 
L 2222 3769 
z
" transform="scale(0.015625)"/>
       </defs>
       <use xlink:href="#LiberationSans-34"/>
       <use xlink:href="#LiberationSans-30" transform="translate(55.615234 0)"/>
      </g>
     </g>
    </g>
    <g id="ytick_6">
     <g id="line2d_19">
      <path d="M 80.441419 129.539395 
L 710.199724 129.539395 
" clip-path="url(#p3b4b9deb2d)" style="fill: none; stroke: #ffffff; stroke-opacity: 0.3; stroke-width: 0.8; stroke-linecap: round"/>
     </g>
     <g id="line2d_20"/>
     <g id="text_10">
      <!-- 50 -->
      <g style="fill: #262626" transform="translate(65.819544 133.162832) scale(0.1 -0.1)">
       <defs>
        <path id="LiberationSans-35" d="M 3291 1434 
Q 3291 738 2877 337 
Q 2463 -63 1728 -63 
Q 1113 -63 734 206 
Q 356 475 256 984 
L 825 1050 
Q 1003 397 1741 397 
Q 2194 397 2450 670 
Q 2706 944 2706 1422 
Q 2706 1838 2448 2094 
Q 2191 2350 1753 2350 
Q 1525 2350 1328 2278 
Q 1131 2206 934 2034 
L 384 2034 
L 531 4403 
L 3034 4403 
L 3034 3925 
L 1044 3925 
L 959 2528 
Q 1325 2809 1869 2809 
Q 2519 2809 2905 2428 
Q 3291 2047 3291 1434 
z
" transform="scale(0.015625)"/>
       </defs>
       <use xlink:href="#LiberationSans-35"/>
       <use xlink:href="#LiberationSans-30" transform="translate(55.615234 0)"/>
      </g>
     </g>
    </g>
    <g id="ytick_7">
     <g id="line2d_21">
      <path d="M 80.441419 77.37876 
L 710.199724 77.37876 
" clip-path="url(#p3b4b9deb2d)" style="fill: none; stroke: #ffffff; stroke-opacity: 0.3; stroke-width: 0.8; stroke-linecap: round"/>
     </g>
     <g id="line2d_22"/>
     <g id="text_11">
      <!-- 60 -->
      <g style="fill: #262626" transform="translate(65.819544 81.002197) scale(0.1 -0.1)">
       <defs>
        <path id="LiberationSans-36" d="M 3278 1441 
Q 3278 744 2900 340 
Q 2522 -63 1856 -63 
Q 1113 -63 719 490 
Q 325 1044 325 2100 
Q 325 3244 734 3856 
Q 1144 4469 1900 4469 
Q 2897 4469 3156 3572 
L 2619 3475 
Q 2453 4013 1894 4013 
Q 1413 4013 1148 3564 
Q 884 3116 884 2266 
Q 1038 2550 1316 2698 
Q 1594 2847 1953 2847 
Q 2563 2847 2920 2465 
Q 3278 2084 3278 1441 
z
M 2706 1416 
Q 2706 1894 2472 2153 
Q 2238 2413 1819 2413 
Q 1425 2413 1183 2183 
Q 941 1953 941 1550 
Q 941 1041 1192 716 
Q 1444 391 1838 391 
Q 2244 391 2475 664 
Q 2706 938 2706 1416 
z
" transform="scale(0.015625)"/>
       </defs>
       <use xlink:href="#LiberationSans-36"/>
       <use xlink:href="#LiberationSans-30" transform="translate(55.615234 0)"/>
      </g>
     </g>
    </g>
    <g id="text_12">
     <!-- Shadow Price ($/unit) -->
     <g style="fill: #262626" transform="translate(59.329544 287.040632) rotate(-90) scale(0.12 -0.12)">
      <defs>
       <path id="LiberationSans-Bold-53" d="M 4019 1269 
Q 4019 622 3539 279 
Q 3059 -63 2131 -63 
Q 1284 -63 803 237 
Q 322 538 184 1147 
L 1075 1294 
Q 1166 944 1428 786 
Q 1691 628 2156 628 
Q 3122 628 3122 1216 
Q 3122 1403 3011 1525 
Q 2900 1647 2698 1728 
Q 2497 1809 1925 1925 
Q 1431 2041 1237 2111 
Q 1044 2181 887 2276 
Q 731 2372 622 2506 
Q 513 2641 452 2822 
Q 391 3003 391 3238 
Q 391 3834 839 4151 
Q 1288 4469 2144 4469 
Q 2963 4469 3373 4212 
Q 3784 3956 3903 3366 
L 3009 3244 
Q 2941 3528 2730 3672 
Q 2519 3816 2125 3816 
Q 1288 3816 1288 3291 
Q 1288 3119 1377 3009 
Q 1466 2900 1641 2823 
Q 1816 2747 2350 2631 
Q 2984 2497 3257 2383 
Q 3531 2269 3690 2117 
Q 3850 1966 3934 1755 
Q 4019 1544 4019 1269 
z
" transform="scale(0.015625)"/>
       <path id="LiberationSans-Bold-68" d="M 1313 2706 
Q 1491 3094 1759 3269 
Q 2028 3444 2400 3444 
Q 2938 3444 3225 3112 
Q 3513 2781 3513 2144 
L 3513 0 
L 2638 0 
L 2638 1894 
Q 2638 2784 2034 2784 
Q 1716 2784 1520 2511 
Q 1325 2238 1325 1809 
L 1325 0 
L 447 0 
L 447 4638 
L 1325 4638 
L 1325 3372 
Q 1325 3031 1300 2706 
L 1313 2706 
z
" transform="scale(0.015625)"/>
       <path id="LiberationSans-Bold-61" d="M 1228 -63 
Q 738 -63 463 204 
Q 188 472 188 956 
Q 188 1481 530 1756 
Q 872 2031 1522 2038 
L 2250 2050 
L 2250 2222 
Q 2250 2553 2134 2714 
Q 2019 2875 1756 2875 
Q 1513 2875 1398 2764 
Q 1284 2653 1256 2397 
L 341 2441 
Q 425 2934 792 3189 
Q 1159 3444 1794 3444 
Q 2434 3444 2781 3128 
Q 3128 2813 3128 2231 
L 3128 1000 
Q 3128 716 3192 608 
Q 3256 500 3406 500 
Q 3506 500 3600 519 
L 3600 44 
Q 3522 25 3459 9 
Q 3397 -6 3334 -15 
Q 3272 -25 3201 -31 
Q 3131 -38 3038 -38 
Q 2706 -38 2548 125 
Q 2391 288 2359 603 
L 2341 603 
Q 1972 -63 1228 -63 
z
M 2250 1566 
L 1800 1559 
Q 1494 1547 1366 1492 
Q 1238 1438 1170 1325 
Q 1103 1213 1103 1025 
Q 1103 784 1214 667 
Q 1325 550 1509 550 
Q 1716 550 1886 662 
Q 2056 775 2153 973 
Q 2250 1172 2250 1394 
L 2250 1566 
z
" transform="scale(0.015625)"/>
       <path id="LiberationSans-Bold-64" d="M 2638 0 
Q 2625 47 2608 236 
Q 2591 425 2591 550 
L 2578 550 
Q 2294 -63 1497 -63 
Q 906 -63 584 398 
Q 263 859 263 1688 
Q 263 2528 602 2986 
Q 941 3444 1563 3444 
Q 1922 3444 2183 3294 
Q 2444 3144 2584 2847 
L 2591 2847 
L 2584 3403 
L 2584 4638 
L 3463 4638 
L 3463 738 
Q 3463 425 3488 0 
L 2638 0 
z
M 2597 1709 
Q 2597 2256 2414 2551 
Q 2231 2847 1875 2847 
Q 1522 2847 1350 2561 
Q 1178 2275 1178 1688 
Q 1178 538 1869 538 
Q 2216 538 2406 842 
Q 2597 1147 2597 1709 
z
" transform="scale(0.015625)"/>
       <path id="LiberationSans-Bold-6f" d="M 3659 1694 
Q 3659 872 3203 404 
Q 2747 -63 1941 -63 
Q 1150 -63 700 406 
Q 250 875 250 1694 
Q 250 2509 700 2976 
Q 1150 3444 1959 3444 
Q 2788 3444 3223 2992 
Q 3659 2541 3659 1694 
z
M 2741 1694 
Q 2741 2297 2544 2569 
Q 2347 2841 1972 2841 
Q 1172 2841 1172 1694 
Q 1172 1128 1367 833 
Q 1563 538 1931 538 
Q 2741 538 2741 1694 
z
" transform="scale(0.015625)"/>
       <path id="LiberationSans-Bold-77" d="M 4103 0 
L 3175 0 
L 2638 2063 
Q 2600 2203 2491 2756 
L 2328 2056 
L 1784 0 
L 856 0 
L -19 3381 
L 806 3381 
L 1363 797 
L 1406 1028 
L 1484 1394 
L 2016 3381 
L 2956 3381 
L 3475 1394 
Q 3519 1231 3603 797 
L 3691 1209 
L 4178 3381 
L 4991 3381 
L 4103 0 
z
" transform="scale(0.015625)"/>
       <path id="LiberationSans-Bold-20" transform="scale(0.015625)"/>
       <path id="LiberationSans-Bold-50" d="M 4050 3009 
Q 4050 2584 3856 2250 
Q 3663 1916 3302 1733 
Q 2941 1550 2444 1550 
L 1350 1550 
L 1350 0 
L 428 0 
L 428 4403 
L 2406 4403 
Q 3197 4403 3623 4039 
Q 4050 3675 4050 3009 
z
M 3122 2994 
Q 3122 3688 2303 3688 
L 1350 3688 
L 1350 2259 
L 2328 2259 
Q 2709 2259 2915 2448 
Q 3122 2638 3122 2994 
z
" transform="scale(0.015625)"/>
       <path id="LiberationSans-Bold-72" d="M 447 0 
L 447 2588 
Q 447 2866 439 3052 
Q 431 3238 422 3381 
L 1259 3381 
Q 1269 3325 1284 3039 
Q 1300 2753 1300 2659 
L 1313 2659 
Q 1441 3016 1541 3161 
Q 1641 3306 1778 3376 
Q 1916 3447 2122 3447 
Q 2291 3447 2394 3400 
L 2394 2666 
Q 2181 2713 2019 2713 
Q 1691 2713 1508 2447 
Q 1325 2181 1325 1659 
L 1325 0 
L 447 0 
z
" transform="scale(0.015625)"/>
       <path id="LiberationSans-Bold-69" d="M 447 3991 
L 447 4638 
L 1325 4638 
L 1325 3991 
L 447 3991 
z
M 447 0 
L 447 3381 
L 1325 3381 
L 1325 0 
L 447 0 
z
" transform="scale(0.015625)"/>
       <path id="LiberationSans-Bold-63" d="M 1856 -63 
Q 1088 -63 669 395 
Q 250 853 250 1672 
Q 250 2509 672 2976 
Q 1094 3444 1869 3444 
Q 2466 3444 2856 3144 
Q 3247 2844 3347 2316 
L 2463 2272 
Q 2425 2531 2275 2686 
Q 2125 2841 1850 2841 
Q 1172 2841 1172 1706 
Q 1172 538 1863 538 
Q 2113 538 2281 695 
Q 2450 853 2491 1166 
L 3372 1125 
Q 3325 778 3123 506 
Q 2922 234 2594 85 
Q 2266 -63 1856 -63 
z
" transform="scale(0.015625)"/>
       <path id="LiberationSans-Bold-65" d="M 1831 -63 
Q 1069 -63 659 389 
Q 250 841 250 1706 
Q 250 2544 665 2994 
Q 1081 3444 1844 3444 
Q 2572 3444 2956 2961 
Q 3341 2478 3341 1547 
L 3341 1522 
L 1172 1522 
Q 1172 1028 1355 776 
Q 1538 525 1875 525 
Q 2341 525 2463 928 
L 3291 856 
Q 2931 -63 1831 -63 
z
M 1831 2891 
Q 1522 2891 1355 2675 
Q 1188 2459 1178 2072 
L 2491 2072 
Q 2466 2481 2294 2686 
Q 2122 2891 1831 2891 
z
" transform="scale(0.015625)"/>
       <path id="LiberationSans-Bold-28" d="M 1247 -1328 
Q 756 -622 537 81 
Q 319 784 319 1659 
Q 319 2531 537 3232 
Q 756 3934 1247 4638 
L 2125 4638 
Q 1631 3925 1407 3219 
Q 1184 2513 1184 1656 
Q 1184 803 1406 101 
Q 1628 -600 2125 -1328 
L 1247 -1328 
z
" transform="scale(0.015625)"/>
       <path id="LiberationSans-Bold-24" d="M 3469 1288 
Q 3469 722 3089 411 
Q 2709 100 1966 72 
L 1966 -475 
L 1625 -475 
L 1625 63 
Q 953 88 578 380 
Q 203 672 84 1275 
L 884 1422 
Q 944 1069 1120 905 
Q 1297 741 1625 709 
L 1625 1931 
Q 1616 1938 1578 1945 
Q 1541 1953 1528 1953 
Q 1022 2069 764 2226 
Q 506 2384 365 2626 
Q 225 2869 225 3219 
Q 225 3738 583 4022 
Q 941 4306 1625 4331 
L 1625 4750 
L 1966 4750 
L 1966 4331 
Q 2375 4316 2648 4202 
Q 2922 4088 3089 3867 
Q 3256 3647 3359 3238 
L 2534 3116 
Q 2488 3388 2352 3536 
Q 2216 3684 1966 3719 
L 1966 2619 
L 2000 2613 
Q 2091 2613 2552 2463 
Q 3013 2313 3241 2020 
Q 3469 1728 3469 1288 
z
M 1625 3731 
Q 1044 3688 1044 3231 
Q 1044 3094 1092 3003 
Q 1141 2913 1233 2853 
Q 1325 2794 1625 2694 
L 1625 3731 
z
M 2656 1275 
Q 2656 1431 2600 1529 
Q 2544 1628 2436 1690 
Q 2328 1753 1966 1856 
L 1966 709 
Q 2656 756 2656 1275 
z
" transform="scale(0.015625)"/>
       <path id="LiberationSans-Bold-2f" d="M 63 -128 
L 972 4638 
L 1716 4638 
L 822 -128 
L 63 -128 
z
" transform="scale(0.015625)"/>
       <path id="LiberationSans-Bold-75" d="M 1275 3381 
L 1275 1484 
Q 1275 594 1875 594 
Q 2194 594 2389 867 
Q 2584 1141 2584 1569 
L 2584 3381 
L 3463 3381 
L 3463 756 
Q 3463 325 3488 0 
L 2650 0 
Q 2613 450 2613 672 
L 2597 672 
Q 2422 288 2151 112 
Q 1881 -63 1509 -63 
Q 972 -63 684 267 
Q 397 597 397 1234 
L 397 3381 
L 1275 3381 
z
" transform="scale(0.015625)"/>
       <path id="LiberationSans-Bold-6e" d="M 2638 0 
L 2638 1897 
Q 2638 2788 2034 2788 
Q 1716 2788 1520 2514 
Q 1325 2241 1325 1813 
L 1325 0 
L 447 0 
L 447 2625 
Q 447 2897 439 3070 
Q 431 3244 422 3381 
L 1259 3381 
Q 1269 3322 1284 3064 
Q 1300 2806 1300 2709 
L 1313 2709 
Q 1491 3097 1759 3272 
Q 2028 3447 2400 3447 
Q 2938 3447 3225 3115 
Q 3513 2784 3513 2147 
L 3513 0 
L 2638 0 
z
" transform="scale(0.015625)"/>
       <path id="LiberationSans-Bold-74" d="M 1313 -56 
Q 925 -56 715 155 
Q 506 366 506 794 
L 506 2788 
L 78 2788 
L 78 3381 
L 550 3381 
L 825 4175 
L 1375 4175 
L 1375 3381 
L 2016 3381 
L 2016 2788 
L 1375 2788 
L 1375 1031 
Q 1375 784 1469 667 
Q 1563 550 1759 550 
Q 1863 550 2053 594 
L 2053 50 
Q 1728 -56 1313 -56 
z
" transform="scale(0.015625)"/>
       <path id="LiberationSans-Bold-29" d="M 6 -1328 
Q 506 -597 726 101 
Q 947 800 947 1656 
Q 947 2516 722 3223 
Q 497 3931 6 4638 
L 884 4638 
Q 1378 3928 1595 3225 
Q 1813 2522 1813 1659 
Q 1813 791 1595 87 
Q 1378 -616 884 -1328 
L 6 -1328 
z
" transform="scale(0.015625)"/>
      </defs>
      <use xlink:href="#LiberationSans-Bold-53"/>
      <use xlink:href="#LiberationSans-Bold-68" transform="translate(66.699219 0)"/>
      <use xlink:href="#LiberationSans-Bold-61" transform="translate(127.783203 0)"/>
      <use xlink:href="#LiberationSans-Bold-64" transform="translate(183.398438 0)"/>
      <use xlink:href="#LiberationSans-Bold-6f" transform="translate(244.482422 0)"/>
      <use xlink:href="#LiberationSans-Bold-77" transform="translate(305.566406 0)"/>
      <use xlink:href="#LiberationSans-Bold-20" transform="translate(383.349609 0)"/>
      <use xlink:href="#LiberationSans-Bold-50" transform="translate(411.132812 0)"/>
      <use xlink:href="#LiberationSans-Bold-72" transform="translate(477.832031 0)"/>
      <use xlink:href="#LiberationSans-Bold-69" transform="translate(516.748047 0)"/>
      <use xlink:href="#LiberationSans-Bold-63" transform="translate(544.53125 0)"/>
      <use xlink:href="#LiberationSans-Bold-65" transform="translate(600.146484 0)"/>
      <use xlink:href="#LiberationSans-Bold-20" transform="translate(655.761719 0)"/>
      <use xlink:href="#LiberationSans-Bold-28" transform="translate(683.544922 0)"/>
      <use xlink:href="#LiberationSans-Bold-24" transform="translate(716.845703 0)"/>
      <use xlink:href="#LiberationSans-Bold-2f" transform="translate(772.460938 0)"/>
      <use xlink:href="#LiberationSans-Bold-75" transform="translate(800.244141 0)"/>
      <use xlink:href="#LiberationSans-Bold-6e" transform="translate(861.328125 0)"/>
      <use xlink:href="#LiberationSans-Bold-69" transform="translate(922.412109 0)"/>
      <use xlink:href="#LiberationSans-Bold-74" transform="translate(950.195312 0)"/>
      <use xlink:href="#LiberationSans-Bold-29" transform="translate(983.496094 0)"/>
     </g>
    </g>
   </g>
   <g id="patch_3">
    <path d="M 109.066797 390.342569 
L 163.222916 390.342569 
L 163.222916 155.619712 
L 109.066797 155.619712 
z
" clip-path="url(#p3b4b9deb2d)" style="fill: #1565c0; opacity: 0.8"/>
   </g>
   <g id="patch_4">
    <path d="M 263.798567 390.342569 
L 317.954686 390.342569 
L 317.954686 364.262252 
L 263.798567 364.262252 
z
" clip-path="url(#p3b4b9deb2d)" style="fill: #1565c0; opacity: 0.8"/>
   </g>
   <g id="patch_5">
    <path d="M 418.530337 390.342569 
L 472.686457 390.342569 
L 472.686457 348.614062 
L 418.530337 348.614062 
z
" clip-path="url(#p3b4b9deb2d)" style="fill: #1565c0; opacity: 0.8"/>
   </g>
   <g id="patch_6">
    <path d="M 573.262107 390.342569 
L 627.418227 390.342569 
L 627.418227 327.749808 
L 573.262107 327.749808 
z
" clip-path="url(#p3b4b9deb2d)" style="fill: #1565c0; opacity: 0.8"/>
   </g>
   <g id="patch_7">
    <path d="M 163.222916 390.342569 
L 217.379036 390.342569 
L 217.379036 374.694379 
L 163.222916 374.694379 
z
" clip-path="url(#p3b4b9deb2d)" style="fill: #ef6c00; opacity: 0.8"/>
   </g>
   <g id="patch_8">
    <path d="M 317.954686 390.342569 
L 372.110806 390.342569 
L 372.110806 77.37876 
L 317.954686 77.37876 
z
" clip-path="url(#p3b4b9deb2d)" style="fill: #ef6c00; opacity: 0.8"/>
   </g>
   <g id="patch_9">
    <path d="M 472.686457 390.342569 
L 526.842576 390.342569 
L 526.842576 312.101617 
L 472.686457 312.101617 
z
" clip-path="url(#p3b4b9deb2d)" style="fill: #ef6c00; opacity: 0.8"/>
   </g>
   <g id="patch_10">
    <path d="M 627.418227 390.342569 
L 681.574346 390.342569 
L 681.574346 338.181935 
L 627.418227 338.181935 
z
" clip-path="url(#p3b4b9deb2d)" style="fill: #ef6c00; opacity: 0.8"/>
   </g>
   <g id="patch_11">
    <path d="M 80.441419 390.342569 
L 80.441419 61.730569 
" style="fill: none"/>
   </g>
   <g id="patch_12">
    <path d="M 710.199724 390.342569 
L 710.199724 61.730569 
" style="fill: none"/>
   </g>
   <g id="patch_13">
    <path d="M 80.441419 390.342569 
L 710.199724 390.342569 
" style="fill: none"/>
   </g>
   <g id="patch_14">
    <path d="M 80.441419 61.730569 
L 710.199724 61.730569 
" style="fill: none"/>
   </g>
   <g id="text_13">
    <!-- $45 -->
    <g style="fill: #262626" transform="translate(128.637591 153.752212) scale(0.09 -0.09)">
     <defs>
      <path id="LiberationSans-Bold-34" d="M 2938 897 
L 2938 0 
L 2100 0 
L 2100 897 
L 97 897 
L 97 1556 
L 1956 4403 
L 2938 4403 
L 2938 1550 
L 3525 1550 
L 3525 897 
L 2938 897 
z
M 2100 2991 
Q 2100 3159 2111 3356 
Q 2122 3553 2128 3609 
Q 2047 3434 1834 3103 
L 813 1550 
L 2100 1550 
L 2100 2991 
z
" transform="scale(0.015625)"/>
      <path id="LiberationSans-Bold-35" d="M 3381 1466 
Q 3381 766 2945 351 
Q 2509 -63 1750 -63 
Q 1088 -63 689 235 
Q 291 534 197 1100 
L 1075 1172 
Q 1144 891 1319 762 
Q 1494 634 1759 634 
Q 2088 634 2283 843 
Q 2478 1053 2478 1447 
Q 2478 1794 2293 2001 
Q 2109 2209 1778 2209 
Q 1413 2209 1181 1925 
L 325 1925 
L 478 4403 
L 3125 4403 
L 3125 3750 
L 1275 3750 
L 1203 2638 
Q 1522 2919 2000 2919 
Q 2628 2919 3004 2528 
Q 3381 2138 3381 1466 
z
" transform="scale(0.015625)"/>
     </defs>
     <use xlink:href="#LiberationSans-Bold-24"/>
     <use xlink:href="#LiberationSans-Bold-34" transform="translate(55.615234 0)"/>
     <use xlink:href="#LiberationSans-Bold-35" transform="translate(111.230469 0)"/>
    </g>
   </g>
   <g id="text_14">
    <!-- $5 -->
    <g style="fill: #262626" transform="translate(285.871783 362.394752) scale(0.09 -0.09)">
     <use xlink:href="#LiberationSans-Bold-24"/>
     <use xlink:href="#LiberationSans-Bold-35" transform="translate(55.615234 0)"/>
    </g>
   </g>
   <g id="text_15">
    <!-- $8 -->
    <g style="fill: #262626" transform="translate(440.603553 346.746562) scale(0.09 -0.09)">
     <defs>
      <path id="LiberationSans-Bold-38" d="M 3363 1241 
Q 3363 622 2953 279 
Q 2544 -63 1784 -63 
Q 1031 -63 617 278 
Q 203 619 203 1234 
Q 203 1656 447 1945 
Q 691 2234 1100 2303 
L 1100 2316 
Q 744 2394 525 2669 
Q 306 2944 306 3303 
Q 306 3844 689 4156 
Q 1072 4469 1772 4469 
Q 2488 4469 2870 4164 
Q 3253 3859 3253 3297 
Q 3253 2938 3036 2666 
Q 2819 2394 2453 2322 
L 2453 2309 
Q 2878 2241 3120 1961 
Q 3363 1681 3363 1241 
z
M 2350 3250 
Q 2350 3563 2206 3708 
Q 2063 3853 1772 3853 
Q 1203 3853 1203 3250 
Q 1203 2619 1778 2619 
Q 2066 2619 2208 2766 
Q 2350 2913 2350 3250 
z
M 2453 1313 
Q 2453 2003 1766 2003 
Q 1447 2003 1276 1822 
Q 1106 1641 1106 1300 
Q 1106 913 1275 734 
Q 1444 556 1791 556 
Q 2131 556 2292 734 
Q 2453 913 2453 1313 
z
" transform="scale(0.015625)"/>
     </defs>
     <use xlink:href="#LiberationSans-Bold-24"/>
     <use xlink:href="#LiberationSans-Bold-38" transform="translate(55.615234 0)"/>
    </g>
   </g>
   <g id="text_16">
    <!-- $12 -->
    <g style="fill: #262626" transform="translate(592.832901 325.882308) scale(0.09 -0.09)">
     <defs>
      <path id="LiberationSans-Bold-31" d="M 403 0 
L 403 653 
L 1494 653 
L 1494 3656 
L 438 2997 
L 438 3688 
L 1541 4403 
L 2372 4403 
L 2372 653 
L 3381 653 
L 3381 0 
L 403 0 
z
" transform="scale(0.015625)"/>
      <path id="LiberationSans-Bold-32" d="M 222 0 
L 222 609 
Q 394 988 711 1347 
Q 1028 1706 1509 2097 
Q 1972 2472 2158 2715 
Q 2344 2959 2344 3194 
Q 2344 3769 1766 3769 
Q 1484 3769 1336 3617 
Q 1188 3466 1144 3163 
L 259 3213 
Q 334 3825 717 4147 
Q 1100 4469 1759 4469 
Q 2472 4469 2853 4144 
Q 3234 3819 3234 3231 
Q 3234 2922 3112 2672 
Q 2991 2422 2800 2211 
Q 2609 2000 2376 1815 
Q 2144 1631 1925 1456 
Q 1706 1281 1526 1103 
Q 1347 925 1259 722 
L 3303 722 
L 3303 0 
L 222 0 
z
" transform="scale(0.015625)"/>
     </defs>
     <use xlink:href="#LiberationSans-Bold-24"/>
     <use xlink:href="#LiberationSans-Bold-31" transform="translate(55.615234 0)"/>
     <use xlink:href="#LiberationSans-Bold-32" transform="translate(111.230469 0)"/>
    </g>
   </g>
   <g id="text_17">
    <!-- $3 -->
    <g style="fill: #262626" transform="translate(185.296132 372.826879) scale(0.09 -0.09)">
     <defs>
      <path id="LiberationSans-Bold-33" d="M 3328 1222 
Q 3328 603 2922 265 
Q 2516 -72 1766 -72 
Q 1056 -72 637 254 
Q 219 581 147 1197 
L 1041 1275 
Q 1125 641 1763 641 
Q 2078 641 2253 797 
Q 2428 953 2428 1275 
Q 2428 1569 2215 1725 
Q 2003 1881 1584 1881 
L 1278 1881 
L 1278 2591 
L 1566 2591 
Q 1944 2591 2134 2745 
Q 2325 2900 2325 3188 
Q 2325 3459 2173 3614 
Q 2022 3769 1731 3769 
Q 1459 3769 1292 3619 
Q 1125 3469 1100 3194 
L 222 3256 
Q 291 3825 694 4147 
Q 1097 4469 1747 4469 
Q 2438 4469 2827 4158 
Q 3216 3847 3216 3297 
Q 3216 2884 2973 2618 
Q 2731 2353 2275 2266 
L 2275 2253 
Q 2781 2194 3054 1920 
Q 3328 1647 3328 1222 
z
" transform="scale(0.015625)"/>
     </defs>
     <use xlink:href="#LiberationSans-Bold-24"/>
     <use xlink:href="#LiberationSans-Bold-33" transform="translate(55.615234 0)"/>
    </g>
   </g>
   <g id="text_18">
    <!-- $60 -->
    <g style="fill: #262626" transform="translate(337.52548 75.51126) scale(0.09 -0.09)">
     <defs>
      <path id="LiberationSans-Bold-36" d="M 3328 1441 
Q 3328 738 2934 337 
Q 2541 -63 1847 -63 
Q 1069 -63 651 482 
Q 234 1028 234 2100 
Q 234 3278 657 3873 
Q 1081 4469 1869 4469 
Q 2428 4469 2751 4222 
Q 3075 3975 3209 3456 
L 2381 3341 
Q 2263 3775 1850 3775 
Q 1497 3775 1295 3422 
Q 1094 3069 1094 2350 
Q 1234 2584 1484 2709 
Q 1734 2834 2050 2834 
Q 2641 2834 2984 2459 
Q 3328 2084 3328 1441 
z
M 2447 1416 
Q 2447 1791 2273 1989 
Q 2100 2188 1797 2188 
Q 1506 2188 1331 2002 
Q 1156 1816 1156 1509 
Q 1156 1125 1339 873 
Q 1522 622 1819 622 
Q 2116 622 2281 833 
Q 2447 1044 2447 1416 
z
" transform="scale(0.015625)"/>
      <path id="LiberationSans-Bold-30" d="M 3297 2203 
Q 3297 1088 2914 512 
Q 2531 -63 1766 -63 
Q 253 -63 253 2203 
Q 253 2994 418 3494 
Q 584 3994 915 4231 
Q 1247 4469 1791 4469 
Q 2572 4469 2934 3903 
Q 3297 3338 3297 2203 
z
M 2416 2203 
Q 2416 2813 2356 3150 
Q 2297 3488 2165 3634 
Q 2034 3781 1784 3781 
Q 1519 3781 1383 3632 
Q 1247 3484 1189 3148 
Q 1131 2813 1131 2203 
Q 1131 1600 1192 1261 
Q 1253 922 1386 775 
Q 1519 628 1772 628 
Q 2022 628 2158 783 
Q 2294 938 2355 1278 
Q 2416 1619 2416 2203 
z
" transform="scale(0.015625)"/>
     </defs>
     <use xlink:href="#LiberationSans-Bold-24"/>
     <use xlink:href="#LiberationSans-Bold-36" transform="translate(55.615234 0)"/>
     <use xlink:href="#LiberationSans-Bold-30" transform="translate(111.230469 0)"/>
    </g>
   </g>
   <g id="text_19">
    <!-- $15 -->
    <g style="fill: #262626" transform="translate(492.257251 310.234117) scale(0.09 -0.09)">
     <use xlink:href="#LiberationSans-Bold-24"/>
     <use xlink:href="#LiberationSans-Bold-31" transform="translate(55.615234 0)"/>
     <use xlink:href="#LiberationSans-Bold-35" transform="translate(111.230469 0)"/>
    </g>
   </g>
   <g id="text_20">
    <!-- $10 -->
    <g style="fill: #262626" transform="translate(646.989021 336.314435) scale(0.09 -0.09)">
     <use xlink:href="#LiberationSans-Bold-24"/>
     <use xlink:href="#LiberationSans-Bold-31" transform="translate(55.615234 0)"/>
     <use xlink:href="#LiberationSans-Bold-30" transform="translate(111.230469 0)"/>
    </g>
   </g>
   <g id="patch_15">
    <path d="M 60.509451 108.589959 
Q 97.478887 131.577387 133.024139 153.679264 
" style="fill: none; stroke: #1565c0; stroke-width: 1.5; stroke-linecap: round"/>
    <path d="M 130.683343 149.868663 
L 133.024139 153.679264 
L 128.571181 153.26554 
" style="fill: none; stroke: #1565c0; stroke-width: 1.5; stroke-linecap: round"/>
   </g>
   <g id="text_21">
    <!-- Execution was -->
    <g style="fill: #1565c0" transform="translate(7.2 92.687827) scale(0.1 -0.1)">
     <defs>
      <path id="LiberationSans-20" transform="scale(0.015625)"/>
      <path id="LiberationSans-77" d="M 3669 0 
L 3016 0 
L 2425 2391 
L 2313 2919 
Q 2284 2778 2225 2514 
Q 2166 2250 1588 0 
L 938 0 
L -9 3381 
L 547 3381 
L 1119 1084 
Q 1141 1009 1253 466 
L 1306 697 
L 2013 3381 
L 2616 3381 
L 3206 1059 
L 3350 466 
L 3447 900 
L 4088 3381 
L 4638 3381 
L 3669 0 
z
" transform="scale(0.015625)"/>
     </defs>
     <use xlink:href="#LiberationSans-45"/>
     <use xlink:href="#LiberationSans-78" transform="translate(66.699219 0)"/>
     <use xlink:href="#LiberationSans-65" transform="translate(116.699219 0)"/>
     <use xlink:href="#LiberationSans-63" transform="translate(172.314453 0)"/>
     <use xlink:href="#LiberationSans-75" transform="translate(222.314453 0)"/>
     <use xlink:href="#LiberationSans-74" transform="translate(277.929688 0)"/>
     <use xlink:href="#LiberationSans-69" transform="translate(305.712891 0)"/>
     <use xlink:href="#LiberationSans-6f" transform="translate(327.929688 0)"/>
     <use xlink:href="#LiberationSans-6e" transform="translate(383.544922 0)"/>
     <use xlink:href="#LiberationSans-20" transform="translate(439.160156 0)"/>
     <use xlink:href="#LiberationSans-77" transform="translate(466.943359 0)"/>
     <use xlink:href="#LiberationSans-61" transform="translate(539.160156 0)"/>
     <use xlink:href="#LiberationSans-73" transform="translate(594.775391 0)"/>
    </g>
    <!-- the bottleneck -->
    <g style="fill: #1565c0" transform="translate(8.307031 103.459077) scale(0.1 -0.1)">
     <defs>
      <path id="LiberationSans-62" d="M 3291 1706 
Q 3291 -63 2047 -63 
Q 1663 -63 1408 76 
Q 1153 216 994 525 
L 988 525 
Q 988 428 975 229 
Q 963 31 956 0 
L 413 0 
Q 431 169 431 697 
L 431 4638 
L 994 4638 
L 994 3316 
Q 994 3113 981 2838 
L 994 2838 
Q 1150 3163 1408 3303 
Q 1666 3444 2047 3444 
Q 2688 3444 2989 3012 
Q 3291 2581 3291 1706 
z
M 2700 1688 
Q 2700 2397 2512 2703 
Q 2325 3009 1903 3009 
Q 1428 3009 1211 2684 
Q 994 2359 994 1653 
Q 994 988 1206 670 
Q 1419 353 1897 353 
Q 2322 353 2511 667 
Q 2700 981 2700 1688 
z
" transform="scale(0.015625)"/>
      <path id="LiberationSans-6b" d="M 2550 0 
L 1406 1544 
L 994 1203 
L 994 0 
L 431 0 
L 431 4638 
L 994 4638 
L 994 1741 
L 2478 3381 
L 3138 3381 
L 1766 1928 
L 3209 0 
L 2550 0 
z
" transform="scale(0.015625)"/>
     </defs>
     <use xlink:href="#LiberationSans-74"/>
     <use xlink:href="#LiberationSans-68" transform="translate(27.783203 0)"/>
     <use xlink:href="#LiberationSans-65" transform="translate(83.398438 0)"/>
     <use xlink:href="#LiberationSans-20" transform="translate(139.013672 0)"/>
     <use xlink:href="#LiberationSans-62" transform="translate(166.796875 0)"/>
     <use xlink:href="#LiberationSans-6f" transform="translate(222.412109 0)"/>
     <use xlink:href="#LiberationSans-74" transform="translate(278.027344 0)"/>
     <use xlink:href="#LiberationSans-74" transform="translate(305.810547 0)"/>
     <use xlink:href="#LiberationSans-6c" transform="translate(333.59375 0)"/>
     <use xlink:href="#LiberationSans-65" transform="translate(355.810547 0)"/>
     <use xlink:href="#LiberationSans-6e" transform="translate(411.425781 0)"/>
     <use xlink:href="#LiberationSans-65" transform="translate(467.041016 0)"/>
     <use xlink:href="#LiberationSans-63" transform="translate(522.65625 0)"/>
     <use xlink:href="#LiberationSans-6b" transform="translate(572.65625 0)"/>
    </g>
   </g>
   <g id="patch_16">
    <path d="M 420.668152 30.349006 
Q 383.698716 53.336434 348.153464 75.438312 
" style="fill: none; stroke: #ef6c00; stroke-width: 1.5; stroke-linecap: round"/>
    <path d="M 352.606421 75.024588 
L 348.153464 75.438312 
L 350.494259 71.627711 
" style="fill: none; stroke: #ef6c00; stroke-width: 1.5; stroke-linecap: round"/>
   </g>
   <g id="text_22">
    <!-- Governance is now -->
    <g style="fill: #ef6c00" transform="translate(398.942446 14.446875) scale(0.1 -0.1)">
     <use xlink:href="#LiberationSans-47"/>
     <use xlink:href="#LiberationSans-6f" transform="translate(77.783203 0)"/>
     <use xlink:href="#LiberationSans-76" transform="translate(133.398438 0)"/>
     <use xlink:href="#LiberationSans-65" transform="translate(183.398438 0)"/>
     <use xlink:href="#LiberationSans-72" transform="translate(239.013672 0)"/>
     <use xlink:href="#LiberationSans-6e" transform="translate(272.314453 0)"/>
     <use xlink:href="#LiberationSans-61" transform="translate(327.929688 0)"/>
     <use xlink:href="#LiberationSans-6e" transform="translate(383.544922 0)"/>
     <use xlink:href="#LiberationSans-63" transform="translate(439.160156 0)"/>
     <use xlink:href="#LiberationSans-65" transform="translate(489.160156 0)"/>
     <use xlink:href="#LiberationSans-20" transform="translate(544.775391 0)"/>
     <use xlink:href="#LiberationSans-69" transform="translate(572.558594 0)"/>
     <use xlink:href="#LiberationSans-73" transform="translate(594.775391 0)"/>
     <use xlink:href="#LiberationSans-20" transform="translate(644.775391 0)"/>
     <use xlink:href="#LiberationSans-6e" transform="translate(672.558594 0)"/>
     <use xlink:href="#LiberationSans-6f" transform="translate(728.173828 0)"/>
     <use xlink:href="#LiberationSans-77" transform="translate(783.789062 0)"/>
    </g>
    <!-- the bottleneck -->
    <g style="fill: #ef6c00" transform="translate(410.609634 25.218125) scale(0.1 -0.1)">
     <use xlink:href="#LiberationSans-74"/>
     <use xlink:href="#LiberationSans-68" transform="translate(27.783203 0)"/>
     <use xlink:href="#LiberationSans-65" transform="translate(83.398438 0)"/>
     <use xlink:href="#LiberationSans-20" transform="translate(139.013672 0)"/>
     <use xlink:href="#LiberationSans-62" transform="translate(166.796875 0)"/>
     <use xlink:href="#LiberationSans-6f" transform="translate(222.412109 0)"/>
     <use xlink:href="#LiberationSans-74" transform="translate(278.027344 0)"/>
     <use xlink:href="#LiberationSans-74" transform="translate(305.810547 0)"/>
     <use xlink:href="#LiberationSans-6c" transform="translate(333.59375 0)"/>
     <use xlink:href="#LiberationSans-65" transform="translate(355.810547 0)"/>
     <use xlink:href="#LiberationSans-6e" transform="translate(411.425781 0)"/>
     <use xlink:href="#LiberationSans-65" transform="translate(467.041016 0)"/>
     <use xlink:href="#LiberationSans-63" transform="translate(522.65625 0)"/>
     <use xlink:href="#LiberationSans-6b" transform="translate(572.65625 0)"/>
    </g>
   </g>
   <g id="text_23">
    <!-- Shadow Prices: Marginal Value of Relaxing Constraints -->
    <g style="fill: #262626" transform="translate(211.731353 55.730569) scale(0.14 -0.14)">
     <defs>
      <path id="LiberationSans-Bold-73" d="M 3297 988 
Q 3297 497 2895 217 
Q 2494 -63 1784 -63 
Q 1088 -63 717 157 
Q 347 378 225 844 
L 997 959 
Q 1063 719 1223 619 
Q 1384 519 1784 519 
Q 2153 519 2322 612 
Q 2491 706 2491 906 
Q 2491 1069 2355 1164 
Q 2219 1259 1894 1325 
Q 1150 1472 890 1598 
Q 631 1725 495 1926 
Q 359 2128 359 2422 
Q 359 2906 732 3176 
Q 1106 3447 1791 3447 
Q 2394 3447 2761 3212 
Q 3128 2978 3219 2534 
L 2441 2453 
Q 2403 2659 2256 2761 
Q 2109 2863 1791 2863 
Q 1478 2863 1322 2783 
Q 1166 2703 1166 2516 
Q 1166 2369 1286 2283 
Q 1406 2197 1691 2141 
Q 2088 2059 2395 1973 
Q 2703 1888 2889 1769 
Q 3075 1650 3186 1464 
Q 3297 1278 3297 988 
z
" transform="scale(0.015625)"/>
      <path id="LiberationSans-Bold-3a" d="M 616 2350 
L 616 3231 
L 1516 3231 
L 1516 2350 
L 616 2350 
z
M 616 0 
L 616 878 
L 1516 878 
L 1516 0 
L 616 0 
z
" transform="scale(0.015625)"/>
      <path id="LiberationSans-Bold-4d" d="M 4084 0 
L 4084 2669 
Q 4084 2759 4086 2850 
Q 4088 2941 4116 3628 
Q 3894 2788 3788 2456 
L 2994 0 
L 2338 0 
L 1544 2456 
L 1209 3628 
Q 1247 2903 1247 2669 
L 1247 0 
L 428 0 
L 428 4403 
L 1663 4403 
L 2450 1941 
L 2519 1703 
L 2669 1113 
L 2866 1819 
L 3675 4403 
L 4903 4403 
L 4903 0 
L 4084 0 
z
" transform="scale(0.015625)"/>
      <path id="LiberationSans-Bold-67" d="M 1863 -1356 
Q 1244 -1356 867 -1120 
Q 491 -884 403 -447 
L 1281 -344 
Q 1328 -547 1483 -662 
Q 1638 -778 1888 -778 
Q 2253 -778 2422 -553 
Q 2591 -328 2591 116 
L 2591 294 
L 2597 628 
L 2591 628 
Q 2300 6 1503 6 
Q 913 6 588 450 
Q 263 894 263 1719 
Q 263 2547 597 2997 
Q 931 3447 1569 3447 
Q 2306 3447 2591 2838 
L 2606 2838 
Q 2606 2947 2620 3134 
Q 2634 3322 2650 3381 
L 3481 3381 
Q 3463 3044 3463 2600 
L 3463 103 
Q 3463 -619 3053 -987 
Q 2644 -1356 1863 -1356 
z
M 2597 1738 
Q 2597 2259 2411 2551 
Q 2225 2844 1881 2844 
Q 1178 2844 1178 1719 
Q 1178 616 1875 616 
Q 2225 616 2411 908 
Q 2597 1200 2597 1738 
z
" transform="scale(0.015625)"/>
      <path id="LiberationSans-Bold-6c" d="M 447 0 
L 447 4638 
L 1325 4638 
L 1325 0 
L 447 0 
z
" transform="scale(0.015625)"/>
      <path id="LiberationSans-Bold-56" d="M 2606 0 
L 1672 0 
L 44 4403 
L 1006 4403 
L 1913 1575 
Q 1997 1300 2144 744 
L 2209 1013 
L 2369 1575 
L 3272 4403 
L 4225 4403 
L 2606 0 
z
" transform="scale(0.015625)"/>
      <path id="LiberationSans-Bold-66" d="M 1478 2788 
L 1478 0 
L 603 0 
L 603 2788 
L 109 2788 
L 109 3381 
L 603 3381 
L 603 3734 
Q 603 4194 847 4416 
Q 1091 4638 1588 4638 
Q 1834 4638 2144 4588 
L 2144 4022 
Q 2016 4050 1888 4050 
Q 1663 4050 1570 3961 
Q 1478 3872 1478 3647 
L 1478 3381 
L 2144 3381 
L 2144 2788 
L 1478 2788 
z
" transform="scale(0.015625)"/>
      <path id="LiberationSans-Bold-52" d="M 3453 0 
L 2431 1672 
L 1350 1672 
L 1350 0 
L 428 0 
L 428 4403 
L 2628 4403 
Q 3416 4403 3844 4064 
Q 4272 3725 4272 3091 
Q 4272 2628 4009 2292 
Q 3747 1956 3300 1850 
L 4491 0 
L 3453 0 
z
M 3344 3053 
Q 3344 3688 2531 3688 
L 1350 3688 
L 1350 2388 
L 2556 2388 
Q 2944 2388 3144 2563 
Q 3344 2738 3344 3053 
z
" transform="scale(0.015625)"/>
      <path id="LiberationSans-Bold-78" d="M 2559 0 
L 1772 1225 
L 978 0 
L 44 0 
L 1281 1747 
L 103 3381 
L 1050 3381 
L 1772 2275 
L 2491 3381 
L 3444 3381 
L 2266 1756 
L 3513 0 
L 2559 0 
z
" transform="scale(0.015625)"/>
      <path id="LiberationSans-Bold-43" d="M 2484 663 
Q 3319 663 3644 1500 
L 4447 1197 
Q 4188 559 3686 248 
Q 3184 -63 2484 -63 
Q 1422 -63 842 539 
Q 263 1141 263 2222 
Q 263 3306 822 3887 
Q 1381 4469 2444 4469 
Q 3219 4469 3706 4158 
Q 4194 3847 4391 3244 
L 3578 3022 
Q 3475 3353 3173 3548 
Q 2872 3744 2463 3744 
Q 1838 3744 1514 3356 
Q 1191 2969 1191 2222 
Q 1191 1463 1523 1063 
Q 1856 663 2484 663 
z
" transform="scale(0.015625)"/>
     </defs>
     <use xlink:href="#LiberationSans-Bold-53"/>
     <use xlink:href="#LiberationSans-Bold-68" transform="translate(66.699219 0)"/>
     <use xlink:href="#LiberationSans-Bold-61" transform="translate(127.783203 0)"/>
     <use xlink:href="#LiberationSans-Bold-64" transform="translate(183.398438 0)"/>
     <use xlink:href="#LiberationSans-Bold-6f" transform="translate(244.482422 0)"/>
     <use xlink:href="#LiberationSans-Bold-77" transform="translate(305.566406 0)"/>
     <use xlink:href="#LiberationSans-Bold-20" transform="translate(383.349609 0)"/>
     <use xlink:href="#LiberationSans-Bold-50" transform="translate(411.132812 0)"/>
     <use xlink:href="#LiberationSans-Bold-72" transform="translate(477.832031 0)"/>
     <use xlink:href="#LiberationSans-Bold-69" transform="translate(516.748047 0)"/>
     <use xlink:href="#LiberationSans-Bold-63" transform="translate(544.53125 0)"/>
     <use xlink:href="#LiberationSans-Bold-65" transform="translate(600.146484 0)"/>
     <use xlink:href="#LiberationSans-Bold-73" transform="translate(655.761719 0)"/>
     <use xlink:href="#LiberationSans-Bold-3a" transform="translate(711.376953 0)"/>
     <use xlink:href="#LiberationSans-Bold-20" transform="translate(744.677734 0)"/>
     <use xlink:href="#LiberationSans-Bold-4d" transform="translate(772.460938 0)"/>
     <use xlink:href="#LiberationSans-Bold-61" transform="translate(855.761719 0)"/>
     <use xlink:href="#LiberationSans-Bold-72" transform="translate(911.376953 0)"/>
     <use xlink:href="#LiberationSans-Bold-67" transform="translate(950.292969 0)"/>
     <use xlink:href="#LiberationSans-Bold-69" transform="translate(1011.376953 0)"/>
     <use xlink:href="#LiberationSans-Bold-6e" transform="translate(1039.160156 0)"/>
     <use xlink:href="#LiberationSans-Bold-61" transform="translate(1100.244141 0)"/>
     <use xlink:href="#LiberationSans-Bold-6c" transform="translate(1155.859375 0)"/>
     <use xlink:href="#LiberationSans-Bold-20" transform="translate(1183.642578 0)"/>
     <use xlink:href="#LiberationSans-Bold-56" transform="translate(1211.425781 0)"/>
     <use xlink:href="#LiberationSans-Bold-61" transform="translate(1272.625 0)"/>
     <use xlink:href="#LiberationSans-Bold-6c" transform="translate(1328.240234 0)"/>
     <use xlink:href="#LiberationSans-Bold-75" transform="translate(1356.023438 0)"/>
     <use xlink:href="#LiberationSans-Bold-65" transform="translate(1417.107422 0)"/>
     <use xlink:href="#LiberationSans-Bold-20" transform="translate(1472.722656 0)"/>
     <use xlink:href="#LiberationSans-Bold-6f" transform="translate(1500.505859 0)"/>
     <use xlink:href="#LiberationSans-Bold-66" transform="translate(1561.589844 0)"/>
     <use xlink:href="#LiberationSans-Bold-20" transform="translate(1594.890625 0)"/>
     <use xlink:href="#LiberationSans-Bold-52" transform="translate(1622.673828 0)"/>
     <use xlink:href="#LiberationSans-Bold-65" transform="translate(1694.890625 0)"/>
     <use xlink:href="#LiberationSans-Bold-6c" transform="translate(1750.505859 0)"/>
     <use xlink:href="#LiberationSans-Bold-61" transform="translate(1778.289062 0)"/>
     <use xlink:href="#LiberationSans-Bold-78" transform="translate(1833.904297 0)"/>
     <use xlink:href="#LiberationSans-Bold-69" transform="translate(1889.519531 0)"/>
     <use xlink:href="#LiberationSans-Bold-6e" transform="translate(1917.302734 0)"/>
     <use xlink:href="#LiberationSans-Bold-67" transform="translate(1978.386719 0)"/>
     <use xlink:href="#LiberationSans-Bold-20" transform="translate(2039.470703 0)"/>
     <use xlink:href="#LiberationSans-Bold-43" transform="translate(2067.253906 0)"/>
     <use xlink:href="#LiberationSans-Bold-6f" transform="translate(2139.470703 0)"/>
     <use xlink:href="#LiberationSans-Bold-6e" transform="translate(2200.554688 0)"/>
     <use xlink:href="#LiberationSans-Bold-73" transform="translate(2261.638672 0)"/>
     <use xlink:href="#LiberationSans-Bold-74" transform="translate(2317.253906 0)"/>
     <use xlink:href="#LiberationSans-Bold-72" transform="translate(2350.554688 0)"/>
     <use xlink:href="#LiberationSans-Bold-61" transform="translate(2389.470703 0)"/>
     <use xlink:href="#LiberationSans-Bold-69" transform="translate(2445.085938 0)"/>
     <use xlink:href="#LiberationSans-Bold-6e" transform="translate(2472.869141 0)"/>
     <use xlink:href="#LiberationSans-Bold-74" transform="translate(2533.953125 0)"/>
     <use xlink:href="#LiberationSans-Bold-73" transform="translate(2567.253906 0)"/>
    </g>
   </g>
   <g id="legend_1">
    <g id="patch_17">
     <path d="M 587.553161 79.602132 
L 609.553161 79.602132 
L 609.553161 71.902132 
L 587.553161 71.902132 
z
" style="fill: #1565c0; opacity: 0.8"/>
    </g>
    <g id="text_24">
     <!-- Before AI Agents -->
     <g style="fill: #262626" transform="translate(618.353161 79.602132) scale(0.11 -0.11)">
      <defs>
       <path id="LiberationSans-42" d="M 3931 1241 
Q 3931 653 3503 326 
Q 3075 0 2313 0 
L 525 0 
L 525 4403 
L 2125 4403 
Q 3675 4403 3675 3334 
Q 3675 2944 3456 2678 
Q 3238 2413 2838 2322 
Q 3363 2259 3647 1970 
Q 3931 1681 3931 1241 
z
M 3075 3263 
Q 3075 3619 2831 3772 
Q 2588 3925 2125 3925 
L 1122 3925 
L 1122 2531 
L 2125 2531 
Q 2603 2531 2839 2711 
Q 3075 2891 3075 3263 
z
M 3328 1288 
Q 3328 2066 2234 2066 
L 1122 2066 
L 1122 478 
L 2281 478 
Q 2828 478 3078 681 
Q 3328 884 3328 1288 
z
" transform="scale(0.015625)"/>
       <path id="LiberationSans-66" d="M 1128 2972 
L 1128 0 
L 566 0 
L 566 2972 
L 91 2972 
L 91 3381 
L 566 3381 
L 566 3763 
Q 566 4225 769 4428 
Q 972 4631 1391 4631 
Q 1625 4631 1788 4594 
L 1788 4166 
Q 1647 4191 1538 4191 
Q 1322 4191 1225 4081 
Q 1128 3972 1128 3684 
L 1128 3381 
L 1788 3381 
L 1788 2972 
L 1128 2972 
z
" transform="scale(0.015625)"/>
       <path id="LiberationSans-41" d="M 3647 0 
L 3144 1288 
L 1138 1288 
L 631 0 
L 13 0 
L 1809 4403 
L 2488 4403 
L 4256 0 
L 3647 0 
z
M 2141 3953 
L 2113 3866 
Q 2034 3606 1881 3200 
L 1319 1753 
L 2966 1753 
L 2400 3206 
Q 2313 3422 2225 3694 
L 2141 3953 
z
" transform="scale(0.015625)"/>
       <path id="LiberationSans-49" d="M 591 0 
L 591 4403 
L 1188 4403 
L 1188 0 
L 591 0 
z
" transform="scale(0.015625)"/>
       <path id="LiberationSans-67" d="M 1713 -1328 
Q 1159 -1328 831 -1111 
Q 503 -894 409 -494 
L 975 -413 
Q 1031 -647 1223 -773 
Q 1416 -900 1728 -900 
Q 2569 -900 2569 84 
L 2569 628 
L 2563 628 
Q 2403 303 2125 139 
Q 1847 -25 1475 -25 
Q 853 -25 561 387 
Q 269 800 269 1684 
Q 269 2581 583 3007 
Q 897 3434 1538 3434 
Q 1897 3434 2161 3270 
Q 2425 3106 2569 2803 
L 2575 2803 
Q 2575 2897 2587 3128 
Q 2600 3359 2613 3381 
L 3147 3381 
Q 3128 3213 3128 2681 
L 3128 97 
Q 3128 -1328 1713 -1328 
z
M 2569 1691 
Q 2569 2103 2456 2401 
Q 2344 2700 2139 2858 
Q 1934 3016 1675 3016 
Q 1244 3016 1047 2703 
Q 850 2391 850 1691 
Q 850 997 1034 694 
Q 1219 391 1666 391 
Q 1931 391 2137 547 
Q 2344 703 2456 995 
Q 2569 1288 2569 1691 
z
" transform="scale(0.015625)"/>
      </defs>
      <use xlink:href="#LiberationSans-42"/>
      <use xlink:href="#LiberationSans-65" transform="translate(66.699219 0)"/>
      <use xlink:href="#LiberationSans-66" transform="translate(122.314453 0)"/>
      <use xlink:href="#LiberationSans-6f" transform="translate(150.097656 0)"/>
      <use xlink:href="#LiberationSans-72" transform="translate(205.712891 0)"/>
      <use xlink:href="#LiberationSans-65" transform="translate(239.013672 0)"/>
      <use xlink:href="#LiberationSans-20" transform="translate(294.628906 0)"/>
      <use xlink:href="#LiberationSans-41" transform="translate(316.912109 0)"/>
      <use xlink:href="#LiberationSans-49" transform="translate(383.611328 0)"/>
      <use xlink:href="#LiberationSans-20" transform="translate(411.394531 0)"/>
      <use xlink:href="#LiberationSans-41" transform="translate(433.677734 0)"/>
      <use xlink:href="#LiberationSans-67" transform="translate(500.376953 0)"/>
      <use xlink:href="#LiberationSans-65" transform="translate(555.992188 0)"/>
      <use xlink:href="#LiberationSans-6e" transform="translate(611.607422 0)"/>
      <use xlink:href="#LiberationSans-74" transform="translate(667.222656 0)"/>
      <use xlink:href="#LiberationSans-73" transform="translate(695.005859 0)"/>
     </g>
    </g>
    <g id="patch_18">
     <path d="M 587.553161 95.356194 
L 609.553161 95.356194 
L 609.553161 87.656194 
L 587.553161 87.656194 
z
" style="fill: #ef6c00; opacity: 0.8"/>
    </g>
    <g id="text_25">
     <!-- After AI Agents -->
     <g style="fill: #262626" transform="translate(618.353161 95.356194) scale(0.11 -0.11)">
      <use xlink:href="#LiberationSans-41"/>
      <use xlink:href="#LiberationSans-66" transform="translate(66.699219 0)"/>
      <use xlink:href="#LiberationSans-74" transform="translate(94.482422 0)"/>
      <use xlink:href="#LiberationSans-65" transform="translate(122.265625 0)"/>
      <use xlink:href="#LiberationSans-72" transform="translate(177.880859 0)"/>
      <use xlink:href="#LiberationSans-20" transform="translate(211.181641 0)"/>
      <use xlink:href="#LiberationSans-41" transform="translate(233.464844 0)"/>
      <use xlink:href="#LiberationSans-49" transform="translate(300.164062 0)"/>
      <use xlink:href="#LiberationSans-20" transform="translate(327.947266 0)"/>
      <use xlink:href="#LiberationSans-41" transform="translate(350.230469 0)"/>
      <use xlink:href="#LiberationSans-67" transform="translate(416.929688 0)"/>
      <use xlink:href="#LiberationSans-65" transform="translate(472.544922 0)"/>
      <use xlink:href="#LiberationSans-6e" transform="translate(528.160156 0)"/>
      <use xlink:href="#LiberationSans-74" transform="translate(583.775391 0)"/>
      <use xlink:href="#LiberationSans-73" transform="translate(611.558594 0)"/>
     </g>
    </g>
   </g>
  </g>
 </g>
 <defs>
  <clipPath id="p3b4b9deb2d">
   <rect x="80.441419" y="61.730569" width="629.758305" height="328.612"/>
  </clipPath>
 </defs>
</svg>
