<?xml version="1.0" encoding="utf-8" standalone="no"?>
<!DOCTYPE svg PUBLIC "-//W3C//DTD SVG 1.1//EN"
  "http://www.w3.org/Graphics/SVG/1.1/DTD/svg11.dtd">
<svg xmlns:xlink="http://www.w3.org/1999/xlink" width="713.264062pt" height="569.21375pt" viewBox="0 0 713.264062 569.21375" xmlns="http://www.w3.org/2000/svg" version="1.1">
 <metadata>
  <rdf:RDF xmlns:dc="http://purl.org/dc/elements/1.1/" xmlns:cc="http://creativecommons.org/ns#" xmlns:rdf="http://www.w3.org/1999/02/22-rdf-syntax-ns#">
   <cc:Work>
    <dc:type rdf:resource="http://purl.org/dc/dcmitype/StillImage"/>
    <dc:date>2025-11-16T16:02:15.399050</dc:date>
    <dc:format>image/svg+xml</dc:format>
    <dc:creator>
     <cc:Agent>
      <dc:title>Matplotlib v3.10.7, https://matplotlib.org/</dc:title>
     </cc:Agent>
    </dc:creator>
   </cc:Work>
  </rdf:RDF>
 </metadata>
 <defs>
  <style type="text/css">*{stroke-linejoin: round; stroke-linecap: butt}</style>
 </defs>
 <g id="figure_1">
  <g id="patch_1">
   <path d="M 0 569.21375 
L 713.264062 569.21375 
L 713.264062 0 
L 0 0 
z
" style="fill: #ffffff"/>
  </g>
  <g id="axes_1">
   <g id="patch_2">
    <path d="M 37.008125 534.005625 
L 700.503125 534.005625 
L 700.503125 23.345625 
L 37.008125 23.345625 
z
" style="fill: #eaeaf2"/>
   </g>
   <g id="matplotlib.axis_1">
    <g id="xtick_1">
     <g id="line2d_1">
      <path d="M 68.603125 534.005625 
L 68.603125 23.345625 
" clip-path="url(#pc035953acb)" style="fill: none; stroke: #ffffff; stroke-opacity: 0.3; stroke-width: 0.8; stroke-linecap: round"/>
     </g>
     <g id="line2d_2"/>
     <g id="text_1">
      <!-- 0 -->
      <g style="fill: #262626" transform="translate(65.822656 544.7525) scale(0.1 -0.1)">
       <defs>
        <path id="LiberationSans-30" d="M 3309 2203 
Q 3309 1100 2920 518 
Q 2531 -63 1772 -63 
Q 1013 -63 631 515 
Q 250 1094 250 2203 
Q 250 3338 620 3903 
Q 991 4469 1791 4469 
Q 2569 4469 2939 3897 
Q 3309 3325 3309 2203 
z
M 2738 2203 
Q 2738 3156 2517 3584 
Q 2297 4013 1791 4013 
Q 1272 4013 1045 3591 
Q 819 3169 819 2203 
Q 819 1266 1048 831 
Q 1278 397 1778 397 
Q 2275 397 2506 840 
Q 2738 1284 2738 2203 
z
" transform="scale(0.015625)"/>
       </defs>
       <use xlink:href="#LiberationSans-30"/>
      </g>
     </g>
    </g>
    <g id="xtick_2">
     <g id="line2d_3">
      <path d="M 194.983125 534.005625 
L 194.983125 23.345625 
" clip-path="url(#pc035953acb)" style="fill: none; stroke: #ffffff; stroke-opacity: 0.3; stroke-width: 0.8; stroke-linecap: round"/>
     </g>
     <g id="line2d_4"/>
     <g id="text_2">
      <!-- 2 -->
      <g style="fill: #262626" transform="translate(192.202656 544.7525) scale(0.1 -0.1)">
       <defs>
        <path id="LiberationSans-32" d="M 322 0 
L 322 397 
Q 481 763 711 1042 
Q 941 1322 1194 1548 
Q 1447 1775 1695 1969 
Q 1944 2163 2144 2356 
Q 2344 2550 2467 2762 
Q 2591 2975 2591 3244 
Q 2591 3606 2378 3806 
Q 2166 4006 1788 4006 
Q 1428 4006 1195 3811 
Q 963 3616 922 3263 
L 347 3316 
Q 409 3844 795 4156 
Q 1181 4469 1788 4469 
Q 2453 4469 2811 4155 
Q 3169 3841 3169 3263 
Q 3169 3006 3051 2753 
Q 2934 2500 2703 2247 
Q 2472 1994 1819 1463 
Q 1459 1169 1246 933 
Q 1034 697 941 478 
L 3238 478 
L 3238 0 
L 322 0 
z
" transform="scale(0.015625)"/>
       </defs>
       <use xlink:href="#LiberationSans-32"/>
      </g>
     </g>
    </g>
    <g id="xtick_3">
     <g id="line2d_5">
      <path d="M 321.363125 534.005625 
L 321.363125 23.345625 
" clip-path="url(#pc035953acb)" style="fill: none; stroke: #ffffff; stroke-opacity: 0.3; stroke-width: 0.8; stroke-linecap: round"/>
     </g>
     <g id="line2d_6"/>
     <g id="text_3">
      <!-- 4 -->
      <g style="fill: #262626" transform="translate(318.582656 544.7525) scale(0.1 -0.1)">
       <defs>
        <path id="LiberationSans-34" d="M 2753 997 
L 2753 0 
L 2222 0 
L 2222 997 
L 147 997 
L 147 1434 
L 2163 4403 
L 2753 4403 
L 2753 1441 
L 3372 1441 
L 3372 997 
L 2753 997 
z
M 2222 3769 
Q 2216 3750 2134 3603 
Q 2053 3456 2013 3397 
L 884 1734 
L 716 1503 
L 666 1441 
L 2222 1441 
L 2222 3769 
z
" transform="scale(0.015625)"/>
       </defs>
       <use xlink:href="#LiberationSans-34"/>
      </g>
     </g>
    </g>
    <g id="xtick_4">
     <g id="line2d_7">
      <path d="M 447.743125 534.005625 
L 447.743125 23.345625 
" clip-path="url(#pc035953acb)" style="fill: none; stroke: #ffffff; stroke-opacity: 0.3; stroke-width: 0.8; stroke-linecap: round"/>
     </g>
     <g id="line2d_8"/>
     <g id="text_4">
      <!-- 6 -->
      <g style="fill: #262626" transform="translate(444.962656 544.7525) scale(0.1 -0.1)">
       <defs>
        <path id="LiberationSans-36" d="M 3278 1441 
Q 3278 744 2900 340 
Q 2522 -63 1856 -63 
Q 1113 -63 719 490 
Q 325 1044 325 2100 
Q 325 3244 734 3856 
Q 1144 4469 1900 4469 
Q 2897 4469 3156 3572 
L 2619 3475 
Q 2453 4013 1894 4013 
Q 1413 4013 1148 3564 
Q 884 3116 884 2266 
Q 1038 2550 1316 2698 
Q 1594 2847 1953 2847 
Q 2563 2847 2920 2465 
Q 3278 2084 3278 1441 
z
M 2706 1416 
Q 2706 1894 2472 2153 
Q 2238 2413 1819 2413 
Q 1425 2413 1183 2183 
Q 941 1953 941 1550 
Q 941 1041 1192 716 
Q 1444 391 1838 391 
Q 2244 391 2475 664 
Q 2706 938 2706 1416 
z
" transform="scale(0.015625)"/>
       </defs>
       <use xlink:href="#LiberationSans-36"/>
      </g>
     </g>
    </g>
    <g id="xtick_5">
     <g id="line2d_9">
      <path d="M 574.123125 534.005625 
L 574.123125 23.345625 
" clip-path="url(#pc035953acb)" style="fill: none; stroke: #ffffff; stroke-opacity: 0.3; stroke-width: 0.8; stroke-linecap: round"/>
     </g>
     <g id="line2d_10"/>
     <g id="text_5">
      <!-- 8 -->
      <g style="fill: #262626" transform="translate(571.342656 544.7525) scale(0.1 -0.1)">
       <defs>
        <path id="LiberationSans-38" d="M 3281 1228 
Q 3281 619 2893 278 
Q 2506 -63 1781 -63 
Q 1075 -63 676 271 
Q 278 606 278 1222 
Q 278 1653 525 1947 
Q 772 2241 1156 2303 
L 1156 2316 
Q 797 2400 589 2681 
Q 381 2963 381 3341 
Q 381 3844 757 4156 
Q 1134 4469 1769 4469 
Q 2419 4469 2795 4162 
Q 3172 3856 3172 3334 
Q 3172 2956 2962 2675 
Q 2753 2394 2391 2322 
L 2391 2309 
Q 2813 2241 3047 1952 
Q 3281 1663 3281 1228 
z
M 2588 3303 
Q 2588 4050 1769 4050 
Q 1372 4050 1164 3862 
Q 956 3675 956 3303 
Q 956 2925 1170 2726 
Q 1384 2528 1775 2528 
Q 2172 2528 2380 2711 
Q 2588 2894 2588 3303 
z
M 2697 1281 
Q 2697 1691 2453 1898 
Q 2209 2106 1769 2106 
Q 1341 2106 1100 1882 
Q 859 1659 859 1269 
Q 859 359 1788 359 
Q 2247 359 2472 579 
Q 2697 800 2697 1281 
z
" transform="scale(0.015625)"/>
       </defs>
       <use xlink:href="#LiberationSans-38"/>
      </g>
     </g>
    </g>
    <g id="xtick_6">
     <g id="line2d_11">
      <path d="M 700.503125 534.005625 
L 700.503125 23.345625 
" clip-path="url(#pc035953acb)" style="fill: none; stroke: #ffffff; stroke-opacity: 0.3; stroke-width: 0.8; stroke-linecap: round"/>
     </g>
     <g id="line2d_12"/>
     <g id="text_6">
      <!-- 10 -->
      <g style="fill: #262626" transform="translate(694.942187 544.7525) scale(0.1 -0.1)">
       <defs>
        <path id="LiberationSans-31" d="M 488 0 
L 488 478 
L 1609 478 
L 1609 3866 
L 616 3156 
L 616 3688 
L 1656 4403 
L 2175 4403 
L 2175 478 
L 3247 478 
L 3247 0 
L 488 0 
z
" transform="scale(0.015625)"/>
       </defs>
       <use xlink:href="#LiberationSans-31"/>
       <use xlink:href="#LiberationSans-30" transform="translate(55.615234 0)"/>
      </g>
     </g>
    </g>
    <g id="text_7">
     <!-- Velocity Force -->
     <g style="fill: #262626" transform="translate(328.072812 559.52375) scale(0.12 -0.12)">
      <defs>
       <path id="LiberationSans-Bold-56" d="M 2606 0 
L 1672 0 
L 44 4403 
L 1006 4403 
L 1913 1575 
Q 1997 1300 2144 744 
L 2209 1013 
L 2369 1575 
L 3272 4403 
L 4225 4403 
L 2606 0 
z
" transform="scale(0.015625)"/>
       <path id="LiberationSans-Bold-65" d="M 1831 -63 
Q 1069 -63 659 389 
Q 250 841 250 1706 
Q 250 2544 665 2994 
Q 1081 3444 1844 3444 
Q 2572 3444 2956 2961 
Q 3341 2478 3341 1547 
L 3341 1522 
L 1172 1522 
Q 1172 1028 1355 776 
Q 1538 525 1875 525 
Q 2341 525 2463 928 
L 3291 856 
Q 2931 -63 1831 -63 
z
M 1831 2891 
Q 1522 2891 1355 2675 
Q 1188 2459 1178 2072 
L 2491 2072 
Q 2466 2481 2294 2686 
Q 2122 2891 1831 2891 
z
" transform="scale(0.015625)"/>
       <path id="LiberationSans-Bold-6c" d="M 447 0 
L 447 4638 
L 1325 4638 
L 1325 0 
L 447 0 
z
" transform="scale(0.015625)"/>
       <path id="LiberationSans-Bold-6f" d="M 3659 1694 
Q 3659 872 3203 404 
Q 2747 -63 1941 -63 
Q 1150 -63 700 406 
Q 250 875 250 1694 
Q 250 2509 700 2976 
Q 1150 3444 1959 3444 
Q 2788 3444 3223 2992 
Q 3659 2541 3659 1694 
z
M 2741 1694 
Q 2741 2297 2544 2569 
Q 2347 2841 1972 2841 
Q 1172 2841 1172 1694 
Q 1172 1128 1367 833 
Q 1563 538 1931 538 
Q 2741 538 2741 1694 
z
" transform="scale(0.015625)"/>
       <path id="LiberationSans-Bold-63" d="M 1856 -63 
Q 1088 -63 669 395 
Q 250 853 250 1672 
Q 250 2509 672 2976 
Q 1094 3444 1869 3444 
Q 2466 3444 2856 3144 
Q 3247 2844 3347 2316 
L 2463 2272 
Q 2425 2531 2275 2686 
Q 2125 2841 1850 2841 
Q 1172 2841 1172 1706 
Q 1172 538 1863 538 
Q 2113 538 2281 695 
Q 2450 853 2491 1166 
L 3372 1125 
Q 3325 778 3123 506 
Q 2922 234 2594 85 
Q 2266 -63 1856 -63 
z
" transform="scale(0.015625)"/>
       <path id="LiberationSans-Bold-69" d="M 447 3991 
L 447 4638 
L 1325 4638 
L 1325 3991 
L 447 3991 
z
M 447 0 
L 447 3381 
L 1325 3381 
L 1325 0 
L 447 0 
z
" transform="scale(0.015625)"/>
       <path id="LiberationSans-Bold-74" d="M 1313 -56 
Q 925 -56 715 155 
Q 506 366 506 794 
L 506 2788 
L 78 2788 
L 78 3381 
L 550 3381 
L 825 4175 
L 1375 4175 
L 1375 3381 
L 2016 3381 
L 2016 2788 
L 1375 2788 
L 1375 1031 
Q 1375 784 1469 667 
Q 1563 550 1759 550 
Q 1863 550 2053 594 
L 2053 50 
Q 1728 -56 1313 -56 
z
" transform="scale(0.015625)"/>
       <path id="LiberationSans-Bold-79" d="M 884 -1328 
Q 569 -1328 331 -1288 
L 331 -663 
Q 497 -688 634 -688 
Q 822 -688 945 -628 
Q 1069 -569 1167 -431 
Q 1266 -294 1388 34 
L 50 3381 
L 978 3381 
L 1509 1797 
Q 1634 1456 1825 753 
L 1903 1050 
L 2106 1784 
L 2606 3381 
L 3525 3381 
L 2188 -178 
Q 1919 -828 1630 -1078 
Q 1341 -1328 884 -1328 
z
" transform="scale(0.015625)"/>
       <path id="LiberationSans-Bold-20" transform="scale(0.015625)"/>
       <path id="LiberationSans-Bold-46" d="M 1350 3691 
L 1350 2328 
L 3603 2328 
L 3603 1616 
L 1350 1616 
L 1350 0 
L 428 0 
L 428 4403 
L 3675 4403 
L 3675 3691 
L 1350 3691 
z
" transform="scale(0.015625)"/>
       <path id="LiberationSans-Bold-72" d="M 447 0 
L 447 2588 
Q 447 2866 439 3052 
Q 431 3238 422 3381 
L 1259 3381 
Q 1269 3325 1284 3039 
Q 1300 2753 1300 2659 
L 1313 2659 
Q 1441 3016 1541 3161 
Q 1641 3306 1778 3376 
Q 1916 3447 2122 3447 
Q 2291 3447 2394 3400 
L 2394 2666 
Q 2181 2713 2019 2713 
Q 1691 2713 1508 2447 
Q 1325 2181 1325 1659 
L 1325 0 
L 447 0 
z
" transform="scale(0.015625)"/>
      </defs>
      <use xlink:href="#LiberationSans-Bold-56"/>
      <use xlink:href="#LiberationSans-Bold-65" transform="translate(61.199219 0)"/>
      <use xlink:href="#LiberationSans-Bold-6c" transform="translate(116.814453 0)"/>
      <use xlink:href="#LiberationSans-Bold-6f" transform="translate(144.597656 0)"/>
      <use xlink:href="#LiberationSans-Bold-63" transform="translate(205.681641 0)"/>
      <use xlink:href="#LiberationSans-Bold-69" transform="translate(261.296875 0)"/>
      <use xlink:href="#LiberationSans-Bold-74" transform="translate(289.080078 0)"/>
      <use xlink:href="#LiberationSans-Bold-79" transform="translate(322.380859 0)"/>
      <use xlink:href="#LiberationSans-Bold-20" transform="translate(377.996094 0)"/>
      <use xlink:href="#LiberationSans-Bold-46" transform="translate(405.779297 0)"/>
      <use xlink:href="#LiberationSans-Bold-6f" transform="translate(466.863281 0)"/>
      <use xlink:href="#LiberationSans-Bold-72" transform="translate(527.947266 0)"/>
      <use xlink:href="#LiberationSans-Bold-63" transform="translate(566.863281 0)"/>
      <use xlink:href="#LiberationSans-Bold-65" transform="translate(622.478516 0)"/>
     </g>
    </g>
   </g>
   <g id="matplotlib.axis_2">
    <g id="ytick_1">
     <g id="line2d_13">
      <path d="M 37.008125 509.688482 
L 700.503125 509.688482 
" clip-path="url(#pc035953acb)" style="fill: none; stroke: #ffffff; stroke-opacity: 0.3; stroke-width: 0.8; stroke-linecap: round"/>
     </g>
     <g id="line2d_14"/>
     <g id="text_8">
      <!-- 0 -->
      <g style="fill: #262626" transform="translate(27.947188 513.31192) scale(0.1 -0.1)">
       <use xlink:href="#LiberationSans-30"/>
      </g>
     </g>
    </g>
    <g id="ytick_2">
     <g id="line2d_15">
      <path d="M 37.008125 412.419911 
L 700.503125 412.419911 
" clip-path="url(#pc035953acb)" style="fill: none; stroke: #ffffff; stroke-opacity: 0.3; stroke-width: 0.8; stroke-linecap: round"/>
     </g>
     <g id="line2d_16"/>
     <g id="text_9">
      <!-- 2 -->
      <g style="fill: #262626" transform="translate(27.947188 416.043348) scale(0.1 -0.1)">
       <use xlink:href="#LiberationSans-32"/>
      </g>
     </g>
    </g>
    <g id="ytick_3">
     <g id="line2d_17">
      <path d="M 37.008125 315.151339 
L 700.503125 315.151339 
" clip-path="url(#pc035953acb)" style="fill: none; stroke: #ffffff; stroke-opacity: 0.3; stroke-width: 0.8; stroke-linecap: round"/>
     </g>
     <g id="line2d_18"/>
     <g id="text_10">
      <!-- 4 -->
      <g style="fill: #262626" transform="translate(27.947188 318.774777) scale(0.1 -0.1)">
       <use xlink:href="#LiberationSans-34"/>
      </g>
     </g>
    </g>
    <g id="ytick_4">
     <g id="line2d_19">
      <path d="M 37.008125 217.882768 
L 700.503125 217.882768 
" clip-path="url(#pc035953acb)" style="fill: none; stroke: #ffffff; stroke-opacity: 0.3; stroke-width: 0.8; stroke-linecap: round"/>
     </g>
     <g id="line2d_20"/>
     <g id="text_11">
      <!-- 6 -->
      <g style="fill: #262626" transform="translate(27.947188 221.506205) scale(0.1 -0.1)">
       <use xlink:href="#LiberationSans-36"/>
      </g>
     </g>
    </g>
    <g id="ytick_5">
     <g id="line2d_21">
      <path d="M 37.008125 120.614196 
L 700.503125 120.614196 
" clip-path="url(#pc035953acb)" style="fill: none; stroke: #ffffff; stroke-opacity: 0.3; stroke-width: 0.8; stroke-linecap: round"/>
     </g>
     <g id="line2d_22"/>
     <g id="text_12">
      <!-- 8 -->
      <g style="fill: #262626" transform="translate(27.947188 124.237634) scale(0.1 -0.1)">
       <use xlink:href="#LiberationSans-38"/>
      </g>
     </g>
    </g>
    <g id="ytick_6">
     <g id="line2d_23">
      <path d="M 37.008125 23.345625 
L 700.503125 23.345625 
" clip-path="url(#pc035953acb)" style="fill: none; stroke: #ffffff; stroke-opacity: 0.3; stroke-width: 0.8; stroke-linecap: round"/>
     </g>
     <g id="line2d_24"/>
     <g id="text_13">
      <!-- 10 -->
      <g style="fill: #262626" transform="translate(22.38625 26.969063) scale(0.1 -0.1)">
       <use xlink:href="#LiberationSans-31"/>
       <use xlink:href="#LiberationSans-30" transform="translate(55.615234 0)"/>
      </g>
     </g>
    </g>
    <g id="text_14">
     <!-- Quality Force -->
     <g style="fill: #262626" transform="translate(15.89625 317.016562) rotate(-90) scale(0.12 -0.12)">
      <defs>
       <path id="LiberationSans-Bold-51" d="M 4709 2222 
Q 4709 1341 4276 755 
Q 3844 169 3072 13 
Q 3178 -297 3370 -434 
Q 3563 -572 3909 -572 
Q 4094 -572 4281 -541 
L 4275 -1172 
Q 3881 -1259 3519 -1259 
Q 3009 -1259 2675 -975 
Q 2341 -691 2138 -31 
Q 1247 53 755 648 
Q 263 1244 263 2222 
Q 263 3281 850 3875 
Q 1438 4469 2484 4469 
Q 3531 4469 4120 3869 
Q 4709 3269 4709 2222 
z
M 3769 2222 
Q 3769 2934 3431 3339 
Q 3094 3744 2484 3744 
Q 1866 3744 1528 3342 
Q 1191 2941 1191 2222 
Q 1191 1497 1534 1078 
Q 1878 659 2478 659 
Q 3097 659 3433 1065 
Q 3769 1472 3769 2222 
z
" transform="scale(0.015625)"/>
       <path id="LiberationSans-Bold-75" d="M 1275 3381 
L 1275 1484 
Q 1275 594 1875 594 
Q 2194 594 2389 867 
Q 2584 1141 2584 1569 
L 2584 3381 
L 3463 3381 
L 3463 756 
Q 3463 325 3488 0 
L 2650 0 
Q 2613 450 2613 672 
L 2597 672 
Q 2422 288 2151 112 
Q 1881 -63 1509 -63 
Q 972 -63 684 267 
Q 397 597 397 1234 
L 397 3381 
L 1275 3381 
z
" transform="scale(0.015625)"/>
       <path id="LiberationSans-Bold-61" d="M 1228 -63 
Q 738 -63 463 204 
Q 188 472 188 956 
Q 188 1481 530 1756 
Q 872 2031 1522 2038 
L 2250 2050 
L 2250 2222 
Q 2250 2553 2134 2714 
Q 2019 2875 1756 2875 
Q 1513 2875 1398 2764 
Q 1284 2653 1256 2397 
L 341 2441 
Q 425 2934 792 3189 
Q 1159 3444 1794 3444 
Q 2434 3444 2781 3128 
Q 3128 2813 3128 2231 
L 3128 1000 
Q 3128 716 3192 608 
Q 3256 500 3406 500 
Q 3506 500 3600 519 
L 3600 44 
Q 3522 25 3459 9 
Q 3397 -6 3334 -15 
Q 3272 -25 3201 -31 
Q 3131 -38 3038 -38 
Q 2706 -38 2548 125 
Q 2391 288 2359 603 
L 2341 603 
Q 1972 -63 1228 -63 
z
M 2250 1566 
L 1800 1559 
Q 1494 1547 1366 1492 
Q 1238 1438 1170 1325 
Q 1103 1213 1103 1025 
Q 1103 784 1214 667 
Q 1325 550 1509 550 
Q 1716 550 1886 662 
Q 2056 775 2153 973 
Q 2250 1172 2250 1394 
L 2250 1566 
z
" transform="scale(0.015625)"/>
      </defs>
      <use xlink:href="#LiberationSans-Bold-51"/>
      <use xlink:href="#LiberationSans-Bold-75" transform="translate(77.783203 0)"/>
      <use xlink:href="#LiberationSans-Bold-61" transform="translate(138.867188 0)"/>
      <use xlink:href="#LiberationSans-Bold-6c" transform="translate(194.482422 0)"/>
      <use xlink:href="#LiberationSans-Bold-69" transform="translate(222.265625 0)"/>
      <use xlink:href="#LiberationSans-Bold-74" transform="translate(250.048828 0)"/>
      <use xlink:href="#LiberationSans-Bold-79" transform="translate(283.349609 0)"/>
      <use xlink:href="#LiberationSans-Bold-20" transform="translate(338.964844 0)"/>
      <use xlink:href="#LiberationSans-Bold-46" transform="translate(366.748047 0)"/>
      <use xlink:href="#LiberationSans-Bold-6f" transform="translate(427.832031 0)"/>
      <use xlink:href="#LiberationSans-Bold-72" transform="translate(488.916016 0)"/>
      <use xlink:href="#LiberationSans-Bold-63" transform="translate(527.832031 0)"/>
      <use xlink:href="#LiberationSans-Bold-65" transform="translate(583.447266 0)"/>
     </g>
    </g>
   </g>
   <g id="patch_3">
    <path d="M 68.603125 509.688482 
L 574.123125 509.688482 
L 510.933125 266.517054 
L 321.363125 120.614196 
L 68.603125 71.979911 
z
" clip-path="url(#pc035953acb)" style="fill: #2196f3; opacity: 0.15; stroke: #2196f3; stroke-width: 2; stroke-linejoin: miter"/>
   </g>
   <g id="line2d_25">
    <path d="M 68.603125 509.688482 
L 574.123125 509.688482 
L 510.933125 266.517054 
L 321.363125 120.614196 
" clip-path="url(#pc035953acb)" style="fill: none; stroke: #ff0000; stroke-width: 2.5; stroke-linecap: round"/>
    <defs>
     <path id="md9fa8ca3c6" d="M 0 5 
C 1.326016 5 2.597899 4.473168 3.535534 3.535534 
C 4.473168 2.597899 5 1.326016 5 0 
C 5 -1.326016 4.473168 -2.597899 3.535534 -3.535534 
C 2.597899 -4.473168 1.326016 -5 0 -5 
C -1.326016 -5 -2.597899 -4.473168 -3.535534 -3.535534 
C -4.473168 -2.597899 -5 -1.326016 -5 0 
C -5 1.326016 -4.473168 2.597899 -3.535534 3.535534 
C -2.597899 4.473168 -1.326016 5 0 5 
z
" style="stroke: #8b0000; stroke-width: 2"/>
    </defs>
    <g clip-path="url(#pc035953acb)">
     <use xlink:href="#md9fa8ca3c6" x="68.603125" y="509.688482" style="fill: #ff0000; stroke: #8b0000; stroke-width: 2"/>
     <use xlink:href="#md9fa8ca3c6" x="574.123125" y="509.688482" style="fill: #ff0000; stroke: #8b0000; stroke-width: 2"/>
     <use xlink:href="#md9fa8ca3c6" x="510.933125" y="266.517054" style="fill: #ff0000; stroke: #8b0000; stroke-width: 2"/>
     <use xlink:href="#md9fa8ca3c6" x="321.363125" y="120.614196" style="fill: #ff0000; stroke: #8b0000; stroke-width: 2"/>
    </g>
   </g>
   <g id="line2d_26">
    <path d="M 68.603125 71.979911 
L 574.123125 509.688482 
" clip-path="url(#pc035953acb)" style="fill: none; stroke-dasharray: 5.55,2.4; stroke-dashoffset: 0; stroke: #7b1fa2; stroke-opacity: 0.6; stroke-width: 1.5"/>
   </g>
   <g id="line2d_27">
    <path d="M 68.603125 120.614196 
L 700.503125 509.688482 
" clip-path="url(#pc035953acb)" style="fill: none; stroke-dasharray: 5.55,2.4; stroke-dashoffset: 0; stroke: #388e3c; stroke-opacity: 0.6; stroke-width: 1.5"/>
   </g>
   <g id="patch_4">
    <path d="M 37.008125 534.005625 
L 37.008125 23.345625 
" style="fill: none"/>
   </g>
   <g id="patch_5">
    <path d="M 700.503125 534.005625 
L 700.503125 23.345625 
" style="fill: none"/>
   </g>
   <g id="patch_6">
    <path d="M 37.008125 534.005625 
L 700.503125 534.005625 
" style="fill: none"/>
   </g>
   <g id="patch_7">
    <path d="M 37.008125 23.345625 
L 700.503125 23.345625 
" style="fill: none"/>
   </g>
   <g id="text_15">
    <g id="patch_8">
     <path d="M 64.07625 476.856054 
L 136.32 476.856054 
Q 140.32 476.856054 140.32 472.856054 
L 140.32 452.762929 
Q 140.32 448.762929 136.32 448.762929 
L 64.07625 448.762929 
Q 60.07625 448.762929 60.07625 452.762929 
L 60.07625 472.856054 
Q 60.07625 476.856054 64.07625 476.856054 
z
" style="fill: #ffff00; opacity: 0.7; stroke: #000000; stroke-linejoin: miter"/>
    </g>
    <!-- Start -->
    <g style="fill: #262626" transform="translate(88.806719 460.009804) scale(0.1 -0.1)">
     <defs>
      <path id="LiberationSans-Bold-53" d="M 4019 1269 
Q 4019 622 3539 279 
Q 3059 -63 2131 -63 
Q 1284 -63 803 237 
Q 322 538 184 1147 
L 1075 1294 
Q 1166 944 1428 786 
Q 1691 628 2156 628 
Q 3122 628 3122 1216 
Q 3122 1403 3011 1525 
Q 2900 1647 2698 1728 
Q 2497 1809 1925 1925 
Q 1431 2041 1237 2111 
Q 1044 2181 887 2276 
Q 731 2372 622 2506 
Q 513 2641 452 2822 
Q 391 3003 391 3238 
Q 391 3834 839 4151 
Q 1288 4469 2144 4469 
Q 2963 4469 3373 4212 
Q 3784 3956 3903 3366 
L 3009 3244 
Q 2941 3528 2730 3672 
Q 2519 3816 2125 3816 
Q 1288 3816 1288 3291 
Q 1288 3119 1377 3009 
Q 1466 2900 1641 2823 
Q 1816 2747 2350 2631 
Q 2984 2497 3257 2383 
Q 3531 2269 3690 2117 
Q 3850 1966 3934 1755 
Q 4019 1544 4019 1269 
z
" transform="scale(0.015625)"/>
     </defs>
     <use xlink:href="#LiberationSans-Bold-53"/>
     <use xlink:href="#LiberationSans-Bold-74" transform="translate(66.699219 0)"/>
     <use xlink:href="#LiberationSans-Bold-61" transform="translate(100 0)"/>
     <use xlink:href="#LiberationSans-Bold-72" transform="translate(155.615234 0)"/>
     <use xlink:href="#LiberationSans-Bold-74" transform="translate(194.53125 0)"/>
    </g>
    <!-- (basic feasible) -->
    <g style="fill: #262626" transform="translate(64.07625 470.781054) scale(0.1 -0.1)">
     <defs>
      <path id="LiberationSans-Bold-28" d="M 1247 -1328 
Q 756 -622 537 81 
Q 319 784 319 1659 
Q 319 2531 537 3232 
Q 756 3934 1247 4638 
L 2125 4638 
Q 1631 3925 1407 3219 
Q 1184 2513 1184 1656 
Q 1184 803 1406 101 
Q 1628 -600 2125 -1328 
L 1247 -1328 
z
" transform="scale(0.015625)"/>
      <path id="LiberationSans-Bold-62" d="M 3647 1703 
Q 3647 866 3311 401 
Q 2975 -63 2350 -63 
Q 1991 -63 1728 93 
Q 1466 250 1325 544 
L 1319 544 
Q 1319 434 1305 243 
Q 1291 53 1275 0 
L 422 0 
Q 447 291 447 772 
L 447 4638 
L 1325 4638 
L 1325 3344 
L 1313 2794 
L 1325 2794 
Q 1622 3444 2406 3444 
Q 3006 3444 3326 2989 
Q 3647 2534 3647 1703 
z
M 2731 1703 
Q 2731 2278 2562 2556 
Q 2394 2834 2041 2834 
Q 1684 2834 1498 2536 
Q 1313 2238 1313 1675 
Q 1313 1138 1495 838 
Q 1678 538 2034 538 
Q 2731 538 2731 1703 
z
" transform="scale(0.015625)"/>
      <path id="LiberationSans-Bold-73" d="M 3297 988 
Q 3297 497 2895 217 
Q 2494 -63 1784 -63 
Q 1088 -63 717 157 
Q 347 378 225 844 
L 997 959 
Q 1063 719 1223 619 
Q 1384 519 1784 519 
Q 2153 519 2322 612 
Q 2491 706 2491 906 
Q 2491 1069 2355 1164 
Q 2219 1259 1894 1325 
Q 1150 1472 890 1598 
Q 631 1725 495 1926 
Q 359 2128 359 2422 
Q 359 2906 732 3176 
Q 1106 3447 1791 3447 
Q 2394 3447 2761 3212 
Q 3128 2978 3219 2534 
L 2441 2453 
Q 2403 2659 2256 2761 
Q 2109 2863 1791 2863 
Q 1478 2863 1322 2783 
Q 1166 2703 1166 2516 
Q 1166 2369 1286 2283 
Q 1406 2197 1691 2141 
Q 2088 2059 2395 1973 
Q 2703 1888 2889 1769 
Q 3075 1650 3186 1464 
Q 3297 1278 3297 988 
z
" transform="scale(0.015625)"/>
      <path id="LiberationSans-Bold-66" d="M 1478 2788 
L 1478 0 
L 603 0 
L 603 2788 
L 109 2788 
L 109 3381 
L 603 3381 
L 603 3734 
Q 603 4194 847 4416 
Q 1091 4638 1588 4638 
Q 1834 4638 2144 4588 
L 2144 4022 
Q 2016 4050 1888 4050 
Q 1663 4050 1570 3961 
Q 1478 3872 1478 3647 
L 1478 3381 
L 2144 3381 
L 2144 2788 
L 1478 2788 
z
" transform="scale(0.015625)"/>
      <path id="LiberationSans-Bold-29" d="M 6 -1328 
Q 506 -597 726 101 
Q 947 800 947 1656 
Q 947 2516 722 3223 
Q 497 3931 6 4638 
L 884 4638 
Q 1378 3928 1595 3225 
Q 1813 2522 1813 1659 
Q 1813 791 1595 87 
Q 1378 -616 884 -1328 
L 6 -1328 
z
" transform="scale(0.015625)"/>
     </defs>
     <use xlink:href="#LiberationSans-Bold-28"/>
     <use xlink:href="#LiberationSans-Bold-62" transform="translate(33.300781 0)"/>
     <use xlink:href="#LiberationSans-Bold-61" transform="translate(94.384766 0)"/>
     <use xlink:href="#LiberationSans-Bold-73" transform="translate(150 0)"/>
     <use xlink:href="#LiberationSans-Bold-69" transform="translate(205.615234 0)"/>
     <use xlink:href="#LiberationSans-Bold-63" transform="translate(233.398438 0)"/>
     <use xlink:href="#LiberationSans-Bold-20" transform="translate(289.013672 0)"/>
     <use xlink:href="#LiberationSans-Bold-66" transform="translate(316.796875 0)"/>
     <use xlink:href="#LiberationSans-Bold-65" transform="translate(350.097656 0)"/>
     <use xlink:href="#LiberationSans-Bold-61" transform="translate(405.712891 0)"/>
     <use xlink:href="#LiberationSans-Bold-73" transform="translate(461.328125 0)"/>
     <use xlink:href="#LiberationSans-Bold-69" transform="translate(516.943359 0)"/>
     <use xlink:href="#LiberationSans-Bold-62" transform="translate(544.726562 0)"/>
     <use xlink:href="#LiberationSans-Bold-6c" transform="translate(605.810547 0)"/>
     <use xlink:href="#LiberationSans-Bold-65" transform="translate(633.59375 0)"/>
     <use xlink:href="#LiberationSans-Bold-29" transform="translate(689.208984 0)"/>
    </g>
   </g>
   <g id="text_16">
    <g id="patch_9">
     <path d="M 581.825937 476.856054 
L 629.610312 476.856054 
Q 633.610312 476.856054 633.610312 472.856054 
L 633.610312 463.534179 
Q 633.610312 459.534179 629.610312 459.534179 
L 581.825937 459.534179 
Q 577.825937 459.534179 577.825937 463.534179 
L 577.825937 472.856054 
Q 577.825937 476.856054 581.825937 476.856054 
z
" style="fill: #ffff00; opacity: 0.7; stroke: #000000; stroke-linejoin: miter"/>
    </g>
    <!-- Iteration 1 -->
    <g style="fill: #262626" transform="translate(581.825937 470.781054) scale(0.1 -0.1)">
     <defs>
      <path id="LiberationSans-Bold-49" d="M 428 0 
L 428 4403 
L 1350 4403 
L 1350 0 
L 428 0 
z
" transform="scale(0.015625)"/>
      <path id="LiberationSans-Bold-6e" d="M 2638 0 
L 2638 1897 
Q 2638 2788 2034 2788 
Q 1716 2788 1520 2514 
Q 1325 2241 1325 1813 
L 1325 0 
L 447 0 
L 447 2625 
Q 447 2897 439 3070 
Q 431 3244 422 3381 
L 1259 3381 
Q 1269 3322 1284 3064 
Q 1300 2806 1300 2709 
L 1313 2709 
Q 1491 3097 1759 3272 
Q 2028 3447 2400 3447 
Q 2938 3447 3225 3115 
Q 3513 2784 3513 2147 
L 3513 0 
L 2638 0 
z
" transform="scale(0.015625)"/>
      <path id="LiberationSans-Bold-31" d="M 403 0 
L 403 653 
L 1494 653 
L 1494 3656 
L 438 2997 
L 438 3688 
L 1541 4403 
L 2372 4403 
L 2372 653 
L 3381 653 
L 3381 0 
L 403 0 
z
" transform="scale(0.015625)"/>
     </defs>
     <use xlink:href="#LiberationSans-Bold-49"/>
     <use xlink:href="#LiberationSans-Bold-74" transform="translate(27.783203 0)"/>
     <use xlink:href="#LiberationSans-Bold-65" transform="translate(61.083984 0)"/>
     <use xlink:href="#LiberationSans-Bold-72" transform="translate(116.699219 0)"/>
     <use xlink:href="#LiberationSans-Bold-61" transform="translate(155.615234 0)"/>
     <use xlink:href="#LiberationSans-Bold-74" transform="translate(211.230469 0)"/>
     <use xlink:href="#LiberationSans-Bold-69" transform="translate(244.53125 0)"/>
     <use xlink:href="#LiberationSans-Bold-6f" transform="translate(272.314453 0)"/>
     <use xlink:href="#LiberationSans-Bold-6e" transform="translate(333.398438 0)"/>
     <use xlink:href="#LiberationSans-Bold-20" transform="translate(394.482422 0)"/>
     <use xlink:href="#LiberationSans-Bold-31" transform="translate(422.265625 0)"/>
    </g>
   </g>
   <g id="text_17">
    <g id="patch_10">
     <path d="M 518.635937 233.684625 
L 566.420312 233.684625 
Q 570.420312 233.684625 570.420312 229.684625 
L 570.420312 220.36275 
Q 570.420312 216.36275 566.420312 216.36275 
L 518.635937 216.36275 
Q 514.635937 216.36275 514.635937 220.36275 
L 514.635937 229.684625 
Q 514.635937 233.684625 518.635937 233.684625 
z
" style="fill: #ffff00; opacity: 0.7; stroke: #000000; stroke-linejoin: miter"/>
    </g>
    <!-- Iteration 2 -->
    <g style="fill: #262626" transform="translate(518.635937 227.609625) scale(0.1 -0.1)">
     <defs>
      <path id="LiberationSans-Bold-32" d="M 222 0 
L 222 609 
Q 394 988 711 1347 
Q 1028 1706 1509 2097 
Q 1972 2472 2158 2715 
Q 2344 2959 2344 3194 
Q 2344 3769 1766 3769 
Q 1484 3769 1336 3617 
Q 1188 3466 1144 3163 
L 259 3213 
Q 334 3825 717 4147 
Q 1100 4469 1759 4469 
Q 2472 4469 2853 4144 
Q 3234 3819 3234 3231 
Q 3234 2922 3112 2672 
Q 2991 2422 2800 2211 
Q 2609 2000 2376 1815 
Q 2144 1631 1925 1456 
Q 1706 1281 1526 1103 
Q 1347 925 1259 722 
L 3303 722 
L 3303 0 
L 222 0 
z
" transform="scale(0.015625)"/>
     </defs>
     <use xlink:href="#LiberationSans-Bold-49"/>
     <use xlink:href="#LiberationSans-Bold-74" transform="translate(27.783203 0)"/>
     <use xlink:href="#LiberationSans-Bold-65" transform="translate(61.083984 0)"/>
     <use xlink:href="#LiberationSans-Bold-72" transform="translate(116.699219 0)"/>
     <use xlink:href="#LiberationSans-Bold-61" transform="translate(155.615234 0)"/>
     <use xlink:href="#LiberationSans-Bold-74" transform="translate(211.230469 0)"/>
     <use xlink:href="#LiberationSans-Bold-69" transform="translate(244.53125 0)"/>
     <use xlink:href="#LiberationSans-Bold-6f" transform="translate(272.314453 0)"/>
     <use xlink:href="#LiberationSans-Bold-6e" transform="translate(333.398438 0)"/>
     <use xlink:href="#LiberationSans-Bold-20" transform="translate(394.482422 0)"/>
     <use xlink:href="#LiberationSans-Bold-32" transform="translate(422.265625 0)"/>
    </g>
   </g>
   <g id="text_18">
    <g id="patch_11">
     <path d="M 322.683906 87.781768 
L 383.232344 87.781768 
Q 387.232344 87.781768 387.232344 83.781768 
L 387.232344 63.688643 
Q 387.232344 59.688643 383.232344 59.688643 
L 322.683906 59.688643 
Q 318.683906 59.688643 318.683906 63.688643 
L 318.683906 83.781768 
Q 318.683906 87.781768 322.683906 87.781768 
z
" style="fill: #ffff00; opacity: 0.7; stroke: #000000; stroke-linejoin: miter"/>
    </g>
    <!-- Optimal -->
    <g style="fill: #262626" transform="translate(334.345625 70.935518) scale(0.1 -0.1)">
     <defs>
      <path id="LiberationSans-Bold-4f" d="M 4709 2222 
Q 4709 1534 4437 1012 
Q 4166 491 3659 214 
Q 3153 -63 2478 -63 
Q 1441 -63 852 548 
Q 263 1159 263 2222 
Q 263 3281 850 3875 
Q 1438 4469 2484 4469 
Q 3531 4469 4120 3869 
Q 4709 3269 4709 2222 
z
M 3769 2222 
Q 3769 2934 3431 3339 
Q 3094 3744 2484 3744 
Q 1866 3744 1528 3342 
Q 1191 2941 1191 2222 
Q 1191 1497 1536 1080 
Q 1881 663 2478 663 
Q 3097 663 3433 1069 
Q 3769 1475 3769 2222 
z
" transform="scale(0.015625)"/>
      <path id="LiberationSans-Bold-70" d="M 3647 1706 
Q 3647 859 3308 398 
Q 2969 -63 2350 -63 
Q 1994 -63 1730 92 
Q 1466 247 1325 538 
L 1306 538 
Q 1325 444 1325 -31 
L 1325 -1328 
L 447 -1328 
L 447 2603 
Q 447 3081 422 3381 
L 1275 3381 
Q 1291 3325 1302 3159 
Q 1313 2994 1313 2831 
L 1325 2831 
Q 1622 3453 2406 3453 
Q 2997 3453 3322 2998 
Q 3647 2544 3647 1706 
z
M 2731 1706 
Q 2731 2844 2034 2844 
Q 1684 2844 1498 2537 
Q 1313 2231 1313 1681 
Q 1313 1134 1498 836 
Q 1684 538 2028 538 
Q 2731 538 2731 1706 
z
" transform="scale(0.015625)"/>
      <path id="LiberationSans-Bold-6d" d="M 2438 0 
L 2438 1897 
Q 2438 2788 1925 2788 
Q 1659 2788 1492 2516 
Q 1325 2244 1325 1813 
L 1325 0 
L 447 0 
L 447 2625 
Q 447 2897 439 3070 
Q 431 3244 422 3381 
L 1259 3381 
Q 1269 3322 1284 3064 
Q 1300 2806 1300 2709 
L 1313 2709 
Q 1475 3097 1717 3272 
Q 1959 3447 2297 3447 
Q 3072 3447 3238 2709 
L 3256 2709 
Q 3428 3103 3668 3275 
Q 3909 3447 4281 3447 
Q 4775 3447 5034 3111 
Q 5294 2775 5294 2147 
L 5294 0 
L 4422 0 
L 4422 1897 
Q 4422 2788 3909 2788 
Q 3653 2788 3489 2539 
Q 3325 2291 3309 1853 
L 3309 0 
L 2438 0 
z
" transform="scale(0.015625)"/>
     </defs>
     <use xlink:href="#LiberationSans-Bold-4f"/>
     <use xlink:href="#LiberationSans-Bold-70" transform="translate(77.783203 0)"/>
     <use xlink:href="#LiberationSans-Bold-74" transform="translate(138.867188 0)"/>
     <use xlink:href="#LiberationSans-Bold-69" transform="translate(172.167969 0)"/>
     <use xlink:href="#LiberationSans-Bold-6d" transform="translate(199.951172 0)"/>
     <use xlink:href="#LiberationSans-Bold-61" transform="translate(288.867188 0)"/>
     <use xlink:href="#LiberationSans-Bold-6c" transform="translate(344.482422 0)"/>
    </g>
    <!-- (equilibrium) -->
    <g style="fill: #262626" transform="translate(322.683906 81.706768) scale(0.1 -0.1)">
     <defs>
      <path id="LiberationSans-Bold-71" d="M 263 1688 
Q 263 2525 605 2986 
Q 947 3447 1569 3447 
Q 2306 3447 2591 2838 
Q 2591 2981 2608 3157 
Q 2625 3334 2638 3381 
L 3481 3381 
Q 3463 3044 3463 2603 
L 3463 -1328 
L 2591 -1328 
L 2591 78 
L 2606 563 
L 2600 563 
Q 2309 -63 1497 -63 
Q 906 -63 584 398 
Q 263 859 263 1688 
z
M 2597 1706 
Q 2597 2247 2415 2545 
Q 2234 2844 1881 2844 
Q 1178 2844 1178 1688 
Q 1178 538 1875 538 
Q 2219 538 2408 842 
Q 2597 1147 2597 1706 
z
" transform="scale(0.015625)"/>
     </defs>
     <use xlink:href="#LiberationSans-Bold-28"/>
     <use xlink:href="#LiberationSans-Bold-65" transform="translate(33.300781 0)"/>
     <use xlink:href="#LiberationSans-Bold-71" transform="translate(88.916016 0)"/>
     <use xlink:href="#LiberationSans-Bold-75" transform="translate(150 0)"/>
     <use xlink:href="#LiberationSans-Bold-69" transform="translate(211.083984 0)"/>
     <use xlink:href="#LiberationSans-Bold-6c" transform="translate(238.867188 0)"/>
     <use xlink:href="#LiberationSans-Bold-69" transform="translate(266.650391 0)"/>
     <use xlink:href="#LiberationSans-Bold-62" transform="translate(294.433594 0)"/>
     <use xlink:href="#LiberationSans-Bold-72" transform="translate(355.517578 0)"/>
     <use xlink:href="#LiberationSans-Bold-69" transform="translate(394.433594 0)"/>
     <use xlink:href="#LiberationSans-Bold-75" transform="translate(422.216797 0)"/>
     <use xlink:href="#LiberationSans-Bold-6d" transform="translate(483.300781 0)"/>
     <use xlink:href="#LiberationSans-Bold-29" transform="translate(572.216797 0)"/>
    </g>
   </g>
   <g id="text_19">
    <!-- Simplex Algorithm: Walking Vertices to Find Equilibrium -->
    <g style="fill: #262626" transform="translate(181.822812 17.345625) scale(0.14 -0.14)">
     <defs>
      <path id="LiberationSans-Bold-78" d="M 2559 0 
L 1772 1225 
L 978 0 
L 44 0 
L 1281 1747 
L 103 3381 
L 1050 3381 
L 1772 2275 
L 2491 3381 
L 3444 3381 
L 2266 1756 
L 3513 0 
L 2559 0 
z
" transform="scale(0.015625)"/>
      <path id="LiberationSans-Bold-41" d="M 3541 0 
L 3150 1125 
L 1472 1125 
L 1081 0 
L 159 0 
L 1766 4403 
L 2853 4403 
L 4453 0 
L 3541 0 
z
M 2309 3725 
L 2291 3656 
Q 2259 3544 2215 3400 
Q 2172 3256 1678 1819 
L 2944 1819 
L 2509 3084 
L 2375 3509 
L 2309 3725 
z
" transform="scale(0.015625)"/>
      <path id="LiberationSans-Bold-67" d="M 1863 -1356 
Q 1244 -1356 867 -1120 
Q 491 -884 403 -447 
L 1281 -344 
Q 1328 -547 1483 -662 
Q 1638 -778 1888 -778 
Q 2253 -778 2422 -553 
Q 2591 -328 2591 116 
L 2591 294 
L 2597 628 
L 2591 628 
Q 2300 6 1503 6 
Q 913 6 588 450 
Q 263 894 263 1719 
Q 263 2547 597 2997 
Q 931 3447 1569 3447 
Q 2306 3447 2591 2838 
L 2606 2838 
Q 2606 2947 2620 3134 
Q 2634 3322 2650 3381 
L 3481 3381 
Q 3463 3044 3463 2600 
L 3463 103 
Q 3463 -619 3053 -987 
Q 2644 -1356 1863 -1356 
z
M 2597 1738 
Q 2597 2259 2411 2551 
Q 2225 2844 1881 2844 
Q 1178 2844 1178 1719 
Q 1178 616 1875 616 
Q 2225 616 2411 908 
Q 2597 1200 2597 1738 
z
" transform="scale(0.015625)"/>
      <path id="LiberationSans-Bold-68" d="M 1313 2706 
Q 1491 3094 1759 3269 
Q 2028 3444 2400 3444 
Q 2938 3444 3225 3112 
Q 3513 2781 3513 2144 
L 3513 0 
L 2638 0 
L 2638 1894 
Q 2638 2784 2034 2784 
Q 1716 2784 1520 2511 
Q 1325 2238 1325 1809 
L 1325 0 
L 447 0 
L 447 4638 
L 1325 4638 
L 1325 3372 
Q 1325 3031 1300 2706 
L 1313 2706 
z
" transform="scale(0.015625)"/>
      <path id="LiberationSans-Bold-3a" d="M 616 2350 
L 616 3231 
L 1516 3231 
L 1516 2350 
L 616 2350 
z
M 616 0 
L 616 878 
L 1516 878 
L 1516 0 
L 616 0 
z
" transform="scale(0.015625)"/>
      <path id="LiberationSans-Bold-57" d="M 4897 0 
L 3803 0 
L 3206 2547 
Q 3097 2997 3022 3488 
Q 2947 3078 2900 2864 
Q 2853 2650 2234 0 
L 1141 0 
L 6 4403 
L 941 4403 
L 1578 1559 
L 1722 872 
Q 1809 1306 1892 1701 
Q 1975 2097 2516 4403 
L 3547 4403 
L 4103 2059 
Q 4169 1797 4325 872 
L 4403 1234 
L 4569 1953 
L 5100 4403 
L 6034 4403 
L 4897 0 
z
" transform="scale(0.015625)"/>
      <path id="LiberationSans-Bold-6b" d="M 2606 0 
L 1703 1531 
L 1325 1269 
L 1325 0 
L 447 0 
L 447 4638 
L 1325 4638 
L 1325 1981 
L 2531 3381 
L 3475 3381 
L 2288 2063 
L 3566 0 
L 2606 0 
z
" transform="scale(0.015625)"/>
      <path id="LiberationSans-Bold-64" d="M 2638 0 
Q 2625 47 2608 236 
Q 2591 425 2591 550 
L 2578 550 
Q 2294 -63 1497 -63 
Q 906 -63 584 398 
Q 263 859 263 1688 
Q 263 2528 602 2986 
Q 941 3444 1563 3444 
Q 1922 3444 2183 3294 
Q 2444 3144 2584 2847 
L 2591 2847 
L 2584 3403 
L 2584 4638 
L 3463 4638 
L 3463 738 
Q 3463 425 3488 0 
L 2638 0 
z
M 2597 1709 
Q 2597 2256 2414 2551 
Q 2231 2847 1875 2847 
Q 1522 2847 1350 2561 
Q 1178 2275 1178 1688 
Q 1178 538 1869 538 
Q 2216 538 2406 842 
Q 2597 1147 2597 1709 
z
" transform="scale(0.015625)"/>
      <path id="LiberationSans-Bold-45" d="M 428 0 
L 428 4403 
L 3891 4403 
L 3891 3691 
L 1350 3691 
L 1350 2584 
L 3700 2584 
L 3700 1872 
L 1350 1872 
L 1350 713 
L 4019 713 
L 4019 0 
L 428 0 
z
" transform="scale(0.015625)"/>
     </defs>
     <use xlink:href="#LiberationSans-Bold-53"/>
     <use xlink:href="#LiberationSans-Bold-69" transform="translate(66.699219 0)"/>
     <use xlink:href="#LiberationSans-Bold-6d" transform="translate(94.482422 0)"/>
     <use xlink:href="#LiberationSans-Bold-70" transform="translate(183.398438 0)"/>
     <use xlink:href="#LiberationSans-Bold-6c" transform="translate(244.482422 0)"/>
     <use xlink:href="#LiberationSans-Bold-65" transform="translate(272.265625 0)"/>
     <use xlink:href="#LiberationSans-Bold-78" transform="translate(327.880859 0)"/>
     <use xlink:href="#LiberationSans-Bold-20" transform="translate(383.496094 0)"/>
     <use xlink:href="#LiberationSans-Bold-41" transform="translate(407.529297 0)"/>
     <use xlink:href="#LiberationSans-Bold-6c" transform="translate(479.746094 0)"/>
     <use xlink:href="#LiberationSans-Bold-67" transform="translate(507.529297 0)"/>
     <use xlink:href="#LiberationSans-Bold-6f" transform="translate(568.613281 0)"/>
     <use xlink:href="#LiberationSans-Bold-72" transform="translate(629.697266 0)"/>
     <use xlink:href="#LiberationSans-Bold-69" transform="translate(668.613281 0)"/>
     <use xlink:href="#LiberationSans-Bold-74" transform="translate(696.396484 0)"/>
     <use xlink:href="#LiberationSans-Bold-68" transform="translate(729.697266 0)"/>
     <use xlink:href="#LiberationSans-Bold-6d" transform="translate(790.78125 0)"/>
     <use xlink:href="#LiberationSans-Bold-3a" transform="translate(879.697266 0)"/>
     <use xlink:href="#LiberationSans-Bold-20" transform="translate(912.998047 0)"/>
     <use xlink:href="#LiberationSans-Bold-57" transform="translate(940.78125 0)"/>
     <use xlink:href="#LiberationSans-Bold-61" transform="translate(1031.416016 0)"/>
     <use xlink:href="#LiberationSans-Bold-6c" transform="translate(1087.03125 0)"/>
     <use xlink:href="#LiberationSans-Bold-6b" transform="translate(1114.814453 0)"/>
     <use xlink:href="#LiberationSans-Bold-69" transform="translate(1170.429688 0)"/>
     <use xlink:href="#LiberationSans-Bold-6e" transform="translate(1198.212891 0)"/>
     <use xlink:href="#LiberationSans-Bold-67" transform="translate(1259.296875 0)"/>
     <use xlink:href="#LiberationSans-Bold-20" transform="translate(1320.380859 0)"/>
     <use xlink:href="#LiberationSans-Bold-56" transform="translate(1348.164062 0)"/>
     <use xlink:href="#LiberationSans-Bold-65" transform="translate(1409.363281 0)"/>
     <use xlink:href="#LiberationSans-Bold-72" transform="translate(1464.978516 0)"/>
     <use xlink:href="#LiberationSans-Bold-74" transform="translate(1503.894531 0)"/>
     <use xlink:href="#LiberationSans-Bold-69" transform="translate(1537.195312 0)"/>
     <use xlink:href="#LiberationSans-Bold-63" transform="translate(1564.978516 0)"/>
     <use xlink:href="#LiberationSans-Bold-65" transform="translate(1620.59375 0)"/>
     <use xlink:href="#LiberationSans-Bold-73" transform="translate(1676.208984 0)"/>
     <use xlink:href="#LiberationSans-Bold-20" transform="translate(1731.824219 0)"/>
     <use xlink:href="#LiberationSans-Bold-74" transform="translate(1759.607422 0)"/>
     <use xlink:href="#LiberationSans-Bold-6f" transform="translate(1792.908203 0)"/>
     <use xlink:href="#LiberationSans-Bold-20" transform="translate(1853.992188 0)"/>
     <use xlink:href="#LiberationSans-Bold-46" transform="translate(1881.775391 0)"/>
     <use xlink:href="#LiberationSans-Bold-69" transform="translate(1942.859375 0)"/>
     <use xlink:href="#LiberationSans-Bold-6e" transform="translate(1970.642578 0)"/>
     <use xlink:href="#LiberationSans-Bold-64" transform="translate(2031.726562 0)"/>
     <use xlink:href="#LiberationSans-Bold-20" transform="translate(2092.810547 0)"/>
     <use xlink:href="#LiberationSans-Bold-45" transform="translate(2120.59375 0)"/>
     <use xlink:href="#LiberationSans-Bold-71" transform="translate(2187.292969 0)"/>
     <use xlink:href="#LiberationSans-Bold-75" transform="translate(2248.376953 0)"/>
     <use xlink:href="#LiberationSans-Bold-69" transform="translate(2309.460938 0)"/>
     <use xlink:href="#LiberationSans-Bold-6c" transform="translate(2337.244141 0)"/>
     <use xlink:href="#LiberationSans-Bold-69" transform="translate(2365.027344 0)"/>
     <use xlink:href="#LiberationSans-Bold-62" transform="translate(2392.810547 0)"/>
     <use xlink:href="#LiberationSans-Bold-72" transform="translate(2453.894531 0)"/>
     <use xlink:href="#LiberationSans-Bold-69" transform="translate(2492.810547 0)"/>
     <use xlink:href="#LiberationSans-Bold-75" transform="translate(2520.59375 0)"/>
     <use xlink:href="#LiberationSans-Bold-6d" transform="translate(2581.677734 0)"/>
    </g>
   </g>
   <g id="legend_1">
    <g id="line2d_28">
     <path d="M 568.45625 36.0925 
L 578.45625 36.0925 
L 588.45625 36.0925 
" style="fill: none; stroke: #ff0000; stroke-width: 2.5; stroke-linecap: round"/>
     <g>
      <use xlink:href="#md9fa8ca3c6" x="578.45625" y="36.0925" style="fill: #ff0000; stroke: #8b0000; stroke-width: 2"/>
     </g>
    </g>
    <g id="text_20">
     <!-- Simplex path -->
     <g style="fill: #262626" transform="translate(596.45625 39.5925) scale(0.1 -0.1)">
      <defs>
       <path id="LiberationSans-53" d="M 3975 1216 
Q 3975 606 3498 271 
Q 3022 -63 2156 -63 
Q 547 -63 291 1056 
L 869 1172 
Q 969 775 1294 589 
Q 1619 403 2178 403 
Q 2756 403 3070 601 
Q 3384 800 3384 1184 
Q 3384 1400 3286 1534 
Q 3188 1669 3009 1756 
Q 2831 1844 2584 1903 
Q 2338 1963 2038 2031 
Q 1516 2147 1245 2262 
Q 975 2378 819 2520 
Q 663 2663 580 2853 
Q 497 3044 497 3291 
Q 497 3856 930 4162 
Q 1363 4469 2169 4469 
Q 2919 4469 3316 4239 
Q 3713 4009 3872 3456 
L 3284 3353 
Q 3188 3703 2916 3861 
Q 2644 4019 2163 4019 
Q 1634 4019 1356 3844 
Q 1078 3669 1078 3322 
Q 1078 3119 1186 2986 
Q 1294 2853 1497 2761 
Q 1700 2669 2306 2534 
Q 2509 2488 2711 2439 
Q 2913 2391 3097 2323 
Q 3281 2256 3442 2165 
Q 3603 2075 3722 1944 
Q 3841 1813 3908 1634 
Q 3975 1456 3975 1216 
z
" transform="scale(0.015625)"/>
       <path id="LiberationSans-69" d="M 428 4100 
L 428 4638 
L 991 4638 
L 991 4100 
L 428 4100 
z
M 428 0 
L 428 3381 
L 991 3381 
L 991 0 
L 428 0 
z
" transform="scale(0.015625)"/>
       <path id="LiberationSans-6d" d="M 2400 0 
L 2400 2144 
Q 2400 2634 2265 2821 
Q 2131 3009 1781 3009 
Q 1422 3009 1212 2734 
Q 1003 2459 1003 1959 
L 1003 0 
L 444 0 
L 444 2659 
Q 444 3250 425 3381 
L 956 3381 
Q 959 3366 962 3297 
Q 966 3228 970 3139 
Q 975 3050 981 2803 
L 991 2803 
Q 1172 3163 1406 3303 
Q 1641 3444 1978 3444 
Q 2363 3444 2586 3291 
Q 2809 3138 2897 2803 
L 2906 2803 
Q 3081 3144 3329 3294 
Q 3578 3444 3931 3444 
Q 4444 3444 4676 3166 
Q 4909 2888 4909 2253 
L 4909 0 
L 4353 0 
L 4353 2144 
Q 4353 2634 4218 2821 
Q 4084 3009 3734 3009 
Q 3366 3009 3161 2736 
Q 2956 2463 2956 1959 
L 2956 0 
L 2400 0 
z
" transform="scale(0.015625)"/>
       <path id="LiberationSans-70" d="M 3291 1706 
Q 3291 -63 2047 -63 
Q 1266 -63 997 525 
L 981 525 
Q 994 500 994 -6 
L 994 -1328 
L 431 -1328 
L 431 2691 
Q 431 3213 413 3381 
L 956 3381 
Q 959 3369 965 3292 
Q 972 3216 980 3056 
Q 988 2897 988 2838 
L 1000 2838 
Q 1150 3150 1397 3295 
Q 1644 3441 2047 3441 
Q 2672 3441 2981 3022 
Q 3291 2603 3291 1706 
z
M 2700 1694 
Q 2700 2400 2509 2703 
Q 2319 3006 1903 3006 
Q 1569 3006 1380 2865 
Q 1191 2725 1092 2426 
Q 994 2128 994 1650 
Q 994 984 1206 668 
Q 1419 353 1897 353 
Q 2316 353 2508 661 
Q 2700 969 2700 1694 
z
" transform="scale(0.015625)"/>
       <path id="LiberationSans-6c" d="M 431 0 
L 431 4638 
L 994 4638 
L 994 0 
L 431 0 
z
" transform="scale(0.015625)"/>
       <path id="LiberationSans-65" d="M 863 1572 
Q 863 991 1103 675 
Q 1344 359 1806 359 
Q 2172 359 2392 506 
Q 2613 653 2691 878 
L 3184 738 
Q 2881 -63 1806 -63 
Q 1056 -63 664 384 
Q 272 831 272 1713 
Q 272 2550 664 2997 
Q 1056 3444 1784 3444 
Q 3275 3444 3275 1647 
L 3275 1572 
L 863 1572 
z
M 2694 2003 
Q 2647 2538 2422 2783 
Q 2197 3028 1775 3028 
Q 1366 3028 1127 2754 
Q 888 2481 869 2003 
L 2694 2003 
z
" transform="scale(0.015625)"/>
       <path id="LiberationSans-78" d="M 2503 0 
L 1594 1388 
L 678 0 
L 72 0 
L 1275 1738 
L 128 3381 
L 750 3381 
L 1594 2066 
L 2431 3381 
L 3059 3381 
L 1913 1744 
L 3131 0 
L 2503 0 
z
" transform="scale(0.015625)"/>
       <path id="LiberationSans-20" transform="scale(0.015625)"/>
       <path id="LiberationSans-61" d="M 1294 -63 
Q 784 -63 528 206 
Q 272 475 272 944 
Q 272 1469 617 1750 
Q 963 2031 1731 2050 
L 2491 2063 
L 2491 2247 
Q 2491 2659 2316 2837 
Q 2141 3016 1766 3016 
Q 1388 3016 1216 2887 
Q 1044 2759 1009 2478 
L 422 2531 
Q 566 3444 1778 3444 
Q 2416 3444 2737 3151 
Q 3059 2859 3059 2306 
L 3059 850 
Q 3059 600 3125 473 
Q 3191 347 3375 347 
Q 3456 347 3559 369 
L 3559 19 
Q 3347 -31 3125 -31 
Q 2813 -31 2670 133 
Q 2528 297 2509 647 
L 2491 647 
Q 2275 259 1989 98 
Q 1703 -63 1294 -63 
z
M 1422 359 
Q 1731 359 1972 500 
Q 2213 641 2352 886 
Q 2491 1131 2491 1391 
L 2491 1669 
L 1875 1656 
Q 1478 1650 1273 1575 
Q 1069 1500 959 1344 
Q 850 1188 850 934 
Q 850 659 998 509 
Q 1147 359 1422 359 
z
" transform="scale(0.015625)"/>
       <path id="LiberationSans-74" d="M 1731 25 
Q 1453 -50 1163 -50 
Q 488 -50 488 716 
L 488 2972 
L 97 2972 
L 97 3381 
L 509 3381 
L 675 4138 
L 1050 4138 
L 1050 3381 
L 1675 3381 
L 1675 2972 
L 1050 2972 
L 1050 838 
Q 1050 594 1129 495 
Q 1209 397 1406 397 
Q 1519 397 1731 441 
L 1731 25 
z
" transform="scale(0.015625)"/>
       <path id="LiberationSans-68" d="M 991 2803 
Q 1172 3134 1426 3289 
Q 1681 3444 2072 3444 
Q 2622 3444 2883 3170 
Q 3144 2897 3144 2253 
L 3144 0 
L 2578 0 
L 2578 2144 
Q 2578 2500 2512 2673 
Q 2447 2847 2297 2928 
Q 2147 3009 1881 3009 
Q 1484 3009 1245 2734 
Q 1006 2459 1006 1994 
L 1006 0 
L 444 0 
L 444 4638 
L 1006 4638 
L 1006 3431 
Q 1006 3241 995 3037 
Q 984 2834 981 2803 
L 991 2803 
z
" transform="scale(0.015625)"/>
      </defs>
      <use xlink:href="#LiberationSans-53"/>
      <use xlink:href="#LiberationSans-69" transform="translate(66.699219 0)"/>
      <use xlink:href="#LiberationSans-6d" transform="translate(88.916016 0)"/>
      <use xlink:href="#LiberationSans-70" transform="translate(172.216797 0)"/>
      <use xlink:href="#LiberationSans-6c" transform="translate(227.832031 0)"/>
      <use xlink:href="#LiberationSans-65" transform="translate(250.048828 0)"/>
      <use xlink:href="#LiberationSans-78" transform="translate(305.664062 0)"/>
      <use xlink:href="#LiberationSans-20" transform="translate(355.664062 0)"/>
      <use xlink:href="#LiberationSans-70" transform="translate(383.447266 0)"/>
      <use xlink:href="#LiberationSans-61" transform="translate(439.0625 0)"/>
      <use xlink:href="#LiberationSans-74" transform="translate(494.677734 0)"/>
      <use xlink:href="#LiberationSans-68" transform="translate(522.460938 0)"/>
     </g>
    </g>
    <g id="line2d_29">
     <path d="M 568.45625 50.414375 
L 578.45625 50.414375 
L 588.45625 50.414375 
" style="fill: none; stroke-dasharray: 5.55,2.4; stroke-dashoffset: 0; stroke: #7b1fa2; stroke-opacity: 0.6; stroke-width: 1.5"/>
    </g>
    <g id="text_21">
     <!-- Quality constraint -->
     <g style="fill: #262626" transform="translate(596.45625 53.914375) scale(0.1 -0.1)">
      <defs>
       <path id="LiberationSans-51" d="M 4672 2222 
Q 4672 1291 4203 691 
Q 3734 91 2900 -19 
Q 3028 -413 3236 -588 
Q 3444 -763 3763 -763 
Q 3934 -763 4122 -722 
L 4122 -1141 
Q 3831 -1209 3566 -1209 
Q 3094 -1209 2789 -942 
Q 2484 -675 2291 -50 
Q 1672 -19 1223 264 
Q 775 547 539 1051 
Q 303 1556 303 2222 
Q 303 3278 881 3873 
Q 1459 4469 2491 4469 
Q 3163 4469 3656 4201 
Q 4150 3934 4411 3425 
Q 4672 2916 4672 2222 
z
M 4063 2222 
Q 4063 3044 3652 3512 
Q 3241 3981 2491 3981 
Q 1734 3981 1321 3518 
Q 909 3056 909 2222 
Q 909 1394 1326 908 
Q 1744 422 2484 422 
Q 3247 422 3655 892 
Q 4063 1363 4063 2222 
z
" transform="scale(0.015625)"/>
       <path id="LiberationSans-75" d="M 981 3381 
L 981 1238 
Q 981 903 1047 718 
Q 1113 534 1256 453 
Q 1400 372 1678 372 
Q 2084 372 2318 650 
Q 2553 928 2553 1422 
L 2553 3381 
L 3116 3381 
L 3116 722 
Q 3116 131 3134 0 
L 2603 0 
Q 2600 16 2597 84 
Q 2594 153 2589 242 
Q 2584 331 2578 578 
L 2569 578 
Q 2375 228 2120 82 
Q 1866 -63 1488 -63 
Q 931 -63 673 214 
Q 416 491 416 1128 
L 416 3381 
L 981 3381 
z
" transform="scale(0.015625)"/>
       <path id="LiberationSans-79" d="M 597 -1328 
Q 366 -1328 209 -1294 
L 209 -872 
Q 328 -891 472 -891 
Q 997 -891 1303 -119 
L 1356 16 
L 16 3381 
L 616 3381 
L 1328 1513 
Q 1344 1469 1366 1408 
Q 1388 1347 1506 1000 
Q 1625 653 1634 613 
L 1853 1228 
L 2594 3381 
L 3188 3381 
L 1888 0 
Q 1678 -541 1497 -805 
Q 1316 -1069 1095 -1198 
Q 875 -1328 597 -1328 
z
" transform="scale(0.015625)"/>
       <path id="LiberationSans-63" d="M 859 1706 
Q 859 1031 1071 706 
Q 1284 381 1713 381 
Q 2013 381 2214 543 
Q 2416 706 2463 1044 
L 3031 1006 
Q 2966 519 2616 228 
Q 2266 -63 1728 -63 
Q 1019 -63 645 385 
Q 272 834 272 1694 
Q 272 2547 647 2995 
Q 1022 3444 1722 3444 
Q 2241 3444 2583 3175 
Q 2925 2906 3013 2434 
L 2434 2391 
Q 2391 2672 2212 2837 
Q 2034 3003 1706 3003 
Q 1259 3003 1059 2706 
Q 859 2409 859 1706 
z
" transform="scale(0.015625)"/>
       <path id="LiberationSans-6f" d="M 3291 1694 
Q 3291 806 2900 371 
Q 2509 -63 1766 -63 
Q 1025 -63 647 389 
Q 269 841 269 1694 
Q 269 3444 1784 3444 
Q 2559 3444 2925 3017 
Q 3291 2591 3291 1694 
z
M 2700 1694 
Q 2700 2394 2492 2711 
Q 2284 3028 1794 3028 
Q 1300 3028 1079 2704 
Q 859 2381 859 1694 
Q 859 1025 1076 689 
Q 1294 353 1759 353 
Q 2266 353 2483 678 
Q 2700 1003 2700 1694 
z
" transform="scale(0.015625)"/>
       <path id="LiberationSans-6e" d="M 2578 0 
L 2578 2144 
Q 2578 2478 2512 2662 
Q 2447 2847 2303 2928 
Q 2159 3009 1881 3009 
Q 1475 3009 1240 2731 
Q 1006 2453 1006 1959 
L 1006 0 
L 444 0 
L 444 2659 
Q 444 3250 425 3381 
L 956 3381 
Q 959 3366 962 3297 
Q 966 3228 970 3139 
Q 975 3050 981 2803 
L 991 2803 
Q 1184 3153 1439 3298 
Q 1694 3444 2072 3444 
Q 2628 3444 2886 3167 
Q 3144 2891 3144 2253 
L 3144 0 
L 2578 0 
z
" transform="scale(0.015625)"/>
       <path id="LiberationSans-73" d="M 2969 934 
Q 2969 456 2608 196 
Q 2247 -63 1597 -63 
Q 966 -63 623 145 
Q 281 353 178 794 
L 675 891 
Q 747 619 972 492 
Q 1197 366 1597 366 
Q 2025 366 2223 497 
Q 2422 628 2422 891 
Q 2422 1091 2284 1216 
Q 2147 1341 1841 1422 
L 1438 1528 
Q 953 1653 748 1773 
Q 544 1894 428 2066 
Q 313 2238 313 2488 
Q 313 2950 642 3192 
Q 972 3434 1603 3434 
Q 2163 3434 2492 3237 
Q 2822 3041 2909 2606 
L 2403 2544 
Q 2356 2769 2151 2889 
Q 1947 3009 1603 3009 
Q 1222 3009 1040 2893 
Q 859 2778 859 2544 
Q 859 2400 934 2306 
Q 1009 2213 1156 2147 
Q 1303 2081 1775 1966 
Q 2222 1853 2419 1758 
Q 2616 1663 2730 1547 
Q 2844 1431 2906 1279 
Q 2969 1128 2969 934 
z
" transform="scale(0.015625)"/>
       <path id="LiberationSans-72" d="M 444 0 
L 444 2594 
Q 444 2950 425 3381 
L 956 3381 
Q 981 2806 981 2691 
L 994 2691 
Q 1128 3125 1303 3284 
Q 1478 3444 1797 3444 
Q 1909 3444 2025 3413 
L 2025 2897 
Q 1913 2928 1725 2928 
Q 1375 2928 1190 2626 
Q 1006 2325 1006 1763 
L 1006 0 
L 444 0 
z
" transform="scale(0.015625)"/>
      </defs>
      <use xlink:href="#LiberationSans-51"/>
      <use xlink:href="#LiberationSans-75" transform="translate(77.783203 0)"/>
      <use xlink:href="#LiberationSans-61" transform="translate(133.398438 0)"/>
      <use xlink:href="#LiberationSans-6c" transform="translate(189.013672 0)"/>
      <use xlink:href="#LiberationSans-69" transform="translate(211.230469 0)"/>
      <use xlink:href="#LiberationSans-74" transform="translate(233.447266 0)"/>
      <use xlink:href="#LiberationSans-79" transform="translate(261.230469 0)"/>
      <use xlink:href="#LiberationSans-20" transform="translate(311.230469 0)"/>
      <use xlink:href="#LiberationSans-63" transform="translate(339.013672 0)"/>
      <use xlink:href="#LiberationSans-6f" transform="translate(389.013672 0)"/>
      <use xlink:href="#LiberationSans-6e" transform="translate(444.628906 0)"/>
      <use xlink:href="#LiberationSans-73" transform="translate(500.244141 0)"/>
      <use xlink:href="#LiberationSans-74" transform="translate(550.244141 0)"/>
      <use xlink:href="#LiberationSans-72" transform="translate(578.027344 0)"/>
      <use xlink:href="#LiberationSans-61" transform="translate(611.328125 0)"/>
      <use xlink:href="#LiberationSans-69" transform="translate(666.943359 0)"/>
      <use xlink:href="#LiberationSans-6e" transform="translate(689.160156 0)"/>
      <use xlink:href="#LiberationSans-74" transform="translate(744.775391 0)"/>
     </g>
    </g>
    <g id="line2d_30">
     <path d="M 568.45625 64.73625 
L 578.45625 64.73625 
L 588.45625 64.73625 
" style="fill: none; stroke-dasharray: 5.55,2.4; stroke-dashoffset: 0; stroke: #388e3c; stroke-opacity: 0.6; stroke-width: 1.5"/>
    </g>
    <g id="text_22">
     <!-- Coherence constraint -->
     <g style="fill: #262626" transform="translate(596.45625 68.23625) scale(0.1 -0.1)">
      <defs>
       <path id="LiberationSans-43" d="M 2475 3981 
Q 1744 3981 1337 3511 
Q 931 3041 931 2222 
Q 931 1413 1354 920 
Q 1778 428 2500 428 
Q 3425 428 3891 1344 
L 4378 1100 
Q 4106 531 3614 234 
Q 3122 -63 2472 -63 
Q 1806 -63 1320 214 
Q 834 491 579 1005 
Q 325 1519 325 2222 
Q 325 3275 894 3872 
Q 1463 4469 2469 4469 
Q 3172 4469 3644 4194 
Q 4116 3919 4338 3378 
L 3772 3191 
Q 3619 3575 3280 3778 
Q 2941 3981 2475 3981 
z
" transform="scale(0.015625)"/>
      </defs>
      <use xlink:href="#LiberationSans-43"/>
      <use xlink:href="#LiberationSans-6f" transform="translate(72.216797 0)"/>
      <use xlink:href="#LiberationSans-68" transform="translate(127.832031 0)"/>
      <use xlink:href="#LiberationSans-65" transform="translate(183.447266 0)"/>
      <use xlink:href="#LiberationSans-72" transform="translate(239.0625 0)"/>
      <use xlink:href="#LiberationSans-65" transform="translate(272.363281 0)"/>
      <use xlink:href="#LiberationSans-6e" transform="translate(327.978516 0)"/>
      <use xlink:href="#LiberationSans-63" transform="translate(383.59375 0)"/>
      <use xlink:href="#LiberationSans-65" transform="translate(433.59375 0)"/>
      <use xlink:href="#LiberationSans-20" transform="translate(489.208984 0)"/>
      <use xlink:href="#LiberationSans-63" transform="translate(516.992188 0)"/>
      <use xlink:href="#LiberationSans-6f" transform="translate(566.992188 0)"/>
      <use xlink:href="#LiberationSans-6e" transform="translate(622.607422 0)"/>
      <use xlink:href="#LiberationSans-73" transform="translate(678.222656 0)"/>
      <use xlink:href="#LiberationSans-74" transform="translate(728.222656 0)"/>
      <use xlink:href="#LiberationSans-72" transform="translate(756.005859 0)"/>
      <use xlink:href="#LiberationSans-61" transform="translate(789.306641 0)"/>
      <use xlink:href="#LiberationSans-69" transform="translate(844.921875 0)"/>
      <use xlink:href="#LiberationSans-6e" transform="translate(867.138672 0)"/>
      <use xlink:href="#LiberationSans-74" transform="translate(922.753906 0)"/>
     </g>
    </g>
   </g>
  </g>
 </g>
 <defs>
  <clipPath id="pc035953acb">
   <rect x="37.008125" y="23.345625" width="663.495" height="510.66"/>
  </clipPath>
 </defs>
</svg>
