<?xml version="1.0" encoding="utf-8" standalone="no"?>
<!DOCTYPE svg PUBLIC "-//W3C//DTD SVG 1.1//EN"
  "http://www.w3.org/Graphics/SVG/1.1/DTD/svg11.dtd">
<svg xmlns:xlink="http://www.w3.org/1999/xlink" width="1000.8pt" height="426.6675pt" viewBox="0 0 1000.8 426.6675" xmlns="http://www.w3.org/2000/svg" version="1.1">
 <metadata>
  <rdf:RDF xmlns:dc="http://purl.org/dc/elements/1.1/" xmlns:cc="http://creativecommons.org/ns#" xmlns:rdf="http://www.w3.org/1999/02/22-rdf-syntax-ns#">
   <cc:Work>
    <dc:type rdf:resource="http://purl.org/dc/dcmitype/StillImage"/>
    <dc:date>2025-11-16T16:27:54.128276</dc:date>
    <dc:format>image/svg+xml</dc:format>
    <dc:creator>
     <cc:Agent>
      <dc:title>Matplotlib v3.10.7, https://matplotlib.org/</dc:title>
     </cc:Agent>
    </dc:creator>
   </cc:Work>
  </rdf:RDF>
 </metadata>
 <defs>
  <style type="text/css">*{stroke-linejoin: round; stroke-linecap: butt}</style>
 </defs>
 <g id="figure_1">
  <g id="patch_1">
   <path d="M 0 426.6675 
L 1000.8 426.6675 
L 1000.8 0 
L 0 0 
z
" style="fill: #ffffff"/>
  </g>
  <g id="axes_1">
   <g id="patch_2">
    <path d="M 55.98 167.22 
L 446.22 167.22 
L 446.22 136.404 
L 55.98 136.404 
z
" clip-path="url(#pac7b77d0f6)" style="fill: #90ee90; stroke: #000000; stroke-linejoin: miter"/>
   </g>
   <g id="patch_3">
    <path d="M 55.98 225 
L 446.22 225 
L 446.22 194.184 
L 55.98 194.184 
z
" clip-path="url(#pac7b77d0f6)" style="fill: #90ee90; stroke: #000000; stroke-linejoin: miter"/>
   </g>
   <g id="patch_4">
    <path d="M 55.98 282.78 
L 446.22 282.78 
L 446.22 251.964 
L 55.98 251.964 
z
" clip-path="url(#pac7b77d0f6)" style="fill: #90ee90; stroke: #000000; stroke-linejoin: miter"/>
   </g>
   <g id="patch_5">
    <path d="M 55.98 340.56 
L 446.22 340.56 
L 446.22 309.744 
L 55.98 309.744 
z
" clip-path="url(#pac7b77d0f6)" style="fill: #90ee90; stroke: #000000; stroke-linejoin: miter"/>
   </g>
   <g id="patch_6">
    <path d="M 251.1 329.004 
L 238.905 321.3 
L 250.8561 321.3 
L 250.8561 282.78 
L 251.3439 282.78 
L 251.3439 321.3 
L 263.295 321.3 
z
" clip-path="url(#pac7b77d0f6)" style="fill: #ff0000; stroke: #ff0000; stroke-linejoin: miter"/>
   </g>
   <g id="text_1">
    <!-- Naive Verification -->
    <g style="fill: #262626" transform="translate(196.912344 70.92) scale(0.13 -0.13)">
     <defs>
      <path id="LiberationSans-Bold-4e" d="M 3109 0 
L 1191 3391 
Q 1247 2897 1247 2597 
L 1247 0 
L 428 0 
L 428 4403 
L 1481 4403 
L 3428 984 
Q 3372 1456 3372 1844 
L 3372 4403 
L 4191 4403 
L 4191 0 
L 3109 0 
z
" transform="scale(0.015625)"/>
      <path id="LiberationSans-Bold-61" d="M 1228 -63 
Q 738 -63 463 204 
Q 188 472 188 956 
Q 188 1481 530 1756 
Q 872 2031 1522 2038 
L 2250 2050 
L 2250 2222 
Q 2250 2553 2134 2714 
Q 2019 2875 1756 2875 
Q 1513 2875 1398 2764 
Q 1284 2653 1256 2397 
L 341 2441 
Q 425 2934 792 3189 
Q 1159 3444 1794 3444 
Q 2434 3444 2781 3128 
Q 3128 2813 3128 2231 
L 3128 1000 
Q 3128 716 3192 608 
Q 3256 500 3406 500 
Q 3506 500 3600 519 
L 3600 44 
Q 3522 25 3459 9 
Q 3397 -6 3334 -15 
Q 3272 -25 3201 -31 
Q 3131 -38 3038 -38 
Q 2706 -38 2548 125 
Q 2391 288 2359 603 
L 2341 603 
Q 1972 -63 1228 -63 
z
M 2250 1566 
L 1800 1559 
Q 1494 1547 1366 1492 
Q 1238 1438 1170 1325 
Q 1103 1213 1103 1025 
Q 1103 784 1214 667 
Q 1325 550 1509 550 
Q 1716 550 1886 662 
Q 2056 775 2153 973 
Q 2250 1172 2250 1394 
L 2250 1566 
z
" transform="scale(0.015625)"/>
      <path id="LiberationSans-Bold-69" d="M 447 3991 
L 447 4638 
L 1325 4638 
L 1325 3991 
L 447 3991 
z
M 447 0 
L 447 3381 
L 1325 3381 
L 1325 0 
L 447 0 
z
" transform="scale(0.015625)"/>
      <path id="LiberationSans-Bold-76" d="M 2284 0 
L 1234 0 
L 25 3381 
L 953 3381 
L 1544 1491 
Q 1591 1334 1766 709 
Q 1797 838 1894 1159 
Q 1991 1481 2613 3381 
L 3531 3381 
L 2284 0 
z
" transform="scale(0.015625)"/>
      <path id="LiberationSans-Bold-65" d="M 1831 -63 
Q 1069 -63 659 389 
Q 250 841 250 1706 
Q 250 2544 665 2994 
Q 1081 3444 1844 3444 
Q 2572 3444 2956 2961 
Q 3341 2478 3341 1547 
L 3341 1522 
L 1172 1522 
Q 1172 1028 1355 776 
Q 1538 525 1875 525 
Q 2341 525 2463 928 
L 3291 856 
Q 2931 -63 1831 -63 
z
M 1831 2891 
Q 1522 2891 1355 2675 
Q 1188 2459 1178 2072 
L 2491 2072 
Q 2466 2481 2294 2686 
Q 2122 2891 1831 2891 
z
" transform="scale(0.015625)"/>
      <path id="LiberationSans-Bold-20" transform="scale(0.015625)"/>
      <path id="LiberationSans-Bold-56" d="M 2606 0 
L 1672 0 
L 44 4403 
L 1006 4403 
L 1913 1575 
Q 1997 1300 2144 744 
L 2209 1013 
L 2369 1575 
L 3272 4403 
L 4225 4403 
L 2606 0 
z
" transform="scale(0.015625)"/>
      <path id="LiberationSans-Bold-72" d="M 447 0 
L 447 2588 
Q 447 2866 439 3052 
Q 431 3238 422 3381 
L 1259 3381 
Q 1269 3325 1284 3039 
Q 1300 2753 1300 2659 
L 1313 2659 
Q 1441 3016 1541 3161 
Q 1641 3306 1778 3376 
Q 1916 3447 2122 3447 
Q 2291 3447 2394 3400 
L 2394 2666 
Q 2181 2713 2019 2713 
Q 1691 2713 1508 2447 
Q 1325 2181 1325 1659 
L 1325 0 
L 447 0 
z
" transform="scale(0.015625)"/>
      <path id="LiberationSans-Bold-66" d="M 1478 2788 
L 1478 0 
L 603 0 
L 603 2788 
L 109 2788 
L 109 3381 
L 603 3381 
L 603 3734 
Q 603 4194 847 4416 
Q 1091 4638 1588 4638 
Q 1834 4638 2144 4588 
L 2144 4022 
Q 2016 4050 1888 4050 
Q 1663 4050 1570 3961 
Q 1478 3872 1478 3647 
L 1478 3381 
L 2144 3381 
L 2144 2788 
L 1478 2788 
z
" transform="scale(0.015625)"/>
      <path id="LiberationSans-Bold-63" d="M 1856 -63 
Q 1088 -63 669 395 
Q 250 853 250 1672 
Q 250 2509 672 2976 
Q 1094 3444 1869 3444 
Q 2466 3444 2856 3144 
Q 3247 2844 3347 2316 
L 2463 2272 
Q 2425 2531 2275 2686 
Q 2125 2841 1850 2841 
Q 1172 2841 1172 1706 
Q 1172 538 1863 538 
Q 2113 538 2281 695 
Q 2450 853 2491 1166 
L 3372 1125 
Q 3325 778 3123 506 
Q 2922 234 2594 85 
Q 2266 -63 1856 -63 
z
" transform="scale(0.015625)"/>
      <path id="LiberationSans-Bold-74" d="M 1313 -56 
Q 925 -56 715 155 
Q 506 366 506 794 
L 506 2788 
L 78 2788 
L 78 3381 
L 550 3381 
L 825 4175 
L 1375 4175 
L 1375 3381 
L 2016 3381 
L 2016 2788 
L 1375 2788 
L 1375 1031 
Q 1375 784 1469 667 
Q 1563 550 1759 550 
Q 1863 550 2053 594 
L 2053 50 
Q 1728 -56 1313 -56 
z
" transform="scale(0.015625)"/>
      <path id="LiberationSans-Bold-6f" d="M 3659 1694 
Q 3659 872 3203 404 
Q 2747 -63 1941 -63 
Q 1150 -63 700 406 
Q 250 875 250 1694 
Q 250 2509 700 2976 
Q 1150 3444 1959 3444 
Q 2788 3444 3223 2992 
Q 3659 2541 3659 1694 
z
M 2741 1694 
Q 2741 2297 2544 2569 
Q 2347 2841 1972 2841 
Q 1172 2841 1172 1694 
Q 1172 1128 1367 833 
Q 1563 538 1931 538 
Q 2741 538 2741 1694 
z
" transform="scale(0.015625)"/>
      <path id="LiberationSans-Bold-6e" d="M 2638 0 
L 2638 1897 
Q 2638 2788 2034 2788 
Q 1716 2788 1520 2514 
Q 1325 2241 1325 1813 
L 1325 0 
L 447 0 
L 447 2625 
Q 447 2897 439 3070 
Q 431 3244 422 3381 
L 1259 3381 
Q 1269 3322 1284 3064 
Q 1300 2806 1300 2709 
L 1313 2709 
Q 1491 3097 1759 3272 
Q 2028 3447 2400 3447 
Q 2938 3447 3225 3115 
Q 3513 2784 3513 2147 
L 3513 0 
L 2638 0 
z
" transform="scale(0.015625)"/>
     </defs>
     <use xlink:href="#LiberationSans-Bold-4e"/>
     <use xlink:href="#LiberationSans-Bold-61" transform="translate(72.216797 0)"/>
     <use xlink:href="#LiberationSans-Bold-69" transform="translate(127.832031 0)"/>
     <use xlink:href="#LiberationSans-Bold-76" transform="translate(155.615234 0)"/>
     <use xlink:href="#LiberationSans-Bold-65" transform="translate(211.230469 0)"/>
     <use xlink:href="#LiberationSans-Bold-20" transform="translate(266.845703 0)"/>
     <use xlink:href="#LiberationSans-Bold-56" transform="translate(294.628906 0)"/>
     <use xlink:href="#LiberationSans-Bold-65" transform="translate(355.828125 0)"/>
     <use xlink:href="#LiberationSans-Bold-72" transform="translate(411.443359 0)"/>
     <use xlink:href="#LiberationSans-Bold-69" transform="translate(450.359375 0)"/>
     <use xlink:href="#LiberationSans-Bold-66" transform="translate(478.142578 0)"/>
     <use xlink:href="#LiberationSans-Bold-69" transform="translate(511.443359 0)"/>
     <use xlink:href="#LiberationSans-Bold-63" transform="translate(539.226562 0)"/>
     <use xlink:href="#LiberationSans-Bold-61" transform="translate(594.841797 0)"/>
     <use xlink:href="#LiberationSans-Bold-74" transform="translate(650.457031 0)"/>
     <use xlink:href="#LiberationSans-Bold-69" transform="translate(683.757812 0)"/>
     <use xlink:href="#LiberationSans-Bold-6f" transform="translate(711.541016 0)"/>
     <use xlink:href="#LiberationSans-Bold-6e" transform="translate(772.625 0)"/>
    </g>
   </g>
   <g id="text_2">
    <!-- ✓ Tests pass -->
    <g style="fill: #262626" transform="translate(222.43125 150.545937) scale(0.1 -0.1)">
     <defs>
      <path id="LiberationSans-2713" d="M 641 4403 
L 4156 4403 
L 4156 0 
L 641 0 
L 641 4403 
z
M 878 4166 
L 878 238 
L 3919 238 
L 3919 4166 
L 878 4166 
z
" transform="scale(0.015625)"/>
      <path id="LiberationSans-20" transform="scale(0.015625)"/>
      <path id="LiberationSans-54" d="M 2250 3916 
L 2250 0 
L 1656 0 
L 1656 3916 
L 144 3916 
L 144 4403 
L 3763 4403 
L 3763 3916 
L 2250 3916 
z
" transform="scale(0.015625)"/>
      <path id="LiberationSans-65" d="M 863 1572 
Q 863 991 1103 675 
Q 1344 359 1806 359 
Q 2172 359 2392 506 
Q 2613 653 2691 878 
L 3184 738 
Q 2881 -63 1806 -63 
Q 1056 -63 664 384 
Q 272 831 272 1713 
Q 272 2550 664 2997 
Q 1056 3444 1784 3444 
Q 3275 3444 3275 1647 
L 3275 1572 
L 863 1572 
z
M 2694 2003 
Q 2647 2538 2422 2783 
Q 2197 3028 1775 3028 
Q 1366 3028 1127 2754 
Q 888 2481 869 2003 
L 2694 2003 
z
" transform="scale(0.015625)"/>
      <path id="LiberationSans-73" d="M 2969 934 
Q 2969 456 2608 196 
Q 2247 -63 1597 -63 
Q 966 -63 623 145 
Q 281 353 178 794 
L 675 891 
Q 747 619 972 492 
Q 1197 366 1597 366 
Q 2025 366 2223 497 
Q 2422 628 2422 891 
Q 2422 1091 2284 1216 
Q 2147 1341 1841 1422 
L 1438 1528 
Q 953 1653 748 1773 
Q 544 1894 428 2066 
Q 313 2238 313 2488 
Q 313 2950 642 3192 
Q 972 3434 1603 3434 
Q 2163 3434 2492 3237 
Q 2822 3041 2909 2606 
L 2403 2544 
Q 2356 2769 2151 2889 
Q 1947 3009 1603 3009 
Q 1222 3009 1040 2893 
Q 859 2778 859 2544 
Q 859 2400 934 2306 
Q 1009 2213 1156 2147 
Q 1303 2081 1775 1966 
Q 2222 1853 2419 1758 
Q 2616 1663 2730 1547 
Q 2844 1431 2906 1279 
Q 2969 1128 2969 934 
z
" transform="scale(0.015625)"/>
      <path id="LiberationSans-74" d="M 1731 25 
Q 1453 -50 1163 -50 
Q 488 -50 488 716 
L 488 2972 
L 97 2972 
L 97 3381 
L 509 3381 
L 675 4138 
L 1050 4138 
L 1050 3381 
L 1675 3381 
L 1675 2972 
L 1050 2972 
L 1050 838 
Q 1050 594 1129 495 
Q 1209 397 1406 397 
Q 1519 397 1731 441 
L 1731 25 
z
" transform="scale(0.015625)"/>
      <path id="LiberationSans-70" d="M 3291 1706 
Q 3291 -63 2047 -63 
Q 1266 -63 997 525 
L 981 525 
Q 994 500 994 -6 
L 994 -1328 
L 431 -1328 
L 431 2691 
Q 431 3213 413 3381 
L 956 3381 
Q 959 3369 965 3292 
Q 972 3216 980 3056 
Q 988 2897 988 2838 
L 1000 2838 
Q 1150 3150 1397 3295 
Q 1644 3441 2047 3441 
Q 2672 3441 2981 3022 
Q 3291 2603 3291 1706 
z
M 2700 1694 
Q 2700 2400 2509 2703 
Q 2319 3006 1903 3006 
Q 1569 3006 1380 2865 
Q 1191 2725 1092 2426 
Q 994 2128 994 1650 
Q 994 984 1206 668 
Q 1419 353 1897 353 
Q 2316 353 2508 661 
Q 2700 969 2700 1694 
z
" transform="scale(0.015625)"/>
      <path id="LiberationSans-61" d="M 1294 -63 
Q 784 -63 528 206 
Q 272 475 272 944 
Q 272 1469 617 1750 
Q 963 2031 1731 2050 
L 2491 2063 
L 2491 2247 
Q 2491 2659 2316 2837 
Q 2141 3016 1766 3016 
Q 1388 3016 1216 2887 
Q 1044 2759 1009 2478 
L 422 2531 
Q 566 3444 1778 3444 
Q 2416 3444 2737 3151 
Q 3059 2859 3059 2306 
L 3059 850 
Q 3059 600 3125 473 
Q 3191 347 3375 347 
Q 3456 347 3559 369 
L 3559 19 
Q 3347 -31 3125 -31 
Q 2813 -31 2670 133 
Q 2528 297 2509 647 
L 2491 647 
Q 2275 259 1989 98 
Q 1703 -63 1294 -63 
z
M 1422 359 
Q 1731 359 1972 500 
Q 2213 641 2352 886 
Q 2491 1131 2491 1391 
L 2491 1669 
L 1875 1656 
Q 1478 1650 1273 1575 
Q 1069 1500 959 1344 
Q 850 1188 850 934 
Q 850 659 998 509 
Q 1147 359 1422 359 
z
" transform="scale(0.015625)"/>
     </defs>
     <use xlink:href="#LiberationSans-2713"/>
     <use xlink:href="#LiberationSans-20" transform="translate(75 0)"/>
     <use xlink:href="#LiberationSans-54" transform="translate(101.033203 0)"/>
     <use xlink:href="#LiberationSans-65" transform="translate(150.992188 0)"/>
     <use xlink:href="#LiberationSans-73" transform="translate(206.607422 0)"/>
     <use xlink:href="#LiberationSans-74" transform="translate(256.607422 0)"/>
     <use xlink:href="#LiberationSans-73" transform="translate(284.390625 0)"/>
     <use xlink:href="#LiberationSans-20" transform="translate(334.390625 0)"/>
     <use xlink:href="#LiberationSans-70" transform="translate(362.173828 0)"/>
     <use xlink:href="#LiberationSans-61" transform="translate(417.789062 0)"/>
     <use xlink:href="#LiberationSans-73" transform="translate(473.404297 0)"/>
     <use xlink:href="#LiberationSans-73" transform="translate(523.404297 0)"/>
    </g>
   </g>
   <g id="text_3">
    <!-- ✓ Coverage &gt;80% -->
    <g style="fill: #262626" transform="translate(209.966406 208.325937) scale(0.1 -0.1)">
     <defs>
      <path id="LiberationSans-43" d="M 2475 3981 
Q 1744 3981 1337 3511 
Q 931 3041 931 2222 
Q 931 1413 1354 920 
Q 1778 428 2500 428 
Q 3425 428 3891 1344 
L 4378 1100 
Q 4106 531 3614 234 
Q 3122 -63 2472 -63 
Q 1806 -63 1320 214 
Q 834 491 579 1005 
Q 325 1519 325 2222 
Q 325 3275 894 3872 
Q 1463 4469 2469 4469 
Q 3172 4469 3644 4194 
Q 4116 3919 4338 3378 
L 3772 3191 
Q 3619 3575 3280 3778 
Q 2941 3981 2475 3981 
z
" transform="scale(0.015625)"/>
      <path id="LiberationSans-6f" d="M 3291 1694 
Q 3291 806 2900 371 
Q 2509 -63 1766 -63 
Q 1025 -63 647 389 
Q 269 841 269 1694 
Q 269 3444 1784 3444 
Q 2559 3444 2925 3017 
Q 3291 2591 3291 1694 
z
M 2700 1694 
Q 2700 2394 2492 2711 
Q 2284 3028 1794 3028 
Q 1300 3028 1079 2704 
Q 859 2381 859 1694 
Q 859 1025 1076 689 
Q 1294 353 1759 353 
Q 2266 353 2483 678 
Q 2700 1003 2700 1694 
z
" transform="scale(0.015625)"/>
      <path id="LiberationSans-76" d="M 1916 0 
L 1250 0 
L 22 3381 
L 622 3381 
L 1366 1181 
Q 1406 1056 1581 441 
L 1691 806 
L 1813 1175 
L 2581 3381 
L 3178 3381 
L 1916 0 
z
" transform="scale(0.015625)"/>
      <path id="LiberationSans-72" d="M 444 0 
L 444 2594 
Q 444 2950 425 3381 
L 956 3381 
Q 981 2806 981 2691 
L 994 2691 
Q 1128 3125 1303 3284 
Q 1478 3444 1797 3444 
Q 1909 3444 2025 3413 
L 2025 2897 
Q 1913 2928 1725 2928 
Q 1375 2928 1190 2626 
Q 1006 2325 1006 1763 
L 1006 0 
L 444 0 
z
" transform="scale(0.015625)"/>
      <path id="LiberationSans-67" d="M 1713 -1328 
Q 1159 -1328 831 -1111 
Q 503 -894 409 -494 
L 975 -413 
Q 1031 -647 1223 -773 
Q 1416 -900 1728 -900 
Q 2569 -900 2569 84 
L 2569 628 
L 2563 628 
Q 2403 303 2125 139 
Q 1847 -25 1475 -25 
Q 853 -25 561 387 
Q 269 800 269 1684 
Q 269 2581 583 3007 
Q 897 3434 1538 3434 
Q 1897 3434 2161 3270 
Q 2425 3106 2569 2803 
L 2575 2803 
Q 2575 2897 2587 3128 
Q 2600 3359 2613 3381 
L 3147 3381 
Q 3128 3213 3128 2681 
L 3128 97 
Q 3128 -1328 1713 -1328 
z
M 2569 1691 
Q 2569 2103 2456 2401 
Q 2344 2700 2139 2858 
Q 1934 3016 1675 3016 
Q 1244 3016 1047 2703 
Q 850 2391 850 1691 
Q 850 997 1034 694 
Q 1219 391 1666 391 
Q 1931 391 2137 547 
Q 2344 703 2456 995 
Q 2569 1288 2569 1691 
z
" transform="scale(0.015625)"/>
      <path id="LiberationSans-3e" d="M 316 481 
L 316 959 
L 2997 2106 
L 316 3250 
L 316 3731 
L 3425 2425 
L 3425 1784 
L 316 481 
z
" transform="scale(0.015625)"/>
      <path id="LiberationSans-38" d="M 3281 1228 
Q 3281 619 2893 278 
Q 2506 -63 1781 -63 
Q 1075 -63 676 271 
Q 278 606 278 1222 
Q 278 1653 525 1947 
Q 772 2241 1156 2303 
L 1156 2316 
Q 797 2400 589 2681 
Q 381 2963 381 3341 
Q 381 3844 757 4156 
Q 1134 4469 1769 4469 
Q 2419 4469 2795 4162 
Q 3172 3856 3172 3334 
Q 3172 2956 2962 2675 
Q 2753 2394 2391 2322 
L 2391 2309 
Q 2813 2241 3047 1952 
Q 3281 1663 3281 1228 
z
M 2588 3303 
Q 2588 4050 1769 4050 
Q 1372 4050 1164 3862 
Q 956 3675 956 3303 
Q 956 2925 1170 2726 
Q 1384 2528 1775 2528 
Q 2172 2528 2380 2711 
Q 2588 2894 2588 3303 
z
M 2697 1281 
Q 2697 1691 2453 1898 
Q 2209 2106 1769 2106 
Q 1341 2106 1100 1882 
Q 859 1659 859 1269 
Q 859 359 1788 359 
Q 2247 359 2472 579 
Q 2697 800 2697 1281 
z
" transform="scale(0.015625)"/>
      <path id="LiberationSans-30" d="M 3309 2203 
Q 3309 1100 2920 518 
Q 2531 -63 1772 -63 
Q 1013 -63 631 515 
Q 250 1094 250 2203 
Q 250 3338 620 3903 
Q 991 4469 1791 4469 
Q 2569 4469 2939 3897 
Q 3309 3325 3309 2203 
z
M 2738 2203 
Q 2738 3156 2517 3584 
Q 2297 4013 1791 4013 
Q 1272 4013 1045 3591 
Q 819 3169 819 2203 
Q 819 1266 1048 831 
Q 1278 397 1778 397 
Q 2275 397 2506 840 
Q 2738 1284 2738 2203 
z
" transform="scale(0.015625)"/>
      <path id="LiberationSans-25" d="M 5463 1356 
Q 5463 684 5209 323 
Q 4956 -38 4463 -38 
Q 3975 -38 3726 314 
Q 3478 666 3478 1356 
Q 3478 2069 3717 2417 
Q 3956 2766 4475 2766 
Q 4988 2766 5225 2408 
Q 5463 2050 5463 1356 
z
M 1647 0 
L 1163 0 
L 4044 4403 
L 4534 4403 
L 1647 0 
z
M 1231 4441 
Q 1728 4441 1968 4091 
Q 2209 3741 2209 3047 
Q 2209 2369 1961 2003 
Q 1713 1638 1219 1638 
Q 725 1638 476 2000 
Q 228 2363 228 3047 
Q 228 3744 468 4092 
Q 709 4441 1231 4441 
z
M 5000 1356 
Q 5000 1916 4879 2167 
Q 4759 2419 4475 2419 
Q 4191 2419 4064 2172 
Q 3938 1925 3938 1356 
Q 3938 822 4061 564 
Q 4184 306 4469 306 
Q 4744 306 4872 567 
Q 5000 828 5000 1356 
z
M 1750 3047 
Q 1750 3597 1631 3850 
Q 1513 4103 1231 4103 
Q 938 4103 813 3854 
Q 688 3606 688 3047 
Q 688 2506 813 2248 
Q 938 1991 1225 1991 
Q 1497 1991 1623 2253 
Q 1750 2516 1750 3047 
z
" transform="scale(0.015625)"/>
     </defs>
     <use xlink:href="#LiberationSans-2713"/>
     <use xlink:href="#LiberationSans-20" transform="translate(75 0)"/>
     <use xlink:href="#LiberationSans-43" transform="translate(102.783203 0)"/>
     <use xlink:href="#LiberationSans-6f" transform="translate(175 0)"/>
     <use xlink:href="#LiberationSans-76" transform="translate(230.615234 0)"/>
     <use xlink:href="#LiberationSans-65" transform="translate(280.615234 0)"/>
     <use xlink:href="#LiberationSans-72" transform="translate(336.230469 0)"/>
     <use xlink:href="#LiberationSans-61" transform="translate(369.53125 0)"/>
     <use xlink:href="#LiberationSans-67" transform="translate(425.146484 0)"/>
     <use xlink:href="#LiberationSans-65" transform="translate(480.761719 0)"/>
     <use xlink:href="#LiberationSans-20" transform="translate(536.376953 0)"/>
     <use xlink:href="#LiberationSans-3e" transform="translate(564.160156 0)"/>
     <use xlink:href="#LiberationSans-38" transform="translate(622.558594 0)"/>
     <use xlink:href="#LiberationSans-30" transform="translate(678.173828 0)"/>
     <use xlink:href="#LiberationSans-25" transform="translate(733.789062 0)"/>
    </g>
   </g>
   <g id="text_4">
    <!-- ✓ Linter clean -->
    <g style="fill: #262626" transform="translate(220.113281 266.105937) scale(0.1 -0.1)">
     <defs>
      <path id="LiberationSans-4c" d="M 525 0 
L 525 4403 
L 1122 4403 
L 1122 488 
L 3347 488 
L 3347 0 
L 525 0 
z
" transform="scale(0.015625)"/>
      <path id="LiberationSans-69" d="M 428 4100 
L 428 4638 
L 991 4638 
L 991 4100 
L 428 4100 
z
M 428 0 
L 428 3381 
L 991 3381 
L 991 0 
L 428 0 
z
" transform="scale(0.015625)"/>
      <path id="LiberationSans-6e" d="M 2578 0 
L 2578 2144 
Q 2578 2478 2512 2662 
Q 2447 2847 2303 2928 
Q 2159 3009 1881 3009 
Q 1475 3009 1240 2731 
Q 1006 2453 1006 1959 
L 1006 0 
L 444 0 
L 444 2659 
Q 444 3250 425 3381 
L 956 3381 
Q 959 3366 962 3297 
Q 966 3228 970 3139 
Q 975 3050 981 2803 
L 991 2803 
Q 1184 3153 1439 3298 
Q 1694 3444 2072 3444 
Q 2628 3444 2886 3167 
Q 3144 2891 3144 2253 
L 3144 0 
L 2578 0 
z
" transform="scale(0.015625)"/>
      <path id="LiberationSans-63" d="M 859 1706 
Q 859 1031 1071 706 
Q 1284 381 1713 381 
Q 2013 381 2214 543 
Q 2416 706 2463 1044 
L 3031 1006 
Q 2966 519 2616 228 
Q 2266 -63 1728 -63 
Q 1019 -63 645 385 
Q 272 834 272 1694 
Q 272 2547 647 2995 
Q 1022 3444 1722 3444 
Q 2241 3444 2583 3175 
Q 2925 2906 3013 2434 
L 2434 2391 
Q 2391 2672 2212 2837 
Q 2034 3003 1706 3003 
Q 1259 3003 1059 2706 
Q 859 2409 859 1706 
z
" transform="scale(0.015625)"/>
      <path id="LiberationSans-6c" d="M 431 0 
L 431 4638 
L 994 4638 
L 994 0 
L 431 0 
z
" transform="scale(0.015625)"/>
     </defs>
     <use xlink:href="#LiberationSans-2713"/>
     <use xlink:href="#LiberationSans-20" transform="translate(75 0)"/>
     <use xlink:href="#LiberationSans-4c" transform="translate(102.783203 0)"/>
     <use xlink:href="#LiberationSans-69" transform="translate(158.398438 0)"/>
     <use xlink:href="#LiberationSans-6e" transform="translate(180.615234 0)"/>
     <use xlink:href="#LiberationSans-74" transform="translate(236.230469 0)"/>
     <use xlink:href="#LiberationSans-65" transform="translate(264.013672 0)"/>
     <use xlink:href="#LiberationSans-72" transform="translate(319.628906 0)"/>
     <use xlink:href="#LiberationSans-20" transform="translate(352.929688 0)"/>
     <use xlink:href="#LiberationSans-63" transform="translate(380.712891 0)"/>
     <use xlink:href="#LiberationSans-6c" transform="translate(430.712891 0)"/>
     <use xlink:href="#LiberationSans-65" transform="translate(452.929688 0)"/>
     <use xlink:href="#LiberationSans-61" transform="translate(508.544922 0)"/>
     <use xlink:href="#LiberationSans-6e" transform="translate(564.160156 0)"/>
    </g>
   </g>
   <g id="text_5">
    <!-- ✓ Performance OK -->
    <g style="fill: #262626" transform="translate(208.726562 323.885937) scale(0.1 -0.1)">
     <defs>
      <path id="LiberationSans-50" d="M 3931 3078 
Q 3931 2453 3523 2084 
Q 3116 1716 2416 1716 
L 1122 1716 
L 1122 0 
L 525 0 
L 525 4403 
L 2378 4403 
Q 3119 4403 3525 4056 
Q 3931 3709 3931 3078 
z
M 3331 3072 
Q 3331 3925 2306 3925 
L 1122 3925 
L 1122 2188 
L 2331 2188 
Q 3331 2188 3331 3072 
z
" transform="scale(0.015625)"/>
      <path id="LiberationSans-66" d="M 1128 2972 
L 1128 0 
L 566 0 
L 566 2972 
L 91 2972 
L 91 3381 
L 566 3381 
L 566 3763 
Q 566 4225 769 4428 
Q 972 4631 1391 4631 
Q 1625 4631 1788 4594 
L 1788 4166 
Q 1647 4191 1538 4191 
Q 1322 4191 1225 4081 
Q 1128 3972 1128 3684 
L 1128 3381 
L 1788 3381 
L 1788 2972 
L 1128 2972 
z
" transform="scale(0.015625)"/>
      <path id="LiberationSans-6d" d="M 2400 0 
L 2400 2144 
Q 2400 2634 2265 2821 
Q 2131 3009 1781 3009 
Q 1422 3009 1212 2734 
Q 1003 2459 1003 1959 
L 1003 0 
L 444 0 
L 444 2659 
Q 444 3250 425 3381 
L 956 3381 
Q 959 3366 962 3297 
Q 966 3228 970 3139 
Q 975 3050 981 2803 
L 991 2803 
Q 1172 3163 1406 3303 
Q 1641 3444 1978 3444 
Q 2363 3444 2586 3291 
Q 2809 3138 2897 2803 
L 2906 2803 
Q 3081 3144 3329 3294 
Q 3578 3444 3931 3444 
Q 4444 3444 4676 3166 
Q 4909 2888 4909 2253 
L 4909 0 
L 4353 0 
L 4353 2144 
Q 4353 2634 4218 2821 
Q 4084 3009 3734 3009 
Q 3366 3009 3161 2736 
Q 2956 2463 2956 1959 
L 2956 0 
L 2400 0 
z
" transform="scale(0.015625)"/>
      <path id="LiberationSans-4f" d="M 4672 2222 
Q 4672 1531 4408 1012 
Q 4144 494 3650 215 
Q 3156 -63 2484 -63 
Q 1806 -63 1314 212 
Q 822 488 562 1008 
Q 303 1528 303 2222 
Q 303 3278 881 3873 
Q 1459 4469 2491 4469 
Q 3163 4469 3656 4201 
Q 4150 3934 4411 3425 
Q 4672 2916 4672 2222 
z
M 4063 2222 
Q 4063 3044 3652 3512 
Q 3241 3981 2491 3981 
Q 1734 3981 1321 3518 
Q 909 3056 909 2222 
Q 909 1394 1326 908 
Q 1744 422 2484 422 
Q 3247 422 3655 892 
Q 4063 1363 4063 2222 
z
" transform="scale(0.015625)"/>
      <path id="LiberationSans-4b" d="M 3456 0 
L 1697 2125 
L 1122 1688 
L 1122 0 
L 525 0 
L 525 4403 
L 1122 4403 
L 1122 2197 
L 3244 4403 
L 3947 4403 
L 2072 2491 
L 4197 0 
L 3456 0 
z
" transform="scale(0.015625)"/>
     </defs>
     <use xlink:href="#LiberationSans-2713"/>
     <use xlink:href="#LiberationSans-20" transform="translate(75 0)"/>
     <use xlink:href="#LiberationSans-50" transform="translate(102.783203 0)"/>
     <use xlink:href="#LiberationSans-65" transform="translate(169.482422 0)"/>
     <use xlink:href="#LiberationSans-72" transform="translate(225.097656 0)"/>
     <use xlink:href="#LiberationSans-66" transform="translate(258.398438 0)"/>
     <use xlink:href="#LiberationSans-6f" transform="translate(286.181641 0)"/>
     <use xlink:href="#LiberationSans-72" transform="translate(341.796875 0)"/>
     <use xlink:href="#LiberationSans-6d" transform="translate(375.097656 0)"/>
     <use xlink:href="#LiberationSans-61" transform="translate(458.398438 0)"/>
     <use xlink:href="#LiberationSans-6e" transform="translate(514.013672 0)"/>
     <use xlink:href="#LiberationSans-63" transform="translate(569.628906 0)"/>
     <use xlink:href="#LiberationSans-65" transform="translate(619.628906 0)"/>
     <use xlink:href="#LiberationSans-20" transform="translate(675.244141 0)"/>
     <use xlink:href="#LiberationSans-4f" transform="translate(703.027344 0)"/>
     <use xlink:href="#LiberationSans-4b" transform="translate(780.810547 0)"/>
    </g>
   </g>
   <g id="text_6">
    <!-- Agent finds loopholes: -->
    <g style="fill: #ff0000" transform="translate(191.526406 340.56) scale(0.11 -0.11)">
     <defs>
      <path id="LiberationSans-Bold-41" d="M 3541 0 
L 3150 1125 
L 1472 1125 
L 1081 0 
L 159 0 
L 1766 4403 
L 2853 4403 
L 4453 0 
L 3541 0 
z
M 2309 3725 
L 2291 3656 
Q 2259 3544 2215 3400 
Q 2172 3256 1678 1819 
L 2944 1819 
L 2509 3084 
L 2375 3509 
L 2309 3725 
z
" transform="scale(0.015625)"/>
      <path id="LiberationSans-Bold-67" d="M 1863 -1356 
Q 1244 -1356 867 -1120 
Q 491 -884 403 -447 
L 1281 -344 
Q 1328 -547 1483 -662 
Q 1638 -778 1888 -778 
Q 2253 -778 2422 -553 
Q 2591 -328 2591 116 
L 2591 294 
L 2597 628 
L 2591 628 
Q 2300 6 1503 6 
Q 913 6 588 450 
Q 263 894 263 1719 
Q 263 2547 597 2997 
Q 931 3447 1569 3447 
Q 2306 3447 2591 2838 
L 2606 2838 
Q 2606 2947 2620 3134 
Q 2634 3322 2650 3381 
L 3481 3381 
Q 3463 3044 3463 2600 
L 3463 103 
Q 3463 -619 3053 -987 
Q 2644 -1356 1863 -1356 
z
M 2597 1738 
Q 2597 2259 2411 2551 
Q 2225 2844 1881 2844 
Q 1178 2844 1178 1719 
Q 1178 616 1875 616 
Q 2225 616 2411 908 
Q 2597 1200 2597 1738 
z
" transform="scale(0.015625)"/>
      <path id="LiberationSans-Bold-64" d="M 2638 0 
Q 2625 47 2608 236 
Q 2591 425 2591 550 
L 2578 550 
Q 2294 -63 1497 -63 
Q 906 -63 584 398 
Q 263 859 263 1688 
Q 263 2528 602 2986 
Q 941 3444 1563 3444 
Q 1922 3444 2183 3294 
Q 2444 3144 2584 2847 
L 2591 2847 
L 2584 3403 
L 2584 4638 
L 3463 4638 
L 3463 738 
Q 3463 425 3488 0 
L 2638 0 
z
M 2597 1709 
Q 2597 2256 2414 2551 
Q 2231 2847 1875 2847 
Q 1522 2847 1350 2561 
Q 1178 2275 1178 1688 
Q 1178 538 1869 538 
Q 2216 538 2406 842 
Q 2597 1147 2597 1709 
z
" transform="scale(0.015625)"/>
      <path id="LiberationSans-Bold-73" d="M 3297 988 
Q 3297 497 2895 217 
Q 2494 -63 1784 -63 
Q 1088 -63 717 157 
Q 347 378 225 844 
L 997 959 
Q 1063 719 1223 619 
Q 1384 519 1784 519 
Q 2153 519 2322 612 
Q 2491 706 2491 906 
Q 2491 1069 2355 1164 
Q 2219 1259 1894 1325 
Q 1150 1472 890 1598 
Q 631 1725 495 1926 
Q 359 2128 359 2422 
Q 359 2906 732 3176 
Q 1106 3447 1791 3447 
Q 2394 3447 2761 3212 
Q 3128 2978 3219 2534 
L 2441 2453 
Q 2403 2659 2256 2761 
Q 2109 2863 1791 2863 
Q 1478 2863 1322 2783 
Q 1166 2703 1166 2516 
Q 1166 2369 1286 2283 
Q 1406 2197 1691 2141 
Q 2088 2059 2395 1973 
Q 2703 1888 2889 1769 
Q 3075 1650 3186 1464 
Q 3297 1278 3297 988 
z
" transform="scale(0.015625)"/>
      <path id="LiberationSans-Bold-6c" d="M 447 0 
L 447 4638 
L 1325 4638 
L 1325 0 
L 447 0 
z
" transform="scale(0.015625)"/>
      <path id="LiberationSans-Bold-70" d="M 3647 1706 
Q 3647 859 3308 398 
Q 2969 -63 2350 -63 
Q 1994 -63 1730 92 
Q 1466 247 1325 538 
L 1306 538 
Q 1325 444 1325 -31 
L 1325 -1328 
L 447 -1328 
L 447 2603 
Q 447 3081 422 3381 
L 1275 3381 
Q 1291 3325 1302 3159 
Q 1313 2994 1313 2831 
L 1325 2831 
Q 1622 3453 2406 3453 
Q 2997 3453 3322 2998 
Q 3647 2544 3647 1706 
z
M 2731 1706 
Q 2731 2844 2034 2844 
Q 1684 2844 1498 2537 
Q 1313 2231 1313 1681 
Q 1313 1134 1498 836 
Q 1684 538 2028 538 
Q 2731 538 2731 1706 
z
" transform="scale(0.015625)"/>
      <path id="LiberationSans-Bold-68" d="M 1313 2706 
Q 1491 3094 1759 3269 
Q 2028 3444 2400 3444 
Q 2938 3444 3225 3112 
Q 3513 2781 3513 2144 
L 3513 0 
L 2638 0 
L 2638 1894 
Q 2638 2784 2034 2784 
Q 1716 2784 1520 2511 
Q 1325 2238 1325 1809 
L 1325 0 
L 447 0 
L 447 4638 
L 1325 4638 
L 1325 3372 
Q 1325 3031 1300 2706 
L 1313 2706 
z
" transform="scale(0.015625)"/>
      <path id="LiberationSans-Bold-3a" d="M 616 2350 
L 616 3231 
L 1516 3231 
L 1516 2350 
L 616 2350 
z
M 616 0 
L 616 878 
L 1516 878 
L 1516 0 
L 616 0 
z
" transform="scale(0.015625)"/>
     </defs>
     <use xlink:href="#LiberationSans-Bold-41"/>
     <use xlink:href="#LiberationSans-Bold-67" transform="translate(72.216797 0)"/>
     <use xlink:href="#LiberationSans-Bold-65" transform="translate(133.300781 0)"/>
     <use xlink:href="#LiberationSans-Bold-6e" transform="translate(188.916016 0)"/>
     <use xlink:href="#LiberationSans-Bold-74" transform="translate(250 0)"/>
     <use xlink:href="#LiberationSans-Bold-20" transform="translate(283.300781 0)"/>
     <use xlink:href="#LiberationSans-Bold-66" transform="translate(311.083984 0)"/>
     <use xlink:href="#LiberationSans-Bold-69" transform="translate(344.384766 0)"/>
     <use xlink:href="#LiberationSans-Bold-6e" transform="translate(372.167969 0)"/>
     <use xlink:href="#LiberationSans-Bold-64" transform="translate(433.251953 0)"/>
     <use xlink:href="#LiberationSans-Bold-73" transform="translate(494.335938 0)"/>
     <use xlink:href="#LiberationSans-Bold-20" transform="translate(549.951172 0)"/>
     <use xlink:href="#LiberationSans-Bold-6c" transform="translate(577.734375 0)"/>
     <use xlink:href="#LiberationSans-Bold-6f" transform="translate(605.517578 0)"/>
     <use xlink:href="#LiberationSans-Bold-6f" transform="translate(666.601562 0)"/>
     <use xlink:href="#LiberationSans-Bold-70" transform="translate(727.685547 0)"/>
     <use xlink:href="#LiberationSans-Bold-68" transform="translate(788.769531 0)"/>
     <use xlink:href="#LiberationSans-Bold-6f" transform="translate(849.853516 0)"/>
     <use xlink:href="#LiberationSans-Bold-6c" transform="translate(910.9375 0)"/>
     <use xlink:href="#LiberationSans-Bold-65" transform="translate(938.720703 0)"/>
     <use xlink:href="#LiberationSans-Bold-73" transform="translate(994.335938 0)"/>
     <use xlink:href="#LiberationSans-Bold-3a" transform="translate(1049.951172 0)"/>
    </g>
   </g>
   <g id="text_7">
    <!-- • Tests pass but miss intent -->
    <g style="fill: #ff0000" transform="translate(196.667578 371.376) scale(0.09 -0.09)">
     <defs>
      <path id="LiberationSans-Italic-2022" d="M 2038 2131 
Q 2038 1766 1777 1509 
Q 1516 1253 1159 1253 
Q 813 1253 558 1509 
Q 303 1766 303 2131 
Q 303 2491 556 2739 
Q 809 2988 1159 2988 
Q 1519 2988 1778 2739 
Q 2038 2491 2038 2131 
z
" transform="scale(0.015625)"/>
      <path id="LiberationSans-Italic-20" transform="scale(0.015625)"/>
      <path id="LiberationSans-Italic-54" d="M 2681 3916 
L 1919 0 
L 1325 0 
L 2088 3916 
L 575 3916 
L 669 4403 
L 4288 4403 
L 4194 3916 
L 2681 3916 
z
" transform="scale(0.015625)"/>
      <path id="LiberationSans-Italic-65" d="M 800 1572 
Q 781 1463 772 1219 
Q 772 803 980 581 
Q 1188 359 1606 359 
Q 1909 359 2156 509 
Q 2403 659 2541 919 
L 2972 722 
Q 2744 313 2392 125 
Q 2041 -63 1541 -63 
Q 913 -63 564 285 
Q 216 634 216 1266 
Q 216 1894 437 2392 
Q 659 2891 1062 3167 
Q 1466 3444 1969 3444 
Q 2609 3444 2965 3122 
Q 3322 2800 3322 2213 
Q 3322 1884 3247 1572 
L 800 1572 
z
M 2750 2003 
L 2763 2228 
Q 2763 2616 2561 2822 
Q 2359 3028 1981 3028 
Q 1563 3028 1277 2761 
Q 991 2494 875 2003 
L 2750 2003 
z
" transform="scale(0.015625)"/>
      <path id="LiberationSans-Italic-73" d="M 2834 991 
Q 2834 484 2446 210 
Q 2059 -63 1328 -63 
Q 784 -63 464 120 
Q 144 303 16 697 
L 475 872 
Q 578 597 795 472 
Q 1013 347 1378 347 
Q 1825 347 2056 498 
Q 2288 650 2288 941 
Q 2288 1134 2128 1264 
Q 1969 1394 1453 1553 
Q 1053 1684 853 1809 
Q 653 1934 547 2101 
Q 441 2269 441 2491 
Q 441 2944 803 3189 
Q 1166 3434 1825 3434 
Q 2931 3434 3069 2638 
L 2559 2559 
Q 2491 2806 2300 2915 
Q 2109 3025 1788 3025 
Q 1400 3025 1192 2901 
Q 984 2778 984 2553 
Q 984 2422 1050 2331 
Q 1116 2241 1239 2170 
Q 1363 2100 1809 1959 
Q 2206 1834 2407 1706 
Q 2609 1578 2721 1403 
Q 2834 1228 2834 991 
z
" transform="scale(0.015625)"/>
      <path id="LiberationSans-Italic-74" d="M 859 -63 
Q 594 -63 442 96 
Q 291 256 291 519 
Q 291 691 338 925 
L 731 2972 
L 341 2972 
L 422 3381 
L 819 3381 
L 1147 4138 
L 1522 4138 
L 1375 3381 
L 2000 3381 
L 1919 2972 
L 1294 2972 
L 903 956 
Q 866 769 866 659 
Q 866 384 1147 384 
Q 1278 384 1459 428 
L 1400 13 
Q 1091 -63 859 -63 
z
" transform="scale(0.015625)"/>
      <path id="LiberationSans-Italic-70" d="M 1731 -63 
Q 1347 -63 1105 100 
Q 863 263 763 556 
L 747 556 
Q 747 522 720 353 
Q 694 184 400 -1328 
L -159 -1328 
L 619 2691 
Q 691 3038 728 3381 
L 1250 3381 
Q 1250 3297 1229 3123 
Q 1209 2950 1197 2878 
L 1209 2878 
Q 1438 3175 1691 3309 
Q 1944 3444 2316 3444 
Q 2806 3444 3079 3148 
Q 3353 2853 3353 2338 
Q 3353 1703 3161 1108 
Q 2969 513 2620 225 
Q 2272 -63 1731 -63 
z
M 2153 3009 
Q 1844 3009 1623 2882 
Q 1403 2756 1250 2501 
Q 1097 2247 1009 1864 
Q 922 1481 922 1178 
Q 922 788 1120 570 
Q 1319 353 1672 353 
Q 2059 353 2284 589 
Q 2509 825 2637 1339 
Q 2766 1853 2766 2238 
Q 2766 2622 2619 2815 
Q 2472 3009 2153 3009 
z
" transform="scale(0.015625)"/>
      <path id="LiberationSans-Italic-61" d="M 2897 -31 
Q 2606 -31 2473 89 
Q 2341 209 2341 447 
L 2356 647 
L 2338 647 
Q 2078 253 1800 95 
Q 1522 -63 1128 -63 
Q 691 -63 417 200 
Q 144 463 144 869 
Q 144 1447 558 1744 
Q 972 2041 1878 2053 
L 2603 2063 
Q 2663 2369 2663 2459 
Q 2663 2744 2497 2880 
Q 2331 3016 2038 3016 
Q 1666 3016 1475 2883 
Q 1284 2750 1200 2478 
L 644 2569 
Q 784 3028 1132 3236 
Q 1481 3444 2069 3444 
Q 2603 3444 2914 3194 
Q 3225 2944 3225 2522 
Q 3225 2322 3166 2031 
L 2934 850 
Q 2900 700 2900 575 
Q 2900 347 3153 347 
Q 3238 347 3341 369 
L 3297 19 
Q 3091 -31 2897 -31 
z
M 2528 1675 
L 1906 1663 
Q 1534 1653 1321 1595 
Q 1109 1538 992 1448 
Q 875 1359 808 1223 
Q 741 1088 741 894 
Q 741 659 892 512 
Q 1044 366 1284 366 
Q 1588 366 1831 495 
Q 2075 625 2234 834 
Q 2394 1044 2444 1284 
L 2528 1675 
z
" transform="scale(0.015625)"/>
      <path id="LiberationSans-Italic-62" d="M 2325 3444 
Q 2816 3444 3089 3148 
Q 3363 2853 3363 2338 
Q 3363 1703 3170 1108 
Q 2978 513 2629 225 
Q 2281 -63 1741 -63 
Q 1356 -63 1115 100 
Q 875 263 775 556 
L 766 556 
Q 744 441 691 225 
Q 638 9 631 0 
L 91 0 
Q 106 47 151 256 
Q 197 466 244 697 
L 1009 4638 
L 1572 4638 
L 1313 3316 
Q 1288 3172 1206 2878 
L 1219 2878 
Q 1447 3175 1700 3309 
Q 1953 3444 2325 3444 
z
M 2163 3009 
Q 1853 3009 1633 2882 
Q 1413 2756 1259 2501 
Q 1106 2247 1018 1864 
Q 931 1481 931 1178 
Q 931 788 1129 570 
Q 1328 353 1681 353 
Q 2069 353 2294 589 
Q 2519 825 2647 1339 
Q 2775 1853 2775 2238 
Q 2775 2622 2628 2815 
Q 2481 3009 2163 3009 
z
" transform="scale(0.015625)"/>
      <path id="LiberationSans-Italic-75" d="M 1297 3381 
L 903 1366 
Q 847 1091 847 897 
Q 847 375 1406 375 
Q 1800 375 2100 675 
Q 2400 975 2500 1488 
L 2869 3381 
L 3431 3381 
L 2913 722 
Q 2850 425 2791 0 
L 2259 0 
Q 2259 34 2292 242 
Q 2325 450 2347 578 
L 2338 578 
Q 2078 219 1817 80 
Q 1556 -59 1197 -59 
Q 734 -59 501 169 
Q 269 397 269 828 
Q 269 1028 334 1341 
L 731 3381 
L 1297 3381 
z
" transform="scale(0.015625)"/>
      <path id="LiberationSans-Italic-6d" d="M 2063 0 
L 2450 1981 
Q 2528 2372 2528 2525 
Q 2528 2759 2409 2882 
Q 2291 3006 2022 3006 
Q 1659 3006 1389 2697 
Q 1119 2388 1034 1888 
L 666 0 
L 106 0 
L 625 2659 
Q 688 2956 747 3381 
L 1278 3381 
Q 1278 3347 1245 3139 
Q 1213 2931 1191 2803 
L 1200 2803 
Q 1428 3159 1658 3300 
Q 1888 3441 2206 3441 
Q 2584 3441 2806 3255 
Q 3028 3069 3072 2716 
Q 3331 3122 3582 3281 
Q 3834 3441 4159 3441 
Q 4581 3441 4807 3212 
Q 5034 2984 5034 2553 
Q 5034 2353 4969 2041 
L 4572 0 
L 4016 0 
L 4403 1981 
Q 4481 2372 4481 2525 
Q 4481 2759 4362 2882 
Q 4244 3006 3975 3006 
Q 3613 3006 3344 2701 
Q 3075 2397 2988 1897 
L 2619 0 
L 2063 0 
z
" transform="scale(0.015625)"/>
      <path id="LiberationSans-Italic-69" d="M 897 4100 
L 1003 4638 
L 1566 4638 
L 1459 4100 
L 897 4100 
z
M 103 0 
L 759 3381 
L 1322 3381 
L 663 0 
L 103 0 
z
" transform="scale(0.015625)"/>
      <path id="LiberationSans-Italic-6e" d="M 2241 0 
L 2634 2016 
Q 2691 2291 2691 2484 
Q 2691 3006 2131 3006 
Q 1738 3006 1438 2706 
Q 1138 2406 1038 1894 
L 669 0 
L 106 0 
L 625 2659 
Q 688 2956 747 3381 
L 1278 3381 
Q 1278 3347 1245 3139 
Q 1213 2931 1191 2803 
L 1200 2803 
Q 1459 3163 1720 3302 
Q 1981 3441 2341 3441 
Q 2803 3441 3036 3212 
Q 3269 2984 3269 2553 
Q 3269 2353 3203 2041 
L 2806 0 
L 2241 0 
z
" transform="scale(0.015625)"/>
     </defs>
     <use xlink:href="#LiberationSans-Italic-2022"/>
     <use xlink:href="#LiberationSans-Italic-20" transform="translate(35.009766 0)"/>
     <use xlink:href="#LiberationSans-Italic-54" transform="translate(62.792969 0)"/>
     <use xlink:href="#LiberationSans-Italic-65" transform="translate(114.751953 0)"/>
     <use xlink:href="#LiberationSans-Italic-73" transform="translate(170.367188 0)"/>
     <use xlink:href="#LiberationSans-Italic-74" transform="translate(220.367188 0)"/>
     <use xlink:href="#LiberationSans-Italic-73" transform="translate(248.150391 0)"/>
     <use xlink:href="#LiberationSans-Italic-20" transform="translate(298.150391 0)"/>
     <use xlink:href="#LiberationSans-Italic-70" transform="translate(325.933594 0)"/>
     <use xlink:href="#LiberationSans-Italic-61" transform="translate(381.548828 0)"/>
     <use xlink:href="#LiberationSans-Italic-73" transform="translate(437.164062 0)"/>
     <use xlink:href="#LiberationSans-Italic-73" transform="translate(487.164062 0)"/>
     <use xlink:href="#LiberationSans-Italic-20" transform="translate(537.164062 0)"/>
     <use xlink:href="#LiberationSans-Italic-62" transform="translate(564.947266 0)"/>
     <use xlink:href="#LiberationSans-Italic-75" transform="translate(620.5625 0)"/>
     <use xlink:href="#LiberationSans-Italic-74" transform="translate(676.177734 0)"/>
     <use xlink:href="#LiberationSans-Italic-20" transform="translate(703.960938 0)"/>
     <use xlink:href="#LiberationSans-Italic-6d" transform="translate(731.744141 0)"/>
     <use xlink:href="#LiberationSans-Italic-69" transform="translate(815.044922 0)"/>
     <use xlink:href="#LiberationSans-Italic-73" transform="translate(837.261719 0)"/>
     <use xlink:href="#LiberationSans-Italic-73" transform="translate(887.261719 0)"/>
     <use xlink:href="#LiberationSans-Italic-20" transform="translate(937.261719 0)"/>
     <use xlink:href="#LiberationSans-Italic-69" transform="translate(965.044922 0)"/>
     <use xlink:href="#LiberationSans-Italic-6e" transform="translate(987.261719 0)"/>
     <use xlink:href="#LiberationSans-Italic-74" transform="translate(1042.876953 0)"/>
     <use xlink:href="#LiberationSans-Italic-65" transform="translate(1070.660156 0)"/>
     <use xlink:href="#LiberationSans-Italic-6e" transform="translate(1126.275391 0)"/>
     <use xlink:href="#LiberationSans-Italic-74" transform="translate(1181.890625 0)"/>
    </g>
   </g>
   <g id="text_8">
    <!-- • Coverage via trivial tests -->
    <g style="fill: #ff0000" transform="translate(199.257891 390.636) scale(0.09 -0.09)">
     <defs>
      <path id="LiberationSans-Italic-43" d="M 4244 1053 
Q 3850 466 3350 201 
Q 2850 -63 2188 -63 
Q 1622 -63 1205 164 
Q 788 391 570 809 
Q 353 1228 353 1778 
Q 353 2547 681 3169 
Q 1009 3791 1592 4130 
Q 2175 4469 2894 4469 
Q 3572 4469 4039 4186 
Q 4506 3903 4656 3391 
L 4094 3219 
Q 3981 3569 3657 3775 
Q 3334 3981 2863 3981 
Q 2288 3981 1850 3704 
Q 1413 3428 1178 2926 
Q 944 2425 944 1769 
Q 944 1144 1284 783 
Q 1625 422 2228 422 
Q 2691 422 3091 651 
Q 3491 881 3797 1331 
L 4244 1053 
z
" transform="scale(0.015625)"/>
      <path id="LiberationSans-Italic-6f" d="M 3356 2134 
Q 3356 1728 3231 1289 
Q 3106 850 2873 545 
Q 2641 241 2303 89 
Q 1966 -63 1534 -63 
Q 922 -63 565 306 
Q 209 675 209 1309 
Q 222 1947 440 2440 
Q 659 2934 1046 3187 
Q 1434 3441 2006 3441 
Q 2663 3441 3009 3098 
Q 3356 2756 3356 2134 
z
M 2775 2134 
Q 2775 3028 2000 3028 
Q 1578 3028 1323 2811 
Q 1069 2594 928 2153 
Q 788 1713 788 1300 
Q 788 838 988 595 
Q 1188 353 1569 353 
Q 1891 353 2086 461 
Q 2281 569 2428 798 
Q 2575 1028 2667 1384 
Q 2759 1741 2775 2134 
z
" transform="scale(0.015625)"/>
      <path id="LiberationSans-Italic-76" d="M 1584 0 
L 919 0 
L 350 3381 
L 934 3381 
L 1250 1181 
Q 1278 969 1309 606 
L 1322 441 
L 1403 606 
Q 1544 900 1694 1175 
L 2894 3381 
L 3506 3381 
L 1584 0 
z
" transform="scale(0.015625)"/>
      <path id="LiberationSans-Italic-72" d="M 2244 2931 
Q 2106 2972 1963 2972 
Q 1634 2972 1370 2628 
Q 1106 2284 1013 1763 
L 669 0 
L 106 0 
L 613 2594 
L 691 3025 
L 747 3381 
L 1278 3381 
L 1169 2691 
L 1181 2691 
Q 1388 3106 1588 3275 
Q 1788 3444 2050 3444 
Q 2194 3444 2347 3400 
L 2244 2931 
z
" transform="scale(0.015625)"/>
      <path id="LiberationSans-Italic-67" d="M 1241 -1328 
Q 181 -1328 13 -541 
L 522 -409 
Q 631 -900 1253 -900 
Q 1697 -900 1940 -670 
Q 2184 -441 2284 84 
L 2391 628 
L 2384 628 
Q 2191 350 2042 228 
Q 1894 106 1708 40 
Q 1522 -25 1281 -25 
Q 803 -25 511 289 
Q 219 603 219 1122 
Q 219 1538 336 2019 
Q 453 2500 656 2819 
Q 859 3138 1150 3289 
Q 1441 3441 1838 3441 
Q 2216 3441 2477 3262 
Q 2738 3084 2813 2803 
L 2819 2803 
Q 2841 2919 2897 3136 
Q 2953 3353 2969 3381 
L 3503 3381 
L 3444 3125 
L 3350 2681 
L 2847 97 
Q 2697 -659 2309 -993 
Q 1922 -1328 1241 -1328 
z
M 809 1166 
Q 809 788 973 589 
Q 1138 391 1456 391 
Q 1794 391 2069 636 
Q 2344 881 2495 1309 
Q 2647 1738 2647 2200 
Q 2647 2591 2447 2808 
Q 2247 3025 1897 3025 
Q 1616 3025 1428 2909 
Q 1241 2794 1112 2547 
Q 984 2300 896 1889 
Q 809 1478 809 1166 
z
" transform="scale(0.015625)"/>
      <path id="LiberationSans-Italic-6c" d="M 103 0 
L 1003 4638 
L 1566 4638 
L 663 0 
L 103 0 
z
" transform="scale(0.015625)"/>
     </defs>
     <use xlink:href="#LiberationSans-Italic-2022"/>
     <use xlink:href="#LiberationSans-Italic-20" transform="translate(35.009766 0)"/>
     <use xlink:href="#LiberationSans-Italic-43" transform="translate(62.792969 0)"/>
     <use xlink:href="#LiberationSans-Italic-6f" transform="translate(135.009766 0)"/>
     <use xlink:href="#LiberationSans-Italic-76" transform="translate(190.625 0)"/>
     <use xlink:href="#LiberationSans-Italic-65" transform="translate(240.625 0)"/>
     <use xlink:href="#LiberationSans-Italic-72" transform="translate(296.240234 0)"/>
     <use xlink:href="#LiberationSans-Italic-61" transform="translate(329.541016 0)"/>
     <use xlink:href="#LiberationSans-Italic-67" transform="translate(385.15625 0)"/>
     <use xlink:href="#LiberationSans-Italic-65" transform="translate(440.771484 0)"/>
     <use xlink:href="#LiberationSans-Italic-20" transform="translate(496.386719 0)"/>
     <use xlink:href="#LiberationSans-Italic-76" transform="translate(524.169922 0)"/>
     <use xlink:href="#LiberationSans-Italic-69" transform="translate(574.169922 0)"/>
     <use xlink:href="#LiberationSans-Italic-61" transform="translate(596.386719 0)"/>
     <use xlink:href="#LiberationSans-Italic-20" transform="translate(652.001953 0)"/>
     <use xlink:href="#LiberationSans-Italic-74" transform="translate(679.785156 0)"/>
     <use xlink:href="#LiberationSans-Italic-72" transform="translate(707.568359 0)"/>
     <use xlink:href="#LiberationSans-Italic-69" transform="translate(740.869141 0)"/>
     <use xlink:href="#LiberationSans-Italic-76" transform="translate(763.085938 0)"/>
     <use xlink:href="#LiberationSans-Italic-69" transform="translate(813.085938 0)"/>
     <use xlink:href="#LiberationSans-Italic-61" transform="translate(835.302734 0)"/>
     <use xlink:href="#LiberationSans-Italic-6c" transform="translate(890.917969 0)"/>
     <use xlink:href="#LiberationSans-Italic-20" transform="translate(913.134766 0)"/>
     <use xlink:href="#LiberationSans-Italic-74" transform="translate(940.917969 0)"/>
     <use xlink:href="#LiberationSans-Italic-65" transform="translate(968.701172 0)"/>
     <use xlink:href="#LiberationSans-Italic-73" transform="translate(1024.316406 0)"/>
     <use xlink:href="#LiberationSans-Italic-74" transform="translate(1074.316406 0)"/>
     <use xlink:href="#LiberationSans-Italic-73" transform="translate(1102.099609 0)"/>
    </g>
   </g>
   <g id="text_9">
    <!-- • Linter rules gamed -->
    <g style="fill: #ff0000" transform="translate(211.007109 409.896) scale(0.09 -0.09)">
     <defs>
      <path id="LiberationSans-Italic-4c" d="M 197 0 
L 1050 4403 
L 1647 4403 
L 888 488 
L 3113 488 
L 3019 0 
L 197 0 
z
" transform="scale(0.015625)"/>
      <path id="LiberationSans-Italic-64" d="M 1253 -66 
Q 763 -66 489 229 
Q 216 525 216 1041 
Q 216 1675 408 2270 
Q 600 2866 948 3153 
Q 1297 3441 1838 3441 
Q 2222 3441 2464 3278 
Q 2706 3116 2806 2822 
L 2822 2822 
L 2909 3328 
L 3166 4638 
L 3728 4638 
L 2963 697 
Q 2872 256 2844 0 
L 2306 0 
Q 2306 159 2372 500 
L 2356 500 
Q 2128 203 1875 68 
Q 1622 -66 1253 -66 
z
M 1416 369 
Q 1725 369 1945 495 
Q 2166 622 2319 876 
Q 2472 1131 2559 1514 
Q 2647 1897 2647 2200 
Q 2647 2591 2448 2808 
Q 2250 3025 1897 3025 
Q 1516 3025 1294 2798 
Q 1072 2572 937 2058 
Q 803 1544 803 1141 
Q 803 756 950 562 
Q 1097 369 1416 369 
z
" transform="scale(0.015625)"/>
     </defs>
     <use xlink:href="#LiberationSans-Italic-2022"/>
     <use xlink:href="#LiberationSans-Italic-20" transform="translate(35.009766 0)"/>
     <use xlink:href="#LiberationSans-Italic-4c" transform="translate(62.792969 0)"/>
     <use xlink:href="#LiberationSans-Italic-69" transform="translate(118.408203 0)"/>
     <use xlink:href="#LiberationSans-Italic-6e" transform="translate(140.625 0)"/>
     <use xlink:href="#LiberationSans-Italic-74" transform="translate(196.240234 0)"/>
     <use xlink:href="#LiberationSans-Italic-65" transform="translate(224.023438 0)"/>
     <use xlink:href="#LiberationSans-Italic-72" transform="translate(279.638672 0)"/>
     <use xlink:href="#LiberationSans-Italic-20" transform="translate(312.939453 0)"/>
     <use xlink:href="#LiberationSans-Italic-72" transform="translate(340.722656 0)"/>
     <use xlink:href="#LiberationSans-Italic-75" transform="translate(374.023438 0)"/>
     <use xlink:href="#LiberationSans-Italic-6c" transform="translate(429.638672 0)"/>
     <use xlink:href="#LiberationSans-Italic-65" transform="translate(451.855469 0)"/>
     <use xlink:href="#LiberationSans-Italic-73" transform="translate(507.470703 0)"/>
     <use xlink:href="#LiberationSans-Italic-20" transform="translate(557.470703 0)"/>
     <use xlink:href="#LiberationSans-Italic-67" transform="translate(585.253906 0)"/>
     <use xlink:href="#LiberationSans-Italic-61" transform="translate(640.869141 0)"/>
     <use xlink:href="#LiberationSans-Italic-6d" transform="translate(696.484375 0)"/>
     <use xlink:href="#LiberationSans-Italic-65" transform="translate(779.785156 0)"/>
     <use xlink:href="#LiberationSans-Italic-64" transform="translate(835.400391 0)"/>
    </g>
   </g>
  </g>
  <g id="axes_2">
   <g id="patch_7">
    <path d="M 530.19 167.22 
L 969.21 167.22 
L 969.21 136.404 
L 530.19 136.404 
z
" clip-path="url(#p84349f69e7)" style="fill: #add8e6; stroke: #000000; stroke-linejoin: miter"/>
   </g>
   <g id="patch_8">
    <path d="M 530.19 225 
L 969.21 225 
L 969.21 194.184 
L 530.19 194.184 
z
" clip-path="url(#p84349f69e7)" style="fill: #add8e6; stroke: #000000; stroke-linejoin: miter"/>
   </g>
   <g id="patch_9">
    <path d="M 530.19 282.78 
L 969.21 282.78 
L 969.21 251.964 
L 530.19 251.964 
z
" clip-path="url(#p84349f69e7)" style="fill: #add8e6; stroke: #000000; stroke-linejoin: miter"/>
   </g>
   <g id="patch_10">
    <path d="M 530.19 340.56 
L 969.21 340.56 
L 969.21 309.744 
L 530.19 309.744 
z
" clip-path="url(#p84349f69e7)" style="fill: #add8e6; stroke: #000000; stroke-linejoin: miter"/>
   </g>
   <g id="text_10">
    <!-- Robust Verification (Tensegrity) -->
    <g style="fill: #262626" transform="translate(651.949141 70.92) scale(0.13 -0.13)">
     <defs>
      <path id="LiberationSans-Bold-52" d="M 3453 0 
L 2431 1672 
L 1350 1672 
L 1350 0 
L 428 0 
L 428 4403 
L 2628 4403 
Q 3416 4403 3844 4064 
Q 4272 3725 4272 3091 
Q 4272 2628 4009 2292 
Q 3747 1956 3300 1850 
L 4491 0 
L 3453 0 
z
M 3344 3053 
Q 3344 3688 2531 3688 
L 1350 3688 
L 1350 2388 
L 2556 2388 
Q 2944 2388 3144 2563 
Q 3344 2738 3344 3053 
z
" transform="scale(0.015625)"/>
      <path id="LiberationSans-Bold-62" d="M 3647 1703 
Q 3647 866 3311 401 
Q 2975 -63 2350 -63 
Q 1991 -63 1728 93 
Q 1466 250 1325 544 
L 1319 544 
Q 1319 434 1305 243 
Q 1291 53 1275 0 
L 422 0 
Q 447 291 447 772 
L 447 4638 
L 1325 4638 
L 1325 3344 
L 1313 2794 
L 1325 2794 
Q 1622 3444 2406 3444 
Q 3006 3444 3326 2989 
Q 3647 2534 3647 1703 
z
M 2731 1703 
Q 2731 2278 2562 2556 
Q 2394 2834 2041 2834 
Q 1684 2834 1498 2536 
Q 1313 2238 1313 1675 
Q 1313 1138 1495 838 
Q 1678 538 2034 538 
Q 2731 538 2731 1703 
z
" transform="scale(0.015625)"/>
      <path id="LiberationSans-Bold-75" d="M 1275 3381 
L 1275 1484 
Q 1275 594 1875 594 
Q 2194 594 2389 867 
Q 2584 1141 2584 1569 
L 2584 3381 
L 3463 3381 
L 3463 756 
Q 3463 325 3488 0 
L 2650 0 
Q 2613 450 2613 672 
L 2597 672 
Q 2422 288 2151 112 
Q 1881 -63 1509 -63 
Q 972 -63 684 267 
Q 397 597 397 1234 
L 397 3381 
L 1275 3381 
z
" transform="scale(0.015625)"/>
      <path id="LiberationSans-Bold-28" d="M 1247 -1328 
Q 756 -622 537 81 
Q 319 784 319 1659 
Q 319 2531 537 3232 
Q 756 3934 1247 4638 
L 2125 4638 
Q 1631 3925 1407 3219 
Q 1184 2513 1184 1656 
Q 1184 803 1406 101 
Q 1628 -600 2125 -1328 
L 1247 -1328 
z
" transform="scale(0.015625)"/>
      <path id="LiberationSans-Bold-54" d="M 2416 3691 
L 2416 0 
L 1494 0 
L 1494 3691 
L 72 3691 
L 72 4403 
L 3841 4403 
L 3841 3691 
L 2416 3691 
z
" transform="scale(0.015625)"/>
      <path id="LiberationSans-Bold-79" d="M 884 -1328 
Q 569 -1328 331 -1288 
L 331 -663 
Q 497 -688 634 -688 
Q 822 -688 945 -628 
Q 1069 -569 1167 -431 
Q 1266 -294 1388 34 
L 50 3381 
L 978 3381 
L 1509 1797 
Q 1634 1456 1825 753 
L 1903 1050 
L 2106 1784 
L 2606 3381 
L 3525 3381 
L 2188 -178 
Q 1919 -828 1630 -1078 
Q 1341 -1328 884 -1328 
z
" transform="scale(0.015625)"/>
      <path id="LiberationSans-Bold-29" d="M 6 -1328 
Q 506 -597 726 101 
Q 947 800 947 1656 
Q 947 2516 722 3223 
Q 497 3931 6 4638 
L 884 4638 
Q 1378 3928 1595 3225 
Q 1813 2522 1813 1659 
Q 1813 791 1595 87 
Q 1378 -616 884 -1328 
L 6 -1328 
z
" transform="scale(0.015625)"/>
     </defs>
     <use xlink:href="#LiberationSans-Bold-52"/>
     <use xlink:href="#LiberationSans-Bold-6f" transform="translate(72.216797 0)"/>
     <use xlink:href="#LiberationSans-Bold-62" transform="translate(133.300781 0)"/>
     <use xlink:href="#LiberationSans-Bold-75" transform="translate(194.384766 0)"/>
     <use xlink:href="#LiberationSans-Bold-73" transform="translate(255.46875 0)"/>
     <use xlink:href="#LiberationSans-Bold-74" transform="translate(311.083984 0)"/>
     <use xlink:href="#LiberationSans-Bold-20" transform="translate(344.384766 0)"/>
     <use xlink:href="#LiberationSans-Bold-56" transform="translate(372.167969 0)"/>
     <use xlink:href="#LiberationSans-Bold-65" transform="translate(433.367188 0)"/>
     <use xlink:href="#LiberationSans-Bold-72" transform="translate(488.982422 0)"/>
     <use xlink:href="#LiberationSans-Bold-69" transform="translate(527.898438 0)"/>
     <use xlink:href="#LiberationSans-Bold-66" transform="translate(555.681641 0)"/>
     <use xlink:href="#LiberationSans-Bold-69" transform="translate(588.982422 0)"/>
     <use xlink:href="#LiberationSans-Bold-63" transform="translate(616.765625 0)"/>
     <use xlink:href="#LiberationSans-Bold-61" transform="translate(672.380859 0)"/>
     <use xlink:href="#LiberationSans-Bold-74" transform="translate(727.996094 0)"/>
     <use xlink:href="#LiberationSans-Bold-69" transform="translate(761.296875 0)"/>
     <use xlink:href="#LiberationSans-Bold-6f" transform="translate(789.080078 0)"/>
     <use xlink:href="#LiberationSans-Bold-6e" transform="translate(850.164062 0)"/>
     <use xlink:href="#LiberationSans-Bold-20" transform="translate(911.248047 0)"/>
     <use xlink:href="#LiberationSans-Bold-28" transform="translate(939.03125 0)"/>
     <use xlink:href="#LiberationSans-Bold-54" transform="translate(972.332031 0)"/>
     <use xlink:href="#LiberationSans-Bold-65" transform="translate(1026.041016 0)"/>
     <use xlink:href="#LiberationSans-Bold-6e" transform="translate(1081.65625 0)"/>
     <use xlink:href="#LiberationSans-Bold-73" transform="translate(1142.740234 0)"/>
     <use xlink:href="#LiberationSans-Bold-65" transform="translate(1198.355469 0)"/>
     <use xlink:href="#LiberationSans-Bold-67" transform="translate(1253.970703 0)"/>
     <use xlink:href="#LiberationSans-Bold-72" transform="translate(1315.054688 0)"/>
     <use xlink:href="#LiberationSans-Bold-69" transform="translate(1353.970703 0)"/>
     <use xlink:href="#LiberationSans-Bold-74" transform="translate(1381.753906 0)"/>
     <use xlink:href="#LiberationSans-Bold-79" transform="translate(1415.054688 0)"/>
     <use xlink:href="#LiberationSans-Bold-29" transform="translate(1470.669922 0)"/>
    </g>
   </g>
   <g id="text_11">
    <!-- ✓ Semantic verification -->
    <g style="fill: #262626" transform="translate(578.97 150.545937) scale(0.1 -0.1)">
     <defs>
      <path id="LiberationSans-Bold-2713" d="M 641 4403 
L 4156 4403 
L 4156 0 
L 641 0 
L 641 4403 
z
M 878 4166 
L 878 238 
L 3919 238 
L 3919 4166 
L 878 4166 
z
" transform="scale(0.015625)"/>
      <path id="LiberationSans-Bold-53" d="M 4019 1269 
Q 4019 622 3539 279 
Q 3059 -63 2131 -63 
Q 1284 -63 803 237 
Q 322 538 184 1147 
L 1075 1294 
Q 1166 944 1428 786 
Q 1691 628 2156 628 
Q 3122 628 3122 1216 
Q 3122 1403 3011 1525 
Q 2900 1647 2698 1728 
Q 2497 1809 1925 1925 
Q 1431 2041 1237 2111 
Q 1044 2181 887 2276 
Q 731 2372 622 2506 
Q 513 2641 452 2822 
Q 391 3003 391 3238 
Q 391 3834 839 4151 
Q 1288 4469 2144 4469 
Q 2963 4469 3373 4212 
Q 3784 3956 3903 3366 
L 3009 3244 
Q 2941 3528 2730 3672 
Q 2519 3816 2125 3816 
Q 1288 3816 1288 3291 
Q 1288 3119 1377 3009 
Q 1466 2900 1641 2823 
Q 1816 2747 2350 2631 
Q 2984 2497 3257 2383 
Q 3531 2269 3690 2117 
Q 3850 1966 3934 1755 
Q 4019 1544 4019 1269 
z
" transform="scale(0.015625)"/>
      <path id="LiberationSans-Bold-6d" d="M 2438 0 
L 2438 1897 
Q 2438 2788 1925 2788 
Q 1659 2788 1492 2516 
Q 1325 2244 1325 1813 
L 1325 0 
L 447 0 
L 447 2625 
Q 447 2897 439 3070 
Q 431 3244 422 3381 
L 1259 3381 
Q 1269 3322 1284 3064 
Q 1300 2806 1300 2709 
L 1313 2709 
Q 1475 3097 1717 3272 
Q 1959 3447 2297 3447 
Q 3072 3447 3238 2709 
L 3256 2709 
Q 3428 3103 3668 3275 
Q 3909 3447 4281 3447 
Q 4775 3447 5034 3111 
Q 5294 2775 5294 2147 
L 5294 0 
L 4422 0 
L 4422 1897 
Q 4422 2788 3909 2788 
Q 3653 2788 3489 2539 
Q 3325 2291 3309 1853 
L 3309 0 
L 2438 0 
z
" transform="scale(0.015625)"/>
     </defs>
     <use xlink:href="#LiberationSans-Bold-2713"/>
     <use xlink:href="#LiberationSans-Bold-20" transform="translate(75 0)"/>
     <use xlink:href="#LiberationSans-Bold-53" transform="translate(102.783203 0)"/>
     <use xlink:href="#LiberationSans-Bold-65" transform="translate(169.482422 0)"/>
     <use xlink:href="#LiberationSans-Bold-6d" transform="translate(225.097656 0)"/>
     <use xlink:href="#LiberationSans-Bold-61" transform="translate(314.013672 0)"/>
     <use xlink:href="#LiberationSans-Bold-6e" transform="translate(369.628906 0)"/>
     <use xlink:href="#LiberationSans-Bold-74" transform="translate(430.712891 0)"/>
     <use xlink:href="#LiberationSans-Bold-69" transform="translate(464.013672 0)"/>
     <use xlink:href="#LiberationSans-Bold-63" transform="translate(491.796875 0)"/>
     <use xlink:href="#LiberationSans-Bold-20" transform="translate(547.412109 0)"/>
     <use xlink:href="#LiberationSans-Bold-76" transform="translate(575.195312 0)"/>
     <use xlink:href="#LiberationSans-Bold-65" transform="translate(630.810547 0)"/>
     <use xlink:href="#LiberationSans-Bold-72" transform="translate(686.425781 0)"/>
     <use xlink:href="#LiberationSans-Bold-69" transform="translate(725.341797 0)"/>
     <use xlink:href="#LiberationSans-Bold-66" transform="translate(753.125 0)"/>
     <use xlink:href="#LiberationSans-Bold-69" transform="translate(786.425781 0)"/>
     <use xlink:href="#LiberationSans-Bold-63" transform="translate(814.208984 0)"/>
     <use xlink:href="#LiberationSans-Bold-61" transform="translate(869.824219 0)"/>
     <use xlink:href="#LiberationSans-Bold-74" transform="translate(925.439453 0)"/>
     <use xlink:href="#LiberationSans-Bold-69" transform="translate(958.740234 0)"/>
     <use xlink:href="#LiberationSans-Bold-6f" transform="translate(986.523438 0)"/>
     <use xlink:href="#LiberationSans-Bold-6e" transform="translate(1047.607422 0)"/>
    </g>
   </g>
   <g id="text_12">
    <!-- Intent-based invariants -->
    <g style="fill: #262626" transform="translate(839.49875 150.02875) scale(0.08 -0.08)">
     <defs>
      <path id="LiberationSans-Italic-49" d="M 253 0 
L 1109 4403 
L 1706 4403 
L 850 0 
L 253 0 
z
" transform="scale(0.015625)"/>
      <path id="LiberationSans-Italic-2d" d="M 328 1450 
L 425 1950 
L 1988 1950 
L 1891 1450 
L 328 1450 
z
" transform="scale(0.015625)"/>
     </defs>
     <use xlink:href="#LiberationSans-Italic-49"/>
     <use xlink:href="#LiberationSans-Italic-6e" transform="translate(27.783203 0)"/>
     <use xlink:href="#LiberationSans-Italic-74" transform="translate(83.398438 0)"/>
     <use xlink:href="#LiberationSans-Italic-65" transform="translate(111.181641 0)"/>
     <use xlink:href="#LiberationSans-Italic-6e" transform="translate(166.796875 0)"/>
     <use xlink:href="#LiberationSans-Italic-74" transform="translate(222.412109 0)"/>
     <use xlink:href="#LiberationSans-Italic-2d" transform="translate(250.195312 0)"/>
     <use xlink:href="#LiberationSans-Italic-62" transform="translate(283.496094 0)"/>
     <use xlink:href="#LiberationSans-Italic-61" transform="translate(339.111328 0)"/>
     <use xlink:href="#LiberationSans-Italic-73" transform="translate(394.726562 0)"/>
     <use xlink:href="#LiberationSans-Italic-65" transform="translate(444.726562 0)"/>
     <use xlink:href="#LiberationSans-Italic-64" transform="translate(500.341797 0)"/>
     <use xlink:href="#LiberationSans-Italic-20" transform="translate(555.957031 0)"/>
     <use xlink:href="#LiberationSans-Italic-69" transform="translate(583.740234 0)"/>
     <use xlink:href="#LiberationSans-Italic-6e" transform="translate(605.957031 0)"/>
     <use xlink:href="#LiberationSans-Italic-76" transform="translate(661.572266 0)"/>
     <use xlink:href="#LiberationSans-Italic-61" transform="translate(711.572266 0)"/>
     <use xlink:href="#LiberationSans-Italic-72" transform="translate(767.1875 0)"/>
     <use xlink:href="#LiberationSans-Italic-69" transform="translate(800.488281 0)"/>
     <use xlink:href="#LiberationSans-Italic-61" transform="translate(822.705078 0)"/>
     <use xlink:href="#LiberationSans-Italic-6e" transform="translate(878.320312 0)"/>
     <use xlink:href="#LiberationSans-Italic-74" transform="translate(933.935547 0)"/>
     <use xlink:href="#LiberationSans-Italic-73" transform="translate(961.71875 0)"/>
    </g>
   </g>
   <g id="text_13">
    <!-- ✓ Human comprehension -->
    <g style="fill: #262626" transform="translate(578.97 208.325937) scale(0.1 -0.1)">
     <defs>
      <path id="LiberationSans-Bold-48" d="M 3269 0 
L 3269 1888 
L 1350 1888 
L 1350 0 
L 428 0 
L 428 4403 
L 1350 4403 
L 1350 2650 
L 3269 2650 
L 3269 4403 
L 4191 4403 
L 4191 0 
L 3269 0 
z
" transform="scale(0.015625)"/>
     </defs>
     <use xlink:href="#LiberationSans-Bold-2713"/>
     <use xlink:href="#LiberationSans-Bold-20" transform="translate(75 0)"/>
     <use xlink:href="#LiberationSans-Bold-48" transform="translate(102.783203 0)"/>
     <use xlink:href="#LiberationSans-Bold-75" transform="translate(175 0)"/>
     <use xlink:href="#LiberationSans-Bold-6d" transform="translate(236.083984 0)"/>
     <use xlink:href="#LiberationSans-Bold-61" transform="translate(325 0)"/>
     <use xlink:href="#LiberationSans-Bold-6e" transform="translate(380.615234 0)"/>
     <use xlink:href="#LiberationSans-Bold-20" transform="translate(441.699219 0)"/>
     <use xlink:href="#LiberationSans-Bold-63" transform="translate(469.482422 0)"/>
     <use xlink:href="#LiberationSans-Bold-6f" transform="translate(525.097656 0)"/>
     <use xlink:href="#LiberationSans-Bold-6d" transform="translate(586.181641 0)"/>
     <use xlink:href="#LiberationSans-Bold-70" transform="translate(675.097656 0)"/>
     <use xlink:href="#LiberationSans-Bold-72" transform="translate(736.181641 0)"/>
     <use xlink:href="#LiberationSans-Bold-65" transform="translate(775.097656 0)"/>
     <use xlink:href="#LiberationSans-Bold-68" transform="translate(830.712891 0)"/>
     <use xlink:href="#LiberationSans-Bold-65" transform="translate(891.796875 0)"/>
     <use xlink:href="#LiberationSans-Bold-6e" transform="translate(947.412109 0)"/>
     <use xlink:href="#LiberationSans-Bold-73" transform="translate(1008.496094 0)"/>
     <use xlink:href="#LiberationSans-Bold-69" transform="translate(1064.111328 0)"/>
     <use xlink:href="#LiberationSans-Bold-6f" transform="translate(1091.894531 0)"/>
     <use xlink:href="#LiberationSans-Bold-6e" transform="translate(1152.978516 0)"/>
    </g>
   </g>
   <g id="text_14">
    <!-- Prediction challenges -->
    <g style="fill: #262626" transform="translate(844.3875 207.80875) scale(0.08 -0.08)">
     <defs>
      <path id="LiberationSans-Italic-50" d="M 2663 4403 
Q 3384 4403 3806 4078 
Q 4228 3753 4228 3188 
Q 4228 2500 3751 2108 
Q 3275 1716 2450 1716 
L 1125 1716 
L 794 0 
L 197 0 
L 1050 4403 
L 2663 4403 
z
M 1219 2188 
L 2428 2188 
Q 3622 2188 3622 3159 
Q 3622 3531 3375 3728 
Q 3128 3925 2647 3925 
L 1556 3925 
L 1219 2188 
z
" transform="scale(0.015625)"/>
      <path id="LiberationSans-Italic-63" d="M 1466 381 
Q 2106 381 2369 1100 
L 2856 947 
Q 2478 -63 1453 -63 
Q 853 -63 531 278 
Q 209 619 209 1234 
Q 209 1859 436 2396 
Q 663 2934 1036 3189 
Q 1409 3444 1953 3444 
Q 2481 3444 2789 3178 
Q 3097 2913 3128 2450 
L 2575 2372 
Q 2556 2675 2387 2839 
Q 2219 3003 1934 3003 
Q 1541 3003 1297 2792 
Q 1053 2581 918 2122 
Q 784 1663 784 1216 
Q 784 381 1466 381 
z
" transform="scale(0.015625)"/>
      <path id="LiberationSans-Italic-68" d="M 1197 2803 
Q 1456 3163 1717 3302 
Q 1978 3441 2338 3441 
Q 2800 3441 3033 3212 
Q 3266 2984 3266 2553 
Q 3266 2353 3200 2041 
L 2803 0 
L 2238 0 
L 2631 2016 
Q 2688 2291 2688 2484 
Q 2688 3006 2128 3006 
Q 1734 3006 1434 2706 
Q 1134 2406 1034 1894 
L 666 0 
L 106 0 
L 1006 4638 
L 1569 4638 
L 1334 3431 
Q 1278 3119 1188 2803 
L 1197 2803 
z
" transform="scale(0.015625)"/>
     </defs>
     <use xlink:href="#LiberationSans-Italic-50"/>
     <use xlink:href="#LiberationSans-Italic-72" transform="translate(66.699219 0)"/>
     <use xlink:href="#LiberationSans-Italic-65" transform="translate(100 0)"/>
     <use xlink:href="#LiberationSans-Italic-64" transform="translate(155.615234 0)"/>
     <use xlink:href="#LiberationSans-Italic-69" transform="translate(211.230469 0)"/>
     <use xlink:href="#LiberationSans-Italic-63" transform="translate(233.447266 0)"/>
     <use xlink:href="#LiberationSans-Italic-74" transform="translate(283.447266 0)"/>
     <use xlink:href="#LiberationSans-Italic-69" transform="translate(311.230469 0)"/>
     <use xlink:href="#LiberationSans-Italic-6f" transform="translate(333.447266 0)"/>
     <use xlink:href="#LiberationSans-Italic-6e" transform="translate(389.0625 0)"/>
     <use xlink:href="#LiberationSans-Italic-20" transform="translate(444.677734 0)"/>
     <use xlink:href="#LiberationSans-Italic-63" transform="translate(472.460938 0)"/>
     <use xlink:href="#LiberationSans-Italic-68" transform="translate(522.460938 0)"/>
     <use xlink:href="#LiberationSans-Italic-61" transform="translate(578.076172 0)"/>
     <use xlink:href="#LiberationSans-Italic-6c" transform="translate(633.691406 0)"/>
     <use xlink:href="#LiberationSans-Italic-6c" transform="translate(655.908203 0)"/>
     <use xlink:href="#LiberationSans-Italic-65" transform="translate(678.125 0)"/>
     <use xlink:href="#LiberationSans-Italic-6e" transform="translate(733.740234 0)"/>
     <use xlink:href="#LiberationSans-Italic-67" transform="translate(789.355469 0)"/>
     <use xlink:href="#LiberationSans-Italic-65" transform="translate(844.970703 0)"/>
     <use xlink:href="#LiberationSans-Italic-73" transform="translate(900.585938 0)"/>
    </g>
   </g>
   <g id="text_15">
    <!-- ✓ Adversarial testing -->
    <g style="fill: #262626" transform="translate(578.97 266.084062) scale(0.1 -0.1)">
     <use xlink:href="#LiberationSans-Bold-2713"/>
     <use xlink:href="#LiberationSans-Bold-20" transform="translate(75 0)"/>
     <use xlink:href="#LiberationSans-Bold-41" transform="translate(99.033203 0)"/>
     <use xlink:href="#LiberationSans-Bold-64" transform="translate(171.25 0)"/>
     <use xlink:href="#LiberationSans-Bold-76" transform="translate(232.333984 0)"/>
     <use xlink:href="#LiberationSans-Bold-65" transform="translate(287.949219 0)"/>
     <use xlink:href="#LiberationSans-Bold-72" transform="translate(343.564453 0)"/>
     <use xlink:href="#LiberationSans-Bold-73" transform="translate(382.480469 0)"/>
     <use xlink:href="#LiberationSans-Bold-61" transform="translate(438.095703 0)"/>
     <use xlink:href="#LiberationSans-Bold-72" transform="translate(493.710938 0)"/>
     <use xlink:href="#LiberationSans-Bold-69" transform="translate(532.626953 0)"/>
     <use xlink:href="#LiberationSans-Bold-61" transform="translate(560.410156 0)"/>
     <use xlink:href="#LiberationSans-Bold-6c" transform="translate(616.025391 0)"/>
     <use xlink:href="#LiberationSans-Bold-20" transform="translate(643.808594 0)"/>
     <use xlink:href="#LiberationSans-Bold-74" transform="translate(671.591797 0)"/>
     <use xlink:href="#LiberationSans-Bold-65" transform="translate(704.892578 0)"/>
     <use xlink:href="#LiberationSans-Bold-73" transform="translate(760.507812 0)"/>
     <use xlink:href="#LiberationSans-Bold-74" transform="translate(816.123047 0)"/>
     <use xlink:href="#LiberationSans-Bold-69" transform="translate(849.423828 0)"/>
     <use xlink:href="#LiberationSans-Bold-6e" transform="translate(877.207031 0)"/>
     <use xlink:href="#LiberationSans-Bold-67" transform="translate(938.291016 0)"/>
    </g>
   </g>
   <g id="text_16">
    <!-- Mutation testing -->
    <g style="fill: #262626" transform="translate(863.9575 265.58875) scale(0.08 -0.08)">
     <defs>
      <path id="LiberationSans-Italic-4d" d="M 3941 0 
L 4503 2900 
Q 4616 3478 4706 3838 
Q 4422 3247 4253 2963 
L 2541 0 
L 2153 0 
L 1575 2963 
Q 1556 3053 1447 3838 
Q 1419 3650 1353 3251 
Q 1288 2853 728 0 
L 197 0 
L 1050 4403 
L 1788 4403 
L 2378 1350 
Q 2403 1228 2478 709 
L 2803 1375 
L 4531 4403 
L 5331 4403 
L 4478 0 
L 3941 0 
z
" transform="scale(0.015625)"/>
     </defs>
     <use xlink:href="#LiberationSans-Italic-4d"/>
     <use xlink:href="#LiberationSans-Italic-75" transform="translate(83.300781 0)"/>
     <use xlink:href="#LiberationSans-Italic-74" transform="translate(138.916016 0)"/>
     <use xlink:href="#LiberationSans-Italic-61" transform="translate(166.699219 0)"/>
     <use xlink:href="#LiberationSans-Italic-74" transform="translate(222.314453 0)"/>
     <use xlink:href="#LiberationSans-Italic-69" transform="translate(250.097656 0)"/>
     <use xlink:href="#LiberationSans-Italic-6f" transform="translate(272.314453 0)"/>
     <use xlink:href="#LiberationSans-Italic-6e" transform="translate(327.929688 0)"/>
     <use xlink:href="#LiberationSans-Italic-20" transform="translate(383.544922 0)"/>
     <use xlink:href="#LiberationSans-Italic-74" transform="translate(411.328125 0)"/>
     <use xlink:href="#LiberationSans-Italic-65" transform="translate(439.111328 0)"/>
     <use xlink:href="#LiberationSans-Italic-73" transform="translate(494.726562 0)"/>
     <use xlink:href="#LiberationSans-Italic-74" transform="translate(544.726562 0)"/>
     <use xlink:href="#LiberationSans-Italic-69" transform="translate(572.509766 0)"/>
     <use xlink:href="#LiberationSans-Italic-6e" transform="translate(594.726562 0)"/>
     <use xlink:href="#LiberationSans-Italic-67" transform="translate(650.341797 0)"/>
    </g>
   </g>
   <g id="text_17">
    <!-- ✓ Architecture constraints -->
    <g style="fill: #262626" transform="translate(578.97 323.885937) scale(0.1 -0.1)">
     <use xlink:href="#LiberationSans-Bold-2713"/>
     <use xlink:href="#LiberationSans-Bold-20" transform="translate(75 0)"/>
     <use xlink:href="#LiberationSans-Bold-41" transform="translate(99.033203 0)"/>
     <use xlink:href="#LiberationSans-Bold-72" transform="translate(171.25 0)"/>
     <use xlink:href="#LiberationSans-Bold-63" transform="translate(210.166016 0)"/>
     <use xlink:href="#LiberationSans-Bold-68" transform="translate(265.78125 0)"/>
     <use xlink:href="#LiberationSans-Bold-69" transform="translate(326.865234 0)"/>
     <use xlink:href="#LiberationSans-Bold-74" transform="translate(354.648438 0)"/>
     <use xlink:href="#LiberationSans-Bold-65" transform="translate(387.949219 0)"/>
     <use xlink:href="#LiberationSans-Bold-63" transform="translate(443.564453 0)"/>
     <use xlink:href="#LiberationSans-Bold-74" transform="translate(499.179688 0)"/>
     <use xlink:href="#LiberationSans-Bold-75" transform="translate(532.480469 0)"/>
     <use xlink:href="#LiberationSans-Bold-72" transform="translate(593.564453 0)"/>
     <use xlink:href="#LiberationSans-Bold-65" transform="translate(632.480469 0)"/>
     <use xlink:href="#LiberationSans-Bold-20" transform="translate(688.095703 0)"/>
     <use xlink:href="#LiberationSans-Bold-63" transform="translate(715.878906 0)"/>
     <use xlink:href="#LiberationSans-Bold-6f" transform="translate(771.494141 0)"/>
     <use xlink:href="#LiberationSans-Bold-6e" transform="translate(832.578125 0)"/>
     <use xlink:href="#LiberationSans-Bold-73" transform="translate(893.662109 0)"/>
     <use xlink:href="#LiberationSans-Bold-74" transform="translate(949.277344 0)"/>
     <use xlink:href="#LiberationSans-Bold-72" transform="translate(982.578125 0)"/>
     <use xlink:href="#LiberationSans-Bold-61" transform="translate(1021.494141 0)"/>
     <use xlink:href="#LiberationSans-Bold-69" transform="translate(1077.109375 0)"/>
     <use xlink:href="#LiberationSans-Bold-6e" transform="translate(1104.892578 0)"/>
     <use xlink:href="#LiberationSans-Bold-74" transform="translate(1165.976562 0)"/>
     <use xlink:href="#LiberationSans-Bold-73" transform="translate(1199.277344 0)"/>
    </g>
   </g>
   <g id="text_18">
    <!-- Coupling metrics -->
    <g style="fill: #262626" transform="translate(860.855 323.36875) scale(0.08 -0.08)">
     <use xlink:href="#LiberationSans-Italic-43"/>
     <use xlink:href="#LiberationSans-Italic-6f" transform="translate(72.216797 0)"/>
     <use xlink:href="#LiberationSans-Italic-75" transform="translate(127.832031 0)"/>
     <use xlink:href="#LiberationSans-Italic-70" transform="translate(183.447266 0)"/>
     <use xlink:href="#LiberationSans-Italic-6c" transform="translate(239.0625 0)"/>
     <use xlink:href="#LiberationSans-Italic-69" transform="translate(261.279297 0)"/>
     <use xlink:href="#LiberationSans-Italic-6e" transform="translate(283.496094 0)"/>
     <use xlink:href="#LiberationSans-Italic-67" transform="translate(339.111328 0)"/>
     <use xlink:href="#LiberationSans-Italic-20" transform="translate(394.726562 0)"/>
     <use xlink:href="#LiberationSans-Italic-6d" transform="translate(422.509766 0)"/>
     <use xlink:href="#LiberationSans-Italic-65" transform="translate(505.810547 0)"/>
     <use xlink:href="#LiberationSans-Italic-74" transform="translate(561.425781 0)"/>
     <use xlink:href="#LiberationSans-Italic-72" transform="translate(589.208984 0)"/>
     <use xlink:href="#LiberationSans-Italic-69" transform="translate(622.509766 0)"/>
     <use xlink:href="#LiberationSans-Italic-63" transform="translate(644.726562 0)"/>
     <use xlink:href="#LiberationSans-Italic-73" transform="translate(694.726562 0)"/>
    </g>
   </g>
   <g id="text_19">
    <!-- Defense against exploitation: -->
    <g style="fill: #008000" transform="translate(673.303281 359.82) scale(0.11 -0.11)">
     <defs>
      <path id="LiberationSans-Bold-44" d="M 4353 2234 
Q 4353 1553 4086 1045 
Q 3819 538 3330 269 
Q 2841 0 2209 0 
L 428 0 
L 428 4403 
L 2022 4403 
Q 3134 4403 3743 3842 
Q 4353 3281 4353 2234 
z
M 3425 2234 
Q 3425 2944 3056 3317 
Q 2688 3691 2003 3691 
L 1350 3691 
L 1350 713 
L 2131 713 
Q 2725 713 3075 1122 
Q 3425 1531 3425 2234 
z
" transform="scale(0.015625)"/>
      <path id="LiberationSans-Bold-78" d="M 2559 0 
L 1772 1225 
L 978 0 
L 44 0 
L 1281 1747 
L 103 3381 
L 1050 3381 
L 1772 2275 
L 2491 3381 
L 3444 3381 
L 2266 1756 
L 3513 0 
L 2559 0 
z
" transform="scale(0.015625)"/>
     </defs>
     <use xlink:href="#LiberationSans-Bold-44"/>
     <use xlink:href="#LiberationSans-Bold-65" transform="translate(72.216797 0)"/>
     <use xlink:href="#LiberationSans-Bold-66" transform="translate(127.832031 0)"/>
     <use xlink:href="#LiberationSans-Bold-65" transform="translate(161.132812 0)"/>
     <use xlink:href="#LiberationSans-Bold-6e" transform="translate(216.748047 0)"/>
     <use xlink:href="#LiberationSans-Bold-73" transform="translate(277.832031 0)"/>
     <use xlink:href="#LiberationSans-Bold-65" transform="translate(333.447266 0)"/>
     <use xlink:href="#LiberationSans-Bold-20" transform="translate(389.0625 0)"/>
     <use xlink:href="#LiberationSans-Bold-61" transform="translate(416.845703 0)"/>
     <use xlink:href="#LiberationSans-Bold-67" transform="translate(472.460938 0)"/>
     <use xlink:href="#LiberationSans-Bold-61" transform="translate(533.544922 0)"/>
     <use xlink:href="#LiberationSans-Bold-69" transform="translate(589.160156 0)"/>
     <use xlink:href="#LiberationSans-Bold-6e" transform="translate(616.943359 0)"/>
     <use xlink:href="#LiberationSans-Bold-73" transform="translate(678.027344 0)"/>
     <use xlink:href="#LiberationSans-Bold-74" transform="translate(733.642578 0)"/>
     <use xlink:href="#LiberationSans-Bold-20" transform="translate(766.943359 0)"/>
     <use xlink:href="#LiberationSans-Bold-65" transform="translate(794.726562 0)"/>
     <use xlink:href="#LiberationSans-Bold-78" transform="translate(850.341797 0)"/>
     <use xlink:href="#LiberationSans-Bold-70" transform="translate(905.957031 0)"/>
     <use xlink:href="#LiberationSans-Bold-6c" transform="translate(967.041016 0)"/>
     <use xlink:href="#LiberationSans-Bold-6f" transform="translate(994.824219 0)"/>
     <use xlink:href="#LiberationSans-Bold-69" transform="translate(1055.908203 0)"/>
     <use xlink:href="#LiberationSans-Bold-74" transform="translate(1083.691406 0)"/>
     <use xlink:href="#LiberationSans-Bold-61" transform="translate(1116.992188 0)"/>
     <use xlink:href="#LiberationSans-Bold-74" transform="translate(1172.607422 0)"/>
     <use xlink:href="#LiberationSans-Bold-69" transform="translate(1205.908203 0)"/>
     <use xlink:href="#LiberationSans-Bold-6f" transform="translate(1233.691406 0)"/>
     <use xlink:href="#LiberationSans-Bold-6e" transform="translate(1294.775391 0)"/>
     <use xlink:href="#LiberationSans-Bold-3a" transform="translate(1355.859375 0)"/>
    </g>
   </g>
   <g id="text_20">
    <!-- ✓ Multiple verification layers -->
    <g style="fill: #008000" transform="translate(693.558281 386.784) scale(0.09 -0.09)">
     <defs>
      <path id="LiberationSans-4d" d="M 4269 0 
L 4269 2938 
Q 4269 3425 4297 3875 
Q 4144 3316 4022 3000 
L 2884 0 
L 2466 0 
L 1313 3000 
L 1138 3531 
L 1034 3875 
L 1044 3528 
L 1056 2938 
L 1056 0 
L 525 0 
L 525 4403 
L 1309 4403 
L 2481 1350 
Q 2544 1166 2601 955 
Q 2659 744 2678 650 
Q 2703 775 2783 1029 
Q 2863 1284 2891 1350 
L 4041 4403 
L 4806 4403 
L 4806 0 
L 4269 0 
z
" transform="scale(0.015625)"/>
      <path id="LiberationSans-75" d="M 981 3381 
L 981 1238 
Q 981 903 1047 718 
Q 1113 534 1256 453 
Q 1400 372 1678 372 
Q 2084 372 2318 650 
Q 2553 928 2553 1422 
L 2553 3381 
L 3116 3381 
L 3116 722 
Q 3116 131 3134 0 
L 2603 0 
Q 2600 16 2597 84 
Q 2594 153 2589 242 
Q 2584 331 2578 578 
L 2569 578 
Q 2375 228 2120 82 
Q 1866 -63 1488 -63 
Q 931 -63 673 214 
Q 416 491 416 1128 
L 416 3381 
L 981 3381 
z
" transform="scale(0.015625)"/>
      <path id="LiberationSans-79" d="M 597 -1328 
Q 366 -1328 209 -1294 
L 209 -872 
Q 328 -891 472 -891 
Q 997 -891 1303 -119 
L 1356 16 
L 16 3381 
L 616 3381 
L 1328 1513 
Q 1344 1469 1366 1408 
Q 1388 1347 1506 1000 
Q 1625 653 1634 613 
L 1853 1228 
L 2594 3381 
L 3188 3381 
L 1888 0 
Q 1678 -541 1497 -805 
Q 1316 -1069 1095 -1198 
Q 875 -1328 597 -1328 
z
" transform="scale(0.015625)"/>
     </defs>
     <use xlink:href="#LiberationSans-2713"/>
     <use xlink:href="#LiberationSans-20" transform="translate(75 0)"/>
     <use xlink:href="#LiberationSans-4d" transform="translate(102.783203 0)"/>
     <use xlink:href="#LiberationSans-75" transform="translate(186.083984 0)"/>
     <use xlink:href="#LiberationSans-6c" transform="translate(241.699219 0)"/>
     <use xlink:href="#LiberationSans-74" transform="translate(263.916016 0)"/>
     <use xlink:href="#LiberationSans-69" transform="translate(291.699219 0)"/>
     <use xlink:href="#LiberationSans-70" transform="translate(313.916016 0)"/>
     <use xlink:href="#LiberationSans-6c" transform="translate(369.53125 0)"/>
     <use xlink:href="#LiberationSans-65" transform="translate(391.748047 0)"/>
     <use xlink:href="#LiberationSans-20" transform="translate(447.363281 0)"/>
     <use xlink:href="#LiberationSans-76" transform="translate(475.146484 0)"/>
     <use xlink:href="#LiberationSans-65" transform="translate(525.146484 0)"/>
     <use xlink:href="#LiberationSans-72" transform="translate(580.761719 0)"/>
     <use xlink:href="#LiberationSans-69" transform="translate(614.0625 0)"/>
     <use xlink:href="#LiberationSans-66" transform="translate(636.279297 0)"/>
     <use xlink:href="#LiberationSans-69" transform="translate(664.0625 0)"/>
     <use xlink:href="#LiberationSans-63" transform="translate(686.279297 0)"/>
     <use xlink:href="#LiberationSans-61" transform="translate(736.279297 0)"/>
     <use xlink:href="#LiberationSans-74" transform="translate(791.894531 0)"/>
     <use xlink:href="#LiberationSans-69" transform="translate(819.677734 0)"/>
     <use xlink:href="#LiberationSans-6f" transform="translate(841.894531 0)"/>
     <use xlink:href="#LiberationSans-6e" transform="translate(897.509766 0)"/>
     <use xlink:href="#LiberationSans-20" transform="translate(953.125 0)"/>
     <use xlink:href="#LiberationSans-6c" transform="translate(980.908203 0)"/>
     <use xlink:href="#LiberationSans-61" transform="translate(1003.125 0)"/>
     <use xlink:href="#LiberationSans-79" transform="translate(1058.740234 0)"/>
     <use xlink:href="#LiberationSans-65" transform="translate(1108.740234 0)"/>
     <use xlink:href="#LiberationSans-72" transform="translate(1164.355469 0)"/>
     <use xlink:href="#LiberationSans-73" transform="translate(1197.65625 0)"/>
    </g>
   </g>
   <g id="text_21">
    <!-- ✓ Human-in-loop for ambiguity -->
    <g style="fill: #008000" transform="translate(688.554141 402.192) scale(0.09 -0.09)">
     <defs>
      <path id="LiberationSans-48" d="M 3503 0 
L 3503 2041 
L 1122 2041 
L 1122 0 
L 525 0 
L 525 4403 
L 1122 4403 
L 1122 2541 
L 3503 2541 
L 3503 4403 
L 4100 4403 
L 4100 0 
L 3503 0 
z
" transform="scale(0.015625)"/>
      <path id="LiberationSans-2d" d="M 284 1450 
L 284 1950 
L 1847 1950 
L 1847 1450 
L 284 1450 
z
" transform="scale(0.015625)"/>
      <path id="LiberationSans-62" d="M 3291 1706 
Q 3291 -63 2047 -63 
Q 1663 -63 1408 76 
Q 1153 216 994 525 
L 988 525 
Q 988 428 975 229 
Q 963 31 956 0 
L 413 0 
Q 431 169 431 697 
L 431 4638 
L 994 4638 
L 994 3316 
Q 994 3113 981 2838 
L 994 2838 
Q 1150 3163 1408 3303 
Q 1666 3444 2047 3444 
Q 2688 3444 2989 3012 
Q 3291 2581 3291 1706 
z
M 2700 1688 
Q 2700 2397 2512 2703 
Q 2325 3009 1903 3009 
Q 1428 3009 1211 2684 
Q 994 2359 994 1653 
Q 994 988 1206 670 
Q 1419 353 1897 353 
Q 2322 353 2511 667 
Q 2700 981 2700 1688 
z
" transform="scale(0.015625)"/>
     </defs>
     <use xlink:href="#LiberationSans-2713"/>
     <use xlink:href="#LiberationSans-20" transform="translate(75 0)"/>
     <use xlink:href="#LiberationSans-48" transform="translate(102.783203 0)"/>
     <use xlink:href="#LiberationSans-75" transform="translate(175 0)"/>
     <use xlink:href="#LiberationSans-6d" transform="translate(230.615234 0)"/>
     <use xlink:href="#LiberationSans-61" transform="translate(313.916016 0)"/>
     <use xlink:href="#LiberationSans-6e" transform="translate(369.53125 0)"/>
     <use xlink:href="#LiberationSans-2d" transform="translate(425.146484 0)"/>
     <use xlink:href="#LiberationSans-69" transform="translate(458.447266 0)"/>
     <use xlink:href="#LiberationSans-6e" transform="translate(480.664062 0)"/>
     <use xlink:href="#LiberationSans-2d" transform="translate(536.279297 0)"/>
     <use xlink:href="#LiberationSans-6c" transform="translate(569.580078 0)"/>
     <use xlink:href="#LiberationSans-6f" transform="translate(591.796875 0)"/>
     <use xlink:href="#LiberationSans-6f" transform="translate(647.412109 0)"/>
     <use xlink:href="#LiberationSans-70" transform="translate(703.027344 0)"/>
     <use xlink:href="#LiberationSans-20" transform="translate(758.642578 0)"/>
     <use xlink:href="#LiberationSans-66" transform="translate(786.425781 0)"/>
     <use xlink:href="#LiberationSans-6f" transform="translate(814.208984 0)"/>
     <use xlink:href="#LiberationSans-72" transform="translate(869.824219 0)"/>
     <use xlink:href="#LiberationSans-20" transform="translate(903.125 0)"/>
     <use xlink:href="#LiberationSans-61" transform="translate(930.908203 0)"/>
     <use xlink:href="#LiberationSans-6d" transform="translate(986.523438 0)"/>
     <use xlink:href="#LiberationSans-62" transform="translate(1069.824219 0)"/>
     <use xlink:href="#LiberationSans-69" transform="translate(1125.439453 0)"/>
     <use xlink:href="#LiberationSans-67" transform="translate(1147.65625 0)"/>
     <use xlink:href="#LiberationSans-75" transform="translate(1203.271484 0)"/>
     <use xlink:href="#LiberationSans-69" transform="translate(1258.886719 0)"/>
     <use xlink:href="#LiberationSans-74" transform="translate(1281.103516 0)"/>
     <use xlink:href="#LiberationSans-79" transform="translate(1308.886719 0)"/>
    </g>
   </g>
   <g id="text_22">
    <!-- ✓ Adaptive thresholds -->
    <g style="fill: #008000" transform="translate(705.800391 417.6) scale(0.09 -0.09)">
     <defs>
      <path id="LiberationSans-41" d="M 3647 0 
L 3144 1288 
L 1138 1288 
L 631 0 
L 13 0 
L 1809 4403 
L 2488 4403 
L 4256 0 
L 3647 0 
z
M 2141 3953 
L 2113 3866 
Q 2034 3606 1881 3200 
L 1319 1753 
L 2966 1753 
L 2400 3206 
Q 2313 3422 2225 3694 
L 2141 3953 
z
" transform="scale(0.015625)"/>
      <path id="LiberationSans-64" d="M 2566 544 
Q 2409 219 2151 78 
Q 1894 -63 1513 -63 
Q 872 -63 570 368 
Q 269 800 269 1675 
Q 269 3444 1513 3444 
Q 1897 3444 2153 3303 
Q 2409 3163 2566 2856 
L 2572 2856 
L 2566 3234 
L 2566 4638 
L 3128 4638 
L 3128 697 
Q 3128 169 3147 0 
L 2609 0 
Q 2600 50 2589 231 
Q 2578 413 2578 544 
L 2566 544 
z
M 859 1694 
Q 859 984 1046 678 
Q 1234 372 1656 372 
Q 2134 372 2350 703 
Q 2566 1034 2566 1731 
Q 2566 2403 2350 2715 
Q 2134 3028 1663 3028 
Q 1238 3028 1048 2714 
Q 859 2400 859 1694 
z
" transform="scale(0.015625)"/>
      <path id="LiberationSans-68" d="M 991 2803 
Q 1172 3134 1426 3289 
Q 1681 3444 2072 3444 
Q 2622 3444 2883 3170 
Q 3144 2897 3144 2253 
L 3144 0 
L 2578 0 
L 2578 2144 
Q 2578 2500 2512 2673 
Q 2447 2847 2297 2928 
Q 2147 3009 1881 3009 
Q 1484 3009 1245 2734 
Q 1006 2459 1006 1994 
L 1006 0 
L 444 0 
L 444 4638 
L 1006 4638 
L 1006 3431 
Q 1006 3241 995 3037 
Q 984 2834 981 2803 
L 991 2803 
z
" transform="scale(0.015625)"/>
     </defs>
     <use xlink:href="#LiberationSans-2713"/>
     <use xlink:href="#LiberationSans-20" transform="translate(75 0)"/>
     <use xlink:href="#LiberationSans-41" transform="translate(97.283203 0)"/>
     <use xlink:href="#LiberationSans-64" transform="translate(163.982422 0)"/>
     <use xlink:href="#LiberationSans-61" transform="translate(219.597656 0)"/>
     <use xlink:href="#LiberationSans-70" transform="translate(275.212891 0)"/>
     <use xlink:href="#LiberationSans-74" transform="translate(330.828125 0)"/>
     <use xlink:href="#LiberationSans-69" transform="translate(358.611328 0)"/>
     <use xlink:href="#LiberationSans-76" transform="translate(380.828125 0)"/>
     <use xlink:href="#LiberationSans-65" transform="translate(430.828125 0)"/>
     <use xlink:href="#LiberationSans-20" transform="translate(486.443359 0)"/>
     <use xlink:href="#LiberationSans-74" transform="translate(514.226562 0)"/>
     <use xlink:href="#LiberationSans-68" transform="translate(542.009766 0)"/>
     <use xlink:href="#LiberationSans-72" transform="translate(597.625 0)"/>
     <use xlink:href="#LiberationSans-65" transform="translate(630.925781 0)"/>
     <use xlink:href="#LiberationSans-73" transform="translate(686.541016 0)"/>
     <use xlink:href="#LiberationSans-68" transform="translate(736.541016 0)"/>
     <use xlink:href="#LiberationSans-6f" transform="translate(792.15625 0)"/>
     <use xlink:href="#LiberationSans-6c" transform="translate(847.771484 0)"/>
     <use xlink:href="#LiberationSans-64" transform="translate(869.988281 0)"/>
     <use xlink:href="#LiberationSans-73" transform="translate(925.603516 0)"/>
    </g>
   </g>
  </g>
  <g id="text_23">
   <!-- Adversarial Optimization: Agents Exploit Verification (Tao's AlphaEvolve Lesson) -->
   <g style="fill: #262626" transform="translate(231.014844 17.345625) scale(0.14 -0.14)">
    <defs>
     <path id="LiberationSans-Bold-4f" d="M 4709 2222 
Q 4709 1534 4437 1012 
Q 4166 491 3659 214 
Q 3153 -63 2478 -63 
Q 1441 -63 852 548 
Q 263 1159 263 2222 
Q 263 3281 850 3875 
Q 1438 4469 2484 4469 
Q 3531 4469 4120 3869 
Q 4709 3269 4709 2222 
z
M 3769 2222 
Q 3769 2934 3431 3339 
Q 3094 3744 2484 3744 
Q 1866 3744 1528 3342 
Q 1191 2941 1191 2222 
Q 1191 1497 1536 1080 
Q 1881 663 2478 663 
Q 3097 663 3433 1069 
Q 3769 1475 3769 2222 
z
" transform="scale(0.015625)"/>
     <path id="LiberationSans-Bold-7a" d="M 256 0 
L 256 622 
L 1847 2747 
L 384 2747 
L 384 3381 
L 2816 3381 
L 2816 2753 
L 1234 641 
L 2969 641 
L 2969 0 
L 256 0 
z
" transform="scale(0.015625)"/>
     <path id="LiberationSans-Bold-45" d="M 428 0 
L 428 4403 
L 3891 4403 
L 3891 3691 
L 1350 3691 
L 1350 2584 
L 3700 2584 
L 3700 1872 
L 1350 1872 
L 1350 713 
L 4019 713 
L 4019 0 
L 428 0 
z
" transform="scale(0.015625)"/>
     <path id="LiberationSans-Bold-27" d="M 1106 2806 
L 422 2806 
L 341 4403 
L 1191 4403 
L 1106 2806 
z
" transform="scale(0.015625)"/>
     <path id="LiberationSans-Bold-4c" d="M 428 0 
L 428 4403 
L 1350 4403 
L 1350 713 
L 3713 713 
L 3713 0 
L 428 0 
z
" transform="scale(0.015625)"/>
    </defs>
    <use xlink:href="#LiberationSans-Bold-41"/>
    <use xlink:href="#LiberationSans-Bold-64" transform="translate(72.216797 0)"/>
    <use xlink:href="#LiberationSans-Bold-76" transform="translate(133.300781 0)"/>
    <use xlink:href="#LiberationSans-Bold-65" transform="translate(188.916016 0)"/>
    <use xlink:href="#LiberationSans-Bold-72" transform="translate(244.53125 0)"/>
    <use xlink:href="#LiberationSans-Bold-73" transform="translate(283.447266 0)"/>
    <use xlink:href="#LiberationSans-Bold-61" transform="translate(339.0625 0)"/>
    <use xlink:href="#LiberationSans-Bold-72" transform="translate(394.677734 0)"/>
    <use xlink:href="#LiberationSans-Bold-69" transform="translate(433.59375 0)"/>
    <use xlink:href="#LiberationSans-Bold-61" transform="translate(461.376953 0)"/>
    <use xlink:href="#LiberationSans-Bold-6c" transform="translate(516.992188 0)"/>
    <use xlink:href="#LiberationSans-Bold-20" transform="translate(544.775391 0)"/>
    <use xlink:href="#LiberationSans-Bold-4f" transform="translate(572.558594 0)"/>
    <use xlink:href="#LiberationSans-Bold-70" transform="translate(650.341797 0)"/>
    <use xlink:href="#LiberationSans-Bold-74" transform="translate(711.425781 0)"/>
    <use xlink:href="#LiberationSans-Bold-69" transform="translate(744.726562 0)"/>
    <use xlink:href="#LiberationSans-Bold-6d" transform="translate(772.509766 0)"/>
    <use xlink:href="#LiberationSans-Bold-69" transform="translate(861.425781 0)"/>
    <use xlink:href="#LiberationSans-Bold-7a" transform="translate(889.208984 0)"/>
    <use xlink:href="#LiberationSans-Bold-61" transform="translate(939.208984 0)"/>
    <use xlink:href="#LiberationSans-Bold-74" transform="translate(994.824219 0)"/>
    <use xlink:href="#LiberationSans-Bold-69" transform="translate(1028.125 0)"/>
    <use xlink:href="#LiberationSans-Bold-6f" transform="translate(1055.908203 0)"/>
    <use xlink:href="#LiberationSans-Bold-6e" transform="translate(1116.992188 0)"/>
    <use xlink:href="#LiberationSans-Bold-3a" transform="translate(1178.076172 0)"/>
    <use xlink:href="#LiberationSans-Bold-20" transform="translate(1211.376953 0)"/>
    <use xlink:href="#LiberationSans-Bold-41" transform="translate(1235.410156 0)"/>
    <use xlink:href="#LiberationSans-Bold-67" transform="translate(1307.626953 0)"/>
    <use xlink:href="#LiberationSans-Bold-65" transform="translate(1368.710938 0)"/>
    <use xlink:href="#LiberationSans-Bold-6e" transform="translate(1424.326172 0)"/>
    <use xlink:href="#LiberationSans-Bold-74" transform="translate(1485.410156 0)"/>
    <use xlink:href="#LiberationSans-Bold-73" transform="translate(1518.710938 0)"/>
    <use xlink:href="#LiberationSans-Bold-20" transform="translate(1574.326172 0)"/>
    <use xlink:href="#LiberationSans-Bold-45" transform="translate(1602.109375 0)"/>
    <use xlink:href="#LiberationSans-Bold-78" transform="translate(1668.808594 0)"/>
    <use xlink:href="#LiberationSans-Bold-70" transform="translate(1724.423828 0)"/>
    <use xlink:href="#LiberationSans-Bold-6c" transform="translate(1785.507812 0)"/>
    <use xlink:href="#LiberationSans-Bold-6f" transform="translate(1813.291016 0)"/>
    <use xlink:href="#LiberationSans-Bold-69" transform="translate(1874.375 0)"/>
    <use xlink:href="#LiberationSans-Bold-74" transform="translate(1902.158203 0)"/>
    <use xlink:href="#LiberationSans-Bold-20" transform="translate(1935.458984 0)"/>
    <use xlink:href="#LiberationSans-Bold-56" transform="translate(1963.242188 0)"/>
    <use xlink:href="#LiberationSans-Bold-65" transform="translate(2024.441406 0)"/>
    <use xlink:href="#LiberationSans-Bold-72" transform="translate(2080.056641 0)"/>
    <use xlink:href="#LiberationSans-Bold-69" transform="translate(2118.972656 0)"/>
    <use xlink:href="#LiberationSans-Bold-66" transform="translate(2146.755859 0)"/>
    <use xlink:href="#LiberationSans-Bold-69" transform="translate(2180.056641 0)"/>
    <use xlink:href="#LiberationSans-Bold-63" transform="translate(2207.839844 0)"/>
    <use xlink:href="#LiberationSans-Bold-61" transform="translate(2263.455078 0)"/>
    <use xlink:href="#LiberationSans-Bold-74" transform="translate(2319.070312 0)"/>
    <use xlink:href="#LiberationSans-Bold-69" transform="translate(2352.371094 0)"/>
    <use xlink:href="#LiberationSans-Bold-6f" transform="translate(2380.154297 0)"/>
    <use xlink:href="#LiberationSans-Bold-6e" transform="translate(2441.238281 0)"/>
    <use xlink:href="#LiberationSans-Bold-20" transform="translate(2502.322266 0)"/>
    <use xlink:href="#LiberationSans-Bold-28" transform="translate(2530.105469 0)"/>
    <use xlink:href="#LiberationSans-Bold-54" transform="translate(2563.40625 0)"/>
    <use xlink:href="#LiberationSans-Bold-61" transform="translate(2617.115234 0)"/>
    <use xlink:href="#LiberationSans-Bold-6f" transform="translate(2672.730469 0)"/>
    <use xlink:href="#LiberationSans-Bold-27" transform="translate(2733.814453 0)"/>
    <use xlink:href="#LiberationSans-Bold-73" transform="translate(2757.59375 0)"/>
    <use xlink:href="#LiberationSans-Bold-20" transform="translate(2813.208984 0)"/>
    <use xlink:href="#LiberationSans-Bold-41" transform="translate(2837.242188 0)"/>
    <use xlink:href="#LiberationSans-Bold-6c" transform="translate(2909.458984 0)"/>
    <use xlink:href="#LiberationSans-Bold-70" transform="translate(2937.242188 0)"/>
    <use xlink:href="#LiberationSans-Bold-68" transform="translate(2998.326172 0)"/>
    <use xlink:href="#LiberationSans-Bold-61" transform="translate(3059.410156 0)"/>
    <use xlink:href="#LiberationSans-Bold-45" transform="translate(3115.025391 0)"/>
    <use xlink:href="#LiberationSans-Bold-76" transform="translate(3181.724609 0)"/>
    <use xlink:href="#LiberationSans-Bold-6f" transform="translate(3237.339844 0)"/>
    <use xlink:href="#LiberationSans-Bold-6c" transform="translate(3298.423828 0)"/>
    <use xlink:href="#LiberationSans-Bold-76" transform="translate(3326.207031 0)"/>
    <use xlink:href="#LiberationSans-Bold-65" transform="translate(3381.822266 0)"/>
    <use xlink:href="#LiberationSans-Bold-20" transform="translate(3437.4375 0)"/>
    <use xlink:href="#LiberationSans-Bold-4c" transform="translate(3465.220703 0)"/>
    <use xlink:href="#LiberationSans-Bold-65" transform="translate(3526.304688 0)"/>
    <use xlink:href="#LiberationSans-Bold-73" transform="translate(3581.919922 0)"/>
    <use xlink:href="#LiberationSans-Bold-73" transform="translate(3637.535156 0)"/>
    <use xlink:href="#LiberationSans-Bold-6f" transform="translate(3693.150391 0)"/>
    <use xlink:href="#LiberationSans-Bold-6e" transform="translate(3754.234375 0)"/>
    <use xlink:href="#LiberationSans-Bold-29" transform="translate(3815.318359 0)"/>
   </g>
  </g>
 </g>
 <defs>
  <clipPath id="pac7b77d0f6">
   <rect x="7.2" y="32.4" width="487.8" height="385.2"/>
  </clipPath>
  <clipPath id="p84349f69e7">
   <rect x="505.8" y="32.4" width="487.8" height="385.2"/>
  </clipPath>
 </defs>
</svg>
