<?xml version="1.0" encoding="utf-8" standalone="no"?>
<!DOCTYPE svg PUBLIC "-//W3C//DTD SVG 1.1//EN"
  "http://www.w3.org/Graphics/SVG/1.1/DTD/svg11.dtd">
<svg xmlns:xlink="http://www.w3.org/1999/xlink" width="784.064063pt" height="496.436562pt" viewBox="0 0 784.064063 496.436562" xmlns="http://www.w3.org/2000/svg" version="1.1">
 <metadata>
  <rdf:RDF xmlns:dc="http://purl.org/dc/elements/1.1/" xmlns:cc="http://creativecommons.org/ns#" xmlns:rdf="http://www.w3.org/1999/02/22-rdf-syntax-ns#">
   <cc:Work>
    <dc:type rdf:resource="http://purl.org/dc/dcmitype/StillImage"/>
    <dc:date>2025-11-16T16:27:55.675467</dc:date>
    <dc:format>image/svg+xml</dc:format>
    <dc:creator>
     <cc:Agent>
      <dc:title>Matplotlib v3.10.7, https://matplotlib.org/</dc:title>
     </cc:Agent>
    </dc:creator>
   </cc:Work>
  </rdf:RDF>
 </metadata>
 <defs>
  <style type="text/css">*{stroke-linejoin: round; stroke-linecap: butt}</style>
 </defs>
 <g id="figure_1">
  <g id="patch_1">
   <path d="M 0 496.436562 
L 784.064063 496.436562 
L 784.064063 0 
L 0 0 
z
" style="fill: #ffffff"/>
  </g>
  <g id="axes_1">
   <g id="patch_2">
    <path d="M 42.569063 461.228437 
L 776.864063 461.228437 
L 776.864063 36.680437 
L 42.569063 36.680437 
z
" style="fill: #eaeaf2"/>
   </g>
   <g id="matplotlib.axis_1">
    <g id="xtick_1">
     <g id="line2d_1">
      <path d="M 75.946108 461.228437 
L 75.946108 36.680437 
" clip-path="url(#peaf10af864)" style="fill: none; stroke: #ffffff; stroke-opacity: 0.3; stroke-width: 0.8; stroke-linecap: round"/>
     </g>
     <g id="line2d_2"/>
     <g id="text_1">
      <!-- 0 -->
      <g style="fill: #262626" transform="translate(73.165639 471.975312) scale(0.1 -0.1)">
       <defs>
        <path id="LiberationSans-30" d="M 3309 2203 
Q 3309 1100 2920 518 
Q 2531 -63 1772 -63 
Q 1013 -63 631 515 
Q 250 1094 250 2203 
Q 250 3338 620 3903 
Q 991 4469 1791 4469 
Q 2569 4469 2939 3897 
Q 3309 3325 3309 2203 
z
M 2738 2203 
Q 2738 3156 2517 3584 
Q 2297 4013 1791 4013 
Q 1272 4013 1045 3591 
Q 819 3169 819 2203 
Q 819 1266 1048 831 
Q 1278 397 1778 397 
Q 2275 397 2506 840 
Q 2738 1284 2738 2203 
z
" transform="scale(0.015625)"/>
       </defs>
       <use xlink:href="#LiberationSans-30"/>
      </g>
     </g>
    </g>
    <g id="xtick_2">
     <g id="line2d_3">
      <path d="M 215.017131 461.228437 
L 215.017131 36.680437 
" clip-path="url(#peaf10af864)" style="fill: none; stroke: #ffffff; stroke-opacity: 0.3; stroke-width: 0.8; stroke-linecap: round"/>
     </g>
     <g id="line2d_4"/>
     <g id="text_2">
      <!-- 5 -->
      <g style="fill: #262626" transform="translate(212.236662 471.975312) scale(0.1 -0.1)">
       <defs>
        <path id="LiberationSans-35" d="M 3291 1434 
Q 3291 738 2877 337 
Q 2463 -63 1728 -63 
Q 1113 -63 734 206 
Q 356 475 256 984 
L 825 1050 
Q 1003 397 1741 397 
Q 2194 397 2450 670 
Q 2706 944 2706 1422 
Q 2706 1838 2448 2094 
Q 2191 2350 1753 2350 
Q 1525 2350 1328 2278 
Q 1131 2206 934 2034 
L 384 2034 
L 531 4403 
L 3034 4403 
L 3034 3925 
L 1044 3925 
L 959 2528 
Q 1325 2809 1869 2809 
Q 2519 2809 2905 2428 
Q 3291 2047 3291 1434 
z
" transform="scale(0.015625)"/>
       </defs>
       <use xlink:href="#LiberationSans-35"/>
      </g>
     </g>
    </g>
    <g id="xtick_3">
     <g id="line2d_5">
      <path d="M 354.088153 461.228437 
L 354.088153 36.680437 
" clip-path="url(#peaf10af864)" style="fill: none; stroke: #ffffff; stroke-opacity: 0.3; stroke-width: 0.8; stroke-linecap: round"/>
     </g>
     <g id="line2d_6"/>
     <g id="text_3">
      <!-- 10 -->
      <g style="fill: #262626" transform="translate(348.527216 471.975312) scale(0.1 -0.1)">
       <defs>
        <path id="LiberationSans-31" d="M 488 0 
L 488 478 
L 1609 478 
L 1609 3866 
L 616 3156 
L 616 3688 
L 1656 4403 
L 2175 4403 
L 2175 478 
L 3247 478 
L 3247 0 
L 488 0 
z
" transform="scale(0.015625)"/>
       </defs>
       <use xlink:href="#LiberationSans-31"/>
       <use xlink:href="#LiberationSans-30" transform="translate(55.615234 0)"/>
      </g>
     </g>
    </g>
    <g id="xtick_4">
     <g id="line2d_7">
      <path d="M 493.159176 461.228437 
L 493.159176 36.680437 
" clip-path="url(#peaf10af864)" style="fill: none; stroke: #ffffff; stroke-opacity: 0.3; stroke-width: 0.8; stroke-linecap: round"/>
     </g>
     <g id="line2d_8"/>
     <g id="text_4">
      <!-- 15 -->
      <g style="fill: #262626" transform="translate(487.598239 471.975312) scale(0.1 -0.1)">
       <use xlink:href="#LiberationSans-31"/>
       <use xlink:href="#LiberationSans-35" transform="translate(55.615234 0)"/>
      </g>
     </g>
    </g>
    <g id="xtick_5">
     <g id="line2d_9">
      <path d="M 632.230199 461.228437 
L 632.230199 36.680437 
" clip-path="url(#peaf10af864)" style="fill: none; stroke: #ffffff; stroke-opacity: 0.3; stroke-width: 0.8; stroke-linecap: round"/>
     </g>
     <g id="line2d_10"/>
     <g id="text_5">
      <!-- 20 -->
      <g style="fill: #262626" transform="translate(626.669261 471.975312) scale(0.1 -0.1)">
       <defs>
        <path id="LiberationSans-32" d="M 322 0 
L 322 397 
Q 481 763 711 1042 
Q 941 1322 1194 1548 
Q 1447 1775 1695 1969 
Q 1944 2163 2144 2356 
Q 2344 2550 2467 2762 
Q 2591 2975 2591 3244 
Q 2591 3606 2378 3806 
Q 2166 4006 1788 4006 
Q 1428 4006 1195 3811 
Q 963 3616 922 3263 
L 347 3316 
Q 409 3844 795 4156 
Q 1181 4469 1788 4469 
Q 2453 4469 2811 4155 
Q 3169 3841 3169 3263 
Q 3169 3006 3051 2753 
Q 2934 2500 2703 2247 
Q 2472 1994 1819 1463 
Q 1459 1169 1246 933 
Q 1034 697 941 478 
L 3238 478 
L 3238 0 
L 322 0 
z
" transform="scale(0.015625)"/>
       </defs>
       <use xlink:href="#LiberationSans-32"/>
       <use xlink:href="#LiberationSans-30" transform="translate(55.615234 0)"/>
      </g>
     </g>
    </g>
    <g id="xtick_6">
     <g id="line2d_11">
      <path d="M 771.301222 461.228437 
L 771.301222 36.680437 
" clip-path="url(#peaf10af864)" style="fill: none; stroke: #ffffff; stroke-opacity: 0.3; stroke-width: 0.8; stroke-linecap: round"/>
     </g>
     <g id="line2d_12"/>
     <g id="text_6">
      <!-- 25 -->
      <g style="fill: #262626" transform="translate(765.740284 471.975312) scale(0.1 -0.1)">
       <use xlink:href="#LiberationSans-32"/>
       <use xlink:href="#LiberationSans-35" transform="translate(55.615234 0)"/>
      </g>
     </g>
    </g>
    <g id="text_7">
     <!-- Months from Late 2024 -->
     <g style="fill: #262626" transform="translate(344.374687 486.746562) scale(0.12 -0.12)">
      <defs>
       <path id="LiberationSans-Bold-4d" d="M 4084 0 
L 4084 2669 
Q 4084 2759 4086 2850 
Q 4088 2941 4116 3628 
Q 3894 2788 3788 2456 
L 2994 0 
L 2338 0 
L 1544 2456 
L 1209 3628 
Q 1247 2903 1247 2669 
L 1247 0 
L 428 0 
L 428 4403 
L 1663 4403 
L 2450 1941 
L 2519 1703 
L 2669 1113 
L 2866 1819 
L 3675 4403 
L 4903 4403 
L 4903 0 
L 4084 0 
z
" transform="scale(0.015625)"/>
       <path id="LiberationSans-Bold-6f" d="M 3659 1694 
Q 3659 872 3203 404 
Q 2747 -63 1941 -63 
Q 1150 -63 700 406 
Q 250 875 250 1694 
Q 250 2509 700 2976 
Q 1150 3444 1959 3444 
Q 2788 3444 3223 2992 
Q 3659 2541 3659 1694 
z
M 2741 1694 
Q 2741 2297 2544 2569 
Q 2347 2841 1972 2841 
Q 1172 2841 1172 1694 
Q 1172 1128 1367 833 
Q 1563 538 1931 538 
Q 2741 538 2741 1694 
z
" transform="scale(0.015625)"/>
       <path id="LiberationSans-Bold-6e" d="M 2638 0 
L 2638 1897 
Q 2638 2788 2034 2788 
Q 1716 2788 1520 2514 
Q 1325 2241 1325 1813 
L 1325 0 
L 447 0 
L 447 2625 
Q 447 2897 439 3070 
Q 431 3244 422 3381 
L 1259 3381 
Q 1269 3322 1284 3064 
Q 1300 2806 1300 2709 
L 1313 2709 
Q 1491 3097 1759 3272 
Q 2028 3447 2400 3447 
Q 2938 3447 3225 3115 
Q 3513 2784 3513 2147 
L 3513 0 
L 2638 0 
z
" transform="scale(0.015625)"/>
       <path id="LiberationSans-Bold-74" d="M 1313 -56 
Q 925 -56 715 155 
Q 506 366 506 794 
L 506 2788 
L 78 2788 
L 78 3381 
L 550 3381 
L 825 4175 
L 1375 4175 
L 1375 3381 
L 2016 3381 
L 2016 2788 
L 1375 2788 
L 1375 1031 
Q 1375 784 1469 667 
Q 1563 550 1759 550 
Q 1863 550 2053 594 
L 2053 50 
Q 1728 -56 1313 -56 
z
" transform="scale(0.015625)"/>
       <path id="LiberationSans-Bold-68" d="M 1313 2706 
Q 1491 3094 1759 3269 
Q 2028 3444 2400 3444 
Q 2938 3444 3225 3112 
Q 3513 2781 3513 2144 
L 3513 0 
L 2638 0 
L 2638 1894 
Q 2638 2784 2034 2784 
Q 1716 2784 1520 2511 
Q 1325 2238 1325 1809 
L 1325 0 
L 447 0 
L 447 4638 
L 1325 4638 
L 1325 3372 
Q 1325 3031 1300 2706 
L 1313 2706 
z
" transform="scale(0.015625)"/>
       <path id="LiberationSans-Bold-73" d="M 3297 988 
Q 3297 497 2895 217 
Q 2494 -63 1784 -63 
Q 1088 -63 717 157 
Q 347 378 225 844 
L 997 959 
Q 1063 719 1223 619 
Q 1384 519 1784 519 
Q 2153 519 2322 612 
Q 2491 706 2491 906 
Q 2491 1069 2355 1164 
Q 2219 1259 1894 1325 
Q 1150 1472 890 1598 
Q 631 1725 495 1926 
Q 359 2128 359 2422 
Q 359 2906 732 3176 
Q 1106 3447 1791 3447 
Q 2394 3447 2761 3212 
Q 3128 2978 3219 2534 
L 2441 2453 
Q 2403 2659 2256 2761 
Q 2109 2863 1791 2863 
Q 1478 2863 1322 2783 
Q 1166 2703 1166 2516 
Q 1166 2369 1286 2283 
Q 1406 2197 1691 2141 
Q 2088 2059 2395 1973 
Q 2703 1888 2889 1769 
Q 3075 1650 3186 1464 
Q 3297 1278 3297 988 
z
" transform="scale(0.015625)"/>
       <path id="LiberationSans-Bold-20" transform="scale(0.015625)"/>
       <path id="LiberationSans-Bold-66" d="M 1478 2788 
L 1478 0 
L 603 0 
L 603 2788 
L 109 2788 
L 109 3381 
L 603 3381 
L 603 3734 
Q 603 4194 847 4416 
Q 1091 4638 1588 4638 
Q 1834 4638 2144 4588 
L 2144 4022 
Q 2016 4050 1888 4050 
Q 1663 4050 1570 3961 
Q 1478 3872 1478 3647 
L 1478 3381 
L 2144 3381 
L 2144 2788 
L 1478 2788 
z
" transform="scale(0.015625)"/>
       <path id="LiberationSans-Bold-72" d="M 447 0 
L 447 2588 
Q 447 2866 439 3052 
Q 431 3238 422 3381 
L 1259 3381 
Q 1269 3325 1284 3039 
Q 1300 2753 1300 2659 
L 1313 2659 
Q 1441 3016 1541 3161 
Q 1641 3306 1778 3376 
Q 1916 3447 2122 3447 
Q 2291 3447 2394 3400 
L 2394 2666 
Q 2181 2713 2019 2713 
Q 1691 2713 1508 2447 
Q 1325 2181 1325 1659 
L 1325 0 
L 447 0 
z
" transform="scale(0.015625)"/>
       <path id="LiberationSans-Bold-6d" d="M 2438 0 
L 2438 1897 
Q 2438 2788 1925 2788 
Q 1659 2788 1492 2516 
Q 1325 2244 1325 1813 
L 1325 0 
L 447 0 
L 447 2625 
Q 447 2897 439 3070 
Q 431 3244 422 3381 
L 1259 3381 
Q 1269 3322 1284 3064 
Q 1300 2806 1300 2709 
L 1313 2709 
Q 1475 3097 1717 3272 
Q 1959 3447 2297 3447 
Q 3072 3447 3238 2709 
L 3256 2709 
Q 3428 3103 3668 3275 
Q 3909 3447 4281 3447 
Q 4775 3447 5034 3111 
Q 5294 2775 5294 2147 
L 5294 0 
L 4422 0 
L 4422 1897 
Q 4422 2788 3909 2788 
Q 3653 2788 3489 2539 
Q 3325 2291 3309 1853 
L 3309 0 
L 2438 0 
z
" transform="scale(0.015625)"/>
       <path id="LiberationSans-Bold-4c" d="M 428 0 
L 428 4403 
L 1350 4403 
L 1350 713 
L 3713 713 
L 3713 0 
L 428 0 
z
" transform="scale(0.015625)"/>
       <path id="LiberationSans-Bold-61" d="M 1228 -63 
Q 738 -63 463 204 
Q 188 472 188 956 
Q 188 1481 530 1756 
Q 872 2031 1522 2038 
L 2250 2050 
L 2250 2222 
Q 2250 2553 2134 2714 
Q 2019 2875 1756 2875 
Q 1513 2875 1398 2764 
Q 1284 2653 1256 2397 
L 341 2441 
Q 425 2934 792 3189 
Q 1159 3444 1794 3444 
Q 2434 3444 2781 3128 
Q 3128 2813 3128 2231 
L 3128 1000 
Q 3128 716 3192 608 
Q 3256 500 3406 500 
Q 3506 500 3600 519 
L 3600 44 
Q 3522 25 3459 9 
Q 3397 -6 3334 -15 
Q 3272 -25 3201 -31 
Q 3131 -38 3038 -38 
Q 2706 -38 2548 125 
Q 2391 288 2359 603 
L 2341 603 
Q 1972 -63 1228 -63 
z
M 2250 1566 
L 1800 1559 
Q 1494 1547 1366 1492 
Q 1238 1438 1170 1325 
Q 1103 1213 1103 1025 
Q 1103 784 1214 667 
Q 1325 550 1509 550 
Q 1716 550 1886 662 
Q 2056 775 2153 973 
Q 2250 1172 2250 1394 
L 2250 1566 
z
" transform="scale(0.015625)"/>
       <path id="LiberationSans-Bold-65" d="M 1831 -63 
Q 1069 -63 659 389 
Q 250 841 250 1706 
Q 250 2544 665 2994 
Q 1081 3444 1844 3444 
Q 2572 3444 2956 2961 
Q 3341 2478 3341 1547 
L 3341 1522 
L 1172 1522 
Q 1172 1028 1355 776 
Q 1538 525 1875 525 
Q 2341 525 2463 928 
L 3291 856 
Q 2931 -63 1831 -63 
z
M 1831 2891 
Q 1522 2891 1355 2675 
Q 1188 2459 1178 2072 
L 2491 2072 
Q 2466 2481 2294 2686 
Q 2122 2891 1831 2891 
z
" transform="scale(0.015625)"/>
       <path id="LiberationSans-Bold-32" d="M 222 0 
L 222 609 
Q 394 988 711 1347 
Q 1028 1706 1509 2097 
Q 1972 2472 2158 2715 
Q 2344 2959 2344 3194 
Q 2344 3769 1766 3769 
Q 1484 3769 1336 3617 
Q 1188 3466 1144 3163 
L 259 3213 
Q 334 3825 717 4147 
Q 1100 4469 1759 4469 
Q 2472 4469 2853 4144 
Q 3234 3819 3234 3231 
Q 3234 2922 3112 2672 
Q 2991 2422 2800 2211 
Q 2609 2000 2376 1815 
Q 2144 1631 1925 1456 
Q 1706 1281 1526 1103 
Q 1347 925 1259 722 
L 3303 722 
L 3303 0 
L 222 0 
z
" transform="scale(0.015625)"/>
       <path id="LiberationSans-Bold-30" d="M 3297 2203 
Q 3297 1088 2914 512 
Q 2531 -63 1766 -63 
Q 253 -63 253 2203 
Q 253 2994 418 3494 
Q 584 3994 915 4231 
Q 1247 4469 1791 4469 
Q 2572 4469 2934 3903 
Q 3297 3338 3297 2203 
z
M 2416 2203 
Q 2416 2813 2356 3150 
Q 2297 3488 2165 3634 
Q 2034 3781 1784 3781 
Q 1519 3781 1383 3632 
Q 1247 3484 1189 3148 
Q 1131 2813 1131 2203 
Q 1131 1600 1192 1261 
Q 1253 922 1386 775 
Q 1519 628 1772 628 
Q 2022 628 2158 783 
Q 2294 938 2355 1278 
Q 2416 1619 2416 2203 
z
" transform="scale(0.015625)"/>
       <path id="LiberationSans-Bold-34" d="M 2938 897 
L 2938 0 
L 2100 0 
L 2100 897 
L 97 897 
L 97 1556 
L 1956 4403 
L 2938 4403 
L 2938 1550 
L 3525 1550 
L 3525 897 
L 2938 897 
z
M 2100 2991 
Q 2100 3159 2111 3356 
Q 2122 3553 2128 3609 
Q 2047 3434 1834 3103 
L 813 1550 
L 2100 1550 
L 2100 2991 
z
" transform="scale(0.015625)"/>
      </defs>
      <use xlink:href="#LiberationSans-Bold-4d"/>
      <use xlink:href="#LiberationSans-Bold-6f" transform="translate(83.300781 0)"/>
      <use xlink:href="#LiberationSans-Bold-6e" transform="translate(144.384766 0)"/>
      <use xlink:href="#LiberationSans-Bold-74" transform="translate(205.46875 0)"/>
      <use xlink:href="#LiberationSans-Bold-68" transform="translate(238.769531 0)"/>
      <use xlink:href="#LiberationSans-Bold-73" transform="translate(299.853516 0)"/>
      <use xlink:href="#LiberationSans-Bold-20" transform="translate(355.46875 0)"/>
      <use xlink:href="#LiberationSans-Bold-66" transform="translate(383.251953 0)"/>
      <use xlink:href="#LiberationSans-Bold-72" transform="translate(416.552734 0)"/>
      <use xlink:href="#LiberationSans-Bold-6f" transform="translate(455.46875 0)"/>
      <use xlink:href="#LiberationSans-Bold-6d" transform="translate(516.552734 0)"/>
      <use xlink:href="#LiberationSans-Bold-20" transform="translate(605.46875 0)"/>
      <use xlink:href="#LiberationSans-Bold-4c" transform="translate(633.251953 0)"/>
      <use xlink:href="#LiberationSans-Bold-61" transform="translate(694.335938 0)"/>
      <use xlink:href="#LiberationSans-Bold-74" transform="translate(749.951172 0)"/>
      <use xlink:href="#LiberationSans-Bold-65" transform="translate(783.251953 0)"/>
      <use xlink:href="#LiberationSans-Bold-20" transform="translate(838.867188 0)"/>
      <use xlink:href="#LiberationSans-Bold-32" transform="translate(866.650391 0)"/>
      <use xlink:href="#LiberationSans-Bold-30" transform="translate(922.265625 0)"/>
      <use xlink:href="#LiberationSans-Bold-32" transform="translate(977.880859 0)"/>
      <use xlink:href="#LiberationSans-Bold-34" transform="translate(1033.496094 0)"/>
     </g>
    </g>
   </g>
   <g id="matplotlib.axis_2">
    <g id="ytick_1">
     <g id="line2d_13">
      <path d="M 42.569063 438.279897 
L 776.864063 438.279897 
" clip-path="url(#peaf10af864)" style="fill: none; stroke: #ffffff; stroke-opacity: 0.3; stroke-width: 0.8; stroke-linecap: round"/>
     </g>
     <g id="line2d_14"/>
     <g id="text_8">
      <!-- 100 -->
      <g style="fill: #262626" transform="translate(22.38625 441.903334) scale(0.1 -0.1)">
       <use xlink:href="#LiberationSans-31"/>
       <use xlink:href="#LiberationSans-30" transform="translate(55.615234 0)"/>
       <use xlink:href="#LiberationSans-30" transform="translate(111.230469 0)"/>
      </g>
     </g>
    </g>
    <g id="ytick_2">
     <g id="line2d_15">
      <path d="M 42.569063 380.908546 
L 776.864063 380.908546 
" clip-path="url(#peaf10af864)" style="fill: none; stroke: #ffffff; stroke-opacity: 0.3; stroke-width: 0.8; stroke-linecap: round"/>
     </g>
     <g id="line2d_16"/>
     <g id="text_9">
      <!-- 150 -->
      <g style="fill: #262626" transform="translate(22.38625 384.531983) scale(0.1 -0.1)">
       <use xlink:href="#LiberationSans-31"/>
       <use xlink:href="#LiberationSans-35" transform="translate(55.615234 0)"/>
       <use xlink:href="#LiberationSans-30" transform="translate(111.230469 0)"/>
      </g>
     </g>
    </g>
    <g id="ytick_3">
     <g id="line2d_17">
      <path d="M 42.569063 323.537194 
L 776.864063 323.537194 
" clip-path="url(#peaf10af864)" style="fill: none; stroke: #ffffff; stroke-opacity: 0.3; stroke-width: 0.8; stroke-linecap: round"/>
     </g>
     <g id="line2d_18"/>
     <g id="text_10">
      <!-- 200 -->
      <g style="fill: #262626" transform="translate(22.38625 327.160632) scale(0.1 -0.1)">
       <use xlink:href="#LiberationSans-32"/>
       <use xlink:href="#LiberationSans-30" transform="translate(55.615234 0)"/>
       <use xlink:href="#LiberationSans-30" transform="translate(111.230469 0)"/>
      </g>
     </g>
    </g>
    <g id="ytick_4">
     <g id="line2d_19">
      <path d="M 42.569063 266.165843 
L 776.864063 266.165843 
" clip-path="url(#peaf10af864)" style="fill: none; stroke: #ffffff; stroke-opacity: 0.3; stroke-width: 0.8; stroke-linecap: round"/>
     </g>
     <g id="line2d_20"/>
     <g id="text_11">
      <!-- 250 -->
      <g style="fill: #262626" transform="translate(22.38625 269.78928) scale(0.1 -0.1)">
       <use xlink:href="#LiberationSans-32"/>
       <use xlink:href="#LiberationSans-35" transform="translate(55.615234 0)"/>
       <use xlink:href="#LiberationSans-30" transform="translate(111.230469 0)"/>
      </g>
     </g>
    </g>
    <g id="ytick_5">
     <g id="line2d_21">
      <path d="M 42.569063 208.794492 
L 776.864063 208.794492 
" clip-path="url(#peaf10af864)" style="fill: none; stroke: #ffffff; stroke-opacity: 0.3; stroke-width: 0.8; stroke-linecap: round"/>
     </g>
     <g id="line2d_22"/>
     <g id="text_12">
      <!-- 300 -->
      <g style="fill: #262626" transform="translate(22.38625 212.417929) scale(0.1 -0.1)">
       <defs>
        <path id="LiberationSans-33" d="M 3278 1216 
Q 3278 606 2890 271 
Q 2503 -63 1784 -63 
Q 1116 -63 717 239 
Q 319 541 244 1131 
L 825 1184 
Q 938 403 1784 403 
Q 2209 403 2451 612 
Q 2694 822 2694 1234 
Q 2694 1594 2417 1795 
Q 2141 1997 1619 1997 
L 1300 1997 
L 1300 2484 
L 1606 2484 
Q 2069 2484 2323 2686 
Q 2578 2888 2578 3244 
Q 2578 3597 2370 3801 
Q 2163 4006 1753 4006 
Q 1381 4006 1151 3815 
Q 922 3625 884 3278 
L 319 3322 
Q 381 3863 767 4166 
Q 1153 4469 1759 4469 
Q 2422 4469 2789 4161 
Q 3156 3853 3156 3303 
Q 3156 2881 2920 2617 
Q 2684 2353 2234 2259 
L 2234 2247 
Q 2728 2194 3003 1916 
Q 3278 1638 3278 1216 
z
" transform="scale(0.015625)"/>
       </defs>
       <use xlink:href="#LiberationSans-33"/>
       <use xlink:href="#LiberationSans-30" transform="translate(55.615234 0)"/>
       <use xlink:href="#LiberationSans-30" transform="translate(111.230469 0)"/>
      </g>
     </g>
    </g>
    <g id="ytick_6">
     <g id="line2d_23">
      <path d="M 42.569063 151.42314 
L 776.864063 151.42314 
" clip-path="url(#peaf10af864)" style="fill: none; stroke: #ffffff; stroke-opacity: 0.3; stroke-width: 0.8; stroke-linecap: round"/>
     </g>
     <g id="line2d_24"/>
     <g id="text_13">
      <!-- 350 -->
      <g style="fill: #262626" transform="translate(22.38625 155.046578) scale(0.1 -0.1)">
       <use xlink:href="#LiberationSans-33"/>
       <use xlink:href="#LiberationSans-35" transform="translate(55.615234 0)"/>
       <use xlink:href="#LiberationSans-30" transform="translate(111.230469 0)"/>
      </g>
     </g>
    </g>
    <g id="ytick_7">
     <g id="line2d_25">
      <path d="M 42.569063 94.051789 
L 776.864063 94.051789 
" clip-path="url(#peaf10af864)" style="fill: none; stroke: #ffffff; stroke-opacity: 0.3; stroke-width: 0.8; stroke-linecap: round"/>
     </g>
     <g id="line2d_26"/>
     <g id="text_14">
      <!-- 400 -->
      <g style="fill: #262626" transform="translate(22.38625 97.675226) scale(0.1 -0.1)">
       <defs>
        <path id="LiberationSans-34" d="M 2753 997 
L 2753 0 
L 2222 0 
L 2222 997 
L 147 997 
L 147 1434 
L 2163 4403 
L 2753 4403 
L 2753 1441 
L 3372 1441 
L 3372 997 
L 2753 997 
z
M 2222 3769 
Q 2216 3750 2134 3603 
Q 2053 3456 2013 3397 
L 884 1734 
L 716 1503 
L 666 1441 
L 2222 1441 
L 2222 3769 
z
" transform="scale(0.015625)"/>
       </defs>
       <use xlink:href="#LiberationSans-34"/>
       <use xlink:href="#LiberationSans-30" transform="translate(55.615234 0)"/>
       <use xlink:href="#LiberationSans-30" transform="translate(111.230469 0)"/>
      </g>
     </g>
    </g>
    <g id="ytick_8">
     <g id="line2d_27">
      <path d="M 42.569063 36.680437 
L 776.864063 36.680437 
" clip-path="url(#peaf10af864)" style="fill: none; stroke: #ffffff; stroke-opacity: 0.3; stroke-width: 0.8; stroke-linecap: round"/>
     </g>
     <g id="line2d_28"/>
     <g id="text_15">
      <!-- 450 -->
      <g style="fill: #262626" transform="translate(22.38625 40.303875) scale(0.1 -0.1)">
       <use xlink:href="#LiberationSans-34"/>
       <use xlink:href="#LiberationSans-35" transform="translate(55.615234 0)"/>
       <use xlink:href="#LiberationSans-30" transform="translate(111.230469 0)"/>
      </g>
     </g>
    </g>
    <g id="text_16">
     <!-- Relative Capability -->
     <g style="fill: #262626" transform="translate(15.89625 302.302875) rotate(-90) scale(0.12 -0.12)">
      <defs>
       <path id="LiberationSans-Bold-52" d="M 3453 0 
L 2431 1672 
L 1350 1672 
L 1350 0 
L 428 0 
L 428 4403 
L 2628 4403 
Q 3416 4403 3844 4064 
Q 4272 3725 4272 3091 
Q 4272 2628 4009 2292 
Q 3747 1956 3300 1850 
L 4491 0 
L 3453 0 
z
M 3344 3053 
Q 3344 3688 2531 3688 
L 1350 3688 
L 1350 2388 
L 2556 2388 
Q 2944 2388 3144 2563 
Q 3344 2738 3344 3053 
z
" transform="scale(0.015625)"/>
       <path id="LiberationSans-Bold-6c" d="M 447 0 
L 447 4638 
L 1325 4638 
L 1325 0 
L 447 0 
z
" transform="scale(0.015625)"/>
       <path id="LiberationSans-Bold-69" d="M 447 3991 
L 447 4638 
L 1325 4638 
L 1325 3991 
L 447 3991 
z
M 447 0 
L 447 3381 
L 1325 3381 
L 1325 0 
L 447 0 
z
" transform="scale(0.015625)"/>
       <path id="LiberationSans-Bold-76" d="M 2284 0 
L 1234 0 
L 25 3381 
L 953 3381 
L 1544 1491 
Q 1591 1334 1766 709 
Q 1797 838 1894 1159 
Q 1991 1481 2613 3381 
L 3531 3381 
L 2284 0 
z
" transform="scale(0.015625)"/>
       <path id="LiberationSans-Bold-43" d="M 2484 663 
Q 3319 663 3644 1500 
L 4447 1197 
Q 4188 559 3686 248 
Q 3184 -63 2484 -63 
Q 1422 -63 842 539 
Q 263 1141 263 2222 
Q 263 3306 822 3887 
Q 1381 4469 2444 4469 
Q 3219 4469 3706 4158 
Q 4194 3847 4391 3244 
L 3578 3022 
Q 3475 3353 3173 3548 
Q 2872 3744 2463 3744 
Q 1838 3744 1514 3356 
Q 1191 2969 1191 2222 
Q 1191 1463 1523 1063 
Q 1856 663 2484 663 
z
" transform="scale(0.015625)"/>
       <path id="LiberationSans-Bold-70" d="M 3647 1706 
Q 3647 859 3308 398 
Q 2969 -63 2350 -63 
Q 1994 -63 1730 92 
Q 1466 247 1325 538 
L 1306 538 
Q 1325 444 1325 -31 
L 1325 -1328 
L 447 -1328 
L 447 2603 
Q 447 3081 422 3381 
L 1275 3381 
Q 1291 3325 1302 3159 
Q 1313 2994 1313 2831 
L 1325 2831 
Q 1622 3453 2406 3453 
Q 2997 3453 3322 2998 
Q 3647 2544 3647 1706 
z
M 2731 1706 
Q 2731 2844 2034 2844 
Q 1684 2844 1498 2537 
Q 1313 2231 1313 1681 
Q 1313 1134 1498 836 
Q 1684 538 2028 538 
Q 2731 538 2731 1706 
z
" transform="scale(0.015625)"/>
       <path id="LiberationSans-Bold-62" d="M 3647 1703 
Q 3647 866 3311 401 
Q 2975 -63 2350 -63 
Q 1991 -63 1728 93 
Q 1466 250 1325 544 
L 1319 544 
Q 1319 434 1305 243 
Q 1291 53 1275 0 
L 422 0 
Q 447 291 447 772 
L 447 4638 
L 1325 4638 
L 1325 3344 
L 1313 2794 
L 1325 2794 
Q 1622 3444 2406 3444 
Q 3006 3444 3326 2989 
Q 3647 2534 3647 1703 
z
M 2731 1703 
Q 2731 2278 2562 2556 
Q 2394 2834 2041 2834 
Q 1684 2834 1498 2536 
Q 1313 2238 1313 1675 
Q 1313 1138 1495 838 
Q 1678 538 2034 538 
Q 2731 538 2731 1703 
z
" transform="scale(0.015625)"/>
       <path id="LiberationSans-Bold-79" d="M 884 -1328 
Q 569 -1328 331 -1288 
L 331 -663 
Q 497 -688 634 -688 
Q 822 -688 945 -628 
Q 1069 -569 1167 -431 
Q 1266 -294 1388 34 
L 50 3381 
L 978 3381 
L 1509 1797 
Q 1634 1456 1825 753 
L 1903 1050 
L 2106 1784 
L 2606 3381 
L 3525 3381 
L 2188 -178 
Q 1919 -828 1630 -1078 
Q 1341 -1328 884 -1328 
z
" transform="scale(0.015625)"/>
      </defs>
      <use xlink:href="#LiberationSans-Bold-52"/>
      <use xlink:href="#LiberationSans-Bold-65" transform="translate(72.216797 0)"/>
      <use xlink:href="#LiberationSans-Bold-6c" transform="translate(127.832031 0)"/>
      <use xlink:href="#LiberationSans-Bold-61" transform="translate(155.615234 0)"/>
      <use xlink:href="#LiberationSans-Bold-74" transform="translate(211.230469 0)"/>
      <use xlink:href="#LiberationSans-Bold-69" transform="translate(244.53125 0)"/>
      <use xlink:href="#LiberationSans-Bold-76" transform="translate(272.314453 0)"/>
      <use xlink:href="#LiberationSans-Bold-65" transform="translate(327.929688 0)"/>
      <use xlink:href="#LiberationSans-Bold-20" transform="translate(383.544922 0)"/>
      <use xlink:href="#LiberationSans-Bold-43" transform="translate(411.328125 0)"/>
      <use xlink:href="#LiberationSans-Bold-61" transform="translate(483.544922 0)"/>
      <use xlink:href="#LiberationSans-Bold-70" transform="translate(539.160156 0)"/>
      <use xlink:href="#LiberationSans-Bold-61" transform="translate(600.244141 0)"/>
      <use xlink:href="#LiberationSans-Bold-62" transform="translate(655.859375 0)"/>
      <use xlink:href="#LiberationSans-Bold-69" transform="translate(716.943359 0)"/>
      <use xlink:href="#LiberationSans-Bold-6c" transform="translate(744.726562 0)"/>
      <use xlink:href="#LiberationSans-Bold-69" transform="translate(772.509766 0)"/>
      <use xlink:href="#LiberationSans-Bold-74" transform="translate(800.292969 0)"/>
      <use xlink:href="#LiberationSans-Bold-79" transform="translate(833.59375 0)"/>
     </g>
    </g>
   </g>
   <g id="FillBetweenPolyCollection_1">
    <path d="M 75.946108 438.279897 
L 75.946108 438.279897 
L 103.760313 438.279897 
L 131.574517 438.279897 
L 159.388722 438.279897 
L 187.202926 438.279897 
L 215.017131 438.279897 
L 242.831335 403.857086 
L 270.64554 403.857086 
L 298.459744 403.857086 
L 326.273949 403.857086 
L 354.088153 403.857086 
L 381.902358 403.857086 
L 409.716563 369.434275 
L 437.530767 369.434275 
L 465.344972 369.434275 
L 493.159176 369.434275 
L 520.973381 369.434275 
L 548.787585 369.434275 
L 576.60179 323.537194 
L 604.415994 323.537194 
L 632.230199 323.537194 
L 660.044403 323.537194 
L 687.858608 323.537194 
L 715.672813 323.537194 
L 743.487017 323.537194 
L 743.487017 -902.185833 
L 743.487017 -902.185833 
L 715.672813 -794.392615 
L 687.858608 -694.584081 
L 660.044403 -602.168771 
L 632.230199 -516.59904 
L 604.415994 -437.367807 
L 576.60179 -364.005555 
L 548.787585 -126.257515 
L 520.973381 -75.940469 
L 493.159176 -29.350612 
L 465.344972 13.788144 
L 437.530767 53.731437 
L 409.716563 90.715968 
L 381.902358 205.222471 
L 354.088153 230.985444 
L 326.273949 254.840048 
L 298.459744 276.927644 
L 270.64554 297.379123 
L 242.831335 316.315676 
L 215.017131 384.427925 
L 187.202926 396.916419 
L 159.388722 408.47984 
L 131.574517 419.186711 
L 103.760313 429.100481 
L 75.946108 438.279897 
z
" clip-path="url(#peaf10af864)" style="fill: #f57c00; fill-opacity: 0.2; stroke: #f57c00; stroke-opacity: 0.2"/>
   </g>
   <g id="line2d_29">
    <path d="M 75.946108 438.279897 
L 103.760313 438.279897 
L 131.574517 438.279897 
L 159.388722 438.279897 
L 187.202926 438.279897 
L 215.017131 438.279897 
L 242.831335 403.857086 
L 270.64554 403.857086 
L 298.459744 403.857086 
L 326.273949 403.857086 
L 354.088153 403.857086 
L 381.902358 403.857086 
L 409.716563 369.434275 
L 437.530767 369.434275 
L 465.344972 369.434275 
L 493.159176 369.434275 
L 520.973381 369.434275 
L 548.787585 369.434275 
L 576.60179 323.537194 
L 604.415994 323.537194 
L 632.230199 323.537194 
L 660.044403 323.537194 
L 687.858608 323.537194 
L 715.672813 323.537194 
L 743.487017 323.537194 
" clip-path="url(#peaf10af864)" style="fill: none; stroke: #1565c0; stroke-opacity: 0.7; stroke-width: 2; stroke-linecap: round"/>
    <defs>
     <path id="mc90ab57d90" d="M -3 3 
L 3 3 
L 3 -3 
L -3 -3 
z
" style="stroke: #1565c0; stroke-opacity: 0.7; stroke-linejoin: miter"/>
    </defs>
    <g clip-path="url(#peaf10af864)">
     <use xlink:href="#mc90ab57d90" x="75.946108" y="438.279897" style="fill: #1565c0; fill-opacity: 0.7; stroke: #1565c0; stroke-opacity: 0.7; stroke-linejoin: miter"/>
     <use xlink:href="#mc90ab57d90" x="103.760313" y="438.279897" style="fill: #1565c0; fill-opacity: 0.7; stroke: #1565c0; stroke-opacity: 0.7; stroke-linejoin: miter"/>
     <use xlink:href="#mc90ab57d90" x="131.574517" y="438.279897" style="fill: #1565c0; fill-opacity: 0.7; stroke: #1565c0; stroke-opacity: 0.7; stroke-linejoin: miter"/>
     <use xlink:href="#mc90ab57d90" x="159.388722" y="438.279897" style="fill: #1565c0; fill-opacity: 0.7; stroke: #1565c0; stroke-opacity: 0.7; stroke-linejoin: miter"/>
     <use xlink:href="#mc90ab57d90" x="187.202926" y="438.279897" style="fill: #1565c0; fill-opacity: 0.7; stroke: #1565c0; stroke-opacity: 0.7; stroke-linejoin: miter"/>
     <use xlink:href="#mc90ab57d90" x="215.017131" y="438.279897" style="fill: #1565c0; fill-opacity: 0.7; stroke: #1565c0; stroke-opacity: 0.7; stroke-linejoin: miter"/>
     <use xlink:href="#mc90ab57d90" x="242.831335" y="403.857086" style="fill: #1565c0; fill-opacity: 0.7; stroke: #1565c0; stroke-opacity: 0.7; stroke-linejoin: miter"/>
     <use xlink:href="#mc90ab57d90" x="270.64554" y="403.857086" style="fill: #1565c0; fill-opacity: 0.7; stroke: #1565c0; stroke-opacity: 0.7; stroke-linejoin: miter"/>
     <use xlink:href="#mc90ab57d90" x="298.459744" y="403.857086" style="fill: #1565c0; fill-opacity: 0.7; stroke: #1565c0; stroke-opacity: 0.7; stroke-linejoin: miter"/>
     <use xlink:href="#mc90ab57d90" x="326.273949" y="403.857086" style="fill: #1565c0; fill-opacity: 0.7; stroke: #1565c0; stroke-opacity: 0.7; stroke-linejoin: miter"/>
     <use xlink:href="#mc90ab57d90" x="354.088153" y="403.857086" style="fill: #1565c0; fill-opacity: 0.7; stroke: #1565c0; stroke-opacity: 0.7; stroke-linejoin: miter"/>
     <use xlink:href="#mc90ab57d90" x="381.902358" y="403.857086" style="fill: #1565c0; fill-opacity: 0.7; stroke: #1565c0; stroke-opacity: 0.7; stroke-linejoin: miter"/>
     <use xlink:href="#mc90ab57d90" x="409.716563" y="369.434275" style="fill: #1565c0; fill-opacity: 0.7; stroke: #1565c0; stroke-opacity: 0.7; stroke-linejoin: miter"/>
     <use xlink:href="#mc90ab57d90" x="437.530767" y="369.434275" style="fill: #1565c0; fill-opacity: 0.7; stroke: #1565c0; stroke-opacity: 0.7; stroke-linejoin: miter"/>
     <use xlink:href="#mc90ab57d90" x="465.344972" y="369.434275" style="fill: #1565c0; fill-opacity: 0.7; stroke: #1565c0; stroke-opacity: 0.7; stroke-linejoin: miter"/>
     <use xlink:href="#mc90ab57d90" x="493.159176" y="369.434275" style="fill: #1565c0; fill-opacity: 0.7; stroke: #1565c0; stroke-opacity: 0.7; stroke-linejoin: miter"/>
     <use xlink:href="#mc90ab57d90" x="520.973381" y="369.434275" style="fill: #1565c0; fill-opacity: 0.7; stroke: #1565c0; stroke-opacity: 0.7; stroke-linejoin: miter"/>
     <use xlink:href="#mc90ab57d90" x="548.787585" y="369.434275" style="fill: #1565c0; fill-opacity: 0.7; stroke: #1565c0; stroke-opacity: 0.7; stroke-linejoin: miter"/>
     <use xlink:href="#mc90ab57d90" x="576.60179" y="323.537194" style="fill: #1565c0; fill-opacity: 0.7; stroke: #1565c0; stroke-opacity: 0.7; stroke-linejoin: miter"/>
     <use xlink:href="#mc90ab57d90" x="604.415994" y="323.537194" style="fill: #1565c0; fill-opacity: 0.7; stroke: #1565c0; stroke-opacity: 0.7; stroke-linejoin: miter"/>
     <use xlink:href="#mc90ab57d90" x="632.230199" y="323.537194" style="fill: #1565c0; fill-opacity: 0.7; stroke: #1565c0; stroke-opacity: 0.7; stroke-linejoin: miter"/>
     <use xlink:href="#mc90ab57d90" x="660.044403" y="323.537194" style="fill: #1565c0; fill-opacity: 0.7; stroke: #1565c0; stroke-opacity: 0.7; stroke-linejoin: miter"/>
     <use xlink:href="#mc90ab57d90" x="687.858608" y="323.537194" style="fill: #1565c0; fill-opacity: 0.7; stroke: #1565c0; stroke-opacity: 0.7; stroke-linejoin: miter"/>
     <use xlink:href="#mc90ab57d90" x="715.672813" y="323.537194" style="fill: #1565c0; fill-opacity: 0.7; stroke: #1565c0; stroke-opacity: 0.7; stroke-linejoin: miter"/>
     <use xlink:href="#mc90ab57d90" x="743.487017" y="323.537194" style="fill: #1565c0; fill-opacity: 0.7; stroke: #1565c0; stroke-opacity: 0.7; stroke-linejoin: miter"/>
    </g>
   </g>
   <g id="line2d_30">
    <path d="M 75.946108 438.279897 
L 103.760313 429.100481 
L 131.574517 419.186711 
L 159.388722 408.47984 
L 187.202926 396.916419 
L 215.017131 384.427925 
L 242.831335 316.315676 
L 270.64554 297.379123 
L 298.459744 276.927644 
L 326.273949 254.840048 
L 354.088153 230.985444 
L 381.902358 205.222471 
L 409.716563 90.715968 
L 437.530767 53.731437 
L 465.344972 13.788144 
L 474.879796 -1 
" clip-path="url(#peaf10af864)" style="fill: none; stroke: #00897b; stroke-width: 2.5; stroke-linecap: round"/>
    <defs>
     <path id="m667ce9762e" d="M 0 3 
C 0.795609 3 1.55874 2.683901 2.12132 2.12132 
C 2.683901 1.55874 3 0.795609 3 0 
C 3 -0.795609 2.683901 -1.55874 2.12132 -2.12132 
C 1.55874 -2.683901 0.795609 -3 0 -3 
C -0.795609 -3 -1.55874 -2.683901 -2.12132 -2.12132 
C -2.683901 -1.55874 -3 -0.795609 -3 0 
C -3 0.795609 -2.683901 1.55874 -2.12132 2.12132 
C -1.55874 2.683901 -0.795609 3 0 3 
z
" style="stroke: #00897b"/>
    </defs>
    <g clip-path="url(#peaf10af864)">
     <use xlink:href="#m667ce9762e" x="75.946108" y="438.279897" style="fill: #00897b; stroke: #00897b"/>
     <use xlink:href="#m667ce9762e" x="103.760313" y="429.100481" style="fill: #00897b; stroke: #00897b"/>
     <use xlink:href="#m667ce9762e" x="131.574517" y="419.186711" style="fill: #00897b; stroke: #00897b"/>
     <use xlink:href="#m667ce9762e" x="159.388722" y="408.47984" style="fill: #00897b; stroke: #00897b"/>
     <use xlink:href="#m667ce9762e" x="187.202926" y="396.916419" style="fill: #00897b; stroke: #00897b"/>
     <use xlink:href="#m667ce9762e" x="215.017131" y="384.427925" style="fill: #00897b; stroke: #00897b"/>
     <use xlink:href="#m667ce9762e" x="242.831335" y="316.315676" style="fill: #00897b; stroke: #00897b"/>
     <use xlink:href="#m667ce9762e" x="270.64554" y="297.379123" style="fill: #00897b; stroke: #00897b"/>
     <use xlink:href="#m667ce9762e" x="298.459744" y="276.927644" style="fill: #00897b; stroke: #00897b"/>
     <use xlink:href="#m667ce9762e" x="326.273949" y="254.840048" style="fill: #00897b; stroke: #00897b"/>
     <use xlink:href="#m667ce9762e" x="354.088153" y="230.985444" style="fill: #00897b; stroke: #00897b"/>
     <use xlink:href="#m667ce9762e" x="381.902358" y="205.222471" style="fill: #00897b; stroke: #00897b"/>
     <use xlink:href="#m667ce9762e" x="409.716563" y="90.715968" style="fill: #00897b; stroke: #00897b"/>
     <use xlink:href="#m667ce9762e" x="437.530767" y="53.731437" style="fill: #00897b; stroke: #00897b"/>
     <use xlink:href="#m667ce9762e" x="465.344972" y="13.788144" style="fill: #00897b; stroke: #00897b"/>
     <use xlink:href="#m667ce9762e" x="474.879796" y="-1" style="fill: #00897b; stroke: #00897b"/>
    </g>
   </g>
   <g id="patch_3">
    <path d="M 42.569063 461.228437 
L 42.569063 36.680437 
" style="fill: none"/>
   </g>
   <g id="patch_4">
    <path d="M 776.864063 461.228437 
L 776.864063 36.680437 
" style="fill: none"/>
   </g>
   <g id="patch_5">
    <path d="M 42.569063 461.228437 
L 776.864063 461.228437 
" style="fill: none"/>
   </g>
   <g id="patch_6">
    <path d="M 42.569063 36.680437 
L 776.864063 36.680437 
" style="fill: none"/>
   </g>
   <g id="patch_7">
    <path d="M 272.077666 419.136232 
Q 258.341673 411.960144 245.794821 405.405298 
" style="fill: none; stroke: #1565c0; stroke-width: 1.2; stroke-linecap: round"/>
    <path d="M 248.152138 408.667668 
L 245.794821 405.405298 
L 249.819107 405.476866 
" style="fill: none; stroke: #1565c0; stroke-width: 1.2; stroke-linecap: round"/>
   </g>
   <g id="text_17">
    <!-- GPT-5 class -->
    <g style="fill: #262626" transform="translate(270.64554 428.585772) scale(0.09 -0.09)">
     <defs>
      <path id="LiberationSans-Italic-47" d="M 2319 -63 
Q 1366 -63 841 425 
Q 316 913 316 1791 
Q 316 2569 644 3183 
Q 972 3797 1573 4133 
Q 2175 4469 2950 4469 
Q 3644 4469 4087 4206 
Q 4531 3944 4703 3431 
L 4100 3263 
Q 3984 3622 3681 3801 
Q 3378 3981 2913 3981 
Q 2313 3981 1861 3712 
Q 1409 3444 1168 2948 
Q 928 2453 928 1803 
Q 928 1144 1297 783 
Q 1666 422 2338 422 
Q 2769 422 3162 545 
Q 3556 669 3847 909 
L 4006 1703 
L 2691 1703 
L 2791 2203 
L 4656 2203 
L 4344 656 
Q 3906 281 3411 109 
Q 2916 -63 2319 -63 
z
" transform="scale(0.015625)"/>
      <path id="LiberationSans-Italic-50" d="M 2663 4403 
Q 3384 4403 3806 4078 
Q 4228 3753 4228 3188 
Q 4228 2500 3751 2108 
Q 3275 1716 2450 1716 
L 1125 1716 
L 794 0 
L 197 0 
L 1050 4403 
L 2663 4403 
z
M 1219 2188 
L 2428 2188 
Q 3622 2188 3622 3159 
Q 3622 3531 3375 3728 
Q 3128 3925 2647 3925 
L 1556 3925 
L 1219 2188 
z
" transform="scale(0.015625)"/>
      <path id="LiberationSans-Italic-54" d="M 2681 3916 
L 1919 0 
L 1325 0 
L 2088 3916 
L 575 3916 
L 669 4403 
L 4288 4403 
L 4194 3916 
L 2681 3916 
z
" transform="scale(0.015625)"/>
      <path id="LiberationSans-Italic-2d" d="M 328 1450 
L 425 1950 
L 1988 1950 
L 1891 1450 
L 328 1450 
z
" transform="scale(0.015625)"/>
      <path id="LiberationSans-Italic-35" d="M 1072 4403 
L 3575 4403 
L 3484 3925 
L 1494 3925 
L 1138 2528 
Q 1294 2659 1519 2734 
Q 1744 2809 2003 2809 
Q 2578 2809 2931 2476 
Q 3284 2144 3284 1581 
Q 3284 813 2834 375 
Q 2384 -63 1578 -63 
Q 419 -63 144 966 
L 653 1100 
Q 750 744 997 570 
Q 1244 397 1609 397 
Q 2128 397 2409 689 
Q 2691 981 2691 1519 
Q 2691 1900 2475 2125 
Q 2259 2350 1897 2350 
Q 1388 2350 1016 2034 
L 466 2034 
L 1072 4403 
z
" transform="scale(0.015625)"/>
      <path id="LiberationSans-Italic-20" transform="scale(0.015625)"/>
      <path id="LiberationSans-Italic-63" d="M 1466 381 
Q 2106 381 2369 1100 
L 2856 947 
Q 2478 -63 1453 -63 
Q 853 -63 531 278 
Q 209 619 209 1234 
Q 209 1859 436 2396 
Q 663 2934 1036 3189 
Q 1409 3444 1953 3444 
Q 2481 3444 2789 3178 
Q 3097 2913 3128 2450 
L 2575 2372 
Q 2556 2675 2387 2839 
Q 2219 3003 1934 3003 
Q 1541 3003 1297 2792 
Q 1053 2581 918 2122 
Q 784 1663 784 1216 
Q 784 381 1466 381 
z
" transform="scale(0.015625)"/>
      <path id="LiberationSans-Italic-6c" d="M 103 0 
L 1003 4638 
L 1566 4638 
L 663 0 
L 103 0 
z
" transform="scale(0.015625)"/>
      <path id="LiberationSans-Italic-61" d="M 2897 -31 
Q 2606 -31 2473 89 
Q 2341 209 2341 447 
L 2356 647 
L 2338 647 
Q 2078 253 1800 95 
Q 1522 -63 1128 -63 
Q 691 -63 417 200 
Q 144 463 144 869 
Q 144 1447 558 1744 
Q 972 2041 1878 2053 
L 2603 2063 
Q 2663 2369 2663 2459 
Q 2663 2744 2497 2880 
Q 2331 3016 2038 3016 
Q 1666 3016 1475 2883 
Q 1284 2750 1200 2478 
L 644 2569 
Q 784 3028 1132 3236 
Q 1481 3444 2069 3444 
Q 2603 3444 2914 3194 
Q 3225 2944 3225 2522 
Q 3225 2322 3166 2031 
L 2934 850 
Q 2900 700 2900 575 
Q 2900 347 3153 347 
Q 3238 347 3341 369 
L 3297 19 
Q 3091 -31 2897 -31 
z
M 2528 1675 
L 1906 1663 
Q 1534 1653 1321 1595 
Q 1109 1538 992 1448 
Q 875 1359 808 1223 
Q 741 1088 741 894 
Q 741 659 892 512 
Q 1044 366 1284 366 
Q 1588 366 1831 495 
Q 2075 625 2234 834 
Q 2394 1044 2444 1284 
L 2528 1675 
z
" transform="scale(0.015625)"/>
      <path id="LiberationSans-Italic-73" d="M 2834 991 
Q 2834 484 2446 210 
Q 2059 -63 1328 -63 
Q 784 -63 464 120 
Q 144 303 16 697 
L 475 872 
Q 578 597 795 472 
Q 1013 347 1378 347 
Q 1825 347 2056 498 
Q 2288 650 2288 941 
Q 2288 1134 2128 1264 
Q 1969 1394 1453 1553 
Q 1053 1684 853 1809 
Q 653 1934 547 2101 
Q 441 2269 441 2491 
Q 441 2944 803 3189 
Q 1166 3434 1825 3434 
Q 2931 3434 3069 2638 
L 2559 2559 
Q 2491 2806 2300 2915 
Q 2109 3025 1788 3025 
Q 1400 3025 1192 2901 
Q 984 2778 984 2553 
Q 984 2422 1050 2331 
Q 1116 2241 1239 2170 
Q 1363 2100 1809 1959 
Q 2206 1834 2407 1706 
Q 2609 1578 2721 1403 
Q 2834 1228 2834 991 
z
" transform="scale(0.015625)"/>
     </defs>
     <use xlink:href="#LiberationSans-Italic-47"/>
     <use xlink:href="#LiberationSans-Italic-50" transform="translate(77.783203 0)"/>
     <use xlink:href="#LiberationSans-Italic-54" transform="translate(144.482422 0)"/>
     <use xlink:href="#LiberationSans-Italic-2d" transform="translate(196.441406 0)"/>
     <use xlink:href="#LiberationSans-Italic-35" transform="translate(229.742188 0)"/>
     <use xlink:href="#LiberationSans-Italic-20" transform="translate(285.357422 0)"/>
     <use xlink:href="#LiberationSans-Italic-63" transform="translate(313.140625 0)"/>
     <use xlink:href="#LiberationSans-Italic-6c" transform="translate(363.140625 0)"/>
     <use xlink:href="#LiberationSans-Italic-61" transform="translate(385.357422 0)"/>
     <use xlink:href="#LiberationSans-Italic-73" transform="translate(440.972656 0)"/>
     <use xlink:href="#LiberationSans-Italic-73" transform="translate(490.972656 0)"/>
    </g>
    <!-- model -->
    <g style="fill: #262626" transform="translate(270.64554 438.279897) scale(0.09 -0.09)">
     <defs>
      <path id="LiberationSans-Italic-6d" d="M 2063 0 
L 2450 1981 
Q 2528 2372 2528 2525 
Q 2528 2759 2409 2882 
Q 2291 3006 2022 3006 
Q 1659 3006 1389 2697 
Q 1119 2388 1034 1888 
L 666 0 
L 106 0 
L 625 2659 
Q 688 2956 747 3381 
L 1278 3381 
Q 1278 3347 1245 3139 
Q 1213 2931 1191 2803 
L 1200 2803 
Q 1428 3159 1658 3300 
Q 1888 3441 2206 3441 
Q 2584 3441 2806 3255 
Q 3028 3069 3072 2716 
Q 3331 3122 3582 3281 
Q 3834 3441 4159 3441 
Q 4581 3441 4807 3212 
Q 5034 2984 5034 2553 
Q 5034 2353 4969 2041 
L 4572 0 
L 4016 0 
L 4403 1981 
Q 4481 2372 4481 2525 
Q 4481 2759 4362 2882 
Q 4244 3006 3975 3006 
Q 3613 3006 3344 2701 
Q 3075 2397 2988 1897 
L 2619 0 
L 2063 0 
z
" transform="scale(0.015625)"/>
      <path id="LiberationSans-Italic-6f" d="M 3356 2134 
Q 3356 1728 3231 1289 
Q 3106 850 2873 545 
Q 2641 241 2303 89 
Q 1966 -63 1534 -63 
Q 922 -63 565 306 
Q 209 675 209 1309 
Q 222 1947 440 2440 
Q 659 2934 1046 3187 
Q 1434 3441 2006 3441 
Q 2663 3441 3009 3098 
Q 3356 2756 3356 2134 
z
M 2775 2134 
Q 2775 3028 2000 3028 
Q 1578 3028 1323 2811 
Q 1069 2594 928 2153 
Q 788 1713 788 1300 
Q 788 838 988 595 
Q 1188 353 1569 353 
Q 1891 353 2086 461 
Q 2281 569 2428 798 
Q 2575 1028 2667 1384 
Q 2759 1741 2775 2134 
z
" transform="scale(0.015625)"/>
      <path id="LiberationSans-Italic-64" d="M 1253 -66 
Q 763 -66 489 229 
Q 216 525 216 1041 
Q 216 1675 408 2270 
Q 600 2866 948 3153 
Q 1297 3441 1838 3441 
Q 2222 3441 2464 3278 
Q 2706 3116 2806 2822 
L 2822 2822 
L 2909 3328 
L 3166 4638 
L 3728 4638 
L 2963 697 
Q 2872 256 2844 0 
L 2306 0 
Q 2306 159 2372 500 
L 2356 500 
Q 2128 203 1875 68 
Q 1622 -66 1253 -66 
z
M 1416 369 
Q 1725 369 1945 495 
Q 2166 622 2319 876 
Q 2472 1131 2559 1514 
Q 2647 1897 2647 2200 
Q 2647 2591 2448 2808 
Q 2250 3025 1897 3025 
Q 1516 3025 1294 2798 
Q 1072 2572 937 2058 
Q 803 1544 803 1141 
Q 803 756 950 562 
Q 1097 369 1416 369 
z
" transform="scale(0.015625)"/>
      <path id="LiberationSans-Italic-65" d="M 800 1572 
Q 781 1463 772 1219 
Q 772 803 980 581 
Q 1188 359 1606 359 
Q 1909 359 2156 509 
Q 2403 659 2541 919 
L 2972 722 
Q 2744 313 2392 125 
Q 2041 -63 1541 -63 
Q 913 -63 564 285 
Q 216 634 216 1266 
Q 216 1894 437 2392 
Q 659 2891 1062 3167 
Q 1466 3444 1969 3444 
Q 2609 3444 2965 3122 
Q 3322 2800 3322 2213 
Q 3322 1884 3247 1572 
L 800 1572 
z
M 2750 2003 
L 2763 2228 
Q 2763 2616 2561 2822 
Q 2359 3028 1981 3028 
Q 1563 3028 1277 2761 
Q 991 2494 875 2003 
L 2750 2003 
z
" transform="scale(0.015625)"/>
     </defs>
     <use xlink:href="#LiberationSans-Italic-6d"/>
     <use xlink:href="#LiberationSans-Italic-6f" transform="translate(83.300781 0)"/>
     <use xlink:href="#LiberationSans-Italic-64" transform="translate(138.916016 0)"/>
     <use xlink:href="#LiberationSans-Italic-65" transform="translate(194.53125 0)"/>
     <use xlink:href="#LiberationSans-Italic-6c" transform="translate(250.146484 0)"/>
    </g>
   </g>
   <g id="patch_8">
    <path d="M 435.252029 384.618458 
Q 423.343063 377.537016 412.587267 371.141285 
" style="fill: none; stroke: #1565c0; stroke-width: 1.2; stroke-linecap: round"/>
    <path d="M 414.761569 374.52838 
L 412.587267 371.141285 
L 416.601524 371.434101 
" style="fill: none; stroke: #1565c0; stroke-width: 1.2; stroke-linecap: round"/>
   </g>
   <g id="text_18">
    <!-- Next gen -->
    <g style="fill: #262626" transform="translate(437.530767 394.162961) scale(0.09 -0.09)">
     <defs>
      <path id="LiberationSans-Italic-4e" d="M 3084 0 
L 1425 3781 
Q 1356 3247 1294 2947 
L 728 0 
L 197 0 
L 1050 4403 
L 1713 4403 
L 3381 606 
Q 3463 1197 3522 1494 
L 4088 4403 
L 4625 4403 
L 3772 0 
L 3084 0 
z
" transform="scale(0.015625)"/>
      <path id="LiberationSans-Italic-78" d="M 2206 0 
L 1553 1388 
L 366 0 
L -256 0 
L 1281 1738 
L 456 3381 
L 1047 3381 
L 1650 2066 
L 2744 3381 
L 3388 3381 
L 1922 1744 
L 2800 0 
L 2206 0 
z
" transform="scale(0.015625)"/>
      <path id="LiberationSans-Italic-74" d="M 859 -63 
Q 594 -63 442 96 
Q 291 256 291 519 
Q 291 691 338 925 
L 731 2972 
L 341 2972 
L 422 3381 
L 819 3381 
L 1147 4138 
L 1522 4138 
L 1375 3381 
L 2000 3381 
L 1919 2972 
L 1294 2972 
L 903 956 
Q 866 769 866 659 
Q 866 384 1147 384 
Q 1278 384 1459 428 
L 1400 13 
Q 1091 -63 859 -63 
z
" transform="scale(0.015625)"/>
      <path id="LiberationSans-Italic-67" d="M 1241 -1328 
Q 181 -1328 13 -541 
L 522 -409 
Q 631 -900 1253 -900 
Q 1697 -900 1940 -670 
Q 2184 -441 2284 84 
L 2391 628 
L 2384 628 
Q 2191 350 2042 228 
Q 1894 106 1708 40 
Q 1522 -25 1281 -25 
Q 803 -25 511 289 
Q 219 603 219 1122 
Q 219 1538 336 2019 
Q 453 2500 656 2819 
Q 859 3138 1150 3289 
Q 1441 3441 1838 3441 
Q 2216 3441 2477 3262 
Q 2738 3084 2813 2803 
L 2819 2803 
Q 2841 2919 2897 3136 
Q 2953 3353 2969 3381 
L 3503 3381 
L 3444 3125 
L 3350 2681 
L 2847 97 
Q 2697 -659 2309 -993 
Q 1922 -1328 1241 -1328 
z
M 809 1166 
Q 809 788 973 589 
Q 1138 391 1456 391 
Q 1794 391 2069 636 
Q 2344 881 2495 1309 
Q 2647 1738 2647 2200 
Q 2647 2591 2447 2808 
Q 2247 3025 1897 3025 
Q 1616 3025 1428 2909 
Q 1241 2794 1112 2547 
Q 984 2300 896 1889 
Q 809 1478 809 1166 
z
" transform="scale(0.015625)"/>
      <path id="LiberationSans-Italic-6e" d="M 2241 0 
L 2634 2016 
Q 2691 2291 2691 2484 
Q 2691 3006 2131 3006 
Q 1738 3006 1438 2706 
Q 1138 2406 1038 1894 
L 669 0 
L 106 0 
L 625 2659 
Q 688 2956 747 3381 
L 1278 3381 
Q 1278 3347 1245 3139 
Q 1213 2931 1191 2803 
L 1200 2803 
Q 1459 3163 1720 3302 
Q 1981 3441 2341 3441 
Q 2803 3441 3036 3212 
Q 3269 2984 3269 2553 
Q 3269 2353 3203 2041 
L 2806 0 
L 2241 0 
z
" transform="scale(0.015625)"/>
     </defs>
     <use xlink:href="#LiberationSans-Italic-4e"/>
     <use xlink:href="#LiberationSans-Italic-65" transform="translate(72.216797 0)"/>
     <use xlink:href="#LiberationSans-Italic-78" transform="translate(127.832031 0)"/>
     <use xlink:href="#LiberationSans-Italic-74" transform="translate(177.832031 0)"/>
     <use xlink:href="#LiberationSans-Italic-20" transform="translate(205.615234 0)"/>
     <use xlink:href="#LiberationSans-Italic-67" transform="translate(233.398438 0)"/>
     <use xlink:href="#LiberationSans-Italic-65" transform="translate(289.013672 0)"/>
     <use xlink:href="#LiberationSans-Italic-6e" transform="translate(344.628906 0)"/>
    </g>
    <!-- model -->
    <g style="fill: #262626" transform="translate(437.530767 403.857086) scale(0.09 -0.09)">
     <use xlink:href="#LiberationSans-Italic-6d"/>
     <use xlink:href="#LiberationSans-Italic-6f" transform="translate(83.300781 0)"/>
     <use xlink:href="#LiberationSans-Italic-64" transform="translate(138.916016 0)"/>
     <use xlink:href="#LiberationSans-Italic-65" transform="translate(194.53125 0)"/>
     <use xlink:href="#LiberationSans-Italic-6c" transform="translate(250.146484 0)"/>
    </g>
   </g>
   <g id="patch_9">
    <path d="M 600.754229 339.660164 
Q 589.510903 332.154677 579.383434 325.394082 
" style="fill: none; stroke: #1565c0; stroke-width: 1.2; stroke-linecap: round"/>
    <path d="M 581.378218 328.889914 
L 579.383434 325.394082 
L 583.37697 325.895754 
" style="fill: none; stroke: #1565c0; stroke-width: 1.2; stroke-linecap: round"/>
   </g>
   <g id="text_19">
    <!-- Future -->
    <g style="fill: #262626" transform="translate(604.415994 348.26588) scale(0.09 -0.09)">
     <defs>
      <path id="LiberationSans-Italic-46" d="M 1553 3916 
L 1234 2278 
L 3722 2278 
L 3625 1784 
L 1138 1784 
L 794 0 
L 197 0 
L 1050 4403 
L 4209 4403 
L 4116 3916 
L 1553 3916 
z
" transform="scale(0.015625)"/>
      <path id="LiberationSans-Italic-75" d="M 1297 3381 
L 903 1366 
Q 847 1091 847 897 
Q 847 375 1406 375 
Q 1800 375 2100 675 
Q 2400 975 2500 1488 
L 2869 3381 
L 3431 3381 
L 2913 722 
Q 2850 425 2791 0 
L 2259 0 
Q 2259 34 2292 242 
Q 2325 450 2347 578 
L 2338 578 
Q 2078 219 1817 80 
Q 1556 -59 1197 -59 
Q 734 -59 501 169 
Q 269 397 269 828 
Q 269 1028 334 1341 
L 731 3381 
L 1297 3381 
z
" transform="scale(0.015625)"/>
      <path id="LiberationSans-Italic-72" d="M 2244 2931 
Q 2106 2972 1963 2972 
Q 1634 2972 1370 2628 
Q 1106 2284 1013 1763 
L 669 0 
L 106 0 
L 613 2594 
L 691 3025 
L 747 3381 
L 1278 3381 
L 1169 2691 
L 1181 2691 
Q 1388 3106 1588 3275 
Q 1788 3444 2050 3444 
Q 2194 3444 2347 3400 
L 2244 2931 
z
" transform="scale(0.015625)"/>
     </defs>
     <use xlink:href="#LiberationSans-Italic-46"/>
     <use xlink:href="#LiberationSans-Italic-75" transform="translate(61.083984 0)"/>
     <use xlink:href="#LiberationSans-Italic-74" transform="translate(116.699219 0)"/>
     <use xlink:href="#LiberationSans-Italic-75" transform="translate(144.482422 0)"/>
     <use xlink:href="#LiberationSans-Italic-72" transform="translate(200.097656 0)"/>
     <use xlink:href="#LiberationSans-Italic-65" transform="translate(233.398438 0)"/>
    </g>
    <!-- model -->
    <g style="fill: #262626" transform="translate(604.415994 357.960005) scale(0.09 -0.09)">
     <use xlink:href="#LiberationSans-Italic-6d"/>
     <use xlink:href="#LiberationSans-Italic-6f" transform="translate(83.300781 0)"/>
     <use xlink:href="#LiberationSans-Italic-64" transform="translate(138.916016 0)"/>
     <use xlink:href="#LiberationSans-Italic-65" transform="translate(194.53125 0)"/>
     <use xlink:href="#LiberationSans-Italic-6c" transform="translate(250.146484 0)"/>
    </g>
   </g>
   <g id="text_20">
    <g id="patch_10">
     <path d="M 183.326278 285.952866 
L 218.893778 285.952866 
Q 221.293778 285.952866 221.293778 283.552866 
L 221.293778 267.478366 
Q 221.293778 265.078366 218.893778 265.078366 
L 183.326278 265.078366 
Q 180.926278 265.078366 180.926278 267.478366 
L 180.926278 283.552866 
Q 180.926278 285.952866 183.326278 285.952866 
z
" style="fill: #ffff00; opacity: 0.6; stroke: #000000; stroke-linejoin: miter"/>
    </g>
    <!-- +76% -->
    <g style="fill: #f57c00" transform="translate(190.768153 273.275866) scale(0.08 -0.08)">
     <defs>
      <path id="LiberationSans-Bold-2b" d="M 2222 1778 
L 2222 503 
L 1516 503 
L 1516 1778 
L 269 1778 
L 269 2478 
L 1516 2478 
L 1516 3753 
L 2222 3753 
L 2222 2478 
L 3478 2478 
L 3478 1778 
L 2222 1778 
z
" transform="scale(0.015625)"/>
      <path id="LiberationSans-Bold-37" d="M 3278 3706 
Q 2981 3238 2717 2797 
Q 2453 2356 2256 1911 
Q 2059 1466 1945 995 
Q 1831 525 1831 0 
L 916 0 
Q 916 550 1059 1064 
Q 1203 1578 1475 2111 
Q 1747 2644 2463 3681 
L 275 3681 
L 275 4403 
L 3278 4403 
L 3278 3706 
z
" transform="scale(0.015625)"/>
      <path id="LiberationSans-Bold-36" d="M 3328 1441 
Q 3328 738 2934 337 
Q 2541 -63 1847 -63 
Q 1069 -63 651 482 
Q 234 1028 234 2100 
Q 234 3278 657 3873 
Q 1081 4469 1869 4469 
Q 2428 4469 2751 4222 
Q 3075 3975 3209 3456 
L 2381 3341 
Q 2263 3775 1850 3775 
Q 1497 3775 1295 3422 
Q 1094 3069 1094 2350 
Q 1234 2584 1484 2709 
Q 1734 2834 2050 2834 
Q 2641 2834 2984 2459 
Q 3328 2084 3328 1441 
z
M 2447 1416 
Q 2447 1791 2273 1989 
Q 2100 2188 1797 2188 
Q 1506 2188 1331 2002 
Q 1156 1816 1156 1509 
Q 1156 1125 1339 873 
Q 1522 622 1819 622 
Q 2116 622 2281 833 
Q 2447 1044 2447 1416 
z
" transform="scale(0.015625)"/>
      <path id="LiberationSans-Bold-25" d="M 5522 1350 
Q 5522 669 5240 309 
Q 4959 -50 4416 -50 
Q 3866 -50 3587 306 
Q 3309 663 3309 1350 
Q 3309 2050 3578 2401 
Q 3847 2753 4428 2753 
Q 4991 2753 5256 2398 
Q 5522 2044 5522 1350 
z
M 1725 0 
L 1081 0 
L 3956 4403 
L 4609 4403 
L 1725 0 
z
M 1275 4453 
Q 1834 4453 2104 4100 
Q 2375 3747 2375 3053 
Q 2375 2372 2092 2011 
Q 1809 1650 1259 1650 
Q 716 1650 437 2008 
Q 159 2366 159 3053 
Q 159 3763 428 4108 
Q 697 4453 1275 4453 
z
M 4850 1350 
Q 4850 1847 4754 2059 
Q 4659 2272 4428 2272 
Q 4178 2272 4083 2056 
Q 3988 1841 3988 1350 
Q 3988 850 4088 645 
Q 4188 441 4422 441 
Q 4650 441 4750 653 
Q 4850 866 4850 1350 
z
M 1697 3053 
Q 1697 3544 1601 3756 
Q 1506 3969 1275 3969 
Q 1025 3969 928 3758 
Q 831 3547 831 3053 
Q 831 2559 932 2348 
Q 1034 2138 1269 2138 
Q 1500 2138 1598 2350 
Q 1697 2563 1697 3053 
z
" transform="scale(0.015625)"/>
     </defs>
     <use xlink:href="#LiberationSans-Bold-2b"/>
     <use xlink:href="#LiberationSans-Bold-37" transform="translate(58.398438 0)"/>
     <use xlink:href="#LiberationSans-Bold-36" transform="translate(114.013672 0)"/>
     <use xlink:href="#LiberationSans-Bold-25" transform="translate(169.628906 0)"/>
    </g>
    <!-- inference -->
    <g style="fill: #f57c00" transform="translate(183.326278 281.892866) scale(0.08 -0.08)">
     <defs>
      <path id="LiberationSans-Bold-63" d="M 1856 -63 
Q 1088 -63 669 395 
Q 250 853 250 1672 
Q 250 2509 672 2976 
Q 1094 3444 1869 3444 
Q 2466 3444 2856 3144 
Q 3247 2844 3347 2316 
L 2463 2272 
Q 2425 2531 2275 2686 
Q 2125 2841 1850 2841 
Q 1172 2841 1172 1706 
Q 1172 538 1863 538 
Q 2113 538 2281 695 
Q 2450 853 2491 1166 
L 3372 1125 
Q 3325 778 3123 506 
Q 2922 234 2594 85 
Q 2266 -63 1856 -63 
z
" transform="scale(0.015625)"/>
     </defs>
     <use xlink:href="#LiberationSans-Bold-69"/>
     <use xlink:href="#LiberationSans-Bold-6e" transform="translate(27.783203 0)"/>
     <use xlink:href="#LiberationSans-Bold-66" transform="translate(88.867188 0)"/>
     <use xlink:href="#LiberationSans-Bold-65" transform="translate(122.167969 0)"/>
     <use xlink:href="#LiberationSans-Bold-72" transform="translate(177.783203 0)"/>
     <use xlink:href="#LiberationSans-Bold-65" transform="translate(216.699219 0)"/>
     <use xlink:href="#LiberationSans-Bold-6e" transform="translate(272.314453 0)"/>
     <use xlink:href="#LiberationSans-Bold-63" transform="translate(333.398438 0)"/>
     <use xlink:href="#LiberationSans-Bold-65" transform="translate(389.013672 0)"/>
    </g>
   </g>
   <g id="text_21">
    <g id="patch_11">
     <path d="M 350.211506 60.353157 
L 385.779006 60.353157 
Q 388.179006 60.353157 388.179006 57.953157 
L 388.179006 41.878657 
Q 388.179006 39.478657 385.779006 39.478657 
L 350.211506 39.478657 
Q 347.811506 39.478657 347.811506 41.878657 
L 347.811506 57.953157 
Q 347.811506 60.353157 350.211506 60.353157 
z
" style="fill: #ffff00; opacity: 0.6; stroke: #000000; stroke-linejoin: miter"/>
    </g>
    <!-- +243% -->
    <g style="fill: #f57c00" transform="translate(355.429006 47.676157) scale(0.08 -0.08)">
     <defs>
      <path id="LiberationSans-Bold-33" d="M 3328 1222 
Q 3328 603 2922 265 
Q 2516 -72 1766 -72 
Q 1056 -72 637 254 
Q 219 581 147 1197 
L 1041 1275 
Q 1125 641 1763 641 
Q 2078 641 2253 797 
Q 2428 953 2428 1275 
Q 2428 1569 2215 1725 
Q 2003 1881 1584 1881 
L 1278 1881 
L 1278 2591 
L 1566 2591 
Q 1944 2591 2134 2745 
Q 2325 2900 2325 3188 
Q 2325 3459 2173 3614 
Q 2022 3769 1731 3769 
Q 1459 3769 1292 3619 
Q 1125 3469 1100 3194 
L 222 3256 
Q 291 3825 694 4147 
Q 1097 4469 1747 4469 
Q 2438 4469 2827 4158 
Q 3216 3847 3216 3297 
Q 3216 2884 2973 2618 
Q 2731 2353 2275 2266 
L 2275 2253 
Q 2781 2194 3054 1920 
Q 3328 1647 3328 1222 
z
" transform="scale(0.015625)"/>
     </defs>
     <use xlink:href="#LiberationSans-Bold-2b"/>
     <use xlink:href="#LiberationSans-Bold-32" transform="translate(58.398438 0)"/>
     <use xlink:href="#LiberationSans-Bold-34" transform="translate(114.013672 0)"/>
     <use xlink:href="#LiberationSans-Bold-33" transform="translate(169.628906 0)"/>
     <use xlink:href="#LiberationSans-Bold-25" transform="translate(225.244141 0)"/>
    </g>
    <!-- inference -->
    <g style="fill: #f57c00" transform="translate(350.211506 56.293157) scale(0.08 -0.08)">
     <use xlink:href="#LiberationSans-Bold-69"/>
     <use xlink:href="#LiberationSans-Bold-6e" transform="translate(27.783203 0)"/>
     <use xlink:href="#LiberationSans-Bold-66" transform="translate(88.867188 0)"/>
     <use xlink:href="#LiberationSans-Bold-65" transform="translate(122.167969 0)"/>
     <use xlink:href="#LiberationSans-Bold-72" transform="translate(177.783203 0)"/>
     <use xlink:href="#LiberationSans-Bold-65" transform="translate(216.699219 0)"/>
     <use xlink:href="#LiberationSans-Bold-6e" transform="translate(272.314453 0)"/>
     <use xlink:href="#LiberationSans-Bold-63" transform="translate(333.398438 0)"/>
     <use xlink:href="#LiberationSans-Bold-65" transform="translate(389.013672 0)"/>
    </g>
   </g>
   <g id="text_22">
    <!-- Inference Scaling Provides Continuous Improvement -->
    <g style="fill: #262626" transform="translate(246.109531 16.620937) scale(0.13 -0.13)">
     <defs>
      <path id="LiberationSans-Bold-49" d="M 428 0 
L 428 4403 
L 1350 4403 
L 1350 0 
L 428 0 
z
" transform="scale(0.015625)"/>
      <path id="LiberationSans-Bold-53" d="M 4019 1269 
Q 4019 622 3539 279 
Q 3059 -63 2131 -63 
Q 1284 -63 803 237 
Q 322 538 184 1147 
L 1075 1294 
Q 1166 944 1428 786 
Q 1691 628 2156 628 
Q 3122 628 3122 1216 
Q 3122 1403 3011 1525 
Q 2900 1647 2698 1728 
Q 2497 1809 1925 1925 
Q 1431 2041 1237 2111 
Q 1044 2181 887 2276 
Q 731 2372 622 2506 
Q 513 2641 452 2822 
Q 391 3003 391 3238 
Q 391 3834 839 4151 
Q 1288 4469 2144 4469 
Q 2963 4469 3373 4212 
Q 3784 3956 3903 3366 
L 3009 3244 
Q 2941 3528 2730 3672 
Q 2519 3816 2125 3816 
Q 1288 3816 1288 3291 
Q 1288 3119 1377 3009 
Q 1466 2900 1641 2823 
Q 1816 2747 2350 2631 
Q 2984 2497 3257 2383 
Q 3531 2269 3690 2117 
Q 3850 1966 3934 1755 
Q 4019 1544 4019 1269 
z
" transform="scale(0.015625)"/>
      <path id="LiberationSans-Bold-67" d="M 1863 -1356 
Q 1244 -1356 867 -1120 
Q 491 -884 403 -447 
L 1281 -344 
Q 1328 -547 1483 -662 
Q 1638 -778 1888 -778 
Q 2253 -778 2422 -553 
Q 2591 -328 2591 116 
L 2591 294 
L 2597 628 
L 2591 628 
Q 2300 6 1503 6 
Q 913 6 588 450 
Q 263 894 263 1719 
Q 263 2547 597 2997 
Q 931 3447 1569 3447 
Q 2306 3447 2591 2838 
L 2606 2838 
Q 2606 2947 2620 3134 
Q 2634 3322 2650 3381 
L 3481 3381 
Q 3463 3044 3463 2600 
L 3463 103 
Q 3463 -619 3053 -987 
Q 2644 -1356 1863 -1356 
z
M 2597 1738 
Q 2597 2259 2411 2551 
Q 2225 2844 1881 2844 
Q 1178 2844 1178 1719 
Q 1178 616 1875 616 
Q 2225 616 2411 908 
Q 2597 1200 2597 1738 
z
" transform="scale(0.015625)"/>
      <path id="LiberationSans-Bold-50" d="M 4050 3009 
Q 4050 2584 3856 2250 
Q 3663 1916 3302 1733 
Q 2941 1550 2444 1550 
L 1350 1550 
L 1350 0 
L 428 0 
L 428 4403 
L 2406 4403 
Q 3197 4403 3623 4039 
Q 4050 3675 4050 3009 
z
M 3122 2994 
Q 3122 3688 2303 3688 
L 1350 3688 
L 1350 2259 
L 2328 2259 
Q 2709 2259 2915 2448 
Q 3122 2638 3122 2994 
z
" transform="scale(0.015625)"/>
      <path id="LiberationSans-Bold-64" d="M 2638 0 
Q 2625 47 2608 236 
Q 2591 425 2591 550 
L 2578 550 
Q 2294 -63 1497 -63 
Q 906 -63 584 398 
Q 263 859 263 1688 
Q 263 2528 602 2986 
Q 941 3444 1563 3444 
Q 1922 3444 2183 3294 
Q 2444 3144 2584 2847 
L 2591 2847 
L 2584 3403 
L 2584 4638 
L 3463 4638 
L 3463 738 
Q 3463 425 3488 0 
L 2638 0 
z
M 2597 1709 
Q 2597 2256 2414 2551 
Q 2231 2847 1875 2847 
Q 1522 2847 1350 2561 
Q 1178 2275 1178 1688 
Q 1178 538 1869 538 
Q 2216 538 2406 842 
Q 2597 1147 2597 1709 
z
" transform="scale(0.015625)"/>
      <path id="LiberationSans-Bold-75" d="M 1275 3381 
L 1275 1484 
Q 1275 594 1875 594 
Q 2194 594 2389 867 
Q 2584 1141 2584 1569 
L 2584 3381 
L 3463 3381 
L 3463 756 
Q 3463 325 3488 0 
L 2650 0 
Q 2613 450 2613 672 
L 2597 672 
Q 2422 288 2151 112 
Q 1881 -63 1509 -63 
Q 972 -63 684 267 
Q 397 597 397 1234 
L 397 3381 
L 1275 3381 
z
" transform="scale(0.015625)"/>
     </defs>
     <use xlink:href="#LiberationSans-Bold-49"/>
     <use xlink:href="#LiberationSans-Bold-6e" transform="translate(27.783203 0)"/>
     <use xlink:href="#LiberationSans-Bold-66" transform="translate(88.867188 0)"/>
     <use xlink:href="#LiberationSans-Bold-65" transform="translate(122.167969 0)"/>
     <use xlink:href="#LiberationSans-Bold-72" transform="translate(177.783203 0)"/>
     <use xlink:href="#LiberationSans-Bold-65" transform="translate(216.699219 0)"/>
     <use xlink:href="#LiberationSans-Bold-6e" transform="translate(272.314453 0)"/>
     <use xlink:href="#LiberationSans-Bold-63" transform="translate(333.398438 0)"/>
     <use xlink:href="#LiberationSans-Bold-65" transform="translate(389.013672 0)"/>
     <use xlink:href="#LiberationSans-Bold-20" transform="translate(444.628906 0)"/>
     <use xlink:href="#LiberationSans-Bold-53" transform="translate(472.412109 0)"/>
     <use xlink:href="#LiberationSans-Bold-63" transform="translate(539.111328 0)"/>
     <use xlink:href="#LiberationSans-Bold-61" transform="translate(594.726562 0)"/>
     <use xlink:href="#LiberationSans-Bold-6c" transform="translate(650.341797 0)"/>
     <use xlink:href="#LiberationSans-Bold-69" transform="translate(678.125 0)"/>
     <use xlink:href="#LiberationSans-Bold-6e" transform="translate(705.908203 0)"/>
     <use xlink:href="#LiberationSans-Bold-67" transform="translate(766.992188 0)"/>
     <use xlink:href="#LiberationSans-Bold-20" transform="translate(828.076172 0)"/>
     <use xlink:href="#LiberationSans-Bold-50" transform="translate(855.859375 0)"/>
     <use xlink:href="#LiberationSans-Bold-72" transform="translate(922.558594 0)"/>
     <use xlink:href="#LiberationSans-Bold-6f" transform="translate(961.474609 0)"/>
     <use xlink:href="#LiberationSans-Bold-76" transform="translate(1022.558594 0)"/>
     <use xlink:href="#LiberationSans-Bold-69" transform="translate(1078.173828 0)"/>
     <use xlink:href="#LiberationSans-Bold-64" transform="translate(1105.957031 0)"/>
     <use xlink:href="#LiberationSans-Bold-65" transform="translate(1167.041016 0)"/>
     <use xlink:href="#LiberationSans-Bold-73" transform="translate(1222.65625 0)"/>
     <use xlink:href="#LiberationSans-Bold-20" transform="translate(1278.271484 0)"/>
     <use xlink:href="#LiberationSans-Bold-43" transform="translate(1306.054688 0)"/>
     <use xlink:href="#LiberationSans-Bold-6f" transform="translate(1378.271484 0)"/>
     <use xlink:href="#LiberationSans-Bold-6e" transform="translate(1439.355469 0)"/>
     <use xlink:href="#LiberationSans-Bold-74" transform="translate(1500.439453 0)"/>
     <use xlink:href="#LiberationSans-Bold-69" transform="translate(1533.740234 0)"/>
     <use xlink:href="#LiberationSans-Bold-6e" transform="translate(1561.523438 0)"/>
     <use xlink:href="#LiberationSans-Bold-75" transform="translate(1622.607422 0)"/>
     <use xlink:href="#LiberationSans-Bold-6f" transform="translate(1683.691406 0)"/>
     <use xlink:href="#LiberationSans-Bold-75" transform="translate(1744.775391 0)"/>
     <use xlink:href="#LiberationSans-Bold-73" transform="translate(1805.859375 0)"/>
     <use xlink:href="#LiberationSans-Bold-20" transform="translate(1861.474609 0)"/>
     <use xlink:href="#LiberationSans-Bold-49" transform="translate(1889.257812 0)"/>
     <use xlink:href="#LiberationSans-Bold-6d" transform="translate(1917.041016 0)"/>
     <use xlink:href="#LiberationSans-Bold-70" transform="translate(2005.957031 0)"/>
     <use xlink:href="#LiberationSans-Bold-72" transform="translate(2067.041016 0)"/>
     <use xlink:href="#LiberationSans-Bold-6f" transform="translate(2105.957031 0)"/>
     <use xlink:href="#LiberationSans-Bold-76" transform="translate(2167.041016 0)"/>
     <use xlink:href="#LiberationSans-Bold-65" transform="translate(2222.65625 0)"/>
     <use xlink:href="#LiberationSans-Bold-6d" transform="translate(2278.271484 0)"/>
     <use xlink:href="#LiberationSans-Bold-65" transform="translate(2367.1875 0)"/>
     <use xlink:href="#LiberationSans-Bold-6e" transform="translate(2422.802734 0)"/>
     <use xlink:href="#LiberationSans-Bold-74" transform="translate(2483.886719 0)"/>
    </g>
    <!-- Between Model Releases -->
    <g style="fill: #262626" transform="translate(332.414297 30.680437) scale(0.13 -0.13)">
     <defs>
      <path id="LiberationSans-Bold-42" d="M 4331 1256 
Q 4331 656 3881 328 
Q 3431 0 2631 0 
L 428 0 
L 428 4403 
L 2444 4403 
Q 3250 4403 3664 4123 
Q 4078 3844 4078 3297 
Q 4078 2922 3870 2664 
Q 3663 2406 3238 2316 
Q 3772 2253 4051 1979 
Q 4331 1706 4331 1256 
z
M 3150 3172 
Q 3150 3469 2961 3594 
Q 2772 3719 2400 3719 
L 1350 3719 
L 1350 2628 
L 2406 2628 
Q 2797 2628 2973 2764 
Q 3150 2900 3150 3172 
z
M 3406 1328 
Q 3406 1947 2519 1947 
L 1350 1947 
L 1350 684 
L 2553 684 
Q 2997 684 3201 845 
Q 3406 1006 3406 1328 
z
" transform="scale(0.015625)"/>
      <path id="LiberationSans-Bold-77" d="M 4103 0 
L 3175 0 
L 2638 2063 
Q 2600 2203 2491 2756 
L 2328 2056 
L 1784 0 
L 856 0 
L -19 3381 
L 806 3381 
L 1363 797 
L 1406 1028 
L 1484 1394 
L 2016 3381 
L 2956 3381 
L 3475 1394 
Q 3519 1231 3603 797 
L 3691 1209 
L 4178 3381 
L 4991 3381 
L 4103 0 
z
" transform="scale(0.015625)"/>
     </defs>
     <use xlink:href="#LiberationSans-Bold-42"/>
     <use xlink:href="#LiberationSans-Bold-65" transform="translate(72.216797 0)"/>
     <use xlink:href="#LiberationSans-Bold-74" transform="translate(127.832031 0)"/>
     <use xlink:href="#LiberationSans-Bold-77" transform="translate(161.132812 0)"/>
     <use xlink:href="#LiberationSans-Bold-65" transform="translate(238.916016 0)"/>
     <use xlink:href="#LiberationSans-Bold-65" transform="translate(294.53125 0)"/>
     <use xlink:href="#LiberationSans-Bold-6e" transform="translate(350.146484 0)"/>
     <use xlink:href="#LiberationSans-Bold-20" transform="translate(411.230469 0)"/>
     <use xlink:href="#LiberationSans-Bold-4d" transform="translate(439.013672 0)"/>
     <use xlink:href="#LiberationSans-Bold-6f" transform="translate(522.314453 0)"/>
     <use xlink:href="#LiberationSans-Bold-64" transform="translate(583.398438 0)"/>
     <use xlink:href="#LiberationSans-Bold-65" transform="translate(644.482422 0)"/>
     <use xlink:href="#LiberationSans-Bold-6c" transform="translate(700.097656 0)"/>
     <use xlink:href="#LiberationSans-Bold-20" transform="translate(727.880859 0)"/>
     <use xlink:href="#LiberationSans-Bold-52" transform="translate(755.664062 0)"/>
     <use xlink:href="#LiberationSans-Bold-65" transform="translate(827.880859 0)"/>
     <use xlink:href="#LiberationSans-Bold-6c" transform="translate(883.496094 0)"/>
     <use xlink:href="#LiberationSans-Bold-65" transform="translate(911.279297 0)"/>
     <use xlink:href="#LiberationSans-Bold-61" transform="translate(966.894531 0)"/>
     <use xlink:href="#LiberationSans-Bold-73" transform="translate(1022.509766 0)"/>
     <use xlink:href="#LiberationSans-Bold-65" transform="translate(1078.125 0)"/>
     <use xlink:href="#LiberationSans-Bold-73" transform="translate(1133.740234 0)"/>
    </g>
   </g>
   <g id="legend_1">
    <g id="line2d_31">
     <path d="M 51.569063 49.427312 
L 61.569063 49.427312 
L 71.569063 49.427312 
" style="fill: none; stroke: #1565c0; stroke-opacity: 0.7; stroke-width: 2; stroke-linecap: round"/>
     <g>
      <use xlink:href="#mc90ab57d90" x="61.569063" y="49.427312" style="fill: #1565c0; fill-opacity: 0.7; stroke: #1565c0; stroke-opacity: 0.7; stroke-linejoin: miter"/>
     </g>
    </g>
    <g id="text_23">
     <!-- Training scaling (new models) -->
     <g style="fill: #262626" transform="translate(79.569063 52.927312) scale(0.1 -0.1)">
      <defs>
       <path id="LiberationSans-54" d="M 2250 3916 
L 2250 0 
L 1656 0 
L 1656 3916 
L 144 3916 
L 144 4403 
L 3763 4403 
L 3763 3916 
L 2250 3916 
z
" transform="scale(0.015625)"/>
       <path id="LiberationSans-72" d="M 444 0 
L 444 2594 
Q 444 2950 425 3381 
L 956 3381 
Q 981 2806 981 2691 
L 994 2691 
Q 1128 3125 1303 3284 
Q 1478 3444 1797 3444 
Q 1909 3444 2025 3413 
L 2025 2897 
Q 1913 2928 1725 2928 
Q 1375 2928 1190 2626 
Q 1006 2325 1006 1763 
L 1006 0 
L 444 0 
z
" transform="scale(0.015625)"/>
       <path id="LiberationSans-61" d="M 1294 -63 
Q 784 -63 528 206 
Q 272 475 272 944 
Q 272 1469 617 1750 
Q 963 2031 1731 2050 
L 2491 2063 
L 2491 2247 
Q 2491 2659 2316 2837 
Q 2141 3016 1766 3016 
Q 1388 3016 1216 2887 
Q 1044 2759 1009 2478 
L 422 2531 
Q 566 3444 1778 3444 
Q 2416 3444 2737 3151 
Q 3059 2859 3059 2306 
L 3059 850 
Q 3059 600 3125 473 
Q 3191 347 3375 347 
Q 3456 347 3559 369 
L 3559 19 
Q 3347 -31 3125 -31 
Q 2813 -31 2670 133 
Q 2528 297 2509 647 
L 2491 647 
Q 2275 259 1989 98 
Q 1703 -63 1294 -63 
z
M 1422 359 
Q 1731 359 1972 500 
Q 2213 641 2352 886 
Q 2491 1131 2491 1391 
L 2491 1669 
L 1875 1656 
Q 1478 1650 1273 1575 
Q 1069 1500 959 1344 
Q 850 1188 850 934 
Q 850 659 998 509 
Q 1147 359 1422 359 
z
" transform="scale(0.015625)"/>
       <path id="LiberationSans-69" d="M 428 4100 
L 428 4638 
L 991 4638 
L 991 4100 
L 428 4100 
z
M 428 0 
L 428 3381 
L 991 3381 
L 991 0 
L 428 0 
z
" transform="scale(0.015625)"/>
       <path id="LiberationSans-6e" d="M 2578 0 
L 2578 2144 
Q 2578 2478 2512 2662 
Q 2447 2847 2303 2928 
Q 2159 3009 1881 3009 
Q 1475 3009 1240 2731 
Q 1006 2453 1006 1959 
L 1006 0 
L 444 0 
L 444 2659 
Q 444 3250 425 3381 
L 956 3381 
Q 959 3366 962 3297 
Q 966 3228 970 3139 
Q 975 3050 981 2803 
L 991 2803 
Q 1184 3153 1439 3298 
Q 1694 3444 2072 3444 
Q 2628 3444 2886 3167 
Q 3144 2891 3144 2253 
L 3144 0 
L 2578 0 
z
" transform="scale(0.015625)"/>
       <path id="LiberationSans-67" d="M 1713 -1328 
Q 1159 -1328 831 -1111 
Q 503 -894 409 -494 
L 975 -413 
Q 1031 -647 1223 -773 
Q 1416 -900 1728 -900 
Q 2569 -900 2569 84 
L 2569 628 
L 2563 628 
Q 2403 303 2125 139 
Q 1847 -25 1475 -25 
Q 853 -25 561 387 
Q 269 800 269 1684 
Q 269 2581 583 3007 
Q 897 3434 1538 3434 
Q 1897 3434 2161 3270 
Q 2425 3106 2569 2803 
L 2575 2803 
Q 2575 2897 2587 3128 
Q 2600 3359 2613 3381 
L 3147 3381 
Q 3128 3213 3128 2681 
L 3128 97 
Q 3128 -1328 1713 -1328 
z
M 2569 1691 
Q 2569 2103 2456 2401 
Q 2344 2700 2139 2858 
Q 1934 3016 1675 3016 
Q 1244 3016 1047 2703 
Q 850 2391 850 1691 
Q 850 997 1034 694 
Q 1219 391 1666 391 
Q 1931 391 2137 547 
Q 2344 703 2456 995 
Q 2569 1288 2569 1691 
z
" transform="scale(0.015625)"/>
       <path id="LiberationSans-20" transform="scale(0.015625)"/>
       <path id="LiberationSans-73" d="M 2969 934 
Q 2969 456 2608 196 
Q 2247 -63 1597 -63 
Q 966 -63 623 145 
Q 281 353 178 794 
L 675 891 
Q 747 619 972 492 
Q 1197 366 1597 366 
Q 2025 366 2223 497 
Q 2422 628 2422 891 
Q 2422 1091 2284 1216 
Q 2147 1341 1841 1422 
L 1438 1528 
Q 953 1653 748 1773 
Q 544 1894 428 2066 
Q 313 2238 313 2488 
Q 313 2950 642 3192 
Q 972 3434 1603 3434 
Q 2163 3434 2492 3237 
Q 2822 3041 2909 2606 
L 2403 2544 
Q 2356 2769 2151 2889 
Q 1947 3009 1603 3009 
Q 1222 3009 1040 2893 
Q 859 2778 859 2544 
Q 859 2400 934 2306 
Q 1009 2213 1156 2147 
Q 1303 2081 1775 1966 
Q 2222 1853 2419 1758 
Q 2616 1663 2730 1547 
Q 2844 1431 2906 1279 
Q 2969 1128 2969 934 
z
" transform="scale(0.015625)"/>
       <path id="LiberationSans-63" d="M 859 1706 
Q 859 1031 1071 706 
Q 1284 381 1713 381 
Q 2013 381 2214 543 
Q 2416 706 2463 1044 
L 3031 1006 
Q 2966 519 2616 228 
Q 2266 -63 1728 -63 
Q 1019 -63 645 385 
Q 272 834 272 1694 
Q 272 2547 647 2995 
Q 1022 3444 1722 3444 
Q 2241 3444 2583 3175 
Q 2925 2906 3013 2434 
L 2434 2391 
Q 2391 2672 2212 2837 
Q 2034 3003 1706 3003 
Q 1259 3003 1059 2706 
Q 859 2409 859 1706 
z
" transform="scale(0.015625)"/>
       <path id="LiberationSans-6c" d="M 431 0 
L 431 4638 
L 994 4638 
L 994 0 
L 431 0 
z
" transform="scale(0.015625)"/>
       <path id="LiberationSans-28" d="M 397 1663 
Q 397 2566 680 3284 
Q 963 4003 1550 4638 
L 2094 4638 
Q 1509 3988 1236 3256 
Q 963 2525 963 1656 
Q 963 791 1233 62 
Q 1503 -666 2094 -1325 
L 1550 -1325 
Q 959 -688 678 32 
Q 397 753 397 1650 
L 397 1663 
z
" transform="scale(0.015625)"/>
       <path id="LiberationSans-65" d="M 863 1572 
Q 863 991 1103 675 
Q 1344 359 1806 359 
Q 2172 359 2392 506 
Q 2613 653 2691 878 
L 3184 738 
Q 2881 -63 1806 -63 
Q 1056 -63 664 384 
Q 272 831 272 1713 
Q 272 2550 664 2997 
Q 1056 3444 1784 3444 
Q 3275 3444 3275 1647 
L 3275 1572 
L 863 1572 
z
M 2694 2003 
Q 2647 2538 2422 2783 
Q 2197 3028 1775 3028 
Q 1366 3028 1127 2754 
Q 888 2481 869 2003 
L 2694 2003 
z
" transform="scale(0.015625)"/>
       <path id="LiberationSans-77" d="M 3669 0 
L 3016 0 
L 2425 2391 
L 2313 2919 
Q 2284 2778 2225 2514 
Q 2166 2250 1588 0 
L 938 0 
L -9 3381 
L 547 3381 
L 1119 1084 
Q 1141 1009 1253 466 
L 1306 697 
L 2013 3381 
L 2616 3381 
L 3206 1059 
L 3350 466 
L 3447 900 
L 4088 3381 
L 4638 3381 
L 3669 0 
z
" transform="scale(0.015625)"/>
       <path id="LiberationSans-6d" d="M 2400 0 
L 2400 2144 
Q 2400 2634 2265 2821 
Q 2131 3009 1781 3009 
Q 1422 3009 1212 2734 
Q 1003 2459 1003 1959 
L 1003 0 
L 444 0 
L 444 2659 
Q 444 3250 425 3381 
L 956 3381 
Q 959 3366 962 3297 
Q 966 3228 970 3139 
Q 975 3050 981 2803 
L 991 2803 
Q 1172 3163 1406 3303 
Q 1641 3444 1978 3444 
Q 2363 3444 2586 3291 
Q 2809 3138 2897 2803 
L 2906 2803 
Q 3081 3144 3329 3294 
Q 3578 3444 3931 3444 
Q 4444 3444 4676 3166 
Q 4909 2888 4909 2253 
L 4909 0 
L 4353 0 
L 4353 2144 
Q 4353 2634 4218 2821 
Q 4084 3009 3734 3009 
Q 3366 3009 3161 2736 
Q 2956 2463 2956 1959 
L 2956 0 
L 2400 0 
z
" transform="scale(0.015625)"/>
       <path id="LiberationSans-6f" d="M 3291 1694 
Q 3291 806 2900 371 
Q 2509 -63 1766 -63 
Q 1025 -63 647 389 
Q 269 841 269 1694 
Q 269 3444 1784 3444 
Q 2559 3444 2925 3017 
Q 3291 2591 3291 1694 
z
M 2700 1694 
Q 2700 2394 2492 2711 
Q 2284 3028 1794 3028 
Q 1300 3028 1079 2704 
Q 859 2381 859 1694 
Q 859 1025 1076 689 
Q 1294 353 1759 353 
Q 2266 353 2483 678 
Q 2700 1003 2700 1694 
z
" transform="scale(0.015625)"/>
       <path id="LiberationSans-64" d="M 2566 544 
Q 2409 219 2151 78 
Q 1894 -63 1513 -63 
Q 872 -63 570 368 
Q 269 800 269 1675 
Q 269 3444 1513 3444 
Q 1897 3444 2153 3303 
Q 2409 3163 2566 2856 
L 2572 2856 
L 2566 3234 
L 2566 4638 
L 3128 4638 
L 3128 697 
Q 3128 169 3147 0 
L 2609 0 
Q 2600 50 2589 231 
Q 2578 413 2578 544 
L 2566 544 
z
M 859 1694 
Q 859 984 1046 678 
Q 1234 372 1656 372 
Q 2134 372 2350 703 
Q 2566 1034 2566 1731 
Q 2566 2403 2350 2715 
Q 2134 3028 1663 3028 
Q 1238 3028 1048 2714 
Q 859 2400 859 1694 
z
" transform="scale(0.015625)"/>
       <path id="LiberationSans-29" d="M 1734 1650 
Q 1734 747 1451 28 
Q 1169 -691 581 -1325 
L 38 -1325 
Q 625 -669 897 57 
Q 1169 784 1169 1656 
Q 1169 2528 895 3256 
Q 622 3984 38 4638 
L 581 4638 
Q 1172 4000 1453 3279 
Q 1734 2559 1734 1663 
L 1734 1650 
z
" transform="scale(0.015625)"/>
      </defs>
      <use xlink:href="#LiberationSans-54"/>
      <use xlink:href="#LiberationSans-72" transform="translate(57.333984 0)"/>
      <use xlink:href="#LiberationSans-61" transform="translate(90.634766 0)"/>
      <use xlink:href="#LiberationSans-69" transform="translate(146.25 0)"/>
      <use xlink:href="#LiberationSans-6e" transform="translate(168.466797 0)"/>
      <use xlink:href="#LiberationSans-69" transform="translate(224.082031 0)"/>
      <use xlink:href="#LiberationSans-6e" transform="translate(246.298828 0)"/>
      <use xlink:href="#LiberationSans-67" transform="translate(301.914062 0)"/>
      <use xlink:href="#LiberationSans-20" transform="translate(357.529297 0)"/>
      <use xlink:href="#LiberationSans-73" transform="translate(385.3125 0)"/>
      <use xlink:href="#LiberationSans-63" transform="translate(435.3125 0)"/>
      <use xlink:href="#LiberationSans-61" transform="translate(485.3125 0)"/>
      <use xlink:href="#LiberationSans-6c" transform="translate(540.927734 0)"/>
      <use xlink:href="#LiberationSans-69" transform="translate(563.144531 0)"/>
      <use xlink:href="#LiberationSans-6e" transform="translate(585.361328 0)"/>
      <use xlink:href="#LiberationSans-67" transform="translate(640.976562 0)"/>
      <use xlink:href="#LiberationSans-20" transform="translate(696.591797 0)"/>
      <use xlink:href="#LiberationSans-28" transform="translate(724.375 0)"/>
      <use xlink:href="#LiberationSans-6e" transform="translate(757.675781 0)"/>
      <use xlink:href="#LiberationSans-65" transform="translate(813.291016 0)"/>
      <use xlink:href="#LiberationSans-77" transform="translate(868.90625 0)"/>
      <use xlink:href="#LiberationSans-20" transform="translate(941.123047 0)"/>
      <use xlink:href="#LiberationSans-6d" transform="translate(968.90625 0)"/>
      <use xlink:href="#LiberationSans-6f" transform="translate(1052.207031 0)"/>
      <use xlink:href="#LiberationSans-64" transform="translate(1107.822266 0)"/>
      <use xlink:href="#LiberationSans-65" transform="translate(1163.4375 0)"/>
      <use xlink:href="#LiberationSans-6c" transform="translate(1219.052734 0)"/>
      <use xlink:href="#LiberationSans-73" transform="translate(1241.269531 0)"/>
      <use xlink:href="#LiberationSans-29" transform="translate(1291.269531 0)"/>
     </g>
    </g>
    <g id="line2d_32">
     <path d="M 51.569063 63.749187 
L 61.569063 63.749187 
L 71.569063 63.749187 
" style="fill: none; stroke: #00897b; stroke-width: 2.5; stroke-linecap: round"/>
     <g>
      <use xlink:href="#m667ce9762e" x="61.569063" y="63.749187" style="fill: #00897b; stroke: #00897b"/>
     </g>
    </g>
    <g id="text_24">
     <!-- Training + Inference scaling -->
     <g style="fill: #262626" transform="translate(79.569063 67.249187) scale(0.1 -0.1)">
      <defs>
       <path id="LiberationSans-2b" d="M 2097 1900 
L 2097 563 
L 1638 563 
L 1638 1900 
L 313 1900 
L 313 2356 
L 1638 2356 
L 1638 3694 
L 2097 3694 
L 2097 2356 
L 3422 2356 
L 3422 1900 
L 2097 1900 
z
" transform="scale(0.015625)"/>
       <path id="LiberationSans-49" d="M 591 0 
L 591 4403 
L 1188 4403 
L 1188 0 
L 591 0 
z
" transform="scale(0.015625)"/>
       <path id="LiberationSans-66" d="M 1128 2972 
L 1128 0 
L 566 0 
L 566 2972 
L 91 2972 
L 91 3381 
L 566 3381 
L 566 3763 
Q 566 4225 769 4428 
Q 972 4631 1391 4631 
Q 1625 4631 1788 4594 
L 1788 4166 
Q 1647 4191 1538 4191 
Q 1322 4191 1225 4081 
Q 1128 3972 1128 3684 
L 1128 3381 
L 1788 3381 
L 1788 2972 
L 1128 2972 
z
" transform="scale(0.015625)"/>
      </defs>
      <use xlink:href="#LiberationSans-54"/>
      <use xlink:href="#LiberationSans-72" transform="translate(57.333984 0)"/>
      <use xlink:href="#LiberationSans-61" transform="translate(90.634766 0)"/>
      <use xlink:href="#LiberationSans-69" transform="translate(146.25 0)"/>
      <use xlink:href="#LiberationSans-6e" transform="translate(168.466797 0)"/>
      <use xlink:href="#LiberationSans-69" transform="translate(224.082031 0)"/>
      <use xlink:href="#LiberationSans-6e" transform="translate(246.298828 0)"/>
      <use xlink:href="#LiberationSans-67" transform="translate(301.914062 0)"/>
      <use xlink:href="#LiberationSans-20" transform="translate(357.529297 0)"/>
      <use xlink:href="#LiberationSans-2b" transform="translate(385.3125 0)"/>
      <use xlink:href="#LiberationSans-20" transform="translate(443.710938 0)"/>
      <use xlink:href="#LiberationSans-49" transform="translate(471.494141 0)"/>
      <use xlink:href="#LiberationSans-6e" transform="translate(499.277344 0)"/>
      <use xlink:href="#LiberationSans-66" transform="translate(554.892578 0)"/>
      <use xlink:href="#LiberationSans-65" transform="translate(582.675781 0)"/>
      <use xlink:href="#LiberationSans-72" transform="translate(638.291016 0)"/>
      <use xlink:href="#LiberationSans-65" transform="translate(671.591797 0)"/>
      <use xlink:href="#LiberationSans-6e" transform="translate(727.207031 0)"/>
      <use xlink:href="#LiberationSans-63" transform="translate(782.822266 0)"/>
      <use xlink:href="#LiberationSans-65" transform="translate(832.822266 0)"/>
      <use xlink:href="#LiberationSans-20" transform="translate(888.4375 0)"/>
      <use xlink:href="#LiberationSans-73" transform="translate(916.220703 0)"/>
      <use xlink:href="#LiberationSans-63" transform="translate(966.220703 0)"/>
      <use xlink:href="#LiberationSans-61" transform="translate(1016.220703 0)"/>
      <use xlink:href="#LiberationSans-6c" transform="translate(1071.835938 0)"/>
      <use xlink:href="#LiberationSans-69" transform="translate(1094.052734 0)"/>
      <use xlink:href="#LiberationSans-6e" transform="translate(1116.269531 0)"/>
      <use xlink:href="#LiberationSans-67" transform="translate(1171.884766 0)"/>
     </g>
    </g>
    <g id="patch_12">
     <path d="M 51.569063 81.571062 
L 71.569063 81.571062 
L 71.569063 74.571062 
L 51.569063 74.571062 
z
" style="fill: #f57c00; fill-opacity: 0.2; stroke: #f57c00; stroke-opacity: 0.2; stroke-linejoin: miter"/>
    </g>
    <g id="text_25">
     <!-- Inference scaling contribution -->
     <g style="fill: #262626" transform="translate(79.569063 81.571062) scale(0.1 -0.1)">
      <defs>
       <path id="LiberationSans-74" d="M 1731 25 
Q 1453 -50 1163 -50 
Q 488 -50 488 716 
L 488 2972 
L 97 2972 
L 97 3381 
L 509 3381 
L 675 4138 
L 1050 4138 
L 1050 3381 
L 1675 3381 
L 1675 2972 
L 1050 2972 
L 1050 838 
Q 1050 594 1129 495 
Q 1209 397 1406 397 
Q 1519 397 1731 441 
L 1731 25 
z
" transform="scale(0.015625)"/>
       <path id="LiberationSans-62" d="M 3291 1706 
Q 3291 -63 2047 -63 
Q 1663 -63 1408 76 
Q 1153 216 994 525 
L 988 525 
Q 988 428 975 229 
Q 963 31 956 0 
L 413 0 
Q 431 169 431 697 
L 431 4638 
L 994 4638 
L 994 3316 
Q 994 3113 981 2838 
L 994 2838 
Q 1150 3163 1408 3303 
Q 1666 3444 2047 3444 
Q 2688 3444 2989 3012 
Q 3291 2581 3291 1706 
z
M 2700 1688 
Q 2700 2397 2512 2703 
Q 2325 3009 1903 3009 
Q 1428 3009 1211 2684 
Q 994 2359 994 1653 
Q 994 988 1206 670 
Q 1419 353 1897 353 
Q 2322 353 2511 667 
Q 2700 981 2700 1688 
z
" transform="scale(0.015625)"/>
       <path id="LiberationSans-75" d="M 981 3381 
L 981 1238 
Q 981 903 1047 718 
Q 1113 534 1256 453 
Q 1400 372 1678 372 
Q 2084 372 2318 650 
Q 2553 928 2553 1422 
L 2553 3381 
L 3116 3381 
L 3116 722 
Q 3116 131 3134 0 
L 2603 0 
Q 2600 16 2597 84 
Q 2594 153 2589 242 
Q 2584 331 2578 578 
L 2569 578 
Q 2375 228 2120 82 
Q 1866 -63 1488 -63 
Q 931 -63 673 214 
Q 416 491 416 1128 
L 416 3381 
L 981 3381 
z
" transform="scale(0.015625)"/>
      </defs>
      <use xlink:href="#LiberationSans-49"/>
      <use xlink:href="#LiberationSans-6e" transform="translate(27.783203 0)"/>
      <use xlink:href="#LiberationSans-66" transform="translate(83.398438 0)"/>
      <use xlink:href="#LiberationSans-65" transform="translate(111.181641 0)"/>
      <use xlink:href="#LiberationSans-72" transform="translate(166.796875 0)"/>
      <use xlink:href="#LiberationSans-65" transform="translate(200.097656 0)"/>
      <use xlink:href="#LiberationSans-6e" transform="translate(255.712891 0)"/>
      <use xlink:href="#LiberationSans-63" transform="translate(311.328125 0)"/>
      <use xlink:href="#LiberationSans-65" transform="translate(361.328125 0)"/>
      <use xlink:href="#LiberationSans-20" transform="translate(416.943359 0)"/>
      <use xlink:href="#LiberationSans-73" transform="translate(444.726562 0)"/>
      <use xlink:href="#LiberationSans-63" transform="translate(494.726562 0)"/>
      <use xlink:href="#LiberationSans-61" transform="translate(544.726562 0)"/>
      <use xlink:href="#LiberationSans-6c" transform="translate(600.341797 0)"/>
      <use xlink:href="#LiberationSans-69" transform="translate(622.558594 0)"/>
      <use xlink:href="#LiberationSans-6e" transform="translate(644.775391 0)"/>
      <use xlink:href="#LiberationSans-67" transform="translate(700.390625 0)"/>
      <use xlink:href="#LiberationSans-20" transform="translate(756.005859 0)"/>
      <use xlink:href="#LiberationSans-63" transform="translate(783.789062 0)"/>
      <use xlink:href="#LiberationSans-6f" transform="translate(833.789062 0)"/>
      <use xlink:href="#LiberationSans-6e" transform="translate(889.404297 0)"/>
      <use xlink:href="#LiberationSans-74" transform="translate(945.019531 0)"/>
      <use xlink:href="#LiberationSans-72" transform="translate(972.802734 0)"/>
      <use xlink:href="#LiberationSans-69" transform="translate(1006.103516 0)"/>
      <use xlink:href="#LiberationSans-62" transform="translate(1028.320312 0)"/>
      <use xlink:href="#LiberationSans-75" transform="translate(1083.935547 0)"/>
      <use xlink:href="#LiberationSans-74" transform="translate(1139.550781 0)"/>
      <use xlink:href="#LiberationSans-69" transform="translate(1167.333984 0)"/>
      <use xlink:href="#LiberationSans-6f" transform="translate(1189.550781 0)"/>
      <use xlink:href="#LiberationSans-6e" transform="translate(1245.166016 0)"/>
     </g>
    </g>
   </g>
  </g>
 </g>
 <defs>
  <clipPath id="peaf10af864">
   <rect x="42.569063" y="36.680437" width="734.295" height="424.548"/>
  </clipPath>
 </defs>
</svg>
