<?xml version="1.0" encoding="utf-8" standalone="no"?>
<!DOCTYPE svg PUBLIC "-//W3C//DTD SVG 1.1//EN"
  "http://www.w3.org/Graphics/SVG/1.1/DTD/svg11.dtd">
<svg xmlns:xlink="http://www.w3.org/1999/xlink" width="701.190231pt" height="568.436563pt" viewBox="0 0 701.190231 568.436563" xmlns="http://www.w3.org/2000/svg" version="1.1">
 <metadata>
  <rdf:RDF xmlns:dc="http://purl.org/dc/elements/1.1/" xmlns:cc="http://creativecommons.org/ns#" xmlns:rdf="http://www.w3.org/1999/02/22-rdf-syntax-ns#">
   <cc:Work>
    <dc:type rdf:resource="http://purl.org/dc/dcmitype/StillImage"/>
    <dc:date>2025-11-16T16:27:52.760937</dc:date>
    <dc:format>image/svg+xml</dc:format>
    <dc:creator>
     <cc:Agent>
      <dc:title>Matplotlib v3.10.7, https://matplotlib.org/</dc:title>
     </cc:Agent>
    </dc:creator>
   </cc:Work>
  </rdf:RDF>
 </metadata>
 <defs>
  <style type="text/css">*{stroke-linejoin: round; stroke-linecap: butt}</style>
 </defs>
 <g id="figure_1">
  <g id="patch_1">
   <path d="M 0 568.436563 
L 701.190231 568.436563 
L 701.190231 0 
L 0 0 
z
" style="fill: #ffffff"/>
  </g>
  <g id="axes_1">
   <g id="patch_2">
    <path d="M 22.38625 533.228438 
L 678.892917 533.228438 
L 678.892917 36.680437 
L 22.38625 36.680437 
z
" style="fill: #eaeaf2"/>
   </g>
   <g id="matplotlib.axis_1">
    <g id="xtick_1">
     <g id="line2d_1">
      <path d="M 95.331435 533.228438 
L 95.331435 36.680437 
" clip-path="url(#p5fc9b5cd30)" style="fill: none; stroke: #ffffff; stroke-opacity: 0.3; stroke-width: 0.8; stroke-linecap: round"/>
     </g>
     <g id="line2d_2"/>
     <g id="text_1">
      <!-- 0 -->
      <g style="fill: #262626" transform="translate(92.550966 543.975313) scale(0.1 -0.1)">
       <defs>
        <path id="LiberationSans-30" d="M 3309 2203 
Q 3309 1100 2920 518 
Q 2531 -63 1772 -63 
Q 1013 -63 631 515 
Q 250 1094 250 2203 
Q 250 3338 620 3903 
Q 991 4469 1791 4469 
Q 2569 4469 2939 3897 
Q 3309 3325 3309 2203 
z
M 2738 2203 
Q 2738 3156 2517 3584 
Q 2297 4013 1791 4013 
Q 1272 4013 1045 3591 
Q 819 3169 819 2203 
Q 819 1266 1048 831 
Q 1278 397 1778 397 
Q 2275 397 2506 840 
Q 2738 1284 2738 2203 
z
" transform="scale(0.015625)"/>
       </defs>
       <use xlink:href="#LiberationSans-30"/>
      </g>
     </g>
    </g>
    <g id="xtick_2">
     <g id="line2d_3">
      <path d="M 192.591682 533.228438 
L 192.591682 36.680437 
" clip-path="url(#p5fc9b5cd30)" style="fill: none; stroke: #ffffff; stroke-opacity: 0.3; stroke-width: 0.8; stroke-linecap: round"/>
     </g>
     <g id="line2d_4"/>
     <g id="text_2">
      <!-- 20 -->
      <g style="fill: #262626" transform="translate(187.030745 543.975313) scale(0.1 -0.1)">
       <defs>
        <path id="LiberationSans-32" d="M 322 0 
L 322 397 
Q 481 763 711 1042 
Q 941 1322 1194 1548 
Q 1447 1775 1695 1969 
Q 1944 2163 2144 2356 
Q 2344 2550 2467 2762 
Q 2591 2975 2591 3244 
Q 2591 3606 2378 3806 
Q 2166 4006 1788 4006 
Q 1428 4006 1195 3811 
Q 963 3616 922 3263 
L 347 3316 
Q 409 3844 795 4156 
Q 1181 4469 1788 4469 
Q 2453 4469 2811 4155 
Q 3169 3841 3169 3263 
Q 3169 3006 3051 2753 
Q 2934 2500 2703 2247 
Q 2472 1994 1819 1463 
Q 1459 1169 1246 933 
Q 1034 697 941 478 
L 3238 478 
L 3238 0 
L 322 0 
z
" transform="scale(0.015625)"/>
       </defs>
       <use xlink:href="#LiberationSans-32"/>
       <use xlink:href="#LiberationSans-30" transform="translate(55.615234 0)"/>
      </g>
     </g>
    </g>
    <g id="xtick_3">
     <g id="line2d_5">
      <path d="M 289.851929 533.228438 
L 289.851929 36.680437 
" clip-path="url(#p5fc9b5cd30)" style="fill: none; stroke: #ffffff; stroke-opacity: 0.3; stroke-width: 0.8; stroke-linecap: round"/>
     </g>
     <g id="line2d_6"/>
     <g id="text_3">
      <!-- 40 -->
      <g style="fill: #262626" transform="translate(284.290992 543.975313) scale(0.1 -0.1)">
       <defs>
        <path id="LiberationSans-34" d="M 2753 997 
L 2753 0 
L 2222 0 
L 2222 997 
L 147 997 
L 147 1434 
L 2163 4403 
L 2753 4403 
L 2753 1441 
L 3372 1441 
L 3372 997 
L 2753 997 
z
M 2222 3769 
Q 2216 3750 2134 3603 
Q 2053 3456 2013 3397 
L 884 1734 
L 716 1503 
L 666 1441 
L 2222 1441 
L 2222 3769 
z
" transform="scale(0.015625)"/>
       </defs>
       <use xlink:href="#LiberationSans-34"/>
       <use xlink:href="#LiberationSans-30" transform="translate(55.615234 0)"/>
      </g>
     </g>
    </g>
    <g id="xtick_4">
     <g id="line2d_7">
      <path d="M 387.112176 533.228438 
L 387.112176 36.680437 
" clip-path="url(#p5fc9b5cd30)" style="fill: none; stroke: #ffffff; stroke-opacity: 0.3; stroke-width: 0.8; stroke-linecap: round"/>
     </g>
     <g id="line2d_8"/>
     <g id="text_4">
      <!-- 60 -->
      <g style="fill: #262626" transform="translate(381.551238 543.975313) scale(0.1 -0.1)">
       <defs>
        <path id="LiberationSans-36" d="M 3278 1441 
Q 3278 744 2900 340 
Q 2522 -63 1856 -63 
Q 1113 -63 719 490 
Q 325 1044 325 2100 
Q 325 3244 734 3856 
Q 1144 4469 1900 4469 
Q 2897 4469 3156 3572 
L 2619 3475 
Q 2453 4013 1894 4013 
Q 1413 4013 1148 3564 
Q 884 3116 884 2266 
Q 1038 2550 1316 2698 
Q 1594 2847 1953 2847 
Q 2563 2847 2920 2465 
Q 3278 2084 3278 1441 
z
M 2706 1416 
Q 2706 1894 2472 2153 
Q 2238 2413 1819 2413 
Q 1425 2413 1183 2183 
Q 941 1953 941 1550 
Q 941 1041 1192 716 
Q 1444 391 1838 391 
Q 2244 391 2475 664 
Q 2706 938 2706 1416 
z
" transform="scale(0.015625)"/>
       </defs>
       <use xlink:href="#LiberationSans-36"/>
       <use xlink:href="#LiberationSans-30" transform="translate(55.615234 0)"/>
      </g>
     </g>
    </g>
    <g id="xtick_5">
     <g id="line2d_9">
      <path d="M 484.372423 533.228438 
L 484.372423 36.680437 
" clip-path="url(#p5fc9b5cd30)" style="fill: none; stroke: #ffffff; stroke-opacity: 0.3; stroke-width: 0.8; stroke-linecap: round"/>
     </g>
     <g id="line2d_10"/>
     <g id="text_5">
      <!-- 80 -->
      <g style="fill: #262626" transform="translate(478.811485 543.975313) scale(0.1 -0.1)">
       <defs>
        <path id="LiberationSans-38" d="M 3281 1228 
Q 3281 619 2893 278 
Q 2506 -63 1781 -63 
Q 1075 -63 676 271 
Q 278 606 278 1222 
Q 278 1653 525 1947 
Q 772 2241 1156 2303 
L 1156 2316 
Q 797 2400 589 2681 
Q 381 2963 381 3341 
Q 381 3844 757 4156 
Q 1134 4469 1769 4469 
Q 2419 4469 2795 4162 
Q 3172 3856 3172 3334 
Q 3172 2956 2962 2675 
Q 2753 2394 2391 2322 
L 2391 2309 
Q 2813 2241 3047 1952 
Q 3281 1663 3281 1228 
z
M 2588 3303 
Q 2588 4050 1769 4050 
Q 1372 4050 1164 3862 
Q 956 3675 956 3303 
Q 956 2925 1170 2726 
Q 1384 2528 1775 2528 
Q 2172 2528 2380 2711 
Q 2588 2894 2588 3303 
z
M 2697 1281 
Q 2697 1691 2453 1898 
Q 2209 2106 1769 2106 
Q 1341 2106 1100 1882 
Q 859 1659 859 1269 
Q 859 359 1788 359 
Q 2247 359 2472 579 
Q 2697 800 2697 1281 
z
" transform="scale(0.015625)"/>
       </defs>
       <use xlink:href="#LiberationSans-38"/>
       <use xlink:href="#LiberationSans-30" transform="translate(55.615234 0)"/>
      </g>
     </g>
    </g>
    <g id="xtick_6">
     <g id="line2d_11">
      <path d="M 581.63267 533.228438 
L 581.63267 36.680437 
" clip-path="url(#p5fc9b5cd30)" style="fill: none; stroke: #ffffff; stroke-opacity: 0.3; stroke-width: 0.8; stroke-linecap: round"/>
     </g>
     <g id="line2d_12"/>
     <g id="text_6">
      <!-- 100 -->
      <g style="fill: #262626" transform="translate(573.291264 543.975313) scale(0.1 -0.1)">
       <defs>
        <path id="LiberationSans-31" d="M 488 0 
L 488 478 
L 1609 478 
L 1609 3866 
L 616 3156 
L 616 3688 
L 1656 4403 
L 2175 4403 
L 2175 478 
L 3247 478 
L 3247 0 
L 488 0 
z
" transform="scale(0.015625)"/>
       </defs>
       <use xlink:href="#LiberationSans-31"/>
       <use xlink:href="#LiberationSans-30" transform="translate(55.615234 0)"/>
       <use xlink:href="#LiberationSans-30" transform="translate(111.230469 0)"/>
      </g>
     </g>
    </g>
    <g id="xtick_7">
     <g id="line2d_13">
      <path d="M 678.892917 533.228438 
L 678.892917 36.680437 
" clip-path="url(#p5fc9b5cd30)" style="fill: none; stroke: #ffffff; stroke-opacity: 0.3; stroke-width: 0.8; stroke-linecap: round"/>
     </g>
     <g id="line2d_14"/>
     <g id="text_7">
      <!-- 120 -->
      <g style="fill: #262626" transform="translate(670.55151 543.975313) scale(0.1 -0.1)">
       <use xlink:href="#LiberationSans-31"/>
       <use xlink:href="#LiberationSans-32" transform="translate(55.615234 0)"/>
       <use xlink:href="#LiberationSans-30" transform="translate(111.230469 0)"/>
      </g>
     </g>
    </g>
    <g id="text_8">
     <!-- Success Rate (%) -->
     <g style="fill: #262626" transform="translate(300.621146 558.746562) scale(0.12 -0.12)">
      <defs>
       <path id="LiberationSans-Bold-53" d="M 4019 1269 
Q 4019 622 3539 279 
Q 3059 -63 2131 -63 
Q 1284 -63 803 237 
Q 322 538 184 1147 
L 1075 1294 
Q 1166 944 1428 786 
Q 1691 628 2156 628 
Q 3122 628 3122 1216 
Q 3122 1403 3011 1525 
Q 2900 1647 2698 1728 
Q 2497 1809 1925 1925 
Q 1431 2041 1237 2111 
Q 1044 2181 887 2276 
Q 731 2372 622 2506 
Q 513 2641 452 2822 
Q 391 3003 391 3238 
Q 391 3834 839 4151 
Q 1288 4469 2144 4469 
Q 2963 4469 3373 4212 
Q 3784 3956 3903 3366 
L 3009 3244 
Q 2941 3528 2730 3672 
Q 2519 3816 2125 3816 
Q 1288 3816 1288 3291 
Q 1288 3119 1377 3009 
Q 1466 2900 1641 2823 
Q 1816 2747 2350 2631 
Q 2984 2497 3257 2383 
Q 3531 2269 3690 2117 
Q 3850 1966 3934 1755 
Q 4019 1544 4019 1269 
z
" transform="scale(0.015625)"/>
       <path id="LiberationSans-Bold-75" d="M 1275 3381 
L 1275 1484 
Q 1275 594 1875 594 
Q 2194 594 2389 867 
Q 2584 1141 2584 1569 
L 2584 3381 
L 3463 3381 
L 3463 756 
Q 3463 325 3488 0 
L 2650 0 
Q 2613 450 2613 672 
L 2597 672 
Q 2422 288 2151 112 
Q 1881 -63 1509 -63 
Q 972 -63 684 267 
Q 397 597 397 1234 
L 397 3381 
L 1275 3381 
z
" transform="scale(0.015625)"/>
       <path id="LiberationSans-Bold-63" d="M 1856 -63 
Q 1088 -63 669 395 
Q 250 853 250 1672 
Q 250 2509 672 2976 
Q 1094 3444 1869 3444 
Q 2466 3444 2856 3144 
Q 3247 2844 3347 2316 
L 2463 2272 
Q 2425 2531 2275 2686 
Q 2125 2841 1850 2841 
Q 1172 2841 1172 1706 
Q 1172 538 1863 538 
Q 2113 538 2281 695 
Q 2450 853 2491 1166 
L 3372 1125 
Q 3325 778 3123 506 
Q 2922 234 2594 85 
Q 2266 -63 1856 -63 
z
" transform="scale(0.015625)"/>
       <path id="LiberationSans-Bold-65" d="M 1831 -63 
Q 1069 -63 659 389 
Q 250 841 250 1706 
Q 250 2544 665 2994 
Q 1081 3444 1844 3444 
Q 2572 3444 2956 2961 
Q 3341 2478 3341 1547 
L 3341 1522 
L 1172 1522 
Q 1172 1028 1355 776 
Q 1538 525 1875 525 
Q 2341 525 2463 928 
L 3291 856 
Q 2931 -63 1831 -63 
z
M 1831 2891 
Q 1522 2891 1355 2675 
Q 1188 2459 1178 2072 
L 2491 2072 
Q 2466 2481 2294 2686 
Q 2122 2891 1831 2891 
z
" transform="scale(0.015625)"/>
       <path id="LiberationSans-Bold-73" d="M 3297 988 
Q 3297 497 2895 217 
Q 2494 -63 1784 -63 
Q 1088 -63 717 157 
Q 347 378 225 844 
L 997 959 
Q 1063 719 1223 619 
Q 1384 519 1784 519 
Q 2153 519 2322 612 
Q 2491 706 2491 906 
Q 2491 1069 2355 1164 
Q 2219 1259 1894 1325 
Q 1150 1472 890 1598 
Q 631 1725 495 1926 
Q 359 2128 359 2422 
Q 359 2906 732 3176 
Q 1106 3447 1791 3447 
Q 2394 3447 2761 3212 
Q 3128 2978 3219 2534 
L 2441 2453 
Q 2403 2659 2256 2761 
Q 2109 2863 1791 2863 
Q 1478 2863 1322 2783 
Q 1166 2703 1166 2516 
Q 1166 2369 1286 2283 
Q 1406 2197 1691 2141 
Q 2088 2059 2395 1973 
Q 2703 1888 2889 1769 
Q 3075 1650 3186 1464 
Q 3297 1278 3297 988 
z
" transform="scale(0.015625)"/>
       <path id="LiberationSans-Bold-20" transform="scale(0.015625)"/>
       <path id="LiberationSans-Bold-52" d="M 3453 0 
L 2431 1672 
L 1350 1672 
L 1350 0 
L 428 0 
L 428 4403 
L 2628 4403 
Q 3416 4403 3844 4064 
Q 4272 3725 4272 3091 
Q 4272 2628 4009 2292 
Q 3747 1956 3300 1850 
L 4491 0 
L 3453 0 
z
M 3344 3053 
Q 3344 3688 2531 3688 
L 1350 3688 
L 1350 2388 
L 2556 2388 
Q 2944 2388 3144 2563 
Q 3344 2738 3344 3053 
z
" transform="scale(0.015625)"/>
       <path id="LiberationSans-Bold-61" d="M 1228 -63 
Q 738 -63 463 204 
Q 188 472 188 956 
Q 188 1481 530 1756 
Q 872 2031 1522 2038 
L 2250 2050 
L 2250 2222 
Q 2250 2553 2134 2714 
Q 2019 2875 1756 2875 
Q 1513 2875 1398 2764 
Q 1284 2653 1256 2397 
L 341 2441 
Q 425 2934 792 3189 
Q 1159 3444 1794 3444 
Q 2434 3444 2781 3128 
Q 3128 2813 3128 2231 
L 3128 1000 
Q 3128 716 3192 608 
Q 3256 500 3406 500 
Q 3506 500 3600 519 
L 3600 44 
Q 3522 25 3459 9 
Q 3397 -6 3334 -15 
Q 3272 -25 3201 -31 
Q 3131 -38 3038 -38 
Q 2706 -38 2548 125 
Q 2391 288 2359 603 
L 2341 603 
Q 1972 -63 1228 -63 
z
M 2250 1566 
L 1800 1559 
Q 1494 1547 1366 1492 
Q 1238 1438 1170 1325 
Q 1103 1213 1103 1025 
Q 1103 784 1214 667 
Q 1325 550 1509 550 
Q 1716 550 1886 662 
Q 2056 775 2153 973 
Q 2250 1172 2250 1394 
L 2250 1566 
z
" transform="scale(0.015625)"/>
       <path id="LiberationSans-Bold-74" d="M 1313 -56 
Q 925 -56 715 155 
Q 506 366 506 794 
L 506 2788 
L 78 2788 
L 78 3381 
L 550 3381 
L 825 4175 
L 1375 4175 
L 1375 3381 
L 2016 3381 
L 2016 2788 
L 1375 2788 
L 1375 1031 
Q 1375 784 1469 667 
Q 1563 550 1759 550 
Q 1863 550 2053 594 
L 2053 50 
Q 1728 -56 1313 -56 
z
" transform="scale(0.015625)"/>
       <path id="LiberationSans-Bold-28" d="M 1247 -1328 
Q 756 -622 537 81 
Q 319 784 319 1659 
Q 319 2531 537 3232 
Q 756 3934 1247 4638 
L 2125 4638 
Q 1631 3925 1407 3219 
Q 1184 2513 1184 1656 
Q 1184 803 1406 101 
Q 1628 -600 2125 -1328 
L 1247 -1328 
z
" transform="scale(0.015625)"/>
       <path id="LiberationSans-Bold-25" d="M 5522 1350 
Q 5522 669 5240 309 
Q 4959 -50 4416 -50 
Q 3866 -50 3587 306 
Q 3309 663 3309 1350 
Q 3309 2050 3578 2401 
Q 3847 2753 4428 2753 
Q 4991 2753 5256 2398 
Q 5522 2044 5522 1350 
z
M 1725 0 
L 1081 0 
L 3956 4403 
L 4609 4403 
L 1725 0 
z
M 1275 4453 
Q 1834 4453 2104 4100 
Q 2375 3747 2375 3053 
Q 2375 2372 2092 2011 
Q 1809 1650 1259 1650 
Q 716 1650 437 2008 
Q 159 2366 159 3053 
Q 159 3763 428 4108 
Q 697 4453 1275 4453 
z
M 4850 1350 
Q 4850 1847 4754 2059 
Q 4659 2272 4428 2272 
Q 4178 2272 4083 2056 
Q 3988 1841 3988 1350 
Q 3988 850 4088 645 
Q 4188 441 4422 441 
Q 4650 441 4750 653 
Q 4850 866 4850 1350 
z
M 1697 3053 
Q 1697 3544 1601 3756 
Q 1506 3969 1275 3969 
Q 1025 3969 928 3758 
Q 831 3547 831 3053 
Q 831 2559 932 2348 
Q 1034 2138 1269 2138 
Q 1500 2138 1598 2350 
Q 1697 2563 1697 3053 
z
" transform="scale(0.015625)"/>
       <path id="LiberationSans-Bold-29" d="M 6 -1328 
Q 506 -597 726 101 
Q 947 800 947 1656 
Q 947 2516 722 3223 
Q 497 3931 6 4638 
L 884 4638 
Q 1378 3928 1595 3225 
Q 1813 2522 1813 1659 
Q 1813 791 1595 87 
Q 1378 -616 884 -1328 
L 6 -1328 
z
" transform="scale(0.015625)"/>
      </defs>
      <use xlink:href="#LiberationSans-Bold-53"/>
      <use xlink:href="#LiberationSans-Bold-75" transform="translate(66.699219 0)"/>
      <use xlink:href="#LiberationSans-Bold-63" transform="translate(127.783203 0)"/>
      <use xlink:href="#LiberationSans-Bold-63" transform="translate(183.398438 0)"/>
      <use xlink:href="#LiberationSans-Bold-65" transform="translate(239.013672 0)"/>
      <use xlink:href="#LiberationSans-Bold-73" transform="translate(294.628906 0)"/>
      <use xlink:href="#LiberationSans-Bold-73" transform="translate(350.244141 0)"/>
      <use xlink:href="#LiberationSans-Bold-20" transform="translate(405.859375 0)"/>
      <use xlink:href="#LiberationSans-Bold-52" transform="translate(433.642578 0)"/>
      <use xlink:href="#LiberationSans-Bold-61" transform="translate(505.859375 0)"/>
      <use xlink:href="#LiberationSans-Bold-74" transform="translate(561.474609 0)"/>
      <use xlink:href="#LiberationSans-Bold-65" transform="translate(594.775391 0)"/>
      <use xlink:href="#LiberationSans-Bold-20" transform="translate(650.390625 0)"/>
      <use xlink:href="#LiberationSans-Bold-28" transform="translate(678.173828 0)"/>
      <use xlink:href="#LiberationSans-Bold-25" transform="translate(711.474609 0)"/>
      <use xlink:href="#LiberationSans-Bold-29" transform="translate(800.390625 0)"/>
     </g>
    </g>
   </g>
   <g id="matplotlib.axis_2">
    <g id="text_9">
     <!-- Task Duration (Expert Work) -->
     <g style="fill: #262626" transform="translate(15.89625 365.414437) rotate(-90) scale(0.12 -0.12)">
      <defs>
       <path id="LiberationSans-Bold-54" d="M 2416 3691 
L 2416 0 
L 1494 0 
L 1494 3691 
L 72 3691 
L 72 4403 
L 3841 4403 
L 3841 3691 
L 2416 3691 
z
" transform="scale(0.015625)"/>
       <path id="LiberationSans-Bold-6b" d="M 2606 0 
L 1703 1531 
L 1325 1269 
L 1325 0 
L 447 0 
L 447 4638 
L 1325 4638 
L 1325 1981 
L 2531 3381 
L 3475 3381 
L 2288 2063 
L 3566 0 
L 2606 0 
z
" transform="scale(0.015625)"/>
       <path id="LiberationSans-Bold-44" d="M 4353 2234 
Q 4353 1553 4086 1045 
Q 3819 538 3330 269 
Q 2841 0 2209 0 
L 428 0 
L 428 4403 
L 2022 4403 
Q 3134 4403 3743 3842 
Q 4353 3281 4353 2234 
z
M 3425 2234 
Q 3425 2944 3056 3317 
Q 2688 3691 2003 3691 
L 1350 3691 
L 1350 713 
L 2131 713 
Q 2725 713 3075 1122 
Q 3425 1531 3425 2234 
z
" transform="scale(0.015625)"/>
       <path id="LiberationSans-Bold-72" d="M 447 0 
L 447 2588 
Q 447 2866 439 3052 
Q 431 3238 422 3381 
L 1259 3381 
Q 1269 3325 1284 3039 
Q 1300 2753 1300 2659 
L 1313 2659 
Q 1441 3016 1541 3161 
Q 1641 3306 1778 3376 
Q 1916 3447 2122 3447 
Q 2291 3447 2394 3400 
L 2394 2666 
Q 2181 2713 2019 2713 
Q 1691 2713 1508 2447 
Q 1325 2181 1325 1659 
L 1325 0 
L 447 0 
z
" transform="scale(0.015625)"/>
       <path id="LiberationSans-Bold-69" d="M 447 3991 
L 447 4638 
L 1325 4638 
L 1325 3991 
L 447 3991 
z
M 447 0 
L 447 3381 
L 1325 3381 
L 1325 0 
L 447 0 
z
" transform="scale(0.015625)"/>
       <path id="LiberationSans-Bold-6f" d="M 3659 1694 
Q 3659 872 3203 404 
Q 2747 -63 1941 -63 
Q 1150 -63 700 406 
Q 250 875 250 1694 
Q 250 2509 700 2976 
Q 1150 3444 1959 3444 
Q 2788 3444 3223 2992 
Q 3659 2541 3659 1694 
z
M 2741 1694 
Q 2741 2297 2544 2569 
Q 2347 2841 1972 2841 
Q 1172 2841 1172 1694 
Q 1172 1128 1367 833 
Q 1563 538 1931 538 
Q 2741 538 2741 1694 
z
" transform="scale(0.015625)"/>
       <path id="LiberationSans-Bold-6e" d="M 2638 0 
L 2638 1897 
Q 2638 2788 2034 2788 
Q 1716 2788 1520 2514 
Q 1325 2241 1325 1813 
L 1325 0 
L 447 0 
L 447 2625 
Q 447 2897 439 3070 
Q 431 3244 422 3381 
L 1259 3381 
Q 1269 3322 1284 3064 
Q 1300 2806 1300 2709 
L 1313 2709 
Q 1491 3097 1759 3272 
Q 2028 3447 2400 3447 
Q 2938 3447 3225 3115 
Q 3513 2784 3513 2147 
L 3513 0 
L 2638 0 
z
" transform="scale(0.015625)"/>
       <path id="LiberationSans-Bold-45" d="M 428 0 
L 428 4403 
L 3891 4403 
L 3891 3691 
L 1350 3691 
L 1350 2584 
L 3700 2584 
L 3700 1872 
L 1350 1872 
L 1350 713 
L 4019 713 
L 4019 0 
L 428 0 
z
" transform="scale(0.015625)"/>
       <path id="LiberationSans-Bold-78" d="M 2559 0 
L 1772 1225 
L 978 0 
L 44 0 
L 1281 1747 
L 103 3381 
L 1050 3381 
L 1772 2275 
L 2491 3381 
L 3444 3381 
L 2266 1756 
L 3513 0 
L 2559 0 
z
" transform="scale(0.015625)"/>
       <path id="LiberationSans-Bold-70" d="M 3647 1706 
Q 3647 859 3308 398 
Q 2969 -63 2350 -63 
Q 1994 -63 1730 92 
Q 1466 247 1325 538 
L 1306 538 
Q 1325 444 1325 -31 
L 1325 -1328 
L 447 -1328 
L 447 2603 
Q 447 3081 422 3381 
L 1275 3381 
Q 1291 3325 1302 3159 
Q 1313 2994 1313 2831 
L 1325 2831 
Q 1622 3453 2406 3453 
Q 2997 3453 3322 2998 
Q 3647 2544 3647 1706 
z
M 2731 1706 
Q 2731 2844 2034 2844 
Q 1684 2844 1498 2537 
Q 1313 2231 1313 1681 
Q 1313 1134 1498 836 
Q 1684 538 2028 538 
Q 2731 538 2731 1706 
z
" transform="scale(0.015625)"/>
       <path id="LiberationSans-Bold-57" d="M 4897 0 
L 3803 0 
L 3206 2547 
Q 3097 2997 3022 3488 
Q 2947 3078 2900 2864 
Q 2853 2650 2234 0 
L 1141 0 
L 6 4403 
L 941 4403 
L 1578 1559 
L 1722 872 
Q 1809 1306 1892 1701 
Q 1975 2097 2516 4403 
L 3547 4403 
L 4103 2059 
Q 4169 1797 4325 872 
L 4403 1234 
L 4569 1953 
L 5100 4403 
L 6034 4403 
L 4897 0 
z
" transform="scale(0.015625)"/>
      </defs>
      <use xlink:href="#LiberationSans-Bold-54"/>
      <use xlink:href="#LiberationSans-Bold-61" transform="translate(53.708984 0)"/>
      <use xlink:href="#LiberationSans-Bold-73" transform="translate(109.324219 0)"/>
      <use xlink:href="#LiberationSans-Bold-6b" transform="translate(164.939453 0)"/>
      <use xlink:href="#LiberationSans-Bold-20" transform="translate(220.554688 0)"/>
      <use xlink:href="#LiberationSans-Bold-44" transform="translate(248.337891 0)"/>
      <use xlink:href="#LiberationSans-Bold-75" transform="translate(320.554688 0)"/>
      <use xlink:href="#LiberationSans-Bold-72" transform="translate(381.638672 0)"/>
      <use xlink:href="#LiberationSans-Bold-61" transform="translate(420.554688 0)"/>
      <use xlink:href="#LiberationSans-Bold-74" transform="translate(476.169922 0)"/>
      <use xlink:href="#LiberationSans-Bold-69" transform="translate(509.470703 0)"/>
      <use xlink:href="#LiberationSans-Bold-6f" transform="translate(537.253906 0)"/>
      <use xlink:href="#LiberationSans-Bold-6e" transform="translate(598.337891 0)"/>
      <use xlink:href="#LiberationSans-Bold-20" transform="translate(659.421875 0)"/>
      <use xlink:href="#LiberationSans-Bold-28" transform="translate(687.205078 0)"/>
      <use xlink:href="#LiberationSans-Bold-45" transform="translate(720.505859 0)"/>
      <use xlink:href="#LiberationSans-Bold-78" transform="translate(787.205078 0)"/>
      <use xlink:href="#LiberationSans-Bold-70" transform="translate(842.820312 0)"/>
      <use xlink:href="#LiberationSans-Bold-65" transform="translate(903.904297 0)"/>
      <use xlink:href="#LiberationSans-Bold-72" transform="translate(959.519531 0)"/>
      <use xlink:href="#LiberationSans-Bold-74" transform="translate(998.435547 0)"/>
      <use xlink:href="#LiberationSans-Bold-20" transform="translate(1031.736328 0)"/>
      <use xlink:href="#LiberationSans-Bold-57" transform="translate(1059.519531 0)"/>
      <use xlink:href="#LiberationSans-Bold-6f" transform="translate(1152.154297 0)"/>
      <use xlink:href="#LiberationSans-Bold-72" transform="translate(1213.238281 0)"/>
      <use xlink:href="#LiberationSans-Bold-6b" transform="translate(1252.154297 0)"/>
      <use xlink:href="#LiberationSans-Bold-29" transform="translate(1307.769531 0)"/>
     </g>
    </g>
   </g>
   <g id="patch_3">
    <path d="M 95.331435 510.658074 
L 581.63267 510.658074 
L 581.63267 469.621049 
L 95.331435 469.621049 
z
" clip-path="url(#p5fc9b5cd30)" style="fill: #00897b; opacity: 0.7"/>
   </g>
   <g id="patch_4">
    <path d="M 95.331435 442.263033 
L 533.002546 442.263033 
L 533.002546 401.226008 
L 95.331435 401.226008 
z
" clip-path="url(#p5fc9b5cd30)" style="fill: #00897b; opacity: 0.7"/>
   </g>
   <g id="patch_5">
    <path d="M 95.331435 373.867991 
L 435.742299 373.867991 
L 435.742299 332.830966 
L 95.331435 332.830966 
z
" clip-path="url(#p5fc9b5cd30)" style="fill: #00897b; opacity: 0.7"/>
   </g>
   <g id="patch_6">
    <path d="M 95.331435 305.47295 
L 338.482052 305.47295 
L 338.482052 264.435925 
L 95.331435 264.435925 
z
" clip-path="url(#p5fc9b5cd30)" style="fill: #00897b; opacity: 0.7"/>
   </g>
   <g id="patch_7">
    <path d="M 95.331435 237.077909 
L 241.221806 237.077909 
L 241.221806 196.040884 
L 95.331435 196.040884 
z
" clip-path="url(#p5fc9b5cd30)" style="fill: #757575; opacity: 0.7"/>
   </g>
   <g id="patch_8">
    <path d="M 95.331435 168.682867 
L 168.27662 168.682867 
L 168.27662 127.645842 
L 95.331435 127.645842 
z
" clip-path="url(#p5fc9b5cd30)" style="fill: #757575; opacity: 0.7"/>
   </g>
   <g id="patch_9">
    <path d="M 95.331435 100.287826 
L 119.646497 100.287826 
L 119.646497 59.250801 
L 95.331435 59.250801 
z
" clip-path="url(#p5fc9b5cd30)" style="fill: #757575; opacity: 0.7"/>
   </g>
   <g id="line2d_15">
    <path d="M 338.482052 533.228438 
L 338.482052 36.680437 
" clip-path="url(#p5fc9b5cd30)" style="fill: none; stroke-dasharray: 7.4,3.2; stroke-dashoffset: 0; stroke: #ff0000; stroke-width: 2"/>
   </g>
   <g id="patch_10">
    <path d="M 22.38625 533.228438 
L 22.38625 36.680437 
" style="fill: none"/>
   </g>
   <g id="patch_11">
    <path d="M 678.892917 533.228438 
L 678.892917 36.680437 
" style="fill: none"/>
   </g>
   <g id="patch_12">
    <path d="M 22.38625 533.228438 
L 678.892917 533.228438 
" style="fill: none"/>
   </g>
   <g id="patch_13">
    <path d="M 22.38625 36.680437 
L 678.892917 36.680437 
" style="fill: none"/>
   </g>
   <g id="text_10">
    <!-- 5 min -->
    <g style="fill: #262626" transform="translate(20.584124 492.725499) scale(0.1 -0.1)">
     <defs>
      <path id="LiberationSans-Bold-35" d="M 3381 1466 
Q 3381 766 2945 351 
Q 2509 -63 1750 -63 
Q 1088 -63 689 235 
Q 291 534 197 1100 
L 1075 1172 
Q 1144 891 1319 762 
Q 1494 634 1759 634 
Q 2088 634 2283 843 
Q 2478 1053 2478 1447 
Q 2478 1794 2293 2001 
Q 2109 2209 1778 2209 
Q 1413 2209 1181 1925 
L 325 1925 
L 478 4403 
L 3125 4403 
L 3125 3750 
L 1275 3750 
L 1203 2638 
Q 1522 2919 2000 2919 
Q 2628 2919 3004 2528 
Q 3381 2138 3381 1466 
z
" transform="scale(0.015625)"/>
      <path id="LiberationSans-Bold-6d" d="M 2438 0 
L 2438 1897 
Q 2438 2788 1925 2788 
Q 1659 2788 1492 2516 
Q 1325 2244 1325 1813 
L 1325 0 
L 447 0 
L 447 2625 
Q 447 2897 439 3070 
Q 431 3244 422 3381 
L 1259 3381 
Q 1269 3322 1284 3064 
Q 1300 2806 1300 2709 
L 1313 2709 
Q 1475 3097 1717 3272 
Q 1959 3447 2297 3447 
Q 3072 3447 3238 2709 
L 3256 2709 
Q 3428 3103 3668 3275 
Q 3909 3447 4281 3447 
Q 4775 3447 5034 3111 
Q 5294 2775 5294 2147 
L 5294 0 
L 4422 0 
L 4422 1897 
Q 4422 2788 3909 2788 
Q 3653 2788 3489 2539 
Q 3325 2291 3309 1853 
L 3309 0 
L 2438 0 
z
" transform="scale(0.015625)"/>
     </defs>
     <use xlink:href="#LiberationSans-Bold-35"/>
     <use xlink:href="#LiberationSans-Bold-20" transform="translate(55.615234 0)"/>
     <use xlink:href="#LiberationSans-Bold-6d" transform="translate(83.398438 0)"/>
     <use xlink:href="#LiberationSans-Bold-69" transform="translate(172.314453 0)"/>
     <use xlink:href="#LiberationSans-Bold-6e" transform="translate(200.097656 0)"/>
    </g>
   </g>
   <g id="text_11">
    <!-- 100% -->
    <g style="fill: #ffffff" transform="translate(531.742608 492.725499) scale(0.1 -0.1)">
     <defs>
      <path id="LiberationSans-Bold-31" d="M 403 0 
L 403 653 
L 1494 653 
L 1494 3656 
L 438 2997 
L 438 3688 
L 1541 4403 
L 2372 4403 
L 2372 653 
L 3381 653 
L 3381 0 
L 403 0 
z
" transform="scale(0.015625)"/>
      <path id="LiberationSans-Bold-30" d="M 3297 2203 
Q 3297 1088 2914 512 
Q 2531 -63 1766 -63 
Q 253 -63 253 2203 
Q 253 2994 418 3494 
Q 584 3994 915 4231 
Q 1247 4469 1791 4469 
Q 2572 4469 2934 3903 
Q 3297 3338 3297 2203 
z
M 2416 2203 
Q 2416 2813 2356 3150 
Q 2297 3488 2165 3634 
Q 2034 3781 1784 3781 
Q 1519 3781 1383 3632 
Q 1247 3484 1189 3148 
Q 1131 2813 1131 2203 
Q 1131 1600 1192 1261 
Q 1253 922 1386 775 
Q 1519 628 1772 628 
Q 2022 628 2158 783 
Q 2294 938 2355 1278 
Q 2416 1619 2416 2203 
z
" transform="scale(0.015625)"/>
     </defs>
     <use xlink:href="#LiberationSans-Bold-31"/>
     <use xlink:href="#LiberationSans-Bold-30" transform="translate(55.615234 0)"/>
     <use xlink:href="#LiberationSans-Bold-30" transform="translate(111.230469 0)"/>
     <use xlink:href="#LiberationSans-Bold-25" transform="translate(166.845703 0)"/>
    </g>
   </g>
   <g id="text_12">
    <!-- Single function -->
    <g style="fill: #262626" transform="translate(605.947731 487.619843) scale(0.09 -0.09)">
     <defs>
      <path id="LiberationSans-Italic-53" d="M 1925 -63 
Q 1147 -63 717 214 
Q 288 491 181 1056 
L 734 1172 
Q 819 769 1109 587 
Q 1400 406 1969 406 
Q 2653 406 2968 611 
Q 3284 816 3284 1238 
Q 3284 1447 3193 1573 
Q 3103 1700 2884 1801 
Q 2666 1903 2131 2053 
Q 1597 2200 1333 2354 
Q 1069 2509 933 2728 
Q 797 2947 797 3253 
Q 797 3822 1276 4145 
Q 1756 4469 2575 4469 
Q 3263 4469 3678 4231 
Q 4094 3994 4200 3538 
L 3659 3378 
Q 3556 3706 3289 3862 
Q 3022 4019 2572 4019 
Q 1397 4019 1397 3281 
Q 1397 3094 1476 2975 
Q 1556 2856 1739 2767 
Q 1922 2678 2466 2531 
Q 3075 2363 3342 2206 
Q 3609 2050 3751 1826 
Q 3894 1603 3894 1275 
Q 3894 631 3409 284 
Q 2925 -63 1925 -63 
z
" transform="scale(0.015625)"/>
      <path id="LiberationSans-Italic-69" d="M 897 4100 
L 1003 4638 
L 1566 4638 
L 1459 4100 
L 897 4100 
z
M 103 0 
L 759 3381 
L 1322 3381 
L 663 0 
L 103 0 
z
" transform="scale(0.015625)"/>
      <path id="LiberationSans-Italic-6e" d="M 2241 0 
L 2634 2016 
Q 2691 2291 2691 2484 
Q 2691 3006 2131 3006 
Q 1738 3006 1438 2706 
Q 1138 2406 1038 1894 
L 669 0 
L 106 0 
L 625 2659 
Q 688 2956 747 3381 
L 1278 3381 
Q 1278 3347 1245 3139 
Q 1213 2931 1191 2803 
L 1200 2803 
Q 1459 3163 1720 3302 
Q 1981 3441 2341 3441 
Q 2803 3441 3036 3212 
Q 3269 2984 3269 2553 
Q 3269 2353 3203 2041 
L 2806 0 
L 2241 0 
z
" transform="scale(0.015625)"/>
      <path id="LiberationSans-Italic-67" d="M 1241 -1328 
Q 181 -1328 13 -541 
L 522 -409 
Q 631 -900 1253 -900 
Q 1697 -900 1940 -670 
Q 2184 -441 2284 84 
L 2391 628 
L 2384 628 
Q 2191 350 2042 228 
Q 1894 106 1708 40 
Q 1522 -25 1281 -25 
Q 803 -25 511 289 
Q 219 603 219 1122 
Q 219 1538 336 2019 
Q 453 2500 656 2819 
Q 859 3138 1150 3289 
Q 1441 3441 1838 3441 
Q 2216 3441 2477 3262 
Q 2738 3084 2813 2803 
L 2819 2803 
Q 2841 2919 2897 3136 
Q 2953 3353 2969 3381 
L 3503 3381 
L 3444 3125 
L 3350 2681 
L 2847 97 
Q 2697 -659 2309 -993 
Q 1922 -1328 1241 -1328 
z
M 809 1166 
Q 809 788 973 589 
Q 1138 391 1456 391 
Q 1794 391 2069 636 
Q 2344 881 2495 1309 
Q 2647 1738 2647 2200 
Q 2647 2591 2447 2808 
Q 2247 3025 1897 3025 
Q 1616 3025 1428 2909 
Q 1241 2794 1112 2547 
Q 984 2300 896 1889 
Q 809 1478 809 1166 
z
" transform="scale(0.015625)"/>
      <path id="LiberationSans-Italic-6c" d="M 103 0 
L 1003 4638 
L 1566 4638 
L 663 0 
L 103 0 
z
" transform="scale(0.015625)"/>
      <path id="LiberationSans-Italic-65" d="M 800 1572 
Q 781 1463 772 1219 
Q 772 803 980 581 
Q 1188 359 1606 359 
Q 1909 359 2156 509 
Q 2403 659 2541 919 
L 2972 722 
Q 2744 313 2392 125 
Q 2041 -63 1541 -63 
Q 913 -63 564 285 
Q 216 634 216 1266 
Q 216 1894 437 2392 
Q 659 2891 1062 3167 
Q 1466 3444 1969 3444 
Q 2609 3444 2965 3122 
Q 3322 2800 3322 2213 
Q 3322 1884 3247 1572 
L 800 1572 
z
M 2750 2003 
L 2763 2228 
Q 2763 2616 2561 2822 
Q 2359 3028 1981 3028 
Q 1563 3028 1277 2761 
Q 991 2494 875 2003 
L 2750 2003 
z
" transform="scale(0.015625)"/>
      <path id="LiberationSans-Italic-20" transform="scale(0.015625)"/>
      <path id="LiberationSans-Italic-66" d="M 1356 2972 
L 778 0 
L 216 0 
L 794 2972 
L 319 2972 
L 400 3381 
L 875 3381 
L 947 3763 
Q 1019 4113 1136 4286 
Q 1253 4459 1447 4548 
Q 1641 4638 1944 4638 
Q 2175 4638 2331 4600 
L 2250 4172 
L 2109 4191 
L 1966 4197 
Q 1769 4197 1664 4095 
Q 1559 3994 1497 3684 
L 1438 3381 
L 2097 3381 
L 2016 2972 
L 1356 2972 
z
" transform="scale(0.015625)"/>
      <path id="LiberationSans-Italic-75" d="M 1297 3381 
L 903 1366 
Q 847 1091 847 897 
Q 847 375 1406 375 
Q 1800 375 2100 675 
Q 2400 975 2500 1488 
L 2869 3381 
L 3431 3381 
L 2913 722 
Q 2850 425 2791 0 
L 2259 0 
Q 2259 34 2292 242 
Q 2325 450 2347 578 
L 2338 578 
Q 2078 219 1817 80 
Q 1556 -59 1197 -59 
Q 734 -59 501 169 
Q 269 397 269 828 
Q 269 1028 334 1341 
L 731 3381 
L 1297 3381 
z
" transform="scale(0.015625)"/>
      <path id="LiberationSans-Italic-63" d="M 1466 381 
Q 2106 381 2369 1100 
L 2856 947 
Q 2478 -63 1453 -63 
Q 853 -63 531 278 
Q 209 619 209 1234 
Q 209 1859 436 2396 
Q 663 2934 1036 3189 
Q 1409 3444 1953 3444 
Q 2481 3444 2789 3178 
Q 3097 2913 3128 2450 
L 2575 2372 
Q 2556 2675 2387 2839 
Q 2219 3003 1934 3003 
Q 1541 3003 1297 2792 
Q 1053 2581 918 2122 
Q 784 1663 784 1216 
Q 784 381 1466 381 
z
" transform="scale(0.015625)"/>
      <path id="LiberationSans-Italic-74" d="M 859 -63 
Q 594 -63 442 96 
Q 291 256 291 519 
Q 291 691 338 925 
L 731 2972 
L 341 2972 
L 422 3381 
L 819 3381 
L 1147 4138 
L 1522 4138 
L 1375 3381 
L 2000 3381 
L 1919 2972 
L 1294 2972 
L 903 956 
Q 866 769 866 659 
Q 866 384 1147 384 
Q 1278 384 1459 428 
L 1400 13 
Q 1091 -63 859 -63 
z
" transform="scale(0.015625)"/>
      <path id="LiberationSans-Italic-6f" d="M 3356 2134 
Q 3356 1728 3231 1289 
Q 3106 850 2873 545 
Q 2641 241 2303 89 
Q 1966 -63 1534 -63 
Q 922 -63 565 306 
Q 209 675 209 1309 
Q 222 1947 440 2440 
Q 659 2934 1046 3187 
Q 1434 3441 2006 3441 
Q 2663 3441 3009 3098 
Q 3356 2756 3356 2134 
z
M 2775 2134 
Q 2775 3028 2000 3028 
Q 1578 3028 1323 2811 
Q 1069 2594 928 2153 
Q 788 1713 788 1300 
Q 788 838 988 595 
Q 1188 353 1569 353 
Q 1891 353 2086 461 
Q 2281 569 2428 798 
Q 2575 1028 2667 1384 
Q 2759 1741 2775 2134 
z
" transform="scale(0.015625)"/>
     </defs>
     <use xlink:href="#LiberationSans-Italic-53"/>
     <use xlink:href="#LiberationSans-Italic-69" transform="translate(66.699219 0)"/>
     <use xlink:href="#LiberationSans-Italic-6e" transform="translate(88.916016 0)"/>
     <use xlink:href="#LiberationSans-Italic-67" transform="translate(144.53125 0)"/>
     <use xlink:href="#LiberationSans-Italic-6c" transform="translate(200.146484 0)"/>
     <use xlink:href="#LiberationSans-Italic-65" transform="translate(222.363281 0)"/>
     <use xlink:href="#LiberationSans-Italic-20" transform="translate(277.978516 0)"/>
     <use xlink:href="#LiberationSans-Italic-66" transform="translate(305.761719 0)"/>
     <use xlink:href="#LiberationSans-Italic-75" transform="translate(333.544922 0)"/>
     <use xlink:href="#LiberationSans-Italic-6e" transform="translate(389.160156 0)"/>
     <use xlink:href="#LiberationSans-Italic-63" transform="translate(444.775391 0)"/>
     <use xlink:href="#LiberationSans-Italic-74" transform="translate(494.775391 0)"/>
     <use xlink:href="#LiberationSans-Italic-69" transform="translate(522.558594 0)"/>
     <use xlink:href="#LiberationSans-Italic-6f" transform="translate(544.775391 0)"/>
     <use xlink:href="#LiberationSans-Italic-6e" transform="translate(600.390625 0)"/>
    </g>
    <!-- implementation -->
    <g style="fill: #262626" transform="translate(605.947731 497.313968) scale(0.09 -0.09)">
     <defs>
      <path id="LiberationSans-Italic-6d" d="M 2063 0 
L 2450 1981 
Q 2528 2372 2528 2525 
Q 2528 2759 2409 2882 
Q 2291 3006 2022 3006 
Q 1659 3006 1389 2697 
Q 1119 2388 1034 1888 
L 666 0 
L 106 0 
L 625 2659 
Q 688 2956 747 3381 
L 1278 3381 
Q 1278 3347 1245 3139 
Q 1213 2931 1191 2803 
L 1200 2803 
Q 1428 3159 1658 3300 
Q 1888 3441 2206 3441 
Q 2584 3441 2806 3255 
Q 3028 3069 3072 2716 
Q 3331 3122 3582 3281 
Q 3834 3441 4159 3441 
Q 4581 3441 4807 3212 
Q 5034 2984 5034 2553 
Q 5034 2353 4969 2041 
L 4572 0 
L 4016 0 
L 4403 1981 
Q 4481 2372 4481 2525 
Q 4481 2759 4362 2882 
Q 4244 3006 3975 3006 
Q 3613 3006 3344 2701 
Q 3075 2397 2988 1897 
L 2619 0 
L 2063 0 
z
" transform="scale(0.015625)"/>
      <path id="LiberationSans-Italic-70" d="M 1731 -63 
Q 1347 -63 1105 100 
Q 863 263 763 556 
L 747 556 
Q 747 522 720 353 
Q 694 184 400 -1328 
L -159 -1328 
L 619 2691 
Q 691 3038 728 3381 
L 1250 3381 
Q 1250 3297 1229 3123 
Q 1209 2950 1197 2878 
L 1209 2878 
Q 1438 3175 1691 3309 
Q 1944 3444 2316 3444 
Q 2806 3444 3079 3148 
Q 3353 2853 3353 2338 
Q 3353 1703 3161 1108 
Q 2969 513 2620 225 
Q 2272 -63 1731 -63 
z
M 2153 3009 
Q 1844 3009 1623 2882 
Q 1403 2756 1250 2501 
Q 1097 2247 1009 1864 
Q 922 1481 922 1178 
Q 922 788 1120 570 
Q 1319 353 1672 353 
Q 2059 353 2284 589 
Q 2509 825 2637 1339 
Q 2766 1853 2766 2238 
Q 2766 2622 2619 2815 
Q 2472 3009 2153 3009 
z
" transform="scale(0.015625)"/>
      <path id="LiberationSans-Italic-61" d="M 2897 -31 
Q 2606 -31 2473 89 
Q 2341 209 2341 447 
L 2356 647 
L 2338 647 
Q 2078 253 1800 95 
Q 1522 -63 1128 -63 
Q 691 -63 417 200 
Q 144 463 144 869 
Q 144 1447 558 1744 
Q 972 2041 1878 2053 
L 2603 2063 
Q 2663 2369 2663 2459 
Q 2663 2744 2497 2880 
Q 2331 3016 2038 3016 
Q 1666 3016 1475 2883 
Q 1284 2750 1200 2478 
L 644 2569 
Q 784 3028 1132 3236 
Q 1481 3444 2069 3444 
Q 2603 3444 2914 3194 
Q 3225 2944 3225 2522 
Q 3225 2322 3166 2031 
L 2934 850 
Q 2900 700 2900 575 
Q 2900 347 3153 347 
Q 3238 347 3341 369 
L 3297 19 
Q 3091 -31 2897 -31 
z
M 2528 1675 
L 1906 1663 
Q 1534 1653 1321 1595 
Q 1109 1538 992 1448 
Q 875 1359 808 1223 
Q 741 1088 741 894 
Q 741 659 892 512 
Q 1044 366 1284 366 
Q 1588 366 1831 495 
Q 2075 625 2234 834 
Q 2394 1044 2444 1284 
L 2528 1675 
z
" transform="scale(0.015625)"/>
     </defs>
     <use xlink:href="#LiberationSans-Italic-69"/>
     <use xlink:href="#LiberationSans-Italic-6d" transform="translate(22.216797 0)"/>
     <use xlink:href="#LiberationSans-Italic-70" transform="translate(105.517578 0)"/>
     <use xlink:href="#LiberationSans-Italic-6c" transform="translate(161.132812 0)"/>
     <use xlink:href="#LiberationSans-Italic-65" transform="translate(183.349609 0)"/>
     <use xlink:href="#LiberationSans-Italic-6d" transform="translate(238.964844 0)"/>
     <use xlink:href="#LiberationSans-Italic-65" transform="translate(322.265625 0)"/>
     <use xlink:href="#LiberationSans-Italic-6e" transform="translate(377.880859 0)"/>
     <use xlink:href="#LiberationSans-Italic-74" transform="translate(433.496094 0)"/>
     <use xlink:href="#LiberationSans-Italic-61" transform="translate(461.279297 0)"/>
     <use xlink:href="#LiberationSans-Italic-74" transform="translate(516.894531 0)"/>
     <use xlink:href="#LiberationSans-Italic-69" transform="translate(544.677734 0)"/>
     <use xlink:href="#LiberationSans-Italic-6f" transform="translate(566.894531 0)"/>
     <use xlink:href="#LiberationSans-Italic-6e" transform="translate(622.509766 0)"/>
    </g>
   </g>
   <g id="text_13">
    <!-- 15 min -->
    <g style="fill: #262626" transform="translate(15.023187 424.330458) scale(0.1 -0.1)">
     <use xlink:href="#LiberationSans-Bold-31"/>
     <use xlink:href="#LiberationSans-Bold-35" transform="translate(55.615234 0)"/>
     <use xlink:href="#LiberationSans-Bold-20" transform="translate(111.230469 0)"/>
     <use xlink:href="#LiberationSans-Bold-6d" transform="translate(139.013672 0)"/>
     <use xlink:href="#LiberationSans-Bold-69" transform="translate(227.929688 0)"/>
     <use xlink:href="#LiberationSans-Bold-6e" transform="translate(255.712891 0)"/>
    </g>
   </g>
   <g id="text_14">
    <!-- 90% -->
    <g style="fill: #ffffff" transform="translate(488.673422 424.330458) scale(0.1 -0.1)">
     <defs>
      <path id="LiberationSans-Bold-39" d="M 3322 2272 
Q 3322 1100 2894 518 
Q 2466 -63 1678 -63 
Q 1097 -63 767 185 
Q 438 434 300 972 
L 1125 1088 
Q 1247 628 1688 628 
Q 2056 628 2254 981 
Q 2453 1334 2459 2028 
Q 2341 1794 2070 1661 
Q 1800 1528 1488 1528 
Q 906 1528 564 1923 
Q 222 2319 222 2994 
Q 222 3688 623 4078 
Q 1025 4469 1759 4469 
Q 2550 4469 2936 3920 
Q 3322 3372 3322 2272 
z
M 2394 2888 
Q 2394 3297 2214 3539 
Q 2034 3781 1738 3781 
Q 1447 3781 1280 3570 
Q 1113 3359 1113 2988 
Q 1113 2622 1278 2401 
Q 1444 2181 1741 2181 
Q 2022 2181 2208 2373 
Q 2394 2566 2394 2888 
z
" transform="scale(0.015625)"/>
     </defs>
     <use xlink:href="#LiberationSans-Bold-39"/>
     <use xlink:href="#LiberationSans-Bold-30" transform="translate(55.615234 0)"/>
     <use xlink:href="#LiberationSans-Bold-25" transform="translate(111.230469 0)"/>
    </g>
   </g>
   <g id="text_15">
    <!-- Feature with tests -->
    <g style="fill: #262626" transform="translate(605.947731 419.224801) scale(0.09 -0.09)">
     <defs>
      <path id="LiberationSans-Italic-46" d="M 1553 3916 
L 1234 2278 
L 3722 2278 
L 3625 1784 
L 1138 1784 
L 794 0 
L 197 0 
L 1050 4403 
L 4209 4403 
L 4116 3916 
L 1553 3916 
z
" transform="scale(0.015625)"/>
      <path id="LiberationSans-Italic-72" d="M 2244 2931 
Q 2106 2972 1963 2972 
Q 1634 2972 1370 2628 
Q 1106 2284 1013 1763 
L 669 0 
L 106 0 
L 613 2594 
L 691 3025 
L 747 3381 
L 1278 3381 
L 1169 2691 
L 1181 2691 
Q 1388 3106 1588 3275 
Q 1788 3444 2050 3444 
Q 2194 3444 2347 3400 
L 2244 2931 
z
" transform="scale(0.015625)"/>
      <path id="LiberationSans-Italic-77" d="M 3338 0 
L 2684 0 
L 2569 2181 
L 2550 2919 
Q 2456 2684 2381 2507 
Q 2306 2331 1256 0 
L 606 0 
L 319 3381 
L 875 3381 
L 1000 1084 
L 1022 466 
L 1275 1059 
L 2341 3381 
L 2944 3381 
L 3081 1059 
Q 3100 722 3100 466 
Q 3203 713 4416 3381 
L 4966 3381 
L 3338 0 
z
" transform="scale(0.015625)"/>
      <path id="LiberationSans-Italic-68" d="M 1197 2803 
Q 1456 3163 1717 3302 
Q 1978 3441 2338 3441 
Q 2800 3441 3033 3212 
Q 3266 2984 3266 2553 
Q 3266 2353 3200 2041 
L 2803 0 
L 2238 0 
L 2631 2016 
Q 2688 2291 2688 2484 
Q 2688 3006 2128 3006 
Q 1734 3006 1434 2706 
Q 1134 2406 1034 1894 
L 666 0 
L 106 0 
L 1006 4638 
L 1569 4638 
L 1334 3431 
Q 1278 3119 1188 2803 
L 1197 2803 
z
" transform="scale(0.015625)"/>
      <path id="LiberationSans-Italic-73" d="M 2834 991 
Q 2834 484 2446 210 
Q 2059 -63 1328 -63 
Q 784 -63 464 120 
Q 144 303 16 697 
L 475 872 
Q 578 597 795 472 
Q 1013 347 1378 347 
Q 1825 347 2056 498 
Q 2288 650 2288 941 
Q 2288 1134 2128 1264 
Q 1969 1394 1453 1553 
Q 1053 1684 853 1809 
Q 653 1934 547 2101 
Q 441 2269 441 2491 
Q 441 2944 803 3189 
Q 1166 3434 1825 3434 
Q 2931 3434 3069 2638 
L 2559 2559 
Q 2491 2806 2300 2915 
Q 2109 3025 1788 3025 
Q 1400 3025 1192 2901 
Q 984 2778 984 2553 
Q 984 2422 1050 2331 
Q 1116 2241 1239 2170 
Q 1363 2100 1809 1959 
Q 2206 1834 2407 1706 
Q 2609 1578 2721 1403 
Q 2834 1228 2834 991 
z
" transform="scale(0.015625)"/>
     </defs>
     <use xlink:href="#LiberationSans-Italic-46"/>
     <use xlink:href="#LiberationSans-Italic-65" transform="translate(61.083984 0)"/>
     <use xlink:href="#LiberationSans-Italic-61" transform="translate(116.699219 0)"/>
     <use xlink:href="#LiberationSans-Italic-74" transform="translate(172.314453 0)"/>
     <use xlink:href="#LiberationSans-Italic-75" transform="translate(200.097656 0)"/>
     <use xlink:href="#LiberationSans-Italic-72" transform="translate(255.712891 0)"/>
     <use xlink:href="#LiberationSans-Italic-65" transform="translate(289.013672 0)"/>
     <use xlink:href="#LiberationSans-Italic-20" transform="translate(344.628906 0)"/>
     <use xlink:href="#LiberationSans-Italic-77" transform="translate(372.412109 0)"/>
     <use xlink:href="#LiberationSans-Italic-69" transform="translate(444.628906 0)"/>
     <use xlink:href="#LiberationSans-Italic-74" transform="translate(466.845703 0)"/>
     <use xlink:href="#LiberationSans-Italic-68" transform="translate(494.628906 0)"/>
     <use xlink:href="#LiberationSans-Italic-20" transform="translate(550.244141 0)"/>
     <use xlink:href="#LiberationSans-Italic-74" transform="translate(578.027344 0)"/>
     <use xlink:href="#LiberationSans-Italic-65" transform="translate(605.810547 0)"/>
     <use xlink:href="#LiberationSans-Italic-73" transform="translate(661.425781 0)"/>
     <use xlink:href="#LiberationSans-Italic-74" transform="translate(711.425781 0)"/>
     <use xlink:href="#LiberationSans-Italic-73" transform="translate(739.208984 0)"/>
    </g>
    <!-- (small scope) -->
    <g style="fill: #262626" transform="translate(605.947731 428.918926) scale(0.09 -0.09)">
     <defs>
      <path id="LiberationSans-Italic-28" d="M 2672 4638 
Q 866 3047 866 819 
Q 866 -397 1513 -1325 
L 969 -1325 
Q 300 -400 300 869 
Q 300 2031 769 2990 
Q 1238 3950 2128 4638 
L 2672 4638 
z
" transform="scale(0.015625)"/>
      <path id="LiberationSans-Italic-29" d="M -622 -1325 
Q 1184 266 1184 2494 
Q 1184 3709 538 4638 
L 1081 4638 
Q 1750 3713 1750 2444 
Q 1750 1281 1281 321 
Q 813 -638 -78 -1325 
L -622 -1325 
z
" transform="scale(0.015625)"/>
     </defs>
     <use xlink:href="#LiberationSans-Italic-28"/>
     <use xlink:href="#LiberationSans-Italic-73" transform="translate(33.300781 0)"/>
     <use xlink:href="#LiberationSans-Italic-6d" transform="translate(83.300781 0)"/>
     <use xlink:href="#LiberationSans-Italic-61" transform="translate(166.601562 0)"/>
     <use xlink:href="#LiberationSans-Italic-6c" transform="translate(222.216797 0)"/>
     <use xlink:href="#LiberationSans-Italic-6c" transform="translate(244.433594 0)"/>
     <use xlink:href="#LiberationSans-Italic-20" transform="translate(266.650391 0)"/>
     <use xlink:href="#LiberationSans-Italic-73" transform="translate(294.433594 0)"/>
     <use xlink:href="#LiberationSans-Italic-63" transform="translate(344.433594 0)"/>
     <use xlink:href="#LiberationSans-Italic-6f" transform="translate(394.433594 0)"/>
     <use xlink:href="#LiberationSans-Italic-70" transform="translate(450.048828 0)"/>
     <use xlink:href="#LiberationSans-Italic-65" transform="translate(505.664062 0)"/>
     <use xlink:href="#LiberationSans-Italic-29" transform="translate(561.279297 0)"/>
    </g>
   </g>
   <g id="text_16">
    <!-- 30 min -->
    <g style="fill: #262626" transform="translate(15.023187 355.935416) scale(0.1 -0.1)">
     <defs>
      <path id="LiberationSans-Bold-33" d="M 3328 1222 
Q 3328 603 2922 265 
Q 2516 -72 1766 -72 
Q 1056 -72 637 254 
Q 219 581 147 1197 
L 1041 1275 
Q 1125 641 1763 641 
Q 2078 641 2253 797 
Q 2428 953 2428 1275 
Q 2428 1569 2215 1725 
Q 2003 1881 1584 1881 
L 1278 1881 
L 1278 2591 
L 1566 2591 
Q 1944 2591 2134 2745 
Q 2325 2900 2325 3188 
Q 2325 3459 2173 3614 
Q 2022 3769 1731 3769 
Q 1459 3769 1292 3619 
Q 1125 3469 1100 3194 
L 222 3256 
Q 291 3825 694 4147 
Q 1097 4469 1747 4469 
Q 2438 4469 2827 4158 
Q 3216 3847 3216 3297 
Q 3216 2884 2973 2618 
Q 2731 2353 2275 2266 
L 2275 2253 
Q 2781 2194 3054 1920 
Q 3328 1647 3328 1222 
z
" transform="scale(0.015625)"/>
     </defs>
     <use xlink:href="#LiberationSans-Bold-33"/>
     <use xlink:href="#LiberationSans-Bold-30" transform="translate(55.615234 0)"/>
     <use xlink:href="#LiberationSans-Bold-20" transform="translate(111.230469 0)"/>
     <use xlink:href="#LiberationSans-Bold-6d" transform="translate(139.013672 0)"/>
     <use xlink:href="#LiberationSans-Bold-69" transform="translate(227.929688 0)"/>
     <use xlink:href="#LiberationSans-Bold-6e" transform="translate(255.712891 0)"/>
    </g>
   </g>
   <g id="text_17">
    <!-- 70% -->
    <g style="fill: #ffffff" transform="translate(391.413175 355.935416) scale(0.1 -0.1)">
     <defs>
      <path id="LiberationSans-Bold-37" d="M 3278 3706 
Q 2981 3238 2717 2797 
Q 2453 2356 2256 1911 
Q 2059 1466 1945 995 
Q 1831 525 1831 0 
L 916 0 
Q 916 550 1059 1064 
Q 1203 1578 1475 2111 
Q 1747 2644 2463 3681 
L 275 3681 
L 275 4403 
L 3278 4403 
L 3278 3706 
z
" transform="scale(0.015625)"/>
     </defs>
     <use xlink:href="#LiberationSans-Bold-37"/>
     <use xlink:href="#LiberationSans-Bold-30" transform="translate(55.615234 0)"/>
     <use xlink:href="#LiberationSans-Bold-25" transform="translate(111.230469 0)"/>
    </g>
   </g>
   <g id="text_18">
    <!-- Multi-file feature -->
    <g style="fill: #262626" transform="translate(605.947731 350.82976) scale(0.09 -0.09)">
     <defs>
      <path id="LiberationSans-Italic-4d" d="M 3941 0 
L 4503 2900 
Q 4616 3478 4706 3838 
Q 4422 3247 4253 2963 
L 2541 0 
L 2153 0 
L 1575 2963 
Q 1556 3053 1447 3838 
Q 1419 3650 1353 3251 
Q 1288 2853 728 0 
L 197 0 
L 1050 4403 
L 1788 4403 
L 2378 1350 
Q 2403 1228 2478 709 
L 2803 1375 
L 4531 4403 
L 5331 4403 
L 4478 0 
L 3941 0 
z
" transform="scale(0.015625)"/>
      <path id="LiberationSans-Italic-2d" d="M 328 1450 
L 425 1950 
L 1988 1950 
L 1891 1450 
L 328 1450 
z
" transform="scale(0.015625)"/>
     </defs>
     <use xlink:href="#LiberationSans-Italic-4d"/>
     <use xlink:href="#LiberationSans-Italic-75" transform="translate(83.300781 0)"/>
     <use xlink:href="#LiberationSans-Italic-6c" transform="translate(138.916016 0)"/>
     <use xlink:href="#LiberationSans-Italic-74" transform="translate(161.132812 0)"/>
     <use xlink:href="#LiberationSans-Italic-69" transform="translate(188.916016 0)"/>
     <use xlink:href="#LiberationSans-Italic-2d" transform="translate(211.132812 0)"/>
     <use xlink:href="#LiberationSans-Italic-66" transform="translate(244.433594 0)"/>
     <use xlink:href="#LiberationSans-Italic-69" transform="translate(272.216797 0)"/>
     <use xlink:href="#LiberationSans-Italic-6c" transform="translate(294.433594 0)"/>
     <use xlink:href="#LiberationSans-Italic-65" transform="translate(316.650391 0)"/>
     <use xlink:href="#LiberationSans-Italic-20" transform="translate(372.265625 0)"/>
     <use xlink:href="#LiberationSans-Italic-66" transform="translate(400.048828 0)"/>
     <use xlink:href="#LiberationSans-Italic-65" transform="translate(427.832031 0)"/>
     <use xlink:href="#LiberationSans-Italic-61" transform="translate(483.447266 0)"/>
     <use xlink:href="#LiberationSans-Italic-74" transform="translate(539.0625 0)"/>
     <use xlink:href="#LiberationSans-Italic-75" transform="translate(566.845703 0)"/>
     <use xlink:href="#LiberationSans-Italic-72" transform="translate(622.460938 0)"/>
     <use xlink:href="#LiberationSans-Italic-65" transform="translate(655.761719 0)"/>
    </g>
    <!-- with integration -->
    <g style="fill: #262626" transform="translate(605.947731 360.523885) scale(0.09 -0.09)">
     <use xlink:href="#LiberationSans-Italic-77"/>
     <use xlink:href="#LiberationSans-Italic-69" transform="translate(72.216797 0)"/>
     <use xlink:href="#LiberationSans-Italic-74" transform="translate(94.433594 0)"/>
     <use xlink:href="#LiberationSans-Italic-68" transform="translate(122.216797 0)"/>
     <use xlink:href="#LiberationSans-Italic-20" transform="translate(177.832031 0)"/>
     <use xlink:href="#LiberationSans-Italic-69" transform="translate(205.615234 0)"/>
     <use xlink:href="#LiberationSans-Italic-6e" transform="translate(227.832031 0)"/>
     <use xlink:href="#LiberationSans-Italic-74" transform="translate(283.447266 0)"/>
     <use xlink:href="#LiberationSans-Italic-65" transform="translate(311.230469 0)"/>
     <use xlink:href="#LiberationSans-Italic-67" transform="translate(366.845703 0)"/>
     <use xlink:href="#LiberationSans-Italic-72" transform="translate(422.460938 0)"/>
     <use xlink:href="#LiberationSans-Italic-61" transform="translate(455.761719 0)"/>
     <use xlink:href="#LiberationSans-Italic-74" transform="translate(511.376953 0)"/>
     <use xlink:href="#LiberationSans-Italic-69" transform="translate(539.160156 0)"/>
     <use xlink:href="#LiberationSans-Italic-6f" transform="translate(561.376953 0)"/>
     <use xlink:href="#LiberationSans-Italic-6e" transform="translate(616.992188 0)"/>
    </g>
   </g>
   <g id="text_19">
    <!-- 1 hour -->
    <g style="fill: #262626" transform="translate(16.146624 287.540375) scale(0.1 -0.1)">
     <defs>
      <path id="LiberationSans-Bold-68" d="M 1313 2706 
Q 1491 3094 1759 3269 
Q 2028 3444 2400 3444 
Q 2938 3444 3225 3112 
Q 3513 2781 3513 2144 
L 3513 0 
L 2638 0 
L 2638 1894 
Q 2638 2784 2034 2784 
Q 1716 2784 1520 2511 
Q 1325 2238 1325 1809 
L 1325 0 
L 447 0 
L 447 4638 
L 1325 4638 
L 1325 3372 
Q 1325 3031 1300 2706 
L 1313 2706 
z
" transform="scale(0.015625)"/>
     </defs>
     <use xlink:href="#LiberationSans-Bold-31"/>
     <use xlink:href="#LiberationSans-Bold-20" transform="translate(55.615234 0)"/>
     <use xlink:href="#LiberationSans-Bold-68" transform="translate(83.398438 0)"/>
     <use xlink:href="#LiberationSans-Bold-6f" transform="translate(144.482422 0)"/>
     <use xlink:href="#LiberationSans-Bold-75" transform="translate(205.566406 0)"/>
     <use xlink:href="#LiberationSans-Bold-72" transform="translate(266.650391 0)"/>
    </g>
   </g>
   <g id="text_20">
    <!-- 50% -->
    <g style="fill: #ffffff" transform="translate(294.152928 287.540375) scale(0.1 -0.1)">
     <use xlink:href="#LiberationSans-Bold-35"/>
     <use xlink:href="#LiberationSans-Bold-30" transform="translate(55.615234 0)"/>
     <use xlink:href="#LiberationSans-Bold-25" transform="translate(111.230469 0)"/>
    </g>
   </g>
   <g id="text_21">
    <!-- Complete feature: -->
    <g style="fill: #262626" transform="translate(605.947731 282.434719) scale(0.09 -0.09)">
     <defs>
      <path id="LiberationSans-Italic-43" d="M 4244 1053 
Q 3850 466 3350 201 
Q 2850 -63 2188 -63 
Q 1622 -63 1205 164 
Q 788 391 570 809 
Q 353 1228 353 1778 
Q 353 2547 681 3169 
Q 1009 3791 1592 4130 
Q 2175 4469 2894 4469 
Q 3572 4469 4039 4186 
Q 4506 3903 4656 3391 
L 4094 3219 
Q 3981 3569 3657 3775 
Q 3334 3981 2863 3981 
Q 2288 3981 1850 3704 
Q 1413 3428 1178 2926 
Q 944 2425 944 1769 
Q 944 1144 1284 783 
Q 1625 422 2228 422 
Q 2691 422 3091 651 
Q 3491 881 3797 1331 
L 4244 1053 
z
" transform="scale(0.015625)"/>
      <path id="LiberationSans-Italic-3a" d="M 784 2734 
L 913 3381 
L 1522 3381 
L 1394 2734 
L 784 2734 
z
M 253 0 
L 381 647 
L 991 647 
L 863 0 
L 253 0 
z
" transform="scale(0.015625)"/>
     </defs>
     <use xlink:href="#LiberationSans-Italic-43"/>
     <use xlink:href="#LiberationSans-Italic-6f" transform="translate(72.216797 0)"/>
     <use xlink:href="#LiberationSans-Italic-6d" transform="translate(127.832031 0)"/>
     <use xlink:href="#LiberationSans-Italic-70" transform="translate(211.132812 0)"/>
     <use xlink:href="#LiberationSans-Italic-6c" transform="translate(266.748047 0)"/>
     <use xlink:href="#LiberationSans-Italic-65" transform="translate(288.964844 0)"/>
     <use xlink:href="#LiberationSans-Italic-74" transform="translate(344.580078 0)"/>
     <use xlink:href="#LiberationSans-Italic-65" transform="translate(372.363281 0)"/>
     <use xlink:href="#LiberationSans-Italic-20" transform="translate(427.978516 0)"/>
     <use xlink:href="#LiberationSans-Italic-66" transform="translate(455.761719 0)"/>
     <use xlink:href="#LiberationSans-Italic-65" transform="translate(483.544922 0)"/>
     <use xlink:href="#LiberationSans-Italic-61" transform="translate(539.160156 0)"/>
     <use xlink:href="#LiberationSans-Italic-74" transform="translate(594.775391 0)"/>
     <use xlink:href="#LiberationSans-Italic-75" transform="translate(622.558594 0)"/>
     <use xlink:href="#LiberationSans-Italic-72" transform="translate(678.173828 0)"/>
     <use xlink:href="#LiberationSans-Italic-65" transform="translate(711.474609 0)"/>
     <use xlink:href="#LiberationSans-Italic-3a" transform="translate(767.089844 0)"/>
    </g>
    <!-- code + tests + docs -->
    <g style="fill: #262626" transform="translate(605.947731 292.128844) scale(0.09 -0.09)">
     <defs>
      <path id="LiberationSans-Italic-64" d="M 1253 -66 
Q 763 -66 489 229 
Q 216 525 216 1041 
Q 216 1675 408 2270 
Q 600 2866 948 3153 
Q 1297 3441 1838 3441 
Q 2222 3441 2464 3278 
Q 2706 3116 2806 2822 
L 2822 2822 
L 2909 3328 
L 3166 4638 
L 3728 4638 
L 2963 697 
Q 2872 256 2844 0 
L 2306 0 
Q 2306 159 2372 500 
L 2356 500 
Q 2128 203 1875 68 
Q 1622 -66 1253 -66 
z
M 1416 369 
Q 1725 369 1945 495 
Q 2166 622 2319 876 
Q 2472 1131 2559 1514 
Q 2647 1897 2647 2200 
Q 2647 2591 2448 2808 
Q 2250 3025 1897 3025 
Q 1516 3025 1294 2798 
Q 1072 2572 937 2058 
Q 803 1544 803 1141 
Q 803 756 950 562 
Q 1097 369 1416 369 
z
" transform="scale(0.015625)"/>
      <path id="LiberationSans-Italic-2b" d="M 2191 1900 
L 2191 563 
L 1731 563 
L 1731 1900 
L 406 1900 
L 406 2356 
L 1731 2356 
L 1731 3694 
L 2191 3694 
L 2191 2356 
L 3516 2356 
L 3516 1900 
L 2191 1900 
z
" transform="scale(0.015625)"/>
     </defs>
     <use xlink:href="#LiberationSans-Italic-63"/>
     <use xlink:href="#LiberationSans-Italic-6f" transform="translate(50 0)"/>
     <use xlink:href="#LiberationSans-Italic-64" transform="translate(105.615234 0)"/>
     <use xlink:href="#LiberationSans-Italic-65" transform="translate(161.230469 0)"/>
     <use xlink:href="#LiberationSans-Italic-20" transform="translate(216.845703 0)"/>
     <use xlink:href="#LiberationSans-Italic-2b" transform="translate(244.628906 0)"/>
     <use xlink:href="#LiberationSans-Italic-20" transform="translate(303.027344 0)"/>
     <use xlink:href="#LiberationSans-Italic-74" transform="translate(330.810547 0)"/>
     <use xlink:href="#LiberationSans-Italic-65" transform="translate(358.59375 0)"/>
     <use xlink:href="#LiberationSans-Italic-73" transform="translate(414.208984 0)"/>
     <use xlink:href="#LiberationSans-Italic-74" transform="translate(464.208984 0)"/>
     <use xlink:href="#LiberationSans-Italic-73" transform="translate(491.992188 0)"/>
     <use xlink:href="#LiberationSans-Italic-20" transform="translate(541.992188 0)"/>
     <use xlink:href="#LiberationSans-Italic-2b" transform="translate(569.775391 0)"/>
     <use xlink:href="#LiberationSans-Italic-20" transform="translate(628.173828 0)"/>
     <use xlink:href="#LiberationSans-Italic-64" transform="translate(655.957031 0)"/>
     <use xlink:href="#LiberationSans-Italic-6f" transform="translate(711.572266 0)"/>
     <use xlink:href="#LiberationSans-Italic-63" transform="translate(767.1875 0)"/>
     <use xlink:href="#LiberationSans-Italic-73" transform="translate(817.1875 0)"/>
    </g>
   </g>
   <g id="text_22">
    <!-- 2 hours -->
    <g style="fill: #262626" transform="translate(10.585687 219.145334) scale(0.1 -0.1)">
     <defs>
      <path id="LiberationSans-Bold-32" d="M 222 0 
L 222 609 
Q 394 988 711 1347 
Q 1028 1706 1509 2097 
Q 1972 2472 2158 2715 
Q 2344 2959 2344 3194 
Q 2344 3769 1766 3769 
Q 1484 3769 1336 3617 
Q 1188 3466 1144 3163 
L 259 3213 
Q 334 3825 717 4147 
Q 1100 4469 1759 4469 
Q 2472 4469 2853 4144 
Q 3234 3819 3234 3231 
Q 3234 2922 3112 2672 
Q 2991 2422 2800 2211 
Q 2609 2000 2376 1815 
Q 2144 1631 1925 1456 
Q 1706 1281 1526 1103 
Q 1347 925 1259 722 
L 3303 722 
L 3303 0 
L 222 0 
z
" transform="scale(0.015625)"/>
     </defs>
     <use xlink:href="#LiberationSans-Bold-32"/>
     <use xlink:href="#LiberationSans-Bold-20" transform="translate(55.615234 0)"/>
     <use xlink:href="#LiberationSans-Bold-68" transform="translate(83.398438 0)"/>
     <use xlink:href="#LiberationSans-Bold-6f" transform="translate(144.482422 0)"/>
     <use xlink:href="#LiberationSans-Bold-75" transform="translate(205.566406 0)"/>
     <use xlink:href="#LiberationSans-Bold-72" transform="translate(266.650391 0)"/>
     <use xlink:href="#LiberationSans-Bold-73" transform="translate(305.566406 0)"/>
    </g>
   </g>
   <g id="text_23">
    <!-- 30% -->
    <g style="fill: #ffffff" transform="translate(196.892681 219.145334) scale(0.1 -0.1)">
     <use xlink:href="#LiberationSans-Bold-33"/>
     <use xlink:href="#LiberationSans-Bold-30" transform="translate(55.615234 0)"/>
     <use xlink:href="#LiberationSans-Bold-25" transform="translate(111.230469 0)"/>
    </g>
   </g>
   <g id="text_24">
    <!-- Cross-module feature -->
    <g style="fill: #262626" transform="translate(605.947731 214.039677) scale(0.09 -0.09)">
     <use xlink:href="#LiberationSans-Italic-43"/>
     <use xlink:href="#LiberationSans-Italic-72" transform="translate(72.216797 0)"/>
     <use xlink:href="#LiberationSans-Italic-6f" transform="translate(105.517578 0)"/>
     <use xlink:href="#LiberationSans-Italic-73" transform="translate(161.132812 0)"/>
     <use xlink:href="#LiberationSans-Italic-73" transform="translate(211.132812 0)"/>
     <use xlink:href="#LiberationSans-Italic-2d" transform="translate(261.132812 0)"/>
     <use xlink:href="#LiberationSans-Italic-6d" transform="translate(294.433594 0)"/>
     <use xlink:href="#LiberationSans-Italic-6f" transform="translate(377.734375 0)"/>
     <use xlink:href="#LiberationSans-Italic-64" transform="translate(433.349609 0)"/>
     <use xlink:href="#LiberationSans-Italic-75" transform="translate(488.964844 0)"/>
     <use xlink:href="#LiberationSans-Italic-6c" transform="translate(544.580078 0)"/>
     <use xlink:href="#LiberationSans-Italic-65" transform="translate(566.796875 0)"/>
     <use xlink:href="#LiberationSans-Italic-20" transform="translate(622.412109 0)"/>
     <use xlink:href="#LiberationSans-Italic-66" transform="translate(650.195312 0)"/>
     <use xlink:href="#LiberationSans-Italic-65" transform="translate(677.978516 0)"/>
     <use xlink:href="#LiberationSans-Italic-61" transform="translate(733.59375 0)"/>
     <use xlink:href="#LiberationSans-Italic-74" transform="translate(789.208984 0)"/>
     <use xlink:href="#LiberationSans-Italic-75" transform="translate(816.992188 0)"/>
     <use xlink:href="#LiberationSans-Italic-72" transform="translate(872.607422 0)"/>
     <use xlink:href="#LiberationSans-Italic-65" transform="translate(905.908203 0)"/>
    </g>
    <!-- with refactoring -->
    <g style="fill: #262626" transform="translate(605.947731 223.733802) scale(0.09 -0.09)">
     <use xlink:href="#LiberationSans-Italic-77"/>
     <use xlink:href="#LiberationSans-Italic-69" transform="translate(72.216797 0)"/>
     <use xlink:href="#LiberationSans-Italic-74" transform="translate(94.433594 0)"/>
     <use xlink:href="#LiberationSans-Italic-68" transform="translate(122.216797 0)"/>
     <use xlink:href="#LiberationSans-Italic-20" transform="translate(177.832031 0)"/>
     <use xlink:href="#LiberationSans-Italic-72" transform="translate(205.615234 0)"/>
     <use xlink:href="#LiberationSans-Italic-65" transform="translate(238.916016 0)"/>
     <use xlink:href="#LiberationSans-Italic-66" transform="translate(294.53125 0)"/>
     <use xlink:href="#LiberationSans-Italic-61" transform="translate(322.314453 0)"/>
     <use xlink:href="#LiberationSans-Italic-63" transform="translate(377.929688 0)"/>
     <use xlink:href="#LiberationSans-Italic-74" transform="translate(427.929688 0)"/>
     <use xlink:href="#LiberationSans-Italic-6f" transform="translate(455.712891 0)"/>
     <use xlink:href="#LiberationSans-Italic-72" transform="translate(511.328125 0)"/>
     <use xlink:href="#LiberationSans-Italic-69" transform="translate(544.628906 0)"/>
     <use xlink:href="#LiberationSans-Italic-6e" transform="translate(566.845703 0)"/>
     <use xlink:href="#LiberationSans-Italic-67" transform="translate(622.460938 0)"/>
    </g>
   </g>
   <g id="text_25">
    <!-- 4 hours -->
    <g style="fill: #262626" transform="translate(10.585687 150.750292) scale(0.1 -0.1)">
     <defs>
      <path id="LiberationSans-Bold-34" d="M 2938 897 
L 2938 0 
L 2100 0 
L 2100 897 
L 97 897 
L 97 1556 
L 1956 4403 
L 2938 4403 
L 2938 1550 
L 3525 1550 
L 3525 897 
L 2938 897 
z
M 2100 2991 
Q 2100 3159 2111 3356 
Q 2122 3553 2128 3609 
Q 2047 3434 1834 3103 
L 813 1550 
L 2100 1550 
L 2100 2991 
z
" transform="scale(0.015625)"/>
     </defs>
     <use xlink:href="#LiberationSans-Bold-34"/>
     <use xlink:href="#LiberationSans-Bold-20" transform="translate(55.615234 0)"/>
     <use xlink:href="#LiberationSans-Bold-68" transform="translate(83.398438 0)"/>
     <use xlink:href="#LiberationSans-Bold-6f" transform="translate(144.482422 0)"/>
     <use xlink:href="#LiberationSans-Bold-75" transform="translate(205.566406 0)"/>
     <use xlink:href="#LiberationSans-Bold-72" transform="translate(266.650391 0)"/>
     <use xlink:href="#LiberationSans-Bold-73" transform="translate(305.566406 0)"/>
    </g>
   </g>
   <g id="text_26">
    <!-- 15% -->
    <g style="fill: #ffffff" transform="translate(123.947496 150.750292) scale(0.1 -0.1)">
     <use xlink:href="#LiberationSans-Bold-31"/>
     <use xlink:href="#LiberationSans-Bold-35" transform="translate(55.615234 0)"/>
     <use xlink:href="#LiberationSans-Bold-25" transform="translate(111.230469 0)"/>
    </g>
   </g>
   <g id="text_27">
    <!-- Epic implementation -->
    <g style="fill: #262626" transform="translate(605.947731 145.644636) scale(0.09 -0.09)">
     <defs>
      <path id="LiberationSans-Italic-45" d="M 197 0 
L 1050 4403 
L 4328 4403 
L 4234 3916 
L 1553 3916 
L 1278 2503 
L 3772 2503 
L 3678 2022 
L 1184 2022 
L 888 488 
L 3697 488 
L 3603 0 
L 197 0 
z
" transform="scale(0.015625)"/>
     </defs>
     <use xlink:href="#LiberationSans-Italic-45"/>
     <use xlink:href="#LiberationSans-Italic-70" transform="translate(66.699219 0)"/>
     <use xlink:href="#LiberationSans-Italic-69" transform="translate(122.314453 0)"/>
     <use xlink:href="#LiberationSans-Italic-63" transform="translate(144.53125 0)"/>
     <use xlink:href="#LiberationSans-Italic-20" transform="translate(194.53125 0)"/>
     <use xlink:href="#LiberationSans-Italic-69" transform="translate(222.314453 0)"/>
     <use xlink:href="#LiberationSans-Italic-6d" transform="translate(244.53125 0)"/>
     <use xlink:href="#LiberationSans-Italic-70" transform="translate(327.832031 0)"/>
     <use xlink:href="#LiberationSans-Italic-6c" transform="translate(383.447266 0)"/>
     <use xlink:href="#LiberationSans-Italic-65" transform="translate(405.664062 0)"/>
     <use xlink:href="#LiberationSans-Italic-6d" transform="translate(461.279297 0)"/>
     <use xlink:href="#LiberationSans-Italic-65" transform="translate(544.580078 0)"/>
     <use xlink:href="#LiberationSans-Italic-6e" transform="translate(600.195312 0)"/>
     <use xlink:href="#LiberationSans-Italic-74" transform="translate(655.810547 0)"/>
     <use xlink:href="#LiberationSans-Italic-61" transform="translate(683.59375 0)"/>
     <use xlink:href="#LiberationSans-Italic-74" transform="translate(739.208984 0)"/>
     <use xlink:href="#LiberationSans-Italic-69" transform="translate(766.992188 0)"/>
     <use xlink:href="#LiberationSans-Italic-6f" transform="translate(789.208984 0)"/>
     <use xlink:href="#LiberationSans-Italic-6e" transform="translate(844.824219 0)"/>
    </g>
    <!-- across subsystems -->
    <g style="fill: #262626" transform="translate(605.947731 155.338761) scale(0.09 -0.09)">
     <defs>
      <path id="LiberationSans-Italic-62" d="M 2325 3444 
Q 2816 3444 3089 3148 
Q 3363 2853 3363 2338 
Q 3363 1703 3170 1108 
Q 2978 513 2629 225 
Q 2281 -63 1741 -63 
Q 1356 -63 1115 100 
Q 875 263 775 556 
L 766 556 
Q 744 441 691 225 
Q 638 9 631 0 
L 91 0 
Q 106 47 151 256 
Q 197 466 244 697 
L 1009 4638 
L 1572 4638 
L 1313 3316 
Q 1288 3172 1206 2878 
L 1219 2878 
Q 1447 3175 1700 3309 
Q 1953 3444 2325 3444 
z
M 2163 3009 
Q 1853 3009 1633 2882 
Q 1413 2756 1259 2501 
Q 1106 2247 1018 1864 
Q 931 1481 931 1178 
Q 931 788 1129 570 
Q 1328 353 1681 353 
Q 2069 353 2294 589 
Q 2519 825 2647 1339 
Q 2775 1853 2775 2238 
Q 2775 2622 2628 2815 
Q 2481 3009 2163 3009 
z
" transform="scale(0.015625)"/>
      <path id="LiberationSans-Italic-79" d="M 50 -1328 
Q -175 -1328 -363 -1284 
L -266 -866 
Q -125 -891 -25 -891 
Q 272 -891 498 -691 
Q 725 -491 944 -109 
L 1028 38 
L 350 3381 
L 922 3381 
L 1272 1513 
Q 1319 1263 1359 980 
Q 1400 697 1403 613 
Q 1434 681 1484 781 
Q 1534 881 2900 3381 
L 3522 3381 
L 1566 0 
Q 1219 -603 1008 -845 
Q 797 -1088 567 -1208 
Q 338 -1328 50 -1328 
z
" transform="scale(0.015625)"/>
     </defs>
     <use xlink:href="#LiberationSans-Italic-61"/>
     <use xlink:href="#LiberationSans-Italic-63" transform="translate(55.615234 0)"/>
     <use xlink:href="#LiberationSans-Italic-72" transform="translate(105.615234 0)"/>
     <use xlink:href="#LiberationSans-Italic-6f" transform="translate(138.916016 0)"/>
     <use xlink:href="#LiberationSans-Italic-73" transform="translate(194.53125 0)"/>
     <use xlink:href="#LiberationSans-Italic-73" transform="translate(244.53125 0)"/>
     <use xlink:href="#LiberationSans-Italic-20" transform="translate(294.53125 0)"/>
     <use xlink:href="#LiberationSans-Italic-73" transform="translate(322.314453 0)"/>
     <use xlink:href="#LiberationSans-Italic-75" transform="translate(372.314453 0)"/>
     <use xlink:href="#LiberationSans-Italic-62" transform="translate(427.929688 0)"/>
     <use xlink:href="#LiberationSans-Italic-73" transform="translate(483.544922 0)"/>
     <use xlink:href="#LiberationSans-Italic-79" transform="translate(533.544922 0)"/>
     <use xlink:href="#LiberationSans-Italic-73" transform="translate(583.544922 0)"/>
     <use xlink:href="#LiberationSans-Italic-74" transform="translate(633.544922 0)"/>
     <use xlink:href="#LiberationSans-Italic-65" transform="translate(661.328125 0)"/>
     <use xlink:href="#LiberationSans-Italic-6d" transform="translate(716.943359 0)"/>
     <use xlink:href="#LiberationSans-Italic-73" transform="translate(800.244141 0)"/>
    </g>
   </g>
   <g id="text_28">
    <!-- 8 hours -->
    <g style="fill: #262626" transform="translate(10.585687 82.355251) scale(0.1 -0.1)">
     <defs>
      <path id="LiberationSans-Bold-38" d="M 3363 1241 
Q 3363 622 2953 279 
Q 2544 -63 1784 -63 
Q 1031 -63 617 278 
Q 203 619 203 1234 
Q 203 1656 447 1945 
Q 691 2234 1100 2303 
L 1100 2316 
Q 744 2394 525 2669 
Q 306 2944 306 3303 
Q 306 3844 689 4156 
Q 1072 4469 1772 4469 
Q 2488 4469 2870 4164 
Q 3253 3859 3253 3297 
Q 3253 2938 3036 2666 
Q 2819 2394 2453 2322 
L 2453 2309 
Q 2878 2241 3120 1961 
Q 3363 1681 3363 1241 
z
M 2350 3250 
Q 2350 3563 2206 3708 
Q 2063 3853 1772 3853 
Q 1203 3853 1203 3250 
Q 1203 2619 1778 2619 
Q 2066 2619 2208 2766 
Q 2350 2913 2350 3250 
z
M 2453 1313 
Q 2453 2003 1766 2003 
Q 1447 2003 1276 1822 
Q 1106 1641 1106 1300 
Q 1106 913 1275 734 
Q 1444 556 1791 556 
Q 2131 556 2292 734 
Q 2453 913 2453 1313 
z
" transform="scale(0.015625)"/>
     </defs>
     <use xlink:href="#LiberationSans-Bold-38"/>
     <use xlink:href="#LiberationSans-Bold-20" transform="translate(55.615234 0)"/>
     <use xlink:href="#LiberationSans-Bold-68" transform="translate(83.398438 0)"/>
     <use xlink:href="#LiberationSans-Bold-6f" transform="translate(144.482422 0)"/>
     <use xlink:href="#LiberationSans-Bold-75" transform="translate(205.566406 0)"/>
     <use xlink:href="#LiberationSans-Bold-72" transform="translate(266.650391 0)"/>
     <use xlink:href="#LiberationSans-Bold-73" transform="translate(305.566406 0)"/>
    </g>
   </g>
   <g id="text_29">
    <!-- 5% -->
    <g style="fill: #ffffff" transform="translate(80.87831 82.355251) scale(0.1 -0.1)">
     <use xlink:href="#LiberationSans-Bold-35"/>
     <use xlink:href="#LiberationSans-Bold-25" transform="translate(55.615234 0)"/>
    </g>
   </g>
   <g id="text_30">
    <!-- Full day development: -->
    <g style="fill: #262626" transform="translate(605.947731 77.249595) scale(0.09 -0.09)">
     <defs>
      <path id="LiberationSans-Italic-76" d="M 1584 0 
L 919 0 
L 350 3381 
L 934 3381 
L 1250 1181 
Q 1278 969 1309 606 
L 1322 441 
L 1403 606 
Q 1544 900 1694 1175 
L 2894 3381 
L 3506 3381 
L 1584 0 
z
" transform="scale(0.015625)"/>
     </defs>
     <use xlink:href="#LiberationSans-Italic-46"/>
     <use xlink:href="#LiberationSans-Italic-75" transform="translate(61.083984 0)"/>
     <use xlink:href="#LiberationSans-Italic-6c" transform="translate(116.699219 0)"/>
     <use xlink:href="#LiberationSans-Italic-6c" transform="translate(138.916016 0)"/>
     <use xlink:href="#LiberationSans-Italic-20" transform="translate(161.132812 0)"/>
     <use xlink:href="#LiberationSans-Italic-64" transform="translate(188.916016 0)"/>
     <use xlink:href="#LiberationSans-Italic-61" transform="translate(244.53125 0)"/>
     <use xlink:href="#LiberationSans-Italic-79" transform="translate(300.146484 0)"/>
     <use xlink:href="#LiberationSans-Italic-20" transform="translate(350.146484 0)"/>
     <use xlink:href="#LiberationSans-Italic-64" transform="translate(377.929688 0)"/>
     <use xlink:href="#LiberationSans-Italic-65" transform="translate(433.544922 0)"/>
     <use xlink:href="#LiberationSans-Italic-76" transform="translate(489.160156 0)"/>
     <use xlink:href="#LiberationSans-Italic-65" transform="translate(539.160156 0)"/>
     <use xlink:href="#LiberationSans-Italic-6c" transform="translate(594.775391 0)"/>
     <use xlink:href="#LiberationSans-Italic-6f" transform="translate(616.992188 0)"/>
     <use xlink:href="#LiberationSans-Italic-70" transform="translate(672.607422 0)"/>
     <use xlink:href="#LiberationSans-Italic-6d" transform="translate(728.222656 0)"/>
     <use xlink:href="#LiberationSans-Italic-65" transform="translate(811.523438 0)"/>
     <use xlink:href="#LiberationSans-Italic-6e" transform="translate(867.138672 0)"/>
     <use xlink:href="#LiberationSans-Italic-74" transform="translate(922.753906 0)"/>
     <use xlink:href="#LiberationSans-Italic-3a" transform="translate(950.537109 0)"/>
    </g>
    <!-- design + implement -->
    <g style="fill: #262626" transform="translate(605.947731 86.94372) scale(0.09 -0.09)">
     <use xlink:href="#LiberationSans-Italic-64"/>
     <use xlink:href="#LiberationSans-Italic-65" transform="translate(55.615234 0)"/>
     <use xlink:href="#LiberationSans-Italic-73" transform="translate(111.230469 0)"/>
     <use xlink:href="#LiberationSans-Italic-69" transform="translate(161.230469 0)"/>
     <use xlink:href="#LiberationSans-Italic-67" transform="translate(183.447266 0)"/>
     <use xlink:href="#LiberationSans-Italic-6e" transform="translate(239.0625 0)"/>
     <use xlink:href="#LiberationSans-Italic-20" transform="translate(294.677734 0)"/>
     <use xlink:href="#LiberationSans-Italic-2b" transform="translate(322.460938 0)"/>
     <use xlink:href="#LiberationSans-Italic-20" transform="translate(380.859375 0)"/>
     <use xlink:href="#LiberationSans-Italic-69" transform="translate(408.642578 0)"/>
     <use xlink:href="#LiberationSans-Italic-6d" transform="translate(430.859375 0)"/>
     <use xlink:href="#LiberationSans-Italic-70" transform="translate(514.160156 0)"/>
     <use xlink:href="#LiberationSans-Italic-6c" transform="translate(569.775391 0)"/>
     <use xlink:href="#LiberationSans-Italic-65" transform="translate(591.992188 0)"/>
     <use xlink:href="#LiberationSans-Italic-6d" transform="translate(647.607422 0)"/>
     <use xlink:href="#LiberationSans-Italic-65" transform="translate(730.908203 0)"/>
     <use xlink:href="#LiberationSans-Italic-6e" transform="translate(786.523438 0)"/>
     <use xlink:href="#LiberationSans-Italic-74" transform="translate(842.138672 0)"/>
    </g>
   </g>
   <g id="text_31">
    <g id="patch_14">
     <path d="M 251.814865 51.646793 
L 338.482052 51.646793 
Q 342.482052 51.646793 342.482052 47.646793 
L 342.482052 38.324918 
Q 342.482052 34.324918 338.482052 34.324918 
L 251.814865 34.324918 
Q 247.814865 34.324918 247.814865 38.324918 
L 247.814865 47.646793 
Q 247.814865 51.646793 251.814865 51.646793 
z
" style="fill: #ffff00; opacity: 0.7; stroke: #000000; stroke-linejoin: miter"/>
    </g>
    <!-- Current frontier  -->
    <g style="fill: #ff0000" transform="translate(251.814865 45.571793) scale(0.1 -0.1)">
     <defs>
      <path id="LiberationSans-Bold-43" d="M 2484 663 
Q 3319 663 3644 1500 
L 4447 1197 
Q 4188 559 3686 248 
Q 3184 -63 2484 -63 
Q 1422 -63 842 539 
Q 263 1141 263 2222 
Q 263 3306 822 3887 
Q 1381 4469 2444 4469 
Q 3219 4469 3706 4158 
Q 4194 3847 4391 3244 
L 3578 3022 
Q 3475 3353 3173 3548 
Q 2872 3744 2463 3744 
Q 1838 3744 1514 3356 
Q 1191 2969 1191 2222 
Q 1191 1463 1523 1063 
Q 1856 663 2484 663 
z
" transform="scale(0.015625)"/>
      <path id="LiberationSans-Bold-66" d="M 1478 2788 
L 1478 0 
L 603 0 
L 603 2788 
L 109 2788 
L 109 3381 
L 603 3381 
L 603 3734 
Q 603 4194 847 4416 
Q 1091 4638 1588 4638 
Q 1834 4638 2144 4588 
L 2144 4022 
Q 2016 4050 1888 4050 
Q 1663 4050 1570 3961 
Q 1478 3872 1478 3647 
L 1478 3381 
L 2144 3381 
L 2144 2788 
L 1478 2788 
z
" transform="scale(0.015625)"/>
      <path id="LiberationSans-Bold-2192" d="M 4397 1197 
Q 4219 1406 4025 1813 
L 4250 1813 
Q 4647 1347 5094 1119 
L 5094 1006 
Q 4647 778 4250 313 
L 4025 313 
Q 4219 719 4397 928 
L 1306 928 
L 1306 1197 
L 4397 1197 
z
" transform="scale(0.015625)"/>
     </defs>
     <use xlink:href="#LiberationSans-Bold-43"/>
     <use xlink:href="#LiberationSans-Bold-75" transform="translate(72.216797 0)"/>
     <use xlink:href="#LiberationSans-Bold-72" transform="translate(133.300781 0)"/>
     <use xlink:href="#LiberationSans-Bold-72" transform="translate(172.216797 0)"/>
     <use xlink:href="#LiberationSans-Bold-65" transform="translate(211.132812 0)"/>
     <use xlink:href="#LiberationSans-Bold-6e" transform="translate(266.748047 0)"/>
     <use xlink:href="#LiberationSans-Bold-74" transform="translate(327.832031 0)"/>
     <use xlink:href="#LiberationSans-Bold-20" transform="translate(361.132812 0)"/>
     <use xlink:href="#LiberationSans-Bold-66" transform="translate(388.916016 0)"/>
     <use xlink:href="#LiberationSans-Bold-72" transform="translate(422.216797 0)"/>
     <use xlink:href="#LiberationSans-Bold-6f" transform="translate(461.132812 0)"/>
     <use xlink:href="#LiberationSans-Bold-6e" transform="translate(522.216797 0)"/>
     <use xlink:href="#LiberationSans-Bold-74" transform="translate(583.300781 0)"/>
     <use xlink:href="#LiberationSans-Bold-69" transform="translate(616.601562 0)"/>
     <use xlink:href="#LiberationSans-Bold-65" transform="translate(644.384766 0)"/>
     <use xlink:href="#LiberationSans-Bold-72" transform="translate(700 0)"/>
     <use xlink:href="#LiberationSans-Bold-20" transform="translate(738.916016 0)"/>
     <use xlink:href="#LiberationSans-Bold-2192" transform="translate(766.699219 0)"/>
    </g>
   </g>
   <g id="text_32">
    <!-- Agent Capabilities by Task Horizon -->
    <g style="fill: #262626" transform="translate(242.413568 16.620937) scale(0.13 -0.13)">
     <defs>
      <path id="LiberationSans-Bold-41" d="M 3541 0 
L 3150 1125 
L 1472 1125 
L 1081 0 
L 159 0 
L 1766 4403 
L 2853 4403 
L 4453 0 
L 3541 0 
z
M 2309 3725 
L 2291 3656 
Q 2259 3544 2215 3400 
Q 2172 3256 1678 1819 
L 2944 1819 
L 2509 3084 
L 2375 3509 
L 2309 3725 
z
" transform="scale(0.015625)"/>
      <path id="LiberationSans-Bold-67" d="M 1863 -1356 
Q 1244 -1356 867 -1120 
Q 491 -884 403 -447 
L 1281 -344 
Q 1328 -547 1483 -662 
Q 1638 -778 1888 -778 
Q 2253 -778 2422 -553 
Q 2591 -328 2591 116 
L 2591 294 
L 2597 628 
L 2591 628 
Q 2300 6 1503 6 
Q 913 6 588 450 
Q 263 894 263 1719 
Q 263 2547 597 2997 
Q 931 3447 1569 3447 
Q 2306 3447 2591 2838 
L 2606 2838 
Q 2606 2947 2620 3134 
Q 2634 3322 2650 3381 
L 3481 3381 
Q 3463 3044 3463 2600 
L 3463 103 
Q 3463 -619 3053 -987 
Q 2644 -1356 1863 -1356 
z
M 2597 1738 
Q 2597 2259 2411 2551 
Q 2225 2844 1881 2844 
Q 1178 2844 1178 1719 
Q 1178 616 1875 616 
Q 2225 616 2411 908 
Q 2597 1200 2597 1738 
z
" transform="scale(0.015625)"/>
      <path id="LiberationSans-Bold-62" d="M 3647 1703 
Q 3647 866 3311 401 
Q 2975 -63 2350 -63 
Q 1991 -63 1728 93 
Q 1466 250 1325 544 
L 1319 544 
Q 1319 434 1305 243 
Q 1291 53 1275 0 
L 422 0 
Q 447 291 447 772 
L 447 4638 
L 1325 4638 
L 1325 3344 
L 1313 2794 
L 1325 2794 
Q 1622 3444 2406 3444 
Q 3006 3444 3326 2989 
Q 3647 2534 3647 1703 
z
M 2731 1703 
Q 2731 2278 2562 2556 
Q 2394 2834 2041 2834 
Q 1684 2834 1498 2536 
Q 1313 2238 1313 1675 
Q 1313 1138 1495 838 
Q 1678 538 2034 538 
Q 2731 538 2731 1703 
z
" transform="scale(0.015625)"/>
      <path id="LiberationSans-Bold-6c" d="M 447 0 
L 447 4638 
L 1325 4638 
L 1325 0 
L 447 0 
z
" transform="scale(0.015625)"/>
      <path id="LiberationSans-Bold-79" d="M 884 -1328 
Q 569 -1328 331 -1288 
L 331 -663 
Q 497 -688 634 -688 
Q 822 -688 945 -628 
Q 1069 -569 1167 -431 
Q 1266 -294 1388 34 
L 50 3381 
L 978 3381 
L 1509 1797 
Q 1634 1456 1825 753 
L 1903 1050 
L 2106 1784 
L 2606 3381 
L 3525 3381 
L 2188 -178 
Q 1919 -828 1630 -1078 
Q 1341 -1328 884 -1328 
z
" transform="scale(0.015625)"/>
      <path id="LiberationSans-Bold-48" d="M 3269 0 
L 3269 1888 
L 1350 1888 
L 1350 0 
L 428 0 
L 428 4403 
L 1350 4403 
L 1350 2650 
L 3269 2650 
L 3269 4403 
L 4191 4403 
L 4191 0 
L 3269 0 
z
" transform="scale(0.015625)"/>
      <path id="LiberationSans-Bold-7a" d="M 256 0 
L 256 622 
L 1847 2747 
L 384 2747 
L 384 3381 
L 2816 3381 
L 2816 2753 
L 1234 641 
L 2969 641 
L 2969 0 
L 256 0 
z
" transform="scale(0.015625)"/>
     </defs>
     <use xlink:href="#LiberationSans-Bold-41"/>
     <use xlink:href="#LiberationSans-Bold-67" transform="translate(72.216797 0)"/>
     <use xlink:href="#LiberationSans-Bold-65" transform="translate(133.300781 0)"/>
     <use xlink:href="#LiberationSans-Bold-6e" transform="translate(188.916016 0)"/>
     <use xlink:href="#LiberationSans-Bold-74" transform="translate(250 0)"/>
     <use xlink:href="#LiberationSans-Bold-20" transform="translate(283.300781 0)"/>
     <use xlink:href="#LiberationSans-Bold-43" transform="translate(311.083984 0)"/>
     <use xlink:href="#LiberationSans-Bold-61" transform="translate(383.300781 0)"/>
     <use xlink:href="#LiberationSans-Bold-70" transform="translate(438.916016 0)"/>
     <use xlink:href="#LiberationSans-Bold-61" transform="translate(500 0)"/>
     <use xlink:href="#LiberationSans-Bold-62" transform="translate(555.615234 0)"/>
     <use xlink:href="#LiberationSans-Bold-69" transform="translate(616.699219 0)"/>
     <use xlink:href="#LiberationSans-Bold-6c" transform="translate(644.482422 0)"/>
     <use xlink:href="#LiberationSans-Bold-69" transform="translate(672.265625 0)"/>
     <use xlink:href="#LiberationSans-Bold-74" transform="translate(700.048828 0)"/>
     <use xlink:href="#LiberationSans-Bold-69" transform="translate(733.349609 0)"/>
     <use xlink:href="#LiberationSans-Bold-65" transform="translate(761.132812 0)"/>
     <use xlink:href="#LiberationSans-Bold-73" transform="translate(816.748047 0)"/>
     <use xlink:href="#LiberationSans-Bold-20" transform="translate(872.363281 0)"/>
     <use xlink:href="#LiberationSans-Bold-62" transform="translate(900.146484 0)"/>
     <use xlink:href="#LiberationSans-Bold-79" transform="translate(961.230469 0)"/>
     <use xlink:href="#LiberationSans-Bold-20" transform="translate(1016.845703 0)"/>
     <use xlink:href="#LiberationSans-Bold-54" transform="translate(1044.628906 0)"/>
     <use xlink:href="#LiberationSans-Bold-61" transform="translate(1098.337891 0)"/>
     <use xlink:href="#LiberationSans-Bold-73" transform="translate(1153.953125 0)"/>
     <use xlink:href="#LiberationSans-Bold-6b" transform="translate(1209.568359 0)"/>
     <use xlink:href="#LiberationSans-Bold-20" transform="translate(1265.183594 0)"/>
     <use xlink:href="#LiberationSans-Bold-48" transform="translate(1292.966797 0)"/>
     <use xlink:href="#LiberationSans-Bold-6f" transform="translate(1365.183594 0)"/>
     <use xlink:href="#LiberationSans-Bold-72" transform="translate(1426.267578 0)"/>
     <use xlink:href="#LiberationSans-Bold-69" transform="translate(1465.183594 0)"/>
     <use xlink:href="#LiberationSans-Bold-7a" transform="translate(1492.966797 0)"/>
     <use xlink:href="#LiberationSans-Bold-6f" transform="translate(1542.966797 0)"/>
     <use xlink:href="#LiberationSans-Bold-6e" transform="translate(1604.050781 0)"/>
    </g>
    <!-- (Current Frontier: ~1 hour at 50% success) -->
    <g style="fill: #262626" transform="translate(218.987161 30.680437) scale(0.13 -0.13)">
     <defs>
      <path id="LiberationSans-Bold-46" d="M 1350 3691 
L 1350 2328 
L 3603 2328 
L 3603 1616 
L 1350 1616 
L 1350 0 
L 428 0 
L 428 4403 
L 3675 4403 
L 3675 3691 
L 1350 3691 
z
" transform="scale(0.015625)"/>
      <path id="LiberationSans-Bold-3a" d="M 616 2350 
L 616 3231 
L 1516 3231 
L 1516 2350 
L 616 2350 
z
M 616 0 
L 616 878 
L 1516 878 
L 1516 0 
L 616 0 
z
" transform="scale(0.015625)"/>
      <path id="LiberationSans-Bold-7e" d="M 2663 1613 
Q 2428 1613 2201 1678 
Q 1975 1744 1741 1825 
Q 1319 1972 1050 1972 
Q 828 1972 642 1905 
Q 456 1838 253 1697 
L 253 2363 
Q 606 2625 1100 2625 
Q 1428 2625 1856 2478 
Q 2269 2334 2425 2296 
Q 2581 2259 2722 2259 
Q 3141 2259 3497 2547 
L 3497 1863 
Q 3297 1725 3114 1669 
Q 2931 1613 2663 1613 
z
" transform="scale(0.015625)"/>
     </defs>
     <use xlink:href="#LiberationSans-Bold-28"/>
     <use xlink:href="#LiberationSans-Bold-43" transform="translate(33.300781 0)"/>
     <use xlink:href="#LiberationSans-Bold-75" transform="translate(105.517578 0)"/>
     <use xlink:href="#LiberationSans-Bold-72" transform="translate(166.601562 0)"/>
     <use xlink:href="#LiberationSans-Bold-72" transform="translate(205.517578 0)"/>
     <use xlink:href="#LiberationSans-Bold-65" transform="translate(244.433594 0)"/>
     <use xlink:href="#LiberationSans-Bold-6e" transform="translate(300.048828 0)"/>
     <use xlink:href="#LiberationSans-Bold-74" transform="translate(361.132812 0)"/>
     <use xlink:href="#LiberationSans-Bold-20" transform="translate(394.433594 0)"/>
     <use xlink:href="#LiberationSans-Bold-46" transform="translate(422.216797 0)"/>
     <use xlink:href="#LiberationSans-Bold-72" transform="translate(483.300781 0)"/>
     <use xlink:href="#LiberationSans-Bold-6f" transform="translate(522.216797 0)"/>
     <use xlink:href="#LiberationSans-Bold-6e" transform="translate(583.300781 0)"/>
     <use xlink:href="#LiberationSans-Bold-74" transform="translate(644.384766 0)"/>
     <use xlink:href="#LiberationSans-Bold-69" transform="translate(677.685547 0)"/>
     <use xlink:href="#LiberationSans-Bold-65" transform="translate(705.46875 0)"/>
     <use xlink:href="#LiberationSans-Bold-72" transform="translate(761.083984 0)"/>
     <use xlink:href="#LiberationSans-Bold-3a" transform="translate(800 0)"/>
     <use xlink:href="#LiberationSans-Bold-20" transform="translate(833.300781 0)"/>
     <use xlink:href="#LiberationSans-Bold-7e" transform="translate(861.083984 0)"/>
     <use xlink:href="#LiberationSans-Bold-31" transform="translate(919.482422 0)"/>
     <use xlink:href="#LiberationSans-Bold-20" transform="translate(975.097656 0)"/>
     <use xlink:href="#LiberationSans-Bold-68" transform="translate(1002.880859 0)"/>
     <use xlink:href="#LiberationSans-Bold-6f" transform="translate(1063.964844 0)"/>
     <use xlink:href="#LiberationSans-Bold-75" transform="translate(1125.048828 0)"/>
     <use xlink:href="#LiberationSans-Bold-72" transform="translate(1186.132812 0)"/>
     <use xlink:href="#LiberationSans-Bold-20" transform="translate(1225.048828 0)"/>
     <use xlink:href="#LiberationSans-Bold-61" transform="translate(1252.832031 0)"/>
     <use xlink:href="#LiberationSans-Bold-74" transform="translate(1308.447266 0)"/>
     <use xlink:href="#LiberationSans-Bold-20" transform="translate(1341.748047 0)"/>
     <use xlink:href="#LiberationSans-Bold-35" transform="translate(1369.53125 0)"/>
     <use xlink:href="#LiberationSans-Bold-30" transform="translate(1425.146484 0)"/>
     <use xlink:href="#LiberationSans-Bold-25" transform="translate(1480.761719 0)"/>
     <use xlink:href="#LiberationSans-Bold-20" transform="translate(1569.677734 0)"/>
     <use xlink:href="#LiberationSans-Bold-73" transform="translate(1597.460938 0)"/>
     <use xlink:href="#LiberationSans-Bold-75" transform="translate(1653.076172 0)"/>
     <use xlink:href="#LiberationSans-Bold-63" transform="translate(1714.160156 0)"/>
     <use xlink:href="#LiberationSans-Bold-63" transform="translate(1769.775391 0)"/>
     <use xlink:href="#LiberationSans-Bold-65" transform="translate(1825.390625 0)"/>
     <use xlink:href="#LiberationSans-Bold-73" transform="translate(1881.005859 0)"/>
     <use xlink:href="#LiberationSans-Bold-73" transform="translate(1936.621094 0)"/>
     <use xlink:href="#LiberationSans-Bold-29" transform="translate(1992.236328 0)"/>
    </g>
   </g>
   <g id="legend_1">
    <g id="line2d_16">
     <path d="M 539.066354 518.653437 
L 549.066354 518.653437 
L 559.066354 518.653437 
" style="fill: none; stroke-dasharray: 7.4,3.2; stroke-dashoffset: 0; stroke: #ff0000; stroke-width: 2"/>
    </g>
    <g id="text_33">
     <!-- 50% success threshold -->
     <g style="fill: #262626" transform="translate(567.066354 522.153437) scale(0.1 -0.1)">
      <defs>
       <path id="LiberationSans-35" d="M 3291 1434 
Q 3291 738 2877 337 
Q 2463 -63 1728 -63 
Q 1113 -63 734 206 
Q 356 475 256 984 
L 825 1050 
Q 1003 397 1741 397 
Q 2194 397 2450 670 
Q 2706 944 2706 1422 
Q 2706 1838 2448 2094 
Q 2191 2350 1753 2350 
Q 1525 2350 1328 2278 
Q 1131 2206 934 2034 
L 384 2034 
L 531 4403 
L 3034 4403 
L 3034 3925 
L 1044 3925 
L 959 2528 
Q 1325 2809 1869 2809 
Q 2519 2809 2905 2428 
Q 3291 2047 3291 1434 
z
" transform="scale(0.015625)"/>
       <path id="LiberationSans-25" d="M 5463 1356 
Q 5463 684 5209 323 
Q 4956 -38 4463 -38 
Q 3975 -38 3726 314 
Q 3478 666 3478 1356 
Q 3478 2069 3717 2417 
Q 3956 2766 4475 2766 
Q 4988 2766 5225 2408 
Q 5463 2050 5463 1356 
z
M 1647 0 
L 1163 0 
L 4044 4403 
L 4534 4403 
L 1647 0 
z
M 1231 4441 
Q 1728 4441 1968 4091 
Q 2209 3741 2209 3047 
Q 2209 2369 1961 2003 
Q 1713 1638 1219 1638 
Q 725 1638 476 2000 
Q 228 2363 228 3047 
Q 228 3744 468 4092 
Q 709 4441 1231 4441 
z
M 5000 1356 
Q 5000 1916 4879 2167 
Q 4759 2419 4475 2419 
Q 4191 2419 4064 2172 
Q 3938 1925 3938 1356 
Q 3938 822 4061 564 
Q 4184 306 4469 306 
Q 4744 306 4872 567 
Q 5000 828 5000 1356 
z
M 1750 3047 
Q 1750 3597 1631 3850 
Q 1513 4103 1231 4103 
Q 938 4103 813 3854 
Q 688 3606 688 3047 
Q 688 2506 813 2248 
Q 938 1991 1225 1991 
Q 1497 1991 1623 2253 
Q 1750 2516 1750 3047 
z
" transform="scale(0.015625)"/>
       <path id="LiberationSans-20" transform="scale(0.015625)"/>
       <path id="LiberationSans-73" d="M 2969 934 
Q 2969 456 2608 196 
Q 2247 -63 1597 -63 
Q 966 -63 623 145 
Q 281 353 178 794 
L 675 891 
Q 747 619 972 492 
Q 1197 366 1597 366 
Q 2025 366 2223 497 
Q 2422 628 2422 891 
Q 2422 1091 2284 1216 
Q 2147 1341 1841 1422 
L 1438 1528 
Q 953 1653 748 1773 
Q 544 1894 428 2066 
Q 313 2238 313 2488 
Q 313 2950 642 3192 
Q 972 3434 1603 3434 
Q 2163 3434 2492 3237 
Q 2822 3041 2909 2606 
L 2403 2544 
Q 2356 2769 2151 2889 
Q 1947 3009 1603 3009 
Q 1222 3009 1040 2893 
Q 859 2778 859 2544 
Q 859 2400 934 2306 
Q 1009 2213 1156 2147 
Q 1303 2081 1775 1966 
Q 2222 1853 2419 1758 
Q 2616 1663 2730 1547 
Q 2844 1431 2906 1279 
Q 2969 1128 2969 934 
z
" transform="scale(0.015625)"/>
       <path id="LiberationSans-75" d="M 981 3381 
L 981 1238 
Q 981 903 1047 718 
Q 1113 534 1256 453 
Q 1400 372 1678 372 
Q 2084 372 2318 650 
Q 2553 928 2553 1422 
L 2553 3381 
L 3116 3381 
L 3116 722 
Q 3116 131 3134 0 
L 2603 0 
Q 2600 16 2597 84 
Q 2594 153 2589 242 
Q 2584 331 2578 578 
L 2569 578 
Q 2375 228 2120 82 
Q 1866 -63 1488 -63 
Q 931 -63 673 214 
Q 416 491 416 1128 
L 416 3381 
L 981 3381 
z
" transform="scale(0.015625)"/>
       <path id="LiberationSans-63" d="M 859 1706 
Q 859 1031 1071 706 
Q 1284 381 1713 381 
Q 2013 381 2214 543 
Q 2416 706 2463 1044 
L 3031 1006 
Q 2966 519 2616 228 
Q 2266 -63 1728 -63 
Q 1019 -63 645 385 
Q 272 834 272 1694 
Q 272 2547 647 2995 
Q 1022 3444 1722 3444 
Q 2241 3444 2583 3175 
Q 2925 2906 3013 2434 
L 2434 2391 
Q 2391 2672 2212 2837 
Q 2034 3003 1706 3003 
Q 1259 3003 1059 2706 
Q 859 2409 859 1706 
z
" transform="scale(0.015625)"/>
       <path id="LiberationSans-65" d="M 863 1572 
Q 863 991 1103 675 
Q 1344 359 1806 359 
Q 2172 359 2392 506 
Q 2613 653 2691 878 
L 3184 738 
Q 2881 -63 1806 -63 
Q 1056 -63 664 384 
Q 272 831 272 1713 
Q 272 2550 664 2997 
Q 1056 3444 1784 3444 
Q 3275 3444 3275 1647 
L 3275 1572 
L 863 1572 
z
M 2694 2003 
Q 2647 2538 2422 2783 
Q 2197 3028 1775 3028 
Q 1366 3028 1127 2754 
Q 888 2481 869 2003 
L 2694 2003 
z
" transform="scale(0.015625)"/>
       <path id="LiberationSans-74" d="M 1731 25 
Q 1453 -50 1163 -50 
Q 488 -50 488 716 
L 488 2972 
L 97 2972 
L 97 3381 
L 509 3381 
L 675 4138 
L 1050 4138 
L 1050 3381 
L 1675 3381 
L 1675 2972 
L 1050 2972 
L 1050 838 
Q 1050 594 1129 495 
Q 1209 397 1406 397 
Q 1519 397 1731 441 
L 1731 25 
z
" transform="scale(0.015625)"/>
       <path id="LiberationSans-68" d="M 991 2803 
Q 1172 3134 1426 3289 
Q 1681 3444 2072 3444 
Q 2622 3444 2883 3170 
Q 3144 2897 3144 2253 
L 3144 0 
L 2578 0 
L 2578 2144 
Q 2578 2500 2512 2673 
Q 2447 2847 2297 2928 
Q 2147 3009 1881 3009 
Q 1484 3009 1245 2734 
Q 1006 2459 1006 1994 
L 1006 0 
L 444 0 
L 444 4638 
L 1006 4638 
L 1006 3431 
Q 1006 3241 995 3037 
Q 984 2834 981 2803 
L 991 2803 
z
" transform="scale(0.015625)"/>
       <path id="LiberationSans-72" d="M 444 0 
L 444 2594 
Q 444 2950 425 3381 
L 956 3381 
Q 981 2806 981 2691 
L 994 2691 
Q 1128 3125 1303 3284 
Q 1478 3444 1797 3444 
Q 1909 3444 2025 3413 
L 2025 2897 
Q 1913 2928 1725 2928 
Q 1375 2928 1190 2626 
Q 1006 2325 1006 1763 
L 1006 0 
L 444 0 
z
" transform="scale(0.015625)"/>
       <path id="LiberationSans-6f" d="M 3291 1694 
Q 3291 806 2900 371 
Q 2509 -63 1766 -63 
Q 1025 -63 647 389 
Q 269 841 269 1694 
Q 269 3444 1784 3444 
Q 2559 3444 2925 3017 
Q 3291 2591 3291 1694 
z
M 2700 1694 
Q 2700 2394 2492 2711 
Q 2284 3028 1794 3028 
Q 1300 3028 1079 2704 
Q 859 2381 859 1694 
Q 859 1025 1076 689 
Q 1294 353 1759 353 
Q 2266 353 2483 678 
Q 2700 1003 2700 1694 
z
" transform="scale(0.015625)"/>
       <path id="LiberationSans-6c" d="M 431 0 
L 431 4638 
L 994 4638 
L 994 0 
L 431 0 
z
" transform="scale(0.015625)"/>
       <path id="LiberationSans-64" d="M 2566 544 
Q 2409 219 2151 78 
Q 1894 -63 1513 -63 
Q 872 -63 570 368 
Q 269 800 269 1675 
Q 269 3444 1513 3444 
Q 1897 3444 2153 3303 
Q 2409 3163 2566 2856 
L 2572 2856 
L 2566 3234 
L 2566 4638 
L 3128 4638 
L 3128 697 
Q 3128 169 3147 0 
L 2609 0 
Q 2600 50 2589 231 
Q 2578 413 2578 544 
L 2566 544 
z
M 859 1694 
Q 859 984 1046 678 
Q 1234 372 1656 372 
Q 2134 372 2350 703 
Q 2566 1034 2566 1731 
Q 2566 2403 2350 2715 
Q 2134 3028 1663 3028 
Q 1238 3028 1048 2714 
Q 859 2400 859 1694 
z
" transform="scale(0.015625)"/>
      </defs>
      <use xlink:href="#LiberationSans-35"/>
      <use xlink:href="#LiberationSans-30" transform="translate(55.615234 0)"/>
      <use xlink:href="#LiberationSans-25" transform="translate(111.230469 0)"/>
      <use xlink:href="#LiberationSans-20" transform="translate(200.146484 0)"/>
      <use xlink:href="#LiberationSans-73" transform="translate(227.929688 0)"/>
      <use xlink:href="#LiberationSans-75" transform="translate(277.929688 0)"/>
      <use xlink:href="#LiberationSans-63" transform="translate(333.544922 0)"/>
      <use xlink:href="#LiberationSans-63" transform="translate(383.544922 0)"/>
      <use xlink:href="#LiberationSans-65" transform="translate(433.544922 0)"/>
      <use xlink:href="#LiberationSans-73" transform="translate(489.160156 0)"/>
      <use xlink:href="#LiberationSans-73" transform="translate(539.160156 0)"/>
      <use xlink:href="#LiberationSans-20" transform="translate(589.160156 0)"/>
      <use xlink:href="#LiberationSans-74" transform="translate(616.943359 0)"/>
      <use xlink:href="#LiberationSans-68" transform="translate(644.726562 0)"/>
      <use xlink:href="#LiberationSans-72" transform="translate(700.341797 0)"/>
      <use xlink:href="#LiberationSans-65" transform="translate(733.642578 0)"/>
      <use xlink:href="#LiberationSans-73" transform="translate(789.257812 0)"/>
      <use xlink:href="#LiberationSans-68" transform="translate(839.257812 0)"/>
      <use xlink:href="#LiberationSans-6f" transform="translate(894.873047 0)"/>
      <use xlink:href="#LiberationSans-6c" transform="translate(950.488281 0)"/>
      <use xlink:href="#LiberationSans-64" transform="translate(972.705078 0)"/>
     </g>
    </g>
   </g>
  </g>
 </g>
 <defs>
  <clipPath id="p5fc9b5cd30">
   <rect x="22.38625" y="36.680437" width="656.506667" height="496.548"/>
  </clipPath>
 </defs>
</svg>
