<?xml version="1.0" encoding="UTF-8" standalone="no"?>
<!DOCTYPE svg PUBLIC "-//W3C//DTD SVG 1.1//EN"
 "http://www.w3.org/Graphics/SVG/1.1/DTD/svg11.dtd">
<!-- Generated by graphviz version 2.43.0 (0)
 -->
<!-- Title: ActorDecisionFlow Pages: 1 -->
<svg width="1013pt" height="1016pt"
 viewBox="0.00 0.00 1013.00 1016.00" xmlns="http://www.w3.org/2000/svg" xmlns:xlink="http://www.w3.org/1999/xlink">
<g id="graph0" class="graph" transform="scale(1 1) rotate(0) translate(4 1012)">
<title>ActorDecisionFlow</title>
<polygon fill="white" stroke="transparent" points="-4,4 -4,-1012 1009,-1012 1009,4 -4,4"/>
<text text-anchor="middle" x="502.5" y="-34.4" font-family="Times,serif" font-size="12.00">Actor Decision&#45;Making Flow</text>
<text text-anchor="middle" x="502.5" y="-7.4" font-family="Times,serif" font-size="12.00">Each actor observes state, applies strategy, chooses action constrained by governance</text>
<g id="clust1" class="cluster">
<title>cluster_actors</title>
<polygon fill="lightgray" stroke="lightgray" points="8,-84 8,-191 997,-191 997,-84 8,-84"/>
<text text-anchor="middle" x="502.5" y="-175.8" font-family="Times,serif" font-size="14.00">Three Actor Types</text>
</g>
<g id="clust2" class="cluster">
<title>cluster_fe_decision</title>
<polygon fill="lightyellow" stroke="lightyellow" points="363,-524 363,-1000 879,-1000 879,-524 363,-524"/>
<text text-anchor="middle" x="621" y="-984.8" font-family="Times,serif" font-size="14.00">FeatureEngineer Decision Process</text>
</g>
<g id="clust3" class="cluster">
<title>cluster_re_decision</title>
<polygon fill="lightcyan" stroke="lightcyan" points="13,-525 13,-906 355,-906 355,-525 13,-525"/>
<text text-anchor="middle" x="184" y="-890.8" font-family="Times,serif" font-size="14.00">RefactorEngineer Decision Process</text>
</g>
<!-- state -->
<g id="node1" class="node">
<title>state</title>
<polygon fill="lightblue" stroke="black" points="624,-301 310,-301 310,-218 624,-218 624,-301"/>
<text text-anchor="middle" x="467" y="-285.8" font-family="Times,serif" font-size="14.00">Current System State</text>
<text text-anchor="middle" x="467" y="-270.8" font-family="Times,serif" font-size="14.00">• Graph G(t)</text>
<text text-anchor="middle" x="467" y="-255.8" font-family="Times,serif" font-size="14.00">• Fields: health, complexity, risk, demand</text>
<text text-anchor="middle" x="467" y="-240.8" font-family="Times,serif" font-size="14.00">• Energies: H, T, V</text>
<text text-anchor="middle" x="467" y="-225.8" font-family="Times,serif" font-size="14.00">• Flow field f: V → ℝ²</text>
</g>
<!-- fe -->
<g id="node2" class="node">
<title>fe</title>
<polygon fill="lightgreen" stroke="black" points="988.5,-160 675.5,-160 675.5,-92 988.5,-92 988.5,-160"/>
<text text-anchor="middle" x="832" y="-144.8" font-family="Times,serif" font-size="14.00">FeatureEngineer</text>
<text text-anchor="middle" x="832" y="-129.8" font-family="Times,serif" font-size="14.00">• Goal: Maximize delivered value</text>
<text text-anchor="middle" x="832" y="-114.8" font-family="Times,serif" font-size="14.00">• Strategy: Follow demand signal</text>
<text text-anchor="middle" x="832" y="-99.8" font-family="Times,serif" font-size="14.00">• Actions: FeatureChange, AddConstraint</text>
</g>
<!-- state&#45;&gt;fe -->
<g id="edge9" class="edge">
<title>state&#45;&gt;fe</title>
<path fill="none" stroke="black" d="M589.99,-217.95C615.52,-209.27 642.19,-199.99 667,-191 690.48,-182.49 715.69,-172.93 739.16,-163.84"/>
<polygon fill="black" stroke="black" points="740.7,-167 748.76,-160.12 738.17,-160.47 740.7,-167"/>
</g>
<!-- re -->
<g id="node3" class="node">
<title>re</title>
<polygon fill="lightcyan" stroke="black" points="258,-160 16,-160 16,-92 258,-92 258,-160"/>
<text text-anchor="middle" x="137" y="-144.8" font-family="Times,serif" font-size="14.00">RefactorEngineer</text>
<text text-anchor="middle" x="137" y="-129.8" font-family="Times,serif" font-size="14.00">• Goal: Minimize technical debt</text>
<text text-anchor="middle" x="137" y="-114.8" font-family="Times,serif" font-size="14.00">• Strategy: Follow gradient ∇V</text>
<text text-anchor="middle" x="137" y="-99.8" font-family="Times,serif" font-size="14.00">• Actions: Refactor, AddTest</text>
</g>
<!-- state&#45;&gt;re -->
<g id="edge10" class="edge">
<title>state&#45;&gt;re</title>
<path fill="none" stroke="black" d="M339.51,-217.95C315.55,-209.57 290.85,-200.41 268,-191 248.79,-183.09 228.44,-173.67 209.64,-164.53"/>
<polygon fill="black" stroke="black" points="211.07,-161.33 200.55,-160.07 207.99,-167.62 211.07,-161.33"/>
</g>
<!-- ai -->
<g id="node4" class="node">
<title>ai</title>
<polygon fill="lavender" stroke="black" points="657.5,-160 276.5,-160 276.5,-92 657.5,-92 657.5,-160"/>
<text text-anchor="middle" x="467" y="-144.8" font-family="Times,serif" font-size="14.00">AIAgent</text>
<text text-anchor="middle" x="467" y="-129.8" font-family="Times,serif" font-size="14.00">• Goal: Maximize velocity</text>
<text text-anchor="middle" x="467" y="-114.8" font-family="Times,serif" font-size="14.00">• Strategy: Mixed (80% features, 20% quality)</text>
<text text-anchor="middle" x="467" y="-99.8" font-family="Times,serif" font-size="14.00">• Actions: FeatureChange, Refactor, AddConstraint</text>
</g>
<!-- state&#45;&gt;ai -->
<g id="edge11" class="edge">
<title>state&#45;&gt;ai</title>
<path fill="none" stroke="black" d="M467,-217.97C467,-202.89 467,-185.72 467,-170.39"/>
<polygon fill="black" stroke="black" points="470.5,-170.12 467,-160.12 463.5,-170.12 470.5,-170.12"/>
</g>
<!-- fe_input -->
<g id="node5" class="node">
<title>fe_input</title>
<path fill="none" stroke="black" d="M856.5,-969C856.5,-969 599.5,-969 599.5,-969 593.5,-969 587.5,-963 587.5,-957 587.5,-957 587.5,-945 587.5,-945 587.5,-939 593.5,-933 599.5,-933 599.5,-933 856.5,-933 856.5,-933 862.5,-933 868.5,-939 868.5,-945 868.5,-945 868.5,-957 868.5,-957 868.5,-963 862.5,-969 856.5,-969"/>
<text text-anchor="middle" x="728" y="-947.3" font-family="Times,serif" font-size="14.00">1. Observe flow field f[i] for all nodes</text>
</g>
<!-- fe&#45;&gt;fe_input -->
<g id="edge12" class="edge">
<title>fe&#45;&gt;fe_input</title>
<path fill="none" stroke="black" d="M859.83,-160.09C878.24,-185.38 899,-221.99 899,-258.5 899,-858 899,-858 899,-858 899,-894.21 868.9,-916.23 833.96,-929.59"/>
<polygon fill="black" stroke="black" points="832.74,-926.31 824.49,-932.97 835.09,-932.9 832.74,-926.31"/>
</g>
<!-- re_input -->
<g id="node11" class="node">
<title>re_input</title>
<path fill="none" stroke="black" d="M335,-875C335,-875 33,-875 33,-875 27,-875 21,-869 21,-863 21,-863 21,-851 21,-851 21,-845 27,-839 33,-839 33,-839 335,-839 335,-839 341,-839 347,-845 347,-851 347,-851 347,-863 347,-863 347,-869 341,-875 335,-875"/>
<text text-anchor="middle" x="184" y="-853.3" font-family="Times,serif" font-size="14.00">1. Compute ∇V[i] = (L · bad)[i] for all nodes</text>
</g>
<!-- re&#45;&gt;re_input -->
<g id="edge13" class="edge">
<title>re&#45;&gt;re_input</title>
<path fill="none" stroke="black" d="M104.77,-160.26C84.06,-185.2 61,-221.32 61,-258.5 61,-784 61,-784 61,-784 61,-807.81 78.38,-823.9 100.08,-834.7"/>
<polygon fill="black" stroke="black" points="98.71,-837.92 109.26,-838.87 101.6,-831.55 98.71,-837.92"/>
</g>
<!-- fe_filter -->
<g id="node6" class="node">
<title>fe_filter</title>
<path fill="none" stroke="black" d="M833.5,-875C833.5,-875 612.5,-875 612.5,-875 606.5,-875 600.5,-869 600.5,-863 600.5,-863 600.5,-851 600.5,-851 600.5,-845 606.5,-839 612.5,-839 612.5,-839 833.5,-839 833.5,-839 839.5,-839 845.5,-845 845.5,-851 845.5,-851 845.5,-863 845.5,-863 845.5,-869 839.5,-875 833.5,-875"/>
<text text-anchor="middle" x="723" y="-853.3" font-family="Times,serif" font-size="14.00">2. Filter: demand[i] &gt; threshold</text>
</g>
<!-- fe_input&#45;&gt;fe_filter -->
<g id="edge1" class="edge">
<title>fe_input&#45;&gt;fe_filter</title>
<path fill="none" stroke="black" d="M727.06,-932.7C726.33,-919.33 725.31,-900.59 724.48,-885.22"/>
<polygon fill="black" stroke="black" points="727.97,-885.02 723.94,-875.23 720.98,-885.4 727.97,-885.02"/>
</g>
<!-- fe_rank -->
<g id="node7" class="node">
<title>fe_rank</title>
<path fill="none" stroke="black" d="M793.5,-802C793.5,-802 530.5,-802 530.5,-802 524.5,-802 518.5,-796 518.5,-790 518.5,-790 518.5,-776 518.5,-776 518.5,-770 524.5,-764 530.5,-764 530.5,-764 793.5,-764 793.5,-764 799.5,-764 805.5,-770 805.5,-776 805.5,-776 805.5,-790 805.5,-790 805.5,-796 799.5,-802 793.5,-802"/>
<text text-anchor="middle" x="662" y="-786.8" font-family="Times,serif" font-size="14.00">3. Rank by: demand[i] × (1 &#45; health[i])</text>
<text text-anchor="middle" x="662" y="-771.8" font-family="Times,serif" font-size="14.00">(high&#45;demand, low&#45;health = priority)</text>
</g>
<!-- fe_filter&#45;&gt;fe_rank -->
<g id="edge2" class="edge">
<title>fe_filter&#45;&gt;fe_rank</title>
<path fill="none" stroke="black" d="M708.54,-838.94C701.22,-830.3 692.18,-819.62 684.01,-809.98"/>
<polygon fill="black" stroke="black" points="686.55,-807.57 677.42,-802.2 681.21,-812.09 686.55,-807.57"/>
</g>
<!-- fe_gov -->
<g id="node8" class="node">
<title>fe_gov</title>
<polygon fill="mistyrose" stroke="black" points="621,-727 371,-674 621,-621 871,-674 621,-727"/>
<text text-anchor="middle" x="621" y="-685.3" font-family="Times,serif" font-size="14.00">4. Check governance constraints</text>
<text text-anchor="middle" x="621" y="-670.3" font-family="Times,serif" font-size="14.00">• Is health[i] &lt; floor?</text>
<text text-anchor="middle" x="621" y="-655.3" font-family="Times,serif" font-size="14.00">• Is E_local[neighbor] &gt; limit?</text>
</g>
<!-- fe_rank&#45;&gt;fe_gov -->
<g id="edge3" class="edge">
<title>fe_rank&#45;&gt;fe_gov</title>
<path fill="none" stroke="black" d="M655.04,-763.85C651.69,-755.09 647.46,-744.05 643.13,-732.75"/>
<polygon fill="black" stroke="black" points="646.33,-731.33 639.49,-723.24 639.8,-733.83 646.33,-731.33"/>
</g>
<!-- fe_blocked -->
<g id="node9" class="node">
<title>fe_blocked</title>
<polygon fill="salmon" stroke="black" points="562.5,-570 371.5,-570 371.5,-532 562.5,-532 562.5,-570"/>
<text text-anchor="middle" x="467" y="-554.8" font-family="Times,serif" font-size="14.00">Blocked:</text>
<text text-anchor="middle" x="467" y="-539.8" font-family="Times,serif" font-size="14.00">Choose Refactor instead</text>
</g>
<!-- fe_gov&#45;&gt;fe_blocked -->
<g id="edge4" class="edge">
<title>fe_gov&#45;&gt;fe_blocked</title>
<path fill="none" stroke="black" d="M568.86,-632.03C545.39,-613.6 518.48,-592.44 498.21,-576.52"/>
<polygon fill="black" stroke="black" points="500.26,-573.68 490.23,-570.25 495.93,-579.18 500.26,-573.68"/>
<text text-anchor="middle" x="559" y="-591.8" font-family="Times,serif" font-size="14.00">Violates</text>
</g>
<!-- fe_allowed -->
<g id="node10" class="node">
<title>fe_allowed</title>
<polygon fill="lightgreen" stroke="black" points="777.5,-570 580.5,-570 580.5,-532 777.5,-532 777.5,-570"/>
<text text-anchor="middle" x="679" y="-554.8" font-family="Times,serif" font-size="14.00">Allowed:</text>
<text text-anchor="middle" x="679" y="-539.8" font-family="Times,serif" font-size="14.00">Choose FeatureChange(i)</text>
</g>
<!-- fe_gov&#45;&gt;fe_allowed -->
<g id="edge5" class="edge">
<title>fe_gov&#45;&gt;fe_allowed</title>
<path fill="none" stroke="black" d="M643.76,-625.52C651.26,-609.86 659.36,-592.98 665.89,-579.34"/>
<polygon fill="black" stroke="black" points="669.18,-580.58 670.35,-570.05 662.87,-577.56 669.18,-580.58"/>
<text text-anchor="middle" x="684.5" y="-591.8" font-family="Times,serif" font-size="14.00">Passes</text>
</g>
<!-- action_event -->
<g id="node15" class="node">
<title>action_event</title>
<polygon fill="yellow" stroke="black" points="689.5,-495 244.5,-495 244.5,-427 689.5,-427 689.5,-495"/>
<text text-anchor="middle" x="467" y="-479.8" font-family="Times,serif" font-size="14.00">Action Event</text>
<text text-anchor="middle" x="467" y="-464.8" font-family="Times,serif" font-size="14.00">• Type: FeatureChange | Refactor | AddTest | AddConstraint</text>
<text text-anchor="middle" x="467" y="-449.8" font-family="Times,serif" font-size="14.00">• Target: node i</text>
<text text-anchor="middle" x="467" y="-434.8" font-family="Times,serif" font-size="14.00">• Parameters: Δhealth, Δcomplexity, etc.</text>
</g>
<!-- fe_blocked&#45;&gt;action_event -->
<g id="edge15" class="edge">
<title>fe_blocked&#45;&gt;action_event</title>
<path fill="none" stroke="black" d="M467,-531.77C467,-524 467,-514.59 467,-505.22"/>
<polygon fill="black" stroke="black" points="470.5,-505.15 467,-495.15 463.5,-505.15 470.5,-505.15"/>
</g>
<!-- fe_allowed&#45;&gt;action_event -->
<g id="edge14" class="edge">
<title>fe_allowed&#45;&gt;action_event</title>
<path fill="none" stroke="black" d="M635.59,-531.98C612.62,-522.45 583.55,-510.38 556.05,-498.96"/>
<polygon fill="black" stroke="black" points="557.37,-495.72 546.79,-495.12 554.68,-502.19 557.37,-495.72"/>
</g>
<!-- re_rank -->
<g id="node12" class="node">
<title>re_rank</title>
<path fill="none" stroke="black" d="M334.5,-802C334.5,-802 101.5,-802 101.5,-802 95.5,-802 89.5,-796 89.5,-790 89.5,-790 89.5,-776 89.5,-776 89.5,-770 95.5,-764 101.5,-764 101.5,-764 334.5,-764 334.5,-764 340.5,-764 346.5,-770 346.5,-776 346.5,-776 346.5,-790 346.5,-790 346.5,-796 340.5,-802 334.5,-802"/>
<text text-anchor="middle" x="218" y="-786.8" font-family="Times,serif" font-size="14.00">2. Rank by: |∇V[i]| × centrality[i]</text>
<text text-anchor="middle" x="218" y="-771.8" font-family="Times,serif" font-size="14.00">(high tension at important nodes)</text>
</g>
<!-- re_input&#45;&gt;re_rank -->
<g id="edge6" class="edge">
<title>re_input&#45;&gt;re_rank</title>
<path fill="none" stroke="black" d="M192.06,-838.94C195.93,-830.73 200.68,-820.68 205.04,-811.43"/>
<polygon fill="black" stroke="black" points="208.3,-812.74 209.41,-802.2 201.97,-809.75 208.3,-812.74"/>
</g>
<!-- re_choose -->
<g id="node13" class="node">
<title>re_choose</title>
<path fill="none" stroke="black" d="M331,-692C331,-692 109,-692 109,-692 103,-692 97,-686 97,-680 97,-680 97,-668 97,-668 97,-662 103,-656 109,-656 109,-656 331,-656 331,-656 337,-656 343,-662 343,-668 343,-668 343,-680 343,-680 343,-686 337,-692 331,-692"/>
<text text-anchor="middle" x="220" y="-670.3" font-family="Times,serif" font-size="14.00">3. Choose highest&#45;ranked node i</text>
</g>
<!-- re_rank&#45;&gt;re_choose -->
<g id="edge7" class="edge">
<title>re_rank&#45;&gt;re_choose</title>
<path fill="none" stroke="black" d="M218.34,-763.85C218.66,-746.95 219.13,-721.52 219.49,-702.19"/>
<polygon fill="black" stroke="black" points="222.99,-702.24 219.68,-692.18 215.99,-702.11 222.99,-702.24"/>
</g>
<!-- re_action -->
<g id="node14" class="node">
<title>re_action</title>
<polygon fill="lightgreen" stroke="black" points="345.5,-569 102.5,-569 102.5,-533 345.5,-533 345.5,-569"/>
<text text-anchor="middle" x="224" y="-547.3" font-family="Times,serif" font-size="14.00">Action: Refactor(i) or AddTest(i)</text>
</g>
<!-- re_choose&#45;&gt;re_action -->
<g id="edge8" class="edge">
<title>re_choose&#45;&gt;re_action</title>
<path fill="none" stroke="black" d="M220.56,-655.92C221.22,-636.04 222.32,-602.92 223.09,-579.42"/>
<polygon fill="black" stroke="black" points="226.59,-579.49 223.43,-569.38 219.6,-579.26 226.59,-579.49"/>
</g>
<!-- re_action&#45;&gt;action_event -->
<g id="edge16" class="edge">
<title>re_action&#45;&gt;action_event</title>
<path fill="none" stroke="black" d="M271.14,-532.93C298.15,-523.15 333.12,-510.48 366.03,-498.57"/>
<polygon fill="black" stroke="black" points="367.49,-501.76 375.7,-495.06 365.11,-495.18 367.49,-501.76"/>
</g>
<!-- feedback -->
<g id="node16" class="node">
<title>feedback</title>
<polygon fill="lightblue" stroke="black" points="623,-390 311,-390 311,-352 623,-352 623,-390"/>
<text text-anchor="middle" x="467" y="-374.8" font-family="Times,serif" font-size="14.00">State Transition</text>
<text text-anchor="middle" x="467" y="-359.8" font-family="Times,serif" font-size="14.00">state(t+1) = apply_event(action, state(t))</text>
</g>
<!-- action_event&#45;&gt;feedback -->
<g id="edge17" class="edge">
<title>action_event&#45;&gt;feedback</title>
<path fill="none" stroke="black" d="M467,-426.98C467,-418.2 467,-408.8 467,-400.3"/>
<polygon fill="black" stroke="black" points="470.5,-400.13 467,-390.13 463.5,-400.13 470.5,-400.13"/>
</g>
<!-- feedback&#45;&gt;state -->
<g id="edge18" class="edge">
<title>feedback&#45;&gt;state</title>
<path fill="none" stroke="black" stroke-dasharray="5,2" d="M467,-351.92C467,-340.87 467,-326.14 467,-311.73"/>
<polygon fill="black" stroke="black" points="470.5,-311.36 467,-301.36 463.5,-311.36 470.5,-311.36"/>
<text text-anchor="middle" x="517.5" y="-322.8" font-family="Times,serif" font-size="14.00">Next iteration</text>
</g>
</g>
</svg>
