<?xml version="1.0" encoding="UTF-8" standalone="no"?>
<!DOCTYPE svg PUBLIC "-//W3C//DTD SVG 1.1//EN"
 "http://www.w3.org/Graphics/SVG/1.1/DTD/svg11.dtd">
<!-- Generated by graphviz version 2.43.0 (0)
 -->
<!-- Title: FiveForcesEquilibrium Pages: 1 -->
<svg width="946pt" height="965pt"
 viewBox="0.00 0.00 946.00 965.00" xmlns="http://www.w3.org/2000/svg" xmlns:xlink="http://www.w3.org/1999/xlink">
<g id="graph0" class="graph" transform="scale(1 1) rotate(0) translate(4 961)">
<title>FiveForcesEquilibrium</title>
<polygon fill="white" stroke="transparent" points="-4,4 -4,-961 942,-961 942,4 -4,4"/>
<text text-anchor="middle" x="469" y="-34.4" font-family="Times,serif" font-size="12.00">Five Forces in Equilibrium</text>
<text text-anchor="middle" x="469" y="-7.4" font-family="Times,serif" font-size="12.00">Governance monitors physics metrics to detect imbalances and restore equilibrium</text>
<g id="clust1" class="cluster">
<title>cluster_forces</title>
</g>
<g id="clust2" class="cluster">
<title>cluster_imbalances</title>
<polygon fill="mistyrose" stroke="mistyrose" points="656,-342 656,-949 938,-949 938,-342 656,-342"/>
<text text-anchor="middle" x="797" y="-933.8" font-family="Times,serif" font-size="14.00">Common Imbalances (Failure Modes)</text>
</g>
<!-- equilibrium -->
<g id="node1" class="node">
<title>equilibrium</title>
<ellipse fill="lightgreen" stroke="black" cx="465" cy="-436" rx="72" ry="72"/>
<text text-anchor="middle" x="465" y="-462.8" font-family="Times,serif" font-size="14.00">System in</text>
<text text-anchor="middle" x="465" y="-447.8" font-family="Times,serif" font-size="14.00">Equilibrium</text>
<text text-anchor="middle" x="465" y="-416.8" font-family="Times,serif" font-size="14.00">(Sustainable</text>
<text text-anchor="middle" x="465" y="-401.8" font-family="Times,serif" font-size="14.00">Development)</text>
</g>
<!-- cowboy -->
<g id="node7" class="node">
<title>cowboy</title>
<polygon fill="salmon" stroke="black" points="910,-917.5 683,-917.5 683,-818.5 910,-818.5 910,-917.5"/>
<text text-anchor="middle" x="796.5" y="-902.3" font-family="Times,serif" font-size="14.00">Cowboy Mode</text>
<text text-anchor="middle" x="796.5" y="-871.3" font-family="Times,serif" font-size="14.00">Velocity &gt;&gt; Quality</text>
<text text-anchor="middle" x="796.5" y="-856.3" font-family="Times,serif" font-size="14.00">• Ship fast, break things</text>
<text text-anchor="middle" x="796.5" y="-841.3" font-family="Times,serif" font-size="14.00">• Technical debt accumulates</text>
<text text-anchor="middle" x="796.5" y="-826.3" font-family="Times,serif" font-size="14.00">• Eventually grinds to halt</text>
</g>
<!-- equilibrium&#45;&gt;cowboy -->
<g id="edge6" class="edge">
<title>equilibrium&#45;&gt;cowboy</title>
<path fill="none" stroke="red" stroke-dasharray="5,2" d="M515.98,-486.93C524.25,-497.77 531.8,-509.69 537,-522 565.54,-589.55 526.69,-618.36 555,-686 582.45,-751.57 599.02,-767.51 656,-810 661.71,-814.26 667.78,-818.26 674.07,-822.03"/>
<polygon fill="red" stroke="red" points="672.34,-825.07 682.76,-827 675.82,-819 672.34,-825.07"/>
<text text-anchor="middle" x="600.5" y="-818.8" font-family="Times,serif" font-size="14.00">Velocity</text>
<text text-anchor="middle" x="600.5" y="-803.8" font-family="Times,serif" font-size="14.00">unchecked</text>
</g>
<!-- bureaucracy -->
<g id="node8" class="node">
<title>bureaucracy</title>
<polygon fill="lightgray" stroke="black" points="875.5,-449.5 717.5,-449.5 717.5,-350.5 875.5,-350.5 875.5,-449.5"/>
<text text-anchor="middle" x="796.5" y="-434.3" font-family="Times,serif" font-size="14.00">Bureaucracy</text>
<text text-anchor="middle" x="796.5" y="-403.3" font-family="Times,serif" font-size="14.00">Quality &gt;&gt; Velocity</text>
<text text-anchor="middle" x="796.5" y="-388.3" font-family="Times,serif" font-size="14.00">• Over&#45;engineered</text>
<text text-anchor="middle" x="796.5" y="-373.3" font-family="Times,serif" font-size="14.00">• Analysis paralysis</text>
<text text-anchor="middle" x="796.5" y="-358.3" font-family="Times,serif" font-size="14.00">• Nothing ships</text>
</g>
<!-- equilibrium&#45;&gt;bureaucracy -->
<g id="edge7" class="edge">
<title>equilibrium&#45;&gt;bureaucracy</title>
<path fill="none" stroke="red" stroke-dasharray="5,2" d="M536.69,-428.28C586.61,-422.82 653.85,-415.48 707.29,-409.64"/>
<polygon fill="red" stroke="red" points="707.88,-413.09 717.44,-408.53 707.12,-406.14 707.88,-413.09"/>
<text text-anchor="middle" x="600.5" y="-443.8" font-family="Times,serif" font-size="14.00">Quality</text>
<text text-anchor="middle" x="600.5" y="-428.8" font-family="Times,serif" font-size="14.00">paranoia</text>
</g>
<!-- drift -->
<g id="node9" class="node">
<title>drift</title>
<polygon fill="orange" stroke="black" points="897,-683.5 696,-683.5 696,-584.5 897,-584.5 897,-683.5"/>
<text text-anchor="middle" x="796.5" y="-668.3" font-family="Times,serif" font-size="14.00">Architectural Drift</text>
<text text-anchor="middle" x="796.5" y="-637.3" font-family="Times,serif" font-size="14.00">Velocity &gt;&gt; Coherence</text>
<text text-anchor="middle" x="796.5" y="-622.3" font-family="Times,serif" font-size="14.00">• Contradictory patterns</text>
<text text-anchor="middle" x="796.5" y="-607.3" font-family="Times,serif" font-size="14.00">• Spaghetti dependencies</text>
<text text-anchor="middle" x="796.5" y="-592.3" font-family="Times,serif" font-size="14.00">• Unmaintainable</text>
</g>
<!-- equilibrium&#45;&gt;drift -->
<g id="edge8" class="edge">
<title>equilibrium&#45;&gt;drift</title>
<path fill="none" stroke="red" stroke-dasharray="5,2" d="M518.43,-484.54C530.16,-494.66 542.76,-504.98 555,-514 597.4,-545.25 609.09,-552.04 656,-576 665.85,-581.03 676.23,-585.98 686.71,-590.73"/>
<polygon fill="red" stroke="red" points="685.38,-593.97 695.94,-594.85 688.24,-587.58 685.38,-593.97"/>
<text text-anchor="middle" x="600.5" y="-588.8" font-family="Times,serif" font-size="14.00">Coherence</text>
<text text-anchor="middle" x="600.5" y="-573.8" font-family="Times,serif" font-size="14.00">ignored</text>
</g>
<!-- mystery -->
<g id="node10" class="node">
<title>mystery</title>
<polygon fill="yellow" stroke="black" points="909,-566.5 684,-566.5 684,-467.5 909,-467.5 909,-566.5"/>
<text text-anchor="middle" x="796.5" y="-551.3" font-family="Times,serif" font-size="14.00">Mystery Codebase</text>
<text text-anchor="middle" x="796.5" y="-520.3" font-family="Times,serif" font-size="14.00">Velocity &gt;&gt; Learning</text>
<text text-anchor="middle" x="796.5" y="-505.3" font-family="Times,serif" font-size="14.00">• Team doesn&#39;t understand it</text>
<text text-anchor="middle" x="796.5" y="-490.3" font-family="Times,serif" font-size="14.00">• Fear to change anything</text>
<text text-anchor="middle" x="796.5" y="-475.3" font-family="Times,serif" font-size="14.00">• Bus factor = 0</text>
</g>
<!-- equilibrium&#45;&gt;mystery -->
<g id="edge9" class="edge">
<title>equilibrium&#45;&gt;mystery</title>
<path fill="none" stroke="red" stroke-dasharray="5,2" d="M534.97,-453.94C541.73,-455.67 548.5,-457.38 555,-459 593.54,-468.63 635.62,-478.87 673.66,-488.02"/>
<polygon fill="red" stroke="red" points="673.21,-491.51 683.75,-490.45 674.85,-484.71 673.21,-491.51"/>
<text text-anchor="middle" x="600.5" y="-498.8" font-family="Times,serif" font-size="14.00">Learning</text>
<text text-anchor="middle" x="600.5" y="-483.8" font-family="Times,serif" font-size="14.00">neglected</text>
</g>
<!-- sprawl -->
<g id="node11" class="node">
<title>sprawl</title>
<polygon fill="pink" stroke="black" points="906,-800.5 687,-800.5 687,-701.5 906,-701.5 906,-800.5"/>
<text text-anchor="middle" x="796.5" y="-785.3" font-family="Times,serif" font-size="14.00">Scope Sprawl</text>
<text text-anchor="middle" x="796.5" y="-754.3" font-family="Times,serif" font-size="14.00">Velocity &gt;&gt; Scope Control</text>
<text text-anchor="middle" x="796.5" y="-739.3" font-family="Times,serif" font-size="14.00">• Feature creep</text>
<text text-anchor="middle" x="796.5" y="-724.3" font-family="Times,serif" font-size="14.00">• Dependency hell</text>
<text text-anchor="middle" x="796.5" y="-709.3" font-family="Times,serif" font-size="14.00">• Unmanageable complexity</text>
</g>
<!-- equilibrium&#45;&gt;sprawl -->
<g id="edge10" class="edge">
<title>equilibrium&#45;&gt;sprawl</title>
<path fill="none" stroke="red" stroke-dasharray="5,2" d="M515.31,-487.87C523.53,-498.55 531.24,-510.16 537,-522 553.33,-555.55 532.9,-573.94 555,-604 582.59,-641.53 617.52,-619.14 646,-656 656.41,-669.48 644.76,-680.2 656,-693 662.42,-700.32 669.91,-706.73 678.03,-712.35"/>
<polygon fill="red" stroke="red" points="676.39,-715.45 686.69,-717.92 680.17,-709.57 676.39,-715.45"/>
<text text-anchor="middle" x="600.5" y="-674.8" font-family="Times,serif" font-size="14.00">Scope</text>
<text text-anchor="middle" x="600.5" y="-659.8" font-family="Times,serif" font-size="14.00">uncontrolled</text>
</g>
<!-- velocity -->
<g id="node2" class="node">
<title>velocity</title>
<polygon fill="lightblue" stroke="black" points="211,-584 53,-584 53,-500 211,-500 211,-584"/>
<text text-anchor="middle" x="132" y="-568.8" font-family="Times,serif" font-size="14.00">Velocity</text>
<text text-anchor="middle" x="132" y="-537.8" font-family="Times,serif" font-size="14.00">• Ship features fast</text>
<text text-anchor="middle" x="132" y="-522.8" font-family="Times,serif" font-size="14.00">• Deploy frequently</text>
<text text-anchor="middle" x="132" y="-507.8" font-family="Times,serif" font-size="14.00">• Iterate quickly</text>
</g>
<!-- velocity&#45;&gt;equilibrium -->
<g id="edge1" class="edge">
<title>velocity&#45;&gt;equilibrium</title>
<path fill="none" stroke="blue" stroke-width="2" d="M211.31,-518.08C227.16,-510.98 242.95,-502.05 256,-491 262.4,-485.58 259.09,-479.76 266,-475 268.58,-473.22 330.34,-461.21 384.2,-450.98"/>
<polygon fill="blue" stroke="blue" stroke-width="2" points="384.98,-454.39 394.15,-449.09 383.67,-447.52 384.98,-454.39"/>
<text text-anchor="middle" x="320.5" y="-493.8" font-family="Times,serif" font-size="14.00">Push:</text>
<text text-anchor="middle" x="320.5" y="-478.8" font-family="Times,serif" font-size="14.00">Go faster</text>
</g>
<!-- quality -->
<g id="node3" class="node">
<title>quality</title>
<polygon fill="lightcyan" stroke="black" points="214.5,-482 49.5,-482 49.5,-398 214.5,-398 214.5,-482"/>
<text text-anchor="middle" x="132" y="-466.8" font-family="Times,serif" font-size="14.00">Quality</text>
<text text-anchor="middle" x="132" y="-435.8" font-family="Times,serif" font-size="14.00">• Low bug rate</text>
<text text-anchor="middle" x="132" y="-420.8" font-family="Times,serif" font-size="14.00">• High test coverage</text>
<text text-anchor="middle" x="132" y="-405.8" font-family="Times,serif" font-size="14.00">• Clean code</text>
</g>
<!-- quality&#45;&gt;equilibrium -->
<g id="edge2" class="edge">
<title>quality&#45;&gt;equilibrium</title>
<path fill="none" stroke="green" stroke-width="2" d="M214.72,-416.42C231.54,-412.5 249.23,-409.05 266,-407 314.09,-401.12 327.16,-399.4 375,-407 378.95,-407.63 382.96,-408.4 386.99,-409.29"/>
<polygon fill="green" stroke="green" stroke-width="2" points="386.46,-412.76 397,-411.71 388.11,-405.96 386.46,-412.76"/>
<text text-anchor="middle" x="320.5" y="-440.8" font-family="Times,serif" font-size="14.00">Pull:</text>
<text text-anchor="middle" x="320.5" y="-425.8" font-family="Times,serif" font-size="14.00">Slow down,</text>
<text text-anchor="middle" x="320.5" y="-410.8" font-family="Times,serif" font-size="14.00">test more</text>
</g>
<!-- coherence -->
<g id="node4" class="node">
<title>coherence</title>
<polygon fill="lavender" stroke="black" points="231,-380 33,-380 33,-296 231,-296 231,-380"/>
<text text-anchor="middle" x="132" y="-364.8" font-family="Times,serif" font-size="14.00">Coherence</text>
<text text-anchor="middle" x="132" y="-333.8" font-family="Times,serif" font-size="14.00">• Consistent architecture</text>
<text text-anchor="middle" x="132" y="-318.8" font-family="Times,serif" font-size="14.00">• Aligned with vision</text>
<text text-anchor="middle" x="132" y="-303.8" font-family="Times,serif" font-size="14.00">• No contradictions</text>
</g>
<!-- coherence&#45;&gt;equilibrium -->
<g id="edge3" class="edge">
<title>coherence&#45;&gt;equilibrium</title>
<path fill="none" stroke="purple" stroke-width="2" d="M231.04,-328.63C276.51,-328 330.27,-332.71 375,-352 387.56,-357.42 399.43,-365.42 410.16,-374.37"/>
<polygon fill="purple" stroke="purple" stroke-width="2" points="407.94,-377.07 417.77,-381.03 412.55,-371.81 407.94,-377.07"/>
<text text-anchor="middle" x="320.5" y="-385.8" font-family="Times,serif" font-size="14.00">Constrain:</text>
<text text-anchor="middle" x="320.5" y="-370.8" font-family="Times,serif" font-size="14.00">Maintain</text>
<text text-anchor="middle" x="320.5" y="-355.8" font-family="Times,serif" font-size="14.00">structure</text>
</g>
<!-- learning -->
<g id="node5" class="node">
<title>learning</title>
<polygon fill="wheat" stroke="black" points="248,-278 16,-278 16,-194 248,-194 248,-278"/>
<text text-anchor="middle" x="132" y="-262.8" font-family="Times,serif" font-size="14.00">Learning</text>
<text text-anchor="middle" x="132" y="-231.8" font-family="Times,serif" font-size="14.00">• Team understands codebase</text>
<text text-anchor="middle" x="132" y="-216.8" font-family="Times,serif" font-size="14.00">• Knowledge is shared</text>
<text text-anchor="middle" x="132" y="-201.8" font-family="Times,serif" font-size="14.00">• Onboarding is smooth</text>
</g>
<!-- learning&#45;&gt;equilibrium -->
<g id="edge4" class="edge">
<title>learning&#45;&gt;equilibrium</title>
<path fill="none" stroke="orange" stroke-width="2" d="M248.07,-236.82C291.12,-242.03 338.41,-254.09 375,-280 402.21,-299.27 422.22,-329.65 436.29,-358.51"/>
<polygon fill="orange" stroke="orange" stroke-width="2" points="433.24,-360.24 440.65,-367.81 439.58,-357.27 433.24,-360.24"/>
<text text-anchor="middle" x="320.5" y="-313.8" font-family="Times,serif" font-size="14.00">Require:</text>
<text text-anchor="middle" x="320.5" y="-298.8" font-family="Times,serif" font-size="14.00">Human</text>
<text text-anchor="middle" x="320.5" y="-283.8" font-family="Times,serif" font-size="14.00">comprehension</text>
</g>
<!-- scope -->
<g id="node6" class="node">
<title>scope</title>
<polygon fill="lightyellow" stroke="black" points="230.5,-176 33.5,-176 33.5,-92 230.5,-92 230.5,-176"/>
<text text-anchor="middle" x="132" y="-160.8" font-family="Times,serif" font-size="14.00">Scope</text>
<text text-anchor="middle" x="132" y="-129.8" font-family="Times,serif" font-size="14.00">• Bounded complexity</text>
<text text-anchor="middle" x="132" y="-114.8" font-family="Times,serif" font-size="14.00">• Managed dependencies</text>
<text text-anchor="middle" x="132" y="-99.8" font-family="Times,serif" font-size="14.00">• Controlled growth</text>
</g>
<!-- scope&#45;&gt;equilibrium -->
<g id="edge5" class="edge">
<title>scope&#45;&gt;equilibrium</title>
<path fill="none" stroke="red" stroke-width="2" d="M230.76,-136.28C279.32,-142.23 335.82,-157.07 375,-192 421.42,-233.38 443.65,-301 454.29,-354.56"/>
<polygon fill="red" stroke="red" stroke-width="2" points="450.85,-355.22 456.14,-364.39 457.73,-353.92 450.85,-355.22"/>
<text text-anchor="middle" x="320.5" y="-225.8" font-family="Times,serif" font-size="14.00">Limit:</text>
<text text-anchor="middle" x="320.5" y="-210.8" font-family="Times,serif" font-size="14.00">Don&#39;t expand</text>
<text text-anchor="middle" x="320.5" y="-195.8" font-family="Times,serif" font-size="14.00">endlessly</text>
</g>
<!-- governance -->
<g id="node12" class="node">
<title>governance</title>
<polygon fill="lightgreen" stroke="black" stroke-width="2" points="236.5,-762.5 27.5,-762.5 27.5,-663.5 236.5,-663.5 236.5,-762.5"/>
<text text-anchor="middle" x="132" y="-747.3" font-family="Times,serif" font-size="14.00">Tensegrity Governance</text>
<text text-anchor="middle" x="132" y="-716.3" font-family="Times,serif" font-size="14.00">• Monitors H, T, V</text>
<text text-anchor="middle" x="132" y="-701.3" font-family="Times,serif" font-size="14.00">• Detects force imbalances</text>
<text text-anchor="middle" x="132" y="-686.3" font-family="Times,serif" font-size="14.00">• Enforces invariants</text>
<text text-anchor="middle" x="132" y="-671.3" font-family="Times,serif" font-size="14.00">• Prevents failure modes</text>
</g>
<!-- cowboy&#45;&gt;governance -->
<g id="edge11" class="edge">
<title>cowboy&#45;&gt;governance</title>
<path fill="none" stroke="green" stroke-dasharray="5,2" d="M682.92,-862.82C573.76,-855.07 404.78,-835.8 266,-788 250.18,-782.55 234.08,-775.23 218.79,-767.29"/>
<polygon fill="green" stroke="green" points="220.37,-764.17 209.9,-762.56 217.08,-770.35 220.37,-764.17"/>
<text text-anchor="middle" x="465" y="-850.8" font-family="Times,serif" font-size="14.00">Detect</text>
</g>
<!-- bureaucracy&#45;&gt;governance -->
<g id="edge12" class="edge">
<title>bureaucracy&#45;&gt;governance</title>
<path fill="none" stroke="green" stroke-dasharray="5,2" d="M717.18,-417.8C694.36,-426.63 671.45,-439.71 656,-459 640.47,-478.39 663.27,-496.13 646,-514 566.04,-596.75 501.47,-530.58 393,-569 333.42,-590.1 321.34,-602.47 266,-633 251.74,-640.87 236.79,-649.48 222.29,-658.05"/>
<polygon fill="green" stroke="green" points="220.13,-655.26 213.32,-663.37 223.71,-661.28 220.13,-655.26"/>
<text text-anchor="middle" x="465" y="-572.8" font-family="Times,serif" font-size="14.00">Detect</text>
</g>
<!-- drift&#45;&gt;governance -->
<g id="edge13" class="edge">
<title>drift&#45;&gt;governance</title>
<path fill="none" stroke="green" stroke-dasharray="5,2" d="M695.93,-661.92C680.83,-669.88 666.74,-680.05 656,-693 642.64,-709.1 662.29,-725.87 646,-739 615.72,-763.4 388.52,-742.48 246.82,-726.67"/>
<polygon fill="green" stroke="green" points="247.09,-723.18 236.77,-725.54 246.31,-730.13 247.09,-723.18"/>
<text text-anchor="middle" x="465" y="-752.8" font-family="Times,serif" font-size="14.00">Detect</text>
</g>
<!-- mystery&#45;&gt;governance -->
<g id="edge14" class="edge">
<title>mystery&#45;&gt;governance</title>
<path fill="none" stroke="green" stroke-dasharray="5,2" d="M683.94,-546.84C643.28,-557.92 596.99,-570.77 555,-583 450.11,-613.54 331.23,-650.36 246.43,-677.01"/>
<polygon fill="green" stroke="green" points="245.27,-673.71 236.78,-680.05 247.37,-680.38 245.27,-673.71"/>
<text text-anchor="middle" x="465" y="-634.8" font-family="Times,serif" font-size="14.00">Detect</text>
</g>
<!-- sprawl&#45;&gt;governance -->
<g id="edge15" class="edge">
<title>sprawl&#45;&gt;governance</title>
<path fill="none" stroke="green" stroke-dasharray="5,2" d="M686.87,-769.4C578.85,-784.18 409.05,-797.87 266,-767 259.54,-765.61 252.98,-763.92 246.43,-762.02"/>
<polygon fill="green" stroke="green" points="247.42,-758.66 236.83,-759.09 245.37,-765.35 247.42,-758.66"/>
<text text-anchor="middle" x="465" y="-788.8" font-family="Times,serif" font-size="14.00">Detect</text>
</g>
<!-- governance&#45;&gt;equilibrium -->
<g id="edge16" class="edge">
<title>governance&#45;&gt;equilibrium</title>
<path fill="none" stroke="green" stroke-width="3" d="M217.54,-663.24C232.6,-650.66 246.49,-635.85 256,-619 266,-601.28 252.34,-543.08 266,-528 299.24,-491.31 330.07,-525.81 375,-505 384.28,-500.7 393.48,-495.28 402.24,-489.38"/>
<polygon fill="green" stroke="green" stroke-width="3" points="404.33,-492.19 410.51,-483.59 400.31,-486.46 404.33,-492.19"/>
<text text-anchor="middle" x="320.5" y="-531.8" font-family="Times,serif" font-size="14.00">Restore</text>
</g>
</g>
</svg>
