<?xml version="1.0" encoding="UTF-8" standalone="no"?>
<!DOCTYPE svg PUBLIC "-//W3C//DTD SVG 1.1//EN"
 "http://www.w3.org/Graphics/SVG/1.1/DTD/svg11.dtd">
<!-- Generated by graphviz version 2.43.0 (0)
 -->
<!-- Title: GraphLaplacianEnergy Pages: 1 -->
<svg width="1063pt" height="621pt"
 viewBox="0.00 0.00 1062.50 621.48" xmlns="http://www.w3.org/2000/svg" xmlns:xlink="http://www.w3.org/1999/xlink">
<g id="graph0" class="graph" transform="scale(1 1) rotate(0) translate(4 617.48)">
<title>GraphLaplacianEnergy</title>
<polygon fill="white" stroke="transparent" points="-4,4 -4,-617.48 1058.5,-617.48 1058.5,4 -4,4"/>
<text text-anchor="middle" x="527.25" y="-34.4" font-family="Times,serif" font-size="12.00">Graph Laplacian → Dirichlet Energy Flow</text>
<text text-anchor="middle" x="527.25" y="-7.4" font-family="Times,serif" font-size="12.00">High badness difference across strong coupling → High structural tension</text>
<g id="clust1" class="cluster">
<title>cluster_graph</title>
<polygon fill="lightgray" stroke="lightgray" points="648.5,-292.74 648.5,-481.61 893.5,-481.61 893.5,-292.74 648.5,-292.74"/>
<text text-anchor="middle" x="771" y="-466.41" font-family="Times,serif" font-size="14.00">Example Graph: 4&#45;Node System</text>
</g>
<g id="clust2" class="cluster">
<title>cluster_laplacian</title>
<polygon fill="lightblue" stroke="lightblue" points="33.5,-396.74 33.5,-489.48 236.5,-489.48 236.5,-396.74 33.5,-396.74"/>
<text text-anchor="middle" x="135" y="-474.28" font-family="Times,serif" font-size="14.00">Graph Laplacian L = D &#45; A</text>
</g>
<g id="clust3" class="cluster">
<title>cluster_energy</title>
<polygon fill="lightyellow" stroke="lightyellow" points="244.5,-202 244.5,-481.61 640.5,-481.61 640.5,-202 244.5,-202"/>
<text text-anchor="middle" x="442.5" y="-466.41" font-family="Times,serif" font-size="14.00">Dirichlet Energy Computation</text>
</g>
<!-- A -->
<g id="node1" class="node">
<title>A</title>
<path fill="salmon" stroke="black" d="M568,-598.48C568,-598.48 515,-598.48 515,-598.48 509,-598.48 503,-592.48 503,-586.48 503,-586.48 503,-572.48 503,-572.48 503,-566.48 509,-560.48 515,-560.48 515,-560.48 568,-560.48 568,-560.48 574,-560.48 580,-566.48 580,-572.48 580,-572.48 580,-586.48 580,-586.48 580,-592.48 574,-598.48 568,-598.48"/>
<text text-anchor="middle" x="541.5" y="-583.28" font-family="Times,serif" font-size="14.00">A</text>
<text text-anchor="middle" x="541.5" y="-568.28" font-family="Times,serif" font-size="14.00">bad=0.8</text>
</g>
<!-- B -->
<g id="node2" class="node">
<title>B</title>
<path fill="lightgreen" stroke="black" d="M722,-598.48C722,-598.48 669,-598.48 669,-598.48 663,-598.48 657,-592.48 657,-586.48 657,-586.48 657,-572.48 657,-572.48 657,-566.48 663,-560.48 669,-560.48 669,-560.48 722,-560.48 722,-560.48 728,-560.48 734,-566.48 734,-572.48 734,-572.48 734,-586.48 734,-586.48 734,-592.48 728,-598.48 722,-598.48"/>
<text text-anchor="middle" x="695.5" y="-583.28" font-family="Times,serif" font-size="14.00">B</text>
<text text-anchor="middle" x="695.5" y="-568.28" font-family="Times,serif" font-size="14.00">bad=0.3</text>
</g>
<!-- A&#45;&gt;B -->
<g id="edge1" class="edge">
<title>A&#45;&gt;B</title>
<path fill="none" stroke="red" stroke-width="3" d="M580.36,-579.48C603.8,-579.48 633.53,-579.48 656.92,-579.48"/>
<text text-anchor="middle" x="618.5" y="-601.28" font-family="Times,serif" font-size="14.00">w=0.9</text>
<text text-anchor="middle" x="618.5" y="-586.28" font-family="Times,serif" font-size="14.00">Δ²=0.25</text>
</g>
<!-- C -->
<g id="node3" class="node">
<title>C</title>
<path fill="yellow" stroke="black" d="M722,-450.61C722,-450.61 669,-450.61 669,-450.61 663,-450.61 657,-444.61 657,-438.61 657,-438.61 657,-424.61 657,-424.61 657,-418.61 663,-412.61 669,-412.61 669,-412.61 722,-412.61 722,-412.61 728,-412.61 734,-418.61 734,-424.61 734,-424.61 734,-438.61 734,-438.61 734,-444.61 728,-450.61 722,-450.61"/>
<text text-anchor="middle" x="695.5" y="-435.41" font-family="Times,serif" font-size="14.00">C</text>
<text text-anchor="middle" x="695.5" y="-420.41" font-family="Times,serif" font-size="14.00">bad=0.5</text>
</g>
<!-- A&#45;&gt;C -->
<g id="edge2" class="edge">
<title>A&#45;&gt;C</title>
<path fill="none" stroke="orange" stroke-width="2" d="M560.35,-560.29C578.31,-543.32 606.39,-517.65 632.5,-497.48 637.57,-493.56 639.66,-493.68 644.5,-489.48 658.03,-477.76 671.47,-462.58 681.16,-450.86"/>
<text text-anchor="middle" x="662" y="-516.28" font-family="Times,serif" font-size="14.00">w=0.6</text>
<text text-anchor="middle" x="662" y="-501.28" font-family="Times,serif" font-size="14.00">Δ²=0.09</text>
</g>
<!-- bad_field -->
<g id="node8" class="node">
<title>bad_field</title>
<path fill="none" stroke="black" d="M530,-450.61C530,-450.61 437,-450.61 437,-450.61 431,-450.61 425,-444.61 425,-438.61 425,-438.61 425,-424.61 425,-424.61 425,-418.61 431,-412.61 437,-412.61 437,-412.61 530,-412.61 530,-412.61 536,-412.61 542,-418.61 542,-424.61 542,-424.61 542,-438.61 542,-438.61 542,-444.61 536,-450.61 530,-450.61"/>
<text text-anchor="middle" x="483.5" y="-435.41" font-family="Times,serif" font-size="14.00">Badness Field</text>
<text text-anchor="middle" x="483.5" y="-420.41" font-family="Times,serif" font-size="14.00">bad: V → [0,1]</text>
</g>
<!-- A&#45;&gt;bad_field -->
<g id="edge10" class="edge">
<title>A&#45;&gt;bad_field</title>
<path fill="none" stroke="black" stroke-dasharray="5,2" d="M534.27,-560.3C524.33,-535.3 506.34,-490.06 494.66,-460.69"/>
<polygon fill="black" stroke="black" points="497.77,-459.02 490.82,-451.02 491.26,-461.6 497.77,-459.02"/>
</g>
<!-- B&#45;&gt;C -->
<g id="edge3" class="edge">
<title>B&#45;&gt;C</title>
<path fill="none" stroke="yellow" stroke-width="1.5" d="M695.5,-560.3C695.5,-532.35 695.5,-479.11 695.5,-451.02"/>
<text text-anchor="middle" x="725" y="-516.28" font-family="Times,serif" font-size="14.00">w=0.4</text>
<text text-anchor="middle" x="725" y="-501.28" font-family="Times,serif" font-size="14.00">Δ²=0.04</text>
</g>
<!-- D -->
<g id="node4" class="node">
<title>D</title>
<path fill="orange" stroke="black" d="M722,-338.74C722,-338.74 669,-338.74 669,-338.74 663,-338.74 657,-332.74 657,-326.74 657,-326.74 657,-312.74 657,-312.74 657,-306.74 663,-300.74 669,-300.74 669,-300.74 722,-300.74 722,-300.74 728,-300.74 734,-306.74 734,-312.74 734,-312.74 734,-326.74 734,-326.74 734,-332.74 728,-338.74 722,-338.74"/>
<text text-anchor="middle" x="695.5" y="-323.54" font-family="Times,serif" font-size="14.00">D</text>
<text text-anchor="middle" x="695.5" y="-308.54" font-family="Times,serif" font-size="14.00">bad=0.7</text>
</g>
<!-- C&#45;&gt;D -->
<g id="edge4" class="edge">
<title>C&#45;&gt;D</title>
<path fill="none" stroke="yellow" stroke-width="1.5" d="M695.5,-412.47C695.5,-392.11 695.5,-359.28 695.5,-338.91"/>
<text text-anchor="middle" x="725" y="-375.54" font-family="Times,serif" font-size="14.00">w=0.5</text>
<text text-anchor="middle" x="725" y="-360.54" font-family="Times,serif" font-size="14.00">Δ²=0.04</text>
</g>
<!-- degree -->
<g id="node5" class="node">
<title>degree</title>
<path fill="none" stroke="black" d="M298,-598.48C298,-598.48 185,-598.48 185,-598.48 179,-598.48 173,-592.48 173,-586.48 173,-586.48 173,-572.48 173,-572.48 173,-566.48 179,-560.48 185,-560.48 185,-560.48 298,-560.48 298,-560.48 304,-560.48 310,-566.48 310,-572.48 310,-572.48 310,-586.48 310,-586.48 310,-592.48 304,-598.48 298,-598.48"/>
<text text-anchor="middle" x="241.5" y="-583.28" font-family="Times,serif" font-size="14.00">Degree Matrix D</text>
<text text-anchor="middle" x="241.5" y="-568.28" font-family="Times,serif" font-size="14.00">D[i,i] = Σ w_ij</text>
</g>
<!-- laplacian -->
<g id="node7" class="node">
<title>laplacian</title>
<ellipse fill="cyan" stroke="black" cx="159.5" cy="-431.61" rx="69.09" ry="26.74"/>
<text text-anchor="middle" x="159.5" y="-435.41" font-family="Times,serif" font-size="14.00">Laplacian L</text>
<text text-anchor="middle" x="159.5" y="-420.41" font-family="Times,serif" font-size="14.00">L = D &#45; A</text>
</g>
<!-- degree&#45;&gt;laplacian -->
<g id="edge5" class="edge">
<title>degree&#45;&gt;laplacian</title>
<path fill="none" stroke="black" d="M231.28,-560.3C218.23,-537.08 195.36,-496.4 178.94,-467.19"/>
<polygon fill="black" stroke="black" points="181.81,-465.15 173.85,-458.14 175.7,-468.58 181.81,-465.15"/>
</g>
<!-- adjacency -->
<g id="node6" class="node">
<title>adjacency</title>
<path fill="none" stroke="black" d="M143,-598.48C143,-598.48 12,-598.48 12,-598.48 6,-598.48 0,-592.48 0,-586.48 0,-586.48 0,-572.48 0,-572.48 0,-566.48 6,-560.48 12,-560.48 12,-560.48 143,-560.48 143,-560.48 149,-560.48 155,-566.48 155,-572.48 155,-572.48 155,-586.48 155,-586.48 155,-592.48 149,-598.48 143,-598.48"/>
<text text-anchor="middle" x="77.5" y="-583.28" font-family="Times,serif" font-size="14.00">Adjacency Matrix A</text>
<text text-anchor="middle" x="77.5" y="-568.28" font-family="Times,serif" font-size="14.00">A[i,j] = w_ij</text>
</g>
<!-- adjacency&#45;&gt;laplacian -->
<g id="edge6" class="edge">
<title>adjacency&#45;&gt;laplacian</title>
<path fill="none" stroke="black" d="M87.72,-560.3C100.77,-537.08 123.64,-496.4 140.06,-467.19"/>
<polygon fill="black" stroke="black" points="143.3,-468.58 145.15,-458.14 137.19,-465.15 143.3,-468.58"/>
</g>
<!-- edge_contrib -->
<g id="node9" class="node">
<title>edge_contrib</title>
<path fill="none" stroke="black" d="M543.5,-338.74C543.5,-338.74 341.5,-338.74 341.5,-338.74 335.5,-338.74 329.5,-332.74 329.5,-326.74 329.5,-326.74 329.5,-312.74 329.5,-312.74 329.5,-306.74 335.5,-300.74 341.5,-300.74 341.5,-300.74 543.5,-300.74 543.5,-300.74 549.5,-300.74 555.5,-306.74 555.5,-312.74 555.5,-312.74 555.5,-326.74 555.5,-326.74 555.5,-332.74 549.5,-338.74 543.5,-338.74"/>
<text text-anchor="middle" x="442.5" y="-323.54" font-family="Times,serif" font-size="14.00">Per&#45;Edge Contribution</text>
<text text-anchor="middle" x="442.5" y="-308.54" font-family="Times,serif" font-size="14.00">E_ij = ½ w_ij (bad[i] &#45; bad[j])²</text>
</g>
<!-- laplacian&#45;&gt;edge_contrib -->
<g id="edge8" class="edge">
<title>laplacian&#45;&gt;edge_contrib</title>
<path fill="none" stroke="black" d="M205.22,-411.15C216.7,-406.36 229.03,-401.3 240.5,-396.74 288.38,-377.73 343.09,-357.22 383.48,-342.3"/>
<polygon fill="black" stroke="black" points="384.74,-345.57 392.91,-338.83 382.32,-339 384.74,-345.57"/>
</g>
<!-- bad_field&#45;&gt;edge_contrib -->
<g id="edge7" class="edge">
<title>bad_field&#45;&gt;edge_contrib</title>
<path fill="none" stroke="black" d="M476.73,-412.47C470.23,-395.05 460.33,-368.51 452.84,-348.45"/>
<polygon fill="black" stroke="black" points="456.06,-347.06 449.28,-338.91 449.5,-349.5 456.06,-347.06"/>
</g>
<!-- total_energy -->
<g id="node10" class="node">
<title>total_energy</title>
<ellipse fill="yellow" stroke="black" cx="442.5" cy="-236.87" rx="189.51" ry="26.74"/>
<text text-anchor="middle" x="442.5" y="-240.67" font-family="Times,serif" font-size="14.00">Total Structural Energy</text>
<text text-anchor="middle" x="442.5" y="-225.67" font-family="Times,serif" font-size="14.00">V_struct = Σ E_ij = ½ bad^T L bad</text>
</g>
<!-- edge_contrib&#45;&gt;total_energy -->
<g id="edge9" class="edge">
<title>edge_contrib&#45;&gt;total_energy</title>
<path fill="none" stroke="black" d="M442.5,-300.39C442.5,-292.53 442.5,-283.07 442.5,-273.92"/>
<polygon fill="black" stroke="black" points="446,-273.81 442.5,-263.81 439,-273.81 446,-273.81"/>
</g>
<!-- local_A -->
<g id="node11" class="node">
<title>local_A</title>
<polygon fill="salmon" stroke="black" points="595.5,-144 289.5,-144 289.5,-76 595.5,-76 595.5,-144"/>
<text text-anchor="middle" x="442.5" y="-128.8" font-family="Times,serif" font-size="14.00">Local Energy at A</text>
<text text-anchor="middle" x="442.5" y="-113.8" font-family="Times,serif" font-size="14.00">E_local[A] = ½ Σ_j w_Aj (bad[A] &#45; bad[j])²</text>
<text text-anchor="middle" x="442.5" y="-98.8" font-family="Times,serif" font-size="14.00">= ½[0.9×0.25 + 0.6×0.09]</text>
<text text-anchor="middle" x="442.5" y="-83.8" font-family="Times,serif" font-size="14.00">= 0.14</text>
</g>
<!-- total_energy&#45;&gt;local_A -->
<g id="edge11" class="edge">
<title>total_energy&#45;&gt;local_A</title>
<path fill="none" stroke="black" stroke-dasharray="5,2" d="M442.5,-210C442.5,-194.04 442.5,-173.16 442.5,-154.69"/>
<polygon fill="black" stroke="black" points="446,-154.44 442.5,-144.44 439,-154.44 446,-154.44"/>
<text text-anchor="middle" x="483.5" y="-180.8" font-family="Times,serif" font-size="14.00">Decompose</text>
<text text-anchor="middle" x="483.5" y="-165.8" font-family="Times,serif" font-size="14.00">by node</text>
</g>
<!-- legend -->
<g id="node12" class="node">
<title>legend</title>
<polygon fill="none" stroke="black" points="1048.5,-613.48 752.5,-613.48 752.5,-545.48 1054.5,-545.48 1054.5,-607.48 1048.5,-613.48"/>
<polyline fill="none" stroke="black" points="1048.5,-613.48 1048.5,-607.48 "/>
<polyline fill="none" stroke="black" points="1054.5,-607.48 1048.5,-607.48 "/>
<text text-anchor="middle" x="903.5" y="-598.28" font-family="Times,serif" font-size="14.00">Color Key:</text>
<text text-anchor="middle" x="903.5" y="-583.28" font-family="Times,serif" font-size="14.00">Red edge = High tension (large Δbad)</text>
<text text-anchor="middle" x="903.5" y="-568.28" font-family="Times,serif" font-size="14.00">Yellow edge = Low tension (small Δbad)</text>
<text text-anchor="middle" x="903.5" y="-553.28" font-family="Times,serif" font-size="14.00">Node color = Badness level</text>
</g>
</g>
</svg>
