<?xml version="1.0" encoding="UTF-8" standalone="no"?>
<!DOCTYPE svg PUBLIC "-//W3C//DTD SVG 1.1//EN"
 "http://www.w3.org/Graphics/SVG/1.1/DTD/svg11.dtd">
<!-- Generated by graphviz version 2.43.0 (0)
 -->
<!-- Title: KnowledgeRepresentationGap Pages: 1 -->
<svg width="1346pt" height="1140pt"
 viewBox="0.00 0.00 1346.12 1140.06" xmlns="http://www.w3.org/2000/svg" xmlns:xlink="http://www.w3.org/1999/xlink">
<g id="graph0" class="graph" transform="scale(1 1) rotate(0) translate(4 1136.06)">
<title>KnowledgeRepresentationGap</title>
<polygon fill="white" stroke="transparent" points="-4,4 -4,-1136.06 1342.12,-1136.06 1342.12,4 -4,4"/>
<text text-anchor="middle" x="669.06" y="-47.4" font-family="Times,serif" font-size="12.00">Knowledge Representation Gap Over Time</text>
<text text-anchor="middle" x="669.06" y="-20.4" font-family="Times,serif" font-size="12.00">Without active learning, human understanding decays → Governance fails</text>
<text text-anchor="middle" x="669.06" y="-7.4" font-family="Times,serif" font-size="12.00">With active learning primitives, alignment is maintained</text>
<g id="clust1" class="cluster">
<title>cluster_t0</title>
<polygon fill="lightgreen" stroke="lightgreen" points="8,-679.06 8,-1124.06 227,-1124.06 227,-679.06 8,-679.06"/>
<text text-anchor="middle" x="117.5" y="-1108.86" font-family="Times,serif" font-size="14.00">t=0: Initial Sync</text>
</g>
<g id="clust2" class="cluster">
<title>cluster_t50</title>
<polygon fill="yellow" stroke="yellow" points="235,-679.06 235,-1124.06 520,-1124.06 520,-679.06 235,-679.06"/>
<text text-anchor="middle" x="377.5" y="-1108.86" font-family="Times,serif" font-size="14.00">t=50: After 50 AI&#45;driven changes</text>
</g>
<g id="clust3" class="cluster">
<title>cluster_t200</title>
<polygon fill="salmon" stroke="salmon" points="528,-679.06 528,-1124.06 874,-1124.06 874,-679.06 528,-679.06"/>
<text text-anchor="middle" x="701" y="-1108.86" font-family="Times,serif" font-size="14.00">t=200: Severe Divergence</text>
</g>
<!-- ground_t0 -->
<g id="node1" class="node">
<title>ground_t0</title>
<polygon fill="white" stroke="black" points="185,-1093.06 71,-1093.06 71,-1055.06 185,-1055.06 185,-1093.06"/>
<text text-anchor="middle" x="128" y="-1077.86" font-family="Times,serif" font-size="14.00">Ground Truth</text>
<text text-anchor="middle" x="128" y="-1062.86" font-family="Times,serif" font-size="14.00">Codebase</text>
</g>
<!-- ai_t0 -->
<g id="node2" class="node">
<title>ai_t0</title>
<polygon fill="lightblue" stroke="black" points="170,-989.06 16,-989.06 16,-951.06 170,-951.06 170,-989.06"/>
<text text-anchor="middle" x="93" y="-973.86" font-family="Times,serif" font-size="14.00">AI Mental Model</text>
<text text-anchor="middle" x="93" y="-958.86" font-family="Times,serif" font-size="14.00">(Embedding space)</text>
</g>
<!-- ground_t0&#45;&gt;ai_t0 -->
<g id="edge1" class="edge">
<title>ground_t0&#45;&gt;ai_t0</title>
<path fill="none" stroke="black" stroke-width="2" d="M118.44,-1045.21C113.51,-1030.84 107.51,-1013.36 102.58,-998.97"/>
<polygon fill="black" stroke="black" stroke-width="2" points="115.19,-1046.5 121.74,-1054.83 121.81,-1044.23 115.19,-1046.5"/>
<polygon fill="black" stroke="black" stroke-width="2" points="105.76,-997.46 99.2,-989.14 99.14,-999.73 105.76,-997.46"/>
<text text-anchor="middle" x="121.5" y="-1018.36" font-family="Times,serif" font-size="14.00">≈</text>
</g>
<!-- human_t0 -->
<g id="node3" class="node">
<title>human_t0</title>
<polygon fill="lightyellow" stroke="black" points="208.5,-725.06 27.5,-725.06 27.5,-687.06 208.5,-687.06 208.5,-725.06"/>
<text text-anchor="middle" x="118" y="-709.86" font-family="Times,serif" font-size="14.00">Human Mental Model</text>
<text text-anchor="middle" x="118" y="-694.86" font-family="Times,serif" font-size="14.00">(Design docs, memory)</text>
</g>
<!-- ai_t0&#45;&gt;human_t0 -->
<g id="edge2" class="edge">
<title>ai_t0&#45;&gt;human_t0</title>
<path fill="none" stroke="black" stroke-width="2" d="M95.69,-940.82C100.5,-890.47 110.49,-785.77 115.3,-735.37"/>
<polygon fill="black" stroke="black" stroke-width="2" points="92.18,-940.77 94.72,-951.05 99.15,-941.43 92.18,-940.77"/>
<polygon fill="black" stroke="black" stroke-width="2" points="118.8,-735.48 116.27,-725.2 111.84,-734.82 118.8,-735.48"/>
<text text-anchor="middle" x="106.5" y="-914.36" font-family="Times,serif" font-size="14.00">≈</text>
</g>
<!-- human_t0&#45;&gt;ground_t0 -->
<g id="edge3" class="edge">
<title>human_t0&#45;&gt;ground_t0</title>
<path fill="none" stroke="black" stroke-width="2" d="M132.72,-734.41C158.05,-785.09 204.8,-896.84 179,-989.06 173.14,-1009.99 160.48,-1030.9 149.24,-1046.61"/>
<polygon fill="black" stroke="black" stroke-width="2" points="135.78,-732.7 128.11,-725.39 129.54,-735.89 135.78,-732.7"/>
<polygon fill="black" stroke="black" stroke-width="2" points="146.34,-1044.66 143.2,-1054.78 151.96,-1048.83 146.34,-1044.66"/>
<text text-anchor="middle" x="192.5" y="-966.36" font-family="Times,serif" font-size="14.00">≈</text>
</g>
<!-- ground_t50 -->
<g id="node4" class="node">
<title>ground_t50</title>
<polygon fill="white" stroke="black" points="445,-1093.06 299,-1093.06 299,-1055.06 445,-1055.06 445,-1093.06"/>
<text text-anchor="middle" x="372" y="-1077.86" font-family="Times,serif" font-size="14.00">Ground Truth</text>
<text text-anchor="middle" x="372" y="-1062.86" font-family="Times,serif" font-size="14.00">(Rapidly evolving)</text>
</g>
<!-- ai_t50 -->
<g id="node5" class="node">
<title>ai_t50</title>
<polygon fill="lightblue" stroke="black" points="393,-989.06 243,-989.06 243,-951.06 393,-951.06 393,-989.06"/>
<text text-anchor="middle" x="318" y="-973.86" font-family="Times,serif" font-size="14.00">AI Mental Model</text>
<text text-anchor="middle" x="318" y="-958.86" font-family="Times,serif" font-size="14.00">(Updated via RAG)</text>
</g>
<!-- ground_t50&#45;&gt;ai_t50 -->
<g id="edge4" class="edge">
<title>ground_t50&#45;&gt;ai_t50</title>
<path fill="none" stroke="black" stroke-width="2" d="M328.03,-1054.87C321.21,-1050.09 315.09,-1044.22 311,-1037.06 304.53,-1025.73 305.15,-1011.5 307.86,-999.16"/>
<polygon fill="black" stroke="black" stroke-width="2" points="311.29,-999.91 310.52,-989.34 304.53,-998.08 311.29,-999.91"/>
<text text-anchor="middle" x="367.5" y="-1025.86" font-family="Times,serif" font-size="14.00">≈</text>
<text text-anchor="middle" x="367.5" y="-1010.86" font-family="Times,serif" font-size="14.00">(mostly synced)</text>
</g>
<!-- human_t50 -->
<g id="node6" class="node">
<title>human_t50</title>
<polygon fill="lightyellow" stroke="black" points="463,-725.06 291,-725.06 291,-687.06 463,-687.06 463,-725.06"/>
<text text-anchor="middle" x="377" y="-709.86" font-family="Times,serif" font-size="14.00">Human Mental Model</text>
<text text-anchor="middle" x="377" y="-694.86" font-family="Times,serif" font-size="14.00">(Stale)</text>
</g>
<!-- ai_t50&#45;&gt;human_t50 -->
<g id="edge5" class="edge">
<title>ai_t50&#45;&gt;human_t50</title>
<path fill="none" stroke="orange" stroke-width="2" d="M322.06,-951.05C332.16,-906.18 358.52,-789.13 370.68,-735.12"/>
<polygon fill="orange" stroke="orange" stroke-width="2" points="374.13,-735.72 372.92,-725.2 367.3,-734.18 374.13,-735.72"/>
<text text-anchor="middle" x="372.5" y="-921.86" font-family="Times,serif" font-size="14.00">≠</text>
<text text-anchor="middle" x="372.5" y="-906.86" font-family="Times,serif" font-size="14.00">(diverging)</text>
</g>
<!-- human_t50&#45;&gt;ground_t50 -->
<g id="edge6" class="edge">
<title>human_t50&#45;&gt;ground_t50</title>
<path fill="none" stroke="red" stroke-width="3" d="M381.39,-725.31C389.53,-759.81 406.93,-837.07 416,-903.06 422.31,-948.99 422.22,-960.74 424,-1007.06 424.51,-1020.38 430.19,-1025.25 424,-1037.06 421.85,-1041.17 418.99,-1044.9 415.73,-1048.26"/>
<polygon fill="red" stroke="red" stroke-width="3" points="413.21,-1045.82 408.02,-1055.06 417.84,-1051.07 413.21,-1045.82"/>
<text text-anchor="middle" x="465.5" y="-973.86" font-family="Times,serif" font-size="14.00">≠≠</text>
<text text-anchor="middle" x="465.5" y="-958.86" font-family="Times,serif" font-size="14.00">(major gap)</text>
</g>
<!-- ground_t200 -->
<g id="node7" class="node">
<title>ground_t200</title>
<polygon fill="white" stroke="black" points="762,-1093.06 588,-1093.06 588,-1055.06 762,-1055.06 762,-1093.06"/>
<text text-anchor="middle" x="675" y="-1077.86" font-family="Times,serif" font-size="14.00">Ground Truth</text>
<text text-anchor="middle" x="675" y="-1062.86" font-family="Times,serif" font-size="14.00">(Unknown to humans)</text>
</g>
<!-- ai_t200 -->
<g id="node8" class="node">
<title>ai_t200</title>
<polygon fill="lightblue" stroke="black" points="691.5,-989.06 536.5,-989.06 536.5,-951.06 691.5,-951.06 691.5,-989.06"/>
<text text-anchor="middle" x="614" y="-973.86" font-family="Times,serif" font-size="14.00">AI Mental Model</text>
<text text-anchor="middle" x="614" y="-958.86" font-family="Times,serif" font-size="14.00">(Locally consistent)</text>
</g>
<!-- ground_t200&#45;&gt;ai_t200 -->
<g id="edge7" class="edge">
<title>ground_t200&#45;&gt;ai_t200</title>
<path fill="none" stroke="black" stroke-dasharray="5,2" d="M631.03,-1054.87C624.21,-1050.09 618.09,-1044.22 614,-1037.06 607.58,-1025.82 606.83,-1011.66 607.99,-999.34"/>
<polygon fill="black" stroke="black" points="611.5,-999.48 609.41,-989.1 604.57,-998.52 611.5,-999.48"/>
<text text-anchor="middle" x="668.5" y="-1025.86" font-family="Times,serif" font-size="14.00">?</text>
<text text-anchor="middle" x="668.5" y="-1010.86" font-family="Times,serif" font-size="14.00">(hard to verify)</text>
</g>
<!-- human_t200 -->
<g id="node9" class="node">
<title>human_t200</title>
<polygon fill="lightyellow" stroke="black" points="761,-725.06 589,-725.06 589,-687.06 761,-687.06 761,-725.06"/>
<text text-anchor="middle" x="675" y="-709.86" font-family="Times,serif" font-size="14.00">Human Mental Model</text>
<text text-anchor="middle" x="675" y="-694.86" font-family="Times,serif" font-size="14.00">(Obsolete)</text>
</g>
<!-- ai_t200&#45;&gt;human_t200 -->
<g id="edge8" class="edge">
<title>ai_t200&#45;&gt;human_t200</title>
<path fill="none" stroke="red" stroke-width="4" d="M580.94,-950.8C574.91,-945.87 569.45,-939.96 566,-933.06 560.04,-921.14 562.65,-915.97 566,-903.06 583.12,-837.05 627.84,-769.61 654.38,-733.6"/>
<polygon fill="red" stroke="red" stroke-width="4" points="657.52,-735.25 660.7,-725.15 651.91,-731.06 657.52,-735.25"/>
<text text-anchor="middle" x="644.5" y="-921.86" font-family="Times,serif" font-size="14.00">✗</text>
<text text-anchor="middle" x="644.5" y="-906.86" font-family="Times,serif" font-size="14.00">(completely diverged)</text>
</g>
<!-- human_t200&#45;&gt;ground_t200 -->
<g id="edge9" class="edge">
<title>human_t200&#45;&gt;ground_t200</title>
<path fill="none" stroke="red" stroke-width="5" d="M680.99,-725.16C691.97,-759.42 714.94,-836.28 723,-903.06 730.13,-962.19 749.63,-983.79 723,-1037.06 721.06,-1040.94 718.48,-1044.51 715.53,-1047.77"/>
<polygon fill="red" stroke="red" stroke-width="5" points="712.34,-1044.76 708.06,-1054.8 718.34,-1051.13 712.34,-1044.76"/>
<text text-anchor="middle" x="806" y="-973.86" font-family="Times,serif" font-size="14.00">✗✗✗</text>
<text text-anchor="middle" x="806" y="-958.86" font-family="Times,serif" font-size="14.00">(incomprehensible)</text>
</g>
<!-- cluster_t0 -->
<g id="node10" class="node">
<title>cluster_t0</title>
<path fill="none" stroke="black" d="M965,-1092.06C965,-1092.06 901,-1092.06 901,-1092.06 895,-1092.06 889,-1086.06 889,-1080.06 889,-1080.06 889,-1068.06 889,-1068.06 889,-1062.06 895,-1056.06 901,-1056.06 901,-1056.06 965,-1056.06 965,-1056.06 971,-1056.06 977,-1062.06 977,-1068.06 977,-1068.06 977,-1080.06 977,-1080.06 977,-1086.06 971,-1092.06 965,-1092.06"/>
<text text-anchor="middle" x="933" y="-1070.36" font-family="Times,serif" font-size="14.00">cluster_t0</text>
</g>
<!-- cluster_t50 -->
<g id="node11" class="node">
<title>cluster_t50</title>
<path fill="none" stroke="black" d="M969.5,-988.06C969.5,-988.06 896.5,-988.06 896.5,-988.06 890.5,-988.06 884.5,-982.06 884.5,-976.06 884.5,-976.06 884.5,-964.06 884.5,-964.06 884.5,-958.06 890.5,-952.06 896.5,-952.06 896.5,-952.06 969.5,-952.06 969.5,-952.06 975.5,-952.06 981.5,-958.06 981.5,-964.06 981.5,-964.06 981.5,-976.06 981.5,-976.06 981.5,-982.06 975.5,-988.06 969.5,-988.06"/>
<text text-anchor="middle" x="933" y="-966.36" font-family="Times,serif" font-size="14.00">cluster_t50</text>
</g>
<!-- cluster_t0&#45;&gt;cluster_t50 -->
<g id="edge10" class="edge">
<title>cluster_t0&#45;&gt;cluster_t50</title>
<path fill="none" stroke="black" stroke-width="2" d="M933,-1055.76C933,-1039.98 933,-1016.42 933,-998.16"/>
<polygon fill="black" stroke="black" stroke-width="2" points="936.5,-998.11 933,-988.11 929.5,-998.11 936.5,-998.11"/>
<text text-anchor="middle" x="991" y="-1025.86" font-family="Times,serif" font-size="14.00">AI agents</text>
<text text-anchor="middle" x="991" y="-1010.86" font-family="Times,serif" font-size="14.00">making changes</text>
</g>
<!-- cluster_t200 -->
<g id="node12" class="node">
<title>cluster_t200</title>
<path fill="none" stroke="black" d="M962,-391.53C962,-391.53 880,-391.53 880,-391.53 874,-391.53 868,-385.53 868,-379.53 868,-379.53 868,-367.53 868,-367.53 868,-361.53 874,-355.53 880,-355.53 880,-355.53 962,-355.53 962,-355.53 968,-355.53 974,-361.53 974,-367.53 974,-367.53 974,-379.53 974,-379.53 974,-385.53 968,-391.53 962,-391.53"/>
<text text-anchor="middle" x="921" y="-369.83" font-family="Times,serif" font-size="14.00">cluster_t200</text>
</g>
<!-- cluster_t50&#45;&gt;cluster_t200 -->
<g id="edge11" class="edge">
<title>cluster_t50&#45;&gt;cluster_t200</title>
<path fill="none" stroke="red" stroke-width="2" d="M930.94,-952.04C928.99,-935.09 926.2,-908.32 925,-885.06 915.52,-700.71 918.82,-478.44 920.38,-401.94"/>
<polygon fill="red" stroke="red" stroke-width="2" points="923.88,-401.81 920.59,-391.73 916.88,-401.66 923.88,-401.81"/>
<text text-anchor="middle" x="967.5" y="-709.86" font-family="Times,serif" font-size="14.00">Governance</text>
<text text-anchor="middle" x="967.5" y="-694.86" font-family="Times,serif" font-size="14.00">missing</text>
</g>
<!-- solution -->
<g id="node14" class="node">
<title>solution</title>
<polygon fill="lightgreen" stroke="black" stroke-width="2" points="1315,-885.06 1019,-885.06 1019,-527.06 1315,-527.06 1315,-885.06"/>
<text text-anchor="middle" x="1167" y="-869.86" font-family="Times,serif" font-size="14.00">Tensegrity Solution:</text>
<text text-anchor="middle" x="1167" y="-838.86" font-family="Times,serif" font-size="14.00">Active Learning Primitives:</text>
<text text-anchor="middle" x="1167" y="-807.86" font-family="Times,serif" font-size="14.00">1. Prediction Challenges</text>
<text text-anchor="middle" x="1167" y="-792.86" font-family="Times,serif" font-size="14.00"> &#160;&#160;AI asks: &quot;What will this change do?&quot;</text>
<text text-anchor="middle" x="1167" y="-777.86" font-family="Times,serif" font-size="14.00"> &#160;&#160;Human predicts → Outcome revealed</text>
<text text-anchor="middle" x="1167" y="-762.86" font-family="Times,serif" font-size="14.00"> &#160;&#160;Learning occurs</text>
<text text-anchor="middle" x="1167" y="-731.86" font-family="Times,serif" font-size="14.00">2. Comprehension Sampling</text>
<text text-anchor="middle" x="1167" y="-716.86" font-family="Times,serif" font-size="14.00"> &#160;&#160;Randomly sample code sections</text>
<text text-anchor="middle" x="1167" y="-701.86" font-family="Times,serif" font-size="14.00"> &#160;&#160;Human explains intent</text>
<text text-anchor="middle" x="1167" y="-686.86" font-family="Times,serif" font-size="14.00"> &#160;&#160;Identify blind spots</text>
<text text-anchor="middle" x="1167" y="-655.86" font-family="Times,serif" font-size="14.00">3. Experimental Sandbox</text>
<text text-anchor="middle" x="1167" y="-640.86" font-family="Times,serif" font-size="14.00"> &#160;&#160;Safe environment to test hypotheses</text>
<text text-anchor="middle" x="1167" y="-625.86" font-family="Times,serif" font-size="14.00"> &#160;&#160;Build intuition for system behavior</text>
<text text-anchor="middle" x="1167" y="-594.86" font-family="Times,serif" font-size="14.00">4. Invariant Monitoring</text>
<text text-anchor="middle" x="1167" y="-579.86" font-family="Times,serif" font-size="14.00"> &#160;&#160;When physics metrics spike:</text>
<text text-anchor="middle" x="1167" y="-564.86" font-family="Times,serif" font-size="14.00"> &#160;&#160;Pause execution</text>
<text text-anchor="middle" x="1167" y="-549.86" font-family="Times,serif" font-size="14.00"> &#160;&#160;Require human understanding</text>
<text text-anchor="middle" x="1167" y="-534.86" font-family="Times,serif" font-size="14.00"> &#160;&#160;before proceeding</text>
</g>
<!-- cluster_t50&#45;&gt;solution -->
<g id="edge13" class="edge">
<title>cluster_t50&#45;&gt;solution</title>
<path fill="none" stroke="green" stroke-width="3" d="M948.35,-951.87C962.79,-935.71 986.03,-909.69 1012.08,-880.52"/>
<polygon fill="green" stroke="green" stroke-width="3" points="1014.71,-882.83 1018.76,-873.04 1009.49,-878.16 1014.71,-882.83"/>
<text text-anchor="middle" x="1024" y="-921.86" font-family="Times,serif" font-size="14.00">Intervene</text>
<text text-anchor="middle" x="1024" y="-906.86" font-family="Times,serif" font-size="14.00">early</text>
</g>
<!-- problem -->
<g id="node13" class="node">
<title>problem</title>
<polygon fill="mistyrose" stroke="black" stroke-width="2" points="1039,-234 803,-234 803,-89 1039,-89 1039,-234"/>
<text text-anchor="middle" x="921" y="-218.8" font-family="Times,serif" font-size="14.00">The Problem:</text>
<text text-anchor="middle" x="921" y="-187.8" font-family="Times,serif" font-size="14.00">Humans lose ability to:</text>
<text text-anchor="middle" x="921" y="-172.8" font-family="Times,serif" font-size="14.00">• Understand system behavior</text>
<text text-anchor="middle" x="921" y="-157.8" font-family="Times,serif" font-size="14.00">• Make informed decisions</text>
<text text-anchor="middle" x="921" y="-142.8" font-family="Times,serif" font-size="14.00">• Validate AI outputs</text>
<text text-anchor="middle" x="921" y="-127.8" font-family="Times,serif" font-size="14.00">• Govern effectively</text>
<text text-anchor="middle" x="921" y="-96.8" font-family="Times,serif" font-size="14.00">Result: Runaway dynamics</text>
</g>
<!-- cluster_t200&#45;&gt;problem -->
<g id="edge12" class="edge">
<title>cluster_t200&#45;&gt;problem</title>
<path fill="none" stroke="black" d="M921,-355.34C921,-331.09 921,-285.2 921,-244.27"/>
<polygon fill="black" stroke="black" points="924.5,-244.26 921,-234.26 917.5,-244.26 924.5,-244.26"/>
</g>
<!-- solution&#45;&gt;cluster_t200 -->
<g id="edge14" class="edge">
<title>solution&#45;&gt;cluster_t200</title>
<path fill="none" stroke="green" stroke-dasharray="5,2" d="M1018.12,-518.46C1007.44,-504.23 996.97,-489.98 987,-476.06 966.32,-447.17 944.18,-412.18 931.52,-391.73"/>
<polygon fill="green" stroke="green" points="1015.62,-520.96 1024.43,-526.84 1021.21,-516.75 1015.62,-520.96"/>
<text text-anchor="middle" x="1042" y="-497.86" font-family="Times,serif" font-size="14.00">Prevents</text>
</g>
<!-- healthy -->
<g id="node15" class="node">
<title>healthy</title>
<ellipse fill="lightgreen" stroke="black" stroke-width="2" cx="1167" cy="-373.53" rx="171.24" ry="102.56"/>
<text text-anchor="middle" x="1167" y="-430.83" font-family="Times,serif" font-size="14.00">Maintained Sync:</text>
<text text-anchor="middle" x="1167" y="-399.83" font-family="Times,serif" font-size="14.00">• Ground truth evolves</text>
<text text-anchor="middle" x="1167" y="-384.83" font-family="Times,serif" font-size="14.00">• AI tracks changes</text>
<text text-anchor="middle" x="1167" y="-369.83" font-family="Times,serif" font-size="14.00">• Humans stay aligned</text>
<text text-anchor="middle" x="1167" y="-354.83" font-family="Times,serif" font-size="14.00">• Governance remains effective</text>
<text text-anchor="middle" x="1167" y="-323.83" font-family="Times,serif" font-size="14.00">H stays moderate</text>
<text text-anchor="middle" x="1167" y="-308.83" font-family="Times,serif" font-size="14.00">Learning force in equilibrium</text>
</g>
<!-- solution&#45;&gt;healthy -->
<g id="edge15" class="edge">
<title>solution&#45;&gt;healthy</title>
<path fill="none" stroke="green" stroke-width="3" d="M1167,-526.74C1167,-513.14 1167,-499.67 1167,-486.68"/>
<polygon fill="green" stroke="green" stroke-width="3" points="1170.5,-486.38 1167,-476.38 1163.5,-486.38 1170.5,-486.38"/>
</g>
</g>
</svg>
