<?xml version="1.0" encoding="UTF-8" standalone="no"?>
<!DOCTYPE svg PUBLIC "-//W3C//DTD SVG 1.1//EN"
 "http://www.w3.org/Graphics/SVG/1.1/DTD/svg11.dtd">
<!-- Generated by graphviz version 2.43.0 (0)
 -->
<!-- Title: OverallArchitecture Pages: 1 -->
<svg width="879pt" height="695pt"
 viewBox="0.00 0.00 879.00 695.50" xmlns="http://www.w3.org/2000/svg" xmlns:xlink="http://www.w3.org/1999/xlink">
<g id="graph0" class="graph" transform="scale(1 1) rotate(0) translate(4 691.5)">
<title>OverallArchitecture</title>
<polygon fill="white" stroke="transparent" points="-4,4 -4,-691.5 875,-691.5 875,4 -4,4"/>
<text text-anchor="middle" x="435.5" y="-60.4" font-family="Times,serif" font-size="12.00">Architecture: How PadAI, Tensegrity, and Software Physics Relate</text>
<text text-anchor="middle" x="435.5" y="-33.4" font-family="Times,serif" font-size="12.00">PadAI = Coordination (built)</text>
<text text-anchor="middle" x="435.5" y="-20.4" font-family="Times,serif" font-size="12.00">Tensegrity = Governance (vision)</text>
<text text-anchor="middle" x="435.5" y="-7.4" font-family="Times,serif" font-size="12.00">Software Physics = Mathematical foundation for Tensegrity</text>
<g id="clust1" class="cluster">
<title>cluster_vision</title>
<polygon fill="lightblue" stroke="lightblue" points="238,-269.43 238,-399.43 630,-399.43 630,-269.43 238,-269.43"/>
<text text-anchor="middle" x="434" y="-384.23" font-family="Times,serif" font-size="14.00">Tensegrity Vision</text>
<text text-anchor="middle" x="434" y="-369.23" font-family="Times,serif" font-size="14.00">(Layer 2: Governance)</text>
</g>
<g id="clust2" class="cluster">
<title>cluster_padai</title>
<polygon fill="lightgreen" stroke="lightgreen" points="638,-269.43 638,-399.43 863,-399.43 863,-269.43 638,-269.43"/>
<text text-anchor="middle" x="750.5" y="-384.23" font-family="Times,serif" font-size="14.00">PadAI</text>
<text text-anchor="middle" x="750.5" y="-369.23" font-family="Times,serif" font-size="14.00">(Layer 1: Coordination)</text>
</g>
<g id="clust3" class="cluster">
<title>cluster_physics</title>
<polygon fill="lightyellow" stroke="lightyellow" points="8,-110 8,-417.91 230,-417.91 230,-110 8,-110"/>
<text text-anchor="middle" x="119" y="-402.71" font-family="Times,serif" font-size="14.00">Software Physics Research</text>
<text text-anchor="middle" x="119" y="-387.71" font-family="Times,serif" font-size="14.00">(Theoretical Foundation)</text>
</g>
<!-- five_forces -->
<g id="node1" class="node">
<title>five_forces</title>
<ellipse fill="none" stroke="black" cx="450" cy="-514.2" rx="74.49" ry="69.09"/>
<text text-anchor="middle" x="450" y="-548" font-family="Times,serif" font-size="14.00">Five Forces</text>
<text text-anchor="middle" x="450" y="-533" font-family="Times,serif" font-size="14.00">• Velocity</text>
<text text-anchor="middle" x="450" y="-518" font-family="Times,serif" font-size="14.00">• Quality</text>
<text text-anchor="middle" x="450" y="-503" font-family="Times,serif" font-size="14.00">• Coherence</text>
<text text-anchor="middle" x="450" y="-488" font-family="Times,serif" font-size="14.00">• Learning</text>
<text text-anchor="middle" x="450" y="-473" font-family="Times,serif" font-size="14.00">• Scope</text>
</g>
<!-- active_learning -->
<g id="node2" class="node">
<title>active_learning</title>
<path fill="none" stroke="black" d="M609.5,-315.43C609.5,-315.43 504.5,-315.43 504.5,-315.43 498.5,-315.43 492.5,-309.43 492.5,-303.43 492.5,-303.43 492.5,-289.43 492.5,-289.43 492.5,-283.43 498.5,-277.43 504.5,-277.43 504.5,-277.43 609.5,-277.43 609.5,-277.43 615.5,-277.43 621.5,-283.43 621.5,-289.43 621.5,-289.43 621.5,-303.43 621.5,-303.43 621.5,-309.43 615.5,-315.43 609.5,-315.43"/>
<text text-anchor="middle" x="557" y="-300.23" font-family="Times,serif" font-size="14.00">Active Learning</text>
<text text-anchor="middle" x="557" y="-285.23" font-family="Times,serif" font-size="14.00">Primitives</text>
</g>
<!-- five_forces&#45;&gt;active_learning -->
<g id="edge1" class="edge">
<title>five_forces&#45;&gt;active_learning</title>
<path fill="none" stroke="black" d="M480.81,-451.08C501.51,-409.34 527.77,-356.37 543.44,-324.78"/>
<polygon fill="black" stroke="black" points="546.63,-326.21 547.94,-315.7 540.36,-323.1 546.63,-326.21"/>
</g>
<!-- equilibrium -->
<g id="node3" class="node">
<title>equilibrium</title>
<path fill="none" stroke="black" d="M335.5,-315.43C335.5,-315.43 258.5,-315.43 258.5,-315.43 252.5,-315.43 246.5,-309.43 246.5,-303.43 246.5,-303.43 246.5,-289.43 246.5,-289.43 246.5,-283.43 252.5,-277.43 258.5,-277.43 258.5,-277.43 335.5,-277.43 335.5,-277.43 341.5,-277.43 347.5,-283.43 347.5,-289.43 347.5,-289.43 347.5,-303.43 347.5,-303.43 347.5,-309.43 341.5,-315.43 335.5,-315.43"/>
<text text-anchor="middle" x="297" y="-300.23" font-family="Times,serif" font-size="14.00">Equilibrium</text>
<text text-anchor="middle" x="297" y="-285.23" font-family="Times,serif" font-size="14.00">Monitoring</text>
</g>
<!-- five_forces&#45;&gt;equilibrium -->
<g id="edge2" class="edge">
<title>five_forces&#45;&gt;equilibrium</title>
<path fill="none" stroke="black" d="M396.97,-465.5C382.64,-451.06 367.83,-434.59 356,-417.91 335.06,-388.39 317.81,-350.32 307.48,-324.96"/>
<polygon fill="black" stroke="black" points="310.69,-323.57 303.74,-315.58 304.19,-326.16 310.69,-323.57"/>
</g>
<!-- invariants -->
<g id="node4" class="node">
<title>invariants</title>
<path fill="none" stroke="black" d="M462.5,-315.43C462.5,-315.43 377.5,-315.43 377.5,-315.43 371.5,-315.43 365.5,-309.43 365.5,-303.43 365.5,-303.43 365.5,-289.43 365.5,-289.43 365.5,-283.43 371.5,-277.43 377.5,-277.43 377.5,-277.43 462.5,-277.43 462.5,-277.43 468.5,-277.43 474.5,-283.43 474.5,-289.43 474.5,-289.43 474.5,-303.43 474.5,-303.43 474.5,-309.43 468.5,-315.43 462.5,-315.43"/>
<text text-anchor="middle" x="420" y="-300.23" font-family="Times,serif" font-size="14.00">Invariant</text>
<text text-anchor="middle" x="420" y="-285.23" font-family="Times,serif" font-size="14.00">Enforcement</text>
</g>
<!-- five_forces&#45;&gt;invariants -->
<g id="edge3" class="edge">
<title>five_forces&#45;&gt;invariants</title>
<path fill="none" stroke="black" d="M440.55,-445.23C434.95,-404.96 428.15,-356.06 423.95,-325.84"/>
<polygon fill="black" stroke="black" points="427.37,-325.02 422.53,-315.6 420.44,-325.99 427.37,-325.02"/>
</g>
<!-- task_coord -->
<g id="node5" class="node">
<title>task_coord</title>
<path fill="none" stroke="black" d="M847.5,-533.2C847.5,-533.2 762.5,-533.2 762.5,-533.2 756.5,-533.2 750.5,-527.2 750.5,-521.2 750.5,-521.2 750.5,-507.2 750.5,-507.2 750.5,-501.2 756.5,-495.2 762.5,-495.2 762.5,-495.2 847.5,-495.2 847.5,-495.2 853.5,-495.2 859.5,-501.2 859.5,-507.2 859.5,-507.2 859.5,-521.2 859.5,-521.2 859.5,-527.2 853.5,-533.2 847.5,-533.2"/>
<text text-anchor="middle" x="805" y="-518" font-family="Times,serif" font-size="14.00">Task</text>
<text text-anchor="middle" x="805" y="-503" font-family="Times,serif" font-size="14.00">Coordination</text>
</g>
<!-- five_forces&#45;&gt;task_coord -->
<g id="edge8" class="edge">
<title>five_forces&#45;&gt;task_coord</title>
<path fill="none" stroke="black" stroke-dasharray="5,2" d="M489.47,-573.12C503.86,-589.66 521.67,-605.56 542,-614.5 581.97,-632.07 698.52,-605.89 736,-583.5 754.45,-572.48 771.52,-555.42 784.07,-540.98"/>
<polygon fill="black" stroke="black" points="786.78,-543.19 790.55,-533.29 781.43,-538.68 786.78,-543.19"/>
<text text-anchor="middle" x="587" y="-620.3" font-family="Times,serif" font-size="14.00">Uses for</text>
<text text-anchor="middle" x="587" y="-605.3" font-family="Times,serif" font-size="14.00">coordination</text>
</g>
<!-- diagnostics -->
<g id="node10" class="node">
<title>diagnostics</title>
<ellipse fill="none" stroke="black" cx="119" cy="-155.48" rx="103.48" ry="37.45"/>
<text text-anchor="middle" x="119" y="-166.78" font-family="Times,serif" font-size="14.00">Diagnostics</text>
<text text-anchor="middle" x="119" y="-151.78" font-family="Times,serif" font-size="14.00">Local E, gradients</text>
<text text-anchor="middle" x="119" y="-136.78" font-family="Times,serif" font-size="14.00">Phase space</text>
</g>
<!-- equilibrium&#45;&gt;diagnostics -->
<g id="edge10" class="edge">
<title>equilibrium&#45;&gt;diagnostics</title>
<path fill="none" stroke="blue" stroke-dasharray="5,2" d="M269.85,-277.37C254.65,-267.04 235.5,-253.64 219,-240.95 201.2,-227.26 182.23,-211.55 165.66,-197.42"/>
<polygon fill="blue" stroke="blue" points="167.61,-194.48 157.74,-190.63 163.05,-199.79 167.61,-194.48"/>
<text text-anchor="middle" x="251.5" y="-229.75" font-family="Times,serif" font-size="14.00">Monitors</text>
<text text-anchor="middle" x="251.5" y="-214.75" font-family="Times,serif" font-size="14.00">using</text>
</g>
<!-- invariants&#45;&gt;diagnostics -->
<g id="edge9" class="edge">
<title>invariants&#45;&gt;diagnostics</title>
<path fill="none" stroke="blue" stroke-dasharray="5,2" d="M394.96,-277.34C368.42,-258.79 324.79,-230.03 284,-210.95 260.48,-199.96 234.12,-190.19 209.49,-182.08"/>
<polygon fill="blue" stroke="blue" points="210.38,-178.69 199.79,-178.94 208.22,-185.35 210.38,-178.69"/>
<text text-anchor="middle" x="372" y="-229.75" font-family="Times,serif" font-size="14.00">Based on</text>
<text text-anchor="middle" x="372" y="-214.75" font-family="Times,serif" font-size="14.00">metrics</text>
</g>
<!-- codebase -->
<g id="node13" class="node">
<title>codebase</title>
<path fill="none" stroke="black" d="M482.5,-176.95C482.5,-179.59 454.49,-181.73 420,-181.73 385.51,-181.73 357.5,-179.59 357.5,-176.95 357.5,-176.95 357.5,-134 357.5,-134 357.5,-131.37 385.51,-129.23 420,-129.23 454.49,-129.23 482.5,-131.37 482.5,-134 482.5,-134 482.5,-176.95 482.5,-176.95"/>
<path fill="none" stroke="black" d="M482.5,-176.95C482.5,-174.32 454.49,-172.18 420,-172.18 385.51,-172.18 357.5,-174.32 357.5,-176.95"/>
<text text-anchor="middle" x="420" y="-159.28" font-family="Times,serif" font-size="14.00">Codebase</text>
<text text-anchor="middle" x="420" y="-144.28" font-family="Times,serif" font-size="14.00">(Ground Truth)</text>
</g>
<!-- invariants&#45;&gt;codebase -->
<g id="edge13" class="edge">
<title>invariants&#45;&gt;codebase</title>
<path fill="none" stroke="black" d="M420,-277.26C420,-255.7 420,-219.25 420,-192.01"/>
<polygon fill="black" stroke="black" points="423.5,-191.71 420,-181.71 416.5,-191.71 423.5,-191.71"/>
<text text-anchor="middle" x="459" y="-229.75" font-family="Times,serif" font-size="14.00">Gates</text>
<text text-anchor="middle" x="459" y="-214.75" font-family="Times,serif" font-size="14.00">changes to</text>
</g>
<!-- agent_registry -->
<g id="node6" class="node">
<title>agent_registry</title>
<path fill="none" stroke="black" d="M842.5,-315.43C842.5,-315.43 789.5,-315.43 789.5,-315.43 783.5,-315.43 777.5,-309.43 777.5,-303.43 777.5,-303.43 777.5,-289.43 777.5,-289.43 777.5,-283.43 783.5,-277.43 789.5,-277.43 789.5,-277.43 842.5,-277.43 842.5,-277.43 848.5,-277.43 854.5,-283.43 854.5,-289.43 854.5,-289.43 854.5,-303.43 854.5,-303.43 854.5,-309.43 848.5,-315.43 842.5,-315.43"/>
<text text-anchor="middle" x="816" y="-300.23" font-family="Times,serif" font-size="14.00">Agent</text>
<text text-anchor="middle" x="816" y="-285.23" font-family="Times,serif" font-size="14.00">Registry</text>
</g>
<!-- task_coord&#45;&gt;agent_registry -->
<g id="edge4" class="edge">
<title>task_coord&#45;&gt;agent_registry</title>
<path fill="none" stroke="black" d="M805.92,-495.18C807.83,-457.66 812.25,-370.91 814.55,-325.81"/>
<polygon fill="black" stroke="black" points="818.06,-325.72 815.08,-315.56 811.07,-325.36 818.06,-325.72"/>
</g>
<!-- observability -->
<g id="node7" class="node">
<title>observability</title>
<path fill="none" stroke="black" d="M747.5,-315.43C747.5,-315.43 658.5,-315.43 658.5,-315.43 652.5,-315.43 646.5,-309.43 646.5,-303.43 646.5,-303.43 646.5,-289.43 646.5,-289.43 646.5,-283.43 652.5,-277.43 658.5,-277.43 658.5,-277.43 747.5,-277.43 747.5,-277.43 753.5,-277.43 759.5,-283.43 759.5,-289.43 759.5,-289.43 759.5,-303.43 759.5,-303.43 759.5,-309.43 753.5,-315.43 747.5,-315.43"/>
<text text-anchor="middle" x="703" y="-300.23" font-family="Times,serif" font-size="14.00">Real&#45;time</text>
<text text-anchor="middle" x="703" y="-285.23" font-family="Times,serif" font-size="14.00">Observability</text>
</g>
<!-- task_coord&#45;&gt;observability -->
<g id="edge5" class="edge">
<title>task_coord&#45;&gt;observability</title>
<path fill="none" stroke="black" d="M796.48,-495.18C778.59,-457.34 737.04,-369.44 715.88,-324.68"/>
<polygon fill="black" stroke="black" points="719.01,-323.1 711.57,-315.56 712.68,-326.09 719.01,-323.1"/>
</g>
<!-- humans -->
<g id="node12" class="node">
<title>humans</title>
<polygon fill="none" stroke="black" points="624,-687.5 512,-687.5 512,-683.5 508,-683.5 508,-679.5 512,-679.5 512,-657.5 508,-657.5 508,-653.5 512,-653.5 512,-649.5 624,-649.5 624,-687.5"/>
<polyline fill="none" stroke="black" points="512,-683.5 516,-683.5 516,-679.5 512,-679.5 "/>
<polyline fill="none" stroke="black" points="512,-657.5 516,-657.5 516,-653.5 512,-653.5 "/>
<text text-anchor="middle" x="568" y="-672.3" font-family="Times,serif" font-size="14.00">Humans</text>
<text text-anchor="middle" x="568" y="-657.3" font-family="Times,serif" font-size="14.00">(Governance)</text>
</g>
<!-- observability&#45;&gt;humans -->
<g id="edge14" class="edge">
<title>observability&#45;&gt;humans</title>
<path fill="none" stroke="black" d="M696.14,-315.78C686.07,-343.4 667.36,-397.48 657,-444.91 639.15,-526.59 679.97,-562.32 633,-631.5 630.04,-635.86 626.37,-639.74 622.3,-643.19"/>
<polygon fill="black" stroke="black" points="619.99,-640.54 614.04,-649.3 624.16,-646.17 619.99,-640.54"/>
<text text-anchor="middle" x="699.5" y="-518" font-family="Times,serif" font-size="14.00">Dashboards</text>
<text text-anchor="middle" x="699.5" y="-503" font-family="Times,serif" font-size="14.00">for</text>
</g>
<!-- laplacian -->
<g id="node8" class="node">
<title>laplacian</title>
<ellipse fill="none" stroke="black" cx="119" cy="-514.2" rx="60.21" ry="37.45"/>
<text text-anchor="middle" x="119" y="-525.5" font-family="Times,serif" font-size="14.00">Graph</text>
<text text-anchor="middle" x="119" y="-510.5" font-family="Times,serif" font-size="14.00">Laplacian</text>
<text text-anchor="middle" x="119" y="-495.5" font-family="Times,serif" font-size="14.00">L = D &#45; A</text>
</g>
<!-- energies -->
<g id="node9" class="node">
<title>energies</title>
<ellipse fill="none" stroke="black" cx="119" cy="-296.43" rx="89.61" ry="37.45"/>
<text text-anchor="middle" x="119" y="-307.73" font-family="Times,serif" font-size="14.00">Energies</text>
<text text-anchor="middle" x="119" y="-292.73" font-family="Times,serif" font-size="14.00">V_struct, V_bus</text>
<text text-anchor="middle" x="119" y="-277.73" font-family="Times,serif" font-size="14.00">T, H</text>
</g>
<!-- laplacian&#45;&gt;energies -->
<g id="edge6" class="edge">
<title>laplacian&#45;&gt;energies</title>
<path fill="none" stroke="black" d="M119,-476.6C119,-440.18 119,-384.13 119,-344.44"/>
<polygon fill="black" stroke="black" points="122.5,-344.21 119,-334.21 115.5,-344.21 122.5,-344.21"/>
</g>
<!-- energies&#45;&gt;diagnostics -->
<g id="edge7" class="edge">
<title>energies&#45;&gt;diagnostics</title>
<path fill="none" stroke="black" d="M119,-258.92C119,-241.9 119,-221.45 119,-203.31"/>
<polygon fill="black" stroke="black" points="122.5,-203.22 119,-193.22 115.5,-203.22 122.5,-203.22"/>
</g>
<!-- agents -->
<g id="node11" class="node">
<title>agents</title>
<polygon fill="none" stroke="black" points="848,-687.5 762,-687.5 762,-683.5 758,-683.5 758,-679.5 762,-679.5 762,-657.5 758,-657.5 758,-653.5 762,-653.5 762,-649.5 848,-649.5 848,-687.5"/>
<polyline fill="none" stroke="black" points="762,-683.5 766,-683.5 766,-679.5 762,-679.5 "/>
<polyline fill="none" stroke="black" points="762,-657.5 766,-657.5 766,-653.5 762,-653.5 "/>
<text text-anchor="middle" x="805" y="-672.3" font-family="Times,serif" font-size="14.00">AI Agents</text>
<text text-anchor="middle" x="805" y="-657.3" font-family="Times,serif" font-size="14.00">(Workers)</text>
</g>
<!-- agents&#45;&gt;task_coord -->
<g id="edge11" class="edge">
<title>agents&#45;&gt;task_coord</title>
<path fill="none" stroke="black" d="M805,-649.43C805,-623.21 805,-574.37 805,-543.39"/>
<polygon fill="black" stroke="black" points="808.5,-543.25 805,-533.25 801.5,-543.25 808.5,-543.25"/>
</g>
<!-- humans&#45;&gt;five_forces -->
<g id="edge12" class="edge">
<title>humans&#45;&gt;five_forces</title>
<path fill="none" stroke="black" d="M552.57,-649.32C547.84,-643.66 542.66,-637.36 538,-631.5 524.81,-614.89 510.82,-596.69 497.98,-579.73"/>
<polygon fill="black" stroke="black" points="500.59,-577.38 491.77,-571.51 495.01,-581.6 500.59,-577.38"/>
</g>
</g>
</svg>
