<?xml version="1.0" encoding="UTF-8" standalone="no"?>
<!DOCTYPE svg PUBLIC "-//W3C//DTD SVG 1.1//EN"
 "http://www.w3.org/Graphics/SVG/1.1/DTD/svg11.dtd">
<!-- Generated by graphviz version 2.43.0 (0)
 -->
<!-- Title: PhaseSpaceRegimes Pages: 1 -->
<svg width="3630pt" height="1045pt"
 viewBox="0.00 0.00 3629.50 1045.00" xmlns="http://www.w3.org/2000/svg" xmlns:xlink="http://www.w3.org/1999/xlink">
<g id="graph0" class="graph" transform="scale(1 1) rotate(0) translate(4 1041)">
<title>PhaseSpaceRegimes</title>
<polygon fill="white" stroke="transparent" points="-4,4 -4,-1041 3625.5,-1041 3625.5,4 -4,4"/>
<text text-anchor="middle" x="1810.75" y="-34.4" font-family="Times,serif" font-size="12.00">Phase Space Regimes and Governance</text>
<text text-anchor="middle" x="1810.75" y="-7.4" font-family="Times,serif" font-size="12.00">Different quadrants require different interventions</text>
<g id="clust1" class="cluster">
<title>cluster_phase_space</title>
<polygon fill="white" stroke="white" points="342.5,-662 342.5,-1029 1380.5,-1029 1380.5,-662 342.5,-662"/>
<text text-anchor="middle" x="861.5" y="-1013.8" font-family="Times,serif" font-size="14.00">Phase Space (T vs V)</text>
</g>
<g id="clust4" class="cluster">
<title>cluster_trajectories</title>
<polygon fill="lightyellow" stroke="lightyellow" points="1874.5,-799.5 1874.5,-891.5 2674.5,-891.5 2674.5,-799.5 1874.5,-799.5"/>
<text text-anchor="middle" x="2274.5" y="-876.3" font-family="Times,serif" font-size="14.00">Common Trajectories</text>
</g>
<g id="clust5" class="cluster">
<title>cluster_governance</title>
<polygon fill="lightblue" stroke="lightblue" points="2682.5,-792 2682.5,-899 3613.5,-899 3613.5,-792 2682.5,-792"/>
<text text-anchor="middle" x="3148" y="-883.8" font-family="Times,serif" font-size="14.00">Governance Rules by Quadrant</text>
</g>
<!-- title -->
<g id="node1" class="node">
<title>title</title>
<text text-anchor="middle" x="193.5" y="-830.2" font-family="bold" font-size="16.00">Phase Space: T vs V Regimes</text>
</g>
<!-- cluster_phase_space -->
<g id="node17" class="node">
<title>cluster_phase_space</title>
<path fill="none" stroke="black" d="M262.5,-634C262.5,-634 124.5,-634 124.5,-634 118.5,-634 112.5,-628 112.5,-622 112.5,-622 112.5,-610 112.5,-610 112.5,-604 118.5,-598 124.5,-598 124.5,-598 262.5,-598 262.5,-598 268.5,-598 274.5,-604 274.5,-610 274.5,-610 274.5,-622 274.5,-622 274.5,-628 268.5,-634 262.5,-634"/>
<text text-anchor="middle" x="193.5" y="-612.3" font-family="Times,serif" font-size="14.00">cluster_phase_space</text>
</g>
<!-- title&#45;&gt;cluster_phase_space -->
<g id="edge1" class="edge">
<title>title&#45;&gt;cluster_phase_space</title>
<path fill="none" stroke="black" d="M193.5,-815.69C193.5,-778.23 193.5,-689.42 193.5,-644.31"/>
<polygon fill="black" stroke="black" points="197,-644.09 193.5,-634.09 190,-644.09 197,-644.09"/>
</g>
<!-- q1 -->
<g id="node2" class="node">
<title>q1</title>
<polygon fill="lightgreen" stroke="black" points="1372.5,-975 1106.5,-975 1106.5,-693 1372.5,-693 1372.5,-975"/>
<text text-anchor="middle" x="1239.5" y="-959.8" font-family="Times,serif" font-size="14.00">Healthy Flow</text>
<text text-anchor="middle" x="1239.5" y="-928.8" font-family="Times,serif" font-size="14.00">T: High (lots of motion)</text>
<text text-anchor="middle" x="1239.5" y="-913.8" font-family="Times,serif" font-size="14.00">V: Low (low tension)</text>
<text text-anchor="middle" x="1239.5" y="-898.8" font-family="Times,serif" font-size="14.00">H: Moderate</text>
<text text-anchor="middle" x="1239.5" y="-867.8" font-family="Times,serif" font-size="14.00">Characteristics:</text>
<text text-anchor="middle" x="1239.5" y="-852.8" font-family="Times,serif" font-size="14.00">• Rapid iteration</text>
<text text-anchor="middle" x="1239.5" y="-837.8" font-family="Times,serif" font-size="14.00">• Well&#45;constrained structure</text>
<text text-anchor="middle" x="1239.5" y="-822.8" font-family="Times,serif" font-size="14.00">• Clean code + good tests</text>
<text text-anchor="middle" x="1239.5" y="-807.8" font-family="Times,serif" font-size="14.00">• Features shipping smoothly</text>
<text text-anchor="middle" x="1239.5" y="-776.8" font-family="Times,serif" font-size="14.00">Example:</text>
<text text-anchor="middle" x="1239.5" y="-761.8" font-family="Times,serif" font-size="14.00">• Refactors happening</text>
<text text-anchor="middle" x="1239.5" y="-746.8" font-family="Times,serif" font-size="14.00">• New features in healthy modules</text>
<text text-anchor="middle" x="1239.5" y="-731.8" font-family="Times,serif" font-size="14.00">• CI/CD passing</text>
<text text-anchor="middle" x="1239.5" y="-700.8" font-family="Times,serif" font-size="14.00">Governance: None needed</text>
</g>
<!-- q2 -->
<g id="node3" class="node">
<title>q2</title>
<polygon fill="salmon" stroke="black" points="1088.5,-975 822.5,-975 822.5,-693 1088.5,-693 1088.5,-975"/>
<text text-anchor="middle" x="955.5" y="-959.8" font-family="Times,serif" font-size="14.00">Chaotic Thrash</text>
<text text-anchor="middle" x="955.5" y="-928.8" font-family="Times,serif" font-size="14.00">T: High (lots of motion)</text>
<text text-anchor="middle" x="955.5" y="-913.8" font-family="Times,serif" font-size="14.00">V: High (high tension)</text>
<text text-anchor="middle" x="955.5" y="-898.8" font-family="Times,serif" font-size="14.00">H: Very High (crisis)</text>
<text text-anchor="middle" x="955.5" y="-867.8" font-family="Times,serif" font-size="14.00">Characteristics:</text>
<text text-anchor="middle" x="955.5" y="-852.8" font-family="Times,serif" font-size="14.00">• Lots of changes</text>
<text text-anchor="middle" x="955.5" y="-837.8" font-family="Times,serif" font-size="14.00">• Breaking things</text>
<text text-anchor="middle" x="955.5" y="-822.8" font-family="Times,serif" font-size="14.00">• Incidents firing</text>
<text text-anchor="middle" x="955.5" y="-807.8" font-family="Times,serif" font-size="14.00">• Stressed modules</text>
<text text-anchor="middle" x="955.5" y="-776.8" font-family="Times,serif" font-size="14.00">Example:</text>
<text text-anchor="middle" x="955.5" y="-761.8" font-family="Times,serif" font-size="14.00">• Competitor shock response</text>
<text text-anchor="middle" x="955.5" y="-746.8" font-family="Times,serif" font-size="14.00">• Unconstrained feature rush</text>
<text text-anchor="middle" x="955.5" y="-731.8" font-family="Times,serif" font-size="14.00">• Technical debt ignored</text>
<text text-anchor="middle" x="955.5" y="-700.8" font-family="Times,serif" font-size="14.00">Governance: EMERGENCY BRAKE</text>
</g>
<!-- q3 -->
<g id="node4" class="node">
<title>q3</title>
<polygon fill="lightblue" stroke="black" points="804.5,-998 584.5,-998 584.5,-670 804.5,-670 804.5,-998"/>
<text text-anchor="middle" x="694.5" y="-982.8" font-family="Times,serif" font-size="14.00">Stable Equilibrium</text>
<text text-anchor="middle" x="694.5" y="-951.8" font-family="Times,serif" font-size="14.00">T: Low (little motion)</text>
<text text-anchor="middle" x="694.5" y="-936.8" font-family="Times,serif" font-size="14.00">V: Low (low tension)</text>
<text text-anchor="middle" x="694.5" y="-921.8" font-family="Times,serif" font-size="14.00">H: Low</text>
<text text-anchor="middle" x="694.5" y="-890.8" font-family="Times,serif" font-size="14.00">Characteristics:</text>
<text text-anchor="middle" x="694.5" y="-875.8" font-family="Times,serif" font-size="14.00">• Steady state</text>
<text text-anchor="middle" x="694.5" y="-860.8" font-family="Times,serif" font-size="14.00">• Mature codebase</text>
<text text-anchor="middle" x="694.5" y="-845.8" font-family="Times,serif" font-size="14.00">• Maintenance mode</text>
<text text-anchor="middle" x="694.5" y="-830.8" font-family="Times,serif" font-size="14.00">• Few changes needed</text>
<text text-anchor="middle" x="694.5" y="-799.8" font-family="Times,serif" font-size="14.00">Example:</text>
<text text-anchor="middle" x="694.5" y="-784.8" font-family="Times,serif" font-size="14.00">• Well&#45;tested library</text>
<text text-anchor="middle" x="694.5" y="-769.8" font-family="Times,serif" font-size="14.00">• Stable infrastructure</text>
<text text-anchor="middle" x="694.5" y="-754.8" font-family="Times,serif" font-size="14.00">• No urgent features</text>
<text text-anchor="middle" x="694.5" y="-723.8" font-family="Times,serif" font-size="14.00">Governance: Monitor only</text>
<text text-anchor="middle" x="694.5" y="-692.8" font-family="Times,serif" font-size="14.00">Note: Can be good (finished)</text>
<text text-anchor="middle" x="694.5" y="-677.8" font-family="Times,serif" font-size="14.00">or bad (stagnant)</text>
</g>
<!-- q4 -->
<g id="node5" class="node">
<title>q4</title>
<polygon fill="lightgray" stroke="black" points="566.5,-990 350.5,-990 350.5,-678 566.5,-678 566.5,-990"/>
<text text-anchor="middle" x="458.5" y="-974.8" font-family="Times,serif" font-size="14.00">Frozen Bureaucracy</text>
<text text-anchor="middle" x="458.5" y="-943.8" font-family="Times,serif" font-size="14.00">T: Low (little motion)</text>
<text text-anchor="middle" x="458.5" y="-928.8" font-family="Times,serif" font-size="14.00">V: High (high tension)</text>
<text text-anchor="middle" x="458.5" y="-913.8" font-family="Times,serif" font-size="14.00">H: High</text>
<text text-anchor="middle" x="458.5" y="-882.8" font-family="Times,serif" font-size="14.00">Characteristics:</text>
<text text-anchor="middle" x="458.5" y="-867.8" font-family="Times,serif" font-size="14.00">• System under stress</text>
<text text-anchor="middle" x="458.5" y="-852.8" font-family="Times,serif" font-size="14.00">• But no one fixing it</text>
<text text-anchor="middle" x="458.5" y="-837.8" font-family="Times,serif" font-size="14.00">• Fear of breaking things</text>
<text text-anchor="middle" x="458.5" y="-822.8" font-family="Times,serif" font-size="14.00">• Process paralysis</text>
<text text-anchor="middle" x="458.5" y="-791.8" font-family="Times,serif" font-size="14.00">Example:</text>
<text text-anchor="middle" x="458.5" y="-776.8" font-family="Times,serif" font-size="14.00">• Complex legacy system</text>
<text text-anchor="middle" x="458.5" y="-761.8" font-family="Times,serif" font-size="14.00">• High coupling, low health</text>
<text text-anchor="middle" x="458.5" y="-746.8" font-family="Times,serif" font-size="14.00">• Too risky to change</text>
<text text-anchor="middle" x="458.5" y="-731.8" font-family="Times,serif" font-size="14.00">• Team afraid to act</text>
<text text-anchor="middle" x="458.5" y="-700.8" font-family="Times,serif" font-size="14.00">Governance: UNFREEZE</text>
<text text-anchor="middle" x="458.5" y="-685.8" font-family="Times,serif" font-size="14.00">(relax constraints, refactor)</text>
</g>
<!-- t_axis -->
<g id="node6" class="node">
<title>t_axis</title>
<text text-anchor="middle" x="1502.5" y="-853.3" font-family="Times,serif" font-size="14.00">T (Kinetic Energy)</text>
<text text-anchor="middle" x="1502.5" y="-822.3" font-family="Times,serif" font-size="14.00">Rate of change</text>
<text text-anchor="middle" x="1502.5" y="-807.3" font-family="Times,serif" font-size="14.00">How fast is system evolving?</text>
</g>
<!-- v_axis -->
<g id="node7" class="node">
<title>v_axis</title>
<text text-anchor="middle" x="1748.5" y="-853.3" font-family="Times,serif" font-size="14.00">V (Potential Energy)</text>
<text text-anchor="middle" x="1748.5" y="-822.3" font-family="Times,serif" font-size="14.00">Structural + Business tension</text>
<text text-anchor="middle" x="1748.5" y="-807.3" font-family="Times,serif" font-size="14.00">How stressed is system?</text>
</g>
<!-- traj_healthy -->
<g id="node8" class="node">
<title>traj_healthy</title>
<polygon fill="lightgreen" stroke="black" points="2666,-860.5 2437,-860.5 2437,-807.5 2666,-807.5 2666,-860.5"/>
<text text-anchor="middle" x="2551.5" y="-845.3" font-family="Times,serif" font-size="14.00">Healthy Project:</text>
<text text-anchor="middle" x="2551.5" y="-830.3" font-family="Times,serif" font-size="14.00">q3 → q1 → q3</text>
<text text-anchor="middle" x="2551.5" y="-815.3" font-family="Times,serif" font-size="14.00">(stable → active dev → stable)</text>
</g>
<!-- traj_crisis -->
<g id="node9" class="node">
<title>traj_crisis</title>
<polygon fill="salmon" stroke="black" points="2418.5,-860.5 2204.5,-860.5 2204.5,-807.5 2418.5,-807.5 2418.5,-860.5"/>
<text text-anchor="middle" x="2311.5" y="-845.3" font-family="Times,serif" font-size="14.00">Crisis:</text>
<text text-anchor="middle" x="2311.5" y="-830.3" font-family="Times,serif" font-size="14.00">q1 → q2 → q4</text>
<text text-anchor="middle" x="2311.5" y="-815.3" font-family="Times,serif" font-size="14.00">(healthy → thrash → frozen)</text>
</g>
<!-- traj_recovery -->
<g id="node10" class="node">
<title>traj_recovery</title>
<polygon fill="lightcyan" stroke="black" points="2186,-860.5 1883,-860.5 1883,-807.5 2186,-807.5 2186,-860.5"/>
<text text-anchor="middle" x="2034.5" y="-845.3" font-family="Times,serif" font-size="14.00">Governed Recovery:</text>
<text text-anchor="middle" x="2034.5" y="-830.3" font-family="Times,serif" font-size="14.00">q2 → q3 → q1</text>
<text text-anchor="middle" x="2034.5" y="-815.3" font-family="Times,serif" font-size="14.00">(emergency brake → refactor → resume)</text>
</g>
<!-- gov_q1 -->
<g id="node11" class="node">
<title>gov_q1</title>
<polygon fill="lightgreen" stroke="black" points="3605,-853 3396,-853 3396,-815 3605,-815 3605,-853"/>
<text text-anchor="middle" x="3500.5" y="-837.8" font-family="Times,serif" font-size="14.00">Q1 (Healthy): Monitor only</text>
<text text-anchor="middle" x="3500.5" y="-822.8" font-family="Times,serif" font-size="14.00">No intervention needed</text>
</g>
<!-- gov_q2 -->
<g id="node12" class="node">
<title>gov_q2</title>
<polygon fill="salmon" stroke="black" points="3378,-860.5 3137,-860.5 3137,-807.5 3378,-807.5 3378,-860.5"/>
<text text-anchor="middle" x="3257.5" y="-845.3" font-family="Times,serif" font-size="14.00">Q2 (Chaotic): Emergency brake</text>
<text text-anchor="middle" x="3257.5" y="-830.3" font-family="Times,serif" font-size="14.00">If H &gt; 2.0: pause features</text>
<text text-anchor="middle" x="3257.5" y="-815.3" font-family="Times,serif" font-size="14.00">Require refactors</text>
</g>
<!-- gov_q3 -->
<g id="node13" class="node">
<title>gov_q3</title>
<polygon fill="lightblue" stroke="black" points="3118.5,-853 2908.5,-853 2908.5,-815 3118.5,-815 3118.5,-853"/>
<text text-anchor="middle" x="3013.5" y="-837.8" font-family="Times,serif" font-size="14.00">Q3 (Stable): Monitor only</text>
<text text-anchor="middle" x="3013.5" y="-822.8" font-family="Times,serif" font-size="14.00">Check if innovation needed</text>
</g>
<!-- gov_q4 -->
<g id="node14" class="node">
<title>gov_q4</title>
<polygon fill="lightgray" stroke="black" points="2890.5,-868 2690.5,-868 2690.5,-800 2890.5,-800 2890.5,-868"/>
<text text-anchor="middle" x="2790.5" y="-852.8" font-family="Times,serif" font-size="14.00">Q4 (Frozen): Unfreeze</text>
<text text-anchor="middle" x="2790.5" y="-837.8" font-family="Times,serif" font-size="14.00">Relax constraints</text>
<text text-anchor="middle" x="2790.5" y="-822.8" font-family="Times,serif" font-size="14.00">Scheduled refactor sprint</text>
<text text-anchor="middle" x="2790.5" y="-807.8" font-family="Times,serif" font-size="14.00">Pay down debt</text>
</g>
<!-- examples -->
<g id="node15" class="node">
<title>examples</title>
<polygon fill="wheat" stroke="black" points="381,-418 0,-418 0,-319 387,-319 387,-412 381,-418"/>
<polyline fill="none" stroke="black" points="381,-418 381,-412 "/>
<polyline fill="none" stroke="black" points="387,-412 381,-412 "/>
<text text-anchor="middle" x="193.5" y="-402.8" font-family="Times,serif" font-size="14.00">Real&#45;World Mapping:</text>
<text text-anchor="middle" x="193.5" y="-371.8" font-family="Times,serif" font-size="14.00">Q1: Well&#45;run agile team, CI/CD, clean architecture</text>
<text text-anchor="middle" x="193.5" y="-356.8" font-family="Times,serif" font-size="14.00">Q2: Startup racing competitor, cutting corners</text>
<text text-anchor="middle" x="193.5" y="-341.8" font-family="Times,serif" font-size="14.00">Q3: Mature open&#45;source library, stable API</text>
<text text-anchor="middle" x="193.5" y="-326.8" font-family="Times,serif" font-size="14.00">Q4: Legacy enterprise system, 10&#45;year&#45;old monolith</text>
</g>
<!-- measurements -->
<g id="node16" class="node">
<title>measurements</title>
<polygon fill="lightcyan" stroke="black" points="352,-283 29,-283 29,-76 358,-76 358,-277 352,-283"/>
<polyline fill="none" stroke="black" points="352,-283 352,-277 "/>
<polyline fill="none" stroke="black" points="358,-277 352,-277 "/>
<text text-anchor="middle" x="193.5" y="-267.8" font-family="Times,serif" font-size="14.00">How to Measure Quadrant:</text>
<text text-anchor="middle" x="193.5" y="-236.8" font-family="Times,serif" font-size="14.00">T = ½ Σ m_i (Δbad_i)²</text>
<text text-anchor="middle" x="193.5" y="-221.8" font-family="Times,serif" font-size="14.00"> &#160;→ Compute from git churn + field changes</text>
<text text-anchor="middle" x="193.5" y="-190.8" font-family="Times,serif" font-size="14.00">V = V_struct + V_bus</text>
<text text-anchor="middle" x="193.5" y="-175.8" font-family="Times,serif" font-size="14.00"> &#160;→ V_struct from Laplacian</text>
<text text-anchor="middle" x="193.5" y="-160.8" font-family="Times,serif" font-size="14.00"> &#160;→ V_bus from demand × badness</text>
<text text-anchor="middle" x="193.5" y="-129.8" font-family="Times,serif" font-size="14.00">H = T + V</text>
<text text-anchor="middle" x="193.5" y="-98.8" font-family="Times,serif" font-size="14.00">Plot (T, V) point each time step</text>
<text text-anchor="middle" x="193.5" y="-83.8" font-family="Times,serif" font-size="14.00">Observe which quadrant over time</text>
</g>
<!-- examples&#45;&gt;measurements -->
<g id="edge5" class="edge">
<title>examples&#45;&gt;measurements</title>
<path fill="none" stroke="black" d="M193.5,-318.86C193.5,-310.84 193.5,-302.24 193.5,-293.4"/>
<polygon fill="black" stroke="black" points="197,-293.34 193.5,-283.34 190,-293.34 197,-293.34"/>
</g>
<!-- cluster_trajectories -->
<g id="node18" class="node">
<title>cluster_trajectories</title>
<path fill="none" stroke="black" d="M259,-562C259,-562 128,-562 128,-562 122,-562 116,-556 116,-550 116,-550 116,-538 116,-538 116,-532 122,-526 128,-526 128,-526 259,-526 259,-526 265,-526 271,-532 271,-538 271,-538 271,-550 271,-550 271,-556 265,-562 259,-562"/>
<text text-anchor="middle" x="193.5" y="-540.3" font-family="Times,serif" font-size="14.00">cluster_trajectories</text>
</g>
<!-- cluster_phase_space&#45;&gt;cluster_trajectories -->
<g id="edge2" class="edge">
<title>cluster_phase_space&#45;&gt;cluster_trajectories</title>
<path fill="none" stroke="black" d="M193.5,-597.7C193.5,-589.98 193.5,-580.71 193.5,-572.11"/>
<polygon fill="black" stroke="black" points="197,-572.1 193.5,-562.1 190,-572.1 197,-572.1"/>
</g>
<!-- cluster_governance -->
<g id="node19" class="node">
<title>cluster_governance</title>
<path fill="none" stroke="black" d="M259,-490C259,-490 128,-490 128,-490 122,-490 116,-484 116,-478 116,-478 116,-466 116,-466 116,-460 122,-454 128,-454 128,-454 259,-454 259,-454 265,-454 271,-460 271,-466 271,-466 271,-478 271,-478 271,-484 265,-490 259,-490"/>
<text text-anchor="middle" x="193.5" y="-468.3" font-family="Times,serif" font-size="14.00">cluster_governance</text>
</g>
<!-- cluster_trajectories&#45;&gt;cluster_governance -->
<g id="edge3" class="edge">
<title>cluster_trajectories&#45;&gt;cluster_governance</title>
<path fill="none" stroke="black" d="M193.5,-525.7C193.5,-517.98 193.5,-508.71 193.5,-500.11"/>
<polygon fill="black" stroke="black" points="197,-500.1 193.5,-490.1 190,-500.1 197,-500.1"/>
</g>
<!-- cluster_governance&#45;&gt;examples -->
<g id="edge4" class="edge">
<title>cluster_governance&#45;&gt;examples</title>
<path fill="none" stroke="black" d="M193.5,-453.78C193.5,-446.55 193.5,-437.69 193.5,-428.44"/>
<polygon fill="black" stroke="black" points="197,-428.33 193.5,-418.33 190,-428.33 197,-428.33"/>
</g>
</g>
</svg>
